G04 #@! TF.GenerationSoftware,KiCad,Pcbnew,(5.1.4-0-10_14)*
G04 #@! TF.CreationDate,2019-11-29T22:31:08-05:00*
G04 #@! TF.ProjectId,a500plus-chipram-expansion,61353030-706c-4757-932d-636869707261,rev?*
G04 #@! TF.SameCoordinates,Original*
G04 #@! TF.FileFunction,Soldermask,Top*
G04 #@! TF.FilePolarity,Negative*
%FSLAX46Y46*%
G04 Gerber Fmt 4.6, Leading zero omitted, Abs format (unit mm)*
G04 Created by KiCad (PCBNEW (5.1.4-0-10_14)) date 2019-11-29 22:31:08*
%MOMM*%
%LPD*%
G04 APERTURE LIST*
%ADD10C,0.100000*%
G04 APERTURE END LIST*
D10*
G36*
X81651000Y-84151000D02*
G01*
X79849000Y-84151000D01*
X79849000Y-82349000D01*
X81651000Y-82349000D01*
X81651000Y-84151000D01*
X81651000Y-84151000D01*
G37*
G36*
X78320443Y-82355519D02*
G01*
X78386627Y-82362037D01*
X78556466Y-82413557D01*
X78712991Y-82497222D01*
X78748729Y-82526552D01*
X78850186Y-82609814D01*
X78933448Y-82711271D01*
X78962778Y-82747009D01*
X79046443Y-82903534D01*
X79097963Y-83073373D01*
X79115359Y-83250000D01*
X79097963Y-83426627D01*
X79046443Y-83596466D01*
X78962778Y-83752991D01*
X78933448Y-83788729D01*
X78850186Y-83890186D01*
X78748729Y-83973448D01*
X78712991Y-84002778D01*
X78556466Y-84086443D01*
X78386627Y-84137963D01*
X78320443Y-84144481D01*
X78254260Y-84151000D01*
X78165740Y-84151000D01*
X78099557Y-84144481D01*
X78033373Y-84137963D01*
X77863534Y-84086443D01*
X77707009Y-84002778D01*
X77671271Y-83973448D01*
X77569814Y-83890186D01*
X77486552Y-83788729D01*
X77457222Y-83752991D01*
X77373557Y-83596466D01*
X77322037Y-83426627D01*
X77304641Y-83250000D01*
X77322037Y-83073373D01*
X77373557Y-82903534D01*
X77457222Y-82747009D01*
X77486552Y-82711271D01*
X77569814Y-82609814D01*
X77671271Y-82526552D01*
X77707009Y-82497222D01*
X77863534Y-82413557D01*
X78033373Y-82362037D01*
X78099557Y-82355519D01*
X78165740Y-82349000D01*
X78254260Y-82349000D01*
X78320443Y-82355519D01*
X78320443Y-82355519D01*
G37*
G36*
X80860442Y-79815518D02*
G01*
X80926627Y-79822037D01*
X81096466Y-79873557D01*
X81252991Y-79957222D01*
X81288729Y-79986552D01*
X81390186Y-80069814D01*
X81473448Y-80171271D01*
X81502778Y-80207009D01*
X81586443Y-80363534D01*
X81637963Y-80533373D01*
X81655359Y-80710000D01*
X81637963Y-80886627D01*
X81586443Y-81056466D01*
X81502778Y-81212991D01*
X81473448Y-81248729D01*
X81390186Y-81350186D01*
X81288729Y-81433448D01*
X81252991Y-81462778D01*
X81096466Y-81546443D01*
X80926627Y-81597963D01*
X80860442Y-81604482D01*
X80794260Y-81611000D01*
X80705740Y-81611000D01*
X80639558Y-81604482D01*
X80573373Y-81597963D01*
X80403534Y-81546443D01*
X80247009Y-81462778D01*
X80211271Y-81433448D01*
X80109814Y-81350186D01*
X80026552Y-81248729D01*
X79997222Y-81212991D01*
X79913557Y-81056466D01*
X79862037Y-80886627D01*
X79844641Y-80710000D01*
X79862037Y-80533373D01*
X79913557Y-80363534D01*
X79997222Y-80207009D01*
X80026552Y-80171271D01*
X80109814Y-80069814D01*
X80211271Y-79986552D01*
X80247009Y-79957222D01*
X80403534Y-79873557D01*
X80573373Y-79822037D01*
X80639558Y-79815518D01*
X80705740Y-79809000D01*
X80794260Y-79809000D01*
X80860442Y-79815518D01*
X80860442Y-79815518D01*
G37*
G36*
X78320442Y-79815518D02*
G01*
X78386627Y-79822037D01*
X78556466Y-79873557D01*
X78712991Y-79957222D01*
X78748729Y-79986552D01*
X78850186Y-80069814D01*
X78933448Y-80171271D01*
X78962778Y-80207009D01*
X79046443Y-80363534D01*
X79097963Y-80533373D01*
X79115359Y-80710000D01*
X79097963Y-80886627D01*
X79046443Y-81056466D01*
X78962778Y-81212991D01*
X78933448Y-81248729D01*
X78850186Y-81350186D01*
X78748729Y-81433448D01*
X78712991Y-81462778D01*
X78556466Y-81546443D01*
X78386627Y-81597963D01*
X78320442Y-81604482D01*
X78254260Y-81611000D01*
X78165740Y-81611000D01*
X78099558Y-81604482D01*
X78033373Y-81597963D01*
X77863534Y-81546443D01*
X77707009Y-81462778D01*
X77671271Y-81433448D01*
X77569814Y-81350186D01*
X77486552Y-81248729D01*
X77457222Y-81212991D01*
X77373557Y-81056466D01*
X77322037Y-80886627D01*
X77304641Y-80710000D01*
X77322037Y-80533373D01*
X77373557Y-80363534D01*
X77457222Y-80207009D01*
X77486552Y-80171271D01*
X77569814Y-80069814D01*
X77671271Y-79986552D01*
X77707009Y-79957222D01*
X77863534Y-79873557D01*
X78033373Y-79822037D01*
X78099558Y-79815518D01*
X78165740Y-79809000D01*
X78254260Y-79809000D01*
X78320442Y-79815518D01*
X78320442Y-79815518D01*
G37*
G36*
X80860442Y-77275518D02*
G01*
X80926627Y-77282037D01*
X81096466Y-77333557D01*
X81252991Y-77417222D01*
X81288729Y-77446552D01*
X81390186Y-77529814D01*
X81473448Y-77631271D01*
X81502778Y-77667009D01*
X81586443Y-77823534D01*
X81637963Y-77993373D01*
X81655359Y-78170000D01*
X81637963Y-78346627D01*
X81586443Y-78516466D01*
X81502778Y-78672991D01*
X81473448Y-78708729D01*
X81390186Y-78810186D01*
X81288729Y-78893448D01*
X81252991Y-78922778D01*
X81096466Y-79006443D01*
X80926627Y-79057963D01*
X80860442Y-79064482D01*
X80794260Y-79071000D01*
X80705740Y-79071000D01*
X80639558Y-79064482D01*
X80573373Y-79057963D01*
X80403534Y-79006443D01*
X80247009Y-78922778D01*
X80211271Y-78893448D01*
X80109814Y-78810186D01*
X80026552Y-78708729D01*
X79997222Y-78672991D01*
X79913557Y-78516466D01*
X79862037Y-78346627D01*
X79844641Y-78170000D01*
X79862037Y-77993373D01*
X79913557Y-77823534D01*
X79997222Y-77667009D01*
X80026552Y-77631271D01*
X80109814Y-77529814D01*
X80211271Y-77446552D01*
X80247009Y-77417222D01*
X80403534Y-77333557D01*
X80573373Y-77282037D01*
X80639558Y-77275518D01*
X80705740Y-77269000D01*
X80794260Y-77269000D01*
X80860442Y-77275518D01*
X80860442Y-77275518D01*
G37*
G36*
X78320442Y-77275518D02*
G01*
X78386627Y-77282037D01*
X78556466Y-77333557D01*
X78712991Y-77417222D01*
X78748729Y-77446552D01*
X78850186Y-77529814D01*
X78933448Y-77631271D01*
X78962778Y-77667009D01*
X79046443Y-77823534D01*
X79097963Y-77993373D01*
X79115359Y-78170000D01*
X79097963Y-78346627D01*
X79046443Y-78516466D01*
X78962778Y-78672991D01*
X78933448Y-78708729D01*
X78850186Y-78810186D01*
X78748729Y-78893448D01*
X78712991Y-78922778D01*
X78556466Y-79006443D01*
X78386627Y-79057963D01*
X78320442Y-79064482D01*
X78254260Y-79071000D01*
X78165740Y-79071000D01*
X78099558Y-79064482D01*
X78033373Y-79057963D01*
X77863534Y-79006443D01*
X77707009Y-78922778D01*
X77671271Y-78893448D01*
X77569814Y-78810186D01*
X77486552Y-78708729D01*
X77457222Y-78672991D01*
X77373557Y-78516466D01*
X77322037Y-78346627D01*
X77304641Y-78170000D01*
X77322037Y-77993373D01*
X77373557Y-77823534D01*
X77457222Y-77667009D01*
X77486552Y-77631271D01*
X77569814Y-77529814D01*
X77671271Y-77446552D01*
X77707009Y-77417222D01*
X77863534Y-77333557D01*
X78033373Y-77282037D01*
X78099558Y-77275518D01*
X78165740Y-77269000D01*
X78254260Y-77269000D01*
X78320442Y-77275518D01*
X78320442Y-77275518D01*
G37*
G36*
X78320443Y-74735519D02*
G01*
X78386627Y-74742037D01*
X78556466Y-74793557D01*
X78712991Y-74877222D01*
X78748729Y-74906552D01*
X78850186Y-74989814D01*
X78933448Y-75091271D01*
X78962778Y-75127009D01*
X79046443Y-75283534D01*
X79097963Y-75453373D01*
X79115359Y-75630000D01*
X79097963Y-75806627D01*
X79046443Y-75976466D01*
X78962778Y-76132991D01*
X78933448Y-76168729D01*
X78850186Y-76270186D01*
X78748729Y-76353448D01*
X78712991Y-76382778D01*
X78556466Y-76466443D01*
X78386627Y-76517963D01*
X78320442Y-76524482D01*
X78254260Y-76531000D01*
X78165740Y-76531000D01*
X78099558Y-76524482D01*
X78033373Y-76517963D01*
X77863534Y-76466443D01*
X77707009Y-76382778D01*
X77671271Y-76353448D01*
X77569814Y-76270186D01*
X77486552Y-76168729D01*
X77457222Y-76132991D01*
X77373557Y-75976466D01*
X77322037Y-75806627D01*
X77304641Y-75630000D01*
X77322037Y-75453373D01*
X77373557Y-75283534D01*
X77457222Y-75127009D01*
X77486552Y-75091271D01*
X77569814Y-74989814D01*
X77671271Y-74906552D01*
X77707009Y-74877222D01*
X77863534Y-74793557D01*
X78033373Y-74742037D01*
X78099557Y-74735519D01*
X78165740Y-74729000D01*
X78254260Y-74729000D01*
X78320443Y-74735519D01*
X78320443Y-74735519D01*
G37*
G36*
X80860443Y-74735519D02*
G01*
X80926627Y-74742037D01*
X81096466Y-74793557D01*
X81252991Y-74877222D01*
X81288729Y-74906552D01*
X81390186Y-74989814D01*
X81473448Y-75091271D01*
X81502778Y-75127009D01*
X81586443Y-75283534D01*
X81637963Y-75453373D01*
X81655359Y-75630000D01*
X81637963Y-75806627D01*
X81586443Y-75976466D01*
X81502778Y-76132991D01*
X81473448Y-76168729D01*
X81390186Y-76270186D01*
X81288729Y-76353448D01*
X81252991Y-76382778D01*
X81096466Y-76466443D01*
X80926627Y-76517963D01*
X80860442Y-76524482D01*
X80794260Y-76531000D01*
X80705740Y-76531000D01*
X80639558Y-76524482D01*
X80573373Y-76517963D01*
X80403534Y-76466443D01*
X80247009Y-76382778D01*
X80211271Y-76353448D01*
X80109814Y-76270186D01*
X80026552Y-76168729D01*
X79997222Y-76132991D01*
X79913557Y-75976466D01*
X79862037Y-75806627D01*
X79844641Y-75630000D01*
X79862037Y-75453373D01*
X79913557Y-75283534D01*
X79997222Y-75127009D01*
X80026552Y-75091271D01*
X80109814Y-74989814D01*
X80211271Y-74906552D01*
X80247009Y-74877222D01*
X80403534Y-74793557D01*
X80573373Y-74742037D01*
X80639557Y-74735519D01*
X80705740Y-74729000D01*
X80794260Y-74729000D01*
X80860443Y-74735519D01*
X80860443Y-74735519D01*
G37*
G36*
X78320442Y-72195518D02*
G01*
X78386627Y-72202037D01*
X78556466Y-72253557D01*
X78556468Y-72253558D01*
X78586035Y-72269362D01*
X78712991Y-72337222D01*
X78748729Y-72366552D01*
X78850186Y-72449814D01*
X78933448Y-72551271D01*
X78962778Y-72587009D01*
X79046443Y-72743534D01*
X79097963Y-72913373D01*
X79115359Y-73090000D01*
X79097963Y-73266627D01*
X79046443Y-73436466D01*
X78962778Y-73592991D01*
X78933448Y-73628729D01*
X78850186Y-73730186D01*
X78748729Y-73813448D01*
X78712991Y-73842778D01*
X78556466Y-73926443D01*
X78386627Y-73977963D01*
X78320443Y-73984481D01*
X78254260Y-73991000D01*
X78165740Y-73991000D01*
X78099557Y-73984481D01*
X78033373Y-73977963D01*
X77863534Y-73926443D01*
X77707009Y-73842778D01*
X77671271Y-73813448D01*
X77569814Y-73730186D01*
X77486552Y-73628729D01*
X77457222Y-73592991D01*
X77373557Y-73436466D01*
X77322037Y-73266627D01*
X77304641Y-73090000D01*
X77322037Y-72913373D01*
X77373557Y-72743534D01*
X77457222Y-72587009D01*
X77486552Y-72551271D01*
X77569814Y-72449814D01*
X77671271Y-72366552D01*
X77707009Y-72337222D01*
X77833965Y-72269362D01*
X77863532Y-72253558D01*
X77863534Y-72253557D01*
X78033373Y-72202037D01*
X78099558Y-72195518D01*
X78165740Y-72189000D01*
X78254260Y-72189000D01*
X78320442Y-72195518D01*
X78320442Y-72195518D01*
G37*
G36*
X80860442Y-72195518D02*
G01*
X80926627Y-72202037D01*
X81096466Y-72253557D01*
X81096468Y-72253558D01*
X81126035Y-72269362D01*
X81252991Y-72337222D01*
X81288729Y-72366552D01*
X81390186Y-72449814D01*
X81473448Y-72551271D01*
X81502778Y-72587009D01*
X81586443Y-72743534D01*
X81637963Y-72913373D01*
X81655359Y-73090000D01*
X81637963Y-73266627D01*
X81586443Y-73436466D01*
X81502778Y-73592991D01*
X81473448Y-73628729D01*
X81390186Y-73730186D01*
X81288729Y-73813448D01*
X81252991Y-73842778D01*
X81096466Y-73926443D01*
X80926627Y-73977963D01*
X80860443Y-73984481D01*
X80794260Y-73991000D01*
X80705740Y-73991000D01*
X80639557Y-73984481D01*
X80573373Y-73977963D01*
X80403534Y-73926443D01*
X80247009Y-73842778D01*
X80211271Y-73813448D01*
X80109814Y-73730186D01*
X80026552Y-73628729D01*
X79997222Y-73592991D01*
X79913557Y-73436466D01*
X79862037Y-73266627D01*
X79844641Y-73090000D01*
X79862037Y-72913373D01*
X79913557Y-72743534D01*
X79997222Y-72587009D01*
X80026552Y-72551271D01*
X80109814Y-72449814D01*
X80211271Y-72366552D01*
X80247009Y-72337222D01*
X80373965Y-72269362D01*
X80403532Y-72253558D01*
X80403534Y-72253557D01*
X80573373Y-72202037D01*
X80639558Y-72195518D01*
X80705740Y-72189000D01*
X80794260Y-72189000D01*
X80860442Y-72195518D01*
X80860442Y-72195518D01*
G37*
G36*
X102564499Y-71328445D02*
G01*
X102601995Y-71339820D01*
X102636554Y-71358292D01*
X102666847Y-71383153D01*
X102691708Y-71413446D01*
X102710180Y-71448005D01*
X102721555Y-71485501D01*
X102726000Y-71530638D01*
X102726000Y-72269362D01*
X102721555Y-72314499D01*
X102710180Y-72351995D01*
X102691708Y-72386554D01*
X102666847Y-72416847D01*
X102636554Y-72441708D01*
X102601995Y-72460180D01*
X102564499Y-72471555D01*
X102519362Y-72476000D01*
X101880638Y-72476000D01*
X101835501Y-72471555D01*
X101798005Y-72460180D01*
X101763446Y-72441708D01*
X101733153Y-72416847D01*
X101708292Y-72386554D01*
X101689820Y-72351995D01*
X101678445Y-72314499D01*
X101674000Y-72269362D01*
X101674000Y-71530638D01*
X101678445Y-71485501D01*
X101689820Y-71448005D01*
X101708292Y-71413446D01*
X101733153Y-71383153D01*
X101763446Y-71358292D01*
X101798005Y-71339820D01*
X101835501Y-71328445D01*
X101880638Y-71324000D01*
X102519362Y-71324000D01*
X102564499Y-71328445D01*
X102564499Y-71328445D01*
G37*
G36*
X80860443Y-69655519D02*
G01*
X80926627Y-69662037D01*
X81096466Y-69713557D01*
X81096468Y-69713558D01*
X81133127Y-69733153D01*
X81252991Y-69797222D01*
X81288729Y-69826552D01*
X81390186Y-69909814D01*
X81473448Y-70011271D01*
X81502778Y-70047009D01*
X81586443Y-70203534D01*
X81637963Y-70373373D01*
X81655359Y-70550000D01*
X81637963Y-70726627D01*
X81586443Y-70896466D01*
X81502778Y-71052991D01*
X81473448Y-71088729D01*
X81390186Y-71190186D01*
X81288729Y-71273448D01*
X81252991Y-71302778D01*
X81096466Y-71386443D01*
X80926627Y-71437963D01*
X80860442Y-71444482D01*
X80794260Y-71451000D01*
X80705740Y-71451000D01*
X80639558Y-71444482D01*
X80573373Y-71437963D01*
X80403534Y-71386443D01*
X80247009Y-71302778D01*
X80211271Y-71273448D01*
X80109814Y-71190186D01*
X80026552Y-71088729D01*
X79997222Y-71052991D01*
X79913557Y-70896466D01*
X79862037Y-70726627D01*
X79844641Y-70550000D01*
X79862037Y-70373373D01*
X79913557Y-70203534D01*
X79997222Y-70047009D01*
X80026552Y-70011271D01*
X80109814Y-69909814D01*
X80211271Y-69826552D01*
X80247009Y-69797222D01*
X80366873Y-69733153D01*
X80403532Y-69713558D01*
X80403534Y-69713557D01*
X80573373Y-69662037D01*
X80639557Y-69655519D01*
X80705740Y-69649000D01*
X80794260Y-69649000D01*
X80860443Y-69655519D01*
X80860443Y-69655519D01*
G37*
G36*
X78320443Y-69655519D02*
G01*
X78386627Y-69662037D01*
X78556466Y-69713557D01*
X78556468Y-69713558D01*
X78593127Y-69733153D01*
X78712991Y-69797222D01*
X78748729Y-69826552D01*
X78850186Y-69909814D01*
X78933448Y-70011271D01*
X78962778Y-70047009D01*
X79046443Y-70203534D01*
X79097963Y-70373373D01*
X79115359Y-70550000D01*
X79097963Y-70726627D01*
X79046443Y-70896466D01*
X78962778Y-71052991D01*
X78933448Y-71088729D01*
X78850186Y-71190186D01*
X78748729Y-71273448D01*
X78712991Y-71302778D01*
X78556466Y-71386443D01*
X78386627Y-71437963D01*
X78320442Y-71444482D01*
X78254260Y-71451000D01*
X78165740Y-71451000D01*
X78099558Y-71444482D01*
X78033373Y-71437963D01*
X77863534Y-71386443D01*
X77707009Y-71302778D01*
X77671271Y-71273448D01*
X77569814Y-71190186D01*
X77486552Y-71088729D01*
X77457222Y-71052991D01*
X77373557Y-70896466D01*
X77322037Y-70726627D01*
X77304641Y-70550000D01*
X77322037Y-70373373D01*
X77373557Y-70203534D01*
X77457222Y-70047009D01*
X77486552Y-70011271D01*
X77569814Y-69909814D01*
X77671271Y-69826552D01*
X77707009Y-69797222D01*
X77826873Y-69733153D01*
X77863532Y-69713558D01*
X77863534Y-69713557D01*
X78033373Y-69662037D01*
X78099557Y-69655519D01*
X78165740Y-69649000D01*
X78254260Y-69649000D01*
X78320443Y-69655519D01*
X78320443Y-69655519D01*
G37*
G36*
X102564499Y-69578445D02*
G01*
X102601995Y-69589820D01*
X102636554Y-69608292D01*
X102666847Y-69633153D01*
X102691708Y-69663446D01*
X102710180Y-69698005D01*
X102721555Y-69735501D01*
X102726000Y-69780638D01*
X102726000Y-70519362D01*
X102721555Y-70564499D01*
X102710180Y-70601995D01*
X102691708Y-70636554D01*
X102666847Y-70666847D01*
X102636554Y-70691708D01*
X102601995Y-70710180D01*
X102564499Y-70721555D01*
X102519362Y-70726000D01*
X101880638Y-70726000D01*
X101835501Y-70721555D01*
X101798005Y-70710180D01*
X101763446Y-70691708D01*
X101733153Y-70666847D01*
X101708292Y-70636554D01*
X101689820Y-70601995D01*
X101678445Y-70564499D01*
X101674000Y-70519362D01*
X101674000Y-69780638D01*
X101678445Y-69735501D01*
X101689820Y-69698005D01*
X101708292Y-69663446D01*
X101733153Y-69633153D01*
X101763446Y-69608292D01*
X101798005Y-69589820D01*
X101835501Y-69578445D01*
X101880638Y-69574000D01*
X102519362Y-69574000D01*
X102564499Y-69578445D01*
X102564499Y-69578445D01*
G37*
G36*
X91814499Y-69678445D02*
G01*
X91851995Y-69689820D01*
X91886554Y-69708292D01*
X91916847Y-69733153D01*
X91941708Y-69763446D01*
X91960180Y-69798005D01*
X91971555Y-69835501D01*
X91976000Y-69880638D01*
X91976000Y-70519362D01*
X91971555Y-70564499D01*
X91960180Y-70601995D01*
X91941708Y-70636554D01*
X91916847Y-70666847D01*
X91886554Y-70691708D01*
X91851995Y-70710180D01*
X91814499Y-70721555D01*
X91769362Y-70726000D01*
X91030638Y-70726000D01*
X90985501Y-70721555D01*
X90948005Y-70710180D01*
X90913446Y-70691708D01*
X90883153Y-70666847D01*
X90858292Y-70636554D01*
X90839820Y-70601995D01*
X90828445Y-70564499D01*
X90824000Y-70519362D01*
X90824000Y-69880638D01*
X90828445Y-69835501D01*
X90839820Y-69798005D01*
X90858292Y-69763446D01*
X90883153Y-69733153D01*
X90913446Y-69708292D01*
X90948005Y-69689820D01*
X90985501Y-69678445D01*
X91030638Y-69674000D01*
X91769362Y-69674000D01*
X91814499Y-69678445D01*
X91814499Y-69678445D01*
G37*
G36*
X90064499Y-69678445D02*
G01*
X90101995Y-69689820D01*
X90136554Y-69708292D01*
X90166847Y-69733153D01*
X90191708Y-69763446D01*
X90210180Y-69798005D01*
X90221555Y-69835501D01*
X90226000Y-69880638D01*
X90226000Y-70519362D01*
X90221555Y-70564499D01*
X90210180Y-70601995D01*
X90191708Y-70636554D01*
X90166847Y-70666847D01*
X90136554Y-70691708D01*
X90101995Y-70710180D01*
X90064499Y-70721555D01*
X90019362Y-70726000D01*
X89280638Y-70726000D01*
X89235501Y-70721555D01*
X89198005Y-70710180D01*
X89163446Y-70691708D01*
X89133153Y-70666847D01*
X89108292Y-70636554D01*
X89089820Y-70601995D01*
X89078445Y-70564499D01*
X89074000Y-70519362D01*
X89074000Y-69880638D01*
X89078445Y-69835501D01*
X89089820Y-69798005D01*
X89108292Y-69763446D01*
X89133153Y-69733153D01*
X89163446Y-69708292D01*
X89198005Y-69689820D01*
X89235501Y-69678445D01*
X89280638Y-69674000D01*
X90019362Y-69674000D01*
X90064499Y-69678445D01*
X90064499Y-69678445D01*
G37*
G36*
X80860442Y-67115518D02*
G01*
X80926627Y-67122037D01*
X81096466Y-67173557D01*
X81252991Y-67257222D01*
X81288729Y-67286552D01*
X81390186Y-67369814D01*
X81473448Y-67471271D01*
X81502778Y-67507009D01*
X81586443Y-67663534D01*
X81637963Y-67833373D01*
X81655359Y-68010000D01*
X81637963Y-68186627D01*
X81586443Y-68356466D01*
X81502778Y-68512991D01*
X81473448Y-68548729D01*
X81390186Y-68650186D01*
X81288729Y-68733448D01*
X81252991Y-68762778D01*
X81096466Y-68846443D01*
X80926627Y-68897963D01*
X80860442Y-68904482D01*
X80794260Y-68911000D01*
X80705740Y-68911000D01*
X80639558Y-68904482D01*
X80573373Y-68897963D01*
X80403534Y-68846443D01*
X80247009Y-68762778D01*
X80211271Y-68733448D01*
X80109814Y-68650186D01*
X80026552Y-68548729D01*
X79997222Y-68512991D01*
X79913557Y-68356466D01*
X79862037Y-68186627D01*
X79844641Y-68010000D01*
X79862037Y-67833373D01*
X79913557Y-67663534D01*
X79997222Y-67507009D01*
X80026552Y-67471271D01*
X80109814Y-67369814D01*
X80211271Y-67286552D01*
X80247009Y-67257222D01*
X80403534Y-67173557D01*
X80573373Y-67122037D01*
X80639558Y-67115518D01*
X80705740Y-67109000D01*
X80794260Y-67109000D01*
X80860442Y-67115518D01*
X80860442Y-67115518D01*
G37*
G36*
X78320442Y-67115518D02*
G01*
X78386627Y-67122037D01*
X78556466Y-67173557D01*
X78712991Y-67257222D01*
X78748729Y-67286552D01*
X78850186Y-67369814D01*
X78933448Y-67471271D01*
X78962778Y-67507009D01*
X79046443Y-67663534D01*
X79097963Y-67833373D01*
X79115359Y-68010000D01*
X79097963Y-68186627D01*
X79046443Y-68356466D01*
X78962778Y-68512991D01*
X78933448Y-68548729D01*
X78850186Y-68650186D01*
X78748729Y-68733448D01*
X78712991Y-68762778D01*
X78556466Y-68846443D01*
X78386627Y-68897963D01*
X78320442Y-68904482D01*
X78254260Y-68911000D01*
X78165740Y-68911000D01*
X78099558Y-68904482D01*
X78033373Y-68897963D01*
X77863534Y-68846443D01*
X77707009Y-68762778D01*
X77671271Y-68733448D01*
X77569814Y-68650186D01*
X77486552Y-68548729D01*
X77457222Y-68512991D01*
X77373557Y-68356466D01*
X77322037Y-68186627D01*
X77304641Y-68010000D01*
X77322037Y-67833373D01*
X77373557Y-67663534D01*
X77457222Y-67507009D01*
X77486552Y-67471271D01*
X77569814Y-67369814D01*
X77671271Y-67286552D01*
X77707009Y-67257222D01*
X77863534Y-67173557D01*
X78033373Y-67122037D01*
X78099558Y-67115518D01*
X78165740Y-67109000D01*
X78254260Y-67109000D01*
X78320442Y-67115518D01*
X78320442Y-67115518D01*
G37*
G36*
X102819987Y-59876524D02*
G01*
X102838730Y-59882210D01*
X102855997Y-59891439D01*
X102871136Y-59903864D01*
X102883561Y-59919003D01*
X102892790Y-59936270D01*
X102898476Y-59955013D01*
X102901000Y-59980640D01*
X102901000Y-60419360D01*
X102898476Y-60444987D01*
X102892790Y-60463730D01*
X102883561Y-60480997D01*
X102871135Y-60496138D01*
X102862317Y-60503375D01*
X102844990Y-60520702D01*
X102831377Y-60541076D01*
X102821999Y-60563715D01*
X102817219Y-60587748D01*
X102817219Y-60612252D01*
X102821999Y-60636285D01*
X102831377Y-60658924D01*
X102844991Y-60679299D01*
X102862317Y-60696625D01*
X102871135Y-60703862D01*
X102883561Y-60719003D01*
X102892790Y-60736270D01*
X102898476Y-60755013D01*
X102901000Y-60780640D01*
X102901000Y-61219360D01*
X102898476Y-61244987D01*
X102892790Y-61263730D01*
X102883561Y-61280997D01*
X102871135Y-61296138D01*
X102862317Y-61303375D01*
X102844990Y-61320702D01*
X102831377Y-61341076D01*
X102821999Y-61363715D01*
X102817219Y-61387748D01*
X102817219Y-61412252D01*
X102821999Y-61436285D01*
X102831377Y-61458924D01*
X102844991Y-61479299D01*
X102862317Y-61496625D01*
X102871135Y-61503862D01*
X102883561Y-61519003D01*
X102892790Y-61536270D01*
X102898476Y-61555013D01*
X102901000Y-61580640D01*
X102901000Y-62019360D01*
X102898476Y-62044987D01*
X102892790Y-62063730D01*
X102883561Y-62080997D01*
X102871135Y-62096138D01*
X102862317Y-62103375D01*
X102844990Y-62120702D01*
X102831377Y-62141076D01*
X102821999Y-62163715D01*
X102817219Y-62187748D01*
X102817219Y-62212252D01*
X102821999Y-62236285D01*
X102831377Y-62258924D01*
X102844991Y-62279299D01*
X102862317Y-62296625D01*
X102871135Y-62303862D01*
X102883561Y-62319003D01*
X102892790Y-62336270D01*
X102898476Y-62355013D01*
X102901000Y-62380640D01*
X102901000Y-62819360D01*
X102898476Y-62844987D01*
X102892790Y-62863730D01*
X102883561Y-62880997D01*
X102871135Y-62896138D01*
X102862317Y-62903375D01*
X102844990Y-62920702D01*
X102831377Y-62941076D01*
X102821999Y-62963715D01*
X102817219Y-62987748D01*
X102817219Y-63012252D01*
X102821999Y-63036285D01*
X102831377Y-63058924D01*
X102844991Y-63079299D01*
X102862317Y-63096625D01*
X102871135Y-63103862D01*
X102883561Y-63119003D01*
X102892790Y-63136270D01*
X102898476Y-63155013D01*
X102901000Y-63180640D01*
X102901000Y-63619360D01*
X102898476Y-63644987D01*
X102892790Y-63663730D01*
X102883561Y-63680997D01*
X102871135Y-63696138D01*
X102862317Y-63703375D01*
X102844990Y-63720702D01*
X102831377Y-63741076D01*
X102821999Y-63763715D01*
X102817219Y-63787748D01*
X102817219Y-63812252D01*
X102821999Y-63836285D01*
X102831377Y-63858924D01*
X102844991Y-63879299D01*
X102862317Y-63896625D01*
X102871135Y-63903862D01*
X102883561Y-63919003D01*
X102892790Y-63936270D01*
X102898476Y-63955013D01*
X102901000Y-63980640D01*
X102901000Y-64419360D01*
X102898476Y-64444987D01*
X102892790Y-64463730D01*
X102883561Y-64480997D01*
X102871135Y-64496138D01*
X102862317Y-64503375D01*
X102844990Y-64520702D01*
X102831377Y-64541076D01*
X102821999Y-64563715D01*
X102817219Y-64587748D01*
X102817219Y-64612252D01*
X102821999Y-64636285D01*
X102831377Y-64658924D01*
X102844991Y-64679299D01*
X102862317Y-64696625D01*
X102871135Y-64703862D01*
X102883561Y-64719003D01*
X102892790Y-64736270D01*
X102898476Y-64755013D01*
X102901000Y-64780640D01*
X102901000Y-65219360D01*
X102898476Y-65244987D01*
X102892790Y-65263730D01*
X102883561Y-65280997D01*
X102871135Y-65296138D01*
X102862317Y-65303375D01*
X102844990Y-65320702D01*
X102831377Y-65341076D01*
X102821999Y-65363715D01*
X102817219Y-65387748D01*
X102817219Y-65412252D01*
X102821999Y-65436285D01*
X102831377Y-65458924D01*
X102844991Y-65479299D01*
X102862317Y-65496625D01*
X102871135Y-65503862D01*
X102883561Y-65519003D01*
X102892790Y-65536270D01*
X102898476Y-65555013D01*
X102901000Y-65580640D01*
X102901000Y-66019360D01*
X102898476Y-66044987D01*
X102892790Y-66063730D01*
X102883561Y-66080997D01*
X102871135Y-66096138D01*
X102862317Y-66103375D01*
X102844990Y-66120702D01*
X102831377Y-66141076D01*
X102821999Y-66163715D01*
X102817219Y-66187748D01*
X102817219Y-66212252D01*
X102821999Y-66236285D01*
X102831377Y-66258924D01*
X102844991Y-66279299D01*
X102862317Y-66296625D01*
X102871135Y-66303862D01*
X102883561Y-66319003D01*
X102892790Y-66336270D01*
X102898476Y-66355013D01*
X102901000Y-66380640D01*
X102901000Y-66819360D01*
X102898476Y-66844987D01*
X102892790Y-66863730D01*
X102883561Y-66880997D01*
X102871135Y-66896138D01*
X102862317Y-66903375D01*
X102844990Y-66920702D01*
X102831377Y-66941076D01*
X102821999Y-66963715D01*
X102817219Y-66987748D01*
X102817219Y-67012252D01*
X102821999Y-67036285D01*
X102831377Y-67058924D01*
X102844991Y-67079299D01*
X102862317Y-67096625D01*
X102871135Y-67103862D01*
X102883561Y-67119003D01*
X102892790Y-67136270D01*
X102898476Y-67155013D01*
X102901000Y-67180640D01*
X102901000Y-67619360D01*
X102898476Y-67644987D01*
X102892790Y-67663730D01*
X102883561Y-67680997D01*
X102871136Y-67696136D01*
X102855997Y-67708561D01*
X102838730Y-67717790D01*
X102819987Y-67723476D01*
X102794360Y-67726000D01*
X101380640Y-67726000D01*
X101355013Y-67723476D01*
X101336270Y-67717790D01*
X101319003Y-67708561D01*
X101303864Y-67696136D01*
X101291439Y-67680997D01*
X101282210Y-67663730D01*
X101276524Y-67644987D01*
X101274000Y-67619360D01*
X101274000Y-67180640D01*
X101276524Y-67155013D01*
X101282210Y-67136270D01*
X101291439Y-67119003D01*
X101303865Y-67103862D01*
X101312683Y-67096625D01*
X101330010Y-67079298D01*
X101343623Y-67058924D01*
X101353001Y-67036285D01*
X101357781Y-67012252D01*
X101357781Y-66987748D01*
X101353001Y-66963715D01*
X101343623Y-66941076D01*
X101330009Y-66920701D01*
X101312683Y-66903375D01*
X101303865Y-66896138D01*
X101291439Y-66880997D01*
X101282210Y-66863730D01*
X101276524Y-66844987D01*
X101274000Y-66819360D01*
X101274000Y-66380640D01*
X101276524Y-66355013D01*
X101282210Y-66336270D01*
X101291439Y-66319003D01*
X101303865Y-66303862D01*
X101312683Y-66296625D01*
X101330010Y-66279298D01*
X101343623Y-66258924D01*
X101353001Y-66236285D01*
X101357781Y-66212252D01*
X101357781Y-66187748D01*
X101353001Y-66163715D01*
X101343623Y-66141076D01*
X101330009Y-66120701D01*
X101312683Y-66103375D01*
X101303865Y-66096138D01*
X101291439Y-66080997D01*
X101282210Y-66063730D01*
X101276524Y-66044987D01*
X101274000Y-66019360D01*
X101274000Y-65580640D01*
X101276524Y-65555013D01*
X101282210Y-65536270D01*
X101291439Y-65519003D01*
X101303865Y-65503862D01*
X101312683Y-65496625D01*
X101330010Y-65479298D01*
X101343623Y-65458924D01*
X101353001Y-65436285D01*
X101357781Y-65412252D01*
X101357781Y-65387748D01*
X101353001Y-65363715D01*
X101343623Y-65341076D01*
X101330009Y-65320701D01*
X101312683Y-65303375D01*
X101303865Y-65296138D01*
X101291439Y-65280997D01*
X101282210Y-65263730D01*
X101276524Y-65244987D01*
X101274000Y-65219360D01*
X101274000Y-64780640D01*
X101276524Y-64755013D01*
X101282210Y-64736270D01*
X101291439Y-64719003D01*
X101303865Y-64703862D01*
X101312683Y-64696625D01*
X101330010Y-64679298D01*
X101343623Y-64658924D01*
X101353001Y-64636285D01*
X101357781Y-64612252D01*
X101357781Y-64587748D01*
X101353001Y-64563715D01*
X101343623Y-64541076D01*
X101330009Y-64520701D01*
X101312683Y-64503375D01*
X101303865Y-64496138D01*
X101291439Y-64480997D01*
X101282210Y-64463730D01*
X101276524Y-64444987D01*
X101274000Y-64419360D01*
X101274000Y-63980640D01*
X101276524Y-63955013D01*
X101282210Y-63936270D01*
X101291439Y-63919003D01*
X101303865Y-63903862D01*
X101312683Y-63896625D01*
X101330010Y-63879298D01*
X101343623Y-63858924D01*
X101353001Y-63836285D01*
X101357781Y-63812252D01*
X101357781Y-63787748D01*
X101353001Y-63763715D01*
X101343623Y-63741076D01*
X101330009Y-63720701D01*
X101312683Y-63703375D01*
X101303865Y-63696138D01*
X101291439Y-63680997D01*
X101282210Y-63663730D01*
X101276524Y-63644987D01*
X101274000Y-63619360D01*
X101274000Y-63180640D01*
X101276524Y-63155013D01*
X101282210Y-63136270D01*
X101291439Y-63119003D01*
X101303865Y-63103862D01*
X101312683Y-63096625D01*
X101330010Y-63079298D01*
X101343623Y-63058924D01*
X101353001Y-63036285D01*
X101357781Y-63012252D01*
X101357781Y-62987748D01*
X101353001Y-62963715D01*
X101343623Y-62941076D01*
X101330009Y-62920701D01*
X101312683Y-62903375D01*
X101303865Y-62896138D01*
X101291439Y-62880997D01*
X101282210Y-62863730D01*
X101276524Y-62844987D01*
X101274000Y-62819360D01*
X101274000Y-62380640D01*
X101276524Y-62355013D01*
X101282210Y-62336270D01*
X101291439Y-62319003D01*
X101303865Y-62303862D01*
X101312683Y-62296625D01*
X101330010Y-62279298D01*
X101343623Y-62258924D01*
X101353001Y-62236285D01*
X101357781Y-62212252D01*
X101357781Y-62187748D01*
X101353001Y-62163715D01*
X101343623Y-62141076D01*
X101330009Y-62120701D01*
X101312683Y-62103375D01*
X101303865Y-62096138D01*
X101291439Y-62080997D01*
X101282210Y-62063730D01*
X101276524Y-62044987D01*
X101274000Y-62019360D01*
X101274000Y-61580640D01*
X101276524Y-61555013D01*
X101282210Y-61536270D01*
X101291439Y-61519003D01*
X101303865Y-61503862D01*
X101312683Y-61496625D01*
X101330010Y-61479298D01*
X101343623Y-61458924D01*
X101353001Y-61436285D01*
X101357781Y-61412252D01*
X101357781Y-61387748D01*
X101353001Y-61363715D01*
X101343623Y-61341076D01*
X101330009Y-61320701D01*
X101312683Y-61303375D01*
X101303865Y-61296138D01*
X101291439Y-61280997D01*
X101282210Y-61263730D01*
X101276524Y-61244987D01*
X101274000Y-61219360D01*
X101274000Y-60780640D01*
X101276524Y-60755013D01*
X101282210Y-60736270D01*
X101291439Y-60719003D01*
X101303865Y-60703862D01*
X101312683Y-60696625D01*
X101330010Y-60679298D01*
X101343623Y-60658924D01*
X101353001Y-60636285D01*
X101357781Y-60612252D01*
X101357781Y-60587748D01*
X101353001Y-60563715D01*
X101343623Y-60541076D01*
X101330009Y-60520701D01*
X101312683Y-60503375D01*
X101303865Y-60496138D01*
X101291439Y-60480997D01*
X101282210Y-60463730D01*
X101276524Y-60444987D01*
X101274000Y-60419360D01*
X101274000Y-59980640D01*
X101276524Y-59955013D01*
X101282210Y-59936270D01*
X101291439Y-59919003D01*
X101303864Y-59903864D01*
X101319003Y-59891439D01*
X101336270Y-59882210D01*
X101355013Y-59876524D01*
X101380640Y-59874000D01*
X102794360Y-59874000D01*
X102819987Y-59876524D01*
X102819987Y-59876524D01*
G37*
G36*
X91644987Y-59876524D02*
G01*
X91663730Y-59882210D01*
X91680997Y-59891439D01*
X91696136Y-59903864D01*
X91708561Y-59919003D01*
X91717790Y-59936270D01*
X91723476Y-59955013D01*
X91726000Y-59980640D01*
X91726000Y-60419360D01*
X91723476Y-60444987D01*
X91717790Y-60463730D01*
X91708561Y-60480997D01*
X91696135Y-60496138D01*
X91687317Y-60503375D01*
X91669990Y-60520702D01*
X91656377Y-60541076D01*
X91646999Y-60563715D01*
X91642219Y-60587748D01*
X91642219Y-60612252D01*
X91646999Y-60636285D01*
X91656377Y-60658924D01*
X91669991Y-60679299D01*
X91687317Y-60696625D01*
X91696135Y-60703862D01*
X91708561Y-60719003D01*
X91717790Y-60736270D01*
X91723476Y-60755013D01*
X91726000Y-60780640D01*
X91726000Y-61219360D01*
X91723476Y-61244987D01*
X91717790Y-61263730D01*
X91708561Y-61280997D01*
X91696135Y-61296138D01*
X91687317Y-61303375D01*
X91669990Y-61320702D01*
X91656377Y-61341076D01*
X91646999Y-61363715D01*
X91642219Y-61387748D01*
X91642219Y-61412252D01*
X91646999Y-61436285D01*
X91656377Y-61458924D01*
X91669991Y-61479299D01*
X91687317Y-61496625D01*
X91696135Y-61503862D01*
X91708561Y-61519003D01*
X91717790Y-61536270D01*
X91723476Y-61555013D01*
X91726000Y-61580640D01*
X91726000Y-62019360D01*
X91723476Y-62044987D01*
X91717790Y-62063730D01*
X91708561Y-62080997D01*
X91696135Y-62096138D01*
X91687317Y-62103375D01*
X91669990Y-62120702D01*
X91656377Y-62141076D01*
X91646999Y-62163715D01*
X91642219Y-62187748D01*
X91642219Y-62212252D01*
X91646999Y-62236285D01*
X91656377Y-62258924D01*
X91669991Y-62279299D01*
X91687317Y-62296625D01*
X91696135Y-62303862D01*
X91708561Y-62319003D01*
X91717790Y-62336270D01*
X91723476Y-62355013D01*
X91726000Y-62380640D01*
X91726000Y-62819360D01*
X91723476Y-62844987D01*
X91717790Y-62863730D01*
X91708561Y-62880997D01*
X91696135Y-62896138D01*
X91687317Y-62903375D01*
X91669990Y-62920702D01*
X91656377Y-62941076D01*
X91646999Y-62963715D01*
X91642219Y-62987748D01*
X91642219Y-63012252D01*
X91646999Y-63036285D01*
X91656377Y-63058924D01*
X91669991Y-63079299D01*
X91687317Y-63096625D01*
X91696135Y-63103862D01*
X91708561Y-63119003D01*
X91717790Y-63136270D01*
X91723476Y-63155013D01*
X91726000Y-63180640D01*
X91726000Y-63619360D01*
X91723476Y-63644987D01*
X91717790Y-63663730D01*
X91708561Y-63680997D01*
X91696135Y-63696138D01*
X91687317Y-63703375D01*
X91669990Y-63720702D01*
X91656377Y-63741076D01*
X91646999Y-63763715D01*
X91642219Y-63787748D01*
X91642219Y-63812252D01*
X91646999Y-63836285D01*
X91656377Y-63858924D01*
X91669991Y-63879299D01*
X91687317Y-63896625D01*
X91696135Y-63903862D01*
X91708561Y-63919003D01*
X91717790Y-63936270D01*
X91723476Y-63955013D01*
X91726000Y-63980640D01*
X91726000Y-64419360D01*
X91723476Y-64444987D01*
X91717790Y-64463730D01*
X91708561Y-64480997D01*
X91696135Y-64496138D01*
X91687317Y-64503375D01*
X91669990Y-64520702D01*
X91656377Y-64541076D01*
X91646999Y-64563715D01*
X91642219Y-64587748D01*
X91642219Y-64612252D01*
X91646999Y-64636285D01*
X91656377Y-64658924D01*
X91669991Y-64679299D01*
X91687317Y-64696625D01*
X91696135Y-64703862D01*
X91708561Y-64719003D01*
X91717790Y-64736270D01*
X91723476Y-64755013D01*
X91726000Y-64780640D01*
X91726000Y-65219360D01*
X91723476Y-65244987D01*
X91717790Y-65263730D01*
X91708561Y-65280997D01*
X91696135Y-65296138D01*
X91687317Y-65303375D01*
X91669990Y-65320702D01*
X91656377Y-65341076D01*
X91646999Y-65363715D01*
X91642219Y-65387748D01*
X91642219Y-65412252D01*
X91646999Y-65436285D01*
X91656377Y-65458924D01*
X91669991Y-65479299D01*
X91687317Y-65496625D01*
X91696135Y-65503862D01*
X91708561Y-65519003D01*
X91717790Y-65536270D01*
X91723476Y-65555013D01*
X91726000Y-65580640D01*
X91726000Y-66019360D01*
X91723476Y-66044987D01*
X91717790Y-66063730D01*
X91708561Y-66080997D01*
X91696135Y-66096138D01*
X91687317Y-66103375D01*
X91669990Y-66120702D01*
X91656377Y-66141076D01*
X91646999Y-66163715D01*
X91642219Y-66187748D01*
X91642219Y-66212252D01*
X91646999Y-66236285D01*
X91656377Y-66258924D01*
X91669991Y-66279299D01*
X91687317Y-66296625D01*
X91696135Y-66303862D01*
X91708561Y-66319003D01*
X91717790Y-66336270D01*
X91723476Y-66355013D01*
X91726000Y-66380640D01*
X91726000Y-66819360D01*
X91723476Y-66844987D01*
X91717790Y-66863730D01*
X91708561Y-66880997D01*
X91696135Y-66896138D01*
X91687317Y-66903375D01*
X91669990Y-66920702D01*
X91656377Y-66941076D01*
X91646999Y-66963715D01*
X91642219Y-66987748D01*
X91642219Y-67012252D01*
X91646999Y-67036285D01*
X91656377Y-67058924D01*
X91669991Y-67079299D01*
X91687317Y-67096625D01*
X91696135Y-67103862D01*
X91708561Y-67119003D01*
X91717790Y-67136270D01*
X91723476Y-67155013D01*
X91726000Y-67180640D01*
X91726000Y-67619360D01*
X91723476Y-67644987D01*
X91717790Y-67663730D01*
X91708561Y-67680997D01*
X91696136Y-67696136D01*
X91680997Y-67708561D01*
X91663730Y-67717790D01*
X91644987Y-67723476D01*
X91619360Y-67726000D01*
X90205640Y-67726000D01*
X90180013Y-67723476D01*
X90161270Y-67717790D01*
X90144003Y-67708561D01*
X90128864Y-67696136D01*
X90116439Y-67680997D01*
X90107210Y-67663730D01*
X90101524Y-67644987D01*
X90099000Y-67619360D01*
X90099000Y-67180640D01*
X90101524Y-67155013D01*
X90107210Y-67136270D01*
X90116439Y-67119003D01*
X90128865Y-67103862D01*
X90137683Y-67096625D01*
X90155010Y-67079298D01*
X90168623Y-67058924D01*
X90178001Y-67036285D01*
X90182781Y-67012252D01*
X90182781Y-66987748D01*
X90178001Y-66963715D01*
X90168623Y-66941076D01*
X90155009Y-66920701D01*
X90137683Y-66903375D01*
X90128865Y-66896138D01*
X90116439Y-66880997D01*
X90107210Y-66863730D01*
X90101524Y-66844987D01*
X90099000Y-66819360D01*
X90099000Y-66380640D01*
X90101524Y-66355013D01*
X90107210Y-66336270D01*
X90116439Y-66319003D01*
X90128865Y-66303862D01*
X90137683Y-66296625D01*
X90155010Y-66279298D01*
X90168623Y-66258924D01*
X90178001Y-66236285D01*
X90182781Y-66212252D01*
X90182781Y-66187748D01*
X90178001Y-66163715D01*
X90168623Y-66141076D01*
X90155009Y-66120701D01*
X90137683Y-66103375D01*
X90128865Y-66096138D01*
X90116439Y-66080997D01*
X90107210Y-66063730D01*
X90101524Y-66044987D01*
X90099000Y-66019360D01*
X90099000Y-65580640D01*
X90101524Y-65555013D01*
X90107210Y-65536270D01*
X90116439Y-65519003D01*
X90128865Y-65503862D01*
X90137683Y-65496625D01*
X90155010Y-65479298D01*
X90168623Y-65458924D01*
X90178001Y-65436285D01*
X90182781Y-65412252D01*
X90182781Y-65387748D01*
X90178001Y-65363715D01*
X90168623Y-65341076D01*
X90155009Y-65320701D01*
X90137683Y-65303375D01*
X90128865Y-65296138D01*
X90116439Y-65280997D01*
X90107210Y-65263730D01*
X90101524Y-65244987D01*
X90099000Y-65219360D01*
X90099000Y-64780640D01*
X90101524Y-64755013D01*
X90107210Y-64736270D01*
X90116439Y-64719003D01*
X90128865Y-64703862D01*
X90137683Y-64696625D01*
X90155010Y-64679298D01*
X90168623Y-64658924D01*
X90178001Y-64636285D01*
X90182781Y-64612252D01*
X90182781Y-64587748D01*
X90178001Y-64563715D01*
X90168623Y-64541076D01*
X90155009Y-64520701D01*
X90137683Y-64503375D01*
X90128865Y-64496138D01*
X90116439Y-64480997D01*
X90107210Y-64463730D01*
X90101524Y-64444987D01*
X90099000Y-64419360D01*
X90099000Y-63980640D01*
X90101524Y-63955013D01*
X90107210Y-63936270D01*
X90116439Y-63919003D01*
X90128865Y-63903862D01*
X90137683Y-63896625D01*
X90155010Y-63879298D01*
X90168623Y-63858924D01*
X90178001Y-63836285D01*
X90182781Y-63812252D01*
X90182781Y-63787748D01*
X90178001Y-63763715D01*
X90168623Y-63741076D01*
X90155009Y-63720701D01*
X90137683Y-63703375D01*
X90128865Y-63696138D01*
X90116439Y-63680997D01*
X90107210Y-63663730D01*
X90101524Y-63644987D01*
X90099000Y-63619360D01*
X90099000Y-63180640D01*
X90101524Y-63155013D01*
X90107210Y-63136270D01*
X90116439Y-63119003D01*
X90128865Y-63103862D01*
X90137683Y-63096625D01*
X90155010Y-63079298D01*
X90168623Y-63058924D01*
X90178001Y-63036285D01*
X90182781Y-63012252D01*
X90182781Y-62987748D01*
X90178001Y-62963715D01*
X90168623Y-62941076D01*
X90155009Y-62920701D01*
X90137683Y-62903375D01*
X90128865Y-62896138D01*
X90116439Y-62880997D01*
X90107210Y-62863730D01*
X90101524Y-62844987D01*
X90099000Y-62819360D01*
X90099000Y-62380640D01*
X90101524Y-62355013D01*
X90107210Y-62336270D01*
X90116439Y-62319003D01*
X90128865Y-62303862D01*
X90137683Y-62296625D01*
X90155010Y-62279298D01*
X90168623Y-62258924D01*
X90178001Y-62236285D01*
X90182781Y-62212252D01*
X90182781Y-62187748D01*
X90178001Y-62163715D01*
X90168623Y-62141076D01*
X90155009Y-62120701D01*
X90137683Y-62103375D01*
X90128865Y-62096138D01*
X90116439Y-62080997D01*
X90107210Y-62063730D01*
X90101524Y-62044987D01*
X90099000Y-62019360D01*
X90099000Y-61580640D01*
X90101524Y-61555013D01*
X90107210Y-61536270D01*
X90116439Y-61519003D01*
X90128865Y-61503862D01*
X90137683Y-61496625D01*
X90155010Y-61479298D01*
X90168623Y-61458924D01*
X90178001Y-61436285D01*
X90182781Y-61412252D01*
X90182781Y-61387748D01*
X90178001Y-61363715D01*
X90168623Y-61341076D01*
X90155009Y-61320701D01*
X90137683Y-61303375D01*
X90128865Y-61296138D01*
X90116439Y-61280997D01*
X90107210Y-61263730D01*
X90101524Y-61244987D01*
X90099000Y-61219360D01*
X90099000Y-60780640D01*
X90101524Y-60755013D01*
X90107210Y-60736270D01*
X90116439Y-60719003D01*
X90128865Y-60703862D01*
X90137683Y-60696625D01*
X90155010Y-60679298D01*
X90168623Y-60658924D01*
X90178001Y-60636285D01*
X90182781Y-60612252D01*
X90182781Y-60587748D01*
X90178001Y-60563715D01*
X90168623Y-60541076D01*
X90155009Y-60520701D01*
X90137683Y-60503375D01*
X90128865Y-60496138D01*
X90116439Y-60480997D01*
X90107210Y-60463730D01*
X90101524Y-60444987D01*
X90099000Y-60419360D01*
X90099000Y-59980640D01*
X90101524Y-59955013D01*
X90107210Y-59936270D01*
X90116439Y-59919003D01*
X90128864Y-59903864D01*
X90144003Y-59891439D01*
X90161270Y-59882210D01*
X90180013Y-59876524D01*
X90205640Y-59874000D01*
X91619360Y-59874000D01*
X91644987Y-59876524D01*
X91644987Y-59876524D01*
G37*
G36*
X78320442Y-64575518D02*
G01*
X78386627Y-64582037D01*
X78556466Y-64633557D01*
X78712991Y-64717222D01*
X78736201Y-64736270D01*
X78850186Y-64829814D01*
X78933448Y-64931271D01*
X78962778Y-64967009D01*
X79046443Y-65123534D01*
X79097963Y-65293373D01*
X79115359Y-65470000D01*
X79097963Y-65646627D01*
X79046443Y-65816466D01*
X78962778Y-65972991D01*
X78933448Y-66008729D01*
X78850186Y-66110186D01*
X78755675Y-66187748D01*
X78712991Y-66222778D01*
X78712989Y-66222779D01*
X78607249Y-66279299D01*
X78556466Y-66306443D01*
X78386627Y-66357963D01*
X78320443Y-66364481D01*
X78254260Y-66371000D01*
X78165740Y-66371000D01*
X78099557Y-66364481D01*
X78033373Y-66357963D01*
X77863534Y-66306443D01*
X77812752Y-66279299D01*
X77707011Y-66222779D01*
X77707009Y-66222778D01*
X77664325Y-66187748D01*
X77569814Y-66110186D01*
X77486552Y-66008729D01*
X77457222Y-65972991D01*
X77373557Y-65816466D01*
X77322037Y-65646627D01*
X77304641Y-65470000D01*
X77322037Y-65293373D01*
X77373557Y-65123534D01*
X77457222Y-64967009D01*
X77486552Y-64931271D01*
X77569814Y-64829814D01*
X77683799Y-64736270D01*
X77707009Y-64717222D01*
X77863534Y-64633557D01*
X78033373Y-64582037D01*
X78099558Y-64575518D01*
X78165740Y-64569000D01*
X78254260Y-64569000D01*
X78320442Y-64575518D01*
X78320442Y-64575518D01*
G37*
G36*
X80860442Y-64575518D02*
G01*
X80926627Y-64582037D01*
X81096466Y-64633557D01*
X81252991Y-64717222D01*
X81276201Y-64736270D01*
X81390186Y-64829814D01*
X81473448Y-64931271D01*
X81502778Y-64967009D01*
X81586443Y-65123534D01*
X81637963Y-65293373D01*
X81655359Y-65470000D01*
X81637963Y-65646627D01*
X81586443Y-65816466D01*
X81502778Y-65972991D01*
X81473448Y-66008729D01*
X81390186Y-66110186D01*
X81295675Y-66187748D01*
X81252991Y-66222778D01*
X81252989Y-66222779D01*
X81147249Y-66279299D01*
X81096466Y-66306443D01*
X80926627Y-66357963D01*
X80860443Y-66364481D01*
X80794260Y-66371000D01*
X80705740Y-66371000D01*
X80639557Y-66364481D01*
X80573373Y-66357963D01*
X80403534Y-66306443D01*
X80352752Y-66279299D01*
X80247011Y-66222779D01*
X80247009Y-66222778D01*
X80204325Y-66187748D01*
X80109814Y-66110186D01*
X80026552Y-66008729D01*
X79997222Y-65972991D01*
X79913557Y-65816466D01*
X79862037Y-65646627D01*
X79844641Y-65470000D01*
X79862037Y-65293373D01*
X79913557Y-65123534D01*
X79997222Y-64967009D01*
X80026552Y-64931271D01*
X80109814Y-64829814D01*
X80223799Y-64736270D01*
X80247009Y-64717222D01*
X80403534Y-64633557D01*
X80573373Y-64582037D01*
X80639558Y-64575518D01*
X80705740Y-64569000D01*
X80794260Y-64569000D01*
X80860442Y-64575518D01*
X80860442Y-64575518D01*
G37*
G36*
X88189499Y-62878445D02*
G01*
X88226995Y-62889820D01*
X88261554Y-62908292D01*
X88291847Y-62933153D01*
X88316708Y-62963446D01*
X88335180Y-62998005D01*
X88346555Y-63035501D01*
X88351000Y-63080638D01*
X88351000Y-63719362D01*
X88346555Y-63764499D01*
X88335180Y-63801995D01*
X88316708Y-63836554D01*
X88291847Y-63866847D01*
X88261554Y-63891708D01*
X88226995Y-63910180D01*
X88189499Y-63921555D01*
X88144362Y-63926000D01*
X87405638Y-63926000D01*
X87360501Y-63921555D01*
X87323005Y-63910180D01*
X87288446Y-63891708D01*
X87258153Y-63866847D01*
X87233292Y-63836554D01*
X87214820Y-63801995D01*
X87203445Y-63764499D01*
X87199000Y-63719362D01*
X87199000Y-63080638D01*
X87203445Y-63035501D01*
X87214820Y-62998005D01*
X87233292Y-62963446D01*
X87258153Y-62933153D01*
X87288446Y-62908292D01*
X87323005Y-62889820D01*
X87360501Y-62878445D01*
X87405638Y-62874000D01*
X88144362Y-62874000D01*
X88189499Y-62878445D01*
X88189499Y-62878445D01*
G37*
G36*
X86439499Y-62878445D02*
G01*
X86476995Y-62889820D01*
X86511554Y-62908292D01*
X86541847Y-62933153D01*
X86566708Y-62963446D01*
X86585180Y-62998005D01*
X86596555Y-63035501D01*
X86601000Y-63080638D01*
X86601000Y-63719362D01*
X86596555Y-63764499D01*
X86585180Y-63801995D01*
X86566708Y-63836554D01*
X86541847Y-63866847D01*
X86511554Y-63891708D01*
X86476995Y-63910180D01*
X86439499Y-63921555D01*
X86394362Y-63926000D01*
X85655638Y-63926000D01*
X85610501Y-63921555D01*
X85573005Y-63910180D01*
X85538446Y-63891708D01*
X85508153Y-63866847D01*
X85483292Y-63836554D01*
X85464820Y-63801995D01*
X85453445Y-63764499D01*
X85449000Y-63719362D01*
X85449000Y-63080638D01*
X85453445Y-63035501D01*
X85464820Y-62998005D01*
X85483292Y-62963446D01*
X85508153Y-62933153D01*
X85538446Y-62908292D01*
X85573005Y-62889820D01*
X85610501Y-62878445D01*
X85655638Y-62874000D01*
X86394362Y-62874000D01*
X86439499Y-62878445D01*
X86439499Y-62878445D01*
G37*
G36*
X78320442Y-62035518D02*
G01*
X78386627Y-62042037D01*
X78556466Y-62093557D01*
X78556468Y-62093558D01*
X78607250Y-62120702D01*
X78712991Y-62177222D01*
X78748729Y-62206552D01*
X78850186Y-62289814D01*
X78919786Y-62374623D01*
X78962778Y-62427009D01*
X79046443Y-62583534D01*
X79097963Y-62753373D01*
X79115359Y-62930000D01*
X79097963Y-63106627D01*
X79046443Y-63276466D01*
X78962778Y-63432991D01*
X78933448Y-63468729D01*
X78850186Y-63570186D01*
X78759039Y-63644987D01*
X78712991Y-63682778D01*
X78556466Y-63766443D01*
X78386627Y-63817963D01*
X78320443Y-63824481D01*
X78254260Y-63831000D01*
X78165740Y-63831000D01*
X78099557Y-63824481D01*
X78033373Y-63817963D01*
X77863534Y-63766443D01*
X77707009Y-63682778D01*
X77660961Y-63644987D01*
X77569814Y-63570186D01*
X77486552Y-63468729D01*
X77457222Y-63432991D01*
X77373557Y-63276466D01*
X77322037Y-63106627D01*
X77304641Y-62930000D01*
X77322037Y-62753373D01*
X77373557Y-62583534D01*
X77457222Y-62427009D01*
X77500214Y-62374623D01*
X77569814Y-62289814D01*
X77671271Y-62206552D01*
X77707009Y-62177222D01*
X77812750Y-62120702D01*
X77863532Y-62093558D01*
X77863534Y-62093557D01*
X78033373Y-62042037D01*
X78099558Y-62035518D01*
X78165740Y-62029000D01*
X78254260Y-62029000D01*
X78320442Y-62035518D01*
X78320442Y-62035518D01*
G37*
G36*
X80860442Y-62035518D02*
G01*
X80926627Y-62042037D01*
X81096466Y-62093557D01*
X81096468Y-62093558D01*
X81147250Y-62120702D01*
X81252991Y-62177222D01*
X81288729Y-62206552D01*
X81390186Y-62289814D01*
X81459786Y-62374623D01*
X81502778Y-62427009D01*
X81586443Y-62583534D01*
X81637963Y-62753373D01*
X81655359Y-62930000D01*
X81637963Y-63106627D01*
X81586443Y-63276466D01*
X81502778Y-63432991D01*
X81473448Y-63468729D01*
X81390186Y-63570186D01*
X81299039Y-63644987D01*
X81252991Y-63682778D01*
X81096466Y-63766443D01*
X80926627Y-63817963D01*
X80860443Y-63824481D01*
X80794260Y-63831000D01*
X80705740Y-63831000D01*
X80639557Y-63824481D01*
X80573373Y-63817963D01*
X80403534Y-63766443D01*
X80247009Y-63682778D01*
X80200961Y-63644987D01*
X80109814Y-63570186D01*
X80026552Y-63468729D01*
X79997222Y-63432991D01*
X79913557Y-63276466D01*
X79862037Y-63106627D01*
X79844641Y-62930000D01*
X79862037Y-62753373D01*
X79913557Y-62583534D01*
X79997222Y-62427009D01*
X80040214Y-62374623D01*
X80109814Y-62289814D01*
X80211271Y-62206552D01*
X80247009Y-62177222D01*
X80352750Y-62120702D01*
X80403532Y-62093558D01*
X80403534Y-62093557D01*
X80573373Y-62042037D01*
X80639558Y-62035518D01*
X80705740Y-62029000D01*
X80794260Y-62029000D01*
X80860442Y-62035518D01*
X80860442Y-62035518D01*
G37*
G36*
X105764499Y-62778445D02*
G01*
X105801995Y-62789820D01*
X105836554Y-62808292D01*
X105866847Y-62833153D01*
X105891708Y-62863446D01*
X105910180Y-62898005D01*
X105921555Y-62935501D01*
X105926000Y-62980638D01*
X105926000Y-63619362D01*
X105921555Y-63664499D01*
X105910180Y-63701995D01*
X105891708Y-63736554D01*
X105866847Y-63766847D01*
X105836554Y-63791708D01*
X105801995Y-63810180D01*
X105764499Y-63821555D01*
X105719362Y-63826000D01*
X104980638Y-63826000D01*
X104935501Y-63821555D01*
X104898005Y-63810180D01*
X104863446Y-63791708D01*
X104833153Y-63766847D01*
X104808292Y-63736554D01*
X104789820Y-63701995D01*
X104778445Y-63664499D01*
X104774000Y-63619362D01*
X104774000Y-62980638D01*
X104778445Y-62935501D01*
X104789820Y-62898005D01*
X104808292Y-62863446D01*
X104833153Y-62833153D01*
X104863446Y-62808292D01*
X104898005Y-62789820D01*
X104935501Y-62778445D01*
X104980638Y-62774000D01*
X105719362Y-62774000D01*
X105764499Y-62778445D01*
X105764499Y-62778445D01*
G37*
G36*
X107514499Y-62778445D02*
G01*
X107551995Y-62789820D01*
X107586554Y-62808292D01*
X107616847Y-62833153D01*
X107641708Y-62863446D01*
X107660180Y-62898005D01*
X107671555Y-62935501D01*
X107676000Y-62980638D01*
X107676000Y-63619362D01*
X107671555Y-63664499D01*
X107660180Y-63701995D01*
X107641708Y-63736554D01*
X107616847Y-63766847D01*
X107586554Y-63791708D01*
X107551995Y-63810180D01*
X107514499Y-63821555D01*
X107469362Y-63826000D01*
X106730638Y-63826000D01*
X106685501Y-63821555D01*
X106648005Y-63810180D01*
X106613446Y-63791708D01*
X106583153Y-63766847D01*
X106558292Y-63736554D01*
X106539820Y-63701995D01*
X106528445Y-63664499D01*
X106524000Y-63619362D01*
X106524000Y-62980638D01*
X106528445Y-62935501D01*
X106539820Y-62898005D01*
X106558292Y-62863446D01*
X106583153Y-62833153D01*
X106613446Y-62808292D01*
X106648005Y-62789820D01*
X106685501Y-62778445D01*
X106730638Y-62774000D01*
X107469362Y-62774000D01*
X107514499Y-62778445D01*
X107514499Y-62778445D01*
G37*
G36*
X80860443Y-59495519D02*
G01*
X80926627Y-59502037D01*
X81096466Y-59553557D01*
X81252991Y-59637222D01*
X81288729Y-59666552D01*
X81390186Y-59749814D01*
X81473448Y-59851271D01*
X81502778Y-59887009D01*
X81502779Y-59887011D01*
X81582951Y-60037000D01*
X81586443Y-60043534D01*
X81637963Y-60213373D01*
X81655359Y-60390000D01*
X81637963Y-60566627D01*
X81586443Y-60736466D01*
X81502778Y-60892991D01*
X81473448Y-60928729D01*
X81390186Y-61030186D01*
X81288729Y-61113448D01*
X81252991Y-61142778D01*
X81096466Y-61226443D01*
X80926627Y-61277963D01*
X80860442Y-61284482D01*
X80794260Y-61291000D01*
X80705740Y-61291000D01*
X80639558Y-61284482D01*
X80573373Y-61277963D01*
X80403534Y-61226443D01*
X80247009Y-61142778D01*
X80211271Y-61113448D01*
X80109814Y-61030186D01*
X80026552Y-60928729D01*
X79997222Y-60892991D01*
X79913557Y-60736466D01*
X79862037Y-60566627D01*
X79844641Y-60390000D01*
X79862037Y-60213373D01*
X79913557Y-60043534D01*
X79917050Y-60037000D01*
X79997221Y-59887011D01*
X79997222Y-59887009D01*
X80026552Y-59851271D01*
X80109814Y-59749814D01*
X80211271Y-59666552D01*
X80247009Y-59637222D01*
X80403534Y-59553557D01*
X80573373Y-59502037D01*
X80639557Y-59495519D01*
X80705740Y-59489000D01*
X80794260Y-59489000D01*
X80860443Y-59495519D01*
X80860443Y-59495519D01*
G37*
G36*
X78320443Y-59495519D02*
G01*
X78386627Y-59502037D01*
X78556466Y-59553557D01*
X78712991Y-59637222D01*
X78748729Y-59666552D01*
X78850186Y-59749814D01*
X78933448Y-59851271D01*
X78962778Y-59887009D01*
X78962779Y-59887011D01*
X79042951Y-60037000D01*
X79046443Y-60043534D01*
X79097963Y-60213373D01*
X79115359Y-60390000D01*
X79097963Y-60566627D01*
X79046443Y-60736466D01*
X78962778Y-60892991D01*
X78933448Y-60928729D01*
X78850186Y-61030186D01*
X78748729Y-61113448D01*
X78712991Y-61142778D01*
X78556466Y-61226443D01*
X78386627Y-61277963D01*
X78320442Y-61284482D01*
X78254260Y-61291000D01*
X78165740Y-61291000D01*
X78099558Y-61284482D01*
X78033373Y-61277963D01*
X77863534Y-61226443D01*
X77707009Y-61142778D01*
X77671271Y-61113448D01*
X77569814Y-61030186D01*
X77486552Y-60928729D01*
X77457222Y-60892991D01*
X77373557Y-60736466D01*
X77322037Y-60566627D01*
X77304641Y-60390000D01*
X77322037Y-60213373D01*
X77373557Y-60043534D01*
X77377050Y-60037000D01*
X77457221Y-59887011D01*
X77457222Y-59887009D01*
X77486552Y-59851271D01*
X77569814Y-59749814D01*
X77671271Y-59666552D01*
X77707009Y-59637222D01*
X77863534Y-59553557D01*
X78033373Y-59502037D01*
X78099557Y-59495519D01*
X78165740Y-59489000D01*
X78254260Y-59489000D01*
X78320443Y-59495519D01*
X78320443Y-59495519D01*
G37*
G36*
X80860443Y-56955519D02*
G01*
X80926627Y-56962037D01*
X81096466Y-57013557D01*
X81252991Y-57097222D01*
X81288729Y-57126552D01*
X81390186Y-57209814D01*
X81461029Y-57296138D01*
X81502778Y-57347009D01*
X81502779Y-57347011D01*
X81573489Y-57479298D01*
X81586443Y-57503534D01*
X81637963Y-57673373D01*
X81655359Y-57850000D01*
X81637963Y-58026627D01*
X81586443Y-58196466D01*
X81502778Y-58352991D01*
X81473448Y-58388729D01*
X81390186Y-58490186D01*
X81288729Y-58573448D01*
X81252991Y-58602778D01*
X81096466Y-58686443D01*
X80926627Y-58737963D01*
X80860442Y-58744482D01*
X80794260Y-58751000D01*
X80705740Y-58751000D01*
X80639558Y-58744482D01*
X80573373Y-58737963D01*
X80403534Y-58686443D01*
X80247009Y-58602778D01*
X80211271Y-58573448D01*
X80109814Y-58490186D01*
X80026552Y-58388729D01*
X79997222Y-58352991D01*
X79913557Y-58196466D01*
X79862037Y-58026627D01*
X79844641Y-57850000D01*
X79862037Y-57673373D01*
X79913557Y-57503534D01*
X79926512Y-57479298D01*
X79997221Y-57347011D01*
X79997222Y-57347009D01*
X80038971Y-57296138D01*
X80109814Y-57209814D01*
X80211271Y-57126552D01*
X80247009Y-57097222D01*
X80403534Y-57013557D01*
X80573373Y-56962037D01*
X80639557Y-56955519D01*
X80705740Y-56949000D01*
X80794260Y-56949000D01*
X80860443Y-56955519D01*
X80860443Y-56955519D01*
G37*
G36*
X78320443Y-56955519D02*
G01*
X78386627Y-56962037D01*
X78556466Y-57013557D01*
X78712991Y-57097222D01*
X78748729Y-57126552D01*
X78850186Y-57209814D01*
X78921029Y-57296138D01*
X78962778Y-57347009D01*
X78962779Y-57347011D01*
X79033489Y-57479298D01*
X79046443Y-57503534D01*
X79097963Y-57673373D01*
X79115359Y-57850000D01*
X79097963Y-58026627D01*
X79046443Y-58196466D01*
X78962778Y-58352991D01*
X78933448Y-58388729D01*
X78850186Y-58490186D01*
X78748729Y-58573448D01*
X78712991Y-58602778D01*
X78556466Y-58686443D01*
X78386627Y-58737963D01*
X78320442Y-58744482D01*
X78254260Y-58751000D01*
X78165740Y-58751000D01*
X78099558Y-58744482D01*
X78033373Y-58737963D01*
X77863534Y-58686443D01*
X77707009Y-58602778D01*
X77671271Y-58573448D01*
X77569814Y-58490186D01*
X77486552Y-58388729D01*
X77457222Y-58352991D01*
X77373557Y-58196466D01*
X77322037Y-58026627D01*
X77304641Y-57850000D01*
X77322037Y-57673373D01*
X77373557Y-57503534D01*
X77386512Y-57479298D01*
X77457221Y-57347011D01*
X77457222Y-57347009D01*
X77498971Y-57296138D01*
X77569814Y-57209814D01*
X77671271Y-57126552D01*
X77707009Y-57097222D01*
X77863534Y-57013557D01*
X78033373Y-56962037D01*
X78099557Y-56955519D01*
X78165740Y-56949000D01*
X78254260Y-56949000D01*
X78320443Y-56955519D01*
X78320443Y-56955519D01*
G37*
G36*
X102819987Y-50276524D02*
G01*
X102838730Y-50282210D01*
X102855997Y-50291439D01*
X102871136Y-50303864D01*
X102883561Y-50319003D01*
X102892790Y-50336270D01*
X102898476Y-50355013D01*
X102901000Y-50380640D01*
X102901000Y-50819360D01*
X102898476Y-50844987D01*
X102892790Y-50863730D01*
X102883561Y-50880997D01*
X102871135Y-50896138D01*
X102862317Y-50903375D01*
X102844990Y-50920702D01*
X102831377Y-50941076D01*
X102821999Y-50963715D01*
X102817219Y-50987748D01*
X102817219Y-51012252D01*
X102821999Y-51036285D01*
X102831377Y-51058924D01*
X102844991Y-51079299D01*
X102862317Y-51096625D01*
X102871135Y-51103862D01*
X102883561Y-51119003D01*
X102892790Y-51136270D01*
X102898476Y-51155013D01*
X102901000Y-51180640D01*
X102901000Y-51619360D01*
X102898476Y-51644987D01*
X102892790Y-51663730D01*
X102883561Y-51680997D01*
X102871135Y-51696138D01*
X102862317Y-51703375D01*
X102844990Y-51720702D01*
X102831377Y-51741076D01*
X102821999Y-51763715D01*
X102817219Y-51787748D01*
X102817219Y-51812252D01*
X102821999Y-51836285D01*
X102831377Y-51858924D01*
X102844991Y-51879299D01*
X102862317Y-51896625D01*
X102871135Y-51903862D01*
X102883561Y-51919003D01*
X102892790Y-51936270D01*
X102898476Y-51955013D01*
X102901000Y-51980640D01*
X102901000Y-52419360D01*
X102898476Y-52444987D01*
X102892790Y-52463730D01*
X102883561Y-52480997D01*
X102871135Y-52496138D01*
X102862317Y-52503375D01*
X102844990Y-52520702D01*
X102831377Y-52541076D01*
X102821999Y-52563715D01*
X102817219Y-52587748D01*
X102817219Y-52612252D01*
X102821999Y-52636285D01*
X102831377Y-52658924D01*
X102844991Y-52679299D01*
X102862317Y-52696625D01*
X102871135Y-52703862D01*
X102883561Y-52719003D01*
X102892790Y-52736270D01*
X102898476Y-52755013D01*
X102901000Y-52780640D01*
X102901000Y-53219360D01*
X102898476Y-53244987D01*
X102892790Y-53263730D01*
X102883561Y-53280997D01*
X102871135Y-53296138D01*
X102862317Y-53303375D01*
X102844990Y-53320702D01*
X102831377Y-53341076D01*
X102821999Y-53363715D01*
X102817219Y-53387748D01*
X102817219Y-53412252D01*
X102821999Y-53436285D01*
X102831377Y-53458924D01*
X102844991Y-53479299D01*
X102862317Y-53496625D01*
X102871135Y-53503862D01*
X102883561Y-53519003D01*
X102892790Y-53536270D01*
X102898476Y-53555013D01*
X102901000Y-53580640D01*
X102901000Y-54019360D01*
X102898476Y-54044987D01*
X102892790Y-54063730D01*
X102883561Y-54080997D01*
X102871135Y-54096138D01*
X102862317Y-54103375D01*
X102844990Y-54120702D01*
X102831377Y-54141076D01*
X102821999Y-54163715D01*
X102817219Y-54187748D01*
X102817219Y-54212252D01*
X102821999Y-54236285D01*
X102831377Y-54258924D01*
X102844991Y-54279299D01*
X102862317Y-54296625D01*
X102871135Y-54303862D01*
X102883561Y-54319003D01*
X102892790Y-54336270D01*
X102898476Y-54355013D01*
X102901000Y-54380640D01*
X102901000Y-54819360D01*
X102898476Y-54844987D01*
X102892790Y-54863730D01*
X102883561Y-54880997D01*
X102871135Y-54896138D01*
X102862317Y-54903375D01*
X102844990Y-54920702D01*
X102831377Y-54941076D01*
X102821999Y-54963715D01*
X102817219Y-54987748D01*
X102817219Y-55012252D01*
X102821999Y-55036285D01*
X102831377Y-55058924D01*
X102844991Y-55079299D01*
X102862317Y-55096625D01*
X102871135Y-55103862D01*
X102883561Y-55119003D01*
X102892790Y-55136270D01*
X102898476Y-55155013D01*
X102901000Y-55180640D01*
X102901000Y-55619360D01*
X102898476Y-55644987D01*
X102892790Y-55663730D01*
X102883561Y-55680997D01*
X102871135Y-55696138D01*
X102862317Y-55703375D01*
X102844990Y-55720702D01*
X102831377Y-55741076D01*
X102821999Y-55763715D01*
X102817219Y-55787748D01*
X102817219Y-55812252D01*
X102821999Y-55836285D01*
X102831377Y-55858924D01*
X102844991Y-55879299D01*
X102862317Y-55896625D01*
X102871135Y-55903862D01*
X102883561Y-55919003D01*
X102892790Y-55936270D01*
X102898476Y-55955013D01*
X102901000Y-55980640D01*
X102901000Y-56419360D01*
X102898476Y-56444987D01*
X102892790Y-56463730D01*
X102883561Y-56480997D01*
X102871135Y-56496138D01*
X102862317Y-56503375D01*
X102844990Y-56520702D01*
X102831377Y-56541076D01*
X102821999Y-56563715D01*
X102817219Y-56587748D01*
X102817219Y-56612252D01*
X102821999Y-56636285D01*
X102831377Y-56658924D01*
X102844991Y-56679299D01*
X102862317Y-56696625D01*
X102871135Y-56703862D01*
X102883561Y-56719003D01*
X102892790Y-56736270D01*
X102898476Y-56755013D01*
X102901000Y-56780640D01*
X102901000Y-57219360D01*
X102898476Y-57244987D01*
X102892790Y-57263730D01*
X102883561Y-57280997D01*
X102871135Y-57296138D01*
X102862317Y-57303375D01*
X102844990Y-57320702D01*
X102831377Y-57341076D01*
X102821999Y-57363715D01*
X102817219Y-57387748D01*
X102817219Y-57412252D01*
X102821999Y-57436285D01*
X102831377Y-57458924D01*
X102844991Y-57479299D01*
X102862317Y-57496625D01*
X102871135Y-57503862D01*
X102883561Y-57519003D01*
X102892790Y-57536270D01*
X102898476Y-57555013D01*
X102901000Y-57580640D01*
X102901000Y-58019360D01*
X102898476Y-58044987D01*
X102892790Y-58063730D01*
X102883561Y-58080997D01*
X102871136Y-58096136D01*
X102855997Y-58108561D01*
X102838730Y-58117790D01*
X102819987Y-58123476D01*
X102794360Y-58126000D01*
X101380640Y-58126000D01*
X101355013Y-58123476D01*
X101336270Y-58117790D01*
X101319003Y-58108561D01*
X101303864Y-58096136D01*
X101291439Y-58080997D01*
X101282210Y-58063730D01*
X101276524Y-58044987D01*
X101274000Y-58019360D01*
X101274000Y-57580640D01*
X101276524Y-57555013D01*
X101282210Y-57536270D01*
X101291439Y-57519003D01*
X101303865Y-57503862D01*
X101312683Y-57496625D01*
X101330010Y-57479298D01*
X101343623Y-57458924D01*
X101353001Y-57436285D01*
X101357781Y-57412252D01*
X101357781Y-57387748D01*
X101353001Y-57363715D01*
X101343623Y-57341076D01*
X101330009Y-57320701D01*
X101312683Y-57303375D01*
X101303865Y-57296138D01*
X101291439Y-57280997D01*
X101282210Y-57263730D01*
X101276524Y-57244987D01*
X101274000Y-57219360D01*
X101274000Y-56780640D01*
X101276524Y-56755013D01*
X101282210Y-56736270D01*
X101291439Y-56719003D01*
X101303865Y-56703862D01*
X101312683Y-56696625D01*
X101330010Y-56679298D01*
X101343623Y-56658924D01*
X101353001Y-56636285D01*
X101357781Y-56612252D01*
X101357781Y-56587748D01*
X101353001Y-56563715D01*
X101343623Y-56541076D01*
X101330009Y-56520701D01*
X101312683Y-56503375D01*
X101303865Y-56496138D01*
X101291439Y-56480997D01*
X101282210Y-56463730D01*
X101276524Y-56444987D01*
X101274000Y-56419360D01*
X101274000Y-55980640D01*
X101276524Y-55955013D01*
X101282210Y-55936270D01*
X101291439Y-55919003D01*
X101303865Y-55903862D01*
X101312683Y-55896625D01*
X101330010Y-55879298D01*
X101343623Y-55858924D01*
X101353001Y-55836285D01*
X101357781Y-55812252D01*
X101357781Y-55787748D01*
X101353001Y-55763715D01*
X101343623Y-55741076D01*
X101330009Y-55720701D01*
X101312683Y-55703375D01*
X101303865Y-55696138D01*
X101291439Y-55680997D01*
X101282210Y-55663730D01*
X101276524Y-55644987D01*
X101274000Y-55619360D01*
X101274000Y-55180640D01*
X101276524Y-55155013D01*
X101282210Y-55136270D01*
X101291439Y-55119003D01*
X101303865Y-55103862D01*
X101312683Y-55096625D01*
X101330010Y-55079298D01*
X101343623Y-55058924D01*
X101353001Y-55036285D01*
X101357781Y-55012252D01*
X101357781Y-54987748D01*
X101353001Y-54963715D01*
X101343623Y-54941076D01*
X101330009Y-54920701D01*
X101312683Y-54903375D01*
X101303865Y-54896138D01*
X101291439Y-54880997D01*
X101282210Y-54863730D01*
X101276524Y-54844987D01*
X101274000Y-54819360D01*
X101274000Y-54380640D01*
X101276524Y-54355013D01*
X101282210Y-54336270D01*
X101291439Y-54319003D01*
X101303865Y-54303862D01*
X101312683Y-54296625D01*
X101330010Y-54279298D01*
X101343623Y-54258924D01*
X101353001Y-54236285D01*
X101357781Y-54212252D01*
X101357781Y-54187748D01*
X101353001Y-54163715D01*
X101343623Y-54141076D01*
X101330009Y-54120701D01*
X101312683Y-54103375D01*
X101303865Y-54096138D01*
X101291439Y-54080997D01*
X101282210Y-54063730D01*
X101276524Y-54044987D01*
X101274000Y-54019360D01*
X101274000Y-53580640D01*
X101276524Y-53555013D01*
X101282210Y-53536270D01*
X101291439Y-53519003D01*
X101303865Y-53503862D01*
X101312683Y-53496625D01*
X101330010Y-53479298D01*
X101343623Y-53458924D01*
X101353001Y-53436285D01*
X101357781Y-53412252D01*
X101357781Y-53387748D01*
X101353001Y-53363715D01*
X101343623Y-53341076D01*
X101330009Y-53320701D01*
X101312683Y-53303375D01*
X101303865Y-53296138D01*
X101291439Y-53280997D01*
X101282210Y-53263730D01*
X101276524Y-53244987D01*
X101274000Y-53219360D01*
X101274000Y-52780640D01*
X101276524Y-52755013D01*
X101282210Y-52736270D01*
X101291439Y-52719003D01*
X101303865Y-52703862D01*
X101312683Y-52696625D01*
X101330010Y-52679298D01*
X101343623Y-52658924D01*
X101353001Y-52636285D01*
X101357781Y-52612252D01*
X101357781Y-52587748D01*
X101353001Y-52563715D01*
X101343623Y-52541076D01*
X101330009Y-52520701D01*
X101312683Y-52503375D01*
X101303865Y-52496138D01*
X101291439Y-52480997D01*
X101282210Y-52463730D01*
X101276524Y-52444987D01*
X101274000Y-52419360D01*
X101274000Y-51980640D01*
X101276524Y-51955013D01*
X101282210Y-51936270D01*
X101291439Y-51919003D01*
X101303865Y-51903862D01*
X101312683Y-51896625D01*
X101330010Y-51879298D01*
X101343623Y-51858924D01*
X101353001Y-51836285D01*
X101357781Y-51812252D01*
X101357781Y-51787748D01*
X101353001Y-51763715D01*
X101343623Y-51741076D01*
X101330009Y-51720701D01*
X101312683Y-51703375D01*
X101303865Y-51696138D01*
X101291439Y-51680997D01*
X101282210Y-51663730D01*
X101276524Y-51644987D01*
X101274000Y-51619360D01*
X101274000Y-51180640D01*
X101276524Y-51155013D01*
X101282210Y-51136270D01*
X101291439Y-51119003D01*
X101303865Y-51103862D01*
X101312683Y-51096625D01*
X101330010Y-51079298D01*
X101343623Y-51058924D01*
X101353001Y-51036285D01*
X101357781Y-51012252D01*
X101357781Y-50987748D01*
X101353001Y-50963715D01*
X101343623Y-50941076D01*
X101330009Y-50920701D01*
X101312683Y-50903375D01*
X101303865Y-50896138D01*
X101291439Y-50880997D01*
X101282210Y-50863730D01*
X101276524Y-50844987D01*
X101274000Y-50819360D01*
X101274000Y-50380640D01*
X101276524Y-50355013D01*
X101282210Y-50336270D01*
X101291439Y-50319003D01*
X101303864Y-50303864D01*
X101319003Y-50291439D01*
X101336270Y-50282210D01*
X101355013Y-50276524D01*
X101380640Y-50274000D01*
X102794360Y-50274000D01*
X102819987Y-50276524D01*
X102819987Y-50276524D01*
G37*
G36*
X91644987Y-50276524D02*
G01*
X91663730Y-50282210D01*
X91680997Y-50291439D01*
X91696136Y-50303864D01*
X91708561Y-50319003D01*
X91717790Y-50336270D01*
X91723476Y-50355013D01*
X91726000Y-50380640D01*
X91726000Y-50819360D01*
X91723476Y-50844987D01*
X91717790Y-50863730D01*
X91708561Y-50880997D01*
X91696135Y-50896138D01*
X91687317Y-50903375D01*
X91669990Y-50920702D01*
X91656377Y-50941076D01*
X91646999Y-50963715D01*
X91642219Y-50987748D01*
X91642219Y-51012252D01*
X91646999Y-51036285D01*
X91656377Y-51058924D01*
X91669991Y-51079299D01*
X91687317Y-51096625D01*
X91696135Y-51103862D01*
X91708561Y-51119003D01*
X91717790Y-51136270D01*
X91723476Y-51155013D01*
X91726000Y-51180640D01*
X91726000Y-51619360D01*
X91723476Y-51644987D01*
X91717790Y-51663730D01*
X91708561Y-51680997D01*
X91696135Y-51696138D01*
X91687317Y-51703375D01*
X91669990Y-51720702D01*
X91656377Y-51741076D01*
X91646999Y-51763715D01*
X91642219Y-51787748D01*
X91642219Y-51812252D01*
X91646999Y-51836285D01*
X91656377Y-51858924D01*
X91669991Y-51879299D01*
X91687317Y-51896625D01*
X91696135Y-51903862D01*
X91708561Y-51919003D01*
X91717790Y-51936270D01*
X91723476Y-51955013D01*
X91726000Y-51980640D01*
X91726000Y-52419360D01*
X91723476Y-52444987D01*
X91717790Y-52463730D01*
X91708561Y-52480997D01*
X91696135Y-52496138D01*
X91687317Y-52503375D01*
X91669990Y-52520702D01*
X91656377Y-52541076D01*
X91646999Y-52563715D01*
X91642219Y-52587748D01*
X91642219Y-52612252D01*
X91646999Y-52636285D01*
X91656377Y-52658924D01*
X91669991Y-52679299D01*
X91687317Y-52696625D01*
X91696135Y-52703862D01*
X91708561Y-52719003D01*
X91717790Y-52736270D01*
X91723476Y-52755013D01*
X91726000Y-52780640D01*
X91726000Y-53219360D01*
X91723476Y-53244987D01*
X91717790Y-53263730D01*
X91708561Y-53280997D01*
X91696135Y-53296138D01*
X91687317Y-53303375D01*
X91669990Y-53320702D01*
X91656377Y-53341076D01*
X91646999Y-53363715D01*
X91642219Y-53387748D01*
X91642219Y-53412252D01*
X91646999Y-53436285D01*
X91656377Y-53458924D01*
X91669991Y-53479299D01*
X91687317Y-53496625D01*
X91696135Y-53503862D01*
X91708561Y-53519003D01*
X91717790Y-53536270D01*
X91723476Y-53555013D01*
X91726000Y-53580640D01*
X91726000Y-54019360D01*
X91723476Y-54044987D01*
X91717790Y-54063730D01*
X91708561Y-54080997D01*
X91696135Y-54096138D01*
X91687317Y-54103375D01*
X91669990Y-54120702D01*
X91656377Y-54141076D01*
X91646999Y-54163715D01*
X91642219Y-54187748D01*
X91642219Y-54212252D01*
X91646999Y-54236285D01*
X91656377Y-54258924D01*
X91669991Y-54279299D01*
X91687317Y-54296625D01*
X91696135Y-54303862D01*
X91708561Y-54319003D01*
X91717790Y-54336270D01*
X91723476Y-54355013D01*
X91726000Y-54380640D01*
X91726000Y-54819360D01*
X91723476Y-54844987D01*
X91717790Y-54863730D01*
X91708561Y-54880997D01*
X91696135Y-54896138D01*
X91687317Y-54903375D01*
X91669990Y-54920702D01*
X91656377Y-54941076D01*
X91646999Y-54963715D01*
X91642219Y-54987748D01*
X91642219Y-55012252D01*
X91646999Y-55036285D01*
X91656377Y-55058924D01*
X91669991Y-55079299D01*
X91687317Y-55096625D01*
X91696135Y-55103862D01*
X91708561Y-55119003D01*
X91717790Y-55136270D01*
X91723476Y-55155013D01*
X91726000Y-55180640D01*
X91726000Y-55619360D01*
X91723476Y-55644987D01*
X91717790Y-55663730D01*
X91708561Y-55680997D01*
X91696135Y-55696138D01*
X91687317Y-55703375D01*
X91669990Y-55720702D01*
X91656377Y-55741076D01*
X91646999Y-55763715D01*
X91642219Y-55787748D01*
X91642219Y-55812252D01*
X91646999Y-55836285D01*
X91656377Y-55858924D01*
X91669991Y-55879299D01*
X91687317Y-55896625D01*
X91696135Y-55903862D01*
X91708561Y-55919003D01*
X91717790Y-55936270D01*
X91723476Y-55955013D01*
X91726000Y-55980640D01*
X91726000Y-56419360D01*
X91723476Y-56444987D01*
X91717790Y-56463730D01*
X91708561Y-56480997D01*
X91696135Y-56496138D01*
X91687317Y-56503375D01*
X91669990Y-56520702D01*
X91656377Y-56541076D01*
X91646999Y-56563715D01*
X91642219Y-56587748D01*
X91642219Y-56612252D01*
X91646999Y-56636285D01*
X91656377Y-56658924D01*
X91669991Y-56679299D01*
X91687317Y-56696625D01*
X91696135Y-56703862D01*
X91708561Y-56719003D01*
X91717790Y-56736270D01*
X91723476Y-56755013D01*
X91726000Y-56780640D01*
X91726000Y-57219360D01*
X91723476Y-57244987D01*
X91717790Y-57263730D01*
X91708561Y-57280997D01*
X91696135Y-57296138D01*
X91687317Y-57303375D01*
X91669990Y-57320702D01*
X91656377Y-57341076D01*
X91646999Y-57363715D01*
X91642219Y-57387748D01*
X91642219Y-57412252D01*
X91646999Y-57436285D01*
X91656377Y-57458924D01*
X91669991Y-57479299D01*
X91687317Y-57496625D01*
X91696135Y-57503862D01*
X91708561Y-57519003D01*
X91717790Y-57536270D01*
X91723476Y-57555013D01*
X91726000Y-57580640D01*
X91726000Y-58019360D01*
X91723476Y-58044987D01*
X91717790Y-58063730D01*
X91708561Y-58080997D01*
X91696136Y-58096136D01*
X91680997Y-58108561D01*
X91663730Y-58117790D01*
X91644987Y-58123476D01*
X91619360Y-58126000D01*
X90205640Y-58126000D01*
X90180013Y-58123476D01*
X90161270Y-58117790D01*
X90144003Y-58108561D01*
X90128864Y-58096136D01*
X90116439Y-58080997D01*
X90107210Y-58063730D01*
X90101524Y-58044987D01*
X90099000Y-58019360D01*
X90099000Y-57580640D01*
X90101524Y-57555013D01*
X90107210Y-57536270D01*
X90116439Y-57519003D01*
X90128865Y-57503862D01*
X90137683Y-57496625D01*
X90155010Y-57479298D01*
X90168623Y-57458924D01*
X90178001Y-57436285D01*
X90182781Y-57412252D01*
X90182781Y-57387748D01*
X90178001Y-57363715D01*
X90168623Y-57341076D01*
X90155009Y-57320701D01*
X90137683Y-57303375D01*
X90128865Y-57296138D01*
X90116439Y-57280997D01*
X90107210Y-57263730D01*
X90101524Y-57244987D01*
X90099000Y-57219360D01*
X90099000Y-56780640D01*
X90101524Y-56755013D01*
X90107210Y-56736270D01*
X90116439Y-56719003D01*
X90128865Y-56703862D01*
X90137683Y-56696625D01*
X90155010Y-56679298D01*
X90168623Y-56658924D01*
X90178001Y-56636285D01*
X90182781Y-56612252D01*
X90182781Y-56587748D01*
X90178001Y-56563715D01*
X90168623Y-56541076D01*
X90155009Y-56520701D01*
X90137683Y-56503375D01*
X90128865Y-56496138D01*
X90116439Y-56480997D01*
X90107210Y-56463730D01*
X90101524Y-56444987D01*
X90099000Y-56419360D01*
X90099000Y-55980640D01*
X90101524Y-55955013D01*
X90107210Y-55936270D01*
X90116439Y-55919003D01*
X90128865Y-55903862D01*
X90137683Y-55896625D01*
X90155010Y-55879298D01*
X90168623Y-55858924D01*
X90178001Y-55836285D01*
X90182781Y-55812252D01*
X90182781Y-55787748D01*
X90178001Y-55763715D01*
X90168623Y-55741076D01*
X90155009Y-55720701D01*
X90137683Y-55703375D01*
X90128865Y-55696138D01*
X90116439Y-55680997D01*
X90107210Y-55663730D01*
X90101524Y-55644987D01*
X90099000Y-55619360D01*
X90099000Y-55180640D01*
X90101524Y-55155013D01*
X90107210Y-55136270D01*
X90116439Y-55119003D01*
X90128865Y-55103862D01*
X90137683Y-55096625D01*
X90155010Y-55079298D01*
X90168623Y-55058924D01*
X90178001Y-55036285D01*
X90182781Y-55012252D01*
X90182781Y-54987748D01*
X90178001Y-54963715D01*
X90168623Y-54941076D01*
X90155009Y-54920701D01*
X90137683Y-54903375D01*
X90128865Y-54896138D01*
X90116439Y-54880997D01*
X90107210Y-54863730D01*
X90101524Y-54844987D01*
X90099000Y-54819360D01*
X90099000Y-54380640D01*
X90101524Y-54355013D01*
X90107210Y-54336270D01*
X90116439Y-54319003D01*
X90128865Y-54303862D01*
X90137683Y-54296625D01*
X90155010Y-54279298D01*
X90168623Y-54258924D01*
X90178001Y-54236285D01*
X90182781Y-54212252D01*
X90182781Y-54187748D01*
X90178001Y-54163715D01*
X90168623Y-54141076D01*
X90155009Y-54120701D01*
X90137683Y-54103375D01*
X90128865Y-54096138D01*
X90116439Y-54080997D01*
X90107210Y-54063730D01*
X90101524Y-54044987D01*
X90099000Y-54019360D01*
X90099000Y-53580640D01*
X90101524Y-53555013D01*
X90107210Y-53536270D01*
X90116439Y-53519003D01*
X90128865Y-53503862D01*
X90137683Y-53496625D01*
X90155010Y-53479298D01*
X90168623Y-53458924D01*
X90178001Y-53436285D01*
X90182781Y-53412252D01*
X90182781Y-53387748D01*
X90178001Y-53363715D01*
X90168623Y-53341076D01*
X90155009Y-53320701D01*
X90137683Y-53303375D01*
X90128865Y-53296138D01*
X90116439Y-53280997D01*
X90107210Y-53263730D01*
X90101524Y-53244987D01*
X90099000Y-53219360D01*
X90099000Y-52780640D01*
X90101524Y-52755013D01*
X90107210Y-52736270D01*
X90116439Y-52719003D01*
X90128865Y-52703862D01*
X90137683Y-52696625D01*
X90155010Y-52679298D01*
X90168623Y-52658924D01*
X90178001Y-52636285D01*
X90182781Y-52612252D01*
X90182781Y-52587748D01*
X90178001Y-52563715D01*
X90168623Y-52541076D01*
X90155009Y-52520701D01*
X90137683Y-52503375D01*
X90128865Y-52496138D01*
X90116439Y-52480997D01*
X90107210Y-52463730D01*
X90101524Y-52444987D01*
X90099000Y-52419360D01*
X90099000Y-51980640D01*
X90101524Y-51955013D01*
X90107210Y-51936270D01*
X90116439Y-51919003D01*
X90128865Y-51903862D01*
X90137683Y-51896625D01*
X90155010Y-51879298D01*
X90168623Y-51858924D01*
X90178001Y-51836285D01*
X90182781Y-51812252D01*
X90182781Y-51787748D01*
X90178001Y-51763715D01*
X90168623Y-51741076D01*
X90155009Y-51720701D01*
X90137683Y-51703375D01*
X90128865Y-51696138D01*
X90116439Y-51680997D01*
X90107210Y-51663730D01*
X90101524Y-51644987D01*
X90099000Y-51619360D01*
X90099000Y-51180640D01*
X90101524Y-51155013D01*
X90107210Y-51136270D01*
X90116439Y-51119003D01*
X90128865Y-51103862D01*
X90137683Y-51096625D01*
X90155010Y-51079298D01*
X90168623Y-51058924D01*
X90178001Y-51036285D01*
X90182781Y-51012252D01*
X90182781Y-50987748D01*
X90178001Y-50963715D01*
X90168623Y-50941076D01*
X90155009Y-50920701D01*
X90137683Y-50903375D01*
X90128865Y-50896138D01*
X90116439Y-50880997D01*
X90107210Y-50863730D01*
X90101524Y-50844987D01*
X90099000Y-50819360D01*
X90099000Y-50380640D01*
X90101524Y-50355013D01*
X90107210Y-50336270D01*
X90116439Y-50319003D01*
X90128864Y-50303864D01*
X90144003Y-50291439D01*
X90161270Y-50282210D01*
X90180013Y-50276524D01*
X90205640Y-50274000D01*
X91619360Y-50274000D01*
X91644987Y-50276524D01*
X91644987Y-50276524D01*
G37*
G36*
X80860442Y-54415518D02*
G01*
X80926627Y-54422037D01*
X81096466Y-54473557D01*
X81252991Y-54557222D01*
X81288729Y-54586552D01*
X81390186Y-54669814D01*
X81473448Y-54771271D01*
X81502778Y-54807009D01*
X81586443Y-54963534D01*
X81637963Y-55133373D01*
X81655359Y-55310000D01*
X81637963Y-55486627D01*
X81586443Y-55656466D01*
X81502778Y-55812991D01*
X81483661Y-55836285D01*
X81390186Y-55950186D01*
X81323150Y-56005200D01*
X81252991Y-56062778D01*
X81096466Y-56146443D01*
X80926627Y-56197963D01*
X80860443Y-56204481D01*
X80794260Y-56211000D01*
X80705740Y-56211000D01*
X80639557Y-56204481D01*
X80573373Y-56197963D01*
X80403534Y-56146443D01*
X80247009Y-56062778D01*
X80176850Y-56005200D01*
X80109814Y-55950186D01*
X80016339Y-55836285D01*
X79997222Y-55812991D01*
X79913557Y-55656466D01*
X79862037Y-55486627D01*
X79844641Y-55310000D01*
X79862037Y-55133373D01*
X79913557Y-54963534D01*
X79997222Y-54807009D01*
X80026552Y-54771271D01*
X80109814Y-54669814D01*
X80211271Y-54586552D01*
X80247009Y-54557222D01*
X80403534Y-54473557D01*
X80573373Y-54422037D01*
X80639558Y-54415518D01*
X80705740Y-54409000D01*
X80794260Y-54409000D01*
X80860442Y-54415518D01*
X80860442Y-54415518D01*
G37*
G36*
X78320442Y-54415518D02*
G01*
X78386627Y-54422037D01*
X78556466Y-54473557D01*
X78712991Y-54557222D01*
X78748729Y-54586552D01*
X78850186Y-54669814D01*
X78933448Y-54771271D01*
X78962778Y-54807009D01*
X79046443Y-54963534D01*
X79097963Y-55133373D01*
X79115359Y-55310000D01*
X79097963Y-55486627D01*
X79046443Y-55656466D01*
X78962778Y-55812991D01*
X78943661Y-55836285D01*
X78850186Y-55950186D01*
X78783150Y-56005200D01*
X78712991Y-56062778D01*
X78556466Y-56146443D01*
X78386627Y-56197963D01*
X78320443Y-56204481D01*
X78254260Y-56211000D01*
X78165740Y-56211000D01*
X78099557Y-56204481D01*
X78033373Y-56197963D01*
X77863534Y-56146443D01*
X77707009Y-56062778D01*
X77636850Y-56005200D01*
X77569814Y-55950186D01*
X77476339Y-55836285D01*
X77457222Y-55812991D01*
X77373557Y-55656466D01*
X77322037Y-55486627D01*
X77304641Y-55310000D01*
X77322037Y-55133373D01*
X77373557Y-54963534D01*
X77457222Y-54807009D01*
X77486552Y-54771271D01*
X77569814Y-54669814D01*
X77671271Y-54586552D01*
X77707009Y-54557222D01*
X77863534Y-54473557D01*
X78033373Y-54422037D01*
X78099558Y-54415518D01*
X78165740Y-54409000D01*
X78254260Y-54409000D01*
X78320442Y-54415518D01*
X78320442Y-54415518D01*
G37*
G36*
X80845025Y-51874000D02*
G01*
X80926627Y-51882037D01*
X81096466Y-51933557D01*
X81252991Y-52017222D01*
X81277090Y-52037000D01*
X81390186Y-52129814D01*
X81473448Y-52231271D01*
X81502778Y-52267009D01*
X81586443Y-52423534D01*
X81637963Y-52593373D01*
X81655359Y-52770000D01*
X81637963Y-52946627D01*
X81586443Y-53116466D01*
X81502778Y-53272991D01*
X81477842Y-53303375D01*
X81390186Y-53410186D01*
X81305970Y-53479299D01*
X81252991Y-53522778D01*
X81252989Y-53522779D01*
X81098792Y-53605200D01*
X81096466Y-53606443D01*
X80926627Y-53657963D01*
X80860443Y-53664481D01*
X80794260Y-53671000D01*
X80705740Y-53671000D01*
X80639557Y-53664481D01*
X80573373Y-53657963D01*
X80403534Y-53606443D01*
X80401209Y-53605200D01*
X80247011Y-53522779D01*
X80247009Y-53522778D01*
X80194030Y-53479299D01*
X80109814Y-53410186D01*
X80022158Y-53303375D01*
X79997222Y-53272991D01*
X79913557Y-53116466D01*
X79862037Y-52946627D01*
X79844641Y-52770000D01*
X79862037Y-52593373D01*
X79913557Y-52423534D01*
X79997222Y-52267009D01*
X80026552Y-52231271D01*
X80109814Y-52129814D01*
X80222910Y-52037000D01*
X80247009Y-52017222D01*
X80403534Y-51933557D01*
X80573373Y-51882037D01*
X80654975Y-51874000D01*
X80705740Y-51869000D01*
X80794260Y-51869000D01*
X80845025Y-51874000D01*
X80845025Y-51874000D01*
G37*
G36*
X78305025Y-51874000D02*
G01*
X78386627Y-51882037D01*
X78556466Y-51933557D01*
X78712991Y-52017222D01*
X78737090Y-52037000D01*
X78850186Y-52129814D01*
X78933448Y-52231271D01*
X78962778Y-52267009D01*
X79046443Y-52423534D01*
X79097963Y-52593373D01*
X79115359Y-52770000D01*
X79097963Y-52946627D01*
X79046443Y-53116466D01*
X78962778Y-53272991D01*
X78937842Y-53303375D01*
X78850186Y-53410186D01*
X78765970Y-53479299D01*
X78712991Y-53522778D01*
X78712989Y-53522779D01*
X78558792Y-53605200D01*
X78556466Y-53606443D01*
X78386627Y-53657963D01*
X78320443Y-53664481D01*
X78254260Y-53671000D01*
X78165740Y-53671000D01*
X78099557Y-53664481D01*
X78033373Y-53657963D01*
X77863534Y-53606443D01*
X77861209Y-53605200D01*
X77707011Y-53522779D01*
X77707009Y-53522778D01*
X77654030Y-53479299D01*
X77569814Y-53410186D01*
X77482158Y-53303375D01*
X77457222Y-53272991D01*
X77373557Y-53116466D01*
X77322037Y-52946627D01*
X77304641Y-52770000D01*
X77322037Y-52593373D01*
X77373557Y-52423534D01*
X77457222Y-52267009D01*
X77486552Y-52231271D01*
X77569814Y-52129814D01*
X77682910Y-52037000D01*
X77707009Y-52017222D01*
X77863534Y-51933557D01*
X78033373Y-51882037D01*
X78114975Y-51874000D01*
X78165740Y-51869000D01*
X78254260Y-51869000D01*
X78305025Y-51874000D01*
X78305025Y-51874000D01*
G37*
G36*
X78320442Y-49335518D02*
G01*
X78386627Y-49342037D01*
X78556466Y-49393557D01*
X78712991Y-49477222D01*
X78748729Y-49506552D01*
X78850186Y-49589814D01*
X78933448Y-49691271D01*
X78962778Y-49727009D01*
X79046443Y-49883534D01*
X79097963Y-50053373D01*
X79115359Y-50230000D01*
X79097963Y-50406627D01*
X79046443Y-50576466D01*
X78962778Y-50732991D01*
X78938150Y-50763000D01*
X78850186Y-50870186D01*
X78782175Y-50926000D01*
X78712991Y-50982778D01*
X78556466Y-51066443D01*
X78386627Y-51117963D01*
X78320442Y-51124482D01*
X78254260Y-51131000D01*
X78165740Y-51131000D01*
X78099558Y-51124482D01*
X78033373Y-51117963D01*
X77863534Y-51066443D01*
X77707009Y-50982778D01*
X77637825Y-50926000D01*
X77569814Y-50870186D01*
X77481850Y-50763000D01*
X77457222Y-50732991D01*
X77373557Y-50576466D01*
X77322037Y-50406627D01*
X77304641Y-50230000D01*
X77322037Y-50053373D01*
X77373557Y-49883534D01*
X77457222Y-49727009D01*
X77486552Y-49691271D01*
X77569814Y-49589814D01*
X77671271Y-49506552D01*
X77707009Y-49477222D01*
X77863534Y-49393557D01*
X78033373Y-49342037D01*
X78099557Y-49335519D01*
X78165740Y-49329000D01*
X78254260Y-49329000D01*
X78320442Y-49335518D01*
X78320442Y-49335518D01*
G37*
G36*
X80860442Y-49335518D02*
G01*
X80926627Y-49342037D01*
X81096466Y-49393557D01*
X81252991Y-49477222D01*
X81288729Y-49506552D01*
X81390186Y-49589814D01*
X81473448Y-49691271D01*
X81502778Y-49727009D01*
X81586443Y-49883534D01*
X81637963Y-50053373D01*
X81655359Y-50230000D01*
X81637963Y-50406627D01*
X81586443Y-50576466D01*
X81502778Y-50732991D01*
X81478150Y-50763000D01*
X81390186Y-50870186D01*
X81322175Y-50926000D01*
X81252991Y-50982778D01*
X81096466Y-51066443D01*
X80926627Y-51117963D01*
X80860442Y-51124482D01*
X80794260Y-51131000D01*
X80705740Y-51131000D01*
X80639558Y-51124482D01*
X80573373Y-51117963D01*
X80403534Y-51066443D01*
X80247009Y-50982778D01*
X80177825Y-50926000D01*
X80109814Y-50870186D01*
X80021850Y-50763000D01*
X79997222Y-50732991D01*
X79913557Y-50576466D01*
X79862037Y-50406627D01*
X79844641Y-50230000D01*
X79862037Y-50053373D01*
X79913557Y-49883534D01*
X79997222Y-49727009D01*
X80026552Y-49691271D01*
X80109814Y-49589814D01*
X80211271Y-49506552D01*
X80247009Y-49477222D01*
X80403534Y-49393557D01*
X80573373Y-49342037D01*
X80639557Y-49335519D01*
X80705740Y-49329000D01*
X80794260Y-49329000D01*
X80860442Y-49335518D01*
X80860442Y-49335518D01*
G37*
G36*
X107514499Y-50078445D02*
G01*
X107551995Y-50089820D01*
X107586554Y-50108292D01*
X107616847Y-50133153D01*
X107641708Y-50163446D01*
X107660180Y-50198005D01*
X107671555Y-50235501D01*
X107676000Y-50280638D01*
X107676000Y-50919362D01*
X107671555Y-50964499D01*
X107660180Y-51001995D01*
X107641708Y-51036554D01*
X107616847Y-51066847D01*
X107586554Y-51091708D01*
X107551995Y-51110180D01*
X107514499Y-51121555D01*
X107469362Y-51126000D01*
X106730638Y-51126000D01*
X106685501Y-51121555D01*
X106648005Y-51110180D01*
X106613446Y-51091708D01*
X106583153Y-51066847D01*
X106558292Y-51036554D01*
X106539820Y-51001995D01*
X106528445Y-50964499D01*
X106524000Y-50919362D01*
X106524000Y-50280638D01*
X106528445Y-50235501D01*
X106539820Y-50198005D01*
X106558292Y-50163446D01*
X106583153Y-50133153D01*
X106613446Y-50108292D01*
X106648005Y-50089820D01*
X106685501Y-50078445D01*
X106730638Y-50074000D01*
X107469362Y-50074000D01*
X107514499Y-50078445D01*
X107514499Y-50078445D01*
G37*
G36*
X105764499Y-50078445D02*
G01*
X105801995Y-50089820D01*
X105836554Y-50108292D01*
X105866847Y-50133153D01*
X105891708Y-50163446D01*
X105910180Y-50198005D01*
X105921555Y-50235501D01*
X105926000Y-50280638D01*
X105926000Y-50919362D01*
X105921555Y-50964499D01*
X105910180Y-51001995D01*
X105891708Y-51036554D01*
X105866847Y-51066847D01*
X105836554Y-51091708D01*
X105801995Y-51110180D01*
X105764499Y-51121555D01*
X105719362Y-51126000D01*
X104980638Y-51126000D01*
X104935501Y-51121555D01*
X104898005Y-51110180D01*
X104863446Y-51091708D01*
X104833153Y-51066847D01*
X104808292Y-51036554D01*
X104789820Y-51001995D01*
X104778445Y-50964499D01*
X104774000Y-50919362D01*
X104774000Y-50280638D01*
X104778445Y-50235501D01*
X104789820Y-50198005D01*
X104808292Y-50163446D01*
X104833153Y-50133153D01*
X104863446Y-50108292D01*
X104898005Y-50089820D01*
X104935501Y-50078445D01*
X104980638Y-50074000D01*
X105719362Y-50074000D01*
X105764499Y-50078445D01*
X105764499Y-50078445D01*
G37*
G36*
X80860442Y-46795518D02*
G01*
X80926627Y-46802037D01*
X81096466Y-46853557D01*
X81252991Y-46937222D01*
X81288729Y-46966552D01*
X81390186Y-47049814D01*
X81473448Y-47151271D01*
X81502778Y-47187009D01*
X81586443Y-47343534D01*
X81637963Y-47513373D01*
X81655359Y-47690000D01*
X81637963Y-47866627D01*
X81586443Y-48036466D01*
X81502778Y-48192991D01*
X81473448Y-48228729D01*
X81390186Y-48330186D01*
X81288729Y-48413448D01*
X81252991Y-48442778D01*
X81096466Y-48526443D01*
X80926627Y-48577963D01*
X80860443Y-48584481D01*
X80794260Y-48591000D01*
X80705740Y-48591000D01*
X80639558Y-48584482D01*
X80573373Y-48577963D01*
X80403534Y-48526443D01*
X80247009Y-48442778D01*
X80211271Y-48413448D01*
X80109814Y-48330186D01*
X80026552Y-48228729D01*
X79997222Y-48192991D01*
X79913557Y-48036466D01*
X79862037Y-47866627D01*
X79844641Y-47690000D01*
X79862037Y-47513373D01*
X79913557Y-47343534D01*
X79997222Y-47187009D01*
X80026552Y-47151271D01*
X80109814Y-47049814D01*
X80211271Y-46966552D01*
X80247009Y-46937222D01*
X80403534Y-46853557D01*
X80573373Y-46802037D01*
X80639558Y-46795518D01*
X80705740Y-46789000D01*
X80794260Y-46789000D01*
X80860442Y-46795518D01*
X80860442Y-46795518D01*
G37*
G36*
X78320442Y-46795518D02*
G01*
X78386627Y-46802037D01*
X78556466Y-46853557D01*
X78712991Y-46937222D01*
X78748729Y-46966552D01*
X78850186Y-47049814D01*
X78933448Y-47151271D01*
X78962778Y-47187009D01*
X79046443Y-47343534D01*
X79097963Y-47513373D01*
X79115359Y-47690000D01*
X79097963Y-47866627D01*
X79046443Y-48036466D01*
X78962778Y-48192991D01*
X78933448Y-48228729D01*
X78850186Y-48330186D01*
X78748729Y-48413448D01*
X78712991Y-48442778D01*
X78556466Y-48526443D01*
X78386627Y-48577963D01*
X78320443Y-48584481D01*
X78254260Y-48591000D01*
X78165740Y-48591000D01*
X78099558Y-48584482D01*
X78033373Y-48577963D01*
X77863534Y-48526443D01*
X77707009Y-48442778D01*
X77671271Y-48413448D01*
X77569814Y-48330186D01*
X77486552Y-48228729D01*
X77457222Y-48192991D01*
X77373557Y-48036466D01*
X77322037Y-47866627D01*
X77304641Y-47690000D01*
X77322037Y-47513373D01*
X77373557Y-47343534D01*
X77457222Y-47187009D01*
X77486552Y-47151271D01*
X77569814Y-47049814D01*
X77671271Y-46966552D01*
X77707009Y-46937222D01*
X77863534Y-46853557D01*
X78033373Y-46802037D01*
X78099558Y-46795518D01*
X78165740Y-46789000D01*
X78254260Y-46789000D01*
X78320442Y-46795518D01*
X78320442Y-46795518D01*
G37*
G36*
X78320442Y-44255518D02*
G01*
X78386627Y-44262037D01*
X78556466Y-44313557D01*
X78712991Y-44397222D01*
X78748729Y-44426552D01*
X78850186Y-44509814D01*
X78933448Y-44611271D01*
X78962778Y-44647009D01*
X79046443Y-44803534D01*
X79097963Y-44973373D01*
X79115359Y-45150000D01*
X79097963Y-45326627D01*
X79046443Y-45496466D01*
X78962778Y-45652991D01*
X78933448Y-45688729D01*
X78850186Y-45790186D01*
X78748729Y-45873448D01*
X78712991Y-45902778D01*
X78556466Y-45986443D01*
X78386627Y-46037963D01*
X78320443Y-46044481D01*
X78254260Y-46051000D01*
X78165740Y-46051000D01*
X78099558Y-46044482D01*
X78033373Y-46037963D01*
X77863534Y-45986443D01*
X77707009Y-45902778D01*
X77671271Y-45873448D01*
X77569814Y-45790186D01*
X77486552Y-45688729D01*
X77457222Y-45652991D01*
X77373557Y-45496466D01*
X77322037Y-45326627D01*
X77304641Y-45150000D01*
X77322037Y-44973373D01*
X77373557Y-44803534D01*
X77457222Y-44647009D01*
X77486552Y-44611271D01*
X77569814Y-44509814D01*
X77671271Y-44426552D01*
X77707009Y-44397222D01*
X77863534Y-44313557D01*
X78033373Y-44262037D01*
X78099558Y-44255518D01*
X78165740Y-44249000D01*
X78254260Y-44249000D01*
X78320442Y-44255518D01*
X78320442Y-44255518D01*
G37*
G36*
X80860442Y-44255518D02*
G01*
X80926627Y-44262037D01*
X81096466Y-44313557D01*
X81252991Y-44397222D01*
X81288729Y-44426552D01*
X81390186Y-44509814D01*
X81473448Y-44611271D01*
X81502778Y-44647009D01*
X81586443Y-44803534D01*
X81637963Y-44973373D01*
X81655359Y-45150000D01*
X81637963Y-45326627D01*
X81586443Y-45496466D01*
X81502778Y-45652991D01*
X81473448Y-45688729D01*
X81390186Y-45790186D01*
X81288729Y-45873448D01*
X81252991Y-45902778D01*
X81096466Y-45986443D01*
X80926627Y-46037963D01*
X80860443Y-46044481D01*
X80794260Y-46051000D01*
X80705740Y-46051000D01*
X80639558Y-46044482D01*
X80573373Y-46037963D01*
X80403534Y-45986443D01*
X80247009Y-45902778D01*
X80211271Y-45873448D01*
X80109814Y-45790186D01*
X80026552Y-45688729D01*
X79997222Y-45652991D01*
X79913557Y-45496466D01*
X79862037Y-45326627D01*
X79844641Y-45150000D01*
X79862037Y-44973373D01*
X79913557Y-44803534D01*
X79997222Y-44647009D01*
X80026552Y-44611271D01*
X80109814Y-44509814D01*
X80211271Y-44426552D01*
X80247009Y-44397222D01*
X80403534Y-44313557D01*
X80573373Y-44262037D01*
X80639558Y-44255518D01*
X80705740Y-44249000D01*
X80794260Y-44249000D01*
X80860442Y-44255518D01*
X80860442Y-44255518D01*
G37*
G36*
X80860442Y-41715518D02*
G01*
X80926627Y-41722037D01*
X81096466Y-41773557D01*
X81252991Y-41857222D01*
X81288729Y-41886552D01*
X81390186Y-41969814D01*
X81473448Y-42071271D01*
X81502778Y-42107009D01*
X81586443Y-42263534D01*
X81637963Y-42433373D01*
X81655359Y-42610000D01*
X81637963Y-42786627D01*
X81586443Y-42956466D01*
X81502778Y-43112991D01*
X81473448Y-43148729D01*
X81390186Y-43250186D01*
X81288729Y-43333448D01*
X81252991Y-43362778D01*
X81096466Y-43446443D01*
X80926627Y-43497963D01*
X80860442Y-43504482D01*
X80794260Y-43511000D01*
X80705740Y-43511000D01*
X80639558Y-43504482D01*
X80573373Y-43497963D01*
X80403534Y-43446443D01*
X80247009Y-43362778D01*
X80211271Y-43333448D01*
X80109814Y-43250186D01*
X80026552Y-43148729D01*
X79997222Y-43112991D01*
X79913557Y-42956466D01*
X79862037Y-42786627D01*
X79844641Y-42610000D01*
X79862037Y-42433373D01*
X79913557Y-42263534D01*
X79997222Y-42107009D01*
X80026552Y-42071271D01*
X80109814Y-41969814D01*
X80211271Y-41886552D01*
X80247009Y-41857222D01*
X80403534Y-41773557D01*
X80573373Y-41722037D01*
X80639558Y-41715518D01*
X80705740Y-41709000D01*
X80794260Y-41709000D01*
X80860442Y-41715518D01*
X80860442Y-41715518D01*
G37*
G36*
X78320442Y-41715518D02*
G01*
X78386627Y-41722037D01*
X78556466Y-41773557D01*
X78712991Y-41857222D01*
X78748729Y-41886552D01*
X78850186Y-41969814D01*
X78933448Y-42071271D01*
X78962778Y-42107009D01*
X79046443Y-42263534D01*
X79097963Y-42433373D01*
X79115359Y-42610000D01*
X79097963Y-42786627D01*
X79046443Y-42956466D01*
X78962778Y-43112991D01*
X78933448Y-43148729D01*
X78850186Y-43250186D01*
X78748729Y-43333448D01*
X78712991Y-43362778D01*
X78556466Y-43446443D01*
X78386627Y-43497963D01*
X78320442Y-43504482D01*
X78254260Y-43511000D01*
X78165740Y-43511000D01*
X78099558Y-43504482D01*
X78033373Y-43497963D01*
X77863534Y-43446443D01*
X77707009Y-43362778D01*
X77671271Y-43333448D01*
X77569814Y-43250186D01*
X77486552Y-43148729D01*
X77457222Y-43112991D01*
X77373557Y-42956466D01*
X77322037Y-42786627D01*
X77304641Y-42610000D01*
X77322037Y-42433373D01*
X77373557Y-42263534D01*
X77457222Y-42107009D01*
X77486552Y-42071271D01*
X77569814Y-41969814D01*
X77671271Y-41886552D01*
X77707009Y-41857222D01*
X77863534Y-41773557D01*
X78033373Y-41722037D01*
X78099558Y-41715518D01*
X78165740Y-41709000D01*
X78254260Y-41709000D01*
X78320442Y-41715518D01*
X78320442Y-41715518D01*
G37*
G36*
X80860442Y-39175518D02*
G01*
X80926627Y-39182037D01*
X81096466Y-39233557D01*
X81252991Y-39317222D01*
X81288729Y-39346552D01*
X81390186Y-39429814D01*
X81473448Y-39531271D01*
X81502778Y-39567009D01*
X81586443Y-39723534D01*
X81637963Y-39893373D01*
X81655359Y-40070000D01*
X81637963Y-40246627D01*
X81586443Y-40416466D01*
X81502778Y-40572991D01*
X81473448Y-40608729D01*
X81390186Y-40710186D01*
X81288729Y-40793448D01*
X81252991Y-40822778D01*
X81096466Y-40906443D01*
X80926627Y-40957963D01*
X80860443Y-40964481D01*
X80794260Y-40971000D01*
X80705740Y-40971000D01*
X80639557Y-40964481D01*
X80573373Y-40957963D01*
X80403534Y-40906443D01*
X80247009Y-40822778D01*
X80211271Y-40793448D01*
X80109814Y-40710186D01*
X80026552Y-40608729D01*
X79997222Y-40572991D01*
X79913557Y-40416466D01*
X79862037Y-40246627D01*
X79844641Y-40070000D01*
X79862037Y-39893373D01*
X79913557Y-39723534D01*
X79997222Y-39567009D01*
X80026552Y-39531271D01*
X80109814Y-39429814D01*
X80211271Y-39346552D01*
X80247009Y-39317222D01*
X80403534Y-39233557D01*
X80573373Y-39182037D01*
X80639558Y-39175518D01*
X80705740Y-39169000D01*
X80794260Y-39169000D01*
X80860442Y-39175518D01*
X80860442Y-39175518D01*
G37*
G36*
X78320442Y-39175518D02*
G01*
X78386627Y-39182037D01*
X78556466Y-39233557D01*
X78712991Y-39317222D01*
X78748729Y-39346552D01*
X78850186Y-39429814D01*
X78933448Y-39531271D01*
X78962778Y-39567009D01*
X79046443Y-39723534D01*
X79097963Y-39893373D01*
X79115359Y-40070000D01*
X79097963Y-40246627D01*
X79046443Y-40416466D01*
X78962778Y-40572991D01*
X78933448Y-40608729D01*
X78850186Y-40710186D01*
X78748729Y-40793448D01*
X78712991Y-40822778D01*
X78556466Y-40906443D01*
X78386627Y-40957963D01*
X78320443Y-40964481D01*
X78254260Y-40971000D01*
X78165740Y-40971000D01*
X78099557Y-40964481D01*
X78033373Y-40957963D01*
X77863534Y-40906443D01*
X77707009Y-40822778D01*
X77671271Y-40793448D01*
X77569814Y-40710186D01*
X77486552Y-40608729D01*
X77457222Y-40572991D01*
X77373557Y-40416466D01*
X77322037Y-40246627D01*
X77304641Y-40070000D01*
X77322037Y-39893373D01*
X77373557Y-39723534D01*
X77457222Y-39567009D01*
X77486552Y-39531271D01*
X77569814Y-39429814D01*
X77671271Y-39346552D01*
X77707009Y-39317222D01*
X77863534Y-39233557D01*
X78033373Y-39182037D01*
X78099558Y-39175518D01*
X78165740Y-39169000D01*
X78254260Y-39169000D01*
X78320442Y-39175518D01*
X78320442Y-39175518D01*
G37*
G36*
X92360442Y-37895518D02*
G01*
X92426627Y-37902037D01*
X92596466Y-37953557D01*
X92752991Y-38037222D01*
X92788729Y-38066552D01*
X92890186Y-38149814D01*
X92973448Y-38251271D01*
X93002778Y-38287009D01*
X93086443Y-38443534D01*
X93137963Y-38613373D01*
X93155359Y-38790000D01*
X93137963Y-38966627D01*
X93086443Y-39136466D01*
X93002778Y-39292991D01*
X92982893Y-39317221D01*
X92890186Y-39430186D01*
X92788729Y-39513448D01*
X92752991Y-39542778D01*
X92596466Y-39626443D01*
X92426627Y-39677963D01*
X92360443Y-39684481D01*
X92294260Y-39691000D01*
X92205740Y-39691000D01*
X92139557Y-39684481D01*
X92073373Y-39677963D01*
X91903534Y-39626443D01*
X91747009Y-39542778D01*
X91711271Y-39513448D01*
X91609814Y-39430186D01*
X91517107Y-39317221D01*
X91497222Y-39292991D01*
X91413557Y-39136466D01*
X91362037Y-38966627D01*
X91344641Y-38790000D01*
X91362037Y-38613373D01*
X91413557Y-38443534D01*
X91497222Y-38287009D01*
X91526552Y-38251271D01*
X91609814Y-38149814D01*
X91711271Y-38066552D01*
X91747009Y-38037222D01*
X91903534Y-37953557D01*
X92073373Y-37902037D01*
X92139558Y-37895518D01*
X92205740Y-37889000D01*
X92294260Y-37889000D01*
X92360442Y-37895518D01*
X92360442Y-37895518D01*
G37*
G36*
X80860443Y-36635519D02*
G01*
X80926627Y-36642037D01*
X81096466Y-36693557D01*
X81252991Y-36777222D01*
X81288729Y-36806552D01*
X81390186Y-36889814D01*
X81473448Y-36991271D01*
X81502778Y-37027009D01*
X81586443Y-37183534D01*
X81637963Y-37353373D01*
X81655359Y-37530000D01*
X81637963Y-37706627D01*
X81586443Y-37876466D01*
X81502778Y-38032991D01*
X81473448Y-38068729D01*
X81390186Y-38170186D01*
X81288729Y-38253448D01*
X81252991Y-38282778D01*
X81096466Y-38366443D01*
X80926627Y-38417963D01*
X80860442Y-38424482D01*
X80794260Y-38431000D01*
X80705740Y-38431000D01*
X80639558Y-38424482D01*
X80573373Y-38417963D01*
X80403534Y-38366443D01*
X80247009Y-38282778D01*
X80211271Y-38253448D01*
X80109814Y-38170186D01*
X80026552Y-38068729D01*
X79997222Y-38032991D01*
X79913557Y-37876466D01*
X79862037Y-37706627D01*
X79844641Y-37530000D01*
X79862037Y-37353373D01*
X79913557Y-37183534D01*
X79997222Y-37027009D01*
X80026552Y-36991271D01*
X80109814Y-36889814D01*
X80211271Y-36806552D01*
X80247009Y-36777222D01*
X80403534Y-36693557D01*
X80573373Y-36642037D01*
X80639557Y-36635519D01*
X80705740Y-36629000D01*
X80794260Y-36629000D01*
X80860443Y-36635519D01*
X80860443Y-36635519D01*
G37*
G36*
X78320443Y-36635519D02*
G01*
X78386627Y-36642037D01*
X78556466Y-36693557D01*
X78712991Y-36777222D01*
X78748729Y-36806552D01*
X78850186Y-36889814D01*
X78933448Y-36991271D01*
X78962778Y-37027009D01*
X79046443Y-37183534D01*
X79097963Y-37353373D01*
X79115359Y-37530000D01*
X79097963Y-37706627D01*
X79046443Y-37876466D01*
X78962778Y-38032991D01*
X78933448Y-38068729D01*
X78850186Y-38170186D01*
X78748729Y-38253448D01*
X78712991Y-38282778D01*
X78556466Y-38366443D01*
X78386627Y-38417963D01*
X78320442Y-38424482D01*
X78254260Y-38431000D01*
X78165740Y-38431000D01*
X78099558Y-38424482D01*
X78033373Y-38417963D01*
X77863534Y-38366443D01*
X77707009Y-38282778D01*
X77671271Y-38253448D01*
X77569814Y-38170186D01*
X77486552Y-38068729D01*
X77457222Y-38032991D01*
X77373557Y-37876466D01*
X77322037Y-37706627D01*
X77304641Y-37530000D01*
X77322037Y-37353373D01*
X77373557Y-37183534D01*
X77457222Y-37027009D01*
X77486552Y-36991271D01*
X77569814Y-36889814D01*
X77671271Y-36806552D01*
X77707009Y-36777222D01*
X77863534Y-36693557D01*
X78033373Y-36642037D01*
X78099557Y-36635519D01*
X78165740Y-36629000D01*
X78254260Y-36629000D01*
X78320443Y-36635519D01*
X78320443Y-36635519D01*
G37*
G36*
X93151000Y-37151000D02*
G01*
X91349000Y-37151000D01*
X91349000Y-35349000D01*
X93151000Y-35349000D01*
X93151000Y-37151000D01*
X93151000Y-37151000D01*
G37*
G36*
X78320442Y-34095518D02*
G01*
X78386627Y-34102037D01*
X78556466Y-34153557D01*
X78712991Y-34237222D01*
X78748729Y-34266552D01*
X78850186Y-34349814D01*
X78933448Y-34451271D01*
X78962778Y-34487009D01*
X79046443Y-34643534D01*
X79097963Y-34813373D01*
X79115359Y-34990000D01*
X79097963Y-35166627D01*
X79046443Y-35336466D01*
X78962778Y-35492991D01*
X78933448Y-35528729D01*
X78850186Y-35630186D01*
X78748729Y-35713448D01*
X78712991Y-35742778D01*
X78556466Y-35826443D01*
X78386627Y-35877963D01*
X78320443Y-35884481D01*
X78254260Y-35891000D01*
X78165740Y-35891000D01*
X78099557Y-35884481D01*
X78033373Y-35877963D01*
X77863534Y-35826443D01*
X77707009Y-35742778D01*
X77671271Y-35713448D01*
X77569814Y-35630186D01*
X77486552Y-35528729D01*
X77457222Y-35492991D01*
X77373557Y-35336466D01*
X77322037Y-35166627D01*
X77304641Y-34990000D01*
X77322037Y-34813373D01*
X77373557Y-34643534D01*
X77457222Y-34487009D01*
X77486552Y-34451271D01*
X77569814Y-34349814D01*
X77671271Y-34266552D01*
X77707009Y-34237222D01*
X77863534Y-34153557D01*
X78033373Y-34102037D01*
X78099558Y-34095518D01*
X78165740Y-34089000D01*
X78254260Y-34089000D01*
X78320442Y-34095518D01*
X78320442Y-34095518D01*
G37*
G36*
X80860442Y-34095518D02*
G01*
X80926627Y-34102037D01*
X81096466Y-34153557D01*
X81252991Y-34237222D01*
X81288729Y-34266552D01*
X81390186Y-34349814D01*
X81473448Y-34451271D01*
X81502778Y-34487009D01*
X81586443Y-34643534D01*
X81637963Y-34813373D01*
X81655359Y-34990000D01*
X81637963Y-35166627D01*
X81586443Y-35336466D01*
X81502778Y-35492991D01*
X81473448Y-35528729D01*
X81390186Y-35630186D01*
X81288729Y-35713448D01*
X81252991Y-35742778D01*
X81096466Y-35826443D01*
X80926627Y-35877963D01*
X80860443Y-35884481D01*
X80794260Y-35891000D01*
X80705740Y-35891000D01*
X80639557Y-35884481D01*
X80573373Y-35877963D01*
X80403534Y-35826443D01*
X80247009Y-35742778D01*
X80211271Y-35713448D01*
X80109814Y-35630186D01*
X80026552Y-35528729D01*
X79997222Y-35492991D01*
X79913557Y-35336466D01*
X79862037Y-35166627D01*
X79844641Y-34990000D01*
X79862037Y-34813373D01*
X79913557Y-34643534D01*
X79997222Y-34487009D01*
X80026552Y-34451271D01*
X80109814Y-34349814D01*
X80211271Y-34266552D01*
X80247009Y-34237222D01*
X80403534Y-34153557D01*
X80573373Y-34102037D01*
X80639558Y-34095518D01*
X80705740Y-34089000D01*
X80794260Y-34089000D01*
X80860442Y-34095518D01*
X80860442Y-34095518D01*
G37*
M02*
