M48
INCH,TZ
T1C0.0157
T2C0.0354
T3C0.0394
%
G90
G05
T1
X29685Y-30492
X33051Y-24409
X33051Y-25984
X33602Y-15315
X33602Y-15965
X33602Y-23858
X33720Y-20098
X34882Y-17697
X34882Y-20709
X34902Y-28327
X35017Y-22297
X35079Y-27480
X35177Y-20354
X35354Y-18268
X35354Y-22500
X35512Y-24173
X35531Y-27677
X35606Y-23602
X35697Y-22307
X35748Y-18248
X35768Y-16122
X35827Y-28366
X36142Y-27756
X36181Y-18248
X36220Y-23877
X36378Y-22303
X36437Y-20492
X36437Y-28110
X36555Y-17736
X36978Y-23622
X37008Y-17913
X37244Y-28150
X37303Y-32756
X37559Y-19390
X37776Y-19902
X37795Y-28110
X37934Y-22120
X38110Y-28661
X38248Y-20039
X38307Y-22244
X38583Y-18189
X38583Y-26328
X38661Y-27913
X38740Y-32047
X38830Y-26022
X38971Y-28340
X38976Y-18780
X39106Y-22441
X39134Y-31667
X39291Y-18110
X39331Y-26638
X39390Y-27379
X39528Y-31969
X39657Y-22507
X39696Y-26063
X39725Y-27850
X39882Y-18189
X39961Y-15453
X40197Y-26516
X40202Y-22318
X40236Y-18661
X40276Y-27889
X40472Y-26063
X40551Y-17992
X40709Y-30000
X40748Y-27101
X40900Y-22045
X41111Y-27422
X41142Y-20551
X41223Y-22270
X41417Y-18425
X41437Y-27202
X41476Y-15453
X41614Y-26850
X41654Y-17795
X41654Y-22677
X41693Y-25669
X41890Y-23386
X42047Y-24331
X42756Y-30965
X42756Y-24331
X42756Y-17854
T2
X36811Y-13563
X36811Y-14862
X37795Y-13563
X37795Y-14862
X38780Y-13563
X38780Y-14862
T3
X30791Y-13776
X30791Y-14776
X30791Y-15776
X30791Y-16776
X30791Y-17776
X30791Y-18776
X30791Y-19776
X30791Y-20776
X30791Y-21776
X30791Y-22776
X30791Y-23776
X30791Y-24776
X30791Y-25776
X30791Y-26776
X30791Y-27776
X30791Y-28776
X30791Y-29776
X30791Y-30776
X30791Y-31776
X30791Y-32776
X31791Y-13776
X31791Y-14776
X31791Y-15776
X31791Y-16776
X31791Y-17776
X31791Y-18776
X31791Y-19776
X31791Y-20776
X31791Y-21776
X31791Y-22776
X31791Y-23776
X31791Y-24776
X31791Y-25776
X31791Y-26776
X31791Y-27776
X31791Y-28776
X31791Y-29776
X31791Y-30776
X31791Y-31776
X31791Y-32776
T0
M30
