G04 #@! TF.GenerationSoftware,KiCad,Pcbnew,(5.1.4-0-10_14)*
G04 #@! TF.CreationDate,2019-11-29T22:31:08-05:00*
G04 #@! TF.ProjectId,a500plus-chipram-expansion,61353030-706c-4757-932d-636869707261,rev?*
G04 #@! TF.SameCoordinates,Original*
G04 #@! TF.FileFunction,Legend,Top*
G04 #@! TF.FilePolarity,Positive*
%FSLAX46Y46*%
G04 Gerber Fmt 4.6, Leading zero omitted, Abs format (unit mm)*
G04 Created by KiCad (PCBNEW (5.1.4-0-10_14)) date 2019-11-29 22:31:08*
%MOMM*%
%LPD*%
G04 APERTURE LIST*
%ADD10C,0.150000*%
%ADD11C,0.120000*%
%ADD12C,0.180000*%
G04 APERTURE END LIST*
D10*
X85708333Y-23765714D02*
X85708333Y-24432380D01*
X85470238Y-23384761D02*
X85232142Y-24099047D01*
X85851190Y-24099047D01*
X86755952Y-24432380D02*
X86184523Y-24432380D01*
X86470238Y-24432380D02*
X86470238Y-23432380D01*
X86375000Y-23575238D01*
X86279761Y-23670476D01*
X86184523Y-23718095D01*
X87184523Y-24337142D02*
X87232142Y-24384761D01*
X87184523Y-24432380D01*
X87136904Y-24384761D01*
X87184523Y-24337142D01*
X87184523Y-24432380D01*
X87613095Y-23527619D02*
X87660714Y-23480000D01*
X87755952Y-23432380D01*
X87994047Y-23432380D01*
X88089285Y-23480000D01*
X88136904Y-23527619D01*
X88184523Y-23622857D01*
X88184523Y-23718095D01*
X88136904Y-23860952D01*
X87565476Y-24432380D01*
X88184523Y-24432380D01*
X89089285Y-23432380D02*
X88613095Y-23432380D01*
X88565476Y-23908571D01*
X88613095Y-23860952D01*
X88708333Y-23813333D01*
X88946428Y-23813333D01*
X89041666Y-23860952D01*
X89089285Y-23908571D01*
X89136904Y-24003809D01*
X89136904Y-24241904D01*
X89089285Y-24337142D01*
X89041666Y-24384761D01*
X88946428Y-24432380D01*
X88708333Y-24432380D01*
X88613095Y-24384761D01*
X88565476Y-24337142D01*
X89755952Y-23432380D02*
X89851190Y-23432380D01*
X89946428Y-23480000D01*
X89994047Y-23527619D01*
X90041666Y-23622857D01*
X90089285Y-23813333D01*
X90089285Y-24051428D01*
X90041666Y-24241904D01*
X89994047Y-24337142D01*
X89946428Y-24384761D01*
X89851190Y-24432380D01*
X89755952Y-24432380D01*
X89660714Y-24384761D01*
X89613095Y-24337142D01*
X89565476Y-24241904D01*
X89517857Y-24051428D01*
X89517857Y-23813333D01*
X89565476Y-23622857D01*
X89613095Y-23527619D01*
X89660714Y-23480000D01*
X89755952Y-23432380D01*
X91279761Y-24432380D02*
X91279761Y-23765714D01*
X91279761Y-23860952D02*
X91327380Y-23813333D01*
X91422619Y-23765714D01*
X91565476Y-23765714D01*
X91660714Y-23813333D01*
X91708333Y-23908571D01*
X91708333Y-24432380D01*
X91708333Y-23908571D02*
X91755952Y-23813333D01*
X91851190Y-23765714D01*
X91994047Y-23765714D01*
X92089285Y-23813333D01*
X92136904Y-23908571D01*
X92136904Y-24432380D01*
X92613095Y-24432380D02*
X92613095Y-23765714D01*
X92613095Y-23860952D02*
X92660714Y-23813333D01*
X92755952Y-23765714D01*
X92898809Y-23765714D01*
X92994047Y-23813333D01*
X93041666Y-23908571D01*
X93041666Y-24432380D01*
X93041666Y-23908571D02*
X93089285Y-23813333D01*
X93184523Y-23765714D01*
X93327380Y-23765714D01*
X93422619Y-23813333D01*
X93470238Y-23908571D01*
X93470238Y-24432380D01*
D11*
X68750000Y-25250000D02*
X110000000Y-25250000D01*
X68750000Y-27000000D02*
X68750000Y-24663579D01*
X110000000Y-27000000D02*
X110000000Y-24663579D01*
X110000000Y-25250000D02*
X108873496Y-25836421D01*
X110000000Y-25250000D02*
X108873496Y-24663579D01*
X68750000Y-25250000D02*
X69876504Y-25836421D01*
X68750000Y-25250000D02*
X69876504Y-24663579D01*
D10*
X57027619Y-56505952D02*
X57027619Y-56029761D01*
X56551428Y-55982142D01*
X56599047Y-56029761D01*
X56646666Y-56125000D01*
X56646666Y-56363095D01*
X56599047Y-56458333D01*
X56551428Y-56505952D01*
X56456190Y-56553571D01*
X56218095Y-56553571D01*
X56122857Y-56505952D01*
X56075238Y-56458333D01*
X56027619Y-56363095D01*
X56027619Y-56125000D01*
X56075238Y-56029761D01*
X56122857Y-55982142D01*
X57027619Y-56886904D02*
X57027619Y-57505952D01*
X56646666Y-57172619D01*
X56646666Y-57315476D01*
X56599047Y-57410714D01*
X56551428Y-57458333D01*
X56456190Y-57505952D01*
X56218095Y-57505952D01*
X56122857Y-57458333D01*
X56075238Y-57410714D01*
X56027619Y-57315476D01*
X56027619Y-57029761D01*
X56075238Y-56934523D01*
X56122857Y-56886904D01*
X56122857Y-57934523D02*
X56075238Y-57982142D01*
X56027619Y-57934523D01*
X56075238Y-57886904D01*
X56122857Y-57934523D01*
X56027619Y-57934523D01*
X57027619Y-58315476D02*
X57027619Y-58982142D01*
X56027619Y-58553571D01*
X57027619Y-59839285D02*
X57027619Y-59363095D01*
X56551428Y-59315476D01*
X56599047Y-59363095D01*
X56646666Y-59458333D01*
X56646666Y-59696428D01*
X56599047Y-59791666D01*
X56551428Y-59839285D01*
X56456190Y-59886904D01*
X56218095Y-59886904D01*
X56122857Y-59839285D01*
X56075238Y-59791666D01*
X56027619Y-59696428D01*
X56027619Y-59458333D01*
X56075238Y-59363095D01*
X56122857Y-59315476D01*
X57027619Y-60505952D02*
X57027619Y-60601190D01*
X56980000Y-60696428D01*
X56932380Y-60744047D01*
X56837142Y-60791666D01*
X56646666Y-60839285D01*
X56408571Y-60839285D01*
X56218095Y-60791666D01*
X56122857Y-60744047D01*
X56075238Y-60696428D01*
X56027619Y-60601190D01*
X56027619Y-60505952D01*
X56075238Y-60410714D01*
X56122857Y-60363095D01*
X56218095Y-60315476D01*
X56408571Y-60267857D01*
X56646666Y-60267857D01*
X56837142Y-60315476D01*
X56932380Y-60363095D01*
X56980000Y-60410714D01*
X57027619Y-60505952D01*
X56027619Y-62029761D02*
X56694285Y-62029761D01*
X56599047Y-62029761D02*
X56646666Y-62077380D01*
X56694285Y-62172619D01*
X56694285Y-62315476D01*
X56646666Y-62410714D01*
X56551428Y-62458333D01*
X56027619Y-62458333D01*
X56551428Y-62458333D02*
X56646666Y-62505952D01*
X56694285Y-62601190D01*
X56694285Y-62744047D01*
X56646666Y-62839285D01*
X56551428Y-62886904D01*
X56027619Y-62886904D01*
X56027619Y-63363095D02*
X56694285Y-63363095D01*
X56599047Y-63363095D02*
X56646666Y-63410714D01*
X56694285Y-63505952D01*
X56694285Y-63648809D01*
X56646666Y-63744047D01*
X56551428Y-63791666D01*
X56027619Y-63791666D01*
X56551428Y-63791666D02*
X56646666Y-63839285D01*
X56694285Y-63934523D01*
X56694285Y-64077380D01*
X56646666Y-64172619D01*
X56551428Y-64220238D01*
X56027619Y-64220238D01*
D11*
X57750000Y-33250000D02*
X57750000Y-87000000D01*
X60000000Y-33250000D02*
X57163579Y-33250000D01*
X60000000Y-87000000D02*
X57163579Y-87000000D01*
X57750000Y-87000000D02*
X57163579Y-85873496D01*
X57750000Y-87000000D02*
X58336421Y-85873496D01*
X57750000Y-33250000D02*
X57163579Y-34376504D01*
X57750000Y-33250000D02*
X58336421Y-34376504D01*
D10*
X105841666Y-48026071D02*
X105841666Y-47549880D01*
X106127380Y-48121309D02*
X105127380Y-47787976D01*
X106127380Y-47454642D01*
X106127380Y-47121309D02*
X105460714Y-47121309D01*
X105651190Y-47121309D02*
X105555952Y-47073690D01*
X105508333Y-47026071D01*
X105460714Y-46930833D01*
X105460714Y-46835595D01*
X106079761Y-46073690D02*
X106127380Y-46168928D01*
X106127380Y-46359404D01*
X106079761Y-46454642D01*
X106032142Y-46502261D01*
X105936904Y-46549880D01*
X105651190Y-46549880D01*
X105555952Y-46502261D01*
X105508333Y-46454642D01*
X105460714Y-46359404D01*
X105460714Y-46168928D01*
X105508333Y-46073690D01*
X106127380Y-45645119D02*
X105127380Y-45645119D01*
X106127380Y-45216547D02*
X105603571Y-45216547D01*
X105508333Y-45264166D01*
X105460714Y-45359404D01*
X105460714Y-45502261D01*
X105508333Y-45597500D01*
X105555952Y-45645119D01*
X106079761Y-44359404D02*
X106127380Y-44454642D01*
X106127380Y-44645119D01*
X106079761Y-44740357D01*
X105984523Y-44787976D01*
X105603571Y-44787976D01*
X105508333Y-44740357D01*
X105460714Y-44645119D01*
X105460714Y-44454642D01*
X105508333Y-44359404D01*
X105603571Y-44311785D01*
X105698809Y-44311785D01*
X105794047Y-44787976D01*
X106127380Y-43883214D02*
X105460714Y-43883214D01*
X105651190Y-43883214D02*
X105555952Y-43835595D01*
X105508333Y-43787976D01*
X105460714Y-43692738D01*
X105460714Y-43597500D01*
X105746428Y-43264166D02*
X105746428Y-42502261D01*
X105841666Y-42073690D02*
X105841666Y-41597500D01*
X106127380Y-42168928D02*
X105127380Y-41835595D01*
X106127380Y-41502261D01*
X105127380Y-40692738D02*
X105127380Y-41168928D01*
X105603571Y-41216547D01*
X105555952Y-41168928D01*
X105508333Y-41073690D01*
X105508333Y-40835595D01*
X105555952Y-40740357D01*
X105603571Y-40692738D01*
X105698809Y-40645119D01*
X105936904Y-40645119D01*
X106032142Y-40692738D01*
X106079761Y-40740357D01*
X106127380Y-40835595D01*
X106127380Y-41073690D01*
X106079761Y-41168928D01*
X106032142Y-41216547D01*
X105127380Y-40026071D02*
X105127380Y-39930833D01*
X105175000Y-39835595D01*
X105222619Y-39787976D01*
X105317857Y-39740357D01*
X105508333Y-39692738D01*
X105746428Y-39692738D01*
X105936904Y-39740357D01*
X106032142Y-39787976D01*
X106079761Y-39835595D01*
X106127380Y-39930833D01*
X106127380Y-40026071D01*
X106079761Y-40121309D01*
X106032142Y-40168928D01*
X105936904Y-40216547D01*
X105746428Y-40264166D01*
X105508333Y-40264166D01*
X105317857Y-40216547D01*
X105222619Y-40168928D01*
X105175000Y-40121309D01*
X105127380Y-40026071D01*
X105127380Y-39073690D02*
X105127380Y-38978452D01*
X105175000Y-38883214D01*
X105222619Y-38835595D01*
X105317857Y-38787976D01*
X105508333Y-38740357D01*
X105746428Y-38740357D01*
X105936904Y-38787976D01*
X106032142Y-38835595D01*
X106079761Y-38883214D01*
X106127380Y-38978452D01*
X106127380Y-39073690D01*
X106079761Y-39168928D01*
X106032142Y-39216547D01*
X105936904Y-39264166D01*
X105746428Y-39311785D01*
X105508333Y-39311785D01*
X105317857Y-39264166D01*
X105222619Y-39216547D01*
X105175000Y-39168928D01*
X105127380Y-39073690D01*
X105746428Y-38311785D02*
X105746428Y-37549880D01*
X105460714Y-37168928D02*
X106127380Y-36930833D01*
X105460714Y-36692738D01*
X106127380Y-35787976D02*
X106127380Y-36359404D01*
X106127380Y-36073690D02*
X105127380Y-36073690D01*
X105270238Y-36168928D01*
X105365476Y-36264166D01*
X105413095Y-36359404D01*
X107777380Y-39121309D02*
X106777380Y-39121309D01*
X107158333Y-39121309D02*
X107110714Y-39026071D01*
X107110714Y-38835595D01*
X107158333Y-38740357D01*
X107205952Y-38692738D01*
X107301190Y-38645119D01*
X107586904Y-38645119D01*
X107682142Y-38692738D01*
X107729761Y-38740357D01*
X107777380Y-38835595D01*
X107777380Y-39026071D01*
X107729761Y-39121309D01*
X107777380Y-38073690D02*
X107729761Y-38168928D01*
X107634523Y-38216547D01*
X106777380Y-38216547D01*
X107777380Y-37264166D02*
X107253571Y-37264166D01*
X107158333Y-37311785D01*
X107110714Y-37407023D01*
X107110714Y-37597500D01*
X107158333Y-37692738D01*
X107729761Y-37264166D02*
X107777380Y-37359404D01*
X107777380Y-37597500D01*
X107729761Y-37692738D01*
X107634523Y-37740357D01*
X107539285Y-37740357D01*
X107444047Y-37692738D01*
X107396428Y-37597500D01*
X107396428Y-37359404D01*
X107348809Y-37264166D01*
X107777380Y-36787976D02*
X107110714Y-36787976D01*
X107301190Y-36787976D02*
X107205952Y-36740357D01*
X107158333Y-36692738D01*
X107110714Y-36597500D01*
X107110714Y-36502261D01*
X107777380Y-36168928D02*
X106777380Y-36168928D01*
X107396428Y-36073690D02*
X107777380Y-35787976D01*
X107110714Y-35787976D02*
X107491666Y-36168928D01*
D12*
X87152714Y-75552857D02*
X87152714Y-74352857D01*
X87552714Y-75210000D01*
X87952714Y-74352857D01*
X87952714Y-75552857D01*
X88924142Y-74924285D02*
X89095571Y-74981428D01*
X89152714Y-75038571D01*
X89209857Y-75152857D01*
X89209857Y-75324285D01*
X89152714Y-75438571D01*
X89095571Y-75495714D01*
X88981285Y-75552857D01*
X88524142Y-75552857D01*
X88524142Y-74352857D01*
X88924142Y-74352857D01*
X89038428Y-74410000D01*
X89095571Y-74467142D01*
X89152714Y-74581428D01*
X89152714Y-74695714D01*
X89095571Y-74810000D01*
X89038428Y-74867142D01*
X88924142Y-74924285D01*
X88524142Y-74924285D01*
X91324142Y-75438571D02*
X91267000Y-75495714D01*
X91095571Y-75552857D01*
X90981285Y-75552857D01*
X90809857Y-75495714D01*
X90695571Y-75381428D01*
X90638428Y-75267142D01*
X90581285Y-75038571D01*
X90581285Y-74867142D01*
X90638428Y-74638571D01*
X90695571Y-74524285D01*
X90809857Y-74410000D01*
X90981285Y-74352857D01*
X91095571Y-74352857D01*
X91267000Y-74410000D01*
X91324142Y-74467142D01*
X91838428Y-75552857D02*
X91838428Y-74352857D01*
X92352714Y-75552857D02*
X92352714Y-74924285D01*
X92295571Y-74810000D01*
X92181285Y-74752857D01*
X92009857Y-74752857D01*
X91895571Y-74810000D01*
X91838428Y-74867142D01*
X92924142Y-75552857D02*
X92924142Y-74752857D01*
X92924142Y-74352857D02*
X92867000Y-74410000D01*
X92924142Y-74467142D01*
X92981285Y-74410000D01*
X92924142Y-74352857D01*
X92924142Y-74467142D01*
X93495571Y-74752857D02*
X93495571Y-75952857D01*
X93495571Y-74810000D02*
X93609857Y-74752857D01*
X93838428Y-74752857D01*
X93952714Y-74810000D01*
X94009857Y-74867142D01*
X94067000Y-74981428D01*
X94067000Y-75324285D01*
X94009857Y-75438571D01*
X93952714Y-75495714D01*
X93838428Y-75552857D01*
X93609857Y-75552857D01*
X93495571Y-75495714D01*
X96181285Y-75552857D02*
X95781285Y-74981428D01*
X95495571Y-75552857D02*
X95495571Y-74352857D01*
X95952714Y-74352857D01*
X96067000Y-74410000D01*
X96124142Y-74467142D01*
X96181285Y-74581428D01*
X96181285Y-74752857D01*
X96124142Y-74867142D01*
X96067000Y-74924285D01*
X95952714Y-74981428D01*
X95495571Y-74981428D01*
X97209857Y-75552857D02*
X97209857Y-74924285D01*
X97152714Y-74810000D01*
X97038428Y-74752857D01*
X96809857Y-74752857D01*
X96695571Y-74810000D01*
X97209857Y-75495714D02*
X97095571Y-75552857D01*
X96809857Y-75552857D01*
X96695571Y-75495714D01*
X96638428Y-75381428D01*
X96638428Y-75267142D01*
X96695571Y-75152857D01*
X96809857Y-75095714D01*
X97095571Y-75095714D01*
X97209857Y-75038571D01*
X97781285Y-75552857D02*
X97781285Y-74752857D01*
X97781285Y-74867142D02*
X97838428Y-74810000D01*
X97952714Y-74752857D01*
X98124142Y-74752857D01*
X98238428Y-74810000D01*
X98295571Y-74924285D01*
X98295571Y-75552857D01*
X98295571Y-74924285D02*
X98352714Y-74810000D01*
X98467000Y-74752857D01*
X98638428Y-74752857D01*
X98752714Y-74810000D01*
X98809857Y-74924285D01*
X98809857Y-75552857D01*
X87152714Y-76904285D02*
X87552714Y-76904285D01*
X87724142Y-77532857D02*
X87152714Y-77532857D01*
X87152714Y-76332857D01*
X87724142Y-76332857D01*
X88124142Y-77532857D02*
X88752714Y-76732857D01*
X88124142Y-76732857D02*
X88752714Y-77532857D01*
X89209857Y-76732857D02*
X89209857Y-77932857D01*
X89209857Y-76790000D02*
X89324142Y-76732857D01*
X89552714Y-76732857D01*
X89667000Y-76790000D01*
X89724142Y-76847142D01*
X89781285Y-76961428D01*
X89781285Y-77304285D01*
X89724142Y-77418571D01*
X89667000Y-77475714D01*
X89552714Y-77532857D01*
X89324142Y-77532857D01*
X89209857Y-77475714D01*
X90809857Y-77532857D02*
X90809857Y-76904285D01*
X90752714Y-76790000D01*
X90638428Y-76732857D01*
X90409857Y-76732857D01*
X90295571Y-76790000D01*
X90809857Y-77475714D02*
X90695571Y-77532857D01*
X90409857Y-77532857D01*
X90295571Y-77475714D01*
X90238428Y-77361428D01*
X90238428Y-77247142D01*
X90295571Y-77132857D01*
X90409857Y-77075714D01*
X90695571Y-77075714D01*
X90809857Y-77018571D01*
X91381285Y-76732857D02*
X91381285Y-77532857D01*
X91381285Y-76847142D02*
X91438428Y-76790000D01*
X91552714Y-76732857D01*
X91724142Y-76732857D01*
X91838428Y-76790000D01*
X91895571Y-76904285D01*
X91895571Y-77532857D01*
X92409857Y-77475714D02*
X92524142Y-77532857D01*
X92752714Y-77532857D01*
X92867000Y-77475714D01*
X92924142Y-77361428D01*
X92924142Y-77304285D01*
X92867000Y-77190000D01*
X92752714Y-77132857D01*
X92581285Y-77132857D01*
X92467000Y-77075714D01*
X92409857Y-76961428D01*
X92409857Y-76904285D01*
X92467000Y-76790000D01*
X92581285Y-76732857D01*
X92752714Y-76732857D01*
X92867000Y-76790000D01*
X93438428Y-77532857D02*
X93438428Y-76732857D01*
X93438428Y-76332857D02*
X93381285Y-76390000D01*
X93438428Y-76447142D01*
X93495571Y-76390000D01*
X93438428Y-76332857D01*
X93438428Y-76447142D01*
X94181285Y-77532857D02*
X94067000Y-77475714D01*
X94009857Y-77418571D01*
X93952714Y-77304285D01*
X93952714Y-76961428D01*
X94009857Y-76847142D01*
X94067000Y-76790000D01*
X94181285Y-76732857D01*
X94352714Y-76732857D01*
X94467000Y-76790000D01*
X94524142Y-76847142D01*
X94581285Y-76961428D01*
X94581285Y-77304285D01*
X94524142Y-77418571D01*
X94467000Y-77475714D01*
X94352714Y-77532857D01*
X94181285Y-77532857D01*
X95095571Y-76732857D02*
X95095571Y-77532857D01*
X95095571Y-76847142D02*
X95152714Y-76790000D01*
X95267000Y-76732857D01*
X95438428Y-76732857D01*
X95552714Y-76790000D01*
X95609857Y-76904285D01*
X95609857Y-77532857D01*
D11*
X84500000Y-79250000D02*
X87500000Y-79250000D01*
X86000000Y-72250000D02*
X86000000Y-79250000D01*
X84500000Y-73750000D02*
X86000000Y-72250000D01*
X84250000Y-79000000D02*
X87250000Y-79000000D01*
X85750000Y-72000000D02*
X85750000Y-79000000D01*
X84250000Y-73500000D02*
X85750000Y-72000000D01*
X84000000Y-78750000D02*
X87000000Y-78750000D01*
X85500000Y-71750000D02*
X85500000Y-78750000D01*
X84000000Y-73250000D02*
X85500000Y-71750000D01*
X83500000Y-81500000D02*
X84000000Y-81000000D01*
X84000000Y-82000000D02*
X83500000Y-81500000D01*
X85750000Y-83750000D02*
X84000000Y-82000000D01*
X88000000Y-81500000D02*
X85750000Y-83750000D01*
X87500000Y-81000000D02*
X88000000Y-81500000D01*
X85750000Y-82750000D02*
X87500000Y-81000000D01*
X84000000Y-81000000D02*
X85750000Y-82750000D01*
X76770000Y-84580000D02*
X76770000Y-33660000D01*
X76770000Y-33660000D02*
X74110000Y-33660000D01*
X74110000Y-33660000D02*
X74110000Y-84580000D01*
X74110000Y-84580000D02*
X76770000Y-84580000D01*
X74110000Y-83630000D02*
X68110000Y-83630000D01*
X68110000Y-83630000D02*
X68110000Y-82870000D01*
X68110000Y-82870000D02*
X74110000Y-82870000D01*
X74110000Y-83570000D02*
X68110000Y-83570000D01*
X74110000Y-83450000D02*
X68110000Y-83450000D01*
X74110000Y-83330000D02*
X68110000Y-83330000D01*
X74110000Y-83210000D02*
X68110000Y-83210000D01*
X74110000Y-83090000D02*
X68110000Y-83090000D01*
X74110000Y-82970000D02*
X68110000Y-82970000D01*
X77167071Y-83630000D02*
X76770000Y-83630000D01*
X77167071Y-82870000D02*
X76770000Y-82870000D01*
X79640000Y-83630000D02*
X79252929Y-83630000D01*
X79640000Y-82870000D02*
X79252929Y-82870000D01*
X76770000Y-81980000D02*
X74110000Y-81980000D01*
X74110000Y-81090000D02*
X68110000Y-81090000D01*
X68110000Y-81090000D02*
X68110000Y-80330000D01*
X68110000Y-80330000D02*
X74110000Y-80330000D01*
X77167071Y-81090000D02*
X76770000Y-81090000D01*
X77167071Y-80330000D02*
X76770000Y-80330000D01*
X79707071Y-81090000D02*
X79252929Y-81090000D01*
X79707071Y-80330000D02*
X79252929Y-80330000D01*
X76770000Y-79440000D02*
X74110000Y-79440000D01*
X74110000Y-78550000D02*
X68110000Y-78550000D01*
X68110000Y-78550000D02*
X68110000Y-77790000D01*
X68110000Y-77790000D02*
X74110000Y-77790000D01*
X77167071Y-78550000D02*
X76770000Y-78550000D01*
X77167071Y-77790000D02*
X76770000Y-77790000D01*
X79707071Y-78550000D02*
X79252929Y-78550000D01*
X79707071Y-77790000D02*
X79252929Y-77790000D01*
X76770000Y-76900000D02*
X74110000Y-76900000D01*
X74110000Y-76010000D02*
X68110000Y-76010000D01*
X68110000Y-76010000D02*
X68110000Y-75250000D01*
X68110000Y-75250000D02*
X74110000Y-75250000D01*
X77167071Y-76010000D02*
X76770000Y-76010000D01*
X77167071Y-75250000D02*
X76770000Y-75250000D01*
X79707071Y-76010000D02*
X79252929Y-76010000D01*
X79707071Y-75250000D02*
X79252929Y-75250000D01*
X76770000Y-74360000D02*
X74110000Y-74360000D01*
X74110000Y-73470000D02*
X68110000Y-73470000D01*
X68110000Y-73470000D02*
X68110000Y-72710000D01*
X68110000Y-72710000D02*
X74110000Y-72710000D01*
X77167071Y-73470000D02*
X76770000Y-73470000D01*
X77167071Y-72710000D02*
X76770000Y-72710000D01*
X79707071Y-73470000D02*
X79252929Y-73470000D01*
X79707071Y-72710000D02*
X79252929Y-72710000D01*
X76770000Y-71820000D02*
X74110000Y-71820000D01*
X74110000Y-70930000D02*
X68110000Y-70930000D01*
X68110000Y-70930000D02*
X68110000Y-70170000D01*
X68110000Y-70170000D02*
X74110000Y-70170000D01*
X77167071Y-70930000D02*
X76770000Y-70930000D01*
X77167071Y-70170000D02*
X76770000Y-70170000D01*
X79707071Y-70930000D02*
X79252929Y-70930000D01*
X79707071Y-70170000D02*
X79252929Y-70170000D01*
X76770000Y-69280000D02*
X74110000Y-69280000D01*
X74110000Y-68390000D02*
X68110000Y-68390000D01*
X68110000Y-68390000D02*
X68110000Y-67630000D01*
X68110000Y-67630000D02*
X74110000Y-67630000D01*
X77167071Y-68390000D02*
X76770000Y-68390000D01*
X77167071Y-67630000D02*
X76770000Y-67630000D01*
X79707071Y-68390000D02*
X79252929Y-68390000D01*
X79707071Y-67630000D02*
X79252929Y-67630000D01*
X76770000Y-66740000D02*
X74110000Y-66740000D01*
X74110000Y-65850000D02*
X68110000Y-65850000D01*
X68110000Y-65850000D02*
X68110000Y-65090000D01*
X68110000Y-65090000D02*
X74110000Y-65090000D01*
X77167071Y-65850000D02*
X76770000Y-65850000D01*
X77167071Y-65090000D02*
X76770000Y-65090000D01*
X79707071Y-65850000D02*
X79252929Y-65850000D01*
X79707071Y-65090000D02*
X79252929Y-65090000D01*
X76770000Y-64200000D02*
X74110000Y-64200000D01*
X74110000Y-63310000D02*
X68110000Y-63310000D01*
X68110000Y-63310000D02*
X68110000Y-62550000D01*
X68110000Y-62550000D02*
X74110000Y-62550000D01*
X77167071Y-63310000D02*
X76770000Y-63310000D01*
X77167071Y-62550000D02*
X76770000Y-62550000D01*
X79707071Y-63310000D02*
X79252929Y-63310000D01*
X79707071Y-62550000D02*
X79252929Y-62550000D01*
X76770000Y-61660000D02*
X74110000Y-61660000D01*
X74110000Y-60770000D02*
X68110000Y-60770000D01*
X68110000Y-60770000D02*
X68110000Y-60010000D01*
X68110000Y-60010000D02*
X74110000Y-60010000D01*
X77167071Y-60770000D02*
X76770000Y-60770000D01*
X77167071Y-60010000D02*
X76770000Y-60010000D01*
X79707071Y-60770000D02*
X79252929Y-60770000D01*
X79707071Y-60010000D02*
X79252929Y-60010000D01*
X76770000Y-59120000D02*
X74110000Y-59120000D01*
X74110000Y-58230000D02*
X68110000Y-58230000D01*
X68110000Y-58230000D02*
X68110000Y-57470000D01*
X68110000Y-57470000D02*
X74110000Y-57470000D01*
X77167071Y-58230000D02*
X76770000Y-58230000D01*
X77167071Y-57470000D02*
X76770000Y-57470000D01*
X79707071Y-58230000D02*
X79252929Y-58230000D01*
X79707071Y-57470000D02*
X79252929Y-57470000D01*
X76770000Y-56580000D02*
X74110000Y-56580000D01*
X74110000Y-55690000D02*
X68110000Y-55690000D01*
X68110000Y-55690000D02*
X68110000Y-54930000D01*
X68110000Y-54930000D02*
X74110000Y-54930000D01*
X77167071Y-55690000D02*
X76770000Y-55690000D01*
X77167071Y-54930000D02*
X76770000Y-54930000D01*
X79707071Y-55690000D02*
X79252929Y-55690000D01*
X79707071Y-54930000D02*
X79252929Y-54930000D01*
X76770000Y-54040000D02*
X74110000Y-54040000D01*
X74110000Y-53150000D02*
X68110000Y-53150000D01*
X68110000Y-53150000D02*
X68110000Y-52390000D01*
X68110000Y-52390000D02*
X74110000Y-52390000D01*
X77167071Y-53150000D02*
X76770000Y-53150000D01*
X77167071Y-52390000D02*
X76770000Y-52390000D01*
X79707071Y-53150000D02*
X79252929Y-53150000D01*
X79707071Y-52390000D02*
X79252929Y-52390000D01*
X76770000Y-51500000D02*
X74110000Y-51500000D01*
X74110000Y-50610000D02*
X68110000Y-50610000D01*
X68110000Y-50610000D02*
X68110000Y-49850000D01*
X68110000Y-49850000D02*
X74110000Y-49850000D01*
X77167071Y-50610000D02*
X76770000Y-50610000D01*
X77167071Y-49850000D02*
X76770000Y-49850000D01*
X79707071Y-50610000D02*
X79252929Y-50610000D01*
X79707071Y-49850000D02*
X79252929Y-49850000D01*
X76770000Y-48960000D02*
X74110000Y-48960000D01*
X74110000Y-48070000D02*
X68110000Y-48070000D01*
X68110000Y-48070000D02*
X68110000Y-47310000D01*
X68110000Y-47310000D02*
X74110000Y-47310000D01*
X77167071Y-48070000D02*
X76770000Y-48070000D01*
X77167071Y-47310000D02*
X76770000Y-47310000D01*
X79707071Y-48070000D02*
X79252929Y-48070000D01*
X79707071Y-47310000D02*
X79252929Y-47310000D01*
X76770000Y-46420000D02*
X74110000Y-46420000D01*
X74110000Y-45530000D02*
X68110000Y-45530000D01*
X68110000Y-45530000D02*
X68110000Y-44770000D01*
X68110000Y-44770000D02*
X74110000Y-44770000D01*
X77167071Y-45530000D02*
X76770000Y-45530000D01*
X77167071Y-44770000D02*
X76770000Y-44770000D01*
X79707071Y-45530000D02*
X79252929Y-45530000D01*
X79707071Y-44770000D02*
X79252929Y-44770000D01*
X76770000Y-43880000D02*
X74110000Y-43880000D01*
X74110000Y-42990000D02*
X68110000Y-42990000D01*
X68110000Y-42990000D02*
X68110000Y-42230000D01*
X68110000Y-42230000D02*
X74110000Y-42230000D01*
X77167071Y-42990000D02*
X76770000Y-42990000D01*
X77167071Y-42230000D02*
X76770000Y-42230000D01*
X79707071Y-42990000D02*
X79252929Y-42990000D01*
X79707071Y-42230000D02*
X79252929Y-42230000D01*
X76770000Y-41340000D02*
X74110000Y-41340000D01*
X74110000Y-40450000D02*
X68110000Y-40450000D01*
X68110000Y-40450000D02*
X68110000Y-39690000D01*
X68110000Y-39690000D02*
X74110000Y-39690000D01*
X77167071Y-40450000D02*
X76770000Y-40450000D01*
X77167071Y-39690000D02*
X76770000Y-39690000D01*
X79707071Y-40450000D02*
X79252929Y-40450000D01*
X79707071Y-39690000D02*
X79252929Y-39690000D01*
X76770000Y-38800000D02*
X74110000Y-38800000D01*
X74110000Y-37910000D02*
X68110000Y-37910000D01*
X68110000Y-37910000D02*
X68110000Y-37150000D01*
X68110000Y-37150000D02*
X74110000Y-37150000D01*
X77167071Y-37910000D02*
X76770000Y-37910000D01*
X77167071Y-37150000D02*
X76770000Y-37150000D01*
X79707071Y-37910000D02*
X79252929Y-37910000D01*
X79707071Y-37150000D02*
X79252929Y-37150000D01*
X76770000Y-36260000D02*
X74110000Y-36260000D01*
X74110000Y-35370000D02*
X68110000Y-35370000D01*
X68110000Y-35370000D02*
X68110000Y-34610000D01*
X68110000Y-34610000D02*
X74110000Y-34610000D01*
X77167071Y-35370000D02*
X76770000Y-35370000D01*
X77167071Y-34610000D02*
X76770000Y-34610000D01*
X79707071Y-35370000D02*
X79252929Y-35370000D01*
X79707071Y-34610000D02*
X79252929Y-34610000D01*
X82020000Y-83250000D02*
X82020000Y-84520000D01*
X82020000Y-84520000D02*
X80750000Y-84520000D01*
X90696267Y-69690000D02*
X90353733Y-69690000D01*
X90696267Y-70710000D02*
X90353733Y-70710000D01*
X87071267Y-62890000D02*
X86728733Y-62890000D01*
X87071267Y-63910000D02*
X86728733Y-63910000D01*
X106053733Y-51110000D02*
X106396267Y-51110000D01*
X106053733Y-50090000D02*
X106396267Y-50090000D01*
X106053733Y-63810000D02*
X106396267Y-63810000D01*
X106053733Y-62790000D02*
X106396267Y-62790000D01*
X101690000Y-70853733D02*
X101690000Y-71196267D01*
X102710000Y-70853733D02*
X102710000Y-71196267D01*
X101690000Y-67935000D02*
X102850000Y-67935000D01*
X101690000Y-68315000D02*
X101690000Y-67935000D01*
X96500000Y-68315000D02*
X101690000Y-68315000D01*
X91310000Y-68315000D02*
X91310000Y-67935000D01*
X96500000Y-68315000D02*
X91310000Y-68315000D01*
X101690000Y-49685000D02*
X101690000Y-50065000D01*
X96500000Y-49685000D02*
X101690000Y-49685000D01*
X91310000Y-49685000D02*
X91310000Y-50065000D01*
X96500000Y-49685000D02*
X91310000Y-49685000D01*
X90980000Y-34980000D02*
X92250000Y-34980000D01*
X90980000Y-36250000D02*
X90980000Y-34980000D01*
X93292929Y-39170000D02*
X93690000Y-39170000D01*
X93292929Y-38410000D02*
X93690000Y-38410000D01*
X102350000Y-39170000D02*
X96350000Y-39170000D01*
X102350000Y-38410000D02*
X102350000Y-39170000D01*
X96350000Y-38410000D02*
X102350000Y-38410000D01*
X93690000Y-37520000D02*
X96350000Y-37520000D01*
X93360000Y-36630000D02*
X93690000Y-36630000D01*
X93360000Y-35870000D02*
X93690000Y-35870000D01*
X96350000Y-36530000D02*
X102350000Y-36530000D01*
X96350000Y-36410000D02*
X102350000Y-36410000D01*
X96350000Y-36290000D02*
X102350000Y-36290000D01*
X96350000Y-36170000D02*
X102350000Y-36170000D01*
X96350000Y-36050000D02*
X102350000Y-36050000D01*
X96350000Y-35930000D02*
X102350000Y-35930000D01*
X102350000Y-36630000D02*
X96350000Y-36630000D01*
X102350000Y-35870000D02*
X102350000Y-36630000D01*
X96350000Y-35870000D02*
X102350000Y-35870000D01*
X96350000Y-34920000D02*
X93690000Y-34920000D01*
X96350000Y-40120000D02*
X96350000Y-34920000D01*
X93690000Y-40120000D02*
X96350000Y-40120000D01*
X93690000Y-34920000D02*
X93690000Y-40120000D01*
D10*
X74761666Y-84972380D02*
X74761666Y-85686666D01*
X74714047Y-85829523D01*
X74618809Y-85924761D01*
X74475952Y-85972380D01*
X74380714Y-85972380D01*
X75761666Y-85972380D02*
X75190238Y-85972380D01*
X75475952Y-85972380D02*
X75475952Y-84972380D01*
X75380714Y-85115238D01*
X75285476Y-85210476D01*
X75190238Y-85258095D01*
X90809523Y-48292380D02*
X91476190Y-49292380D01*
X91476190Y-48292380D02*
X90809523Y-49292380D01*
X92428571Y-49292380D02*
X92095238Y-48816190D01*
X91857142Y-49292380D02*
X91857142Y-48292380D01*
X92238095Y-48292380D01*
X92333333Y-48340000D01*
X92380952Y-48387619D01*
X92428571Y-48482857D01*
X92428571Y-48625714D01*
X92380952Y-48720952D01*
X92333333Y-48768571D01*
X92238095Y-48816190D01*
X91857142Y-48816190D01*
X92809523Y-49006666D02*
X93285714Y-49006666D01*
X92714285Y-49292380D02*
X93047619Y-48292380D01*
X93380952Y-49292380D01*
X93666666Y-49244761D02*
X93809523Y-49292380D01*
X94047619Y-49292380D01*
X94142857Y-49244761D01*
X94190476Y-49197142D01*
X94238095Y-49101904D01*
X94238095Y-49006666D01*
X94190476Y-48911428D01*
X94142857Y-48863809D01*
X94047619Y-48816190D01*
X93857142Y-48768571D01*
X93761904Y-48720952D01*
X93714285Y-48673333D01*
X93666666Y-48578095D01*
X93666666Y-48482857D01*
X93714285Y-48387619D01*
X93761904Y-48340000D01*
X93857142Y-48292380D01*
X94095238Y-48292380D01*
X94238095Y-48340000D01*
X94952380Y-49673333D02*
X94904761Y-49625714D01*
X94809523Y-49482857D01*
X94761904Y-49387619D01*
X94714285Y-49244761D01*
X94666666Y-49006666D01*
X94666666Y-48816190D01*
X94714285Y-48578095D01*
X94761904Y-48435238D01*
X94809523Y-48340000D01*
X94904761Y-48197142D01*
X94952380Y-48149523D01*
X95523809Y-48292380D02*
X95619047Y-48292380D01*
X95714285Y-48340000D01*
X95761904Y-48387619D01*
X95809523Y-48482857D01*
X95857142Y-48673333D01*
X95857142Y-48911428D01*
X95809523Y-49101904D01*
X95761904Y-49197142D01*
X95714285Y-49244761D01*
X95619047Y-49292380D01*
X95523809Y-49292380D01*
X95428571Y-49244761D01*
X95380952Y-49197142D01*
X95333333Y-49101904D01*
X95285714Y-48911428D01*
X95285714Y-48673333D01*
X95333333Y-48482857D01*
X95380952Y-48387619D01*
X95428571Y-48340000D01*
X95523809Y-48292380D01*
X96190476Y-49673333D02*
X96238095Y-49625714D01*
X96333333Y-49482857D01*
X96380952Y-49387619D01*
X96428571Y-49244761D01*
X96476190Y-49006666D01*
X96476190Y-48816190D01*
X96428571Y-48578095D01*
X96380952Y-48435238D01*
X96333333Y-48340000D01*
X96238095Y-48197142D01*
X96190476Y-48149523D01*
X98190476Y-48292380D02*
X97714285Y-48292380D01*
X97666666Y-48768571D01*
X97714285Y-48720952D01*
X97809523Y-48673333D01*
X98047619Y-48673333D01*
X98142857Y-48720952D01*
X98190476Y-48768571D01*
X98238095Y-48863809D01*
X98238095Y-49101904D01*
X98190476Y-49197142D01*
X98142857Y-49244761D01*
X98047619Y-49292380D01*
X97809523Y-49292380D01*
X97714285Y-49244761D01*
X97666666Y-49197142D01*
X99190476Y-49292380D02*
X98619047Y-49292380D01*
X98904761Y-49292380D02*
X98904761Y-48292380D01*
X98809523Y-48435238D01*
X98714285Y-48530476D01*
X98619047Y-48578095D01*
X99571428Y-48387619D02*
X99619047Y-48340000D01*
X99714285Y-48292380D01*
X99952380Y-48292380D01*
X100047619Y-48340000D01*
X100095238Y-48387619D01*
X100142857Y-48482857D01*
X100142857Y-48578095D01*
X100095238Y-48720952D01*
X99523809Y-49292380D01*
X100142857Y-49292380D01*
X100571428Y-49292380D02*
X100571428Y-48292380D01*
X101142857Y-49292380D02*
X100714285Y-48720952D01*
X101142857Y-48292380D02*
X100571428Y-48863809D01*
X101904761Y-48768571D02*
X102047619Y-48816190D01*
X102095238Y-48863809D01*
X102142857Y-48959047D01*
X102142857Y-49101904D01*
X102095238Y-49197142D01*
X102047619Y-49244761D01*
X101952380Y-49292380D01*
X101571428Y-49292380D01*
X101571428Y-48292380D01*
X101904761Y-48292380D01*
X102000000Y-48340000D01*
X102047619Y-48387619D01*
X102095238Y-48482857D01*
X102095238Y-48578095D01*
X102047619Y-48673333D01*
X102000000Y-48720952D01*
X101904761Y-48768571D01*
X101571428Y-48768571D01*
X95896904Y-40988571D02*
X96230238Y-40988571D01*
X96373095Y-41512380D02*
X95896904Y-41512380D01*
X95896904Y-40512380D01*
X96373095Y-40512380D01*
X96801666Y-41512380D02*
X96801666Y-40512380D01*
X97373095Y-41512380D01*
X97373095Y-40512380D01*
M02*
