G04 #@! TF.GenerationSoftware,KiCad,Pcbnew,(5.1.4-0-10_14)*
G04 #@! TF.CreationDate,2019-11-29T22:31:08-05:00*
G04 #@! TF.ProjectId,a500plus-chipram-expansion,61353030-706c-4757-932d-636869707261,rev?*
G04 #@! TF.SameCoordinates,Original*
G04 #@! TF.FileFunction,Paste,Bot*
G04 #@! TF.FilePolarity,Positive*
%FSLAX46Y46*%
G04 Gerber Fmt 4.6, Leading zero omitted, Abs format (unit mm)*
G04 Created by KiCad (PCBNEW (5.1.4-0-10_14)) date 2019-11-29 22:31:08*
%MOMM*%
%LPD*%
G04 APERTURE LIST*
%ADD10C,0.100000*%
%ADD11C,0.950000*%
%ADD12C,0.550000*%
G04 APERTURE END LIST*
D10*
G36*
X88660779Y-47426144D02*
G01*
X88683834Y-47429563D01*
X88706443Y-47435227D01*
X88728387Y-47443079D01*
X88749457Y-47453044D01*
X88769448Y-47465026D01*
X88788168Y-47478910D01*
X88805438Y-47494562D01*
X88821090Y-47511832D01*
X88834974Y-47530552D01*
X88846956Y-47550543D01*
X88856921Y-47571613D01*
X88864773Y-47593557D01*
X88870437Y-47616166D01*
X88873856Y-47639221D01*
X88875000Y-47662500D01*
X88875000Y-48137500D01*
X88873856Y-48160779D01*
X88870437Y-48183834D01*
X88864773Y-48206443D01*
X88856921Y-48228387D01*
X88846956Y-48249457D01*
X88834974Y-48269448D01*
X88821090Y-48288168D01*
X88805438Y-48305438D01*
X88788168Y-48321090D01*
X88769448Y-48334974D01*
X88749457Y-48346956D01*
X88728387Y-48356921D01*
X88706443Y-48364773D01*
X88683834Y-48370437D01*
X88660779Y-48373856D01*
X88637500Y-48375000D01*
X88062500Y-48375000D01*
X88039221Y-48373856D01*
X88016166Y-48370437D01*
X87993557Y-48364773D01*
X87971613Y-48356921D01*
X87950543Y-48346956D01*
X87930552Y-48334974D01*
X87911832Y-48321090D01*
X87894562Y-48305438D01*
X87878910Y-48288168D01*
X87865026Y-48269448D01*
X87853044Y-48249457D01*
X87843079Y-48228387D01*
X87835227Y-48206443D01*
X87829563Y-48183834D01*
X87826144Y-48160779D01*
X87825000Y-48137500D01*
X87825000Y-47662500D01*
X87826144Y-47639221D01*
X87829563Y-47616166D01*
X87835227Y-47593557D01*
X87843079Y-47571613D01*
X87853044Y-47550543D01*
X87865026Y-47530552D01*
X87878910Y-47511832D01*
X87894562Y-47494562D01*
X87911832Y-47478910D01*
X87930552Y-47465026D01*
X87950543Y-47453044D01*
X87971613Y-47443079D01*
X87993557Y-47435227D01*
X88016166Y-47429563D01*
X88039221Y-47426144D01*
X88062500Y-47425000D01*
X88637500Y-47425000D01*
X88660779Y-47426144D01*
X88660779Y-47426144D01*
G37*
D11*
X88350000Y-47900000D03*
D10*
G36*
X90410779Y-47426144D02*
G01*
X90433834Y-47429563D01*
X90456443Y-47435227D01*
X90478387Y-47443079D01*
X90499457Y-47453044D01*
X90519448Y-47465026D01*
X90538168Y-47478910D01*
X90555438Y-47494562D01*
X90571090Y-47511832D01*
X90584974Y-47530552D01*
X90596956Y-47550543D01*
X90606921Y-47571613D01*
X90614773Y-47593557D01*
X90620437Y-47616166D01*
X90623856Y-47639221D01*
X90625000Y-47662500D01*
X90625000Y-48137500D01*
X90623856Y-48160779D01*
X90620437Y-48183834D01*
X90614773Y-48206443D01*
X90606921Y-48228387D01*
X90596956Y-48249457D01*
X90584974Y-48269448D01*
X90571090Y-48288168D01*
X90555438Y-48305438D01*
X90538168Y-48321090D01*
X90519448Y-48334974D01*
X90499457Y-48346956D01*
X90478387Y-48356921D01*
X90456443Y-48364773D01*
X90433834Y-48370437D01*
X90410779Y-48373856D01*
X90387500Y-48375000D01*
X89812500Y-48375000D01*
X89789221Y-48373856D01*
X89766166Y-48370437D01*
X89743557Y-48364773D01*
X89721613Y-48356921D01*
X89700543Y-48346956D01*
X89680552Y-48334974D01*
X89661832Y-48321090D01*
X89644562Y-48305438D01*
X89628910Y-48288168D01*
X89615026Y-48269448D01*
X89603044Y-48249457D01*
X89593079Y-48228387D01*
X89585227Y-48206443D01*
X89579563Y-48183834D01*
X89576144Y-48160779D01*
X89575000Y-48137500D01*
X89575000Y-47662500D01*
X89576144Y-47639221D01*
X89579563Y-47616166D01*
X89585227Y-47593557D01*
X89593079Y-47571613D01*
X89603044Y-47550543D01*
X89615026Y-47530552D01*
X89628910Y-47511832D01*
X89644562Y-47494562D01*
X89661832Y-47478910D01*
X89680552Y-47465026D01*
X89700543Y-47453044D01*
X89721613Y-47443079D01*
X89743557Y-47435227D01*
X89766166Y-47429563D01*
X89789221Y-47426144D01*
X89812500Y-47425000D01*
X90387500Y-47425000D01*
X90410779Y-47426144D01*
X90410779Y-47426144D01*
G37*
D11*
X90100000Y-47900000D03*
D10*
G36*
X102713477Y-67125662D02*
G01*
X102726825Y-67127642D01*
X102739914Y-67130921D01*
X102752619Y-67135467D01*
X102764817Y-67141236D01*
X102776391Y-67148173D01*
X102787229Y-67156211D01*
X102797227Y-67165273D01*
X102806289Y-67175271D01*
X102814327Y-67186109D01*
X102821264Y-67197683D01*
X102827033Y-67209881D01*
X102831579Y-67222586D01*
X102834858Y-67235675D01*
X102836838Y-67249023D01*
X102837500Y-67262500D01*
X102837500Y-67537500D01*
X102836838Y-67550977D01*
X102834858Y-67564325D01*
X102831579Y-67577414D01*
X102827033Y-67590119D01*
X102821264Y-67602317D01*
X102814327Y-67613891D01*
X102806289Y-67624729D01*
X102797227Y-67634727D01*
X102787229Y-67643789D01*
X102776391Y-67651827D01*
X102764817Y-67658764D01*
X102752619Y-67664533D01*
X102739914Y-67669079D01*
X102726825Y-67672358D01*
X102713477Y-67674338D01*
X102700000Y-67675000D01*
X101450000Y-67675000D01*
X101436523Y-67674338D01*
X101423175Y-67672358D01*
X101410086Y-67669079D01*
X101397381Y-67664533D01*
X101385183Y-67658764D01*
X101373609Y-67651827D01*
X101362771Y-67643789D01*
X101352773Y-67634727D01*
X101343711Y-67624729D01*
X101335673Y-67613891D01*
X101328736Y-67602317D01*
X101322967Y-67590119D01*
X101318421Y-67577414D01*
X101315142Y-67564325D01*
X101313162Y-67550977D01*
X101312500Y-67537500D01*
X101312500Y-67262500D01*
X101313162Y-67249023D01*
X101315142Y-67235675D01*
X101318421Y-67222586D01*
X101322967Y-67209881D01*
X101328736Y-67197683D01*
X101335673Y-67186109D01*
X101343711Y-67175271D01*
X101352773Y-67165273D01*
X101362771Y-67156211D01*
X101373609Y-67148173D01*
X101385183Y-67141236D01*
X101397381Y-67135467D01*
X101410086Y-67130921D01*
X101423175Y-67127642D01*
X101436523Y-67125662D01*
X101450000Y-67125000D01*
X102700000Y-67125000D01*
X102713477Y-67125662D01*
X102713477Y-67125662D01*
G37*
D12*
X102075000Y-67400000D03*
D10*
G36*
X102713477Y-66325662D02*
G01*
X102726825Y-66327642D01*
X102739914Y-66330921D01*
X102752619Y-66335467D01*
X102764817Y-66341236D01*
X102776391Y-66348173D01*
X102787229Y-66356211D01*
X102797227Y-66365273D01*
X102806289Y-66375271D01*
X102814327Y-66386109D01*
X102821264Y-66397683D01*
X102827033Y-66409881D01*
X102831579Y-66422586D01*
X102834858Y-66435675D01*
X102836838Y-66449023D01*
X102837500Y-66462500D01*
X102837500Y-66737500D01*
X102836838Y-66750977D01*
X102834858Y-66764325D01*
X102831579Y-66777414D01*
X102827033Y-66790119D01*
X102821264Y-66802317D01*
X102814327Y-66813891D01*
X102806289Y-66824729D01*
X102797227Y-66834727D01*
X102787229Y-66843789D01*
X102776391Y-66851827D01*
X102764817Y-66858764D01*
X102752619Y-66864533D01*
X102739914Y-66869079D01*
X102726825Y-66872358D01*
X102713477Y-66874338D01*
X102700000Y-66875000D01*
X101450000Y-66875000D01*
X101436523Y-66874338D01*
X101423175Y-66872358D01*
X101410086Y-66869079D01*
X101397381Y-66864533D01*
X101385183Y-66858764D01*
X101373609Y-66851827D01*
X101362771Y-66843789D01*
X101352773Y-66834727D01*
X101343711Y-66824729D01*
X101335673Y-66813891D01*
X101328736Y-66802317D01*
X101322967Y-66790119D01*
X101318421Y-66777414D01*
X101315142Y-66764325D01*
X101313162Y-66750977D01*
X101312500Y-66737500D01*
X101312500Y-66462500D01*
X101313162Y-66449023D01*
X101315142Y-66435675D01*
X101318421Y-66422586D01*
X101322967Y-66409881D01*
X101328736Y-66397683D01*
X101335673Y-66386109D01*
X101343711Y-66375271D01*
X101352773Y-66365273D01*
X101362771Y-66356211D01*
X101373609Y-66348173D01*
X101385183Y-66341236D01*
X101397381Y-66335467D01*
X101410086Y-66330921D01*
X101423175Y-66327642D01*
X101436523Y-66325662D01*
X101450000Y-66325000D01*
X102700000Y-66325000D01*
X102713477Y-66325662D01*
X102713477Y-66325662D01*
G37*
D12*
X102075000Y-66600000D03*
D10*
G36*
X102713477Y-65525662D02*
G01*
X102726825Y-65527642D01*
X102739914Y-65530921D01*
X102752619Y-65535467D01*
X102764817Y-65541236D01*
X102776391Y-65548173D01*
X102787229Y-65556211D01*
X102797227Y-65565273D01*
X102806289Y-65575271D01*
X102814327Y-65586109D01*
X102821264Y-65597683D01*
X102827033Y-65609881D01*
X102831579Y-65622586D01*
X102834858Y-65635675D01*
X102836838Y-65649023D01*
X102837500Y-65662500D01*
X102837500Y-65937500D01*
X102836838Y-65950977D01*
X102834858Y-65964325D01*
X102831579Y-65977414D01*
X102827033Y-65990119D01*
X102821264Y-66002317D01*
X102814327Y-66013891D01*
X102806289Y-66024729D01*
X102797227Y-66034727D01*
X102787229Y-66043789D01*
X102776391Y-66051827D01*
X102764817Y-66058764D01*
X102752619Y-66064533D01*
X102739914Y-66069079D01*
X102726825Y-66072358D01*
X102713477Y-66074338D01*
X102700000Y-66075000D01*
X101450000Y-66075000D01*
X101436523Y-66074338D01*
X101423175Y-66072358D01*
X101410086Y-66069079D01*
X101397381Y-66064533D01*
X101385183Y-66058764D01*
X101373609Y-66051827D01*
X101362771Y-66043789D01*
X101352773Y-66034727D01*
X101343711Y-66024729D01*
X101335673Y-66013891D01*
X101328736Y-66002317D01*
X101322967Y-65990119D01*
X101318421Y-65977414D01*
X101315142Y-65964325D01*
X101313162Y-65950977D01*
X101312500Y-65937500D01*
X101312500Y-65662500D01*
X101313162Y-65649023D01*
X101315142Y-65635675D01*
X101318421Y-65622586D01*
X101322967Y-65609881D01*
X101328736Y-65597683D01*
X101335673Y-65586109D01*
X101343711Y-65575271D01*
X101352773Y-65565273D01*
X101362771Y-65556211D01*
X101373609Y-65548173D01*
X101385183Y-65541236D01*
X101397381Y-65535467D01*
X101410086Y-65530921D01*
X101423175Y-65527642D01*
X101436523Y-65525662D01*
X101450000Y-65525000D01*
X102700000Y-65525000D01*
X102713477Y-65525662D01*
X102713477Y-65525662D01*
G37*
D12*
X102075000Y-65800000D03*
D10*
G36*
X102713477Y-64725662D02*
G01*
X102726825Y-64727642D01*
X102739914Y-64730921D01*
X102752619Y-64735467D01*
X102764817Y-64741236D01*
X102776391Y-64748173D01*
X102787229Y-64756211D01*
X102797227Y-64765273D01*
X102806289Y-64775271D01*
X102814327Y-64786109D01*
X102821264Y-64797683D01*
X102827033Y-64809881D01*
X102831579Y-64822586D01*
X102834858Y-64835675D01*
X102836838Y-64849023D01*
X102837500Y-64862500D01*
X102837500Y-65137500D01*
X102836838Y-65150977D01*
X102834858Y-65164325D01*
X102831579Y-65177414D01*
X102827033Y-65190119D01*
X102821264Y-65202317D01*
X102814327Y-65213891D01*
X102806289Y-65224729D01*
X102797227Y-65234727D01*
X102787229Y-65243789D01*
X102776391Y-65251827D01*
X102764817Y-65258764D01*
X102752619Y-65264533D01*
X102739914Y-65269079D01*
X102726825Y-65272358D01*
X102713477Y-65274338D01*
X102700000Y-65275000D01*
X101450000Y-65275000D01*
X101436523Y-65274338D01*
X101423175Y-65272358D01*
X101410086Y-65269079D01*
X101397381Y-65264533D01*
X101385183Y-65258764D01*
X101373609Y-65251827D01*
X101362771Y-65243789D01*
X101352773Y-65234727D01*
X101343711Y-65224729D01*
X101335673Y-65213891D01*
X101328736Y-65202317D01*
X101322967Y-65190119D01*
X101318421Y-65177414D01*
X101315142Y-65164325D01*
X101313162Y-65150977D01*
X101312500Y-65137500D01*
X101312500Y-64862500D01*
X101313162Y-64849023D01*
X101315142Y-64835675D01*
X101318421Y-64822586D01*
X101322967Y-64809881D01*
X101328736Y-64797683D01*
X101335673Y-64786109D01*
X101343711Y-64775271D01*
X101352773Y-64765273D01*
X101362771Y-64756211D01*
X101373609Y-64748173D01*
X101385183Y-64741236D01*
X101397381Y-64735467D01*
X101410086Y-64730921D01*
X101423175Y-64727642D01*
X101436523Y-64725662D01*
X101450000Y-64725000D01*
X102700000Y-64725000D01*
X102713477Y-64725662D01*
X102713477Y-64725662D01*
G37*
D12*
X102075000Y-65000000D03*
D10*
G36*
X102713477Y-63925662D02*
G01*
X102726825Y-63927642D01*
X102739914Y-63930921D01*
X102752619Y-63935467D01*
X102764817Y-63941236D01*
X102776391Y-63948173D01*
X102787229Y-63956211D01*
X102797227Y-63965273D01*
X102806289Y-63975271D01*
X102814327Y-63986109D01*
X102821264Y-63997683D01*
X102827033Y-64009881D01*
X102831579Y-64022586D01*
X102834858Y-64035675D01*
X102836838Y-64049023D01*
X102837500Y-64062500D01*
X102837500Y-64337500D01*
X102836838Y-64350977D01*
X102834858Y-64364325D01*
X102831579Y-64377414D01*
X102827033Y-64390119D01*
X102821264Y-64402317D01*
X102814327Y-64413891D01*
X102806289Y-64424729D01*
X102797227Y-64434727D01*
X102787229Y-64443789D01*
X102776391Y-64451827D01*
X102764817Y-64458764D01*
X102752619Y-64464533D01*
X102739914Y-64469079D01*
X102726825Y-64472358D01*
X102713477Y-64474338D01*
X102700000Y-64475000D01*
X101450000Y-64475000D01*
X101436523Y-64474338D01*
X101423175Y-64472358D01*
X101410086Y-64469079D01*
X101397381Y-64464533D01*
X101385183Y-64458764D01*
X101373609Y-64451827D01*
X101362771Y-64443789D01*
X101352773Y-64434727D01*
X101343711Y-64424729D01*
X101335673Y-64413891D01*
X101328736Y-64402317D01*
X101322967Y-64390119D01*
X101318421Y-64377414D01*
X101315142Y-64364325D01*
X101313162Y-64350977D01*
X101312500Y-64337500D01*
X101312500Y-64062500D01*
X101313162Y-64049023D01*
X101315142Y-64035675D01*
X101318421Y-64022586D01*
X101322967Y-64009881D01*
X101328736Y-63997683D01*
X101335673Y-63986109D01*
X101343711Y-63975271D01*
X101352773Y-63965273D01*
X101362771Y-63956211D01*
X101373609Y-63948173D01*
X101385183Y-63941236D01*
X101397381Y-63935467D01*
X101410086Y-63930921D01*
X101423175Y-63927642D01*
X101436523Y-63925662D01*
X101450000Y-63925000D01*
X102700000Y-63925000D01*
X102713477Y-63925662D01*
X102713477Y-63925662D01*
G37*
D12*
X102075000Y-64200000D03*
D10*
G36*
X102713477Y-63125662D02*
G01*
X102726825Y-63127642D01*
X102739914Y-63130921D01*
X102752619Y-63135467D01*
X102764817Y-63141236D01*
X102776391Y-63148173D01*
X102787229Y-63156211D01*
X102797227Y-63165273D01*
X102806289Y-63175271D01*
X102814327Y-63186109D01*
X102821264Y-63197683D01*
X102827033Y-63209881D01*
X102831579Y-63222586D01*
X102834858Y-63235675D01*
X102836838Y-63249023D01*
X102837500Y-63262500D01*
X102837500Y-63537500D01*
X102836838Y-63550977D01*
X102834858Y-63564325D01*
X102831579Y-63577414D01*
X102827033Y-63590119D01*
X102821264Y-63602317D01*
X102814327Y-63613891D01*
X102806289Y-63624729D01*
X102797227Y-63634727D01*
X102787229Y-63643789D01*
X102776391Y-63651827D01*
X102764817Y-63658764D01*
X102752619Y-63664533D01*
X102739914Y-63669079D01*
X102726825Y-63672358D01*
X102713477Y-63674338D01*
X102700000Y-63675000D01*
X101450000Y-63675000D01*
X101436523Y-63674338D01*
X101423175Y-63672358D01*
X101410086Y-63669079D01*
X101397381Y-63664533D01*
X101385183Y-63658764D01*
X101373609Y-63651827D01*
X101362771Y-63643789D01*
X101352773Y-63634727D01*
X101343711Y-63624729D01*
X101335673Y-63613891D01*
X101328736Y-63602317D01*
X101322967Y-63590119D01*
X101318421Y-63577414D01*
X101315142Y-63564325D01*
X101313162Y-63550977D01*
X101312500Y-63537500D01*
X101312500Y-63262500D01*
X101313162Y-63249023D01*
X101315142Y-63235675D01*
X101318421Y-63222586D01*
X101322967Y-63209881D01*
X101328736Y-63197683D01*
X101335673Y-63186109D01*
X101343711Y-63175271D01*
X101352773Y-63165273D01*
X101362771Y-63156211D01*
X101373609Y-63148173D01*
X101385183Y-63141236D01*
X101397381Y-63135467D01*
X101410086Y-63130921D01*
X101423175Y-63127642D01*
X101436523Y-63125662D01*
X101450000Y-63125000D01*
X102700000Y-63125000D01*
X102713477Y-63125662D01*
X102713477Y-63125662D01*
G37*
D12*
X102075000Y-63400000D03*
D10*
G36*
X102713477Y-62325662D02*
G01*
X102726825Y-62327642D01*
X102739914Y-62330921D01*
X102752619Y-62335467D01*
X102764817Y-62341236D01*
X102776391Y-62348173D01*
X102787229Y-62356211D01*
X102797227Y-62365273D01*
X102806289Y-62375271D01*
X102814327Y-62386109D01*
X102821264Y-62397683D01*
X102827033Y-62409881D01*
X102831579Y-62422586D01*
X102834858Y-62435675D01*
X102836838Y-62449023D01*
X102837500Y-62462500D01*
X102837500Y-62737500D01*
X102836838Y-62750977D01*
X102834858Y-62764325D01*
X102831579Y-62777414D01*
X102827033Y-62790119D01*
X102821264Y-62802317D01*
X102814327Y-62813891D01*
X102806289Y-62824729D01*
X102797227Y-62834727D01*
X102787229Y-62843789D01*
X102776391Y-62851827D01*
X102764817Y-62858764D01*
X102752619Y-62864533D01*
X102739914Y-62869079D01*
X102726825Y-62872358D01*
X102713477Y-62874338D01*
X102700000Y-62875000D01*
X101450000Y-62875000D01*
X101436523Y-62874338D01*
X101423175Y-62872358D01*
X101410086Y-62869079D01*
X101397381Y-62864533D01*
X101385183Y-62858764D01*
X101373609Y-62851827D01*
X101362771Y-62843789D01*
X101352773Y-62834727D01*
X101343711Y-62824729D01*
X101335673Y-62813891D01*
X101328736Y-62802317D01*
X101322967Y-62790119D01*
X101318421Y-62777414D01*
X101315142Y-62764325D01*
X101313162Y-62750977D01*
X101312500Y-62737500D01*
X101312500Y-62462500D01*
X101313162Y-62449023D01*
X101315142Y-62435675D01*
X101318421Y-62422586D01*
X101322967Y-62409881D01*
X101328736Y-62397683D01*
X101335673Y-62386109D01*
X101343711Y-62375271D01*
X101352773Y-62365273D01*
X101362771Y-62356211D01*
X101373609Y-62348173D01*
X101385183Y-62341236D01*
X101397381Y-62335467D01*
X101410086Y-62330921D01*
X101423175Y-62327642D01*
X101436523Y-62325662D01*
X101450000Y-62325000D01*
X102700000Y-62325000D01*
X102713477Y-62325662D01*
X102713477Y-62325662D01*
G37*
D12*
X102075000Y-62600000D03*
D10*
G36*
X102713477Y-61525662D02*
G01*
X102726825Y-61527642D01*
X102739914Y-61530921D01*
X102752619Y-61535467D01*
X102764817Y-61541236D01*
X102776391Y-61548173D01*
X102787229Y-61556211D01*
X102797227Y-61565273D01*
X102806289Y-61575271D01*
X102814327Y-61586109D01*
X102821264Y-61597683D01*
X102827033Y-61609881D01*
X102831579Y-61622586D01*
X102834858Y-61635675D01*
X102836838Y-61649023D01*
X102837500Y-61662500D01*
X102837500Y-61937500D01*
X102836838Y-61950977D01*
X102834858Y-61964325D01*
X102831579Y-61977414D01*
X102827033Y-61990119D01*
X102821264Y-62002317D01*
X102814327Y-62013891D01*
X102806289Y-62024729D01*
X102797227Y-62034727D01*
X102787229Y-62043789D01*
X102776391Y-62051827D01*
X102764817Y-62058764D01*
X102752619Y-62064533D01*
X102739914Y-62069079D01*
X102726825Y-62072358D01*
X102713477Y-62074338D01*
X102700000Y-62075000D01*
X101450000Y-62075000D01*
X101436523Y-62074338D01*
X101423175Y-62072358D01*
X101410086Y-62069079D01*
X101397381Y-62064533D01*
X101385183Y-62058764D01*
X101373609Y-62051827D01*
X101362771Y-62043789D01*
X101352773Y-62034727D01*
X101343711Y-62024729D01*
X101335673Y-62013891D01*
X101328736Y-62002317D01*
X101322967Y-61990119D01*
X101318421Y-61977414D01*
X101315142Y-61964325D01*
X101313162Y-61950977D01*
X101312500Y-61937500D01*
X101312500Y-61662500D01*
X101313162Y-61649023D01*
X101315142Y-61635675D01*
X101318421Y-61622586D01*
X101322967Y-61609881D01*
X101328736Y-61597683D01*
X101335673Y-61586109D01*
X101343711Y-61575271D01*
X101352773Y-61565273D01*
X101362771Y-61556211D01*
X101373609Y-61548173D01*
X101385183Y-61541236D01*
X101397381Y-61535467D01*
X101410086Y-61530921D01*
X101423175Y-61527642D01*
X101436523Y-61525662D01*
X101450000Y-61525000D01*
X102700000Y-61525000D01*
X102713477Y-61525662D01*
X102713477Y-61525662D01*
G37*
D12*
X102075000Y-61800000D03*
D10*
G36*
X102713477Y-60725662D02*
G01*
X102726825Y-60727642D01*
X102739914Y-60730921D01*
X102752619Y-60735467D01*
X102764817Y-60741236D01*
X102776391Y-60748173D01*
X102787229Y-60756211D01*
X102797227Y-60765273D01*
X102806289Y-60775271D01*
X102814327Y-60786109D01*
X102821264Y-60797683D01*
X102827033Y-60809881D01*
X102831579Y-60822586D01*
X102834858Y-60835675D01*
X102836838Y-60849023D01*
X102837500Y-60862500D01*
X102837500Y-61137500D01*
X102836838Y-61150977D01*
X102834858Y-61164325D01*
X102831579Y-61177414D01*
X102827033Y-61190119D01*
X102821264Y-61202317D01*
X102814327Y-61213891D01*
X102806289Y-61224729D01*
X102797227Y-61234727D01*
X102787229Y-61243789D01*
X102776391Y-61251827D01*
X102764817Y-61258764D01*
X102752619Y-61264533D01*
X102739914Y-61269079D01*
X102726825Y-61272358D01*
X102713477Y-61274338D01*
X102700000Y-61275000D01*
X101450000Y-61275000D01*
X101436523Y-61274338D01*
X101423175Y-61272358D01*
X101410086Y-61269079D01*
X101397381Y-61264533D01*
X101385183Y-61258764D01*
X101373609Y-61251827D01*
X101362771Y-61243789D01*
X101352773Y-61234727D01*
X101343711Y-61224729D01*
X101335673Y-61213891D01*
X101328736Y-61202317D01*
X101322967Y-61190119D01*
X101318421Y-61177414D01*
X101315142Y-61164325D01*
X101313162Y-61150977D01*
X101312500Y-61137500D01*
X101312500Y-60862500D01*
X101313162Y-60849023D01*
X101315142Y-60835675D01*
X101318421Y-60822586D01*
X101322967Y-60809881D01*
X101328736Y-60797683D01*
X101335673Y-60786109D01*
X101343711Y-60775271D01*
X101352773Y-60765273D01*
X101362771Y-60756211D01*
X101373609Y-60748173D01*
X101385183Y-60741236D01*
X101397381Y-60735467D01*
X101410086Y-60730921D01*
X101423175Y-60727642D01*
X101436523Y-60725662D01*
X101450000Y-60725000D01*
X102700000Y-60725000D01*
X102713477Y-60725662D01*
X102713477Y-60725662D01*
G37*
D12*
X102075000Y-61000000D03*
D10*
G36*
X102713477Y-59925662D02*
G01*
X102726825Y-59927642D01*
X102739914Y-59930921D01*
X102752619Y-59935467D01*
X102764817Y-59941236D01*
X102776391Y-59948173D01*
X102787229Y-59956211D01*
X102797227Y-59965273D01*
X102806289Y-59975271D01*
X102814327Y-59986109D01*
X102821264Y-59997683D01*
X102827033Y-60009881D01*
X102831579Y-60022586D01*
X102834858Y-60035675D01*
X102836838Y-60049023D01*
X102837500Y-60062500D01*
X102837500Y-60337500D01*
X102836838Y-60350977D01*
X102834858Y-60364325D01*
X102831579Y-60377414D01*
X102827033Y-60390119D01*
X102821264Y-60402317D01*
X102814327Y-60413891D01*
X102806289Y-60424729D01*
X102797227Y-60434727D01*
X102787229Y-60443789D01*
X102776391Y-60451827D01*
X102764817Y-60458764D01*
X102752619Y-60464533D01*
X102739914Y-60469079D01*
X102726825Y-60472358D01*
X102713477Y-60474338D01*
X102700000Y-60475000D01*
X101450000Y-60475000D01*
X101436523Y-60474338D01*
X101423175Y-60472358D01*
X101410086Y-60469079D01*
X101397381Y-60464533D01*
X101385183Y-60458764D01*
X101373609Y-60451827D01*
X101362771Y-60443789D01*
X101352773Y-60434727D01*
X101343711Y-60424729D01*
X101335673Y-60413891D01*
X101328736Y-60402317D01*
X101322967Y-60390119D01*
X101318421Y-60377414D01*
X101315142Y-60364325D01*
X101313162Y-60350977D01*
X101312500Y-60337500D01*
X101312500Y-60062500D01*
X101313162Y-60049023D01*
X101315142Y-60035675D01*
X101318421Y-60022586D01*
X101322967Y-60009881D01*
X101328736Y-59997683D01*
X101335673Y-59986109D01*
X101343711Y-59975271D01*
X101352773Y-59965273D01*
X101362771Y-59956211D01*
X101373609Y-59948173D01*
X101385183Y-59941236D01*
X101397381Y-59935467D01*
X101410086Y-59930921D01*
X101423175Y-59927642D01*
X101436523Y-59925662D01*
X101450000Y-59925000D01*
X102700000Y-59925000D01*
X102713477Y-59925662D01*
X102713477Y-59925662D01*
G37*
D12*
X102075000Y-60200000D03*
D10*
G36*
X102713477Y-57525662D02*
G01*
X102726825Y-57527642D01*
X102739914Y-57530921D01*
X102752619Y-57535467D01*
X102764817Y-57541236D01*
X102776391Y-57548173D01*
X102787229Y-57556211D01*
X102797227Y-57565273D01*
X102806289Y-57575271D01*
X102814327Y-57586109D01*
X102821264Y-57597683D01*
X102827033Y-57609881D01*
X102831579Y-57622586D01*
X102834858Y-57635675D01*
X102836838Y-57649023D01*
X102837500Y-57662500D01*
X102837500Y-57937500D01*
X102836838Y-57950977D01*
X102834858Y-57964325D01*
X102831579Y-57977414D01*
X102827033Y-57990119D01*
X102821264Y-58002317D01*
X102814327Y-58013891D01*
X102806289Y-58024729D01*
X102797227Y-58034727D01*
X102787229Y-58043789D01*
X102776391Y-58051827D01*
X102764817Y-58058764D01*
X102752619Y-58064533D01*
X102739914Y-58069079D01*
X102726825Y-58072358D01*
X102713477Y-58074338D01*
X102700000Y-58075000D01*
X101450000Y-58075000D01*
X101436523Y-58074338D01*
X101423175Y-58072358D01*
X101410086Y-58069079D01*
X101397381Y-58064533D01*
X101385183Y-58058764D01*
X101373609Y-58051827D01*
X101362771Y-58043789D01*
X101352773Y-58034727D01*
X101343711Y-58024729D01*
X101335673Y-58013891D01*
X101328736Y-58002317D01*
X101322967Y-57990119D01*
X101318421Y-57977414D01*
X101315142Y-57964325D01*
X101313162Y-57950977D01*
X101312500Y-57937500D01*
X101312500Y-57662500D01*
X101313162Y-57649023D01*
X101315142Y-57635675D01*
X101318421Y-57622586D01*
X101322967Y-57609881D01*
X101328736Y-57597683D01*
X101335673Y-57586109D01*
X101343711Y-57575271D01*
X101352773Y-57565273D01*
X101362771Y-57556211D01*
X101373609Y-57548173D01*
X101385183Y-57541236D01*
X101397381Y-57535467D01*
X101410086Y-57530921D01*
X101423175Y-57527642D01*
X101436523Y-57525662D01*
X101450000Y-57525000D01*
X102700000Y-57525000D01*
X102713477Y-57525662D01*
X102713477Y-57525662D01*
G37*
D12*
X102075000Y-57800000D03*
D10*
G36*
X102713477Y-56725662D02*
G01*
X102726825Y-56727642D01*
X102739914Y-56730921D01*
X102752619Y-56735467D01*
X102764817Y-56741236D01*
X102776391Y-56748173D01*
X102787229Y-56756211D01*
X102797227Y-56765273D01*
X102806289Y-56775271D01*
X102814327Y-56786109D01*
X102821264Y-56797683D01*
X102827033Y-56809881D01*
X102831579Y-56822586D01*
X102834858Y-56835675D01*
X102836838Y-56849023D01*
X102837500Y-56862500D01*
X102837500Y-57137500D01*
X102836838Y-57150977D01*
X102834858Y-57164325D01*
X102831579Y-57177414D01*
X102827033Y-57190119D01*
X102821264Y-57202317D01*
X102814327Y-57213891D01*
X102806289Y-57224729D01*
X102797227Y-57234727D01*
X102787229Y-57243789D01*
X102776391Y-57251827D01*
X102764817Y-57258764D01*
X102752619Y-57264533D01*
X102739914Y-57269079D01*
X102726825Y-57272358D01*
X102713477Y-57274338D01*
X102700000Y-57275000D01*
X101450000Y-57275000D01*
X101436523Y-57274338D01*
X101423175Y-57272358D01*
X101410086Y-57269079D01*
X101397381Y-57264533D01*
X101385183Y-57258764D01*
X101373609Y-57251827D01*
X101362771Y-57243789D01*
X101352773Y-57234727D01*
X101343711Y-57224729D01*
X101335673Y-57213891D01*
X101328736Y-57202317D01*
X101322967Y-57190119D01*
X101318421Y-57177414D01*
X101315142Y-57164325D01*
X101313162Y-57150977D01*
X101312500Y-57137500D01*
X101312500Y-56862500D01*
X101313162Y-56849023D01*
X101315142Y-56835675D01*
X101318421Y-56822586D01*
X101322967Y-56809881D01*
X101328736Y-56797683D01*
X101335673Y-56786109D01*
X101343711Y-56775271D01*
X101352773Y-56765273D01*
X101362771Y-56756211D01*
X101373609Y-56748173D01*
X101385183Y-56741236D01*
X101397381Y-56735467D01*
X101410086Y-56730921D01*
X101423175Y-56727642D01*
X101436523Y-56725662D01*
X101450000Y-56725000D01*
X102700000Y-56725000D01*
X102713477Y-56725662D01*
X102713477Y-56725662D01*
G37*
D12*
X102075000Y-57000000D03*
D10*
G36*
X102713477Y-55925662D02*
G01*
X102726825Y-55927642D01*
X102739914Y-55930921D01*
X102752619Y-55935467D01*
X102764817Y-55941236D01*
X102776391Y-55948173D01*
X102787229Y-55956211D01*
X102797227Y-55965273D01*
X102806289Y-55975271D01*
X102814327Y-55986109D01*
X102821264Y-55997683D01*
X102827033Y-56009881D01*
X102831579Y-56022586D01*
X102834858Y-56035675D01*
X102836838Y-56049023D01*
X102837500Y-56062500D01*
X102837500Y-56337500D01*
X102836838Y-56350977D01*
X102834858Y-56364325D01*
X102831579Y-56377414D01*
X102827033Y-56390119D01*
X102821264Y-56402317D01*
X102814327Y-56413891D01*
X102806289Y-56424729D01*
X102797227Y-56434727D01*
X102787229Y-56443789D01*
X102776391Y-56451827D01*
X102764817Y-56458764D01*
X102752619Y-56464533D01*
X102739914Y-56469079D01*
X102726825Y-56472358D01*
X102713477Y-56474338D01*
X102700000Y-56475000D01*
X101450000Y-56475000D01*
X101436523Y-56474338D01*
X101423175Y-56472358D01*
X101410086Y-56469079D01*
X101397381Y-56464533D01*
X101385183Y-56458764D01*
X101373609Y-56451827D01*
X101362771Y-56443789D01*
X101352773Y-56434727D01*
X101343711Y-56424729D01*
X101335673Y-56413891D01*
X101328736Y-56402317D01*
X101322967Y-56390119D01*
X101318421Y-56377414D01*
X101315142Y-56364325D01*
X101313162Y-56350977D01*
X101312500Y-56337500D01*
X101312500Y-56062500D01*
X101313162Y-56049023D01*
X101315142Y-56035675D01*
X101318421Y-56022586D01*
X101322967Y-56009881D01*
X101328736Y-55997683D01*
X101335673Y-55986109D01*
X101343711Y-55975271D01*
X101352773Y-55965273D01*
X101362771Y-55956211D01*
X101373609Y-55948173D01*
X101385183Y-55941236D01*
X101397381Y-55935467D01*
X101410086Y-55930921D01*
X101423175Y-55927642D01*
X101436523Y-55925662D01*
X101450000Y-55925000D01*
X102700000Y-55925000D01*
X102713477Y-55925662D01*
X102713477Y-55925662D01*
G37*
D12*
X102075000Y-56200000D03*
D10*
G36*
X102713477Y-55125662D02*
G01*
X102726825Y-55127642D01*
X102739914Y-55130921D01*
X102752619Y-55135467D01*
X102764817Y-55141236D01*
X102776391Y-55148173D01*
X102787229Y-55156211D01*
X102797227Y-55165273D01*
X102806289Y-55175271D01*
X102814327Y-55186109D01*
X102821264Y-55197683D01*
X102827033Y-55209881D01*
X102831579Y-55222586D01*
X102834858Y-55235675D01*
X102836838Y-55249023D01*
X102837500Y-55262500D01*
X102837500Y-55537500D01*
X102836838Y-55550977D01*
X102834858Y-55564325D01*
X102831579Y-55577414D01*
X102827033Y-55590119D01*
X102821264Y-55602317D01*
X102814327Y-55613891D01*
X102806289Y-55624729D01*
X102797227Y-55634727D01*
X102787229Y-55643789D01*
X102776391Y-55651827D01*
X102764817Y-55658764D01*
X102752619Y-55664533D01*
X102739914Y-55669079D01*
X102726825Y-55672358D01*
X102713477Y-55674338D01*
X102700000Y-55675000D01*
X101450000Y-55675000D01*
X101436523Y-55674338D01*
X101423175Y-55672358D01*
X101410086Y-55669079D01*
X101397381Y-55664533D01*
X101385183Y-55658764D01*
X101373609Y-55651827D01*
X101362771Y-55643789D01*
X101352773Y-55634727D01*
X101343711Y-55624729D01*
X101335673Y-55613891D01*
X101328736Y-55602317D01*
X101322967Y-55590119D01*
X101318421Y-55577414D01*
X101315142Y-55564325D01*
X101313162Y-55550977D01*
X101312500Y-55537500D01*
X101312500Y-55262500D01*
X101313162Y-55249023D01*
X101315142Y-55235675D01*
X101318421Y-55222586D01*
X101322967Y-55209881D01*
X101328736Y-55197683D01*
X101335673Y-55186109D01*
X101343711Y-55175271D01*
X101352773Y-55165273D01*
X101362771Y-55156211D01*
X101373609Y-55148173D01*
X101385183Y-55141236D01*
X101397381Y-55135467D01*
X101410086Y-55130921D01*
X101423175Y-55127642D01*
X101436523Y-55125662D01*
X101450000Y-55125000D01*
X102700000Y-55125000D01*
X102713477Y-55125662D01*
X102713477Y-55125662D01*
G37*
D12*
X102075000Y-55400000D03*
D10*
G36*
X102713477Y-54325662D02*
G01*
X102726825Y-54327642D01*
X102739914Y-54330921D01*
X102752619Y-54335467D01*
X102764817Y-54341236D01*
X102776391Y-54348173D01*
X102787229Y-54356211D01*
X102797227Y-54365273D01*
X102806289Y-54375271D01*
X102814327Y-54386109D01*
X102821264Y-54397683D01*
X102827033Y-54409881D01*
X102831579Y-54422586D01*
X102834858Y-54435675D01*
X102836838Y-54449023D01*
X102837500Y-54462500D01*
X102837500Y-54737500D01*
X102836838Y-54750977D01*
X102834858Y-54764325D01*
X102831579Y-54777414D01*
X102827033Y-54790119D01*
X102821264Y-54802317D01*
X102814327Y-54813891D01*
X102806289Y-54824729D01*
X102797227Y-54834727D01*
X102787229Y-54843789D01*
X102776391Y-54851827D01*
X102764817Y-54858764D01*
X102752619Y-54864533D01*
X102739914Y-54869079D01*
X102726825Y-54872358D01*
X102713477Y-54874338D01*
X102700000Y-54875000D01*
X101450000Y-54875000D01*
X101436523Y-54874338D01*
X101423175Y-54872358D01*
X101410086Y-54869079D01*
X101397381Y-54864533D01*
X101385183Y-54858764D01*
X101373609Y-54851827D01*
X101362771Y-54843789D01*
X101352773Y-54834727D01*
X101343711Y-54824729D01*
X101335673Y-54813891D01*
X101328736Y-54802317D01*
X101322967Y-54790119D01*
X101318421Y-54777414D01*
X101315142Y-54764325D01*
X101313162Y-54750977D01*
X101312500Y-54737500D01*
X101312500Y-54462500D01*
X101313162Y-54449023D01*
X101315142Y-54435675D01*
X101318421Y-54422586D01*
X101322967Y-54409881D01*
X101328736Y-54397683D01*
X101335673Y-54386109D01*
X101343711Y-54375271D01*
X101352773Y-54365273D01*
X101362771Y-54356211D01*
X101373609Y-54348173D01*
X101385183Y-54341236D01*
X101397381Y-54335467D01*
X101410086Y-54330921D01*
X101423175Y-54327642D01*
X101436523Y-54325662D01*
X101450000Y-54325000D01*
X102700000Y-54325000D01*
X102713477Y-54325662D01*
X102713477Y-54325662D01*
G37*
D12*
X102075000Y-54600000D03*
D10*
G36*
X102713477Y-53525662D02*
G01*
X102726825Y-53527642D01*
X102739914Y-53530921D01*
X102752619Y-53535467D01*
X102764817Y-53541236D01*
X102776391Y-53548173D01*
X102787229Y-53556211D01*
X102797227Y-53565273D01*
X102806289Y-53575271D01*
X102814327Y-53586109D01*
X102821264Y-53597683D01*
X102827033Y-53609881D01*
X102831579Y-53622586D01*
X102834858Y-53635675D01*
X102836838Y-53649023D01*
X102837500Y-53662500D01*
X102837500Y-53937500D01*
X102836838Y-53950977D01*
X102834858Y-53964325D01*
X102831579Y-53977414D01*
X102827033Y-53990119D01*
X102821264Y-54002317D01*
X102814327Y-54013891D01*
X102806289Y-54024729D01*
X102797227Y-54034727D01*
X102787229Y-54043789D01*
X102776391Y-54051827D01*
X102764817Y-54058764D01*
X102752619Y-54064533D01*
X102739914Y-54069079D01*
X102726825Y-54072358D01*
X102713477Y-54074338D01*
X102700000Y-54075000D01*
X101450000Y-54075000D01*
X101436523Y-54074338D01*
X101423175Y-54072358D01*
X101410086Y-54069079D01*
X101397381Y-54064533D01*
X101385183Y-54058764D01*
X101373609Y-54051827D01*
X101362771Y-54043789D01*
X101352773Y-54034727D01*
X101343711Y-54024729D01*
X101335673Y-54013891D01*
X101328736Y-54002317D01*
X101322967Y-53990119D01*
X101318421Y-53977414D01*
X101315142Y-53964325D01*
X101313162Y-53950977D01*
X101312500Y-53937500D01*
X101312500Y-53662500D01*
X101313162Y-53649023D01*
X101315142Y-53635675D01*
X101318421Y-53622586D01*
X101322967Y-53609881D01*
X101328736Y-53597683D01*
X101335673Y-53586109D01*
X101343711Y-53575271D01*
X101352773Y-53565273D01*
X101362771Y-53556211D01*
X101373609Y-53548173D01*
X101385183Y-53541236D01*
X101397381Y-53535467D01*
X101410086Y-53530921D01*
X101423175Y-53527642D01*
X101436523Y-53525662D01*
X101450000Y-53525000D01*
X102700000Y-53525000D01*
X102713477Y-53525662D01*
X102713477Y-53525662D01*
G37*
D12*
X102075000Y-53800000D03*
D10*
G36*
X102713477Y-52725662D02*
G01*
X102726825Y-52727642D01*
X102739914Y-52730921D01*
X102752619Y-52735467D01*
X102764817Y-52741236D01*
X102776391Y-52748173D01*
X102787229Y-52756211D01*
X102797227Y-52765273D01*
X102806289Y-52775271D01*
X102814327Y-52786109D01*
X102821264Y-52797683D01*
X102827033Y-52809881D01*
X102831579Y-52822586D01*
X102834858Y-52835675D01*
X102836838Y-52849023D01*
X102837500Y-52862500D01*
X102837500Y-53137500D01*
X102836838Y-53150977D01*
X102834858Y-53164325D01*
X102831579Y-53177414D01*
X102827033Y-53190119D01*
X102821264Y-53202317D01*
X102814327Y-53213891D01*
X102806289Y-53224729D01*
X102797227Y-53234727D01*
X102787229Y-53243789D01*
X102776391Y-53251827D01*
X102764817Y-53258764D01*
X102752619Y-53264533D01*
X102739914Y-53269079D01*
X102726825Y-53272358D01*
X102713477Y-53274338D01*
X102700000Y-53275000D01*
X101450000Y-53275000D01*
X101436523Y-53274338D01*
X101423175Y-53272358D01*
X101410086Y-53269079D01*
X101397381Y-53264533D01*
X101385183Y-53258764D01*
X101373609Y-53251827D01*
X101362771Y-53243789D01*
X101352773Y-53234727D01*
X101343711Y-53224729D01*
X101335673Y-53213891D01*
X101328736Y-53202317D01*
X101322967Y-53190119D01*
X101318421Y-53177414D01*
X101315142Y-53164325D01*
X101313162Y-53150977D01*
X101312500Y-53137500D01*
X101312500Y-52862500D01*
X101313162Y-52849023D01*
X101315142Y-52835675D01*
X101318421Y-52822586D01*
X101322967Y-52809881D01*
X101328736Y-52797683D01*
X101335673Y-52786109D01*
X101343711Y-52775271D01*
X101352773Y-52765273D01*
X101362771Y-52756211D01*
X101373609Y-52748173D01*
X101385183Y-52741236D01*
X101397381Y-52735467D01*
X101410086Y-52730921D01*
X101423175Y-52727642D01*
X101436523Y-52725662D01*
X101450000Y-52725000D01*
X102700000Y-52725000D01*
X102713477Y-52725662D01*
X102713477Y-52725662D01*
G37*
D12*
X102075000Y-53000000D03*
D10*
G36*
X102713477Y-51925662D02*
G01*
X102726825Y-51927642D01*
X102739914Y-51930921D01*
X102752619Y-51935467D01*
X102764817Y-51941236D01*
X102776391Y-51948173D01*
X102787229Y-51956211D01*
X102797227Y-51965273D01*
X102806289Y-51975271D01*
X102814327Y-51986109D01*
X102821264Y-51997683D01*
X102827033Y-52009881D01*
X102831579Y-52022586D01*
X102834858Y-52035675D01*
X102836838Y-52049023D01*
X102837500Y-52062500D01*
X102837500Y-52337500D01*
X102836838Y-52350977D01*
X102834858Y-52364325D01*
X102831579Y-52377414D01*
X102827033Y-52390119D01*
X102821264Y-52402317D01*
X102814327Y-52413891D01*
X102806289Y-52424729D01*
X102797227Y-52434727D01*
X102787229Y-52443789D01*
X102776391Y-52451827D01*
X102764817Y-52458764D01*
X102752619Y-52464533D01*
X102739914Y-52469079D01*
X102726825Y-52472358D01*
X102713477Y-52474338D01*
X102700000Y-52475000D01*
X101450000Y-52475000D01*
X101436523Y-52474338D01*
X101423175Y-52472358D01*
X101410086Y-52469079D01*
X101397381Y-52464533D01*
X101385183Y-52458764D01*
X101373609Y-52451827D01*
X101362771Y-52443789D01*
X101352773Y-52434727D01*
X101343711Y-52424729D01*
X101335673Y-52413891D01*
X101328736Y-52402317D01*
X101322967Y-52390119D01*
X101318421Y-52377414D01*
X101315142Y-52364325D01*
X101313162Y-52350977D01*
X101312500Y-52337500D01*
X101312500Y-52062500D01*
X101313162Y-52049023D01*
X101315142Y-52035675D01*
X101318421Y-52022586D01*
X101322967Y-52009881D01*
X101328736Y-51997683D01*
X101335673Y-51986109D01*
X101343711Y-51975271D01*
X101352773Y-51965273D01*
X101362771Y-51956211D01*
X101373609Y-51948173D01*
X101385183Y-51941236D01*
X101397381Y-51935467D01*
X101410086Y-51930921D01*
X101423175Y-51927642D01*
X101436523Y-51925662D01*
X101450000Y-51925000D01*
X102700000Y-51925000D01*
X102713477Y-51925662D01*
X102713477Y-51925662D01*
G37*
D12*
X102075000Y-52200000D03*
D10*
G36*
X102713477Y-51125662D02*
G01*
X102726825Y-51127642D01*
X102739914Y-51130921D01*
X102752619Y-51135467D01*
X102764817Y-51141236D01*
X102776391Y-51148173D01*
X102787229Y-51156211D01*
X102797227Y-51165273D01*
X102806289Y-51175271D01*
X102814327Y-51186109D01*
X102821264Y-51197683D01*
X102827033Y-51209881D01*
X102831579Y-51222586D01*
X102834858Y-51235675D01*
X102836838Y-51249023D01*
X102837500Y-51262500D01*
X102837500Y-51537500D01*
X102836838Y-51550977D01*
X102834858Y-51564325D01*
X102831579Y-51577414D01*
X102827033Y-51590119D01*
X102821264Y-51602317D01*
X102814327Y-51613891D01*
X102806289Y-51624729D01*
X102797227Y-51634727D01*
X102787229Y-51643789D01*
X102776391Y-51651827D01*
X102764817Y-51658764D01*
X102752619Y-51664533D01*
X102739914Y-51669079D01*
X102726825Y-51672358D01*
X102713477Y-51674338D01*
X102700000Y-51675000D01*
X101450000Y-51675000D01*
X101436523Y-51674338D01*
X101423175Y-51672358D01*
X101410086Y-51669079D01*
X101397381Y-51664533D01*
X101385183Y-51658764D01*
X101373609Y-51651827D01*
X101362771Y-51643789D01*
X101352773Y-51634727D01*
X101343711Y-51624729D01*
X101335673Y-51613891D01*
X101328736Y-51602317D01*
X101322967Y-51590119D01*
X101318421Y-51577414D01*
X101315142Y-51564325D01*
X101313162Y-51550977D01*
X101312500Y-51537500D01*
X101312500Y-51262500D01*
X101313162Y-51249023D01*
X101315142Y-51235675D01*
X101318421Y-51222586D01*
X101322967Y-51209881D01*
X101328736Y-51197683D01*
X101335673Y-51186109D01*
X101343711Y-51175271D01*
X101352773Y-51165273D01*
X101362771Y-51156211D01*
X101373609Y-51148173D01*
X101385183Y-51141236D01*
X101397381Y-51135467D01*
X101410086Y-51130921D01*
X101423175Y-51127642D01*
X101436523Y-51125662D01*
X101450000Y-51125000D01*
X102700000Y-51125000D01*
X102713477Y-51125662D01*
X102713477Y-51125662D01*
G37*
D12*
X102075000Y-51400000D03*
D10*
G36*
X102713477Y-50325662D02*
G01*
X102726825Y-50327642D01*
X102739914Y-50330921D01*
X102752619Y-50335467D01*
X102764817Y-50341236D01*
X102776391Y-50348173D01*
X102787229Y-50356211D01*
X102797227Y-50365273D01*
X102806289Y-50375271D01*
X102814327Y-50386109D01*
X102821264Y-50397683D01*
X102827033Y-50409881D01*
X102831579Y-50422586D01*
X102834858Y-50435675D01*
X102836838Y-50449023D01*
X102837500Y-50462500D01*
X102837500Y-50737500D01*
X102836838Y-50750977D01*
X102834858Y-50764325D01*
X102831579Y-50777414D01*
X102827033Y-50790119D01*
X102821264Y-50802317D01*
X102814327Y-50813891D01*
X102806289Y-50824729D01*
X102797227Y-50834727D01*
X102787229Y-50843789D01*
X102776391Y-50851827D01*
X102764817Y-50858764D01*
X102752619Y-50864533D01*
X102739914Y-50869079D01*
X102726825Y-50872358D01*
X102713477Y-50874338D01*
X102700000Y-50875000D01*
X101450000Y-50875000D01*
X101436523Y-50874338D01*
X101423175Y-50872358D01*
X101410086Y-50869079D01*
X101397381Y-50864533D01*
X101385183Y-50858764D01*
X101373609Y-50851827D01*
X101362771Y-50843789D01*
X101352773Y-50834727D01*
X101343711Y-50824729D01*
X101335673Y-50813891D01*
X101328736Y-50802317D01*
X101322967Y-50790119D01*
X101318421Y-50777414D01*
X101315142Y-50764325D01*
X101313162Y-50750977D01*
X101312500Y-50737500D01*
X101312500Y-50462500D01*
X101313162Y-50449023D01*
X101315142Y-50435675D01*
X101318421Y-50422586D01*
X101322967Y-50409881D01*
X101328736Y-50397683D01*
X101335673Y-50386109D01*
X101343711Y-50375271D01*
X101352773Y-50365273D01*
X101362771Y-50356211D01*
X101373609Y-50348173D01*
X101385183Y-50341236D01*
X101397381Y-50335467D01*
X101410086Y-50330921D01*
X101423175Y-50327642D01*
X101436523Y-50325662D01*
X101450000Y-50325000D01*
X102700000Y-50325000D01*
X102713477Y-50325662D01*
X102713477Y-50325662D01*
G37*
D12*
X102075000Y-50600000D03*
D10*
G36*
X91538477Y-50325662D02*
G01*
X91551825Y-50327642D01*
X91564914Y-50330921D01*
X91577619Y-50335467D01*
X91589817Y-50341236D01*
X91601391Y-50348173D01*
X91612229Y-50356211D01*
X91622227Y-50365273D01*
X91631289Y-50375271D01*
X91639327Y-50386109D01*
X91646264Y-50397683D01*
X91652033Y-50409881D01*
X91656579Y-50422586D01*
X91659858Y-50435675D01*
X91661838Y-50449023D01*
X91662500Y-50462500D01*
X91662500Y-50737500D01*
X91661838Y-50750977D01*
X91659858Y-50764325D01*
X91656579Y-50777414D01*
X91652033Y-50790119D01*
X91646264Y-50802317D01*
X91639327Y-50813891D01*
X91631289Y-50824729D01*
X91622227Y-50834727D01*
X91612229Y-50843789D01*
X91601391Y-50851827D01*
X91589817Y-50858764D01*
X91577619Y-50864533D01*
X91564914Y-50869079D01*
X91551825Y-50872358D01*
X91538477Y-50874338D01*
X91525000Y-50875000D01*
X90275000Y-50875000D01*
X90261523Y-50874338D01*
X90248175Y-50872358D01*
X90235086Y-50869079D01*
X90222381Y-50864533D01*
X90210183Y-50858764D01*
X90198609Y-50851827D01*
X90187771Y-50843789D01*
X90177773Y-50834727D01*
X90168711Y-50824729D01*
X90160673Y-50813891D01*
X90153736Y-50802317D01*
X90147967Y-50790119D01*
X90143421Y-50777414D01*
X90140142Y-50764325D01*
X90138162Y-50750977D01*
X90137500Y-50737500D01*
X90137500Y-50462500D01*
X90138162Y-50449023D01*
X90140142Y-50435675D01*
X90143421Y-50422586D01*
X90147967Y-50409881D01*
X90153736Y-50397683D01*
X90160673Y-50386109D01*
X90168711Y-50375271D01*
X90177773Y-50365273D01*
X90187771Y-50356211D01*
X90198609Y-50348173D01*
X90210183Y-50341236D01*
X90222381Y-50335467D01*
X90235086Y-50330921D01*
X90248175Y-50327642D01*
X90261523Y-50325662D01*
X90275000Y-50325000D01*
X91525000Y-50325000D01*
X91538477Y-50325662D01*
X91538477Y-50325662D01*
G37*
D12*
X90900000Y-50600000D03*
D10*
G36*
X91538477Y-51125662D02*
G01*
X91551825Y-51127642D01*
X91564914Y-51130921D01*
X91577619Y-51135467D01*
X91589817Y-51141236D01*
X91601391Y-51148173D01*
X91612229Y-51156211D01*
X91622227Y-51165273D01*
X91631289Y-51175271D01*
X91639327Y-51186109D01*
X91646264Y-51197683D01*
X91652033Y-51209881D01*
X91656579Y-51222586D01*
X91659858Y-51235675D01*
X91661838Y-51249023D01*
X91662500Y-51262500D01*
X91662500Y-51537500D01*
X91661838Y-51550977D01*
X91659858Y-51564325D01*
X91656579Y-51577414D01*
X91652033Y-51590119D01*
X91646264Y-51602317D01*
X91639327Y-51613891D01*
X91631289Y-51624729D01*
X91622227Y-51634727D01*
X91612229Y-51643789D01*
X91601391Y-51651827D01*
X91589817Y-51658764D01*
X91577619Y-51664533D01*
X91564914Y-51669079D01*
X91551825Y-51672358D01*
X91538477Y-51674338D01*
X91525000Y-51675000D01*
X90275000Y-51675000D01*
X90261523Y-51674338D01*
X90248175Y-51672358D01*
X90235086Y-51669079D01*
X90222381Y-51664533D01*
X90210183Y-51658764D01*
X90198609Y-51651827D01*
X90187771Y-51643789D01*
X90177773Y-51634727D01*
X90168711Y-51624729D01*
X90160673Y-51613891D01*
X90153736Y-51602317D01*
X90147967Y-51590119D01*
X90143421Y-51577414D01*
X90140142Y-51564325D01*
X90138162Y-51550977D01*
X90137500Y-51537500D01*
X90137500Y-51262500D01*
X90138162Y-51249023D01*
X90140142Y-51235675D01*
X90143421Y-51222586D01*
X90147967Y-51209881D01*
X90153736Y-51197683D01*
X90160673Y-51186109D01*
X90168711Y-51175271D01*
X90177773Y-51165273D01*
X90187771Y-51156211D01*
X90198609Y-51148173D01*
X90210183Y-51141236D01*
X90222381Y-51135467D01*
X90235086Y-51130921D01*
X90248175Y-51127642D01*
X90261523Y-51125662D01*
X90275000Y-51125000D01*
X91525000Y-51125000D01*
X91538477Y-51125662D01*
X91538477Y-51125662D01*
G37*
D12*
X90900000Y-51400000D03*
D10*
G36*
X91538477Y-51925662D02*
G01*
X91551825Y-51927642D01*
X91564914Y-51930921D01*
X91577619Y-51935467D01*
X91589817Y-51941236D01*
X91601391Y-51948173D01*
X91612229Y-51956211D01*
X91622227Y-51965273D01*
X91631289Y-51975271D01*
X91639327Y-51986109D01*
X91646264Y-51997683D01*
X91652033Y-52009881D01*
X91656579Y-52022586D01*
X91659858Y-52035675D01*
X91661838Y-52049023D01*
X91662500Y-52062500D01*
X91662500Y-52337500D01*
X91661838Y-52350977D01*
X91659858Y-52364325D01*
X91656579Y-52377414D01*
X91652033Y-52390119D01*
X91646264Y-52402317D01*
X91639327Y-52413891D01*
X91631289Y-52424729D01*
X91622227Y-52434727D01*
X91612229Y-52443789D01*
X91601391Y-52451827D01*
X91589817Y-52458764D01*
X91577619Y-52464533D01*
X91564914Y-52469079D01*
X91551825Y-52472358D01*
X91538477Y-52474338D01*
X91525000Y-52475000D01*
X90275000Y-52475000D01*
X90261523Y-52474338D01*
X90248175Y-52472358D01*
X90235086Y-52469079D01*
X90222381Y-52464533D01*
X90210183Y-52458764D01*
X90198609Y-52451827D01*
X90187771Y-52443789D01*
X90177773Y-52434727D01*
X90168711Y-52424729D01*
X90160673Y-52413891D01*
X90153736Y-52402317D01*
X90147967Y-52390119D01*
X90143421Y-52377414D01*
X90140142Y-52364325D01*
X90138162Y-52350977D01*
X90137500Y-52337500D01*
X90137500Y-52062500D01*
X90138162Y-52049023D01*
X90140142Y-52035675D01*
X90143421Y-52022586D01*
X90147967Y-52009881D01*
X90153736Y-51997683D01*
X90160673Y-51986109D01*
X90168711Y-51975271D01*
X90177773Y-51965273D01*
X90187771Y-51956211D01*
X90198609Y-51948173D01*
X90210183Y-51941236D01*
X90222381Y-51935467D01*
X90235086Y-51930921D01*
X90248175Y-51927642D01*
X90261523Y-51925662D01*
X90275000Y-51925000D01*
X91525000Y-51925000D01*
X91538477Y-51925662D01*
X91538477Y-51925662D01*
G37*
D12*
X90900000Y-52200000D03*
D10*
G36*
X91538477Y-52725662D02*
G01*
X91551825Y-52727642D01*
X91564914Y-52730921D01*
X91577619Y-52735467D01*
X91589817Y-52741236D01*
X91601391Y-52748173D01*
X91612229Y-52756211D01*
X91622227Y-52765273D01*
X91631289Y-52775271D01*
X91639327Y-52786109D01*
X91646264Y-52797683D01*
X91652033Y-52809881D01*
X91656579Y-52822586D01*
X91659858Y-52835675D01*
X91661838Y-52849023D01*
X91662500Y-52862500D01*
X91662500Y-53137500D01*
X91661838Y-53150977D01*
X91659858Y-53164325D01*
X91656579Y-53177414D01*
X91652033Y-53190119D01*
X91646264Y-53202317D01*
X91639327Y-53213891D01*
X91631289Y-53224729D01*
X91622227Y-53234727D01*
X91612229Y-53243789D01*
X91601391Y-53251827D01*
X91589817Y-53258764D01*
X91577619Y-53264533D01*
X91564914Y-53269079D01*
X91551825Y-53272358D01*
X91538477Y-53274338D01*
X91525000Y-53275000D01*
X90275000Y-53275000D01*
X90261523Y-53274338D01*
X90248175Y-53272358D01*
X90235086Y-53269079D01*
X90222381Y-53264533D01*
X90210183Y-53258764D01*
X90198609Y-53251827D01*
X90187771Y-53243789D01*
X90177773Y-53234727D01*
X90168711Y-53224729D01*
X90160673Y-53213891D01*
X90153736Y-53202317D01*
X90147967Y-53190119D01*
X90143421Y-53177414D01*
X90140142Y-53164325D01*
X90138162Y-53150977D01*
X90137500Y-53137500D01*
X90137500Y-52862500D01*
X90138162Y-52849023D01*
X90140142Y-52835675D01*
X90143421Y-52822586D01*
X90147967Y-52809881D01*
X90153736Y-52797683D01*
X90160673Y-52786109D01*
X90168711Y-52775271D01*
X90177773Y-52765273D01*
X90187771Y-52756211D01*
X90198609Y-52748173D01*
X90210183Y-52741236D01*
X90222381Y-52735467D01*
X90235086Y-52730921D01*
X90248175Y-52727642D01*
X90261523Y-52725662D01*
X90275000Y-52725000D01*
X91525000Y-52725000D01*
X91538477Y-52725662D01*
X91538477Y-52725662D01*
G37*
D12*
X90900000Y-53000000D03*
D10*
G36*
X91538477Y-53525662D02*
G01*
X91551825Y-53527642D01*
X91564914Y-53530921D01*
X91577619Y-53535467D01*
X91589817Y-53541236D01*
X91601391Y-53548173D01*
X91612229Y-53556211D01*
X91622227Y-53565273D01*
X91631289Y-53575271D01*
X91639327Y-53586109D01*
X91646264Y-53597683D01*
X91652033Y-53609881D01*
X91656579Y-53622586D01*
X91659858Y-53635675D01*
X91661838Y-53649023D01*
X91662500Y-53662500D01*
X91662500Y-53937500D01*
X91661838Y-53950977D01*
X91659858Y-53964325D01*
X91656579Y-53977414D01*
X91652033Y-53990119D01*
X91646264Y-54002317D01*
X91639327Y-54013891D01*
X91631289Y-54024729D01*
X91622227Y-54034727D01*
X91612229Y-54043789D01*
X91601391Y-54051827D01*
X91589817Y-54058764D01*
X91577619Y-54064533D01*
X91564914Y-54069079D01*
X91551825Y-54072358D01*
X91538477Y-54074338D01*
X91525000Y-54075000D01*
X90275000Y-54075000D01*
X90261523Y-54074338D01*
X90248175Y-54072358D01*
X90235086Y-54069079D01*
X90222381Y-54064533D01*
X90210183Y-54058764D01*
X90198609Y-54051827D01*
X90187771Y-54043789D01*
X90177773Y-54034727D01*
X90168711Y-54024729D01*
X90160673Y-54013891D01*
X90153736Y-54002317D01*
X90147967Y-53990119D01*
X90143421Y-53977414D01*
X90140142Y-53964325D01*
X90138162Y-53950977D01*
X90137500Y-53937500D01*
X90137500Y-53662500D01*
X90138162Y-53649023D01*
X90140142Y-53635675D01*
X90143421Y-53622586D01*
X90147967Y-53609881D01*
X90153736Y-53597683D01*
X90160673Y-53586109D01*
X90168711Y-53575271D01*
X90177773Y-53565273D01*
X90187771Y-53556211D01*
X90198609Y-53548173D01*
X90210183Y-53541236D01*
X90222381Y-53535467D01*
X90235086Y-53530921D01*
X90248175Y-53527642D01*
X90261523Y-53525662D01*
X90275000Y-53525000D01*
X91525000Y-53525000D01*
X91538477Y-53525662D01*
X91538477Y-53525662D01*
G37*
D12*
X90900000Y-53800000D03*
D10*
G36*
X91538477Y-54325662D02*
G01*
X91551825Y-54327642D01*
X91564914Y-54330921D01*
X91577619Y-54335467D01*
X91589817Y-54341236D01*
X91601391Y-54348173D01*
X91612229Y-54356211D01*
X91622227Y-54365273D01*
X91631289Y-54375271D01*
X91639327Y-54386109D01*
X91646264Y-54397683D01*
X91652033Y-54409881D01*
X91656579Y-54422586D01*
X91659858Y-54435675D01*
X91661838Y-54449023D01*
X91662500Y-54462500D01*
X91662500Y-54737500D01*
X91661838Y-54750977D01*
X91659858Y-54764325D01*
X91656579Y-54777414D01*
X91652033Y-54790119D01*
X91646264Y-54802317D01*
X91639327Y-54813891D01*
X91631289Y-54824729D01*
X91622227Y-54834727D01*
X91612229Y-54843789D01*
X91601391Y-54851827D01*
X91589817Y-54858764D01*
X91577619Y-54864533D01*
X91564914Y-54869079D01*
X91551825Y-54872358D01*
X91538477Y-54874338D01*
X91525000Y-54875000D01*
X90275000Y-54875000D01*
X90261523Y-54874338D01*
X90248175Y-54872358D01*
X90235086Y-54869079D01*
X90222381Y-54864533D01*
X90210183Y-54858764D01*
X90198609Y-54851827D01*
X90187771Y-54843789D01*
X90177773Y-54834727D01*
X90168711Y-54824729D01*
X90160673Y-54813891D01*
X90153736Y-54802317D01*
X90147967Y-54790119D01*
X90143421Y-54777414D01*
X90140142Y-54764325D01*
X90138162Y-54750977D01*
X90137500Y-54737500D01*
X90137500Y-54462500D01*
X90138162Y-54449023D01*
X90140142Y-54435675D01*
X90143421Y-54422586D01*
X90147967Y-54409881D01*
X90153736Y-54397683D01*
X90160673Y-54386109D01*
X90168711Y-54375271D01*
X90177773Y-54365273D01*
X90187771Y-54356211D01*
X90198609Y-54348173D01*
X90210183Y-54341236D01*
X90222381Y-54335467D01*
X90235086Y-54330921D01*
X90248175Y-54327642D01*
X90261523Y-54325662D01*
X90275000Y-54325000D01*
X91525000Y-54325000D01*
X91538477Y-54325662D01*
X91538477Y-54325662D01*
G37*
D12*
X90900000Y-54600000D03*
D10*
G36*
X91538477Y-55125662D02*
G01*
X91551825Y-55127642D01*
X91564914Y-55130921D01*
X91577619Y-55135467D01*
X91589817Y-55141236D01*
X91601391Y-55148173D01*
X91612229Y-55156211D01*
X91622227Y-55165273D01*
X91631289Y-55175271D01*
X91639327Y-55186109D01*
X91646264Y-55197683D01*
X91652033Y-55209881D01*
X91656579Y-55222586D01*
X91659858Y-55235675D01*
X91661838Y-55249023D01*
X91662500Y-55262500D01*
X91662500Y-55537500D01*
X91661838Y-55550977D01*
X91659858Y-55564325D01*
X91656579Y-55577414D01*
X91652033Y-55590119D01*
X91646264Y-55602317D01*
X91639327Y-55613891D01*
X91631289Y-55624729D01*
X91622227Y-55634727D01*
X91612229Y-55643789D01*
X91601391Y-55651827D01*
X91589817Y-55658764D01*
X91577619Y-55664533D01*
X91564914Y-55669079D01*
X91551825Y-55672358D01*
X91538477Y-55674338D01*
X91525000Y-55675000D01*
X90275000Y-55675000D01*
X90261523Y-55674338D01*
X90248175Y-55672358D01*
X90235086Y-55669079D01*
X90222381Y-55664533D01*
X90210183Y-55658764D01*
X90198609Y-55651827D01*
X90187771Y-55643789D01*
X90177773Y-55634727D01*
X90168711Y-55624729D01*
X90160673Y-55613891D01*
X90153736Y-55602317D01*
X90147967Y-55590119D01*
X90143421Y-55577414D01*
X90140142Y-55564325D01*
X90138162Y-55550977D01*
X90137500Y-55537500D01*
X90137500Y-55262500D01*
X90138162Y-55249023D01*
X90140142Y-55235675D01*
X90143421Y-55222586D01*
X90147967Y-55209881D01*
X90153736Y-55197683D01*
X90160673Y-55186109D01*
X90168711Y-55175271D01*
X90177773Y-55165273D01*
X90187771Y-55156211D01*
X90198609Y-55148173D01*
X90210183Y-55141236D01*
X90222381Y-55135467D01*
X90235086Y-55130921D01*
X90248175Y-55127642D01*
X90261523Y-55125662D01*
X90275000Y-55125000D01*
X91525000Y-55125000D01*
X91538477Y-55125662D01*
X91538477Y-55125662D01*
G37*
D12*
X90900000Y-55400000D03*
D10*
G36*
X91538477Y-55925662D02*
G01*
X91551825Y-55927642D01*
X91564914Y-55930921D01*
X91577619Y-55935467D01*
X91589817Y-55941236D01*
X91601391Y-55948173D01*
X91612229Y-55956211D01*
X91622227Y-55965273D01*
X91631289Y-55975271D01*
X91639327Y-55986109D01*
X91646264Y-55997683D01*
X91652033Y-56009881D01*
X91656579Y-56022586D01*
X91659858Y-56035675D01*
X91661838Y-56049023D01*
X91662500Y-56062500D01*
X91662500Y-56337500D01*
X91661838Y-56350977D01*
X91659858Y-56364325D01*
X91656579Y-56377414D01*
X91652033Y-56390119D01*
X91646264Y-56402317D01*
X91639327Y-56413891D01*
X91631289Y-56424729D01*
X91622227Y-56434727D01*
X91612229Y-56443789D01*
X91601391Y-56451827D01*
X91589817Y-56458764D01*
X91577619Y-56464533D01*
X91564914Y-56469079D01*
X91551825Y-56472358D01*
X91538477Y-56474338D01*
X91525000Y-56475000D01*
X90275000Y-56475000D01*
X90261523Y-56474338D01*
X90248175Y-56472358D01*
X90235086Y-56469079D01*
X90222381Y-56464533D01*
X90210183Y-56458764D01*
X90198609Y-56451827D01*
X90187771Y-56443789D01*
X90177773Y-56434727D01*
X90168711Y-56424729D01*
X90160673Y-56413891D01*
X90153736Y-56402317D01*
X90147967Y-56390119D01*
X90143421Y-56377414D01*
X90140142Y-56364325D01*
X90138162Y-56350977D01*
X90137500Y-56337500D01*
X90137500Y-56062500D01*
X90138162Y-56049023D01*
X90140142Y-56035675D01*
X90143421Y-56022586D01*
X90147967Y-56009881D01*
X90153736Y-55997683D01*
X90160673Y-55986109D01*
X90168711Y-55975271D01*
X90177773Y-55965273D01*
X90187771Y-55956211D01*
X90198609Y-55948173D01*
X90210183Y-55941236D01*
X90222381Y-55935467D01*
X90235086Y-55930921D01*
X90248175Y-55927642D01*
X90261523Y-55925662D01*
X90275000Y-55925000D01*
X91525000Y-55925000D01*
X91538477Y-55925662D01*
X91538477Y-55925662D01*
G37*
D12*
X90900000Y-56200000D03*
D10*
G36*
X91538477Y-56725662D02*
G01*
X91551825Y-56727642D01*
X91564914Y-56730921D01*
X91577619Y-56735467D01*
X91589817Y-56741236D01*
X91601391Y-56748173D01*
X91612229Y-56756211D01*
X91622227Y-56765273D01*
X91631289Y-56775271D01*
X91639327Y-56786109D01*
X91646264Y-56797683D01*
X91652033Y-56809881D01*
X91656579Y-56822586D01*
X91659858Y-56835675D01*
X91661838Y-56849023D01*
X91662500Y-56862500D01*
X91662500Y-57137500D01*
X91661838Y-57150977D01*
X91659858Y-57164325D01*
X91656579Y-57177414D01*
X91652033Y-57190119D01*
X91646264Y-57202317D01*
X91639327Y-57213891D01*
X91631289Y-57224729D01*
X91622227Y-57234727D01*
X91612229Y-57243789D01*
X91601391Y-57251827D01*
X91589817Y-57258764D01*
X91577619Y-57264533D01*
X91564914Y-57269079D01*
X91551825Y-57272358D01*
X91538477Y-57274338D01*
X91525000Y-57275000D01*
X90275000Y-57275000D01*
X90261523Y-57274338D01*
X90248175Y-57272358D01*
X90235086Y-57269079D01*
X90222381Y-57264533D01*
X90210183Y-57258764D01*
X90198609Y-57251827D01*
X90187771Y-57243789D01*
X90177773Y-57234727D01*
X90168711Y-57224729D01*
X90160673Y-57213891D01*
X90153736Y-57202317D01*
X90147967Y-57190119D01*
X90143421Y-57177414D01*
X90140142Y-57164325D01*
X90138162Y-57150977D01*
X90137500Y-57137500D01*
X90137500Y-56862500D01*
X90138162Y-56849023D01*
X90140142Y-56835675D01*
X90143421Y-56822586D01*
X90147967Y-56809881D01*
X90153736Y-56797683D01*
X90160673Y-56786109D01*
X90168711Y-56775271D01*
X90177773Y-56765273D01*
X90187771Y-56756211D01*
X90198609Y-56748173D01*
X90210183Y-56741236D01*
X90222381Y-56735467D01*
X90235086Y-56730921D01*
X90248175Y-56727642D01*
X90261523Y-56725662D01*
X90275000Y-56725000D01*
X91525000Y-56725000D01*
X91538477Y-56725662D01*
X91538477Y-56725662D01*
G37*
D12*
X90900000Y-57000000D03*
D10*
G36*
X91538477Y-57525662D02*
G01*
X91551825Y-57527642D01*
X91564914Y-57530921D01*
X91577619Y-57535467D01*
X91589817Y-57541236D01*
X91601391Y-57548173D01*
X91612229Y-57556211D01*
X91622227Y-57565273D01*
X91631289Y-57575271D01*
X91639327Y-57586109D01*
X91646264Y-57597683D01*
X91652033Y-57609881D01*
X91656579Y-57622586D01*
X91659858Y-57635675D01*
X91661838Y-57649023D01*
X91662500Y-57662500D01*
X91662500Y-57937500D01*
X91661838Y-57950977D01*
X91659858Y-57964325D01*
X91656579Y-57977414D01*
X91652033Y-57990119D01*
X91646264Y-58002317D01*
X91639327Y-58013891D01*
X91631289Y-58024729D01*
X91622227Y-58034727D01*
X91612229Y-58043789D01*
X91601391Y-58051827D01*
X91589817Y-58058764D01*
X91577619Y-58064533D01*
X91564914Y-58069079D01*
X91551825Y-58072358D01*
X91538477Y-58074338D01*
X91525000Y-58075000D01*
X90275000Y-58075000D01*
X90261523Y-58074338D01*
X90248175Y-58072358D01*
X90235086Y-58069079D01*
X90222381Y-58064533D01*
X90210183Y-58058764D01*
X90198609Y-58051827D01*
X90187771Y-58043789D01*
X90177773Y-58034727D01*
X90168711Y-58024729D01*
X90160673Y-58013891D01*
X90153736Y-58002317D01*
X90147967Y-57990119D01*
X90143421Y-57977414D01*
X90140142Y-57964325D01*
X90138162Y-57950977D01*
X90137500Y-57937500D01*
X90137500Y-57662500D01*
X90138162Y-57649023D01*
X90140142Y-57635675D01*
X90143421Y-57622586D01*
X90147967Y-57609881D01*
X90153736Y-57597683D01*
X90160673Y-57586109D01*
X90168711Y-57575271D01*
X90177773Y-57565273D01*
X90187771Y-57556211D01*
X90198609Y-57548173D01*
X90210183Y-57541236D01*
X90222381Y-57535467D01*
X90235086Y-57530921D01*
X90248175Y-57527642D01*
X90261523Y-57525662D01*
X90275000Y-57525000D01*
X91525000Y-57525000D01*
X91538477Y-57525662D01*
X91538477Y-57525662D01*
G37*
D12*
X90900000Y-57800000D03*
D10*
G36*
X91538477Y-59925662D02*
G01*
X91551825Y-59927642D01*
X91564914Y-59930921D01*
X91577619Y-59935467D01*
X91589817Y-59941236D01*
X91601391Y-59948173D01*
X91612229Y-59956211D01*
X91622227Y-59965273D01*
X91631289Y-59975271D01*
X91639327Y-59986109D01*
X91646264Y-59997683D01*
X91652033Y-60009881D01*
X91656579Y-60022586D01*
X91659858Y-60035675D01*
X91661838Y-60049023D01*
X91662500Y-60062500D01*
X91662500Y-60337500D01*
X91661838Y-60350977D01*
X91659858Y-60364325D01*
X91656579Y-60377414D01*
X91652033Y-60390119D01*
X91646264Y-60402317D01*
X91639327Y-60413891D01*
X91631289Y-60424729D01*
X91622227Y-60434727D01*
X91612229Y-60443789D01*
X91601391Y-60451827D01*
X91589817Y-60458764D01*
X91577619Y-60464533D01*
X91564914Y-60469079D01*
X91551825Y-60472358D01*
X91538477Y-60474338D01*
X91525000Y-60475000D01*
X90275000Y-60475000D01*
X90261523Y-60474338D01*
X90248175Y-60472358D01*
X90235086Y-60469079D01*
X90222381Y-60464533D01*
X90210183Y-60458764D01*
X90198609Y-60451827D01*
X90187771Y-60443789D01*
X90177773Y-60434727D01*
X90168711Y-60424729D01*
X90160673Y-60413891D01*
X90153736Y-60402317D01*
X90147967Y-60390119D01*
X90143421Y-60377414D01*
X90140142Y-60364325D01*
X90138162Y-60350977D01*
X90137500Y-60337500D01*
X90137500Y-60062500D01*
X90138162Y-60049023D01*
X90140142Y-60035675D01*
X90143421Y-60022586D01*
X90147967Y-60009881D01*
X90153736Y-59997683D01*
X90160673Y-59986109D01*
X90168711Y-59975271D01*
X90177773Y-59965273D01*
X90187771Y-59956211D01*
X90198609Y-59948173D01*
X90210183Y-59941236D01*
X90222381Y-59935467D01*
X90235086Y-59930921D01*
X90248175Y-59927642D01*
X90261523Y-59925662D01*
X90275000Y-59925000D01*
X91525000Y-59925000D01*
X91538477Y-59925662D01*
X91538477Y-59925662D01*
G37*
D12*
X90900000Y-60200000D03*
D10*
G36*
X91538477Y-60725662D02*
G01*
X91551825Y-60727642D01*
X91564914Y-60730921D01*
X91577619Y-60735467D01*
X91589817Y-60741236D01*
X91601391Y-60748173D01*
X91612229Y-60756211D01*
X91622227Y-60765273D01*
X91631289Y-60775271D01*
X91639327Y-60786109D01*
X91646264Y-60797683D01*
X91652033Y-60809881D01*
X91656579Y-60822586D01*
X91659858Y-60835675D01*
X91661838Y-60849023D01*
X91662500Y-60862500D01*
X91662500Y-61137500D01*
X91661838Y-61150977D01*
X91659858Y-61164325D01*
X91656579Y-61177414D01*
X91652033Y-61190119D01*
X91646264Y-61202317D01*
X91639327Y-61213891D01*
X91631289Y-61224729D01*
X91622227Y-61234727D01*
X91612229Y-61243789D01*
X91601391Y-61251827D01*
X91589817Y-61258764D01*
X91577619Y-61264533D01*
X91564914Y-61269079D01*
X91551825Y-61272358D01*
X91538477Y-61274338D01*
X91525000Y-61275000D01*
X90275000Y-61275000D01*
X90261523Y-61274338D01*
X90248175Y-61272358D01*
X90235086Y-61269079D01*
X90222381Y-61264533D01*
X90210183Y-61258764D01*
X90198609Y-61251827D01*
X90187771Y-61243789D01*
X90177773Y-61234727D01*
X90168711Y-61224729D01*
X90160673Y-61213891D01*
X90153736Y-61202317D01*
X90147967Y-61190119D01*
X90143421Y-61177414D01*
X90140142Y-61164325D01*
X90138162Y-61150977D01*
X90137500Y-61137500D01*
X90137500Y-60862500D01*
X90138162Y-60849023D01*
X90140142Y-60835675D01*
X90143421Y-60822586D01*
X90147967Y-60809881D01*
X90153736Y-60797683D01*
X90160673Y-60786109D01*
X90168711Y-60775271D01*
X90177773Y-60765273D01*
X90187771Y-60756211D01*
X90198609Y-60748173D01*
X90210183Y-60741236D01*
X90222381Y-60735467D01*
X90235086Y-60730921D01*
X90248175Y-60727642D01*
X90261523Y-60725662D01*
X90275000Y-60725000D01*
X91525000Y-60725000D01*
X91538477Y-60725662D01*
X91538477Y-60725662D01*
G37*
D12*
X90900000Y-61000000D03*
D10*
G36*
X91538477Y-61525662D02*
G01*
X91551825Y-61527642D01*
X91564914Y-61530921D01*
X91577619Y-61535467D01*
X91589817Y-61541236D01*
X91601391Y-61548173D01*
X91612229Y-61556211D01*
X91622227Y-61565273D01*
X91631289Y-61575271D01*
X91639327Y-61586109D01*
X91646264Y-61597683D01*
X91652033Y-61609881D01*
X91656579Y-61622586D01*
X91659858Y-61635675D01*
X91661838Y-61649023D01*
X91662500Y-61662500D01*
X91662500Y-61937500D01*
X91661838Y-61950977D01*
X91659858Y-61964325D01*
X91656579Y-61977414D01*
X91652033Y-61990119D01*
X91646264Y-62002317D01*
X91639327Y-62013891D01*
X91631289Y-62024729D01*
X91622227Y-62034727D01*
X91612229Y-62043789D01*
X91601391Y-62051827D01*
X91589817Y-62058764D01*
X91577619Y-62064533D01*
X91564914Y-62069079D01*
X91551825Y-62072358D01*
X91538477Y-62074338D01*
X91525000Y-62075000D01*
X90275000Y-62075000D01*
X90261523Y-62074338D01*
X90248175Y-62072358D01*
X90235086Y-62069079D01*
X90222381Y-62064533D01*
X90210183Y-62058764D01*
X90198609Y-62051827D01*
X90187771Y-62043789D01*
X90177773Y-62034727D01*
X90168711Y-62024729D01*
X90160673Y-62013891D01*
X90153736Y-62002317D01*
X90147967Y-61990119D01*
X90143421Y-61977414D01*
X90140142Y-61964325D01*
X90138162Y-61950977D01*
X90137500Y-61937500D01*
X90137500Y-61662500D01*
X90138162Y-61649023D01*
X90140142Y-61635675D01*
X90143421Y-61622586D01*
X90147967Y-61609881D01*
X90153736Y-61597683D01*
X90160673Y-61586109D01*
X90168711Y-61575271D01*
X90177773Y-61565273D01*
X90187771Y-61556211D01*
X90198609Y-61548173D01*
X90210183Y-61541236D01*
X90222381Y-61535467D01*
X90235086Y-61530921D01*
X90248175Y-61527642D01*
X90261523Y-61525662D01*
X90275000Y-61525000D01*
X91525000Y-61525000D01*
X91538477Y-61525662D01*
X91538477Y-61525662D01*
G37*
D12*
X90900000Y-61800000D03*
D10*
G36*
X91538477Y-62325662D02*
G01*
X91551825Y-62327642D01*
X91564914Y-62330921D01*
X91577619Y-62335467D01*
X91589817Y-62341236D01*
X91601391Y-62348173D01*
X91612229Y-62356211D01*
X91622227Y-62365273D01*
X91631289Y-62375271D01*
X91639327Y-62386109D01*
X91646264Y-62397683D01*
X91652033Y-62409881D01*
X91656579Y-62422586D01*
X91659858Y-62435675D01*
X91661838Y-62449023D01*
X91662500Y-62462500D01*
X91662500Y-62737500D01*
X91661838Y-62750977D01*
X91659858Y-62764325D01*
X91656579Y-62777414D01*
X91652033Y-62790119D01*
X91646264Y-62802317D01*
X91639327Y-62813891D01*
X91631289Y-62824729D01*
X91622227Y-62834727D01*
X91612229Y-62843789D01*
X91601391Y-62851827D01*
X91589817Y-62858764D01*
X91577619Y-62864533D01*
X91564914Y-62869079D01*
X91551825Y-62872358D01*
X91538477Y-62874338D01*
X91525000Y-62875000D01*
X90275000Y-62875000D01*
X90261523Y-62874338D01*
X90248175Y-62872358D01*
X90235086Y-62869079D01*
X90222381Y-62864533D01*
X90210183Y-62858764D01*
X90198609Y-62851827D01*
X90187771Y-62843789D01*
X90177773Y-62834727D01*
X90168711Y-62824729D01*
X90160673Y-62813891D01*
X90153736Y-62802317D01*
X90147967Y-62790119D01*
X90143421Y-62777414D01*
X90140142Y-62764325D01*
X90138162Y-62750977D01*
X90137500Y-62737500D01*
X90137500Y-62462500D01*
X90138162Y-62449023D01*
X90140142Y-62435675D01*
X90143421Y-62422586D01*
X90147967Y-62409881D01*
X90153736Y-62397683D01*
X90160673Y-62386109D01*
X90168711Y-62375271D01*
X90177773Y-62365273D01*
X90187771Y-62356211D01*
X90198609Y-62348173D01*
X90210183Y-62341236D01*
X90222381Y-62335467D01*
X90235086Y-62330921D01*
X90248175Y-62327642D01*
X90261523Y-62325662D01*
X90275000Y-62325000D01*
X91525000Y-62325000D01*
X91538477Y-62325662D01*
X91538477Y-62325662D01*
G37*
D12*
X90900000Y-62600000D03*
D10*
G36*
X91538477Y-63125662D02*
G01*
X91551825Y-63127642D01*
X91564914Y-63130921D01*
X91577619Y-63135467D01*
X91589817Y-63141236D01*
X91601391Y-63148173D01*
X91612229Y-63156211D01*
X91622227Y-63165273D01*
X91631289Y-63175271D01*
X91639327Y-63186109D01*
X91646264Y-63197683D01*
X91652033Y-63209881D01*
X91656579Y-63222586D01*
X91659858Y-63235675D01*
X91661838Y-63249023D01*
X91662500Y-63262500D01*
X91662500Y-63537500D01*
X91661838Y-63550977D01*
X91659858Y-63564325D01*
X91656579Y-63577414D01*
X91652033Y-63590119D01*
X91646264Y-63602317D01*
X91639327Y-63613891D01*
X91631289Y-63624729D01*
X91622227Y-63634727D01*
X91612229Y-63643789D01*
X91601391Y-63651827D01*
X91589817Y-63658764D01*
X91577619Y-63664533D01*
X91564914Y-63669079D01*
X91551825Y-63672358D01*
X91538477Y-63674338D01*
X91525000Y-63675000D01*
X90275000Y-63675000D01*
X90261523Y-63674338D01*
X90248175Y-63672358D01*
X90235086Y-63669079D01*
X90222381Y-63664533D01*
X90210183Y-63658764D01*
X90198609Y-63651827D01*
X90187771Y-63643789D01*
X90177773Y-63634727D01*
X90168711Y-63624729D01*
X90160673Y-63613891D01*
X90153736Y-63602317D01*
X90147967Y-63590119D01*
X90143421Y-63577414D01*
X90140142Y-63564325D01*
X90138162Y-63550977D01*
X90137500Y-63537500D01*
X90137500Y-63262500D01*
X90138162Y-63249023D01*
X90140142Y-63235675D01*
X90143421Y-63222586D01*
X90147967Y-63209881D01*
X90153736Y-63197683D01*
X90160673Y-63186109D01*
X90168711Y-63175271D01*
X90177773Y-63165273D01*
X90187771Y-63156211D01*
X90198609Y-63148173D01*
X90210183Y-63141236D01*
X90222381Y-63135467D01*
X90235086Y-63130921D01*
X90248175Y-63127642D01*
X90261523Y-63125662D01*
X90275000Y-63125000D01*
X91525000Y-63125000D01*
X91538477Y-63125662D01*
X91538477Y-63125662D01*
G37*
D12*
X90900000Y-63400000D03*
D10*
G36*
X91538477Y-63925662D02*
G01*
X91551825Y-63927642D01*
X91564914Y-63930921D01*
X91577619Y-63935467D01*
X91589817Y-63941236D01*
X91601391Y-63948173D01*
X91612229Y-63956211D01*
X91622227Y-63965273D01*
X91631289Y-63975271D01*
X91639327Y-63986109D01*
X91646264Y-63997683D01*
X91652033Y-64009881D01*
X91656579Y-64022586D01*
X91659858Y-64035675D01*
X91661838Y-64049023D01*
X91662500Y-64062500D01*
X91662500Y-64337500D01*
X91661838Y-64350977D01*
X91659858Y-64364325D01*
X91656579Y-64377414D01*
X91652033Y-64390119D01*
X91646264Y-64402317D01*
X91639327Y-64413891D01*
X91631289Y-64424729D01*
X91622227Y-64434727D01*
X91612229Y-64443789D01*
X91601391Y-64451827D01*
X91589817Y-64458764D01*
X91577619Y-64464533D01*
X91564914Y-64469079D01*
X91551825Y-64472358D01*
X91538477Y-64474338D01*
X91525000Y-64475000D01*
X90275000Y-64475000D01*
X90261523Y-64474338D01*
X90248175Y-64472358D01*
X90235086Y-64469079D01*
X90222381Y-64464533D01*
X90210183Y-64458764D01*
X90198609Y-64451827D01*
X90187771Y-64443789D01*
X90177773Y-64434727D01*
X90168711Y-64424729D01*
X90160673Y-64413891D01*
X90153736Y-64402317D01*
X90147967Y-64390119D01*
X90143421Y-64377414D01*
X90140142Y-64364325D01*
X90138162Y-64350977D01*
X90137500Y-64337500D01*
X90137500Y-64062500D01*
X90138162Y-64049023D01*
X90140142Y-64035675D01*
X90143421Y-64022586D01*
X90147967Y-64009881D01*
X90153736Y-63997683D01*
X90160673Y-63986109D01*
X90168711Y-63975271D01*
X90177773Y-63965273D01*
X90187771Y-63956211D01*
X90198609Y-63948173D01*
X90210183Y-63941236D01*
X90222381Y-63935467D01*
X90235086Y-63930921D01*
X90248175Y-63927642D01*
X90261523Y-63925662D01*
X90275000Y-63925000D01*
X91525000Y-63925000D01*
X91538477Y-63925662D01*
X91538477Y-63925662D01*
G37*
D12*
X90900000Y-64200000D03*
D10*
G36*
X91538477Y-64725662D02*
G01*
X91551825Y-64727642D01*
X91564914Y-64730921D01*
X91577619Y-64735467D01*
X91589817Y-64741236D01*
X91601391Y-64748173D01*
X91612229Y-64756211D01*
X91622227Y-64765273D01*
X91631289Y-64775271D01*
X91639327Y-64786109D01*
X91646264Y-64797683D01*
X91652033Y-64809881D01*
X91656579Y-64822586D01*
X91659858Y-64835675D01*
X91661838Y-64849023D01*
X91662500Y-64862500D01*
X91662500Y-65137500D01*
X91661838Y-65150977D01*
X91659858Y-65164325D01*
X91656579Y-65177414D01*
X91652033Y-65190119D01*
X91646264Y-65202317D01*
X91639327Y-65213891D01*
X91631289Y-65224729D01*
X91622227Y-65234727D01*
X91612229Y-65243789D01*
X91601391Y-65251827D01*
X91589817Y-65258764D01*
X91577619Y-65264533D01*
X91564914Y-65269079D01*
X91551825Y-65272358D01*
X91538477Y-65274338D01*
X91525000Y-65275000D01*
X90275000Y-65275000D01*
X90261523Y-65274338D01*
X90248175Y-65272358D01*
X90235086Y-65269079D01*
X90222381Y-65264533D01*
X90210183Y-65258764D01*
X90198609Y-65251827D01*
X90187771Y-65243789D01*
X90177773Y-65234727D01*
X90168711Y-65224729D01*
X90160673Y-65213891D01*
X90153736Y-65202317D01*
X90147967Y-65190119D01*
X90143421Y-65177414D01*
X90140142Y-65164325D01*
X90138162Y-65150977D01*
X90137500Y-65137500D01*
X90137500Y-64862500D01*
X90138162Y-64849023D01*
X90140142Y-64835675D01*
X90143421Y-64822586D01*
X90147967Y-64809881D01*
X90153736Y-64797683D01*
X90160673Y-64786109D01*
X90168711Y-64775271D01*
X90177773Y-64765273D01*
X90187771Y-64756211D01*
X90198609Y-64748173D01*
X90210183Y-64741236D01*
X90222381Y-64735467D01*
X90235086Y-64730921D01*
X90248175Y-64727642D01*
X90261523Y-64725662D01*
X90275000Y-64725000D01*
X91525000Y-64725000D01*
X91538477Y-64725662D01*
X91538477Y-64725662D01*
G37*
D12*
X90900000Y-65000000D03*
D10*
G36*
X91538477Y-65525662D02*
G01*
X91551825Y-65527642D01*
X91564914Y-65530921D01*
X91577619Y-65535467D01*
X91589817Y-65541236D01*
X91601391Y-65548173D01*
X91612229Y-65556211D01*
X91622227Y-65565273D01*
X91631289Y-65575271D01*
X91639327Y-65586109D01*
X91646264Y-65597683D01*
X91652033Y-65609881D01*
X91656579Y-65622586D01*
X91659858Y-65635675D01*
X91661838Y-65649023D01*
X91662500Y-65662500D01*
X91662500Y-65937500D01*
X91661838Y-65950977D01*
X91659858Y-65964325D01*
X91656579Y-65977414D01*
X91652033Y-65990119D01*
X91646264Y-66002317D01*
X91639327Y-66013891D01*
X91631289Y-66024729D01*
X91622227Y-66034727D01*
X91612229Y-66043789D01*
X91601391Y-66051827D01*
X91589817Y-66058764D01*
X91577619Y-66064533D01*
X91564914Y-66069079D01*
X91551825Y-66072358D01*
X91538477Y-66074338D01*
X91525000Y-66075000D01*
X90275000Y-66075000D01*
X90261523Y-66074338D01*
X90248175Y-66072358D01*
X90235086Y-66069079D01*
X90222381Y-66064533D01*
X90210183Y-66058764D01*
X90198609Y-66051827D01*
X90187771Y-66043789D01*
X90177773Y-66034727D01*
X90168711Y-66024729D01*
X90160673Y-66013891D01*
X90153736Y-66002317D01*
X90147967Y-65990119D01*
X90143421Y-65977414D01*
X90140142Y-65964325D01*
X90138162Y-65950977D01*
X90137500Y-65937500D01*
X90137500Y-65662500D01*
X90138162Y-65649023D01*
X90140142Y-65635675D01*
X90143421Y-65622586D01*
X90147967Y-65609881D01*
X90153736Y-65597683D01*
X90160673Y-65586109D01*
X90168711Y-65575271D01*
X90177773Y-65565273D01*
X90187771Y-65556211D01*
X90198609Y-65548173D01*
X90210183Y-65541236D01*
X90222381Y-65535467D01*
X90235086Y-65530921D01*
X90248175Y-65527642D01*
X90261523Y-65525662D01*
X90275000Y-65525000D01*
X91525000Y-65525000D01*
X91538477Y-65525662D01*
X91538477Y-65525662D01*
G37*
D12*
X90900000Y-65800000D03*
D10*
G36*
X91538477Y-66325662D02*
G01*
X91551825Y-66327642D01*
X91564914Y-66330921D01*
X91577619Y-66335467D01*
X91589817Y-66341236D01*
X91601391Y-66348173D01*
X91612229Y-66356211D01*
X91622227Y-66365273D01*
X91631289Y-66375271D01*
X91639327Y-66386109D01*
X91646264Y-66397683D01*
X91652033Y-66409881D01*
X91656579Y-66422586D01*
X91659858Y-66435675D01*
X91661838Y-66449023D01*
X91662500Y-66462500D01*
X91662500Y-66737500D01*
X91661838Y-66750977D01*
X91659858Y-66764325D01*
X91656579Y-66777414D01*
X91652033Y-66790119D01*
X91646264Y-66802317D01*
X91639327Y-66813891D01*
X91631289Y-66824729D01*
X91622227Y-66834727D01*
X91612229Y-66843789D01*
X91601391Y-66851827D01*
X91589817Y-66858764D01*
X91577619Y-66864533D01*
X91564914Y-66869079D01*
X91551825Y-66872358D01*
X91538477Y-66874338D01*
X91525000Y-66875000D01*
X90275000Y-66875000D01*
X90261523Y-66874338D01*
X90248175Y-66872358D01*
X90235086Y-66869079D01*
X90222381Y-66864533D01*
X90210183Y-66858764D01*
X90198609Y-66851827D01*
X90187771Y-66843789D01*
X90177773Y-66834727D01*
X90168711Y-66824729D01*
X90160673Y-66813891D01*
X90153736Y-66802317D01*
X90147967Y-66790119D01*
X90143421Y-66777414D01*
X90140142Y-66764325D01*
X90138162Y-66750977D01*
X90137500Y-66737500D01*
X90137500Y-66462500D01*
X90138162Y-66449023D01*
X90140142Y-66435675D01*
X90143421Y-66422586D01*
X90147967Y-66409881D01*
X90153736Y-66397683D01*
X90160673Y-66386109D01*
X90168711Y-66375271D01*
X90177773Y-66365273D01*
X90187771Y-66356211D01*
X90198609Y-66348173D01*
X90210183Y-66341236D01*
X90222381Y-66335467D01*
X90235086Y-66330921D01*
X90248175Y-66327642D01*
X90261523Y-66325662D01*
X90275000Y-66325000D01*
X91525000Y-66325000D01*
X91538477Y-66325662D01*
X91538477Y-66325662D01*
G37*
D12*
X90900000Y-66600000D03*
D10*
G36*
X91538477Y-67125662D02*
G01*
X91551825Y-67127642D01*
X91564914Y-67130921D01*
X91577619Y-67135467D01*
X91589817Y-67141236D01*
X91601391Y-67148173D01*
X91612229Y-67156211D01*
X91622227Y-67165273D01*
X91631289Y-67175271D01*
X91639327Y-67186109D01*
X91646264Y-67197683D01*
X91652033Y-67209881D01*
X91656579Y-67222586D01*
X91659858Y-67235675D01*
X91661838Y-67249023D01*
X91662500Y-67262500D01*
X91662500Y-67537500D01*
X91661838Y-67550977D01*
X91659858Y-67564325D01*
X91656579Y-67577414D01*
X91652033Y-67590119D01*
X91646264Y-67602317D01*
X91639327Y-67613891D01*
X91631289Y-67624729D01*
X91622227Y-67634727D01*
X91612229Y-67643789D01*
X91601391Y-67651827D01*
X91589817Y-67658764D01*
X91577619Y-67664533D01*
X91564914Y-67669079D01*
X91551825Y-67672358D01*
X91538477Y-67674338D01*
X91525000Y-67675000D01*
X90275000Y-67675000D01*
X90261523Y-67674338D01*
X90248175Y-67672358D01*
X90235086Y-67669079D01*
X90222381Y-67664533D01*
X90210183Y-67658764D01*
X90198609Y-67651827D01*
X90187771Y-67643789D01*
X90177773Y-67634727D01*
X90168711Y-67624729D01*
X90160673Y-67613891D01*
X90153736Y-67602317D01*
X90147967Y-67590119D01*
X90143421Y-67577414D01*
X90140142Y-67564325D01*
X90138162Y-67550977D01*
X90137500Y-67537500D01*
X90137500Y-67262500D01*
X90138162Y-67249023D01*
X90140142Y-67235675D01*
X90143421Y-67222586D01*
X90147967Y-67209881D01*
X90153736Y-67197683D01*
X90160673Y-67186109D01*
X90168711Y-67175271D01*
X90177773Y-67165273D01*
X90187771Y-67156211D01*
X90198609Y-67148173D01*
X90210183Y-67141236D01*
X90222381Y-67135467D01*
X90235086Y-67130921D01*
X90248175Y-67127642D01*
X90261523Y-67125662D01*
X90275000Y-67125000D01*
X91525000Y-67125000D01*
X91538477Y-67125662D01*
X91538477Y-67125662D01*
G37*
D12*
X90900000Y-67400000D03*
M02*
