G04 #@! TF.GenerationSoftware,KiCad,Pcbnew,(5.1.4)-1*
G04 #@! TF.CreationDate,2019-12-18T13:49:35-05:00*
G04 #@! TF.ProjectId,a500plus-chipram-expansion,61353030-706c-4757-932d-636869707261,rev?*
G04 #@! TF.SameCoordinates,Original*
G04 #@! TF.FileFunction,Legend,Top*
G04 #@! TF.FilePolarity,Positive*
%FSLAX46Y46*%
G04 Gerber Fmt 4.6, Leading zero omitted, Abs format (unit mm)*
G04 Created by KiCad (PCBNEW (5.1.4)-1) date 2019-12-18 13:49:35*
%MOMM*%
%LPD*%
G04 APERTURE LIST*
%ADD10C,0.200000*%
%ADD11C,0.120000*%
%ADD12C,0.150000*%
%ADD13C,0.180000*%
G04 APERTURE END LIST*
D10*
X87550000Y-83200000D02*
X91050000Y-83200000D01*
D11*
X89300000Y-83200000D02*
X87550000Y-83200000D01*
D10*
X87550000Y-78700000D02*
X89300000Y-76950000D01*
X89300000Y-76950000D02*
X89300000Y-83200000D01*
X87300000Y-82950000D02*
X90800000Y-82950000D01*
D11*
X89050000Y-82950000D02*
X87300000Y-82950000D01*
D10*
X87300000Y-78450000D02*
X89050000Y-76700000D01*
X89050000Y-76700000D02*
X89050000Y-82950000D01*
X87050000Y-82700000D02*
X90550000Y-82700000D01*
D11*
X88800000Y-82700000D02*
X87050000Y-82700000D01*
D10*
X87050000Y-78200000D02*
X88800000Y-76450000D01*
X88800000Y-76450000D02*
X88800000Y-82700000D01*
D12*
X83035714Y-84452380D02*
X82464285Y-84452380D01*
X82750000Y-84452380D02*
X82750000Y-83452380D01*
X82654761Y-83595238D01*
X82559523Y-83690476D01*
X82464285Y-83738095D01*
X71547619Y-63480952D02*
X71500000Y-63433333D01*
X71452380Y-63338095D01*
X71452380Y-63100000D01*
X71500000Y-63004761D01*
X71547619Y-62957142D01*
X71642857Y-62909523D01*
X71738095Y-62909523D01*
X71880952Y-62957142D01*
X72452380Y-63528571D01*
X72452380Y-62909523D01*
X72452380Y-62576190D02*
X71785714Y-62052380D01*
X71785714Y-62576190D02*
X72452380Y-62052380D01*
X71547619Y-61719047D02*
X71500000Y-61671428D01*
X71452380Y-61576190D01*
X71452380Y-61338095D01*
X71500000Y-61242857D01*
X71547619Y-61195238D01*
X71642857Y-61147619D01*
X71738095Y-61147619D01*
X71880952Y-61195238D01*
X72452380Y-61766666D01*
X72452380Y-61147619D01*
X71452380Y-60528571D02*
X71452380Y-60433333D01*
X71500000Y-60338095D01*
X71547619Y-60290476D01*
X71642857Y-60242857D01*
X71833333Y-60195238D01*
X72071428Y-60195238D01*
X72261904Y-60242857D01*
X72357142Y-60290476D01*
X72404761Y-60338095D01*
X72452380Y-60433333D01*
X72452380Y-60528571D01*
X72404761Y-60623809D01*
X72357142Y-60671428D01*
X72261904Y-60719047D01*
X72071428Y-60766666D01*
X71833333Y-60766666D01*
X71642857Y-60719047D01*
X71547619Y-60671428D01*
X71500000Y-60623809D01*
X71452380Y-60528571D01*
X71547619Y-59052380D02*
X71500000Y-59004761D01*
X71452380Y-58909523D01*
X71452380Y-58671428D01*
X71500000Y-58576190D01*
X71547619Y-58528571D01*
X71642857Y-58480952D01*
X71738095Y-58480952D01*
X71880952Y-58528571D01*
X72452380Y-59100000D01*
X72452380Y-58480952D01*
X72357142Y-58052380D02*
X72404761Y-58004761D01*
X72452380Y-58052380D01*
X72404761Y-58100000D01*
X72357142Y-58052380D01*
X72452380Y-58052380D01*
X71452380Y-57100000D02*
X71452380Y-57576190D01*
X71928571Y-57623809D01*
X71880952Y-57576190D01*
X71833333Y-57480952D01*
X71833333Y-57242857D01*
X71880952Y-57147619D01*
X71928571Y-57100000D01*
X72023809Y-57052380D01*
X72261904Y-57052380D01*
X72357142Y-57100000D01*
X72404761Y-57147619D01*
X72452380Y-57242857D01*
X72452380Y-57480952D01*
X72404761Y-57576190D01*
X72357142Y-57623809D01*
X71785714Y-56195238D02*
X72452380Y-56195238D01*
X71404761Y-56433333D02*
X72119047Y-56671428D01*
X72119047Y-56052380D01*
X72452380Y-55671428D02*
X71785714Y-55671428D01*
X71880952Y-55671428D02*
X71833333Y-55623809D01*
X71785714Y-55528571D01*
X71785714Y-55385714D01*
X71833333Y-55290476D01*
X71928571Y-55242857D01*
X72452380Y-55242857D01*
X71928571Y-55242857D02*
X71833333Y-55195238D01*
X71785714Y-55100000D01*
X71785714Y-54957142D01*
X71833333Y-54861904D01*
X71928571Y-54814285D01*
X72452380Y-54814285D01*
X72452380Y-54338095D02*
X71785714Y-54338095D01*
X71880952Y-54338095D02*
X71833333Y-54290476D01*
X71785714Y-54195238D01*
X71785714Y-54052380D01*
X71833333Y-53957142D01*
X71928571Y-53909523D01*
X72452380Y-53909523D01*
X71928571Y-53909523D02*
X71833333Y-53861904D01*
X71785714Y-53766666D01*
X71785714Y-53623809D01*
X71833333Y-53528571D01*
X71928571Y-53480952D01*
X72452380Y-53480952D01*
X72357142Y-51671428D02*
X72404761Y-51719047D01*
X72452380Y-51861904D01*
X72452380Y-51957142D01*
X72404761Y-52100000D01*
X72309523Y-52195238D01*
X72214285Y-52242857D01*
X72023809Y-52290476D01*
X71880952Y-52290476D01*
X71690476Y-52242857D01*
X71595238Y-52195238D01*
X71500000Y-52100000D01*
X71452380Y-51957142D01*
X71452380Y-51861904D01*
X71500000Y-51719047D01*
X71547619Y-51671428D01*
X71452380Y-51052380D02*
X71452380Y-50861904D01*
X71500000Y-50766666D01*
X71595238Y-50671428D01*
X71785714Y-50623809D01*
X72119047Y-50623809D01*
X72309523Y-50671428D01*
X72404761Y-50766666D01*
X72452380Y-50861904D01*
X72452380Y-51052380D01*
X72404761Y-51147619D01*
X72309523Y-51242857D01*
X72119047Y-51290476D01*
X71785714Y-51290476D01*
X71595238Y-51242857D01*
X71500000Y-51147619D01*
X71452380Y-51052380D01*
X72452380Y-50195238D02*
X71452380Y-50195238D01*
X72452380Y-49623809D01*
X71452380Y-49623809D01*
X72452380Y-49147619D02*
X71452380Y-49147619D01*
X72452380Y-48576190D01*
X71452380Y-48576190D01*
X71928571Y-48100000D02*
X71928571Y-47766666D01*
X72452380Y-47623809D02*
X72452380Y-48100000D01*
X71452380Y-48100000D01*
X71452380Y-47623809D01*
X72357142Y-46623809D02*
X72404761Y-46671428D01*
X72452380Y-46814285D01*
X72452380Y-46909523D01*
X72404761Y-47052380D01*
X72309523Y-47147619D01*
X72214285Y-47195238D01*
X72023809Y-47242857D01*
X71880952Y-47242857D01*
X71690476Y-47195238D01*
X71595238Y-47147619D01*
X71500000Y-47052380D01*
X71452380Y-46909523D01*
X71452380Y-46814285D01*
X71500000Y-46671428D01*
X71547619Y-46623809D01*
X71452380Y-46338095D02*
X71452380Y-45766666D01*
X72452380Y-46052380D02*
X71452380Y-46052380D01*
X71452380Y-45242857D02*
X71452380Y-45052380D01*
X71500000Y-44957142D01*
X71595238Y-44861904D01*
X71785714Y-44814285D01*
X72119047Y-44814285D01*
X72309523Y-44861904D01*
X72404761Y-44957142D01*
X72452380Y-45052380D01*
X72452380Y-45242857D01*
X72404761Y-45338095D01*
X72309523Y-45433333D01*
X72119047Y-45480952D01*
X71785714Y-45480952D01*
X71595238Y-45433333D01*
X71500000Y-45338095D01*
X71452380Y-45242857D01*
X72452380Y-43814285D02*
X71976190Y-44147619D01*
X72452380Y-44385714D02*
X71452380Y-44385714D01*
X71452380Y-44004761D01*
X71500000Y-43909523D01*
X71547619Y-43861904D01*
X71642857Y-43814285D01*
X71785714Y-43814285D01*
X71880952Y-43861904D01*
X71928571Y-43909523D01*
X71976190Y-44004761D01*
X71976190Y-44385714D01*
X71452380Y-42766666D02*
X71452380Y-42195238D01*
X72452380Y-42480952D02*
X71452380Y-42480952D01*
X72452380Y-41861904D02*
X71452380Y-41861904D01*
X71928571Y-41861904D02*
X71928571Y-41290476D01*
X72452380Y-41290476D02*
X71452380Y-41290476D01*
X72452380Y-40814285D02*
X71452380Y-40814285D01*
X72404761Y-40385714D02*
X72452380Y-40242857D01*
X72452380Y-40004761D01*
X72404761Y-39909523D01*
X72357142Y-39861904D01*
X72261904Y-39814285D01*
X72166666Y-39814285D01*
X72071428Y-39861904D01*
X72023809Y-39909523D01*
X71976190Y-40004761D01*
X71928571Y-40195238D01*
X71880952Y-40290476D01*
X71833333Y-40338095D01*
X71738095Y-40385714D01*
X71642857Y-40385714D01*
X71547619Y-40338095D01*
X71500000Y-40290476D01*
X71452380Y-40195238D01*
X71452380Y-39957142D01*
X71500000Y-39814285D01*
X72404761Y-38671428D02*
X72452380Y-38528571D01*
X72452380Y-38290476D01*
X72404761Y-38195238D01*
X72357142Y-38147619D01*
X72261904Y-38100000D01*
X72166666Y-38100000D01*
X72071428Y-38147619D01*
X72023809Y-38195238D01*
X71976190Y-38290476D01*
X71928571Y-38480952D01*
X71880952Y-38576190D01*
X71833333Y-38623809D01*
X71738095Y-38671428D01*
X71642857Y-38671428D01*
X71547619Y-38623809D01*
X71500000Y-38576190D01*
X71452380Y-38480952D01*
X71452380Y-38242857D01*
X71500000Y-38100000D01*
X72452380Y-37671428D02*
X71452380Y-37671428D01*
X72452380Y-37195238D02*
X71452380Y-37195238D01*
X71452380Y-36957142D01*
X71500000Y-36814285D01*
X71595238Y-36719047D01*
X71690476Y-36671428D01*
X71880952Y-36623809D01*
X72023809Y-36623809D01*
X72214285Y-36671428D01*
X72309523Y-36719047D01*
X72404761Y-36814285D01*
X72452380Y-36957142D01*
X72452380Y-37195238D01*
X71928571Y-36195238D02*
X71928571Y-35861904D01*
X72452380Y-35719047D02*
X72452380Y-36195238D01*
X71452380Y-36195238D01*
X71452380Y-35719047D01*
X60277619Y-55505952D02*
X60277619Y-55029761D01*
X59801428Y-54982142D01*
X59849047Y-55029761D01*
X59896666Y-55125000D01*
X59896666Y-55363095D01*
X59849047Y-55458333D01*
X59801428Y-55505952D01*
X59706190Y-55553571D01*
X59468095Y-55553571D01*
X59372857Y-55505952D01*
X59325238Y-55458333D01*
X59277619Y-55363095D01*
X59277619Y-55125000D01*
X59325238Y-55029761D01*
X59372857Y-54982142D01*
X59277619Y-56505952D02*
X59277619Y-55934523D01*
X59277619Y-56220238D02*
X60277619Y-56220238D01*
X60134761Y-56125000D01*
X60039523Y-56029761D01*
X59991904Y-55934523D01*
X59372857Y-56934523D02*
X59325238Y-56982142D01*
X59277619Y-56934523D01*
X59325238Y-56886904D01*
X59372857Y-56934523D01*
X59277619Y-56934523D01*
X60277619Y-57315476D02*
X60277619Y-57982142D01*
X59277619Y-57553571D01*
X60277619Y-58839285D02*
X60277619Y-58363095D01*
X59801428Y-58315476D01*
X59849047Y-58363095D01*
X59896666Y-58458333D01*
X59896666Y-58696428D01*
X59849047Y-58791666D01*
X59801428Y-58839285D01*
X59706190Y-58886904D01*
X59468095Y-58886904D01*
X59372857Y-58839285D01*
X59325238Y-58791666D01*
X59277619Y-58696428D01*
X59277619Y-58458333D01*
X59325238Y-58363095D01*
X59372857Y-58315476D01*
X60277619Y-59505952D02*
X60277619Y-59601190D01*
X60230000Y-59696428D01*
X60182380Y-59744047D01*
X60087142Y-59791666D01*
X59896666Y-59839285D01*
X59658571Y-59839285D01*
X59468095Y-59791666D01*
X59372857Y-59744047D01*
X59325238Y-59696428D01*
X59277619Y-59601190D01*
X59277619Y-59505952D01*
X59325238Y-59410714D01*
X59372857Y-59363095D01*
X59468095Y-59315476D01*
X59658571Y-59267857D01*
X59896666Y-59267857D01*
X60087142Y-59315476D01*
X60182380Y-59363095D01*
X60230000Y-59410714D01*
X60277619Y-59505952D01*
X59277619Y-61029761D02*
X59944285Y-61029761D01*
X59849047Y-61029761D02*
X59896666Y-61077380D01*
X59944285Y-61172619D01*
X59944285Y-61315476D01*
X59896666Y-61410714D01*
X59801428Y-61458333D01*
X59277619Y-61458333D01*
X59801428Y-61458333D02*
X59896666Y-61505952D01*
X59944285Y-61601190D01*
X59944285Y-61744047D01*
X59896666Y-61839285D01*
X59801428Y-61886904D01*
X59277619Y-61886904D01*
X59277619Y-62363095D02*
X59944285Y-62363095D01*
X59849047Y-62363095D02*
X59896666Y-62410714D01*
X59944285Y-62505952D01*
X59944285Y-62648809D01*
X59896666Y-62744047D01*
X59801428Y-62791666D01*
X59277619Y-62791666D01*
X59801428Y-62791666D02*
X59896666Y-62839285D01*
X59944285Y-62934523D01*
X59944285Y-63077380D01*
X59896666Y-63172619D01*
X59801428Y-63220238D01*
X59277619Y-63220238D01*
D11*
X61000000Y-33250000D02*
X61000000Y-85000000D01*
X63750000Y-33250000D02*
X60413579Y-33250000D01*
X63750000Y-85000000D02*
X60413579Y-85000000D01*
X61000000Y-85000000D02*
X60413579Y-83873496D01*
X61000000Y-85000000D02*
X61586421Y-83873496D01*
X61000000Y-33250000D02*
X60413579Y-34376504D01*
X61000000Y-33250000D02*
X61586421Y-34376504D01*
D12*
X85708333Y-23765714D02*
X85708333Y-24432380D01*
X85470238Y-23384761D02*
X85232142Y-24099047D01*
X85851190Y-24099047D01*
X86755952Y-24432380D02*
X86184523Y-24432380D01*
X86470238Y-24432380D02*
X86470238Y-23432380D01*
X86375000Y-23575238D01*
X86279761Y-23670476D01*
X86184523Y-23718095D01*
X87184523Y-24337142D02*
X87232142Y-24384761D01*
X87184523Y-24432380D01*
X87136904Y-24384761D01*
X87184523Y-24337142D01*
X87184523Y-24432380D01*
X87613095Y-23527619D02*
X87660714Y-23480000D01*
X87755952Y-23432380D01*
X87994047Y-23432380D01*
X88089285Y-23480000D01*
X88136904Y-23527619D01*
X88184523Y-23622857D01*
X88184523Y-23718095D01*
X88136904Y-23860952D01*
X87565476Y-24432380D01*
X88184523Y-24432380D01*
X89089285Y-23432380D02*
X88613095Y-23432380D01*
X88565476Y-23908571D01*
X88613095Y-23860952D01*
X88708333Y-23813333D01*
X88946428Y-23813333D01*
X89041666Y-23860952D01*
X89089285Y-23908571D01*
X89136904Y-24003809D01*
X89136904Y-24241904D01*
X89089285Y-24337142D01*
X89041666Y-24384761D01*
X88946428Y-24432380D01*
X88708333Y-24432380D01*
X88613095Y-24384761D01*
X88565476Y-24337142D01*
X89755952Y-23432380D02*
X89851190Y-23432380D01*
X89946428Y-23480000D01*
X89994047Y-23527619D01*
X90041666Y-23622857D01*
X90089285Y-23813333D01*
X90089285Y-24051428D01*
X90041666Y-24241904D01*
X89994047Y-24337142D01*
X89946428Y-24384761D01*
X89851190Y-24432380D01*
X89755952Y-24432380D01*
X89660714Y-24384761D01*
X89613095Y-24337142D01*
X89565476Y-24241904D01*
X89517857Y-24051428D01*
X89517857Y-23813333D01*
X89565476Y-23622857D01*
X89613095Y-23527619D01*
X89660714Y-23480000D01*
X89755952Y-23432380D01*
X91279761Y-24432380D02*
X91279761Y-23765714D01*
X91279761Y-23860952D02*
X91327380Y-23813333D01*
X91422619Y-23765714D01*
X91565476Y-23765714D01*
X91660714Y-23813333D01*
X91708333Y-23908571D01*
X91708333Y-24432380D01*
X91708333Y-23908571D02*
X91755952Y-23813333D01*
X91851190Y-23765714D01*
X91994047Y-23765714D01*
X92089285Y-23813333D01*
X92136904Y-23908571D01*
X92136904Y-24432380D01*
X92613095Y-24432380D02*
X92613095Y-23765714D01*
X92613095Y-23860952D02*
X92660714Y-23813333D01*
X92755952Y-23765714D01*
X92898809Y-23765714D01*
X92994047Y-23813333D01*
X93041666Y-23908571D01*
X93041666Y-24432380D01*
X93041666Y-23908571D02*
X93089285Y-23813333D01*
X93184523Y-23765714D01*
X93327380Y-23765714D01*
X93422619Y-23813333D01*
X93470238Y-23908571D01*
X93470238Y-24432380D01*
D11*
X68750000Y-25250000D02*
X110000000Y-25250000D01*
X68750000Y-27000000D02*
X68750000Y-24663579D01*
X110000000Y-27000000D02*
X110000000Y-24663579D01*
X110000000Y-25250000D02*
X108873496Y-25836421D01*
X110000000Y-25250000D02*
X108873496Y-24663579D01*
X68750000Y-25250000D02*
X69876504Y-25836421D01*
X68750000Y-25250000D02*
X69876504Y-24663579D01*
D12*
X71341666Y-79326071D02*
X71341666Y-78849880D01*
X71627380Y-79421309D02*
X70627380Y-79087976D01*
X71627380Y-78754642D01*
X71627380Y-78421309D02*
X70960714Y-78421309D01*
X71151190Y-78421309D02*
X71055952Y-78373690D01*
X71008333Y-78326071D01*
X70960714Y-78230833D01*
X70960714Y-78135595D01*
X71579761Y-77373690D02*
X71627380Y-77468928D01*
X71627380Y-77659404D01*
X71579761Y-77754642D01*
X71532142Y-77802261D01*
X71436904Y-77849880D01*
X71151190Y-77849880D01*
X71055952Y-77802261D01*
X71008333Y-77754642D01*
X70960714Y-77659404D01*
X70960714Y-77468928D01*
X71008333Y-77373690D01*
X71627380Y-76945119D02*
X70627380Y-76945119D01*
X71627380Y-76516547D02*
X71103571Y-76516547D01*
X71008333Y-76564166D01*
X70960714Y-76659404D01*
X70960714Y-76802261D01*
X71008333Y-76897500D01*
X71055952Y-76945119D01*
X71579761Y-75659404D02*
X71627380Y-75754642D01*
X71627380Y-75945119D01*
X71579761Y-76040357D01*
X71484523Y-76087976D01*
X71103571Y-76087976D01*
X71008333Y-76040357D01*
X70960714Y-75945119D01*
X70960714Y-75754642D01*
X71008333Y-75659404D01*
X71103571Y-75611785D01*
X71198809Y-75611785D01*
X71294047Y-76087976D01*
X71627380Y-75183214D02*
X70960714Y-75183214D01*
X71151190Y-75183214D02*
X71055952Y-75135595D01*
X71008333Y-75087976D01*
X70960714Y-74992738D01*
X70960714Y-74897500D01*
X70960714Y-73897500D02*
X71627380Y-73659404D01*
X70960714Y-73421309D01*
X70722619Y-73087976D02*
X70675000Y-73040357D01*
X70627380Y-72945119D01*
X70627380Y-72707023D01*
X70675000Y-72611785D01*
X70722619Y-72564166D01*
X70817857Y-72516547D01*
X70913095Y-72516547D01*
X71055952Y-72564166D01*
X71627380Y-73135595D01*
X71627380Y-72516547D01*
X71532142Y-72087976D02*
X71579761Y-72040357D01*
X71627380Y-72087976D01*
X71579761Y-72135595D01*
X71532142Y-72087976D01*
X71627380Y-72087976D01*
X70627380Y-71421309D02*
X70627380Y-71326071D01*
X70675000Y-71230833D01*
X70722619Y-71183214D01*
X70817857Y-71135595D01*
X71008333Y-71087976D01*
X71246428Y-71087976D01*
X71436904Y-71135595D01*
X71532142Y-71183214D01*
X71579761Y-71230833D01*
X71627380Y-71326071D01*
X71627380Y-71421309D01*
X71579761Y-71516547D01*
X71532142Y-71564166D01*
X71436904Y-71611785D01*
X71246428Y-71659404D01*
X71008333Y-71659404D01*
X70817857Y-71611785D01*
X70722619Y-71564166D01*
X70675000Y-71516547D01*
X70627380Y-71421309D01*
X72801190Y-81659404D02*
X72753571Y-81707023D01*
X72705952Y-81802261D01*
X72705952Y-81897500D01*
X72753571Y-81992738D01*
X72801190Y-82040357D01*
X72896428Y-82087976D01*
X72991666Y-82087976D01*
X73086904Y-82040357D01*
X73134523Y-81992738D01*
X73182142Y-81897500D01*
X73182142Y-81802261D01*
X73134523Y-81707023D01*
X73086904Y-81659404D01*
X72705952Y-81659404D02*
X73086904Y-81659404D01*
X73134523Y-81611785D01*
X73134523Y-81564166D01*
X73086904Y-81468928D01*
X72991666Y-81421309D01*
X72753571Y-81421309D01*
X72610714Y-81516547D01*
X72515476Y-81659404D01*
X72467857Y-81849880D01*
X72515476Y-82040357D01*
X72610714Y-82183214D01*
X72753571Y-82278452D01*
X72944047Y-82326071D01*
X73134523Y-82278452D01*
X73277380Y-82183214D01*
X73372619Y-82040357D01*
X73420238Y-81849880D01*
X73372619Y-81659404D01*
X73277380Y-81516547D01*
X73277380Y-80992738D02*
X72610714Y-80992738D01*
X72705952Y-80992738D02*
X72658333Y-80945119D01*
X72610714Y-80849880D01*
X72610714Y-80707023D01*
X72658333Y-80611785D01*
X72753571Y-80564166D01*
X73277380Y-80564166D01*
X72753571Y-80564166D02*
X72658333Y-80516547D01*
X72610714Y-80421309D01*
X72610714Y-80278452D01*
X72658333Y-80183214D01*
X72753571Y-80135595D01*
X73277380Y-80135595D01*
X73277380Y-79230833D02*
X72753571Y-79230833D01*
X72658333Y-79278452D01*
X72610714Y-79373690D01*
X72610714Y-79564166D01*
X72658333Y-79659404D01*
X73229761Y-79230833D02*
X73277380Y-79326071D01*
X73277380Y-79564166D01*
X73229761Y-79659404D01*
X73134523Y-79707023D01*
X73039285Y-79707023D01*
X72944047Y-79659404D01*
X72896428Y-79564166D01*
X72896428Y-79326071D01*
X72848809Y-79230833D01*
X73277380Y-78754642D02*
X72610714Y-78754642D01*
X72801190Y-78754642D02*
X72705952Y-78707023D01*
X72658333Y-78659404D01*
X72610714Y-78564166D01*
X72610714Y-78468928D01*
X73277380Y-78135595D02*
X72277380Y-78135595D01*
X72896428Y-78040357D02*
X73277380Y-77754642D01*
X72610714Y-77754642D02*
X72991666Y-78135595D01*
X73277380Y-77326071D02*
X72277380Y-77326071D01*
X72658333Y-77326071D02*
X72610714Y-77230833D01*
X72610714Y-77040357D01*
X72658333Y-76945119D01*
X72705952Y-76897500D01*
X72801190Y-76849880D01*
X73086904Y-76849880D01*
X73182142Y-76897500D01*
X73229761Y-76945119D01*
X73277380Y-77040357D01*
X73277380Y-77230833D01*
X73229761Y-77326071D01*
X73277380Y-75992738D02*
X72753571Y-75992738D01*
X72658333Y-76040357D01*
X72610714Y-76135595D01*
X72610714Y-76326071D01*
X72658333Y-76421309D01*
X73229761Y-75992738D02*
X73277380Y-76087976D01*
X73277380Y-76326071D01*
X73229761Y-76421309D01*
X73134523Y-76468928D01*
X73039285Y-76468928D01*
X72944047Y-76421309D01*
X72896428Y-76326071D01*
X72896428Y-76087976D01*
X72848809Y-75992738D01*
X73229761Y-75564166D02*
X73277380Y-75468928D01*
X73277380Y-75278452D01*
X73229761Y-75183214D01*
X73134523Y-75135595D01*
X73086904Y-75135595D01*
X72991666Y-75183214D01*
X72944047Y-75278452D01*
X72944047Y-75421309D01*
X72896428Y-75516547D01*
X72801190Y-75564166D01*
X72753571Y-75564166D01*
X72658333Y-75516547D01*
X72610714Y-75421309D01*
X72610714Y-75278452D01*
X72658333Y-75183214D01*
X73229761Y-74326071D02*
X73277380Y-74421309D01*
X73277380Y-74611785D01*
X73229761Y-74707023D01*
X73134523Y-74754642D01*
X72753571Y-74754642D01*
X72658333Y-74707023D01*
X72610714Y-74611785D01*
X72610714Y-74421309D01*
X72658333Y-74326071D01*
X72753571Y-74278452D01*
X72848809Y-74278452D01*
X72944047Y-74754642D01*
X72610714Y-73421309D02*
X73420238Y-73421309D01*
X73515476Y-73468928D01*
X73563095Y-73516547D01*
X73610714Y-73611785D01*
X73610714Y-73754642D01*
X73563095Y-73849880D01*
X73229761Y-73421309D02*
X73277380Y-73516547D01*
X73277380Y-73707023D01*
X73229761Y-73802261D01*
X73182142Y-73849880D01*
X73086904Y-73897500D01*
X72801190Y-73897500D01*
X72705952Y-73849880D01*
X72658333Y-73802261D01*
X72610714Y-73707023D01*
X72610714Y-73516547D01*
X72658333Y-73421309D01*
X72610714Y-72516547D02*
X73420238Y-72516547D01*
X73515476Y-72564166D01*
X73563095Y-72611785D01*
X73610714Y-72707023D01*
X73610714Y-72849880D01*
X73563095Y-72945119D01*
X73229761Y-72516547D02*
X73277380Y-72611785D01*
X73277380Y-72802261D01*
X73229761Y-72897500D01*
X73182142Y-72945119D01*
X73086904Y-72992738D01*
X72801190Y-72992738D01*
X72705952Y-72945119D01*
X72658333Y-72897500D01*
X72610714Y-72802261D01*
X72610714Y-72611785D01*
X72658333Y-72516547D01*
X73277380Y-72040357D02*
X72610714Y-72040357D01*
X72277380Y-72040357D02*
X72325000Y-72087976D01*
X72372619Y-72040357D01*
X72325000Y-71992738D01*
X72277380Y-72040357D01*
X72372619Y-72040357D01*
X73277380Y-71421309D02*
X73229761Y-71516547D01*
X73182142Y-71564166D01*
X73086904Y-71611785D01*
X72801190Y-71611785D01*
X72705952Y-71564166D01*
X72658333Y-71516547D01*
X72610714Y-71421309D01*
X72610714Y-71278452D01*
X72658333Y-71183214D01*
X72705952Y-71135595D01*
X72801190Y-71087976D01*
X73086904Y-71087976D01*
X73182142Y-71135595D01*
X73229761Y-71183214D01*
X73277380Y-71278452D01*
X73277380Y-71421309D01*
D13*
X90355095Y-79112380D02*
X90355095Y-78112380D01*
X90688428Y-78826666D01*
X91021761Y-78112380D01*
X91021761Y-79112380D01*
X91831285Y-78588571D02*
X91974142Y-78636190D01*
X92021761Y-78683809D01*
X92069380Y-78779047D01*
X92069380Y-78921904D01*
X92021761Y-79017142D01*
X91974142Y-79064761D01*
X91878904Y-79112380D01*
X91497952Y-79112380D01*
X91497952Y-78112380D01*
X91831285Y-78112380D01*
X91926523Y-78160000D01*
X91974142Y-78207619D01*
X92021761Y-78302857D01*
X92021761Y-78398095D01*
X91974142Y-78493333D01*
X91926523Y-78540952D01*
X91831285Y-78588571D01*
X91497952Y-78588571D01*
X93831285Y-79017142D02*
X93783666Y-79064761D01*
X93640809Y-79112380D01*
X93545571Y-79112380D01*
X93402714Y-79064761D01*
X93307476Y-78969523D01*
X93259857Y-78874285D01*
X93212238Y-78683809D01*
X93212238Y-78540952D01*
X93259857Y-78350476D01*
X93307476Y-78255238D01*
X93402714Y-78160000D01*
X93545571Y-78112380D01*
X93640809Y-78112380D01*
X93783666Y-78160000D01*
X93831285Y-78207619D01*
X94259857Y-79112380D02*
X94259857Y-78112380D01*
X94688428Y-79112380D02*
X94688428Y-78588571D01*
X94640809Y-78493333D01*
X94545571Y-78445714D01*
X94402714Y-78445714D01*
X94307476Y-78493333D01*
X94259857Y-78540952D01*
X95164619Y-79112380D02*
X95164619Y-78445714D01*
X95164619Y-78112380D02*
X95117000Y-78160000D01*
X95164619Y-78207619D01*
X95212238Y-78160000D01*
X95164619Y-78112380D01*
X95164619Y-78207619D01*
X95640809Y-78445714D02*
X95640809Y-79445714D01*
X95640809Y-78493333D02*
X95736047Y-78445714D01*
X95926523Y-78445714D01*
X96021761Y-78493333D01*
X96069380Y-78540952D01*
X96117000Y-78636190D01*
X96117000Y-78921904D01*
X96069380Y-79017142D01*
X96021761Y-79064761D01*
X95926523Y-79112380D01*
X95736047Y-79112380D01*
X95640809Y-79064761D01*
X97878904Y-79112380D02*
X97545571Y-78636190D01*
X97307476Y-79112380D02*
X97307476Y-78112380D01*
X97688428Y-78112380D01*
X97783666Y-78160000D01*
X97831285Y-78207619D01*
X97878904Y-78302857D01*
X97878904Y-78445714D01*
X97831285Y-78540952D01*
X97783666Y-78588571D01*
X97688428Y-78636190D01*
X97307476Y-78636190D01*
X98259857Y-78826666D02*
X98736047Y-78826666D01*
X98164619Y-79112380D02*
X98497952Y-78112380D01*
X98831285Y-79112380D01*
X99164619Y-79112380D02*
X99164619Y-78112380D01*
X99497952Y-78826666D01*
X99831285Y-78112380D01*
X99831285Y-79112380D01*
X90355095Y-80268571D02*
X90688428Y-80268571D01*
X90831285Y-80792380D02*
X90355095Y-80792380D01*
X90355095Y-79792380D01*
X90831285Y-79792380D01*
X91164619Y-80792380D02*
X91688428Y-80125714D01*
X91164619Y-80125714D02*
X91688428Y-80792380D01*
X92069380Y-80125714D02*
X92069380Y-81125714D01*
X92069380Y-80173333D02*
X92164619Y-80125714D01*
X92355095Y-80125714D01*
X92450333Y-80173333D01*
X92497952Y-80220952D01*
X92545571Y-80316190D01*
X92545571Y-80601904D01*
X92497952Y-80697142D01*
X92450333Y-80744761D01*
X92355095Y-80792380D01*
X92164619Y-80792380D01*
X92069380Y-80744761D01*
X93402714Y-80792380D02*
X93402714Y-80268571D01*
X93355095Y-80173333D01*
X93259857Y-80125714D01*
X93069380Y-80125714D01*
X92974142Y-80173333D01*
X93402714Y-80744761D02*
X93307476Y-80792380D01*
X93069380Y-80792380D01*
X92974142Y-80744761D01*
X92926523Y-80649523D01*
X92926523Y-80554285D01*
X92974142Y-80459047D01*
X93069380Y-80411428D01*
X93307476Y-80411428D01*
X93402714Y-80363809D01*
X93878904Y-80125714D02*
X93878904Y-80792380D01*
X93878904Y-80220952D02*
X93926523Y-80173333D01*
X94021761Y-80125714D01*
X94164619Y-80125714D01*
X94259857Y-80173333D01*
X94307476Y-80268571D01*
X94307476Y-80792380D01*
X94736047Y-80744761D02*
X94831285Y-80792380D01*
X95021761Y-80792380D01*
X95117000Y-80744761D01*
X95164619Y-80649523D01*
X95164619Y-80601904D01*
X95117000Y-80506666D01*
X95021761Y-80459047D01*
X94878904Y-80459047D01*
X94783666Y-80411428D01*
X94736047Y-80316190D01*
X94736047Y-80268571D01*
X94783666Y-80173333D01*
X94878904Y-80125714D01*
X95021761Y-80125714D01*
X95117000Y-80173333D01*
X95593190Y-80792380D02*
X95593190Y-80125714D01*
X95593190Y-79792380D02*
X95545571Y-79840000D01*
X95593190Y-79887619D01*
X95640809Y-79840000D01*
X95593190Y-79792380D01*
X95593190Y-79887619D01*
X96212238Y-80792380D02*
X96117000Y-80744761D01*
X96069380Y-80697142D01*
X96021761Y-80601904D01*
X96021761Y-80316190D01*
X96069380Y-80220952D01*
X96117000Y-80173333D01*
X96212238Y-80125714D01*
X96355095Y-80125714D01*
X96450333Y-80173333D01*
X96497952Y-80220952D01*
X96545571Y-80316190D01*
X96545571Y-80601904D01*
X96497952Y-80697142D01*
X96450333Y-80744761D01*
X96355095Y-80792380D01*
X96212238Y-80792380D01*
X96974142Y-80125714D02*
X96974142Y-80792380D01*
X96974142Y-80220952D02*
X97021761Y-80173333D01*
X97117000Y-80125714D01*
X97259857Y-80125714D01*
X97355095Y-80173333D01*
X97402714Y-80268571D01*
X97402714Y-80792380D01*
D11*
X104010000Y-37211252D02*
X104010000Y-36688748D01*
X102590000Y-37211252D02*
X102590000Y-36688748D01*
X99400000Y-38200000D02*
X100600000Y-38200000D01*
X100600000Y-38200000D02*
X100600000Y-34000000D01*
X100600000Y-34000000D02*
X99400000Y-34000000D01*
X92600000Y-38200000D02*
X91400000Y-38200000D01*
X91400000Y-38200000D02*
X91400000Y-34000000D01*
X91400000Y-34000000D02*
X92600000Y-34000000D01*
X99700000Y-38500000D02*
X100900000Y-38500000D01*
X100900000Y-38500000D02*
X100900000Y-37300000D01*
X82020000Y-83250000D02*
X82020000Y-84520000D01*
X82020000Y-84520000D02*
X80750000Y-84520000D01*
X83290000Y-82486252D02*
X83290000Y-81963748D01*
X84710000Y-82486252D02*
X84710000Y-81963748D01*
X88021267Y-60090000D02*
X87678733Y-60090000D01*
X88021267Y-61110000D02*
X87678733Y-61110000D01*
X106128733Y-41060000D02*
X106471267Y-41060000D01*
X106128733Y-40040000D02*
X106471267Y-40040000D01*
X102203733Y-40040000D02*
X102546267Y-40040000D01*
X102203733Y-41060000D02*
X102546267Y-41060000D01*
X88071267Y-40090000D02*
X87728733Y-40090000D01*
X88071267Y-41110000D02*
X87728733Y-41110000D01*
X106128733Y-61060000D02*
X106471267Y-61060000D01*
X106128733Y-60040000D02*
X106471267Y-60040000D01*
X102128733Y-61060000D02*
X102471267Y-61060000D01*
X102128733Y-60040000D02*
X102471267Y-60040000D01*
X105935000Y-43310000D02*
X105935000Y-42150000D01*
X106315000Y-43310000D02*
X105935000Y-43310000D01*
X106315000Y-48500000D02*
X106315000Y-43310000D01*
X106315000Y-53690000D02*
X105935000Y-53690000D01*
X106315000Y-48500000D02*
X106315000Y-53690000D01*
X87685000Y-43310000D02*
X88065000Y-43310000D01*
X87685000Y-48500000D02*
X87685000Y-43310000D01*
X87685000Y-53690000D02*
X88065000Y-53690000D01*
X87685000Y-48500000D02*
X87685000Y-53690000D01*
X105935000Y-63310000D02*
X105935000Y-62150000D01*
X106315000Y-63310000D02*
X105935000Y-63310000D01*
X106315000Y-68500000D02*
X106315000Y-63310000D01*
X106315000Y-73690000D02*
X105935000Y-73690000D01*
X106315000Y-68500000D02*
X106315000Y-73690000D01*
X87685000Y-63310000D02*
X88065000Y-63310000D01*
X87685000Y-68500000D02*
X87685000Y-63310000D01*
X87685000Y-73690000D02*
X88065000Y-73690000D01*
X87685000Y-68500000D02*
X87685000Y-73690000D01*
D12*
X93669047Y-39385714D02*
X92907142Y-39671428D01*
X93669047Y-39957142D01*
X94145238Y-39528571D02*
X94478571Y-39528571D01*
X94621428Y-40052380D02*
X94145238Y-40052380D01*
X94145238Y-39052380D01*
X94621428Y-39052380D01*
X95050000Y-40052380D02*
X95050000Y-39052380D01*
X95621428Y-40052380D01*
X95621428Y-39052380D01*
X96050000Y-39766666D02*
X96526190Y-39766666D01*
X95954761Y-40052380D02*
X96288095Y-39052380D01*
X96621428Y-40052380D01*
X97288095Y-39528571D02*
X97430952Y-39576190D01*
X97478571Y-39623809D01*
X97526190Y-39719047D01*
X97526190Y-39861904D01*
X97478571Y-39957142D01*
X97430952Y-40004761D01*
X97335714Y-40052380D01*
X96954761Y-40052380D01*
X96954761Y-39052380D01*
X97288095Y-39052380D01*
X97383333Y-39100000D01*
X97430952Y-39147619D01*
X97478571Y-39242857D01*
X97478571Y-39338095D01*
X97430952Y-39433333D01*
X97383333Y-39480952D01*
X97288095Y-39528571D01*
X96954761Y-39528571D01*
X98430952Y-40052380D02*
X97954761Y-40052380D01*
X97954761Y-39052380D01*
X98764285Y-39528571D02*
X99097619Y-39528571D01*
X99240476Y-40052380D02*
X98764285Y-40052380D01*
X98764285Y-39052380D01*
X99240476Y-39052380D01*
X86292380Y-54190476D02*
X87292380Y-53523809D01*
X86292380Y-53523809D02*
X87292380Y-54190476D01*
X87292380Y-52571428D02*
X86816190Y-52904761D01*
X87292380Y-53142857D02*
X86292380Y-53142857D01*
X86292380Y-52761904D01*
X86340000Y-52666666D01*
X86387619Y-52619047D01*
X86482857Y-52571428D01*
X86625714Y-52571428D01*
X86720952Y-52619047D01*
X86768571Y-52666666D01*
X86816190Y-52761904D01*
X86816190Y-53142857D01*
X87006666Y-52190476D02*
X87006666Y-51714285D01*
X87292380Y-52285714D02*
X86292380Y-51952380D01*
X87292380Y-51619047D01*
X87244761Y-51333333D02*
X87292380Y-51190476D01*
X87292380Y-50952380D01*
X87244761Y-50857142D01*
X87197142Y-50809523D01*
X87101904Y-50761904D01*
X87006666Y-50761904D01*
X86911428Y-50809523D01*
X86863809Y-50857142D01*
X86816190Y-50952380D01*
X86768571Y-51142857D01*
X86720952Y-51238095D01*
X86673333Y-51285714D01*
X86578095Y-51333333D01*
X86482857Y-51333333D01*
X86387619Y-51285714D01*
X86340000Y-51238095D01*
X86292380Y-51142857D01*
X86292380Y-50904761D01*
X86340000Y-50761904D01*
X87673333Y-50047619D02*
X87625714Y-50095238D01*
X87482857Y-50190476D01*
X87387619Y-50238095D01*
X87244761Y-50285714D01*
X87006666Y-50333333D01*
X86816190Y-50333333D01*
X86578095Y-50285714D01*
X86435238Y-50238095D01*
X86340000Y-50190476D01*
X86197142Y-50095238D01*
X86149523Y-50047619D01*
X87292380Y-49142857D02*
X87292380Y-49714285D01*
X87292380Y-49428571D02*
X86292380Y-49428571D01*
X86435238Y-49523809D01*
X86530476Y-49619047D01*
X86578095Y-49714285D01*
X87673333Y-48809523D02*
X87625714Y-48761904D01*
X87482857Y-48666666D01*
X87387619Y-48619047D01*
X87244761Y-48571428D01*
X87006666Y-48523809D01*
X86816190Y-48523809D01*
X86578095Y-48571428D01*
X86435238Y-48619047D01*
X86340000Y-48666666D01*
X86197142Y-48761904D01*
X86149523Y-48809523D01*
X86292380Y-46809523D02*
X86292380Y-47285714D01*
X86768571Y-47333333D01*
X86720952Y-47285714D01*
X86673333Y-47190476D01*
X86673333Y-46952380D01*
X86720952Y-46857142D01*
X86768571Y-46809523D01*
X86863809Y-46761904D01*
X87101904Y-46761904D01*
X87197142Y-46809523D01*
X87244761Y-46857142D01*
X87292380Y-46952380D01*
X87292380Y-47190476D01*
X87244761Y-47285714D01*
X87197142Y-47333333D01*
X87292380Y-45809523D02*
X87292380Y-46380952D01*
X87292380Y-46095238D02*
X86292380Y-46095238D01*
X86435238Y-46190476D01*
X86530476Y-46285714D01*
X86578095Y-46380952D01*
X86387619Y-45428571D02*
X86340000Y-45380952D01*
X86292380Y-45285714D01*
X86292380Y-45047619D01*
X86340000Y-44952380D01*
X86387619Y-44904761D01*
X86482857Y-44857142D01*
X86578095Y-44857142D01*
X86720952Y-44904761D01*
X87292380Y-45476190D01*
X87292380Y-44857142D01*
X87292380Y-44428571D02*
X86292380Y-44428571D01*
X87292380Y-43857142D02*
X86720952Y-44285714D01*
X86292380Y-43857142D02*
X86863809Y-44428571D01*
X86768571Y-43095238D02*
X86816190Y-42952380D01*
X86863809Y-42904761D01*
X86959047Y-42857142D01*
X87101904Y-42857142D01*
X87197142Y-42904761D01*
X87244761Y-42952380D01*
X87292380Y-43047619D01*
X87292380Y-43428571D01*
X86292380Y-43428571D01*
X86292380Y-43095238D01*
X86340000Y-43000000D01*
X86387619Y-42952380D01*
X86482857Y-42904761D01*
X86578095Y-42904761D01*
X86673333Y-42952380D01*
X86720952Y-43000000D01*
X86768571Y-43095238D01*
X86768571Y-43428571D01*
X86292380Y-74190476D02*
X87292380Y-73523809D01*
X86292380Y-73523809D02*
X87292380Y-74190476D01*
X87292380Y-72571428D02*
X86816190Y-72904761D01*
X87292380Y-73142857D02*
X86292380Y-73142857D01*
X86292380Y-72761904D01*
X86340000Y-72666666D01*
X86387619Y-72619047D01*
X86482857Y-72571428D01*
X86625714Y-72571428D01*
X86720952Y-72619047D01*
X86768571Y-72666666D01*
X86816190Y-72761904D01*
X86816190Y-73142857D01*
X87006666Y-72190476D02*
X87006666Y-71714285D01*
X87292380Y-72285714D02*
X86292380Y-71952380D01*
X87292380Y-71619047D01*
X87244761Y-71333333D02*
X87292380Y-71190476D01*
X87292380Y-70952380D01*
X87244761Y-70857142D01*
X87197142Y-70809523D01*
X87101904Y-70761904D01*
X87006666Y-70761904D01*
X86911428Y-70809523D01*
X86863809Y-70857142D01*
X86816190Y-70952380D01*
X86768571Y-71142857D01*
X86720952Y-71238095D01*
X86673333Y-71285714D01*
X86578095Y-71333333D01*
X86482857Y-71333333D01*
X86387619Y-71285714D01*
X86340000Y-71238095D01*
X86292380Y-71142857D01*
X86292380Y-70904761D01*
X86340000Y-70761904D01*
X87673333Y-70047619D02*
X87625714Y-70095238D01*
X87482857Y-70190476D01*
X87387619Y-70238095D01*
X87244761Y-70285714D01*
X87006666Y-70333333D01*
X86816190Y-70333333D01*
X86578095Y-70285714D01*
X86435238Y-70238095D01*
X86340000Y-70190476D01*
X86197142Y-70095238D01*
X86149523Y-70047619D01*
X86292380Y-69476190D02*
X86292380Y-69380952D01*
X86340000Y-69285714D01*
X86387619Y-69238095D01*
X86482857Y-69190476D01*
X86673333Y-69142857D01*
X86911428Y-69142857D01*
X87101904Y-69190476D01*
X87197142Y-69238095D01*
X87244761Y-69285714D01*
X87292380Y-69380952D01*
X87292380Y-69476190D01*
X87244761Y-69571428D01*
X87197142Y-69619047D01*
X87101904Y-69666666D01*
X86911428Y-69714285D01*
X86673333Y-69714285D01*
X86482857Y-69666666D01*
X86387619Y-69619047D01*
X86340000Y-69571428D01*
X86292380Y-69476190D01*
X87673333Y-68809523D02*
X87625714Y-68761904D01*
X87482857Y-68666666D01*
X87387619Y-68619047D01*
X87244761Y-68571428D01*
X87006666Y-68523809D01*
X86816190Y-68523809D01*
X86578095Y-68571428D01*
X86435238Y-68619047D01*
X86340000Y-68666666D01*
X86197142Y-68761904D01*
X86149523Y-68809523D01*
X86292380Y-66809523D02*
X86292380Y-67285714D01*
X86768571Y-67333333D01*
X86720952Y-67285714D01*
X86673333Y-67190476D01*
X86673333Y-66952380D01*
X86720952Y-66857142D01*
X86768571Y-66809523D01*
X86863809Y-66761904D01*
X87101904Y-66761904D01*
X87197142Y-66809523D01*
X87244761Y-66857142D01*
X87292380Y-66952380D01*
X87292380Y-67190476D01*
X87244761Y-67285714D01*
X87197142Y-67333333D01*
X87292380Y-65809523D02*
X87292380Y-66380952D01*
X87292380Y-66095238D02*
X86292380Y-66095238D01*
X86435238Y-66190476D01*
X86530476Y-66285714D01*
X86578095Y-66380952D01*
X86387619Y-65428571D02*
X86340000Y-65380952D01*
X86292380Y-65285714D01*
X86292380Y-65047619D01*
X86340000Y-64952380D01*
X86387619Y-64904761D01*
X86482857Y-64857142D01*
X86578095Y-64857142D01*
X86720952Y-64904761D01*
X87292380Y-65476190D01*
X87292380Y-64857142D01*
X87292380Y-64428571D02*
X86292380Y-64428571D01*
X87292380Y-63857142D02*
X86720952Y-64285714D01*
X86292380Y-63857142D02*
X86863809Y-64428571D01*
X86768571Y-63095238D02*
X86816190Y-62952380D01*
X86863809Y-62904761D01*
X86959047Y-62857142D01*
X87101904Y-62857142D01*
X87197142Y-62904761D01*
X87244761Y-62952380D01*
X87292380Y-63047619D01*
X87292380Y-63428571D01*
X86292380Y-63428571D01*
X86292380Y-63095238D01*
X86340000Y-63000000D01*
X86387619Y-62952380D01*
X86482857Y-62904761D01*
X86578095Y-62904761D01*
X86673333Y-62952380D01*
X86720952Y-63000000D01*
X86768571Y-63095238D01*
X86768571Y-63428571D01*
M02*
