G04 #@! TF.GenerationSoftware,KiCad,Pcbnew,(5.1.4)-1*
G04 #@! TF.CreationDate,2019-12-18T13:49:35-05:00*
G04 #@! TF.ProjectId,a500plus-chipram-expansion,61353030-706c-4757-932d-636869707261,rev?*
G04 #@! TF.SameCoordinates,Original*
G04 #@! TF.FileFunction,Legend,Bot*
G04 #@! TF.FilePolarity,Positive*
%FSLAX46Y46*%
G04 Gerber Fmt 4.6, Leading zero omitted, Abs format (unit mm)*
G04 Created by KiCad (PCBNEW (5.1.4)-1) date 2019-12-18 13:49:35*
%MOMM*%
%LPD*%
G04 APERTURE LIST*
%ADD10C,0.250000*%
%ADD11C,0.150000*%
G04 APERTURE END LIST*
D10*
X73678571Y-50092857D02*
X73678571Y-50950000D01*
X75178571Y-50521428D02*
X73678571Y-50521428D01*
X75178571Y-51450000D02*
X73678571Y-51450000D01*
X74392857Y-51450000D02*
X74392857Y-52307142D01*
X75178571Y-52307142D02*
X73678571Y-52307142D01*
X75178571Y-53021428D02*
X73678571Y-53021428D01*
X75107142Y-53664285D02*
X75178571Y-53878571D01*
X75178571Y-54235714D01*
X75107142Y-54378571D01*
X75035714Y-54450000D01*
X74892857Y-54521428D01*
X74750000Y-54521428D01*
X74607142Y-54450000D01*
X74535714Y-54378571D01*
X74464285Y-54235714D01*
X74392857Y-53950000D01*
X74321428Y-53807142D01*
X74250000Y-53735714D01*
X74107142Y-53664285D01*
X73964285Y-53664285D01*
X73821428Y-53735714D01*
X73750000Y-53807142D01*
X73678571Y-53950000D01*
X73678571Y-54307142D01*
X73750000Y-54521428D01*
X75107142Y-56235714D02*
X75178571Y-56450000D01*
X75178571Y-56807142D01*
X75107142Y-56950000D01*
X75035714Y-57021428D01*
X74892857Y-57092857D01*
X74750000Y-57092857D01*
X74607142Y-57021428D01*
X74535714Y-56950000D01*
X74464285Y-56807142D01*
X74392857Y-56521428D01*
X74321428Y-56378571D01*
X74250000Y-56307142D01*
X74107142Y-56235714D01*
X73964285Y-56235714D01*
X73821428Y-56307142D01*
X73750000Y-56378571D01*
X73678571Y-56521428D01*
X73678571Y-56878571D01*
X73750000Y-57092857D01*
X75178571Y-57735714D02*
X73678571Y-57735714D01*
X75178571Y-58450000D02*
X73678571Y-58450000D01*
X73678571Y-58807142D01*
X73750000Y-59021428D01*
X73892857Y-59164285D01*
X74035714Y-59235714D01*
X74321428Y-59307142D01*
X74535714Y-59307142D01*
X74821428Y-59235714D01*
X74964285Y-59164285D01*
X75107142Y-59021428D01*
X75178571Y-58807142D01*
X75178571Y-58450000D01*
X74392857Y-59950000D02*
X74392857Y-60450000D01*
X75178571Y-60664285D02*
X75178571Y-59950000D01*
X73678571Y-59950000D01*
X73678571Y-60664285D01*
X75178571Y-62450000D02*
X73678571Y-62450000D01*
X73678571Y-62807142D01*
X73750000Y-63021428D01*
X73892857Y-63164285D01*
X74035714Y-63235714D01*
X74321428Y-63307142D01*
X74535714Y-63307142D01*
X74821428Y-63235714D01*
X74964285Y-63164285D01*
X75107142Y-63021428D01*
X75178571Y-62807142D01*
X75178571Y-62450000D01*
X73678571Y-64235714D02*
X73678571Y-64521428D01*
X73750000Y-64664285D01*
X73892857Y-64807142D01*
X74178571Y-64878571D01*
X74678571Y-64878571D01*
X74964285Y-64807142D01*
X75107142Y-64664285D01*
X75178571Y-64521428D01*
X75178571Y-64235714D01*
X75107142Y-64092857D01*
X74964285Y-63950000D01*
X74678571Y-63878571D01*
X74178571Y-63878571D01*
X73892857Y-63950000D01*
X73750000Y-64092857D01*
X73678571Y-64235714D01*
X73678571Y-65378571D02*
X75178571Y-65735714D01*
X74107142Y-66021428D01*
X75178571Y-66307142D01*
X73678571Y-66664285D01*
X75178571Y-67235714D02*
X73678571Y-67235714D01*
X75178571Y-68092857D01*
X73678571Y-68092857D01*
D11*
X71952380Y-37595238D02*
X70952380Y-37595238D01*
X71952380Y-38023809D02*
X71428571Y-38023809D01*
X71333333Y-37976190D01*
X71285714Y-37880952D01*
X71285714Y-37738095D01*
X71333333Y-37642857D01*
X71380952Y-37595238D01*
X71285714Y-38357142D02*
X71285714Y-38738095D01*
X70952380Y-38500000D02*
X71809523Y-38500000D01*
X71904761Y-38547619D01*
X71952380Y-38642857D01*
X71952380Y-38738095D01*
X71285714Y-38928571D02*
X71285714Y-39309523D01*
X70952380Y-39071428D02*
X71809523Y-39071428D01*
X71904761Y-39119047D01*
X71952380Y-39214285D01*
X71952380Y-39309523D01*
X71285714Y-39642857D02*
X72285714Y-39642857D01*
X71333333Y-39642857D02*
X71285714Y-39738095D01*
X71285714Y-39928571D01*
X71333333Y-40023809D01*
X71380952Y-40071428D01*
X71476190Y-40119047D01*
X71761904Y-40119047D01*
X71857142Y-40071428D01*
X71904761Y-40023809D01*
X71952380Y-39928571D01*
X71952380Y-39738095D01*
X71904761Y-39642857D01*
X71904761Y-40500000D02*
X71952380Y-40595238D01*
X71952380Y-40785714D01*
X71904761Y-40880952D01*
X71809523Y-40928571D01*
X71761904Y-40928571D01*
X71666666Y-40880952D01*
X71619047Y-40785714D01*
X71619047Y-40642857D01*
X71571428Y-40547619D01*
X71476190Y-40500000D01*
X71428571Y-40500000D01*
X71333333Y-40547619D01*
X71285714Y-40642857D01*
X71285714Y-40785714D01*
X71333333Y-40880952D01*
X71857142Y-41357142D02*
X71904761Y-41404761D01*
X71952380Y-41357142D01*
X71904761Y-41309523D01*
X71857142Y-41357142D01*
X71952380Y-41357142D01*
X71333333Y-41357142D02*
X71380952Y-41404761D01*
X71428571Y-41357142D01*
X71380952Y-41309523D01*
X71333333Y-41357142D01*
X71428571Y-41357142D01*
X70904761Y-42547619D02*
X72190476Y-41690476D01*
X70904761Y-43595238D02*
X72190476Y-42738095D01*
X71285714Y-44357142D02*
X72095238Y-44357142D01*
X72190476Y-44309523D01*
X72238095Y-44261904D01*
X72285714Y-44166666D01*
X72285714Y-44023809D01*
X72238095Y-43928571D01*
X71904761Y-44357142D02*
X71952380Y-44261904D01*
X71952380Y-44071428D01*
X71904761Y-43976190D01*
X71857142Y-43928571D01*
X71761904Y-43880952D01*
X71476190Y-43880952D01*
X71380952Y-43928571D01*
X71333333Y-43976190D01*
X71285714Y-44071428D01*
X71285714Y-44261904D01*
X71333333Y-44357142D01*
X71952380Y-44833333D02*
X71285714Y-44833333D01*
X70952380Y-44833333D02*
X71000000Y-44785714D01*
X71047619Y-44833333D01*
X71000000Y-44880952D01*
X70952380Y-44833333D01*
X71047619Y-44833333D01*
X71285714Y-45166666D02*
X71285714Y-45547619D01*
X70952380Y-45309523D02*
X71809523Y-45309523D01*
X71904761Y-45357142D01*
X71952380Y-45452380D01*
X71952380Y-45547619D01*
X71952380Y-45880952D02*
X70952380Y-45880952D01*
X71952380Y-46309523D02*
X71428571Y-46309523D01*
X71333333Y-46261904D01*
X71285714Y-46166666D01*
X71285714Y-46023809D01*
X71333333Y-45928571D01*
X71380952Y-45880952D01*
X71285714Y-47214285D02*
X71952380Y-47214285D01*
X71285714Y-46785714D02*
X71809523Y-46785714D01*
X71904761Y-46833333D01*
X71952380Y-46928571D01*
X71952380Y-47071428D01*
X71904761Y-47166666D01*
X71857142Y-47214285D01*
X71952380Y-47690476D02*
X70952380Y-47690476D01*
X71333333Y-47690476D02*
X71285714Y-47785714D01*
X71285714Y-47976190D01*
X71333333Y-48071428D01*
X71380952Y-48119047D01*
X71476190Y-48166666D01*
X71761904Y-48166666D01*
X71857142Y-48119047D01*
X71904761Y-48071428D01*
X71952380Y-47976190D01*
X71952380Y-47785714D01*
X71904761Y-47690476D01*
X71857142Y-48595238D02*
X71904761Y-48642857D01*
X71952380Y-48595238D01*
X71904761Y-48547619D01*
X71857142Y-48595238D01*
X71952380Y-48595238D01*
X71904761Y-49499999D02*
X71952380Y-49404761D01*
X71952380Y-49214285D01*
X71904761Y-49119047D01*
X71857142Y-49071428D01*
X71761904Y-49023809D01*
X71476190Y-49023809D01*
X71380952Y-49071428D01*
X71333333Y-49119047D01*
X71285714Y-49214285D01*
X71285714Y-49404761D01*
X71333333Y-49499999D01*
X71952380Y-50071428D02*
X71904761Y-49976190D01*
X71857142Y-49928571D01*
X71761904Y-49880952D01*
X71476190Y-49880952D01*
X71380952Y-49928571D01*
X71333333Y-49976190D01*
X71285714Y-50071428D01*
X71285714Y-50214285D01*
X71333333Y-50309523D01*
X71380952Y-50357142D01*
X71476190Y-50404761D01*
X71761904Y-50404761D01*
X71857142Y-50357142D01*
X71904761Y-50309523D01*
X71952380Y-50214285D01*
X71952380Y-50071428D01*
X71952380Y-50833333D02*
X71285714Y-50833333D01*
X71380952Y-50833333D02*
X71333333Y-50880952D01*
X71285714Y-50976190D01*
X71285714Y-51119047D01*
X71333333Y-51214285D01*
X71428571Y-51261904D01*
X71952380Y-51261904D01*
X71428571Y-51261904D02*
X71333333Y-51309523D01*
X71285714Y-51404761D01*
X71285714Y-51547619D01*
X71333333Y-51642857D01*
X71428571Y-51690476D01*
X71952380Y-51690476D01*
X70904761Y-52880952D02*
X72190476Y-52023809D01*
X71952380Y-53214285D02*
X70952380Y-53214285D01*
X71333333Y-53214285D02*
X71285714Y-53309523D01*
X71285714Y-53499999D01*
X71333333Y-53595238D01*
X71380952Y-53642857D01*
X71476190Y-53690476D01*
X71761904Y-53690476D01*
X71857142Y-53642857D01*
X71904761Y-53595238D01*
X71952380Y-53499999D01*
X71952380Y-53309523D01*
X71904761Y-53214285D01*
X71952380Y-54261904D02*
X71904761Y-54166666D01*
X71809523Y-54119047D01*
X70952380Y-54119047D01*
X71952380Y-55071428D02*
X71428571Y-55071428D01*
X71333333Y-55023809D01*
X71285714Y-54928571D01*
X71285714Y-54738095D01*
X71333333Y-54642857D01*
X71904761Y-55071428D02*
X71952380Y-54976190D01*
X71952380Y-54738095D01*
X71904761Y-54642857D01*
X71809523Y-54595238D01*
X71714285Y-54595238D01*
X71619047Y-54642857D01*
X71571428Y-54738095D01*
X71571428Y-54976190D01*
X71523809Y-55071428D01*
X71952380Y-55547619D02*
X71285714Y-55547619D01*
X71476190Y-55547619D02*
X71380952Y-55595238D01*
X71333333Y-55642857D01*
X71285714Y-55738095D01*
X71285714Y-55833333D01*
X71952380Y-56166666D02*
X70952380Y-56166666D01*
X71571428Y-56261904D02*
X71952380Y-56547619D01*
X71285714Y-56547619D02*
X71666666Y-56166666D01*
X70904761Y-57690476D02*
X72190476Y-56833333D01*
X71952380Y-58452380D02*
X71428571Y-58452380D01*
X71333333Y-58404761D01*
X71285714Y-58309523D01*
X71285714Y-58119047D01*
X71333333Y-58023809D01*
X71904761Y-58452380D02*
X71952380Y-58357142D01*
X71952380Y-58119047D01*
X71904761Y-58023809D01*
X71809523Y-57976190D01*
X71714285Y-57976190D01*
X71619047Y-58023809D01*
X71571428Y-58119047D01*
X71571428Y-58357142D01*
X71523809Y-58452380D01*
X70952380Y-59404761D02*
X70952380Y-58928571D01*
X71428571Y-58880952D01*
X71380952Y-58928571D01*
X71333333Y-59023809D01*
X71333333Y-59261904D01*
X71380952Y-59357142D01*
X71428571Y-59404761D01*
X71523809Y-59452380D01*
X71761904Y-59452380D01*
X71857142Y-59404761D01*
X71904761Y-59357142D01*
X71952380Y-59261904D01*
X71952380Y-59023809D01*
X71904761Y-58928571D01*
X71857142Y-58880952D01*
X70952380Y-60071428D02*
X70952380Y-60166666D01*
X71000000Y-60261904D01*
X71047619Y-60309523D01*
X71142857Y-60357142D01*
X71333333Y-60404761D01*
X71571428Y-60404761D01*
X71761904Y-60357142D01*
X71857142Y-60309523D01*
X71904761Y-60261904D01*
X71952380Y-60166666D01*
X71952380Y-60071428D01*
X71904761Y-59976190D01*
X71857142Y-59928571D01*
X71761904Y-59880952D01*
X71571428Y-59833333D01*
X71333333Y-59833333D01*
X71142857Y-59880952D01*
X71047619Y-59928571D01*
X71000000Y-59976190D01*
X70952380Y-60071428D01*
X70952380Y-61023809D02*
X70952380Y-61119047D01*
X71000000Y-61214285D01*
X71047619Y-61261904D01*
X71142857Y-61309523D01*
X71333333Y-61357142D01*
X71571428Y-61357142D01*
X71761904Y-61309523D01*
X71857142Y-61261904D01*
X71904761Y-61214285D01*
X71952380Y-61119047D01*
X71952380Y-61023809D01*
X71904761Y-60928571D01*
X71857142Y-60880952D01*
X71761904Y-60833333D01*
X71571428Y-60785714D01*
X71333333Y-60785714D01*
X71142857Y-60833333D01*
X71047619Y-60880952D01*
X71000000Y-60928571D01*
X70952380Y-61023809D01*
X71285714Y-61785714D02*
X72285714Y-61785714D01*
X71333333Y-61785714D02*
X71285714Y-61880952D01*
X71285714Y-62071428D01*
X71333333Y-62166666D01*
X71380952Y-62214285D01*
X71476190Y-62261904D01*
X71761904Y-62261904D01*
X71857142Y-62214285D01*
X71904761Y-62166666D01*
X71952380Y-62071428D01*
X71952380Y-61880952D01*
X71904761Y-61785714D01*
X71952380Y-62833333D02*
X71904761Y-62738095D01*
X71809523Y-62690476D01*
X70952380Y-62690476D01*
X71285714Y-63642857D02*
X71952380Y-63642857D01*
X71285714Y-63214285D02*
X71809523Y-63214285D01*
X71904761Y-63261904D01*
X71952380Y-63357142D01*
X71952380Y-63499999D01*
X71904761Y-63595238D01*
X71857142Y-63642857D01*
X71904761Y-64071428D02*
X71952380Y-64166666D01*
X71952380Y-64357142D01*
X71904761Y-64452380D01*
X71809523Y-64499999D01*
X71761904Y-64499999D01*
X71666666Y-64452380D01*
X71619047Y-64357142D01*
X71619047Y-64214285D01*
X71571428Y-64119047D01*
X71476190Y-64071428D01*
X71428571Y-64071428D01*
X71333333Y-64119047D01*
X71285714Y-64214285D01*
X71285714Y-64357142D01*
X71333333Y-64452380D01*
X71571428Y-64928571D02*
X71571428Y-65690476D01*
X71904761Y-66595238D02*
X71952380Y-66499999D01*
X71952380Y-66309523D01*
X71904761Y-66214285D01*
X71857142Y-66166666D01*
X71761904Y-66119047D01*
X71476190Y-66119047D01*
X71380952Y-66166666D01*
X71333333Y-66214285D01*
X71285714Y-66309523D01*
X71285714Y-66499999D01*
X71333333Y-66595238D01*
X71952380Y-67023809D02*
X70952380Y-67023809D01*
X71952380Y-67452380D02*
X71428571Y-67452380D01*
X71333333Y-67404761D01*
X71285714Y-67309523D01*
X71285714Y-67166666D01*
X71333333Y-67071428D01*
X71380952Y-67023809D01*
X71952380Y-67928571D02*
X71285714Y-67928571D01*
X70952380Y-67928571D02*
X71000000Y-67880952D01*
X71047619Y-67928571D01*
X71000000Y-67976190D01*
X70952380Y-67928571D01*
X71047619Y-67928571D01*
X71285714Y-68404761D02*
X72285714Y-68404761D01*
X71333333Y-68404761D02*
X71285714Y-68499999D01*
X71285714Y-68690476D01*
X71333333Y-68785714D01*
X71380952Y-68833333D01*
X71476190Y-68880952D01*
X71761904Y-68880952D01*
X71857142Y-68833333D01*
X71904761Y-68785714D01*
X71952380Y-68690476D01*
X71952380Y-68499999D01*
X71904761Y-68404761D01*
X71952380Y-69309523D02*
X71285714Y-69309523D01*
X71476190Y-69309523D02*
X71380952Y-69357142D01*
X71333333Y-69404761D01*
X71285714Y-69499999D01*
X71285714Y-69595238D01*
X71952380Y-70357142D02*
X71428571Y-70357142D01*
X71333333Y-70309523D01*
X71285714Y-70214285D01*
X71285714Y-70023809D01*
X71333333Y-69928571D01*
X71904761Y-70357142D02*
X71952380Y-70261904D01*
X71952380Y-70023809D01*
X71904761Y-69928571D01*
X71809523Y-69880952D01*
X71714285Y-69880952D01*
X71619047Y-69928571D01*
X71571428Y-70023809D01*
X71571428Y-70261904D01*
X71523809Y-70357142D01*
X71952380Y-70833333D02*
X71285714Y-70833333D01*
X71380952Y-70833333D02*
X71333333Y-70880952D01*
X71285714Y-70976190D01*
X71285714Y-71119047D01*
X71333333Y-71214285D01*
X71428571Y-71261904D01*
X71952380Y-71261904D01*
X71428571Y-71261904D02*
X71333333Y-71309523D01*
X71285714Y-71404761D01*
X71285714Y-71547619D01*
X71333333Y-71642857D01*
X71428571Y-71690476D01*
X71952380Y-71690476D01*
X71571428Y-72166666D02*
X71571428Y-72928571D01*
X71904761Y-73785714D02*
X71952380Y-73690476D01*
X71952380Y-73499999D01*
X71904761Y-73404761D01*
X71809523Y-73357142D01*
X71428571Y-73357142D01*
X71333333Y-73404761D01*
X71285714Y-73499999D01*
X71285714Y-73690476D01*
X71333333Y-73785714D01*
X71428571Y-73833333D01*
X71523809Y-73833333D01*
X71619047Y-73357142D01*
X71952380Y-74166666D02*
X71285714Y-74690476D01*
X71285714Y-74166666D02*
X71952380Y-74690476D01*
X71285714Y-75071428D02*
X72285714Y-75071428D01*
X71333333Y-75071428D02*
X71285714Y-75166666D01*
X71285714Y-75357142D01*
X71333333Y-75452380D01*
X71380952Y-75499999D01*
X71476190Y-75547619D01*
X71761904Y-75547619D01*
X71857142Y-75499999D01*
X71904761Y-75452380D01*
X71952380Y-75357142D01*
X71952380Y-75166666D01*
X71904761Y-75071428D01*
X71952380Y-76404761D02*
X71428571Y-76404761D01*
X71333333Y-76357142D01*
X71285714Y-76261904D01*
X71285714Y-76071428D01*
X71333333Y-75976190D01*
X71904761Y-76404761D02*
X71952380Y-76309523D01*
X71952380Y-76071428D01*
X71904761Y-75976190D01*
X71809523Y-75928571D01*
X71714285Y-75928571D01*
X71619047Y-75976190D01*
X71571428Y-76071428D01*
X71571428Y-76309523D01*
X71523809Y-76404761D01*
X71285714Y-76880952D02*
X71952380Y-76880952D01*
X71380952Y-76880952D02*
X71333333Y-76928571D01*
X71285714Y-77023809D01*
X71285714Y-77166666D01*
X71333333Y-77261904D01*
X71428571Y-77309523D01*
X71952380Y-77309523D01*
X71904761Y-77738095D02*
X71952380Y-77833333D01*
X71952380Y-78023809D01*
X71904761Y-78119047D01*
X71809523Y-78166666D01*
X71761904Y-78166666D01*
X71666666Y-78119047D01*
X71619047Y-78023809D01*
X71619047Y-77880952D01*
X71571428Y-77785714D01*
X71476190Y-77738095D01*
X71428571Y-77738095D01*
X71333333Y-77785714D01*
X71285714Y-77880952D01*
X71285714Y-78023809D01*
X71333333Y-78119047D01*
X71952380Y-78595238D02*
X71285714Y-78595238D01*
X70952380Y-78595238D02*
X71000000Y-78547619D01*
X71047619Y-78595238D01*
X71000000Y-78642857D01*
X70952380Y-78595238D01*
X71047619Y-78595238D01*
X71952380Y-79214285D02*
X71904761Y-79119047D01*
X71857142Y-79071428D01*
X71761904Y-79023809D01*
X71476190Y-79023809D01*
X71380952Y-79071428D01*
X71333333Y-79119047D01*
X71285714Y-79214285D01*
X71285714Y-79357142D01*
X71333333Y-79452380D01*
X71380952Y-79499999D01*
X71476190Y-79547619D01*
X71761904Y-79547619D01*
X71857142Y-79499999D01*
X71904761Y-79452380D01*
X71952380Y-79357142D01*
X71952380Y-79214285D01*
X71285714Y-79976190D02*
X71952380Y-79976190D01*
X71380952Y-79976190D02*
X71333333Y-80023809D01*
X71285714Y-80119047D01*
X71285714Y-80261904D01*
X71333333Y-80357142D01*
X71428571Y-80404761D01*
X71952380Y-80404761D01*
M02*
