G04 #@! TF.GenerationSoftware,KiCad,Pcbnew,(5.1.4-0-10_14)*
G04 #@! TF.CreationDate,2019-11-29T22:31:08-05:00*
G04 #@! TF.ProjectId,a500plus-chipram-expansion,61353030-706c-4757-932d-636869707261,rev?*
G04 #@! TF.SameCoordinates,Original*
G04 #@! TF.FileFunction,Copper,L2,Bot*
G04 #@! TF.FilePolarity,Positive*
%FSLAX46Y46*%
G04 Gerber Fmt 4.6, Leading zero omitted, Abs format (unit mm)*
G04 Created by KiCad (PCBNEW (5.1.4-0-10_14)) date 2019-11-29 22:31:08*
%MOMM*%
%LPD*%
G04 APERTURE LIST*
%ADD10R,1.700000X1.700000*%
%ADD11O,1.700000X1.700000*%
%ADD12C,0.100000*%
%ADD13C,0.950000*%
%ADD14C,0.550000*%
%ADD15C,0.800000*%
%ADD16C,0.250000*%
%ADD17C,0.254000*%
G04 APERTURE END LIST*
D10*
X80750000Y-83250000D03*
D11*
X78210000Y-83250000D03*
X80750000Y-80710000D03*
X78210000Y-80710000D03*
X80750000Y-78170000D03*
X78210000Y-78170000D03*
X80750000Y-75630000D03*
X78210000Y-75630000D03*
X80750000Y-73090000D03*
X78210000Y-73090000D03*
X80750000Y-70550000D03*
X78210000Y-70550000D03*
X80750000Y-68010000D03*
X78210000Y-68010000D03*
X80750000Y-65470000D03*
X78210000Y-65470000D03*
X80750000Y-62930000D03*
X78210000Y-62930000D03*
X80750000Y-60390000D03*
X78210000Y-60390000D03*
X80750000Y-57850000D03*
X78210000Y-57850000D03*
X80750000Y-55310000D03*
X78210000Y-55310000D03*
X80750000Y-52770000D03*
X78210000Y-52770000D03*
X80750000Y-50230000D03*
X78210000Y-50230000D03*
X80750000Y-47690000D03*
X78210000Y-47690000D03*
X80750000Y-45150000D03*
X78210000Y-45150000D03*
X80750000Y-42610000D03*
X78210000Y-42610000D03*
X80750000Y-40070000D03*
X78210000Y-40070000D03*
X80750000Y-37530000D03*
X78210000Y-37530000D03*
X80750000Y-34990000D03*
X78210000Y-34990000D03*
D12*
G36*
X88660779Y-47426144D02*
G01*
X88683834Y-47429563D01*
X88706443Y-47435227D01*
X88728387Y-47443079D01*
X88749457Y-47453044D01*
X88769448Y-47465026D01*
X88788168Y-47478910D01*
X88805438Y-47494562D01*
X88821090Y-47511832D01*
X88834974Y-47530552D01*
X88846956Y-47550543D01*
X88856921Y-47571613D01*
X88864773Y-47593557D01*
X88870437Y-47616166D01*
X88873856Y-47639221D01*
X88875000Y-47662500D01*
X88875000Y-48137500D01*
X88873856Y-48160779D01*
X88870437Y-48183834D01*
X88864773Y-48206443D01*
X88856921Y-48228387D01*
X88846956Y-48249457D01*
X88834974Y-48269448D01*
X88821090Y-48288168D01*
X88805438Y-48305438D01*
X88788168Y-48321090D01*
X88769448Y-48334974D01*
X88749457Y-48346956D01*
X88728387Y-48356921D01*
X88706443Y-48364773D01*
X88683834Y-48370437D01*
X88660779Y-48373856D01*
X88637500Y-48375000D01*
X88062500Y-48375000D01*
X88039221Y-48373856D01*
X88016166Y-48370437D01*
X87993557Y-48364773D01*
X87971613Y-48356921D01*
X87950543Y-48346956D01*
X87930552Y-48334974D01*
X87911832Y-48321090D01*
X87894562Y-48305438D01*
X87878910Y-48288168D01*
X87865026Y-48269448D01*
X87853044Y-48249457D01*
X87843079Y-48228387D01*
X87835227Y-48206443D01*
X87829563Y-48183834D01*
X87826144Y-48160779D01*
X87825000Y-48137500D01*
X87825000Y-47662500D01*
X87826144Y-47639221D01*
X87829563Y-47616166D01*
X87835227Y-47593557D01*
X87843079Y-47571613D01*
X87853044Y-47550543D01*
X87865026Y-47530552D01*
X87878910Y-47511832D01*
X87894562Y-47494562D01*
X87911832Y-47478910D01*
X87930552Y-47465026D01*
X87950543Y-47453044D01*
X87971613Y-47443079D01*
X87993557Y-47435227D01*
X88016166Y-47429563D01*
X88039221Y-47426144D01*
X88062500Y-47425000D01*
X88637500Y-47425000D01*
X88660779Y-47426144D01*
X88660779Y-47426144D01*
G37*
D13*
X88350000Y-47900000D03*
D12*
G36*
X90410779Y-47426144D02*
G01*
X90433834Y-47429563D01*
X90456443Y-47435227D01*
X90478387Y-47443079D01*
X90499457Y-47453044D01*
X90519448Y-47465026D01*
X90538168Y-47478910D01*
X90555438Y-47494562D01*
X90571090Y-47511832D01*
X90584974Y-47530552D01*
X90596956Y-47550543D01*
X90606921Y-47571613D01*
X90614773Y-47593557D01*
X90620437Y-47616166D01*
X90623856Y-47639221D01*
X90625000Y-47662500D01*
X90625000Y-48137500D01*
X90623856Y-48160779D01*
X90620437Y-48183834D01*
X90614773Y-48206443D01*
X90606921Y-48228387D01*
X90596956Y-48249457D01*
X90584974Y-48269448D01*
X90571090Y-48288168D01*
X90555438Y-48305438D01*
X90538168Y-48321090D01*
X90519448Y-48334974D01*
X90499457Y-48346956D01*
X90478387Y-48356921D01*
X90456443Y-48364773D01*
X90433834Y-48370437D01*
X90410779Y-48373856D01*
X90387500Y-48375000D01*
X89812500Y-48375000D01*
X89789221Y-48373856D01*
X89766166Y-48370437D01*
X89743557Y-48364773D01*
X89721613Y-48356921D01*
X89700543Y-48346956D01*
X89680552Y-48334974D01*
X89661832Y-48321090D01*
X89644562Y-48305438D01*
X89628910Y-48288168D01*
X89615026Y-48269448D01*
X89603044Y-48249457D01*
X89593079Y-48228387D01*
X89585227Y-48206443D01*
X89579563Y-48183834D01*
X89576144Y-48160779D01*
X89575000Y-48137500D01*
X89575000Y-47662500D01*
X89576144Y-47639221D01*
X89579563Y-47616166D01*
X89585227Y-47593557D01*
X89593079Y-47571613D01*
X89603044Y-47550543D01*
X89615026Y-47530552D01*
X89628910Y-47511832D01*
X89644562Y-47494562D01*
X89661832Y-47478910D01*
X89680552Y-47465026D01*
X89700543Y-47453044D01*
X89721613Y-47443079D01*
X89743557Y-47435227D01*
X89766166Y-47429563D01*
X89789221Y-47426144D01*
X89812500Y-47425000D01*
X90387500Y-47425000D01*
X90410779Y-47426144D01*
X90410779Y-47426144D01*
G37*
D13*
X90100000Y-47900000D03*
D12*
G36*
X102713477Y-67125662D02*
G01*
X102726825Y-67127642D01*
X102739914Y-67130921D01*
X102752619Y-67135467D01*
X102764817Y-67141236D01*
X102776391Y-67148173D01*
X102787229Y-67156211D01*
X102797227Y-67165273D01*
X102806289Y-67175271D01*
X102814327Y-67186109D01*
X102821264Y-67197683D01*
X102827033Y-67209881D01*
X102831579Y-67222586D01*
X102834858Y-67235675D01*
X102836838Y-67249023D01*
X102837500Y-67262500D01*
X102837500Y-67537500D01*
X102836838Y-67550977D01*
X102834858Y-67564325D01*
X102831579Y-67577414D01*
X102827033Y-67590119D01*
X102821264Y-67602317D01*
X102814327Y-67613891D01*
X102806289Y-67624729D01*
X102797227Y-67634727D01*
X102787229Y-67643789D01*
X102776391Y-67651827D01*
X102764817Y-67658764D01*
X102752619Y-67664533D01*
X102739914Y-67669079D01*
X102726825Y-67672358D01*
X102713477Y-67674338D01*
X102700000Y-67675000D01*
X101450000Y-67675000D01*
X101436523Y-67674338D01*
X101423175Y-67672358D01*
X101410086Y-67669079D01*
X101397381Y-67664533D01*
X101385183Y-67658764D01*
X101373609Y-67651827D01*
X101362771Y-67643789D01*
X101352773Y-67634727D01*
X101343711Y-67624729D01*
X101335673Y-67613891D01*
X101328736Y-67602317D01*
X101322967Y-67590119D01*
X101318421Y-67577414D01*
X101315142Y-67564325D01*
X101313162Y-67550977D01*
X101312500Y-67537500D01*
X101312500Y-67262500D01*
X101313162Y-67249023D01*
X101315142Y-67235675D01*
X101318421Y-67222586D01*
X101322967Y-67209881D01*
X101328736Y-67197683D01*
X101335673Y-67186109D01*
X101343711Y-67175271D01*
X101352773Y-67165273D01*
X101362771Y-67156211D01*
X101373609Y-67148173D01*
X101385183Y-67141236D01*
X101397381Y-67135467D01*
X101410086Y-67130921D01*
X101423175Y-67127642D01*
X101436523Y-67125662D01*
X101450000Y-67125000D01*
X102700000Y-67125000D01*
X102713477Y-67125662D01*
X102713477Y-67125662D01*
G37*
D14*
X102075000Y-67400000D03*
D12*
G36*
X102713477Y-66325662D02*
G01*
X102726825Y-66327642D01*
X102739914Y-66330921D01*
X102752619Y-66335467D01*
X102764817Y-66341236D01*
X102776391Y-66348173D01*
X102787229Y-66356211D01*
X102797227Y-66365273D01*
X102806289Y-66375271D01*
X102814327Y-66386109D01*
X102821264Y-66397683D01*
X102827033Y-66409881D01*
X102831579Y-66422586D01*
X102834858Y-66435675D01*
X102836838Y-66449023D01*
X102837500Y-66462500D01*
X102837500Y-66737500D01*
X102836838Y-66750977D01*
X102834858Y-66764325D01*
X102831579Y-66777414D01*
X102827033Y-66790119D01*
X102821264Y-66802317D01*
X102814327Y-66813891D01*
X102806289Y-66824729D01*
X102797227Y-66834727D01*
X102787229Y-66843789D01*
X102776391Y-66851827D01*
X102764817Y-66858764D01*
X102752619Y-66864533D01*
X102739914Y-66869079D01*
X102726825Y-66872358D01*
X102713477Y-66874338D01*
X102700000Y-66875000D01*
X101450000Y-66875000D01*
X101436523Y-66874338D01*
X101423175Y-66872358D01*
X101410086Y-66869079D01*
X101397381Y-66864533D01*
X101385183Y-66858764D01*
X101373609Y-66851827D01*
X101362771Y-66843789D01*
X101352773Y-66834727D01*
X101343711Y-66824729D01*
X101335673Y-66813891D01*
X101328736Y-66802317D01*
X101322967Y-66790119D01*
X101318421Y-66777414D01*
X101315142Y-66764325D01*
X101313162Y-66750977D01*
X101312500Y-66737500D01*
X101312500Y-66462500D01*
X101313162Y-66449023D01*
X101315142Y-66435675D01*
X101318421Y-66422586D01*
X101322967Y-66409881D01*
X101328736Y-66397683D01*
X101335673Y-66386109D01*
X101343711Y-66375271D01*
X101352773Y-66365273D01*
X101362771Y-66356211D01*
X101373609Y-66348173D01*
X101385183Y-66341236D01*
X101397381Y-66335467D01*
X101410086Y-66330921D01*
X101423175Y-66327642D01*
X101436523Y-66325662D01*
X101450000Y-66325000D01*
X102700000Y-66325000D01*
X102713477Y-66325662D01*
X102713477Y-66325662D01*
G37*
D14*
X102075000Y-66600000D03*
D12*
G36*
X102713477Y-65525662D02*
G01*
X102726825Y-65527642D01*
X102739914Y-65530921D01*
X102752619Y-65535467D01*
X102764817Y-65541236D01*
X102776391Y-65548173D01*
X102787229Y-65556211D01*
X102797227Y-65565273D01*
X102806289Y-65575271D01*
X102814327Y-65586109D01*
X102821264Y-65597683D01*
X102827033Y-65609881D01*
X102831579Y-65622586D01*
X102834858Y-65635675D01*
X102836838Y-65649023D01*
X102837500Y-65662500D01*
X102837500Y-65937500D01*
X102836838Y-65950977D01*
X102834858Y-65964325D01*
X102831579Y-65977414D01*
X102827033Y-65990119D01*
X102821264Y-66002317D01*
X102814327Y-66013891D01*
X102806289Y-66024729D01*
X102797227Y-66034727D01*
X102787229Y-66043789D01*
X102776391Y-66051827D01*
X102764817Y-66058764D01*
X102752619Y-66064533D01*
X102739914Y-66069079D01*
X102726825Y-66072358D01*
X102713477Y-66074338D01*
X102700000Y-66075000D01*
X101450000Y-66075000D01*
X101436523Y-66074338D01*
X101423175Y-66072358D01*
X101410086Y-66069079D01*
X101397381Y-66064533D01*
X101385183Y-66058764D01*
X101373609Y-66051827D01*
X101362771Y-66043789D01*
X101352773Y-66034727D01*
X101343711Y-66024729D01*
X101335673Y-66013891D01*
X101328736Y-66002317D01*
X101322967Y-65990119D01*
X101318421Y-65977414D01*
X101315142Y-65964325D01*
X101313162Y-65950977D01*
X101312500Y-65937500D01*
X101312500Y-65662500D01*
X101313162Y-65649023D01*
X101315142Y-65635675D01*
X101318421Y-65622586D01*
X101322967Y-65609881D01*
X101328736Y-65597683D01*
X101335673Y-65586109D01*
X101343711Y-65575271D01*
X101352773Y-65565273D01*
X101362771Y-65556211D01*
X101373609Y-65548173D01*
X101385183Y-65541236D01*
X101397381Y-65535467D01*
X101410086Y-65530921D01*
X101423175Y-65527642D01*
X101436523Y-65525662D01*
X101450000Y-65525000D01*
X102700000Y-65525000D01*
X102713477Y-65525662D01*
X102713477Y-65525662D01*
G37*
D14*
X102075000Y-65800000D03*
D12*
G36*
X102713477Y-64725662D02*
G01*
X102726825Y-64727642D01*
X102739914Y-64730921D01*
X102752619Y-64735467D01*
X102764817Y-64741236D01*
X102776391Y-64748173D01*
X102787229Y-64756211D01*
X102797227Y-64765273D01*
X102806289Y-64775271D01*
X102814327Y-64786109D01*
X102821264Y-64797683D01*
X102827033Y-64809881D01*
X102831579Y-64822586D01*
X102834858Y-64835675D01*
X102836838Y-64849023D01*
X102837500Y-64862500D01*
X102837500Y-65137500D01*
X102836838Y-65150977D01*
X102834858Y-65164325D01*
X102831579Y-65177414D01*
X102827033Y-65190119D01*
X102821264Y-65202317D01*
X102814327Y-65213891D01*
X102806289Y-65224729D01*
X102797227Y-65234727D01*
X102787229Y-65243789D01*
X102776391Y-65251827D01*
X102764817Y-65258764D01*
X102752619Y-65264533D01*
X102739914Y-65269079D01*
X102726825Y-65272358D01*
X102713477Y-65274338D01*
X102700000Y-65275000D01*
X101450000Y-65275000D01*
X101436523Y-65274338D01*
X101423175Y-65272358D01*
X101410086Y-65269079D01*
X101397381Y-65264533D01*
X101385183Y-65258764D01*
X101373609Y-65251827D01*
X101362771Y-65243789D01*
X101352773Y-65234727D01*
X101343711Y-65224729D01*
X101335673Y-65213891D01*
X101328736Y-65202317D01*
X101322967Y-65190119D01*
X101318421Y-65177414D01*
X101315142Y-65164325D01*
X101313162Y-65150977D01*
X101312500Y-65137500D01*
X101312500Y-64862500D01*
X101313162Y-64849023D01*
X101315142Y-64835675D01*
X101318421Y-64822586D01*
X101322967Y-64809881D01*
X101328736Y-64797683D01*
X101335673Y-64786109D01*
X101343711Y-64775271D01*
X101352773Y-64765273D01*
X101362771Y-64756211D01*
X101373609Y-64748173D01*
X101385183Y-64741236D01*
X101397381Y-64735467D01*
X101410086Y-64730921D01*
X101423175Y-64727642D01*
X101436523Y-64725662D01*
X101450000Y-64725000D01*
X102700000Y-64725000D01*
X102713477Y-64725662D01*
X102713477Y-64725662D01*
G37*
D14*
X102075000Y-65000000D03*
D12*
G36*
X102713477Y-63925662D02*
G01*
X102726825Y-63927642D01*
X102739914Y-63930921D01*
X102752619Y-63935467D01*
X102764817Y-63941236D01*
X102776391Y-63948173D01*
X102787229Y-63956211D01*
X102797227Y-63965273D01*
X102806289Y-63975271D01*
X102814327Y-63986109D01*
X102821264Y-63997683D01*
X102827033Y-64009881D01*
X102831579Y-64022586D01*
X102834858Y-64035675D01*
X102836838Y-64049023D01*
X102837500Y-64062500D01*
X102837500Y-64337500D01*
X102836838Y-64350977D01*
X102834858Y-64364325D01*
X102831579Y-64377414D01*
X102827033Y-64390119D01*
X102821264Y-64402317D01*
X102814327Y-64413891D01*
X102806289Y-64424729D01*
X102797227Y-64434727D01*
X102787229Y-64443789D01*
X102776391Y-64451827D01*
X102764817Y-64458764D01*
X102752619Y-64464533D01*
X102739914Y-64469079D01*
X102726825Y-64472358D01*
X102713477Y-64474338D01*
X102700000Y-64475000D01*
X101450000Y-64475000D01*
X101436523Y-64474338D01*
X101423175Y-64472358D01*
X101410086Y-64469079D01*
X101397381Y-64464533D01*
X101385183Y-64458764D01*
X101373609Y-64451827D01*
X101362771Y-64443789D01*
X101352773Y-64434727D01*
X101343711Y-64424729D01*
X101335673Y-64413891D01*
X101328736Y-64402317D01*
X101322967Y-64390119D01*
X101318421Y-64377414D01*
X101315142Y-64364325D01*
X101313162Y-64350977D01*
X101312500Y-64337500D01*
X101312500Y-64062500D01*
X101313162Y-64049023D01*
X101315142Y-64035675D01*
X101318421Y-64022586D01*
X101322967Y-64009881D01*
X101328736Y-63997683D01*
X101335673Y-63986109D01*
X101343711Y-63975271D01*
X101352773Y-63965273D01*
X101362771Y-63956211D01*
X101373609Y-63948173D01*
X101385183Y-63941236D01*
X101397381Y-63935467D01*
X101410086Y-63930921D01*
X101423175Y-63927642D01*
X101436523Y-63925662D01*
X101450000Y-63925000D01*
X102700000Y-63925000D01*
X102713477Y-63925662D01*
X102713477Y-63925662D01*
G37*
D14*
X102075000Y-64200000D03*
D12*
G36*
X102713477Y-63125662D02*
G01*
X102726825Y-63127642D01*
X102739914Y-63130921D01*
X102752619Y-63135467D01*
X102764817Y-63141236D01*
X102776391Y-63148173D01*
X102787229Y-63156211D01*
X102797227Y-63165273D01*
X102806289Y-63175271D01*
X102814327Y-63186109D01*
X102821264Y-63197683D01*
X102827033Y-63209881D01*
X102831579Y-63222586D01*
X102834858Y-63235675D01*
X102836838Y-63249023D01*
X102837500Y-63262500D01*
X102837500Y-63537500D01*
X102836838Y-63550977D01*
X102834858Y-63564325D01*
X102831579Y-63577414D01*
X102827033Y-63590119D01*
X102821264Y-63602317D01*
X102814327Y-63613891D01*
X102806289Y-63624729D01*
X102797227Y-63634727D01*
X102787229Y-63643789D01*
X102776391Y-63651827D01*
X102764817Y-63658764D01*
X102752619Y-63664533D01*
X102739914Y-63669079D01*
X102726825Y-63672358D01*
X102713477Y-63674338D01*
X102700000Y-63675000D01*
X101450000Y-63675000D01*
X101436523Y-63674338D01*
X101423175Y-63672358D01*
X101410086Y-63669079D01*
X101397381Y-63664533D01*
X101385183Y-63658764D01*
X101373609Y-63651827D01*
X101362771Y-63643789D01*
X101352773Y-63634727D01*
X101343711Y-63624729D01*
X101335673Y-63613891D01*
X101328736Y-63602317D01*
X101322967Y-63590119D01*
X101318421Y-63577414D01*
X101315142Y-63564325D01*
X101313162Y-63550977D01*
X101312500Y-63537500D01*
X101312500Y-63262500D01*
X101313162Y-63249023D01*
X101315142Y-63235675D01*
X101318421Y-63222586D01*
X101322967Y-63209881D01*
X101328736Y-63197683D01*
X101335673Y-63186109D01*
X101343711Y-63175271D01*
X101352773Y-63165273D01*
X101362771Y-63156211D01*
X101373609Y-63148173D01*
X101385183Y-63141236D01*
X101397381Y-63135467D01*
X101410086Y-63130921D01*
X101423175Y-63127642D01*
X101436523Y-63125662D01*
X101450000Y-63125000D01*
X102700000Y-63125000D01*
X102713477Y-63125662D01*
X102713477Y-63125662D01*
G37*
D14*
X102075000Y-63400000D03*
D12*
G36*
X102713477Y-62325662D02*
G01*
X102726825Y-62327642D01*
X102739914Y-62330921D01*
X102752619Y-62335467D01*
X102764817Y-62341236D01*
X102776391Y-62348173D01*
X102787229Y-62356211D01*
X102797227Y-62365273D01*
X102806289Y-62375271D01*
X102814327Y-62386109D01*
X102821264Y-62397683D01*
X102827033Y-62409881D01*
X102831579Y-62422586D01*
X102834858Y-62435675D01*
X102836838Y-62449023D01*
X102837500Y-62462500D01*
X102837500Y-62737500D01*
X102836838Y-62750977D01*
X102834858Y-62764325D01*
X102831579Y-62777414D01*
X102827033Y-62790119D01*
X102821264Y-62802317D01*
X102814327Y-62813891D01*
X102806289Y-62824729D01*
X102797227Y-62834727D01*
X102787229Y-62843789D01*
X102776391Y-62851827D01*
X102764817Y-62858764D01*
X102752619Y-62864533D01*
X102739914Y-62869079D01*
X102726825Y-62872358D01*
X102713477Y-62874338D01*
X102700000Y-62875000D01*
X101450000Y-62875000D01*
X101436523Y-62874338D01*
X101423175Y-62872358D01*
X101410086Y-62869079D01*
X101397381Y-62864533D01*
X101385183Y-62858764D01*
X101373609Y-62851827D01*
X101362771Y-62843789D01*
X101352773Y-62834727D01*
X101343711Y-62824729D01*
X101335673Y-62813891D01*
X101328736Y-62802317D01*
X101322967Y-62790119D01*
X101318421Y-62777414D01*
X101315142Y-62764325D01*
X101313162Y-62750977D01*
X101312500Y-62737500D01*
X101312500Y-62462500D01*
X101313162Y-62449023D01*
X101315142Y-62435675D01*
X101318421Y-62422586D01*
X101322967Y-62409881D01*
X101328736Y-62397683D01*
X101335673Y-62386109D01*
X101343711Y-62375271D01*
X101352773Y-62365273D01*
X101362771Y-62356211D01*
X101373609Y-62348173D01*
X101385183Y-62341236D01*
X101397381Y-62335467D01*
X101410086Y-62330921D01*
X101423175Y-62327642D01*
X101436523Y-62325662D01*
X101450000Y-62325000D01*
X102700000Y-62325000D01*
X102713477Y-62325662D01*
X102713477Y-62325662D01*
G37*
D14*
X102075000Y-62600000D03*
D12*
G36*
X102713477Y-61525662D02*
G01*
X102726825Y-61527642D01*
X102739914Y-61530921D01*
X102752619Y-61535467D01*
X102764817Y-61541236D01*
X102776391Y-61548173D01*
X102787229Y-61556211D01*
X102797227Y-61565273D01*
X102806289Y-61575271D01*
X102814327Y-61586109D01*
X102821264Y-61597683D01*
X102827033Y-61609881D01*
X102831579Y-61622586D01*
X102834858Y-61635675D01*
X102836838Y-61649023D01*
X102837500Y-61662500D01*
X102837500Y-61937500D01*
X102836838Y-61950977D01*
X102834858Y-61964325D01*
X102831579Y-61977414D01*
X102827033Y-61990119D01*
X102821264Y-62002317D01*
X102814327Y-62013891D01*
X102806289Y-62024729D01*
X102797227Y-62034727D01*
X102787229Y-62043789D01*
X102776391Y-62051827D01*
X102764817Y-62058764D01*
X102752619Y-62064533D01*
X102739914Y-62069079D01*
X102726825Y-62072358D01*
X102713477Y-62074338D01*
X102700000Y-62075000D01*
X101450000Y-62075000D01*
X101436523Y-62074338D01*
X101423175Y-62072358D01*
X101410086Y-62069079D01*
X101397381Y-62064533D01*
X101385183Y-62058764D01*
X101373609Y-62051827D01*
X101362771Y-62043789D01*
X101352773Y-62034727D01*
X101343711Y-62024729D01*
X101335673Y-62013891D01*
X101328736Y-62002317D01*
X101322967Y-61990119D01*
X101318421Y-61977414D01*
X101315142Y-61964325D01*
X101313162Y-61950977D01*
X101312500Y-61937500D01*
X101312500Y-61662500D01*
X101313162Y-61649023D01*
X101315142Y-61635675D01*
X101318421Y-61622586D01*
X101322967Y-61609881D01*
X101328736Y-61597683D01*
X101335673Y-61586109D01*
X101343711Y-61575271D01*
X101352773Y-61565273D01*
X101362771Y-61556211D01*
X101373609Y-61548173D01*
X101385183Y-61541236D01*
X101397381Y-61535467D01*
X101410086Y-61530921D01*
X101423175Y-61527642D01*
X101436523Y-61525662D01*
X101450000Y-61525000D01*
X102700000Y-61525000D01*
X102713477Y-61525662D01*
X102713477Y-61525662D01*
G37*
D14*
X102075000Y-61800000D03*
D12*
G36*
X102713477Y-60725662D02*
G01*
X102726825Y-60727642D01*
X102739914Y-60730921D01*
X102752619Y-60735467D01*
X102764817Y-60741236D01*
X102776391Y-60748173D01*
X102787229Y-60756211D01*
X102797227Y-60765273D01*
X102806289Y-60775271D01*
X102814327Y-60786109D01*
X102821264Y-60797683D01*
X102827033Y-60809881D01*
X102831579Y-60822586D01*
X102834858Y-60835675D01*
X102836838Y-60849023D01*
X102837500Y-60862500D01*
X102837500Y-61137500D01*
X102836838Y-61150977D01*
X102834858Y-61164325D01*
X102831579Y-61177414D01*
X102827033Y-61190119D01*
X102821264Y-61202317D01*
X102814327Y-61213891D01*
X102806289Y-61224729D01*
X102797227Y-61234727D01*
X102787229Y-61243789D01*
X102776391Y-61251827D01*
X102764817Y-61258764D01*
X102752619Y-61264533D01*
X102739914Y-61269079D01*
X102726825Y-61272358D01*
X102713477Y-61274338D01*
X102700000Y-61275000D01*
X101450000Y-61275000D01*
X101436523Y-61274338D01*
X101423175Y-61272358D01*
X101410086Y-61269079D01*
X101397381Y-61264533D01*
X101385183Y-61258764D01*
X101373609Y-61251827D01*
X101362771Y-61243789D01*
X101352773Y-61234727D01*
X101343711Y-61224729D01*
X101335673Y-61213891D01*
X101328736Y-61202317D01*
X101322967Y-61190119D01*
X101318421Y-61177414D01*
X101315142Y-61164325D01*
X101313162Y-61150977D01*
X101312500Y-61137500D01*
X101312500Y-60862500D01*
X101313162Y-60849023D01*
X101315142Y-60835675D01*
X101318421Y-60822586D01*
X101322967Y-60809881D01*
X101328736Y-60797683D01*
X101335673Y-60786109D01*
X101343711Y-60775271D01*
X101352773Y-60765273D01*
X101362771Y-60756211D01*
X101373609Y-60748173D01*
X101385183Y-60741236D01*
X101397381Y-60735467D01*
X101410086Y-60730921D01*
X101423175Y-60727642D01*
X101436523Y-60725662D01*
X101450000Y-60725000D01*
X102700000Y-60725000D01*
X102713477Y-60725662D01*
X102713477Y-60725662D01*
G37*
D14*
X102075000Y-61000000D03*
D12*
G36*
X102713477Y-59925662D02*
G01*
X102726825Y-59927642D01*
X102739914Y-59930921D01*
X102752619Y-59935467D01*
X102764817Y-59941236D01*
X102776391Y-59948173D01*
X102787229Y-59956211D01*
X102797227Y-59965273D01*
X102806289Y-59975271D01*
X102814327Y-59986109D01*
X102821264Y-59997683D01*
X102827033Y-60009881D01*
X102831579Y-60022586D01*
X102834858Y-60035675D01*
X102836838Y-60049023D01*
X102837500Y-60062500D01*
X102837500Y-60337500D01*
X102836838Y-60350977D01*
X102834858Y-60364325D01*
X102831579Y-60377414D01*
X102827033Y-60390119D01*
X102821264Y-60402317D01*
X102814327Y-60413891D01*
X102806289Y-60424729D01*
X102797227Y-60434727D01*
X102787229Y-60443789D01*
X102776391Y-60451827D01*
X102764817Y-60458764D01*
X102752619Y-60464533D01*
X102739914Y-60469079D01*
X102726825Y-60472358D01*
X102713477Y-60474338D01*
X102700000Y-60475000D01*
X101450000Y-60475000D01*
X101436523Y-60474338D01*
X101423175Y-60472358D01*
X101410086Y-60469079D01*
X101397381Y-60464533D01*
X101385183Y-60458764D01*
X101373609Y-60451827D01*
X101362771Y-60443789D01*
X101352773Y-60434727D01*
X101343711Y-60424729D01*
X101335673Y-60413891D01*
X101328736Y-60402317D01*
X101322967Y-60390119D01*
X101318421Y-60377414D01*
X101315142Y-60364325D01*
X101313162Y-60350977D01*
X101312500Y-60337500D01*
X101312500Y-60062500D01*
X101313162Y-60049023D01*
X101315142Y-60035675D01*
X101318421Y-60022586D01*
X101322967Y-60009881D01*
X101328736Y-59997683D01*
X101335673Y-59986109D01*
X101343711Y-59975271D01*
X101352773Y-59965273D01*
X101362771Y-59956211D01*
X101373609Y-59948173D01*
X101385183Y-59941236D01*
X101397381Y-59935467D01*
X101410086Y-59930921D01*
X101423175Y-59927642D01*
X101436523Y-59925662D01*
X101450000Y-59925000D01*
X102700000Y-59925000D01*
X102713477Y-59925662D01*
X102713477Y-59925662D01*
G37*
D14*
X102075000Y-60200000D03*
D12*
G36*
X102713477Y-57525662D02*
G01*
X102726825Y-57527642D01*
X102739914Y-57530921D01*
X102752619Y-57535467D01*
X102764817Y-57541236D01*
X102776391Y-57548173D01*
X102787229Y-57556211D01*
X102797227Y-57565273D01*
X102806289Y-57575271D01*
X102814327Y-57586109D01*
X102821264Y-57597683D01*
X102827033Y-57609881D01*
X102831579Y-57622586D01*
X102834858Y-57635675D01*
X102836838Y-57649023D01*
X102837500Y-57662500D01*
X102837500Y-57937500D01*
X102836838Y-57950977D01*
X102834858Y-57964325D01*
X102831579Y-57977414D01*
X102827033Y-57990119D01*
X102821264Y-58002317D01*
X102814327Y-58013891D01*
X102806289Y-58024729D01*
X102797227Y-58034727D01*
X102787229Y-58043789D01*
X102776391Y-58051827D01*
X102764817Y-58058764D01*
X102752619Y-58064533D01*
X102739914Y-58069079D01*
X102726825Y-58072358D01*
X102713477Y-58074338D01*
X102700000Y-58075000D01*
X101450000Y-58075000D01*
X101436523Y-58074338D01*
X101423175Y-58072358D01*
X101410086Y-58069079D01*
X101397381Y-58064533D01*
X101385183Y-58058764D01*
X101373609Y-58051827D01*
X101362771Y-58043789D01*
X101352773Y-58034727D01*
X101343711Y-58024729D01*
X101335673Y-58013891D01*
X101328736Y-58002317D01*
X101322967Y-57990119D01*
X101318421Y-57977414D01*
X101315142Y-57964325D01*
X101313162Y-57950977D01*
X101312500Y-57937500D01*
X101312500Y-57662500D01*
X101313162Y-57649023D01*
X101315142Y-57635675D01*
X101318421Y-57622586D01*
X101322967Y-57609881D01*
X101328736Y-57597683D01*
X101335673Y-57586109D01*
X101343711Y-57575271D01*
X101352773Y-57565273D01*
X101362771Y-57556211D01*
X101373609Y-57548173D01*
X101385183Y-57541236D01*
X101397381Y-57535467D01*
X101410086Y-57530921D01*
X101423175Y-57527642D01*
X101436523Y-57525662D01*
X101450000Y-57525000D01*
X102700000Y-57525000D01*
X102713477Y-57525662D01*
X102713477Y-57525662D01*
G37*
D14*
X102075000Y-57800000D03*
D12*
G36*
X102713477Y-56725662D02*
G01*
X102726825Y-56727642D01*
X102739914Y-56730921D01*
X102752619Y-56735467D01*
X102764817Y-56741236D01*
X102776391Y-56748173D01*
X102787229Y-56756211D01*
X102797227Y-56765273D01*
X102806289Y-56775271D01*
X102814327Y-56786109D01*
X102821264Y-56797683D01*
X102827033Y-56809881D01*
X102831579Y-56822586D01*
X102834858Y-56835675D01*
X102836838Y-56849023D01*
X102837500Y-56862500D01*
X102837500Y-57137500D01*
X102836838Y-57150977D01*
X102834858Y-57164325D01*
X102831579Y-57177414D01*
X102827033Y-57190119D01*
X102821264Y-57202317D01*
X102814327Y-57213891D01*
X102806289Y-57224729D01*
X102797227Y-57234727D01*
X102787229Y-57243789D01*
X102776391Y-57251827D01*
X102764817Y-57258764D01*
X102752619Y-57264533D01*
X102739914Y-57269079D01*
X102726825Y-57272358D01*
X102713477Y-57274338D01*
X102700000Y-57275000D01*
X101450000Y-57275000D01*
X101436523Y-57274338D01*
X101423175Y-57272358D01*
X101410086Y-57269079D01*
X101397381Y-57264533D01*
X101385183Y-57258764D01*
X101373609Y-57251827D01*
X101362771Y-57243789D01*
X101352773Y-57234727D01*
X101343711Y-57224729D01*
X101335673Y-57213891D01*
X101328736Y-57202317D01*
X101322967Y-57190119D01*
X101318421Y-57177414D01*
X101315142Y-57164325D01*
X101313162Y-57150977D01*
X101312500Y-57137500D01*
X101312500Y-56862500D01*
X101313162Y-56849023D01*
X101315142Y-56835675D01*
X101318421Y-56822586D01*
X101322967Y-56809881D01*
X101328736Y-56797683D01*
X101335673Y-56786109D01*
X101343711Y-56775271D01*
X101352773Y-56765273D01*
X101362771Y-56756211D01*
X101373609Y-56748173D01*
X101385183Y-56741236D01*
X101397381Y-56735467D01*
X101410086Y-56730921D01*
X101423175Y-56727642D01*
X101436523Y-56725662D01*
X101450000Y-56725000D01*
X102700000Y-56725000D01*
X102713477Y-56725662D01*
X102713477Y-56725662D01*
G37*
D14*
X102075000Y-57000000D03*
D12*
G36*
X102713477Y-55925662D02*
G01*
X102726825Y-55927642D01*
X102739914Y-55930921D01*
X102752619Y-55935467D01*
X102764817Y-55941236D01*
X102776391Y-55948173D01*
X102787229Y-55956211D01*
X102797227Y-55965273D01*
X102806289Y-55975271D01*
X102814327Y-55986109D01*
X102821264Y-55997683D01*
X102827033Y-56009881D01*
X102831579Y-56022586D01*
X102834858Y-56035675D01*
X102836838Y-56049023D01*
X102837500Y-56062500D01*
X102837500Y-56337500D01*
X102836838Y-56350977D01*
X102834858Y-56364325D01*
X102831579Y-56377414D01*
X102827033Y-56390119D01*
X102821264Y-56402317D01*
X102814327Y-56413891D01*
X102806289Y-56424729D01*
X102797227Y-56434727D01*
X102787229Y-56443789D01*
X102776391Y-56451827D01*
X102764817Y-56458764D01*
X102752619Y-56464533D01*
X102739914Y-56469079D01*
X102726825Y-56472358D01*
X102713477Y-56474338D01*
X102700000Y-56475000D01*
X101450000Y-56475000D01*
X101436523Y-56474338D01*
X101423175Y-56472358D01*
X101410086Y-56469079D01*
X101397381Y-56464533D01*
X101385183Y-56458764D01*
X101373609Y-56451827D01*
X101362771Y-56443789D01*
X101352773Y-56434727D01*
X101343711Y-56424729D01*
X101335673Y-56413891D01*
X101328736Y-56402317D01*
X101322967Y-56390119D01*
X101318421Y-56377414D01*
X101315142Y-56364325D01*
X101313162Y-56350977D01*
X101312500Y-56337500D01*
X101312500Y-56062500D01*
X101313162Y-56049023D01*
X101315142Y-56035675D01*
X101318421Y-56022586D01*
X101322967Y-56009881D01*
X101328736Y-55997683D01*
X101335673Y-55986109D01*
X101343711Y-55975271D01*
X101352773Y-55965273D01*
X101362771Y-55956211D01*
X101373609Y-55948173D01*
X101385183Y-55941236D01*
X101397381Y-55935467D01*
X101410086Y-55930921D01*
X101423175Y-55927642D01*
X101436523Y-55925662D01*
X101450000Y-55925000D01*
X102700000Y-55925000D01*
X102713477Y-55925662D01*
X102713477Y-55925662D01*
G37*
D14*
X102075000Y-56200000D03*
D12*
G36*
X102713477Y-55125662D02*
G01*
X102726825Y-55127642D01*
X102739914Y-55130921D01*
X102752619Y-55135467D01*
X102764817Y-55141236D01*
X102776391Y-55148173D01*
X102787229Y-55156211D01*
X102797227Y-55165273D01*
X102806289Y-55175271D01*
X102814327Y-55186109D01*
X102821264Y-55197683D01*
X102827033Y-55209881D01*
X102831579Y-55222586D01*
X102834858Y-55235675D01*
X102836838Y-55249023D01*
X102837500Y-55262500D01*
X102837500Y-55537500D01*
X102836838Y-55550977D01*
X102834858Y-55564325D01*
X102831579Y-55577414D01*
X102827033Y-55590119D01*
X102821264Y-55602317D01*
X102814327Y-55613891D01*
X102806289Y-55624729D01*
X102797227Y-55634727D01*
X102787229Y-55643789D01*
X102776391Y-55651827D01*
X102764817Y-55658764D01*
X102752619Y-55664533D01*
X102739914Y-55669079D01*
X102726825Y-55672358D01*
X102713477Y-55674338D01*
X102700000Y-55675000D01*
X101450000Y-55675000D01*
X101436523Y-55674338D01*
X101423175Y-55672358D01*
X101410086Y-55669079D01*
X101397381Y-55664533D01*
X101385183Y-55658764D01*
X101373609Y-55651827D01*
X101362771Y-55643789D01*
X101352773Y-55634727D01*
X101343711Y-55624729D01*
X101335673Y-55613891D01*
X101328736Y-55602317D01*
X101322967Y-55590119D01*
X101318421Y-55577414D01*
X101315142Y-55564325D01*
X101313162Y-55550977D01*
X101312500Y-55537500D01*
X101312500Y-55262500D01*
X101313162Y-55249023D01*
X101315142Y-55235675D01*
X101318421Y-55222586D01*
X101322967Y-55209881D01*
X101328736Y-55197683D01*
X101335673Y-55186109D01*
X101343711Y-55175271D01*
X101352773Y-55165273D01*
X101362771Y-55156211D01*
X101373609Y-55148173D01*
X101385183Y-55141236D01*
X101397381Y-55135467D01*
X101410086Y-55130921D01*
X101423175Y-55127642D01*
X101436523Y-55125662D01*
X101450000Y-55125000D01*
X102700000Y-55125000D01*
X102713477Y-55125662D01*
X102713477Y-55125662D01*
G37*
D14*
X102075000Y-55400000D03*
D12*
G36*
X102713477Y-54325662D02*
G01*
X102726825Y-54327642D01*
X102739914Y-54330921D01*
X102752619Y-54335467D01*
X102764817Y-54341236D01*
X102776391Y-54348173D01*
X102787229Y-54356211D01*
X102797227Y-54365273D01*
X102806289Y-54375271D01*
X102814327Y-54386109D01*
X102821264Y-54397683D01*
X102827033Y-54409881D01*
X102831579Y-54422586D01*
X102834858Y-54435675D01*
X102836838Y-54449023D01*
X102837500Y-54462500D01*
X102837500Y-54737500D01*
X102836838Y-54750977D01*
X102834858Y-54764325D01*
X102831579Y-54777414D01*
X102827033Y-54790119D01*
X102821264Y-54802317D01*
X102814327Y-54813891D01*
X102806289Y-54824729D01*
X102797227Y-54834727D01*
X102787229Y-54843789D01*
X102776391Y-54851827D01*
X102764817Y-54858764D01*
X102752619Y-54864533D01*
X102739914Y-54869079D01*
X102726825Y-54872358D01*
X102713477Y-54874338D01*
X102700000Y-54875000D01*
X101450000Y-54875000D01*
X101436523Y-54874338D01*
X101423175Y-54872358D01*
X101410086Y-54869079D01*
X101397381Y-54864533D01*
X101385183Y-54858764D01*
X101373609Y-54851827D01*
X101362771Y-54843789D01*
X101352773Y-54834727D01*
X101343711Y-54824729D01*
X101335673Y-54813891D01*
X101328736Y-54802317D01*
X101322967Y-54790119D01*
X101318421Y-54777414D01*
X101315142Y-54764325D01*
X101313162Y-54750977D01*
X101312500Y-54737500D01*
X101312500Y-54462500D01*
X101313162Y-54449023D01*
X101315142Y-54435675D01*
X101318421Y-54422586D01*
X101322967Y-54409881D01*
X101328736Y-54397683D01*
X101335673Y-54386109D01*
X101343711Y-54375271D01*
X101352773Y-54365273D01*
X101362771Y-54356211D01*
X101373609Y-54348173D01*
X101385183Y-54341236D01*
X101397381Y-54335467D01*
X101410086Y-54330921D01*
X101423175Y-54327642D01*
X101436523Y-54325662D01*
X101450000Y-54325000D01*
X102700000Y-54325000D01*
X102713477Y-54325662D01*
X102713477Y-54325662D01*
G37*
D14*
X102075000Y-54600000D03*
D12*
G36*
X102713477Y-53525662D02*
G01*
X102726825Y-53527642D01*
X102739914Y-53530921D01*
X102752619Y-53535467D01*
X102764817Y-53541236D01*
X102776391Y-53548173D01*
X102787229Y-53556211D01*
X102797227Y-53565273D01*
X102806289Y-53575271D01*
X102814327Y-53586109D01*
X102821264Y-53597683D01*
X102827033Y-53609881D01*
X102831579Y-53622586D01*
X102834858Y-53635675D01*
X102836838Y-53649023D01*
X102837500Y-53662500D01*
X102837500Y-53937500D01*
X102836838Y-53950977D01*
X102834858Y-53964325D01*
X102831579Y-53977414D01*
X102827033Y-53990119D01*
X102821264Y-54002317D01*
X102814327Y-54013891D01*
X102806289Y-54024729D01*
X102797227Y-54034727D01*
X102787229Y-54043789D01*
X102776391Y-54051827D01*
X102764817Y-54058764D01*
X102752619Y-54064533D01*
X102739914Y-54069079D01*
X102726825Y-54072358D01*
X102713477Y-54074338D01*
X102700000Y-54075000D01*
X101450000Y-54075000D01*
X101436523Y-54074338D01*
X101423175Y-54072358D01*
X101410086Y-54069079D01*
X101397381Y-54064533D01*
X101385183Y-54058764D01*
X101373609Y-54051827D01*
X101362771Y-54043789D01*
X101352773Y-54034727D01*
X101343711Y-54024729D01*
X101335673Y-54013891D01*
X101328736Y-54002317D01*
X101322967Y-53990119D01*
X101318421Y-53977414D01*
X101315142Y-53964325D01*
X101313162Y-53950977D01*
X101312500Y-53937500D01*
X101312500Y-53662500D01*
X101313162Y-53649023D01*
X101315142Y-53635675D01*
X101318421Y-53622586D01*
X101322967Y-53609881D01*
X101328736Y-53597683D01*
X101335673Y-53586109D01*
X101343711Y-53575271D01*
X101352773Y-53565273D01*
X101362771Y-53556211D01*
X101373609Y-53548173D01*
X101385183Y-53541236D01*
X101397381Y-53535467D01*
X101410086Y-53530921D01*
X101423175Y-53527642D01*
X101436523Y-53525662D01*
X101450000Y-53525000D01*
X102700000Y-53525000D01*
X102713477Y-53525662D01*
X102713477Y-53525662D01*
G37*
D14*
X102075000Y-53800000D03*
D12*
G36*
X102713477Y-52725662D02*
G01*
X102726825Y-52727642D01*
X102739914Y-52730921D01*
X102752619Y-52735467D01*
X102764817Y-52741236D01*
X102776391Y-52748173D01*
X102787229Y-52756211D01*
X102797227Y-52765273D01*
X102806289Y-52775271D01*
X102814327Y-52786109D01*
X102821264Y-52797683D01*
X102827033Y-52809881D01*
X102831579Y-52822586D01*
X102834858Y-52835675D01*
X102836838Y-52849023D01*
X102837500Y-52862500D01*
X102837500Y-53137500D01*
X102836838Y-53150977D01*
X102834858Y-53164325D01*
X102831579Y-53177414D01*
X102827033Y-53190119D01*
X102821264Y-53202317D01*
X102814327Y-53213891D01*
X102806289Y-53224729D01*
X102797227Y-53234727D01*
X102787229Y-53243789D01*
X102776391Y-53251827D01*
X102764817Y-53258764D01*
X102752619Y-53264533D01*
X102739914Y-53269079D01*
X102726825Y-53272358D01*
X102713477Y-53274338D01*
X102700000Y-53275000D01*
X101450000Y-53275000D01*
X101436523Y-53274338D01*
X101423175Y-53272358D01*
X101410086Y-53269079D01*
X101397381Y-53264533D01*
X101385183Y-53258764D01*
X101373609Y-53251827D01*
X101362771Y-53243789D01*
X101352773Y-53234727D01*
X101343711Y-53224729D01*
X101335673Y-53213891D01*
X101328736Y-53202317D01*
X101322967Y-53190119D01*
X101318421Y-53177414D01*
X101315142Y-53164325D01*
X101313162Y-53150977D01*
X101312500Y-53137500D01*
X101312500Y-52862500D01*
X101313162Y-52849023D01*
X101315142Y-52835675D01*
X101318421Y-52822586D01*
X101322967Y-52809881D01*
X101328736Y-52797683D01*
X101335673Y-52786109D01*
X101343711Y-52775271D01*
X101352773Y-52765273D01*
X101362771Y-52756211D01*
X101373609Y-52748173D01*
X101385183Y-52741236D01*
X101397381Y-52735467D01*
X101410086Y-52730921D01*
X101423175Y-52727642D01*
X101436523Y-52725662D01*
X101450000Y-52725000D01*
X102700000Y-52725000D01*
X102713477Y-52725662D01*
X102713477Y-52725662D01*
G37*
D14*
X102075000Y-53000000D03*
D12*
G36*
X102713477Y-51925662D02*
G01*
X102726825Y-51927642D01*
X102739914Y-51930921D01*
X102752619Y-51935467D01*
X102764817Y-51941236D01*
X102776391Y-51948173D01*
X102787229Y-51956211D01*
X102797227Y-51965273D01*
X102806289Y-51975271D01*
X102814327Y-51986109D01*
X102821264Y-51997683D01*
X102827033Y-52009881D01*
X102831579Y-52022586D01*
X102834858Y-52035675D01*
X102836838Y-52049023D01*
X102837500Y-52062500D01*
X102837500Y-52337500D01*
X102836838Y-52350977D01*
X102834858Y-52364325D01*
X102831579Y-52377414D01*
X102827033Y-52390119D01*
X102821264Y-52402317D01*
X102814327Y-52413891D01*
X102806289Y-52424729D01*
X102797227Y-52434727D01*
X102787229Y-52443789D01*
X102776391Y-52451827D01*
X102764817Y-52458764D01*
X102752619Y-52464533D01*
X102739914Y-52469079D01*
X102726825Y-52472358D01*
X102713477Y-52474338D01*
X102700000Y-52475000D01*
X101450000Y-52475000D01*
X101436523Y-52474338D01*
X101423175Y-52472358D01*
X101410086Y-52469079D01*
X101397381Y-52464533D01*
X101385183Y-52458764D01*
X101373609Y-52451827D01*
X101362771Y-52443789D01*
X101352773Y-52434727D01*
X101343711Y-52424729D01*
X101335673Y-52413891D01*
X101328736Y-52402317D01*
X101322967Y-52390119D01*
X101318421Y-52377414D01*
X101315142Y-52364325D01*
X101313162Y-52350977D01*
X101312500Y-52337500D01*
X101312500Y-52062500D01*
X101313162Y-52049023D01*
X101315142Y-52035675D01*
X101318421Y-52022586D01*
X101322967Y-52009881D01*
X101328736Y-51997683D01*
X101335673Y-51986109D01*
X101343711Y-51975271D01*
X101352773Y-51965273D01*
X101362771Y-51956211D01*
X101373609Y-51948173D01*
X101385183Y-51941236D01*
X101397381Y-51935467D01*
X101410086Y-51930921D01*
X101423175Y-51927642D01*
X101436523Y-51925662D01*
X101450000Y-51925000D01*
X102700000Y-51925000D01*
X102713477Y-51925662D01*
X102713477Y-51925662D01*
G37*
D14*
X102075000Y-52200000D03*
D12*
G36*
X102713477Y-51125662D02*
G01*
X102726825Y-51127642D01*
X102739914Y-51130921D01*
X102752619Y-51135467D01*
X102764817Y-51141236D01*
X102776391Y-51148173D01*
X102787229Y-51156211D01*
X102797227Y-51165273D01*
X102806289Y-51175271D01*
X102814327Y-51186109D01*
X102821264Y-51197683D01*
X102827033Y-51209881D01*
X102831579Y-51222586D01*
X102834858Y-51235675D01*
X102836838Y-51249023D01*
X102837500Y-51262500D01*
X102837500Y-51537500D01*
X102836838Y-51550977D01*
X102834858Y-51564325D01*
X102831579Y-51577414D01*
X102827033Y-51590119D01*
X102821264Y-51602317D01*
X102814327Y-51613891D01*
X102806289Y-51624729D01*
X102797227Y-51634727D01*
X102787229Y-51643789D01*
X102776391Y-51651827D01*
X102764817Y-51658764D01*
X102752619Y-51664533D01*
X102739914Y-51669079D01*
X102726825Y-51672358D01*
X102713477Y-51674338D01*
X102700000Y-51675000D01*
X101450000Y-51675000D01*
X101436523Y-51674338D01*
X101423175Y-51672358D01*
X101410086Y-51669079D01*
X101397381Y-51664533D01*
X101385183Y-51658764D01*
X101373609Y-51651827D01*
X101362771Y-51643789D01*
X101352773Y-51634727D01*
X101343711Y-51624729D01*
X101335673Y-51613891D01*
X101328736Y-51602317D01*
X101322967Y-51590119D01*
X101318421Y-51577414D01*
X101315142Y-51564325D01*
X101313162Y-51550977D01*
X101312500Y-51537500D01*
X101312500Y-51262500D01*
X101313162Y-51249023D01*
X101315142Y-51235675D01*
X101318421Y-51222586D01*
X101322967Y-51209881D01*
X101328736Y-51197683D01*
X101335673Y-51186109D01*
X101343711Y-51175271D01*
X101352773Y-51165273D01*
X101362771Y-51156211D01*
X101373609Y-51148173D01*
X101385183Y-51141236D01*
X101397381Y-51135467D01*
X101410086Y-51130921D01*
X101423175Y-51127642D01*
X101436523Y-51125662D01*
X101450000Y-51125000D01*
X102700000Y-51125000D01*
X102713477Y-51125662D01*
X102713477Y-51125662D01*
G37*
D14*
X102075000Y-51400000D03*
D12*
G36*
X102713477Y-50325662D02*
G01*
X102726825Y-50327642D01*
X102739914Y-50330921D01*
X102752619Y-50335467D01*
X102764817Y-50341236D01*
X102776391Y-50348173D01*
X102787229Y-50356211D01*
X102797227Y-50365273D01*
X102806289Y-50375271D01*
X102814327Y-50386109D01*
X102821264Y-50397683D01*
X102827033Y-50409881D01*
X102831579Y-50422586D01*
X102834858Y-50435675D01*
X102836838Y-50449023D01*
X102837500Y-50462500D01*
X102837500Y-50737500D01*
X102836838Y-50750977D01*
X102834858Y-50764325D01*
X102831579Y-50777414D01*
X102827033Y-50790119D01*
X102821264Y-50802317D01*
X102814327Y-50813891D01*
X102806289Y-50824729D01*
X102797227Y-50834727D01*
X102787229Y-50843789D01*
X102776391Y-50851827D01*
X102764817Y-50858764D01*
X102752619Y-50864533D01*
X102739914Y-50869079D01*
X102726825Y-50872358D01*
X102713477Y-50874338D01*
X102700000Y-50875000D01*
X101450000Y-50875000D01*
X101436523Y-50874338D01*
X101423175Y-50872358D01*
X101410086Y-50869079D01*
X101397381Y-50864533D01*
X101385183Y-50858764D01*
X101373609Y-50851827D01*
X101362771Y-50843789D01*
X101352773Y-50834727D01*
X101343711Y-50824729D01*
X101335673Y-50813891D01*
X101328736Y-50802317D01*
X101322967Y-50790119D01*
X101318421Y-50777414D01*
X101315142Y-50764325D01*
X101313162Y-50750977D01*
X101312500Y-50737500D01*
X101312500Y-50462500D01*
X101313162Y-50449023D01*
X101315142Y-50435675D01*
X101318421Y-50422586D01*
X101322967Y-50409881D01*
X101328736Y-50397683D01*
X101335673Y-50386109D01*
X101343711Y-50375271D01*
X101352773Y-50365273D01*
X101362771Y-50356211D01*
X101373609Y-50348173D01*
X101385183Y-50341236D01*
X101397381Y-50335467D01*
X101410086Y-50330921D01*
X101423175Y-50327642D01*
X101436523Y-50325662D01*
X101450000Y-50325000D01*
X102700000Y-50325000D01*
X102713477Y-50325662D01*
X102713477Y-50325662D01*
G37*
D14*
X102075000Y-50600000D03*
D12*
G36*
X91538477Y-50325662D02*
G01*
X91551825Y-50327642D01*
X91564914Y-50330921D01*
X91577619Y-50335467D01*
X91589817Y-50341236D01*
X91601391Y-50348173D01*
X91612229Y-50356211D01*
X91622227Y-50365273D01*
X91631289Y-50375271D01*
X91639327Y-50386109D01*
X91646264Y-50397683D01*
X91652033Y-50409881D01*
X91656579Y-50422586D01*
X91659858Y-50435675D01*
X91661838Y-50449023D01*
X91662500Y-50462500D01*
X91662500Y-50737500D01*
X91661838Y-50750977D01*
X91659858Y-50764325D01*
X91656579Y-50777414D01*
X91652033Y-50790119D01*
X91646264Y-50802317D01*
X91639327Y-50813891D01*
X91631289Y-50824729D01*
X91622227Y-50834727D01*
X91612229Y-50843789D01*
X91601391Y-50851827D01*
X91589817Y-50858764D01*
X91577619Y-50864533D01*
X91564914Y-50869079D01*
X91551825Y-50872358D01*
X91538477Y-50874338D01*
X91525000Y-50875000D01*
X90275000Y-50875000D01*
X90261523Y-50874338D01*
X90248175Y-50872358D01*
X90235086Y-50869079D01*
X90222381Y-50864533D01*
X90210183Y-50858764D01*
X90198609Y-50851827D01*
X90187771Y-50843789D01*
X90177773Y-50834727D01*
X90168711Y-50824729D01*
X90160673Y-50813891D01*
X90153736Y-50802317D01*
X90147967Y-50790119D01*
X90143421Y-50777414D01*
X90140142Y-50764325D01*
X90138162Y-50750977D01*
X90137500Y-50737500D01*
X90137500Y-50462500D01*
X90138162Y-50449023D01*
X90140142Y-50435675D01*
X90143421Y-50422586D01*
X90147967Y-50409881D01*
X90153736Y-50397683D01*
X90160673Y-50386109D01*
X90168711Y-50375271D01*
X90177773Y-50365273D01*
X90187771Y-50356211D01*
X90198609Y-50348173D01*
X90210183Y-50341236D01*
X90222381Y-50335467D01*
X90235086Y-50330921D01*
X90248175Y-50327642D01*
X90261523Y-50325662D01*
X90275000Y-50325000D01*
X91525000Y-50325000D01*
X91538477Y-50325662D01*
X91538477Y-50325662D01*
G37*
D14*
X90900000Y-50600000D03*
D12*
G36*
X91538477Y-51125662D02*
G01*
X91551825Y-51127642D01*
X91564914Y-51130921D01*
X91577619Y-51135467D01*
X91589817Y-51141236D01*
X91601391Y-51148173D01*
X91612229Y-51156211D01*
X91622227Y-51165273D01*
X91631289Y-51175271D01*
X91639327Y-51186109D01*
X91646264Y-51197683D01*
X91652033Y-51209881D01*
X91656579Y-51222586D01*
X91659858Y-51235675D01*
X91661838Y-51249023D01*
X91662500Y-51262500D01*
X91662500Y-51537500D01*
X91661838Y-51550977D01*
X91659858Y-51564325D01*
X91656579Y-51577414D01*
X91652033Y-51590119D01*
X91646264Y-51602317D01*
X91639327Y-51613891D01*
X91631289Y-51624729D01*
X91622227Y-51634727D01*
X91612229Y-51643789D01*
X91601391Y-51651827D01*
X91589817Y-51658764D01*
X91577619Y-51664533D01*
X91564914Y-51669079D01*
X91551825Y-51672358D01*
X91538477Y-51674338D01*
X91525000Y-51675000D01*
X90275000Y-51675000D01*
X90261523Y-51674338D01*
X90248175Y-51672358D01*
X90235086Y-51669079D01*
X90222381Y-51664533D01*
X90210183Y-51658764D01*
X90198609Y-51651827D01*
X90187771Y-51643789D01*
X90177773Y-51634727D01*
X90168711Y-51624729D01*
X90160673Y-51613891D01*
X90153736Y-51602317D01*
X90147967Y-51590119D01*
X90143421Y-51577414D01*
X90140142Y-51564325D01*
X90138162Y-51550977D01*
X90137500Y-51537500D01*
X90137500Y-51262500D01*
X90138162Y-51249023D01*
X90140142Y-51235675D01*
X90143421Y-51222586D01*
X90147967Y-51209881D01*
X90153736Y-51197683D01*
X90160673Y-51186109D01*
X90168711Y-51175271D01*
X90177773Y-51165273D01*
X90187771Y-51156211D01*
X90198609Y-51148173D01*
X90210183Y-51141236D01*
X90222381Y-51135467D01*
X90235086Y-51130921D01*
X90248175Y-51127642D01*
X90261523Y-51125662D01*
X90275000Y-51125000D01*
X91525000Y-51125000D01*
X91538477Y-51125662D01*
X91538477Y-51125662D01*
G37*
D14*
X90900000Y-51400000D03*
D12*
G36*
X91538477Y-51925662D02*
G01*
X91551825Y-51927642D01*
X91564914Y-51930921D01*
X91577619Y-51935467D01*
X91589817Y-51941236D01*
X91601391Y-51948173D01*
X91612229Y-51956211D01*
X91622227Y-51965273D01*
X91631289Y-51975271D01*
X91639327Y-51986109D01*
X91646264Y-51997683D01*
X91652033Y-52009881D01*
X91656579Y-52022586D01*
X91659858Y-52035675D01*
X91661838Y-52049023D01*
X91662500Y-52062500D01*
X91662500Y-52337500D01*
X91661838Y-52350977D01*
X91659858Y-52364325D01*
X91656579Y-52377414D01*
X91652033Y-52390119D01*
X91646264Y-52402317D01*
X91639327Y-52413891D01*
X91631289Y-52424729D01*
X91622227Y-52434727D01*
X91612229Y-52443789D01*
X91601391Y-52451827D01*
X91589817Y-52458764D01*
X91577619Y-52464533D01*
X91564914Y-52469079D01*
X91551825Y-52472358D01*
X91538477Y-52474338D01*
X91525000Y-52475000D01*
X90275000Y-52475000D01*
X90261523Y-52474338D01*
X90248175Y-52472358D01*
X90235086Y-52469079D01*
X90222381Y-52464533D01*
X90210183Y-52458764D01*
X90198609Y-52451827D01*
X90187771Y-52443789D01*
X90177773Y-52434727D01*
X90168711Y-52424729D01*
X90160673Y-52413891D01*
X90153736Y-52402317D01*
X90147967Y-52390119D01*
X90143421Y-52377414D01*
X90140142Y-52364325D01*
X90138162Y-52350977D01*
X90137500Y-52337500D01*
X90137500Y-52062500D01*
X90138162Y-52049023D01*
X90140142Y-52035675D01*
X90143421Y-52022586D01*
X90147967Y-52009881D01*
X90153736Y-51997683D01*
X90160673Y-51986109D01*
X90168711Y-51975271D01*
X90177773Y-51965273D01*
X90187771Y-51956211D01*
X90198609Y-51948173D01*
X90210183Y-51941236D01*
X90222381Y-51935467D01*
X90235086Y-51930921D01*
X90248175Y-51927642D01*
X90261523Y-51925662D01*
X90275000Y-51925000D01*
X91525000Y-51925000D01*
X91538477Y-51925662D01*
X91538477Y-51925662D01*
G37*
D14*
X90900000Y-52200000D03*
D12*
G36*
X91538477Y-52725662D02*
G01*
X91551825Y-52727642D01*
X91564914Y-52730921D01*
X91577619Y-52735467D01*
X91589817Y-52741236D01*
X91601391Y-52748173D01*
X91612229Y-52756211D01*
X91622227Y-52765273D01*
X91631289Y-52775271D01*
X91639327Y-52786109D01*
X91646264Y-52797683D01*
X91652033Y-52809881D01*
X91656579Y-52822586D01*
X91659858Y-52835675D01*
X91661838Y-52849023D01*
X91662500Y-52862500D01*
X91662500Y-53137500D01*
X91661838Y-53150977D01*
X91659858Y-53164325D01*
X91656579Y-53177414D01*
X91652033Y-53190119D01*
X91646264Y-53202317D01*
X91639327Y-53213891D01*
X91631289Y-53224729D01*
X91622227Y-53234727D01*
X91612229Y-53243789D01*
X91601391Y-53251827D01*
X91589817Y-53258764D01*
X91577619Y-53264533D01*
X91564914Y-53269079D01*
X91551825Y-53272358D01*
X91538477Y-53274338D01*
X91525000Y-53275000D01*
X90275000Y-53275000D01*
X90261523Y-53274338D01*
X90248175Y-53272358D01*
X90235086Y-53269079D01*
X90222381Y-53264533D01*
X90210183Y-53258764D01*
X90198609Y-53251827D01*
X90187771Y-53243789D01*
X90177773Y-53234727D01*
X90168711Y-53224729D01*
X90160673Y-53213891D01*
X90153736Y-53202317D01*
X90147967Y-53190119D01*
X90143421Y-53177414D01*
X90140142Y-53164325D01*
X90138162Y-53150977D01*
X90137500Y-53137500D01*
X90137500Y-52862500D01*
X90138162Y-52849023D01*
X90140142Y-52835675D01*
X90143421Y-52822586D01*
X90147967Y-52809881D01*
X90153736Y-52797683D01*
X90160673Y-52786109D01*
X90168711Y-52775271D01*
X90177773Y-52765273D01*
X90187771Y-52756211D01*
X90198609Y-52748173D01*
X90210183Y-52741236D01*
X90222381Y-52735467D01*
X90235086Y-52730921D01*
X90248175Y-52727642D01*
X90261523Y-52725662D01*
X90275000Y-52725000D01*
X91525000Y-52725000D01*
X91538477Y-52725662D01*
X91538477Y-52725662D01*
G37*
D14*
X90900000Y-53000000D03*
D12*
G36*
X91538477Y-53525662D02*
G01*
X91551825Y-53527642D01*
X91564914Y-53530921D01*
X91577619Y-53535467D01*
X91589817Y-53541236D01*
X91601391Y-53548173D01*
X91612229Y-53556211D01*
X91622227Y-53565273D01*
X91631289Y-53575271D01*
X91639327Y-53586109D01*
X91646264Y-53597683D01*
X91652033Y-53609881D01*
X91656579Y-53622586D01*
X91659858Y-53635675D01*
X91661838Y-53649023D01*
X91662500Y-53662500D01*
X91662500Y-53937500D01*
X91661838Y-53950977D01*
X91659858Y-53964325D01*
X91656579Y-53977414D01*
X91652033Y-53990119D01*
X91646264Y-54002317D01*
X91639327Y-54013891D01*
X91631289Y-54024729D01*
X91622227Y-54034727D01*
X91612229Y-54043789D01*
X91601391Y-54051827D01*
X91589817Y-54058764D01*
X91577619Y-54064533D01*
X91564914Y-54069079D01*
X91551825Y-54072358D01*
X91538477Y-54074338D01*
X91525000Y-54075000D01*
X90275000Y-54075000D01*
X90261523Y-54074338D01*
X90248175Y-54072358D01*
X90235086Y-54069079D01*
X90222381Y-54064533D01*
X90210183Y-54058764D01*
X90198609Y-54051827D01*
X90187771Y-54043789D01*
X90177773Y-54034727D01*
X90168711Y-54024729D01*
X90160673Y-54013891D01*
X90153736Y-54002317D01*
X90147967Y-53990119D01*
X90143421Y-53977414D01*
X90140142Y-53964325D01*
X90138162Y-53950977D01*
X90137500Y-53937500D01*
X90137500Y-53662500D01*
X90138162Y-53649023D01*
X90140142Y-53635675D01*
X90143421Y-53622586D01*
X90147967Y-53609881D01*
X90153736Y-53597683D01*
X90160673Y-53586109D01*
X90168711Y-53575271D01*
X90177773Y-53565273D01*
X90187771Y-53556211D01*
X90198609Y-53548173D01*
X90210183Y-53541236D01*
X90222381Y-53535467D01*
X90235086Y-53530921D01*
X90248175Y-53527642D01*
X90261523Y-53525662D01*
X90275000Y-53525000D01*
X91525000Y-53525000D01*
X91538477Y-53525662D01*
X91538477Y-53525662D01*
G37*
D14*
X90900000Y-53800000D03*
D12*
G36*
X91538477Y-54325662D02*
G01*
X91551825Y-54327642D01*
X91564914Y-54330921D01*
X91577619Y-54335467D01*
X91589817Y-54341236D01*
X91601391Y-54348173D01*
X91612229Y-54356211D01*
X91622227Y-54365273D01*
X91631289Y-54375271D01*
X91639327Y-54386109D01*
X91646264Y-54397683D01*
X91652033Y-54409881D01*
X91656579Y-54422586D01*
X91659858Y-54435675D01*
X91661838Y-54449023D01*
X91662500Y-54462500D01*
X91662500Y-54737500D01*
X91661838Y-54750977D01*
X91659858Y-54764325D01*
X91656579Y-54777414D01*
X91652033Y-54790119D01*
X91646264Y-54802317D01*
X91639327Y-54813891D01*
X91631289Y-54824729D01*
X91622227Y-54834727D01*
X91612229Y-54843789D01*
X91601391Y-54851827D01*
X91589817Y-54858764D01*
X91577619Y-54864533D01*
X91564914Y-54869079D01*
X91551825Y-54872358D01*
X91538477Y-54874338D01*
X91525000Y-54875000D01*
X90275000Y-54875000D01*
X90261523Y-54874338D01*
X90248175Y-54872358D01*
X90235086Y-54869079D01*
X90222381Y-54864533D01*
X90210183Y-54858764D01*
X90198609Y-54851827D01*
X90187771Y-54843789D01*
X90177773Y-54834727D01*
X90168711Y-54824729D01*
X90160673Y-54813891D01*
X90153736Y-54802317D01*
X90147967Y-54790119D01*
X90143421Y-54777414D01*
X90140142Y-54764325D01*
X90138162Y-54750977D01*
X90137500Y-54737500D01*
X90137500Y-54462500D01*
X90138162Y-54449023D01*
X90140142Y-54435675D01*
X90143421Y-54422586D01*
X90147967Y-54409881D01*
X90153736Y-54397683D01*
X90160673Y-54386109D01*
X90168711Y-54375271D01*
X90177773Y-54365273D01*
X90187771Y-54356211D01*
X90198609Y-54348173D01*
X90210183Y-54341236D01*
X90222381Y-54335467D01*
X90235086Y-54330921D01*
X90248175Y-54327642D01*
X90261523Y-54325662D01*
X90275000Y-54325000D01*
X91525000Y-54325000D01*
X91538477Y-54325662D01*
X91538477Y-54325662D01*
G37*
D14*
X90900000Y-54600000D03*
D12*
G36*
X91538477Y-55125662D02*
G01*
X91551825Y-55127642D01*
X91564914Y-55130921D01*
X91577619Y-55135467D01*
X91589817Y-55141236D01*
X91601391Y-55148173D01*
X91612229Y-55156211D01*
X91622227Y-55165273D01*
X91631289Y-55175271D01*
X91639327Y-55186109D01*
X91646264Y-55197683D01*
X91652033Y-55209881D01*
X91656579Y-55222586D01*
X91659858Y-55235675D01*
X91661838Y-55249023D01*
X91662500Y-55262500D01*
X91662500Y-55537500D01*
X91661838Y-55550977D01*
X91659858Y-55564325D01*
X91656579Y-55577414D01*
X91652033Y-55590119D01*
X91646264Y-55602317D01*
X91639327Y-55613891D01*
X91631289Y-55624729D01*
X91622227Y-55634727D01*
X91612229Y-55643789D01*
X91601391Y-55651827D01*
X91589817Y-55658764D01*
X91577619Y-55664533D01*
X91564914Y-55669079D01*
X91551825Y-55672358D01*
X91538477Y-55674338D01*
X91525000Y-55675000D01*
X90275000Y-55675000D01*
X90261523Y-55674338D01*
X90248175Y-55672358D01*
X90235086Y-55669079D01*
X90222381Y-55664533D01*
X90210183Y-55658764D01*
X90198609Y-55651827D01*
X90187771Y-55643789D01*
X90177773Y-55634727D01*
X90168711Y-55624729D01*
X90160673Y-55613891D01*
X90153736Y-55602317D01*
X90147967Y-55590119D01*
X90143421Y-55577414D01*
X90140142Y-55564325D01*
X90138162Y-55550977D01*
X90137500Y-55537500D01*
X90137500Y-55262500D01*
X90138162Y-55249023D01*
X90140142Y-55235675D01*
X90143421Y-55222586D01*
X90147967Y-55209881D01*
X90153736Y-55197683D01*
X90160673Y-55186109D01*
X90168711Y-55175271D01*
X90177773Y-55165273D01*
X90187771Y-55156211D01*
X90198609Y-55148173D01*
X90210183Y-55141236D01*
X90222381Y-55135467D01*
X90235086Y-55130921D01*
X90248175Y-55127642D01*
X90261523Y-55125662D01*
X90275000Y-55125000D01*
X91525000Y-55125000D01*
X91538477Y-55125662D01*
X91538477Y-55125662D01*
G37*
D14*
X90900000Y-55400000D03*
D12*
G36*
X91538477Y-55925662D02*
G01*
X91551825Y-55927642D01*
X91564914Y-55930921D01*
X91577619Y-55935467D01*
X91589817Y-55941236D01*
X91601391Y-55948173D01*
X91612229Y-55956211D01*
X91622227Y-55965273D01*
X91631289Y-55975271D01*
X91639327Y-55986109D01*
X91646264Y-55997683D01*
X91652033Y-56009881D01*
X91656579Y-56022586D01*
X91659858Y-56035675D01*
X91661838Y-56049023D01*
X91662500Y-56062500D01*
X91662500Y-56337500D01*
X91661838Y-56350977D01*
X91659858Y-56364325D01*
X91656579Y-56377414D01*
X91652033Y-56390119D01*
X91646264Y-56402317D01*
X91639327Y-56413891D01*
X91631289Y-56424729D01*
X91622227Y-56434727D01*
X91612229Y-56443789D01*
X91601391Y-56451827D01*
X91589817Y-56458764D01*
X91577619Y-56464533D01*
X91564914Y-56469079D01*
X91551825Y-56472358D01*
X91538477Y-56474338D01*
X91525000Y-56475000D01*
X90275000Y-56475000D01*
X90261523Y-56474338D01*
X90248175Y-56472358D01*
X90235086Y-56469079D01*
X90222381Y-56464533D01*
X90210183Y-56458764D01*
X90198609Y-56451827D01*
X90187771Y-56443789D01*
X90177773Y-56434727D01*
X90168711Y-56424729D01*
X90160673Y-56413891D01*
X90153736Y-56402317D01*
X90147967Y-56390119D01*
X90143421Y-56377414D01*
X90140142Y-56364325D01*
X90138162Y-56350977D01*
X90137500Y-56337500D01*
X90137500Y-56062500D01*
X90138162Y-56049023D01*
X90140142Y-56035675D01*
X90143421Y-56022586D01*
X90147967Y-56009881D01*
X90153736Y-55997683D01*
X90160673Y-55986109D01*
X90168711Y-55975271D01*
X90177773Y-55965273D01*
X90187771Y-55956211D01*
X90198609Y-55948173D01*
X90210183Y-55941236D01*
X90222381Y-55935467D01*
X90235086Y-55930921D01*
X90248175Y-55927642D01*
X90261523Y-55925662D01*
X90275000Y-55925000D01*
X91525000Y-55925000D01*
X91538477Y-55925662D01*
X91538477Y-55925662D01*
G37*
D14*
X90900000Y-56200000D03*
D12*
G36*
X91538477Y-56725662D02*
G01*
X91551825Y-56727642D01*
X91564914Y-56730921D01*
X91577619Y-56735467D01*
X91589817Y-56741236D01*
X91601391Y-56748173D01*
X91612229Y-56756211D01*
X91622227Y-56765273D01*
X91631289Y-56775271D01*
X91639327Y-56786109D01*
X91646264Y-56797683D01*
X91652033Y-56809881D01*
X91656579Y-56822586D01*
X91659858Y-56835675D01*
X91661838Y-56849023D01*
X91662500Y-56862500D01*
X91662500Y-57137500D01*
X91661838Y-57150977D01*
X91659858Y-57164325D01*
X91656579Y-57177414D01*
X91652033Y-57190119D01*
X91646264Y-57202317D01*
X91639327Y-57213891D01*
X91631289Y-57224729D01*
X91622227Y-57234727D01*
X91612229Y-57243789D01*
X91601391Y-57251827D01*
X91589817Y-57258764D01*
X91577619Y-57264533D01*
X91564914Y-57269079D01*
X91551825Y-57272358D01*
X91538477Y-57274338D01*
X91525000Y-57275000D01*
X90275000Y-57275000D01*
X90261523Y-57274338D01*
X90248175Y-57272358D01*
X90235086Y-57269079D01*
X90222381Y-57264533D01*
X90210183Y-57258764D01*
X90198609Y-57251827D01*
X90187771Y-57243789D01*
X90177773Y-57234727D01*
X90168711Y-57224729D01*
X90160673Y-57213891D01*
X90153736Y-57202317D01*
X90147967Y-57190119D01*
X90143421Y-57177414D01*
X90140142Y-57164325D01*
X90138162Y-57150977D01*
X90137500Y-57137500D01*
X90137500Y-56862500D01*
X90138162Y-56849023D01*
X90140142Y-56835675D01*
X90143421Y-56822586D01*
X90147967Y-56809881D01*
X90153736Y-56797683D01*
X90160673Y-56786109D01*
X90168711Y-56775271D01*
X90177773Y-56765273D01*
X90187771Y-56756211D01*
X90198609Y-56748173D01*
X90210183Y-56741236D01*
X90222381Y-56735467D01*
X90235086Y-56730921D01*
X90248175Y-56727642D01*
X90261523Y-56725662D01*
X90275000Y-56725000D01*
X91525000Y-56725000D01*
X91538477Y-56725662D01*
X91538477Y-56725662D01*
G37*
D14*
X90900000Y-57000000D03*
D12*
G36*
X91538477Y-57525662D02*
G01*
X91551825Y-57527642D01*
X91564914Y-57530921D01*
X91577619Y-57535467D01*
X91589817Y-57541236D01*
X91601391Y-57548173D01*
X91612229Y-57556211D01*
X91622227Y-57565273D01*
X91631289Y-57575271D01*
X91639327Y-57586109D01*
X91646264Y-57597683D01*
X91652033Y-57609881D01*
X91656579Y-57622586D01*
X91659858Y-57635675D01*
X91661838Y-57649023D01*
X91662500Y-57662500D01*
X91662500Y-57937500D01*
X91661838Y-57950977D01*
X91659858Y-57964325D01*
X91656579Y-57977414D01*
X91652033Y-57990119D01*
X91646264Y-58002317D01*
X91639327Y-58013891D01*
X91631289Y-58024729D01*
X91622227Y-58034727D01*
X91612229Y-58043789D01*
X91601391Y-58051827D01*
X91589817Y-58058764D01*
X91577619Y-58064533D01*
X91564914Y-58069079D01*
X91551825Y-58072358D01*
X91538477Y-58074338D01*
X91525000Y-58075000D01*
X90275000Y-58075000D01*
X90261523Y-58074338D01*
X90248175Y-58072358D01*
X90235086Y-58069079D01*
X90222381Y-58064533D01*
X90210183Y-58058764D01*
X90198609Y-58051827D01*
X90187771Y-58043789D01*
X90177773Y-58034727D01*
X90168711Y-58024729D01*
X90160673Y-58013891D01*
X90153736Y-58002317D01*
X90147967Y-57990119D01*
X90143421Y-57977414D01*
X90140142Y-57964325D01*
X90138162Y-57950977D01*
X90137500Y-57937500D01*
X90137500Y-57662500D01*
X90138162Y-57649023D01*
X90140142Y-57635675D01*
X90143421Y-57622586D01*
X90147967Y-57609881D01*
X90153736Y-57597683D01*
X90160673Y-57586109D01*
X90168711Y-57575271D01*
X90177773Y-57565273D01*
X90187771Y-57556211D01*
X90198609Y-57548173D01*
X90210183Y-57541236D01*
X90222381Y-57535467D01*
X90235086Y-57530921D01*
X90248175Y-57527642D01*
X90261523Y-57525662D01*
X90275000Y-57525000D01*
X91525000Y-57525000D01*
X91538477Y-57525662D01*
X91538477Y-57525662D01*
G37*
D14*
X90900000Y-57800000D03*
D12*
G36*
X91538477Y-59925662D02*
G01*
X91551825Y-59927642D01*
X91564914Y-59930921D01*
X91577619Y-59935467D01*
X91589817Y-59941236D01*
X91601391Y-59948173D01*
X91612229Y-59956211D01*
X91622227Y-59965273D01*
X91631289Y-59975271D01*
X91639327Y-59986109D01*
X91646264Y-59997683D01*
X91652033Y-60009881D01*
X91656579Y-60022586D01*
X91659858Y-60035675D01*
X91661838Y-60049023D01*
X91662500Y-60062500D01*
X91662500Y-60337500D01*
X91661838Y-60350977D01*
X91659858Y-60364325D01*
X91656579Y-60377414D01*
X91652033Y-60390119D01*
X91646264Y-60402317D01*
X91639327Y-60413891D01*
X91631289Y-60424729D01*
X91622227Y-60434727D01*
X91612229Y-60443789D01*
X91601391Y-60451827D01*
X91589817Y-60458764D01*
X91577619Y-60464533D01*
X91564914Y-60469079D01*
X91551825Y-60472358D01*
X91538477Y-60474338D01*
X91525000Y-60475000D01*
X90275000Y-60475000D01*
X90261523Y-60474338D01*
X90248175Y-60472358D01*
X90235086Y-60469079D01*
X90222381Y-60464533D01*
X90210183Y-60458764D01*
X90198609Y-60451827D01*
X90187771Y-60443789D01*
X90177773Y-60434727D01*
X90168711Y-60424729D01*
X90160673Y-60413891D01*
X90153736Y-60402317D01*
X90147967Y-60390119D01*
X90143421Y-60377414D01*
X90140142Y-60364325D01*
X90138162Y-60350977D01*
X90137500Y-60337500D01*
X90137500Y-60062500D01*
X90138162Y-60049023D01*
X90140142Y-60035675D01*
X90143421Y-60022586D01*
X90147967Y-60009881D01*
X90153736Y-59997683D01*
X90160673Y-59986109D01*
X90168711Y-59975271D01*
X90177773Y-59965273D01*
X90187771Y-59956211D01*
X90198609Y-59948173D01*
X90210183Y-59941236D01*
X90222381Y-59935467D01*
X90235086Y-59930921D01*
X90248175Y-59927642D01*
X90261523Y-59925662D01*
X90275000Y-59925000D01*
X91525000Y-59925000D01*
X91538477Y-59925662D01*
X91538477Y-59925662D01*
G37*
D14*
X90900000Y-60200000D03*
D12*
G36*
X91538477Y-60725662D02*
G01*
X91551825Y-60727642D01*
X91564914Y-60730921D01*
X91577619Y-60735467D01*
X91589817Y-60741236D01*
X91601391Y-60748173D01*
X91612229Y-60756211D01*
X91622227Y-60765273D01*
X91631289Y-60775271D01*
X91639327Y-60786109D01*
X91646264Y-60797683D01*
X91652033Y-60809881D01*
X91656579Y-60822586D01*
X91659858Y-60835675D01*
X91661838Y-60849023D01*
X91662500Y-60862500D01*
X91662500Y-61137500D01*
X91661838Y-61150977D01*
X91659858Y-61164325D01*
X91656579Y-61177414D01*
X91652033Y-61190119D01*
X91646264Y-61202317D01*
X91639327Y-61213891D01*
X91631289Y-61224729D01*
X91622227Y-61234727D01*
X91612229Y-61243789D01*
X91601391Y-61251827D01*
X91589817Y-61258764D01*
X91577619Y-61264533D01*
X91564914Y-61269079D01*
X91551825Y-61272358D01*
X91538477Y-61274338D01*
X91525000Y-61275000D01*
X90275000Y-61275000D01*
X90261523Y-61274338D01*
X90248175Y-61272358D01*
X90235086Y-61269079D01*
X90222381Y-61264533D01*
X90210183Y-61258764D01*
X90198609Y-61251827D01*
X90187771Y-61243789D01*
X90177773Y-61234727D01*
X90168711Y-61224729D01*
X90160673Y-61213891D01*
X90153736Y-61202317D01*
X90147967Y-61190119D01*
X90143421Y-61177414D01*
X90140142Y-61164325D01*
X90138162Y-61150977D01*
X90137500Y-61137500D01*
X90137500Y-60862500D01*
X90138162Y-60849023D01*
X90140142Y-60835675D01*
X90143421Y-60822586D01*
X90147967Y-60809881D01*
X90153736Y-60797683D01*
X90160673Y-60786109D01*
X90168711Y-60775271D01*
X90177773Y-60765273D01*
X90187771Y-60756211D01*
X90198609Y-60748173D01*
X90210183Y-60741236D01*
X90222381Y-60735467D01*
X90235086Y-60730921D01*
X90248175Y-60727642D01*
X90261523Y-60725662D01*
X90275000Y-60725000D01*
X91525000Y-60725000D01*
X91538477Y-60725662D01*
X91538477Y-60725662D01*
G37*
D14*
X90900000Y-61000000D03*
D12*
G36*
X91538477Y-61525662D02*
G01*
X91551825Y-61527642D01*
X91564914Y-61530921D01*
X91577619Y-61535467D01*
X91589817Y-61541236D01*
X91601391Y-61548173D01*
X91612229Y-61556211D01*
X91622227Y-61565273D01*
X91631289Y-61575271D01*
X91639327Y-61586109D01*
X91646264Y-61597683D01*
X91652033Y-61609881D01*
X91656579Y-61622586D01*
X91659858Y-61635675D01*
X91661838Y-61649023D01*
X91662500Y-61662500D01*
X91662500Y-61937500D01*
X91661838Y-61950977D01*
X91659858Y-61964325D01*
X91656579Y-61977414D01*
X91652033Y-61990119D01*
X91646264Y-62002317D01*
X91639327Y-62013891D01*
X91631289Y-62024729D01*
X91622227Y-62034727D01*
X91612229Y-62043789D01*
X91601391Y-62051827D01*
X91589817Y-62058764D01*
X91577619Y-62064533D01*
X91564914Y-62069079D01*
X91551825Y-62072358D01*
X91538477Y-62074338D01*
X91525000Y-62075000D01*
X90275000Y-62075000D01*
X90261523Y-62074338D01*
X90248175Y-62072358D01*
X90235086Y-62069079D01*
X90222381Y-62064533D01*
X90210183Y-62058764D01*
X90198609Y-62051827D01*
X90187771Y-62043789D01*
X90177773Y-62034727D01*
X90168711Y-62024729D01*
X90160673Y-62013891D01*
X90153736Y-62002317D01*
X90147967Y-61990119D01*
X90143421Y-61977414D01*
X90140142Y-61964325D01*
X90138162Y-61950977D01*
X90137500Y-61937500D01*
X90137500Y-61662500D01*
X90138162Y-61649023D01*
X90140142Y-61635675D01*
X90143421Y-61622586D01*
X90147967Y-61609881D01*
X90153736Y-61597683D01*
X90160673Y-61586109D01*
X90168711Y-61575271D01*
X90177773Y-61565273D01*
X90187771Y-61556211D01*
X90198609Y-61548173D01*
X90210183Y-61541236D01*
X90222381Y-61535467D01*
X90235086Y-61530921D01*
X90248175Y-61527642D01*
X90261523Y-61525662D01*
X90275000Y-61525000D01*
X91525000Y-61525000D01*
X91538477Y-61525662D01*
X91538477Y-61525662D01*
G37*
D14*
X90900000Y-61800000D03*
D12*
G36*
X91538477Y-62325662D02*
G01*
X91551825Y-62327642D01*
X91564914Y-62330921D01*
X91577619Y-62335467D01*
X91589817Y-62341236D01*
X91601391Y-62348173D01*
X91612229Y-62356211D01*
X91622227Y-62365273D01*
X91631289Y-62375271D01*
X91639327Y-62386109D01*
X91646264Y-62397683D01*
X91652033Y-62409881D01*
X91656579Y-62422586D01*
X91659858Y-62435675D01*
X91661838Y-62449023D01*
X91662500Y-62462500D01*
X91662500Y-62737500D01*
X91661838Y-62750977D01*
X91659858Y-62764325D01*
X91656579Y-62777414D01*
X91652033Y-62790119D01*
X91646264Y-62802317D01*
X91639327Y-62813891D01*
X91631289Y-62824729D01*
X91622227Y-62834727D01*
X91612229Y-62843789D01*
X91601391Y-62851827D01*
X91589817Y-62858764D01*
X91577619Y-62864533D01*
X91564914Y-62869079D01*
X91551825Y-62872358D01*
X91538477Y-62874338D01*
X91525000Y-62875000D01*
X90275000Y-62875000D01*
X90261523Y-62874338D01*
X90248175Y-62872358D01*
X90235086Y-62869079D01*
X90222381Y-62864533D01*
X90210183Y-62858764D01*
X90198609Y-62851827D01*
X90187771Y-62843789D01*
X90177773Y-62834727D01*
X90168711Y-62824729D01*
X90160673Y-62813891D01*
X90153736Y-62802317D01*
X90147967Y-62790119D01*
X90143421Y-62777414D01*
X90140142Y-62764325D01*
X90138162Y-62750977D01*
X90137500Y-62737500D01*
X90137500Y-62462500D01*
X90138162Y-62449023D01*
X90140142Y-62435675D01*
X90143421Y-62422586D01*
X90147967Y-62409881D01*
X90153736Y-62397683D01*
X90160673Y-62386109D01*
X90168711Y-62375271D01*
X90177773Y-62365273D01*
X90187771Y-62356211D01*
X90198609Y-62348173D01*
X90210183Y-62341236D01*
X90222381Y-62335467D01*
X90235086Y-62330921D01*
X90248175Y-62327642D01*
X90261523Y-62325662D01*
X90275000Y-62325000D01*
X91525000Y-62325000D01*
X91538477Y-62325662D01*
X91538477Y-62325662D01*
G37*
D14*
X90900000Y-62600000D03*
D12*
G36*
X91538477Y-63125662D02*
G01*
X91551825Y-63127642D01*
X91564914Y-63130921D01*
X91577619Y-63135467D01*
X91589817Y-63141236D01*
X91601391Y-63148173D01*
X91612229Y-63156211D01*
X91622227Y-63165273D01*
X91631289Y-63175271D01*
X91639327Y-63186109D01*
X91646264Y-63197683D01*
X91652033Y-63209881D01*
X91656579Y-63222586D01*
X91659858Y-63235675D01*
X91661838Y-63249023D01*
X91662500Y-63262500D01*
X91662500Y-63537500D01*
X91661838Y-63550977D01*
X91659858Y-63564325D01*
X91656579Y-63577414D01*
X91652033Y-63590119D01*
X91646264Y-63602317D01*
X91639327Y-63613891D01*
X91631289Y-63624729D01*
X91622227Y-63634727D01*
X91612229Y-63643789D01*
X91601391Y-63651827D01*
X91589817Y-63658764D01*
X91577619Y-63664533D01*
X91564914Y-63669079D01*
X91551825Y-63672358D01*
X91538477Y-63674338D01*
X91525000Y-63675000D01*
X90275000Y-63675000D01*
X90261523Y-63674338D01*
X90248175Y-63672358D01*
X90235086Y-63669079D01*
X90222381Y-63664533D01*
X90210183Y-63658764D01*
X90198609Y-63651827D01*
X90187771Y-63643789D01*
X90177773Y-63634727D01*
X90168711Y-63624729D01*
X90160673Y-63613891D01*
X90153736Y-63602317D01*
X90147967Y-63590119D01*
X90143421Y-63577414D01*
X90140142Y-63564325D01*
X90138162Y-63550977D01*
X90137500Y-63537500D01*
X90137500Y-63262500D01*
X90138162Y-63249023D01*
X90140142Y-63235675D01*
X90143421Y-63222586D01*
X90147967Y-63209881D01*
X90153736Y-63197683D01*
X90160673Y-63186109D01*
X90168711Y-63175271D01*
X90177773Y-63165273D01*
X90187771Y-63156211D01*
X90198609Y-63148173D01*
X90210183Y-63141236D01*
X90222381Y-63135467D01*
X90235086Y-63130921D01*
X90248175Y-63127642D01*
X90261523Y-63125662D01*
X90275000Y-63125000D01*
X91525000Y-63125000D01*
X91538477Y-63125662D01*
X91538477Y-63125662D01*
G37*
D14*
X90900000Y-63400000D03*
D12*
G36*
X91538477Y-63925662D02*
G01*
X91551825Y-63927642D01*
X91564914Y-63930921D01*
X91577619Y-63935467D01*
X91589817Y-63941236D01*
X91601391Y-63948173D01*
X91612229Y-63956211D01*
X91622227Y-63965273D01*
X91631289Y-63975271D01*
X91639327Y-63986109D01*
X91646264Y-63997683D01*
X91652033Y-64009881D01*
X91656579Y-64022586D01*
X91659858Y-64035675D01*
X91661838Y-64049023D01*
X91662500Y-64062500D01*
X91662500Y-64337500D01*
X91661838Y-64350977D01*
X91659858Y-64364325D01*
X91656579Y-64377414D01*
X91652033Y-64390119D01*
X91646264Y-64402317D01*
X91639327Y-64413891D01*
X91631289Y-64424729D01*
X91622227Y-64434727D01*
X91612229Y-64443789D01*
X91601391Y-64451827D01*
X91589817Y-64458764D01*
X91577619Y-64464533D01*
X91564914Y-64469079D01*
X91551825Y-64472358D01*
X91538477Y-64474338D01*
X91525000Y-64475000D01*
X90275000Y-64475000D01*
X90261523Y-64474338D01*
X90248175Y-64472358D01*
X90235086Y-64469079D01*
X90222381Y-64464533D01*
X90210183Y-64458764D01*
X90198609Y-64451827D01*
X90187771Y-64443789D01*
X90177773Y-64434727D01*
X90168711Y-64424729D01*
X90160673Y-64413891D01*
X90153736Y-64402317D01*
X90147967Y-64390119D01*
X90143421Y-64377414D01*
X90140142Y-64364325D01*
X90138162Y-64350977D01*
X90137500Y-64337500D01*
X90137500Y-64062500D01*
X90138162Y-64049023D01*
X90140142Y-64035675D01*
X90143421Y-64022586D01*
X90147967Y-64009881D01*
X90153736Y-63997683D01*
X90160673Y-63986109D01*
X90168711Y-63975271D01*
X90177773Y-63965273D01*
X90187771Y-63956211D01*
X90198609Y-63948173D01*
X90210183Y-63941236D01*
X90222381Y-63935467D01*
X90235086Y-63930921D01*
X90248175Y-63927642D01*
X90261523Y-63925662D01*
X90275000Y-63925000D01*
X91525000Y-63925000D01*
X91538477Y-63925662D01*
X91538477Y-63925662D01*
G37*
D14*
X90900000Y-64200000D03*
D12*
G36*
X91538477Y-64725662D02*
G01*
X91551825Y-64727642D01*
X91564914Y-64730921D01*
X91577619Y-64735467D01*
X91589817Y-64741236D01*
X91601391Y-64748173D01*
X91612229Y-64756211D01*
X91622227Y-64765273D01*
X91631289Y-64775271D01*
X91639327Y-64786109D01*
X91646264Y-64797683D01*
X91652033Y-64809881D01*
X91656579Y-64822586D01*
X91659858Y-64835675D01*
X91661838Y-64849023D01*
X91662500Y-64862500D01*
X91662500Y-65137500D01*
X91661838Y-65150977D01*
X91659858Y-65164325D01*
X91656579Y-65177414D01*
X91652033Y-65190119D01*
X91646264Y-65202317D01*
X91639327Y-65213891D01*
X91631289Y-65224729D01*
X91622227Y-65234727D01*
X91612229Y-65243789D01*
X91601391Y-65251827D01*
X91589817Y-65258764D01*
X91577619Y-65264533D01*
X91564914Y-65269079D01*
X91551825Y-65272358D01*
X91538477Y-65274338D01*
X91525000Y-65275000D01*
X90275000Y-65275000D01*
X90261523Y-65274338D01*
X90248175Y-65272358D01*
X90235086Y-65269079D01*
X90222381Y-65264533D01*
X90210183Y-65258764D01*
X90198609Y-65251827D01*
X90187771Y-65243789D01*
X90177773Y-65234727D01*
X90168711Y-65224729D01*
X90160673Y-65213891D01*
X90153736Y-65202317D01*
X90147967Y-65190119D01*
X90143421Y-65177414D01*
X90140142Y-65164325D01*
X90138162Y-65150977D01*
X90137500Y-65137500D01*
X90137500Y-64862500D01*
X90138162Y-64849023D01*
X90140142Y-64835675D01*
X90143421Y-64822586D01*
X90147967Y-64809881D01*
X90153736Y-64797683D01*
X90160673Y-64786109D01*
X90168711Y-64775271D01*
X90177773Y-64765273D01*
X90187771Y-64756211D01*
X90198609Y-64748173D01*
X90210183Y-64741236D01*
X90222381Y-64735467D01*
X90235086Y-64730921D01*
X90248175Y-64727642D01*
X90261523Y-64725662D01*
X90275000Y-64725000D01*
X91525000Y-64725000D01*
X91538477Y-64725662D01*
X91538477Y-64725662D01*
G37*
D14*
X90900000Y-65000000D03*
D12*
G36*
X91538477Y-65525662D02*
G01*
X91551825Y-65527642D01*
X91564914Y-65530921D01*
X91577619Y-65535467D01*
X91589817Y-65541236D01*
X91601391Y-65548173D01*
X91612229Y-65556211D01*
X91622227Y-65565273D01*
X91631289Y-65575271D01*
X91639327Y-65586109D01*
X91646264Y-65597683D01*
X91652033Y-65609881D01*
X91656579Y-65622586D01*
X91659858Y-65635675D01*
X91661838Y-65649023D01*
X91662500Y-65662500D01*
X91662500Y-65937500D01*
X91661838Y-65950977D01*
X91659858Y-65964325D01*
X91656579Y-65977414D01*
X91652033Y-65990119D01*
X91646264Y-66002317D01*
X91639327Y-66013891D01*
X91631289Y-66024729D01*
X91622227Y-66034727D01*
X91612229Y-66043789D01*
X91601391Y-66051827D01*
X91589817Y-66058764D01*
X91577619Y-66064533D01*
X91564914Y-66069079D01*
X91551825Y-66072358D01*
X91538477Y-66074338D01*
X91525000Y-66075000D01*
X90275000Y-66075000D01*
X90261523Y-66074338D01*
X90248175Y-66072358D01*
X90235086Y-66069079D01*
X90222381Y-66064533D01*
X90210183Y-66058764D01*
X90198609Y-66051827D01*
X90187771Y-66043789D01*
X90177773Y-66034727D01*
X90168711Y-66024729D01*
X90160673Y-66013891D01*
X90153736Y-66002317D01*
X90147967Y-65990119D01*
X90143421Y-65977414D01*
X90140142Y-65964325D01*
X90138162Y-65950977D01*
X90137500Y-65937500D01*
X90137500Y-65662500D01*
X90138162Y-65649023D01*
X90140142Y-65635675D01*
X90143421Y-65622586D01*
X90147967Y-65609881D01*
X90153736Y-65597683D01*
X90160673Y-65586109D01*
X90168711Y-65575271D01*
X90177773Y-65565273D01*
X90187771Y-65556211D01*
X90198609Y-65548173D01*
X90210183Y-65541236D01*
X90222381Y-65535467D01*
X90235086Y-65530921D01*
X90248175Y-65527642D01*
X90261523Y-65525662D01*
X90275000Y-65525000D01*
X91525000Y-65525000D01*
X91538477Y-65525662D01*
X91538477Y-65525662D01*
G37*
D14*
X90900000Y-65800000D03*
D12*
G36*
X91538477Y-66325662D02*
G01*
X91551825Y-66327642D01*
X91564914Y-66330921D01*
X91577619Y-66335467D01*
X91589817Y-66341236D01*
X91601391Y-66348173D01*
X91612229Y-66356211D01*
X91622227Y-66365273D01*
X91631289Y-66375271D01*
X91639327Y-66386109D01*
X91646264Y-66397683D01*
X91652033Y-66409881D01*
X91656579Y-66422586D01*
X91659858Y-66435675D01*
X91661838Y-66449023D01*
X91662500Y-66462500D01*
X91662500Y-66737500D01*
X91661838Y-66750977D01*
X91659858Y-66764325D01*
X91656579Y-66777414D01*
X91652033Y-66790119D01*
X91646264Y-66802317D01*
X91639327Y-66813891D01*
X91631289Y-66824729D01*
X91622227Y-66834727D01*
X91612229Y-66843789D01*
X91601391Y-66851827D01*
X91589817Y-66858764D01*
X91577619Y-66864533D01*
X91564914Y-66869079D01*
X91551825Y-66872358D01*
X91538477Y-66874338D01*
X91525000Y-66875000D01*
X90275000Y-66875000D01*
X90261523Y-66874338D01*
X90248175Y-66872358D01*
X90235086Y-66869079D01*
X90222381Y-66864533D01*
X90210183Y-66858764D01*
X90198609Y-66851827D01*
X90187771Y-66843789D01*
X90177773Y-66834727D01*
X90168711Y-66824729D01*
X90160673Y-66813891D01*
X90153736Y-66802317D01*
X90147967Y-66790119D01*
X90143421Y-66777414D01*
X90140142Y-66764325D01*
X90138162Y-66750977D01*
X90137500Y-66737500D01*
X90137500Y-66462500D01*
X90138162Y-66449023D01*
X90140142Y-66435675D01*
X90143421Y-66422586D01*
X90147967Y-66409881D01*
X90153736Y-66397683D01*
X90160673Y-66386109D01*
X90168711Y-66375271D01*
X90177773Y-66365273D01*
X90187771Y-66356211D01*
X90198609Y-66348173D01*
X90210183Y-66341236D01*
X90222381Y-66335467D01*
X90235086Y-66330921D01*
X90248175Y-66327642D01*
X90261523Y-66325662D01*
X90275000Y-66325000D01*
X91525000Y-66325000D01*
X91538477Y-66325662D01*
X91538477Y-66325662D01*
G37*
D14*
X90900000Y-66600000D03*
D12*
G36*
X91538477Y-67125662D02*
G01*
X91551825Y-67127642D01*
X91564914Y-67130921D01*
X91577619Y-67135467D01*
X91589817Y-67141236D01*
X91601391Y-67148173D01*
X91612229Y-67156211D01*
X91622227Y-67165273D01*
X91631289Y-67175271D01*
X91639327Y-67186109D01*
X91646264Y-67197683D01*
X91652033Y-67209881D01*
X91656579Y-67222586D01*
X91659858Y-67235675D01*
X91661838Y-67249023D01*
X91662500Y-67262500D01*
X91662500Y-67537500D01*
X91661838Y-67550977D01*
X91659858Y-67564325D01*
X91656579Y-67577414D01*
X91652033Y-67590119D01*
X91646264Y-67602317D01*
X91639327Y-67613891D01*
X91631289Y-67624729D01*
X91622227Y-67634727D01*
X91612229Y-67643789D01*
X91601391Y-67651827D01*
X91589817Y-67658764D01*
X91577619Y-67664533D01*
X91564914Y-67669079D01*
X91551825Y-67672358D01*
X91538477Y-67674338D01*
X91525000Y-67675000D01*
X90275000Y-67675000D01*
X90261523Y-67674338D01*
X90248175Y-67672358D01*
X90235086Y-67669079D01*
X90222381Y-67664533D01*
X90210183Y-67658764D01*
X90198609Y-67651827D01*
X90187771Y-67643789D01*
X90177773Y-67634727D01*
X90168711Y-67624729D01*
X90160673Y-67613891D01*
X90153736Y-67602317D01*
X90147967Y-67590119D01*
X90143421Y-67577414D01*
X90140142Y-67564325D01*
X90138162Y-67550977D01*
X90137500Y-67537500D01*
X90137500Y-67262500D01*
X90138162Y-67249023D01*
X90140142Y-67235675D01*
X90143421Y-67222586D01*
X90147967Y-67209881D01*
X90153736Y-67197683D01*
X90160673Y-67186109D01*
X90168711Y-67175271D01*
X90177773Y-67165273D01*
X90187771Y-67156211D01*
X90198609Y-67148173D01*
X90210183Y-67141236D01*
X90222381Y-67135467D01*
X90235086Y-67130921D01*
X90248175Y-67127642D01*
X90261523Y-67125662D01*
X90275000Y-67125000D01*
X91525000Y-67125000D01*
X91538477Y-67125662D01*
X91538477Y-67125662D01*
G37*
D14*
X90900000Y-67400000D03*
D11*
X92250000Y-38790000D03*
D10*
X92250000Y-36250000D03*
D15*
X97100000Y-34900000D03*
X96964458Y-57106111D03*
X87100000Y-34800002D03*
X97502762Y-52175300D03*
X106300000Y-55100000D03*
X106300000Y-37500000D03*
X94900000Y-37500000D03*
X87300000Y-38000000D03*
X99500000Y-56200000D03*
X87000000Y-58000014D03*
X96950966Y-56015210D03*
X94500000Y-43200000D03*
X76025010Y-46799994D03*
X97900000Y-55700000D03*
X97000003Y-60000003D03*
X104000000Y-61800000D03*
X104599999Y-65699999D03*
X106744722Y-73978447D03*
X98087685Y-71972114D03*
X104799992Y-74900000D03*
X97419136Y-73669136D03*
X94000000Y-58000000D03*
X89100000Y-68700000D03*
X89000000Y-50600000D03*
X104000000Y-72900000D03*
X85000000Y-65000000D03*
X85400000Y-49250000D03*
X82550000Y-53050000D03*
X92800008Y-67400000D03*
X92612660Y-66087340D03*
X92959733Y-65071586D03*
X93450000Y-64200000D03*
X93600000Y-63000000D03*
X94665661Y-61799989D03*
X95600003Y-61000003D03*
X89200000Y-63400000D03*
X92800000Y-69600000D03*
X92000000Y-83300000D03*
X100800000Y-83300000D03*
X108300000Y-71300000D03*
X108300000Y-65500000D03*
X108300000Y-55000000D03*
X103900000Y-70100000D03*
X75500000Y-70700000D03*
X75500000Y-64500000D03*
X83200000Y-60900000D03*
X105400000Y-43400000D03*
X99400000Y-41200000D03*
X88550000Y-40450000D03*
X107300002Y-83300000D03*
X92000000Y-78999998D03*
X95249989Y-54351267D03*
X91630500Y-42989500D03*
X97630164Y-54251267D03*
X94673508Y-53515872D03*
X91821000Y-44259496D03*
X96753459Y-53770214D03*
X94192466Y-52598271D03*
X90678000Y-44259500D03*
X96700009Y-52771631D03*
X93399987Y-51500011D03*
X88399998Y-44603510D03*
X98502468Y-52200061D03*
X87699996Y-45600000D03*
X97900000Y-50700000D03*
X92710012Y-48641000D03*
X85400004Y-50800000D03*
X85450000Y-52050000D03*
X86650000Y-53050000D03*
X85450000Y-53800002D03*
D16*
X96564459Y-56706112D02*
X96964458Y-57106111D01*
X96058347Y-56200000D02*
X96564459Y-56706112D01*
X90900000Y-56200000D02*
X96058347Y-56200000D01*
X86799998Y-34500000D02*
X87100000Y-34800002D01*
X80750000Y-34990000D02*
X81240000Y-34500000D01*
X81240000Y-34500000D02*
X86799998Y-34500000D01*
X97100000Y-51772538D02*
X97102763Y-51775301D01*
X97102763Y-51775301D02*
X97502762Y-52175300D01*
X97100000Y-34900000D02*
X97100000Y-51772538D01*
X79059999Y-38379999D02*
X78210000Y-37530000D01*
X85800000Y-55400000D02*
X84000000Y-53600000D01*
X90900000Y-55400000D02*
X85800000Y-55400000D01*
X84000000Y-53600000D02*
X84000000Y-39700000D01*
X84000000Y-39700000D02*
X83100000Y-38800000D01*
X83100000Y-38800000D02*
X79480000Y-38800000D01*
X79480000Y-38800000D02*
X79059999Y-38379999D01*
X106300000Y-55100000D02*
X106300000Y-37500000D01*
X87699999Y-37600001D02*
X87300000Y-38000000D01*
X94900000Y-37500000D02*
X87800000Y-37500000D01*
X87800000Y-37500000D02*
X87699999Y-37600001D01*
X102075000Y-56200000D02*
X99500000Y-56200000D01*
X85599969Y-56599983D02*
X86600001Y-57600015D01*
X86600001Y-57600015D02*
X87000000Y-58000014D01*
X76399983Y-56599983D02*
X85599969Y-56599983D01*
X75300000Y-42980000D02*
X75300000Y-55500000D01*
X75300000Y-55500000D02*
X76399983Y-56599983D01*
X78210000Y-40070000D02*
X75300000Y-42980000D01*
X97935756Y-57000000D02*
X97350965Y-56415209D01*
X102075000Y-57000000D02*
X97935756Y-57000000D01*
X97350965Y-56415209D02*
X96950966Y-56015210D01*
X96950966Y-56015210D02*
X95974999Y-55039243D01*
X95974999Y-44674999D02*
X94899999Y-43599999D01*
X95974999Y-55039243D02*
X95974999Y-44674999D01*
X94899999Y-43599999D02*
X94500000Y-43200000D01*
X78210000Y-42610000D02*
X76025010Y-44794990D01*
X76025010Y-46234309D02*
X76025010Y-46799994D01*
X76025010Y-44794990D02*
X76025010Y-46234309D01*
X102075000Y-55400000D02*
X98200000Y-55400000D01*
X98200000Y-55400000D02*
X97900000Y-55700000D01*
X97200000Y-60200000D02*
X97000003Y-60000003D01*
X102075000Y-60200000D02*
X97200000Y-60200000D01*
X79574999Y-69185001D02*
X79059999Y-69700001D01*
X82214999Y-69185001D02*
X79574999Y-69185001D01*
X86500000Y-64900000D02*
X82214999Y-69185001D01*
X86500000Y-62590767D02*
X86500000Y-64900000D01*
X90900000Y-60200000D02*
X88890767Y-60200000D01*
X88890767Y-60200000D02*
X86500000Y-62590767D01*
X79059999Y-69700001D02*
X78210000Y-70550000D01*
X90900000Y-61000000D02*
X88727178Y-61000000D01*
X82399999Y-69700001D02*
X81599999Y-69700001D01*
X86950011Y-62777167D02*
X86950011Y-65149989D01*
X81599999Y-69700001D02*
X80750000Y-70550000D01*
X88727178Y-61000000D02*
X86950011Y-62777167D01*
X86950011Y-65149989D02*
X82399999Y-69700001D01*
X90900000Y-61800000D02*
X88563589Y-61800000D01*
X87400022Y-65399978D02*
X82300000Y-70500000D01*
X79500000Y-71800000D02*
X79059999Y-72240001D01*
X82100000Y-71800000D02*
X79500000Y-71800000D01*
X79059999Y-72240001D02*
X78210000Y-73090000D01*
X82300000Y-71600000D02*
X82100000Y-71800000D01*
X82300000Y-70500000D02*
X82300000Y-71600000D01*
X87400022Y-62963567D02*
X87400022Y-65399978D01*
X88563589Y-61800000D02*
X87400022Y-62963567D01*
X104200000Y-65300000D02*
X104599999Y-65699999D01*
X104000000Y-61800000D02*
X104200000Y-62000000D01*
X104200000Y-62000000D02*
X104200000Y-65300000D01*
X106744722Y-73978447D02*
X100094018Y-73978447D01*
X100094018Y-73978447D02*
X98487684Y-72372113D01*
X98487684Y-72372113D02*
X98087685Y-71972114D01*
X82750011Y-72292070D02*
X81952081Y-73090000D01*
X90900000Y-62600000D02*
X88400000Y-62600000D01*
X88400000Y-62600000D02*
X87850033Y-63149967D01*
X87850033Y-63149967D02*
X87850033Y-65649967D01*
X81952081Y-73090000D02*
X80750000Y-73090000D01*
X82750011Y-70749989D02*
X82750011Y-72292070D01*
X87850033Y-65649967D02*
X82750011Y-70749989D01*
X81300000Y-74400000D02*
X79440000Y-74400000D01*
X79440000Y-74400000D02*
X79059999Y-74780001D01*
X90037500Y-64200000D02*
X83300020Y-70937480D01*
X83300020Y-72399980D02*
X81300000Y-74400000D01*
X79059999Y-74780001D02*
X78210000Y-75630000D01*
X83300020Y-70937480D02*
X83300020Y-72399980D01*
X90900000Y-64200000D02*
X90037500Y-64200000D01*
X97819135Y-74069135D02*
X97419136Y-73669136D01*
X104799992Y-74900000D02*
X98650000Y-74900000D01*
X98650000Y-74900000D02*
X97819135Y-74069135D01*
X90037500Y-65000000D02*
X83800000Y-71237500D01*
X83800000Y-71237500D02*
X83800000Y-72580000D01*
X90900000Y-65000000D02*
X90037500Y-65000000D01*
X83800000Y-72580000D02*
X81599999Y-74780001D01*
X81599999Y-74780001D02*
X80750000Y-75630000D01*
X79059999Y-77320001D02*
X78210000Y-78170000D01*
X90037500Y-65800000D02*
X84300000Y-71537500D01*
X90900000Y-65800000D02*
X90037500Y-65800000D01*
X84300000Y-71537500D02*
X84300000Y-73819002D01*
X84300000Y-73819002D02*
X81219002Y-76900000D01*
X81219002Y-76900000D02*
X79480000Y-76900000D01*
X79480000Y-76900000D02*
X79059999Y-77320001D01*
X90037500Y-66600000D02*
X84800000Y-71837500D01*
X90900000Y-66600000D02*
X90037500Y-66600000D01*
X84800000Y-74120000D02*
X80750000Y-78170000D01*
X84800000Y-71837500D02*
X84800000Y-74120000D01*
X102937500Y-67400000D02*
X102075000Y-67400000D01*
X103600000Y-66737500D02*
X102937500Y-67400000D01*
X103600000Y-64062500D02*
X103600000Y-66737500D01*
X102075000Y-63400000D02*
X102937500Y-63400000D01*
X102937500Y-63400000D02*
X103600000Y-64062500D01*
X102075000Y-66600000D02*
X93600008Y-66600000D01*
X93200007Y-67000001D02*
X92800008Y-67400000D01*
X93600008Y-66600000D02*
X93200007Y-67000001D01*
X92900000Y-65800000D02*
X92612660Y-66087340D01*
X102075000Y-65800000D02*
X92900000Y-65800000D01*
X102075000Y-65000000D02*
X93031319Y-65000000D01*
X93031319Y-65000000D02*
X92959733Y-65071586D01*
X102075000Y-64200000D02*
X93450000Y-64200000D01*
X94000000Y-62600000D02*
X93600000Y-63000000D01*
X102075000Y-62600000D02*
X94000000Y-62600000D01*
X94665672Y-61800000D02*
X94665661Y-61799989D01*
X102075000Y-61800000D02*
X94665672Y-61800000D01*
X102075000Y-61000000D02*
X95600006Y-61000000D01*
X95600006Y-61000000D02*
X95600003Y-61000003D01*
X90100000Y-49800000D02*
X90900000Y-50600000D01*
X90100000Y-47900000D02*
X90100000Y-49800000D01*
X90900000Y-63400000D02*
X89200000Y-63400000D01*
X92800000Y-69300000D02*
X92800000Y-69600000D01*
X90900000Y-67400000D02*
X92800000Y-69300000D01*
X92000000Y-83300000D02*
X100800000Y-83300000D01*
X108300000Y-65500000D02*
X108300000Y-55000000D01*
X107000000Y-70100000D02*
X103900000Y-70100000D01*
X108300000Y-71300000D02*
X108200000Y-71300000D01*
X108200000Y-71300000D02*
X107000000Y-70100000D01*
X77007919Y-83250000D02*
X76857919Y-83100000D01*
X78210000Y-83250000D02*
X77007919Y-83250000D01*
X76857919Y-83100000D02*
X76800000Y-83100000D01*
X76800000Y-83100000D02*
X75500000Y-81800000D01*
X75500000Y-81800000D02*
X75500000Y-70700000D01*
X82800001Y-61299999D02*
X83200000Y-60900000D01*
X82400000Y-61700000D02*
X82800001Y-61299999D01*
X77734315Y-61700000D02*
X82400000Y-61700000D01*
X75500000Y-64500000D02*
X75500000Y-63934315D01*
X75500000Y-63934315D02*
X77734315Y-61700000D01*
X105400000Y-43400000D02*
X105400000Y-42700000D01*
X105400000Y-42700000D02*
X103900000Y-41200000D01*
X103900000Y-41200000D02*
X99400000Y-41200000D01*
X86900000Y-47100000D02*
X85600000Y-45800000D01*
X88150001Y-40849999D02*
X88550000Y-40450000D01*
X90100000Y-47900000D02*
X89300000Y-47100000D01*
X85600000Y-45800000D02*
X85600000Y-43400000D01*
X89300000Y-47100000D02*
X86900000Y-47100000D01*
X85600000Y-43400000D02*
X88150001Y-40849999D01*
X108300000Y-71300000D02*
X108300000Y-82300002D01*
X108300000Y-82300002D02*
X107700001Y-82900001D01*
X107700001Y-82900001D02*
X107300002Y-83300000D01*
X92800000Y-69600000D02*
X92000000Y-70400000D01*
X92000000Y-70400000D02*
X92000000Y-78434313D01*
X92000000Y-78434313D02*
X92000000Y-78999998D01*
X95477768Y-53416313D02*
X95367487Y-53306032D01*
X95249989Y-54351267D02*
X95477768Y-54123488D01*
X92030499Y-43389499D02*
X91630500Y-42989500D01*
X95477768Y-54123488D02*
X95477768Y-53416313D01*
X95367487Y-53306032D02*
X95367487Y-46726487D01*
X95367487Y-46726487D02*
X92030499Y-43389499D01*
X102075000Y-54600000D02*
X97978897Y-54600000D01*
X97978897Y-54600000D02*
X97630164Y-54251267D01*
X94917476Y-47355972D02*
X92220999Y-44659495D01*
X94673508Y-53515872D02*
X94917476Y-53271904D01*
X94917476Y-53271904D02*
X94917476Y-47355972D01*
X92220999Y-44659495D02*
X91821000Y-44259496D01*
X97968725Y-53505136D02*
X97018537Y-53505136D01*
X102075000Y-53800000D02*
X98263589Y-53800000D01*
X97018537Y-53505136D02*
X96753459Y-53770214D01*
X98263589Y-53800000D02*
X97968725Y-53505136D01*
X94192466Y-52598271D02*
X94192466Y-47773966D01*
X94192466Y-47773966D02*
X91077999Y-44659499D01*
X91077999Y-44659499D02*
X90678000Y-44259500D01*
X96928378Y-53000000D02*
X96700009Y-52771631D01*
X102075000Y-53000000D02*
X96928378Y-53000000D01*
X98502529Y-52200000D02*
X98502468Y-52200061D01*
X102075000Y-52200000D02*
X98502529Y-52200000D01*
X88965683Y-44603510D02*
X88399998Y-44603510D01*
X89815510Y-44603510D02*
X88965683Y-44603510D01*
X93472000Y-48260000D02*
X89815510Y-44603510D01*
X93472000Y-51427998D02*
X93472000Y-48260000D01*
X93399987Y-51500011D02*
X93472000Y-51427998D01*
X98600000Y-51400000D02*
X97900000Y-50700000D01*
X102075000Y-51400000D02*
X98600000Y-51400000D01*
X87699996Y-45600000D02*
X89669012Y-45600000D01*
X89669012Y-45600000D02*
X92310013Y-48241001D01*
X92310013Y-48241001D02*
X92710012Y-48641000D01*
X86000004Y-51400000D02*
X85800003Y-51199999D01*
X90900000Y-51400000D02*
X86000004Y-51400000D01*
X85800003Y-51199999D02*
X85400004Y-50800000D01*
X85600000Y-52200000D02*
X85450000Y-52050000D01*
X90900000Y-52200000D02*
X85600000Y-52200000D01*
X86700000Y-53000000D02*
X86650000Y-53050000D01*
X90900000Y-53000000D02*
X86700000Y-53000000D01*
X85450002Y-53800000D02*
X85450000Y-53800002D01*
X90900000Y-53800000D02*
X85450002Y-53800000D01*
D17*
G36*
X107494492Y-33752654D02*
G01*
X107970137Y-33896259D01*
X108408843Y-34129522D01*
X108793880Y-34443551D01*
X109110592Y-34826390D01*
X109346907Y-35263447D01*
X109493835Y-35738091D01*
X109548000Y-36253439D01*
X109548001Y-81977881D01*
X109497347Y-82494487D01*
X109353740Y-82970141D01*
X109120478Y-83408842D01*
X108806449Y-83793880D01*
X108423610Y-84110592D01*
X107986552Y-84346908D01*
X107511909Y-84493835D01*
X106996560Y-84548000D01*
X69202000Y-84548000D01*
X69202000Y-70618548D01*
X74673000Y-70618548D01*
X74673000Y-70781452D01*
X74704782Y-70941227D01*
X74767123Y-71091731D01*
X74857628Y-71227181D01*
X74948001Y-71317554D01*
X74948000Y-81772894D01*
X74945330Y-81800000D01*
X74948000Y-81827106D01*
X74948000Y-81827108D01*
X74955988Y-81908210D01*
X74987552Y-82012262D01*
X75038809Y-82108158D01*
X75107789Y-82192211D01*
X75128856Y-82209500D01*
X76390507Y-83471153D01*
X76407789Y-83492211D01*
X76428845Y-83509491D01*
X76428846Y-83509492D01*
X76491842Y-83561191D01*
X76587737Y-83612448D01*
X76590587Y-83613312D01*
X76598422Y-83621148D01*
X76615708Y-83642211D01*
X76699761Y-83711191D01*
X76795656Y-83762448D01*
X76899708Y-83794012D01*
X76980810Y-83802000D01*
X76980812Y-83802000D01*
X77007918Y-83804670D01*
X77035024Y-83802000D01*
X77057076Y-83802000D01*
X77143076Y-83962896D01*
X77302656Y-84157344D01*
X77497104Y-84316924D01*
X77718949Y-84435502D01*
X77959664Y-84508522D01*
X78147274Y-84527000D01*
X78272726Y-84527000D01*
X78460336Y-84508522D01*
X78701051Y-84435502D01*
X78922896Y-84316924D01*
X79117344Y-84157344D01*
X79276924Y-83962896D01*
X79395502Y-83741051D01*
X79468522Y-83500336D01*
X79470934Y-83475847D01*
X79470934Y-84100000D01*
X79479178Y-84183707D01*
X79503595Y-84264196D01*
X79543245Y-84338376D01*
X79596605Y-84403395D01*
X79661624Y-84456755D01*
X79735804Y-84496405D01*
X79816293Y-84520822D01*
X79900000Y-84529066D01*
X81600000Y-84529066D01*
X81683707Y-84520822D01*
X81764196Y-84496405D01*
X81838376Y-84456755D01*
X81903395Y-84403395D01*
X81956755Y-84338376D01*
X81996405Y-84264196D01*
X82020822Y-84183707D01*
X82029066Y-84100000D01*
X82029066Y-83218548D01*
X91173000Y-83218548D01*
X91173000Y-83381452D01*
X91204782Y-83541227D01*
X91267123Y-83691731D01*
X91357628Y-83827181D01*
X91472819Y-83942372D01*
X91608269Y-84032877D01*
X91758773Y-84095218D01*
X91918548Y-84127000D01*
X92081452Y-84127000D01*
X92241227Y-84095218D01*
X92391731Y-84032877D01*
X92527181Y-83942372D01*
X92617553Y-83852000D01*
X100182447Y-83852000D01*
X100272819Y-83942372D01*
X100408269Y-84032877D01*
X100558773Y-84095218D01*
X100718548Y-84127000D01*
X100881452Y-84127000D01*
X101041227Y-84095218D01*
X101191731Y-84032877D01*
X101327181Y-83942372D01*
X101442372Y-83827181D01*
X101532877Y-83691731D01*
X101595218Y-83541227D01*
X101627000Y-83381452D01*
X101627000Y-83218548D01*
X101595218Y-83058773D01*
X101532877Y-82908269D01*
X101442372Y-82772819D01*
X101327181Y-82657628D01*
X101191731Y-82567123D01*
X101041227Y-82504782D01*
X100881452Y-82473000D01*
X100718548Y-82473000D01*
X100558773Y-82504782D01*
X100408269Y-82567123D01*
X100272819Y-82657628D01*
X100182447Y-82748000D01*
X92617553Y-82748000D01*
X92527181Y-82657628D01*
X92391731Y-82567123D01*
X92241227Y-82504782D01*
X92081452Y-82473000D01*
X91918548Y-82473000D01*
X91758773Y-82504782D01*
X91608269Y-82567123D01*
X91472819Y-82657628D01*
X91357628Y-82772819D01*
X91267123Y-82908269D01*
X91204782Y-83058773D01*
X91173000Y-83218548D01*
X82029066Y-83218548D01*
X82029066Y-82400000D01*
X82020822Y-82316293D01*
X81996405Y-82235804D01*
X81956755Y-82161624D01*
X81903395Y-82096605D01*
X81838376Y-82043245D01*
X81764196Y-82003595D01*
X81683707Y-81979178D01*
X81600000Y-81970934D01*
X81520965Y-81970934D01*
X81631355Y-81905178D01*
X81847588Y-81710269D01*
X82021641Y-81476920D01*
X82146825Y-81214099D01*
X82191476Y-81066890D01*
X82070155Y-80837000D01*
X80877000Y-80837000D01*
X80877000Y-80857000D01*
X80623000Y-80857000D01*
X80623000Y-80837000D01*
X78337000Y-80837000D01*
X78337000Y-80857000D01*
X78083000Y-80857000D01*
X78083000Y-80837000D01*
X76889845Y-80837000D01*
X76768524Y-81066890D01*
X76813175Y-81214099D01*
X76938359Y-81476920D01*
X77112412Y-81710269D01*
X77328645Y-81905178D01*
X77578748Y-82054157D01*
X77674650Y-82088176D01*
X77497104Y-82183076D01*
X77302656Y-82342656D01*
X77143076Y-82537104D01*
X77105905Y-82606646D01*
X77070182Y-82587552D01*
X77067334Y-82586688D01*
X76052000Y-81571356D01*
X76052000Y-71317553D01*
X76142372Y-71227181D01*
X76232877Y-71091731D01*
X76295218Y-70941227D01*
X76327000Y-70781452D01*
X76327000Y-70618548D01*
X76295218Y-70458773D01*
X76232877Y-70308269D01*
X76142372Y-70172819D01*
X76027181Y-70057628D01*
X75891731Y-69967123D01*
X75741227Y-69904782D01*
X75581452Y-69873000D01*
X75418548Y-69873000D01*
X75258773Y-69904782D01*
X75108269Y-69967123D01*
X74972819Y-70057628D01*
X74857628Y-70172819D01*
X74767123Y-70308269D01*
X74704782Y-70458773D01*
X74673000Y-70618548D01*
X69202000Y-70618548D01*
X69202000Y-64418548D01*
X74673000Y-64418548D01*
X74673000Y-64581452D01*
X74704782Y-64741227D01*
X74767123Y-64891731D01*
X74857628Y-65027181D01*
X74972819Y-65142372D01*
X75108269Y-65232877D01*
X75258773Y-65295218D01*
X75418548Y-65327000D01*
X75581452Y-65327000D01*
X75741227Y-65295218D01*
X75891731Y-65232877D01*
X76027181Y-65142372D01*
X76142372Y-65027181D01*
X76232877Y-64891731D01*
X76295218Y-64741227D01*
X76327000Y-64581452D01*
X76327000Y-64418548D01*
X76295218Y-64258773D01*
X76232877Y-64108269D01*
X76182334Y-64032626D01*
X76970830Y-63244130D01*
X77024498Y-63421051D01*
X77143076Y-63642896D01*
X77302656Y-63837344D01*
X77497104Y-63996924D01*
X77718949Y-64115502D01*
X77959664Y-64188522D01*
X78076202Y-64200000D01*
X77959664Y-64211478D01*
X77718949Y-64284498D01*
X77497104Y-64403076D01*
X77302656Y-64562656D01*
X77143076Y-64757104D01*
X77024498Y-64978949D01*
X76951478Y-65219664D01*
X76926822Y-65470000D01*
X76951478Y-65720336D01*
X77024498Y-65961051D01*
X77143076Y-66182896D01*
X77302656Y-66377344D01*
X77497104Y-66536924D01*
X77718949Y-66655502D01*
X77959664Y-66728522D01*
X78076202Y-66740000D01*
X77959664Y-66751478D01*
X77718949Y-66824498D01*
X77497104Y-66943076D01*
X77302656Y-67102656D01*
X77143076Y-67297104D01*
X77024498Y-67518949D01*
X76951478Y-67759664D01*
X76926822Y-68010000D01*
X76951478Y-68260336D01*
X77024498Y-68501051D01*
X77143076Y-68722896D01*
X77302656Y-68917344D01*
X77497104Y-69076924D01*
X77718949Y-69195502D01*
X77959664Y-69268522D01*
X78076202Y-69280000D01*
X77959664Y-69291478D01*
X77718949Y-69364498D01*
X77497104Y-69483076D01*
X77302656Y-69642656D01*
X77143076Y-69837104D01*
X77024498Y-70058949D01*
X76951478Y-70299664D01*
X76926822Y-70550000D01*
X76951478Y-70800336D01*
X77024498Y-71041051D01*
X77143076Y-71262896D01*
X77302656Y-71457344D01*
X77497104Y-71616924D01*
X77718949Y-71735502D01*
X77959664Y-71808522D01*
X78076202Y-71820000D01*
X77959664Y-71831478D01*
X77718949Y-71904498D01*
X77497104Y-72023076D01*
X77302656Y-72182656D01*
X77143076Y-72377104D01*
X77024498Y-72598949D01*
X76951478Y-72839664D01*
X76926822Y-73090000D01*
X76951478Y-73340336D01*
X77024498Y-73581051D01*
X77143076Y-73802896D01*
X77302656Y-73997344D01*
X77497104Y-74156924D01*
X77718949Y-74275502D01*
X77959664Y-74348522D01*
X78076202Y-74360000D01*
X77959664Y-74371478D01*
X77718949Y-74444498D01*
X77497104Y-74563076D01*
X77302656Y-74722656D01*
X77143076Y-74917104D01*
X77024498Y-75138949D01*
X76951478Y-75379664D01*
X76926822Y-75630000D01*
X76951478Y-75880336D01*
X77024498Y-76121051D01*
X77143076Y-76342896D01*
X77302656Y-76537344D01*
X77497104Y-76696924D01*
X77718949Y-76815502D01*
X77959664Y-76888522D01*
X78076202Y-76900000D01*
X77959664Y-76911478D01*
X77718949Y-76984498D01*
X77497104Y-77103076D01*
X77302656Y-77262656D01*
X77143076Y-77457104D01*
X77024498Y-77678949D01*
X76951478Y-77919664D01*
X76926822Y-78170000D01*
X76951478Y-78420336D01*
X77024498Y-78661051D01*
X77143076Y-78882896D01*
X77302656Y-79077344D01*
X77497104Y-79236924D01*
X77674650Y-79331824D01*
X77578748Y-79365843D01*
X77328645Y-79514822D01*
X77112412Y-79709731D01*
X76938359Y-79943080D01*
X76813175Y-80205901D01*
X76768524Y-80353110D01*
X76889845Y-80583000D01*
X78083000Y-80583000D01*
X78083000Y-80563000D01*
X78337000Y-80563000D01*
X78337000Y-80583000D01*
X80623000Y-80583000D01*
X80623000Y-80563000D01*
X80877000Y-80563000D01*
X80877000Y-80583000D01*
X82070155Y-80583000D01*
X82191476Y-80353110D01*
X82146825Y-80205901D01*
X82021641Y-79943080D01*
X81847588Y-79709731D01*
X81631355Y-79514822D01*
X81381252Y-79365843D01*
X81285350Y-79331824D01*
X81462896Y-79236924D01*
X81657344Y-79077344D01*
X81816924Y-78882896D01*
X81935502Y-78661051D01*
X82008522Y-78420336D01*
X82033178Y-78170000D01*
X82008522Y-77919664D01*
X81955563Y-77745081D01*
X85171149Y-74529496D01*
X85192211Y-74512211D01*
X85261191Y-74428158D01*
X85312448Y-74332263D01*
X85344012Y-74228211D01*
X85352000Y-74147109D01*
X85352000Y-74147106D01*
X85354670Y-74120000D01*
X85352000Y-74092894D01*
X85352000Y-72066144D01*
X89731142Y-67687004D01*
X89751561Y-67754315D01*
X89803918Y-67852267D01*
X89874377Y-67938123D01*
X89960233Y-68008582D01*
X90058185Y-68060939D01*
X90164468Y-68093180D01*
X90275000Y-68104066D01*
X90823422Y-68104066D01*
X92026264Y-69306910D01*
X92004782Y-69358773D01*
X91973000Y-69518548D01*
X91973000Y-69646355D01*
X91628856Y-69990500D01*
X91607789Y-70007789D01*
X91538809Y-70091842D01*
X91487552Y-70187738D01*
X91455988Y-70291790D01*
X91451119Y-70341227D01*
X91445330Y-70400000D01*
X91448000Y-70427106D01*
X91448001Y-78382444D01*
X91357628Y-78472817D01*
X91267123Y-78608267D01*
X91204782Y-78758771D01*
X91173000Y-78918546D01*
X91173000Y-79081450D01*
X91204782Y-79241225D01*
X91267123Y-79391729D01*
X91357628Y-79527179D01*
X91472819Y-79642370D01*
X91608269Y-79732875D01*
X91758773Y-79795216D01*
X91918548Y-79826998D01*
X92081452Y-79826998D01*
X92241227Y-79795216D01*
X92391731Y-79732875D01*
X92527181Y-79642370D01*
X92642372Y-79527179D01*
X92732877Y-79391729D01*
X92795218Y-79241225D01*
X92827000Y-79081450D01*
X92827000Y-78918546D01*
X92795218Y-78758771D01*
X92732877Y-78608267D01*
X92642372Y-78472817D01*
X92552000Y-78382445D01*
X92552000Y-73587684D01*
X96592136Y-73587684D01*
X96592136Y-73750588D01*
X96623918Y-73910363D01*
X96686259Y-74060867D01*
X96776764Y-74196317D01*
X96891955Y-74311508D01*
X97027405Y-74402013D01*
X97177909Y-74464354D01*
X97337684Y-74496136D01*
X97465492Y-74496136D01*
X98240508Y-75271154D01*
X98257789Y-75292211D01*
X98278845Y-75309491D01*
X98278846Y-75309492D01*
X98341842Y-75361191D01*
X98437737Y-75412448D01*
X98541789Y-75444012D01*
X98650000Y-75454670D01*
X98677108Y-75452000D01*
X104182439Y-75452000D01*
X104272811Y-75542372D01*
X104408261Y-75632877D01*
X104558765Y-75695218D01*
X104718540Y-75727000D01*
X104881444Y-75727000D01*
X105041219Y-75695218D01*
X105191723Y-75632877D01*
X105327173Y-75542372D01*
X105442364Y-75427181D01*
X105532869Y-75291731D01*
X105595210Y-75141227D01*
X105626992Y-74981452D01*
X105626992Y-74818548D01*
X105595210Y-74658773D01*
X105542055Y-74530447D01*
X106127169Y-74530447D01*
X106217541Y-74620819D01*
X106352991Y-74711324D01*
X106503495Y-74773665D01*
X106663270Y-74805447D01*
X106826174Y-74805447D01*
X106985949Y-74773665D01*
X107136453Y-74711324D01*
X107271903Y-74620819D01*
X107387094Y-74505628D01*
X107477599Y-74370178D01*
X107539940Y-74219674D01*
X107571722Y-74059899D01*
X107571722Y-73896995D01*
X107539940Y-73737220D01*
X107477599Y-73586716D01*
X107387094Y-73451266D01*
X107271903Y-73336075D01*
X107136453Y-73245570D01*
X106985949Y-73183229D01*
X106826174Y-73151447D01*
X106663270Y-73151447D01*
X106503495Y-73183229D01*
X106352991Y-73245570D01*
X106217541Y-73336075D01*
X106127169Y-73426447D01*
X100322664Y-73426447D01*
X98914685Y-72018470D01*
X98914685Y-71890662D01*
X98882903Y-71730887D01*
X98820562Y-71580383D01*
X98730057Y-71444933D01*
X98614866Y-71329742D01*
X98479416Y-71239237D01*
X98328912Y-71176896D01*
X98169137Y-71145114D01*
X98006233Y-71145114D01*
X97846458Y-71176896D01*
X97695954Y-71239237D01*
X97560504Y-71329742D01*
X97445313Y-71444933D01*
X97354808Y-71580383D01*
X97292467Y-71730887D01*
X97260685Y-71890662D01*
X97260685Y-72053566D01*
X97292467Y-72213341D01*
X97354808Y-72363845D01*
X97445313Y-72499295D01*
X97560504Y-72614486D01*
X97695954Y-72704991D01*
X97846458Y-72767332D01*
X98006233Y-72799114D01*
X98134041Y-72799114D01*
X99682925Y-74348000D01*
X98878646Y-74348000D01*
X98246136Y-73715492D01*
X98246136Y-73587684D01*
X98214354Y-73427909D01*
X98152013Y-73277405D01*
X98061508Y-73141955D01*
X97946317Y-73026764D01*
X97810867Y-72936259D01*
X97660363Y-72873918D01*
X97500588Y-72842136D01*
X97337684Y-72842136D01*
X97177909Y-72873918D01*
X97027405Y-72936259D01*
X96891955Y-73026764D01*
X96776764Y-73141955D01*
X96686259Y-73277405D01*
X96623918Y-73427909D01*
X96592136Y-73587684D01*
X92552000Y-73587684D01*
X92552000Y-70628644D01*
X92753645Y-70427000D01*
X92881452Y-70427000D01*
X93041227Y-70395218D01*
X93191731Y-70332877D01*
X93327181Y-70242372D01*
X93442372Y-70127181D01*
X93514958Y-70018548D01*
X103073000Y-70018548D01*
X103073000Y-70181452D01*
X103104782Y-70341227D01*
X103167123Y-70491731D01*
X103257628Y-70627181D01*
X103372819Y-70742372D01*
X103508269Y-70832877D01*
X103658773Y-70895218D01*
X103818548Y-70927000D01*
X103981452Y-70927000D01*
X104141227Y-70895218D01*
X104291731Y-70832877D01*
X104427181Y-70742372D01*
X104517553Y-70652000D01*
X106771356Y-70652000D01*
X107473000Y-71353645D01*
X107473000Y-71381452D01*
X107504782Y-71541227D01*
X107567123Y-71691731D01*
X107657628Y-71827181D01*
X107748000Y-71917553D01*
X107748001Y-82071356D01*
X107346358Y-82473000D01*
X107218550Y-82473000D01*
X107058775Y-82504782D01*
X106908271Y-82567123D01*
X106772821Y-82657628D01*
X106657630Y-82772819D01*
X106567125Y-82908269D01*
X106504784Y-83058773D01*
X106473002Y-83218548D01*
X106473002Y-83381452D01*
X106504784Y-83541227D01*
X106567125Y-83691731D01*
X106657630Y-83827181D01*
X106772821Y-83942372D01*
X106908271Y-84032877D01*
X107058775Y-84095218D01*
X107218550Y-84127000D01*
X107381454Y-84127000D01*
X107541229Y-84095218D01*
X107691733Y-84032877D01*
X107827183Y-83942372D01*
X107942374Y-83827181D01*
X108032879Y-83691731D01*
X108095220Y-83541227D01*
X108127002Y-83381452D01*
X108127002Y-83253644D01*
X108671154Y-82709494D01*
X108692211Y-82692213D01*
X108761191Y-82608160D01*
X108812448Y-82512265D01*
X108844012Y-82408213D01*
X108852000Y-82327111D01*
X108854670Y-82300002D01*
X108852000Y-82272894D01*
X108852000Y-71917553D01*
X108942372Y-71827181D01*
X109032877Y-71691731D01*
X109095218Y-71541227D01*
X109127000Y-71381452D01*
X109127000Y-71218548D01*
X109095218Y-71058773D01*
X109032877Y-70908269D01*
X108942372Y-70772819D01*
X108827181Y-70657628D01*
X108691731Y-70567123D01*
X108541227Y-70504782D01*
X108381452Y-70473000D01*
X108218548Y-70473000D01*
X108164414Y-70483768D01*
X107409500Y-69728856D01*
X107392211Y-69707789D01*
X107308158Y-69638809D01*
X107212263Y-69587552D01*
X107108211Y-69555988D01*
X107027109Y-69548000D01*
X107027106Y-69548000D01*
X107000000Y-69545330D01*
X106972894Y-69548000D01*
X104517553Y-69548000D01*
X104427181Y-69457628D01*
X104291731Y-69367123D01*
X104141227Y-69304782D01*
X103981452Y-69273000D01*
X103818548Y-69273000D01*
X103658773Y-69304782D01*
X103508269Y-69367123D01*
X103372819Y-69457628D01*
X103257628Y-69572819D01*
X103167123Y-69708269D01*
X103104782Y-69858773D01*
X103073000Y-70018548D01*
X93514958Y-70018548D01*
X93532877Y-69991731D01*
X93595218Y-69841227D01*
X93627000Y-69681452D01*
X93627000Y-69518548D01*
X93595218Y-69358773D01*
X93532877Y-69208269D01*
X93442372Y-69072819D01*
X93327181Y-68957628D01*
X93191731Y-68867123D01*
X93116683Y-68836037D01*
X92417231Y-68136586D01*
X92558781Y-68195218D01*
X92718556Y-68227000D01*
X92881460Y-68227000D01*
X93041235Y-68195218D01*
X93191739Y-68132877D01*
X93327189Y-68042372D01*
X93442380Y-67927181D01*
X93532885Y-67791731D01*
X93576783Y-67685750D01*
X100677500Y-67685750D01*
X100687316Y-67802595D01*
X100724221Y-67922110D01*
X100783733Y-68032130D01*
X100863566Y-68128425D01*
X100960651Y-68207295D01*
X101071257Y-68265710D01*
X101191134Y-68301423D01*
X101315676Y-68313064D01*
X101789250Y-68310000D01*
X101948000Y-68151250D01*
X101948000Y-67527000D01*
X102202000Y-67527000D01*
X102202000Y-68151250D01*
X102360750Y-68310000D01*
X102834324Y-68313064D01*
X102958866Y-68301423D01*
X103078743Y-68265710D01*
X103189349Y-68207295D01*
X103286434Y-68128425D01*
X103366267Y-68032130D01*
X103425779Y-67922110D01*
X103462684Y-67802595D01*
X103472500Y-67685750D01*
X103313750Y-67527000D01*
X102202000Y-67527000D01*
X101948000Y-67527000D01*
X100836250Y-67527000D01*
X100677500Y-67685750D01*
X93576783Y-67685750D01*
X93595226Y-67641227D01*
X93627008Y-67481452D01*
X93627008Y-67353644D01*
X93828653Y-67152000D01*
X100715250Y-67152000D01*
X100836250Y-67273000D01*
X101272944Y-67273000D01*
X101339468Y-67293180D01*
X101450000Y-67304066D01*
X102700000Y-67304066D01*
X102810532Y-67293180D01*
X102877056Y-67273000D01*
X103313750Y-67273000D01*
X103472500Y-67114250D01*
X103462684Y-66997405D01*
X103425779Y-66877890D01*
X103366267Y-66767870D01*
X103286434Y-66671575D01*
X103266566Y-66655435D01*
X103266566Y-66462500D01*
X103255680Y-66351968D01*
X103223439Y-66245685D01*
X103199020Y-66200000D01*
X103223439Y-66154315D01*
X103255680Y-66048032D01*
X103266566Y-65937500D01*
X103266566Y-65662500D01*
X103255680Y-65551968D01*
X103223439Y-65445685D01*
X103199020Y-65400000D01*
X103223439Y-65354315D01*
X103255680Y-65248032D01*
X103266566Y-65137500D01*
X103266566Y-64862500D01*
X103255680Y-64751968D01*
X103223439Y-64645685D01*
X103199020Y-64600000D01*
X103223439Y-64554315D01*
X103255680Y-64448032D01*
X103266566Y-64337500D01*
X103266566Y-64144565D01*
X103286434Y-64128425D01*
X103366267Y-64032130D01*
X103425779Y-63922110D01*
X103462684Y-63802595D01*
X103472500Y-63685750D01*
X103313750Y-63527000D01*
X102877056Y-63527000D01*
X102810532Y-63506820D01*
X102700000Y-63495934D01*
X101450000Y-63495934D01*
X101339468Y-63506820D01*
X101272944Y-63527000D01*
X100836250Y-63527000D01*
X100715250Y-63648000D01*
X94118758Y-63648000D01*
X94127181Y-63642372D01*
X94242372Y-63527181D01*
X94332877Y-63391731D01*
X94395218Y-63241227D01*
X94412967Y-63152000D01*
X100715250Y-63152000D01*
X100836250Y-63273000D01*
X101272944Y-63273000D01*
X101339468Y-63293180D01*
X101450000Y-63304066D01*
X102700000Y-63304066D01*
X102810532Y-63293180D01*
X102877056Y-63273000D01*
X103313750Y-63273000D01*
X103472500Y-63114250D01*
X103462684Y-62997405D01*
X103425779Y-62877890D01*
X103366267Y-62767870D01*
X103286434Y-62671575D01*
X103266566Y-62655435D01*
X103266566Y-62462500D01*
X103255680Y-62351968D01*
X103223439Y-62245685D01*
X103199020Y-62200000D01*
X103223439Y-62154315D01*
X103235355Y-62115035D01*
X103267123Y-62191731D01*
X103357628Y-62327181D01*
X103472819Y-62442372D01*
X103608269Y-62532877D01*
X103648000Y-62549334D01*
X103648001Y-65272884D01*
X103645330Y-65300000D01*
X103651462Y-65362252D01*
X103655989Y-65408211D01*
X103659125Y-65418548D01*
X103687552Y-65512262D01*
X103738809Y-65608157D01*
X103738853Y-65608211D01*
X103772999Y-65649818D01*
X103772999Y-65781451D01*
X103804781Y-65941226D01*
X103867122Y-66091730D01*
X103957627Y-66227180D01*
X104072818Y-66342371D01*
X104208268Y-66432876D01*
X104358772Y-66495217D01*
X104518547Y-66526999D01*
X104681451Y-66526999D01*
X104841226Y-66495217D01*
X104991730Y-66432876D01*
X105127180Y-66342371D01*
X105242371Y-66227180D01*
X105332876Y-66091730D01*
X105395217Y-65941226D01*
X105426999Y-65781451D01*
X105426999Y-65618547D01*
X105395217Y-65458772D01*
X105332876Y-65308268D01*
X105242371Y-65172818D01*
X105127180Y-65057627D01*
X104991730Y-64967122D01*
X104841226Y-64904781D01*
X104752000Y-64887032D01*
X104752000Y-62145564D01*
X104795218Y-62041227D01*
X104827000Y-61881452D01*
X104827000Y-61718548D01*
X104795218Y-61558773D01*
X104732877Y-61408269D01*
X104642372Y-61272819D01*
X104527181Y-61157628D01*
X104391731Y-61067123D01*
X104241227Y-61004782D01*
X104081452Y-60973000D01*
X103918548Y-60973000D01*
X103758773Y-61004782D01*
X103608269Y-61067123D01*
X103472819Y-61157628D01*
X103357628Y-61272819D01*
X103267123Y-61408269D01*
X103235355Y-61484965D01*
X103223439Y-61445685D01*
X103199020Y-61400000D01*
X103223439Y-61354315D01*
X103255680Y-61248032D01*
X103266566Y-61137500D01*
X103266566Y-60862500D01*
X103255680Y-60751968D01*
X103223439Y-60645685D01*
X103199020Y-60600000D01*
X103223439Y-60554315D01*
X103255680Y-60448032D01*
X103266566Y-60337500D01*
X103266566Y-60062500D01*
X103255680Y-59951968D01*
X103223439Y-59845685D01*
X103171082Y-59747733D01*
X103100623Y-59661877D01*
X103014767Y-59591418D01*
X102916815Y-59539061D01*
X102810532Y-59506820D01*
X102700000Y-59495934D01*
X101450000Y-59495934D01*
X101339468Y-59506820D01*
X101233185Y-59539061D01*
X101135233Y-59591418D01*
X101066286Y-59648000D01*
X97749336Y-59648000D01*
X97732880Y-59608272D01*
X97642375Y-59472822D01*
X97527184Y-59357631D01*
X97391734Y-59267126D01*
X97241230Y-59204785D01*
X97081455Y-59173003D01*
X96918551Y-59173003D01*
X96758776Y-59204785D01*
X96608272Y-59267126D01*
X96472822Y-59357631D01*
X96357631Y-59472822D01*
X96267126Y-59608272D01*
X96204785Y-59758776D01*
X96173003Y-59918551D01*
X96173003Y-60081455D01*
X96204785Y-60241230D01*
X96267126Y-60391734D01*
X96304722Y-60448000D01*
X96217553Y-60448000D01*
X96127184Y-60357631D01*
X95991734Y-60267126D01*
X95841230Y-60204785D01*
X95681455Y-60173003D01*
X95518551Y-60173003D01*
X95358776Y-60204785D01*
X95208272Y-60267126D01*
X95072822Y-60357631D01*
X94957631Y-60472822D01*
X94867126Y-60608272D01*
X94804785Y-60758776D01*
X94773003Y-60918551D01*
X94773003Y-60978139D01*
X94747113Y-60972989D01*
X94584209Y-60972989D01*
X94424434Y-61004771D01*
X94273930Y-61067112D01*
X94138480Y-61157617D01*
X94023289Y-61272808D01*
X93932784Y-61408258D01*
X93870443Y-61558762D01*
X93838661Y-61718537D01*
X93838661Y-61881441D01*
X93870443Y-62041216D01*
X93878262Y-62060092D01*
X93787737Y-62087552D01*
X93779023Y-62092210D01*
X93691841Y-62138809D01*
X93664569Y-62161191D01*
X93650180Y-62173000D01*
X93518548Y-62173000D01*
X93358773Y-62204782D01*
X93208269Y-62267123D01*
X93072819Y-62357628D01*
X92957628Y-62472819D01*
X92867123Y-62608269D01*
X92804782Y-62758773D01*
X92773000Y-62918548D01*
X92773000Y-63081452D01*
X92804782Y-63241227D01*
X92867123Y-63391731D01*
X92957628Y-63527181D01*
X92961937Y-63531490D01*
X92922819Y-63557628D01*
X92807628Y-63672819D01*
X92717123Y-63808269D01*
X92654782Y-63958773D01*
X92623000Y-64118548D01*
X92623000Y-64281452D01*
X92629336Y-64313304D01*
X92568002Y-64338709D01*
X92432552Y-64429214D01*
X92317361Y-64544405D01*
X92226856Y-64679855D01*
X92164515Y-64830359D01*
X92132733Y-64990134D01*
X92132733Y-65153038D01*
X92164515Y-65312813D01*
X92190256Y-65374958D01*
X92085479Y-65444968D01*
X92056893Y-65473554D01*
X92048439Y-65445685D01*
X92024020Y-65400000D01*
X92048439Y-65354315D01*
X92080680Y-65248032D01*
X92091566Y-65137500D01*
X92091566Y-64862500D01*
X92080680Y-64751968D01*
X92048439Y-64645685D01*
X92024020Y-64600000D01*
X92048439Y-64554315D01*
X92080680Y-64448032D01*
X92091566Y-64337500D01*
X92091566Y-64062500D01*
X92080680Y-63951968D01*
X92048439Y-63845685D01*
X92024020Y-63800000D01*
X92048439Y-63754315D01*
X92080680Y-63648032D01*
X92091566Y-63537500D01*
X92091566Y-63262500D01*
X92080680Y-63151968D01*
X92048439Y-63045685D01*
X92024020Y-63000000D01*
X92048439Y-62954315D01*
X92080680Y-62848032D01*
X92091566Y-62737500D01*
X92091566Y-62462500D01*
X92080680Y-62351968D01*
X92048439Y-62245685D01*
X92024020Y-62200000D01*
X92048439Y-62154315D01*
X92080680Y-62048032D01*
X92091566Y-61937500D01*
X92091566Y-61662500D01*
X92080680Y-61551968D01*
X92048439Y-61445685D01*
X92024020Y-61400000D01*
X92048439Y-61354315D01*
X92080680Y-61248032D01*
X92091566Y-61137500D01*
X92091566Y-60862500D01*
X92080680Y-60751968D01*
X92048439Y-60645685D01*
X92024020Y-60600000D01*
X92048439Y-60554315D01*
X92080680Y-60448032D01*
X92091566Y-60337500D01*
X92091566Y-60062500D01*
X92080680Y-59951968D01*
X92048439Y-59845685D01*
X91996082Y-59747733D01*
X91925623Y-59661877D01*
X91839767Y-59591418D01*
X91741815Y-59539061D01*
X91635532Y-59506820D01*
X91525000Y-59495934D01*
X90275000Y-59495934D01*
X90164468Y-59506820D01*
X90058185Y-59539061D01*
X89960233Y-59591418D01*
X89891286Y-59648000D01*
X88917872Y-59648000D01*
X88890766Y-59645330D01*
X88863660Y-59648000D01*
X88863658Y-59648000D01*
X88782556Y-59655988D01*
X88678504Y-59687552D01*
X88582609Y-59738809D01*
X88498556Y-59807789D01*
X88481275Y-59828846D01*
X86128856Y-62181267D01*
X86107789Y-62198556D01*
X86038809Y-62282609D01*
X85987552Y-62378505D01*
X85955988Y-62482557D01*
X85948000Y-62563658D01*
X85945330Y-62590767D01*
X85948000Y-62617873D01*
X85948001Y-64671353D01*
X81986355Y-68633001D01*
X81864974Y-68633001D01*
X81935502Y-68501051D01*
X82008522Y-68260336D01*
X82033178Y-68010000D01*
X82008522Y-67759664D01*
X81935502Y-67518949D01*
X81816924Y-67297104D01*
X81657344Y-67102656D01*
X81462896Y-66943076D01*
X81241051Y-66824498D01*
X81000336Y-66751478D01*
X80883798Y-66740000D01*
X81000336Y-66728522D01*
X81241051Y-66655502D01*
X81462896Y-66536924D01*
X81657344Y-66377344D01*
X81816924Y-66182896D01*
X81935502Y-65961051D01*
X82008522Y-65720336D01*
X82033178Y-65470000D01*
X82008522Y-65219664D01*
X81935502Y-64978949D01*
X81816924Y-64757104D01*
X81657344Y-64562656D01*
X81462896Y-64403076D01*
X81241051Y-64284498D01*
X81000336Y-64211478D01*
X80883798Y-64200000D01*
X81000336Y-64188522D01*
X81241051Y-64115502D01*
X81462896Y-63996924D01*
X81657344Y-63837344D01*
X81816924Y-63642896D01*
X81935502Y-63421051D01*
X82008522Y-63180336D01*
X82033178Y-62930000D01*
X82008522Y-62679664D01*
X81935502Y-62438949D01*
X81835576Y-62252000D01*
X82372894Y-62252000D01*
X82400000Y-62254670D01*
X82427106Y-62252000D01*
X82427109Y-62252000D01*
X82508211Y-62244012D01*
X82612263Y-62212448D01*
X82708158Y-62161191D01*
X82792211Y-62092211D01*
X82809500Y-62071144D01*
X83153646Y-61727000D01*
X83281452Y-61727000D01*
X83441227Y-61695218D01*
X83591731Y-61632877D01*
X83727181Y-61542372D01*
X83842372Y-61427181D01*
X83932877Y-61291731D01*
X83995218Y-61141227D01*
X84027000Y-60981452D01*
X84027000Y-60818548D01*
X83995218Y-60658773D01*
X83932877Y-60508269D01*
X83842372Y-60372819D01*
X83727181Y-60257628D01*
X83591731Y-60167123D01*
X83441227Y-60104782D01*
X83281452Y-60073000D01*
X83118548Y-60073000D01*
X82958773Y-60104782D01*
X82808269Y-60167123D01*
X82672819Y-60257628D01*
X82557628Y-60372819D01*
X82467123Y-60508269D01*
X82404782Y-60658773D01*
X82373000Y-60818548D01*
X82373000Y-60946354D01*
X82171355Y-61148000D01*
X81779908Y-61148000D01*
X81816924Y-61102896D01*
X81935502Y-60881051D01*
X82008522Y-60640336D01*
X82033178Y-60390000D01*
X82008522Y-60139664D01*
X81935502Y-59898949D01*
X81816924Y-59677104D01*
X81657344Y-59482656D01*
X81462896Y-59323076D01*
X81285350Y-59228176D01*
X81381252Y-59194157D01*
X81631355Y-59045178D01*
X81847588Y-58850269D01*
X82021641Y-58616920D01*
X82146825Y-58354099D01*
X82191476Y-58206890D01*
X82070155Y-57977000D01*
X80877000Y-57977000D01*
X80877000Y-57997000D01*
X80623000Y-57997000D01*
X80623000Y-57977000D01*
X78337000Y-57977000D01*
X78337000Y-57997000D01*
X78083000Y-57997000D01*
X78083000Y-57977000D01*
X76889845Y-57977000D01*
X76768524Y-58206890D01*
X76813175Y-58354099D01*
X76938359Y-58616920D01*
X77112412Y-58850269D01*
X77328645Y-59045178D01*
X77578748Y-59194157D01*
X77674650Y-59228176D01*
X77497104Y-59323076D01*
X77302656Y-59482656D01*
X77143076Y-59677104D01*
X77024498Y-59898949D01*
X76951478Y-60139664D01*
X76926822Y-60390000D01*
X76951478Y-60640336D01*
X77024498Y-60881051D01*
X77143076Y-61102896D01*
X77302656Y-61297344D01*
X77331350Y-61320893D01*
X77324823Y-61328846D01*
X75128852Y-63524819D01*
X75107790Y-63542104D01*
X75051119Y-63611158D01*
X75038809Y-63626158D01*
X74987552Y-63722053D01*
X74979762Y-63747733D01*
X74955988Y-63826104D01*
X74950705Y-63879742D01*
X74857628Y-63972819D01*
X74767123Y-64108269D01*
X74704782Y-64258773D01*
X74673000Y-64418548D01*
X69202000Y-64418548D01*
X69202000Y-42980000D01*
X74745330Y-42980000D01*
X74748000Y-43007106D01*
X74748001Y-55472884D01*
X74745330Y-55500000D01*
X74753531Y-55583255D01*
X74755989Y-55608211D01*
X74759125Y-55618548D01*
X74787552Y-55712262D01*
X74838809Y-55808157D01*
X74838901Y-55808269D01*
X74907790Y-55892211D01*
X74928852Y-55909496D01*
X75990487Y-56971132D01*
X76007772Y-56992194D01*
X76091825Y-57061174D01*
X76187720Y-57112431D01*
X76291772Y-57143995D01*
X76372874Y-57151983D01*
X76372877Y-57151983D01*
X76399983Y-57154653D01*
X76427089Y-57151983D01*
X76905540Y-57151983D01*
X76813175Y-57345901D01*
X76768524Y-57493110D01*
X76889845Y-57723000D01*
X78083000Y-57723000D01*
X78083000Y-57703000D01*
X78337000Y-57703000D01*
X78337000Y-57723000D01*
X80623000Y-57723000D01*
X80623000Y-57703000D01*
X80877000Y-57703000D01*
X80877000Y-57723000D01*
X82070155Y-57723000D01*
X82191476Y-57493110D01*
X82146825Y-57345901D01*
X82054460Y-57151983D01*
X85371325Y-57151983D01*
X86173000Y-57953660D01*
X86173000Y-58081466D01*
X86204782Y-58241241D01*
X86267123Y-58391745D01*
X86357628Y-58527195D01*
X86472819Y-58642386D01*
X86608269Y-58732891D01*
X86758773Y-58795232D01*
X86918548Y-58827014D01*
X87081452Y-58827014D01*
X87241227Y-58795232D01*
X87391731Y-58732891D01*
X87527181Y-58642386D01*
X87642372Y-58527195D01*
X87732877Y-58391745D01*
X87795218Y-58241241D01*
X87827000Y-58081466D01*
X87827000Y-57918562D01*
X87795218Y-57758787D01*
X87732877Y-57608283D01*
X87642372Y-57472833D01*
X87527181Y-57357642D01*
X87391731Y-57267137D01*
X87241227Y-57204796D01*
X87081452Y-57173014D01*
X86953646Y-57173014D01*
X86009469Y-56228839D01*
X85992180Y-56207772D01*
X85908127Y-56138792D01*
X85812232Y-56087535D01*
X85708180Y-56055971D01*
X85627078Y-56047983D01*
X85627075Y-56047983D01*
X85599969Y-56045313D01*
X85572863Y-56047983D01*
X81796336Y-56047983D01*
X81816924Y-56022896D01*
X81935502Y-55801051D01*
X82008522Y-55560336D01*
X82033178Y-55310000D01*
X82008522Y-55059664D01*
X81935502Y-54818949D01*
X81816924Y-54597104D01*
X81657344Y-54402656D01*
X81462896Y-54243076D01*
X81241051Y-54124498D01*
X81000336Y-54051478D01*
X80883798Y-54040000D01*
X81000336Y-54028522D01*
X81241051Y-53955502D01*
X81462896Y-53836924D01*
X81657344Y-53677344D01*
X81816924Y-53482896D01*
X81935502Y-53261051D01*
X82008522Y-53020336D01*
X82033178Y-52770000D01*
X82008522Y-52519664D01*
X81935502Y-52278949D01*
X81816924Y-52057104D01*
X81657344Y-51862656D01*
X81462896Y-51703076D01*
X81241051Y-51584498D01*
X81000336Y-51511478D01*
X80883798Y-51500000D01*
X81000336Y-51488522D01*
X81241051Y-51415502D01*
X81462896Y-51296924D01*
X81657344Y-51137344D01*
X81816924Y-50942896D01*
X81935502Y-50721051D01*
X82008522Y-50480336D01*
X82033178Y-50230000D01*
X82008522Y-49979664D01*
X81935502Y-49738949D01*
X81816924Y-49517104D01*
X81657344Y-49322656D01*
X81462896Y-49163076D01*
X81241051Y-49044498D01*
X81000336Y-48971478D01*
X80883798Y-48960000D01*
X81000336Y-48948522D01*
X81241051Y-48875502D01*
X81462896Y-48756924D01*
X81657344Y-48597344D01*
X81816924Y-48402896D01*
X81935502Y-48181051D01*
X82008522Y-47940336D01*
X82033178Y-47690000D01*
X82008522Y-47439664D01*
X81935502Y-47198949D01*
X81816924Y-46977104D01*
X81657344Y-46782656D01*
X81462896Y-46623076D01*
X81241051Y-46504498D01*
X81000336Y-46431478D01*
X80883798Y-46420000D01*
X81000336Y-46408522D01*
X81241051Y-46335502D01*
X81462896Y-46216924D01*
X81657344Y-46057344D01*
X81816924Y-45862896D01*
X81935502Y-45641051D01*
X82008522Y-45400336D01*
X82033178Y-45150000D01*
X82008522Y-44899664D01*
X81935502Y-44658949D01*
X81816924Y-44437104D01*
X81657344Y-44242656D01*
X81462896Y-44083076D01*
X81241051Y-43964498D01*
X81000336Y-43891478D01*
X80883798Y-43880000D01*
X81000336Y-43868522D01*
X81241051Y-43795502D01*
X81462896Y-43676924D01*
X81657344Y-43517344D01*
X81816924Y-43322896D01*
X81935502Y-43101051D01*
X82008522Y-42860336D01*
X82033178Y-42610000D01*
X82008522Y-42359664D01*
X81935502Y-42118949D01*
X81816924Y-41897104D01*
X81657344Y-41702656D01*
X81462896Y-41543076D01*
X81241051Y-41424498D01*
X81000336Y-41351478D01*
X80883798Y-41340000D01*
X81000336Y-41328522D01*
X81241051Y-41255502D01*
X81462896Y-41136924D01*
X81657344Y-40977344D01*
X81816924Y-40782896D01*
X81935502Y-40561051D01*
X82008522Y-40320336D01*
X82033178Y-40070000D01*
X82008522Y-39819664D01*
X81935502Y-39578949D01*
X81816924Y-39357104D01*
X81812735Y-39352000D01*
X82871356Y-39352000D01*
X83448001Y-39928647D01*
X83448000Y-53572894D01*
X83445330Y-53600000D01*
X83448000Y-53627106D01*
X83448000Y-53627108D01*
X83455988Y-53708210D01*
X83487552Y-53812262D01*
X83538809Y-53908158D01*
X83607789Y-53992211D01*
X83628856Y-54009500D01*
X85390508Y-55771154D01*
X85407789Y-55792211D01*
X85428845Y-55809491D01*
X85491841Y-55861191D01*
X85543098Y-55888588D01*
X85587737Y-55912448D01*
X85691789Y-55944012D01*
X85772891Y-55952000D01*
X85772901Y-55952000D01*
X85799999Y-55954669D01*
X85827097Y-55952000D01*
X89719317Y-55952000D01*
X89708434Y-56062500D01*
X89708434Y-56337500D01*
X89719320Y-56448032D01*
X89751561Y-56554315D01*
X89775980Y-56600000D01*
X89751561Y-56645685D01*
X89719320Y-56751968D01*
X89708434Y-56862500D01*
X89708434Y-57137500D01*
X89719320Y-57248032D01*
X89751561Y-57354315D01*
X89775980Y-57400000D01*
X89751561Y-57445685D01*
X89719320Y-57551968D01*
X89708434Y-57662500D01*
X89708434Y-57937500D01*
X89719320Y-58048032D01*
X89751561Y-58154315D01*
X89803918Y-58252267D01*
X89874377Y-58338123D01*
X89960233Y-58408582D01*
X90058185Y-58460939D01*
X90164468Y-58493180D01*
X90275000Y-58504066D01*
X91525000Y-58504066D01*
X91635532Y-58493180D01*
X91741815Y-58460939D01*
X91839767Y-58408582D01*
X91925623Y-58338123D01*
X91996082Y-58252267D01*
X92048439Y-58154315D01*
X92080680Y-58048032D01*
X92091566Y-57937500D01*
X92091566Y-57662500D01*
X92080680Y-57551968D01*
X92048439Y-57445685D01*
X92024020Y-57400000D01*
X92048439Y-57354315D01*
X92080680Y-57248032D01*
X92091566Y-57137500D01*
X92091566Y-56862500D01*
X92080683Y-56752000D01*
X95829702Y-56752000D01*
X96137458Y-57059757D01*
X96137458Y-57187563D01*
X96169240Y-57347338D01*
X96231581Y-57497842D01*
X96322086Y-57633292D01*
X96437277Y-57748483D01*
X96572727Y-57838988D01*
X96723231Y-57901329D01*
X96883006Y-57933111D01*
X97045910Y-57933111D01*
X97205685Y-57901329D01*
X97356189Y-57838988D01*
X97491639Y-57748483D01*
X97606830Y-57633292D01*
X97697028Y-57498302D01*
X97723493Y-57512448D01*
X97827545Y-57544012D01*
X97908647Y-57552000D01*
X97908657Y-57552000D01*
X97935755Y-57554669D01*
X97962853Y-57552000D01*
X100894317Y-57552000D01*
X100883434Y-57662500D01*
X100883434Y-57937500D01*
X100894320Y-58048032D01*
X100926561Y-58154315D01*
X100978918Y-58252267D01*
X101049377Y-58338123D01*
X101135233Y-58408582D01*
X101233185Y-58460939D01*
X101339468Y-58493180D01*
X101450000Y-58504066D01*
X102700000Y-58504066D01*
X102810532Y-58493180D01*
X102916815Y-58460939D01*
X103014767Y-58408582D01*
X103100623Y-58338123D01*
X103171082Y-58252267D01*
X103223439Y-58154315D01*
X103255680Y-58048032D01*
X103266566Y-57937500D01*
X103266566Y-57662500D01*
X103255680Y-57551968D01*
X103223439Y-57445685D01*
X103199020Y-57400000D01*
X103223439Y-57354315D01*
X103255680Y-57248032D01*
X103266566Y-57137500D01*
X103266566Y-56862500D01*
X103255680Y-56751968D01*
X103223439Y-56645685D01*
X103199020Y-56600000D01*
X103223439Y-56554315D01*
X103255680Y-56448032D01*
X103266566Y-56337500D01*
X103266566Y-56062500D01*
X103255680Y-55951968D01*
X103223439Y-55845685D01*
X103199020Y-55800000D01*
X103223439Y-55754315D01*
X103255680Y-55648032D01*
X103266566Y-55537500D01*
X103266566Y-55262500D01*
X103255680Y-55151968D01*
X103223439Y-55045685D01*
X103199020Y-55000000D01*
X103223439Y-54954315D01*
X103255680Y-54848032D01*
X103266566Y-54737500D01*
X103266566Y-54462500D01*
X103255680Y-54351968D01*
X103223439Y-54245685D01*
X103199020Y-54200000D01*
X103223439Y-54154315D01*
X103255680Y-54048032D01*
X103266566Y-53937500D01*
X103266566Y-53662500D01*
X103255680Y-53551968D01*
X103223439Y-53445685D01*
X103199020Y-53400000D01*
X103223439Y-53354315D01*
X103255680Y-53248032D01*
X103266566Y-53137500D01*
X103266566Y-52862500D01*
X103255680Y-52751968D01*
X103223439Y-52645685D01*
X103199020Y-52600000D01*
X103223439Y-52554315D01*
X103255680Y-52448032D01*
X103266566Y-52337500D01*
X103266566Y-52062500D01*
X103255680Y-51951968D01*
X103223439Y-51845685D01*
X103199020Y-51800000D01*
X103223439Y-51754315D01*
X103255680Y-51648032D01*
X103266566Y-51537500D01*
X103266566Y-51344565D01*
X103286434Y-51328425D01*
X103366267Y-51232130D01*
X103425779Y-51122110D01*
X103462684Y-51002595D01*
X103472500Y-50885750D01*
X103313750Y-50727000D01*
X102877056Y-50727000D01*
X102810532Y-50706820D01*
X102700000Y-50695934D01*
X101450000Y-50695934D01*
X101339468Y-50706820D01*
X101272944Y-50727000D01*
X100836250Y-50727000D01*
X100715250Y-50848000D01*
X98828646Y-50848000D01*
X98727000Y-50746355D01*
X98727000Y-50618548D01*
X98695218Y-50458773D01*
X98635355Y-50314250D01*
X100677500Y-50314250D01*
X100836250Y-50473000D01*
X101948000Y-50473000D01*
X101948000Y-49848750D01*
X102202000Y-49848750D01*
X102202000Y-50473000D01*
X103313750Y-50473000D01*
X103472500Y-50314250D01*
X103462684Y-50197405D01*
X103425779Y-50077890D01*
X103366267Y-49967870D01*
X103286434Y-49871575D01*
X103189349Y-49792705D01*
X103078743Y-49734290D01*
X102958866Y-49698577D01*
X102834324Y-49686936D01*
X102360750Y-49690000D01*
X102202000Y-49848750D01*
X101948000Y-49848750D01*
X101789250Y-49690000D01*
X101315676Y-49686936D01*
X101191134Y-49698577D01*
X101071257Y-49734290D01*
X100960651Y-49792705D01*
X100863566Y-49871575D01*
X100783733Y-49967870D01*
X100724221Y-50077890D01*
X100687316Y-50197405D01*
X100677500Y-50314250D01*
X98635355Y-50314250D01*
X98632877Y-50308269D01*
X98542372Y-50172819D01*
X98427181Y-50057628D01*
X98291731Y-49967123D01*
X98141227Y-49904782D01*
X97981452Y-49873000D01*
X97818548Y-49873000D01*
X97658773Y-49904782D01*
X97652000Y-49907587D01*
X97652000Y-41118548D01*
X98573000Y-41118548D01*
X98573000Y-41281452D01*
X98604782Y-41441227D01*
X98667123Y-41591731D01*
X98757628Y-41727181D01*
X98872819Y-41842372D01*
X99008269Y-41932877D01*
X99158773Y-41995218D01*
X99318548Y-42027000D01*
X99481452Y-42027000D01*
X99641227Y-41995218D01*
X99791731Y-41932877D01*
X99927181Y-41842372D01*
X100017553Y-41752000D01*
X103671356Y-41752000D01*
X104774901Y-42855546D01*
X104757628Y-42872819D01*
X104667123Y-43008269D01*
X104604782Y-43158773D01*
X104573000Y-43318548D01*
X104573000Y-43481452D01*
X104604782Y-43641227D01*
X104667123Y-43791731D01*
X104757628Y-43927181D01*
X104872819Y-44042372D01*
X105008269Y-44132877D01*
X105158773Y-44195218D01*
X105318548Y-44227000D01*
X105481452Y-44227000D01*
X105641227Y-44195218D01*
X105748001Y-44150991D01*
X105748000Y-54482447D01*
X105657628Y-54572819D01*
X105567123Y-54708269D01*
X105504782Y-54858773D01*
X105473000Y-55018548D01*
X105473000Y-55181452D01*
X105504782Y-55341227D01*
X105567123Y-55491731D01*
X105657628Y-55627181D01*
X105772819Y-55742372D01*
X105908269Y-55832877D01*
X106058773Y-55895218D01*
X106218548Y-55927000D01*
X106381452Y-55927000D01*
X106541227Y-55895218D01*
X106691731Y-55832877D01*
X106827181Y-55742372D01*
X106942372Y-55627181D01*
X107032877Y-55491731D01*
X107095218Y-55341227D01*
X107127000Y-55181452D01*
X107127000Y-55018548D01*
X107107109Y-54918548D01*
X107473000Y-54918548D01*
X107473000Y-55081452D01*
X107504782Y-55241227D01*
X107567123Y-55391731D01*
X107657628Y-55527181D01*
X107748001Y-55617554D01*
X107748000Y-64882447D01*
X107657628Y-64972819D01*
X107567123Y-65108269D01*
X107504782Y-65258773D01*
X107473000Y-65418548D01*
X107473000Y-65581452D01*
X107504782Y-65741227D01*
X107567123Y-65891731D01*
X107657628Y-66027181D01*
X107772819Y-66142372D01*
X107908269Y-66232877D01*
X108058773Y-66295218D01*
X108218548Y-66327000D01*
X108381452Y-66327000D01*
X108541227Y-66295218D01*
X108691731Y-66232877D01*
X108827181Y-66142372D01*
X108942372Y-66027181D01*
X109032877Y-65891731D01*
X109095218Y-65741227D01*
X109127000Y-65581452D01*
X109127000Y-65418548D01*
X109095218Y-65258773D01*
X109032877Y-65108269D01*
X108942372Y-64972819D01*
X108852000Y-64882447D01*
X108852000Y-55617553D01*
X108942372Y-55527181D01*
X109032877Y-55391731D01*
X109095218Y-55241227D01*
X109127000Y-55081452D01*
X109127000Y-54918548D01*
X109095218Y-54758773D01*
X109032877Y-54608269D01*
X108942372Y-54472819D01*
X108827181Y-54357628D01*
X108691731Y-54267123D01*
X108541227Y-54204782D01*
X108381452Y-54173000D01*
X108218548Y-54173000D01*
X108058773Y-54204782D01*
X107908269Y-54267123D01*
X107772819Y-54357628D01*
X107657628Y-54472819D01*
X107567123Y-54608269D01*
X107504782Y-54758773D01*
X107473000Y-54918548D01*
X107107109Y-54918548D01*
X107095218Y-54858773D01*
X107032877Y-54708269D01*
X106942372Y-54572819D01*
X106852000Y-54482447D01*
X106852000Y-38117553D01*
X106942372Y-38027181D01*
X107032877Y-37891731D01*
X107095218Y-37741227D01*
X107127000Y-37581452D01*
X107127000Y-37418548D01*
X107095218Y-37258773D01*
X107032877Y-37108269D01*
X106942372Y-36972819D01*
X106827181Y-36857628D01*
X106691731Y-36767123D01*
X106541227Y-36704782D01*
X106381452Y-36673000D01*
X106218548Y-36673000D01*
X106058773Y-36704782D01*
X105908269Y-36767123D01*
X105772819Y-36857628D01*
X105657628Y-36972819D01*
X105567123Y-37108269D01*
X105504782Y-37258773D01*
X105473000Y-37418548D01*
X105473000Y-37581452D01*
X105504782Y-37741227D01*
X105567123Y-37891731D01*
X105657628Y-38027181D01*
X105748001Y-38117554D01*
X105748001Y-42267355D01*
X104309500Y-40828856D01*
X104292211Y-40807789D01*
X104208158Y-40738809D01*
X104112263Y-40687552D01*
X104008211Y-40655988D01*
X103927109Y-40648000D01*
X103927106Y-40648000D01*
X103900000Y-40645330D01*
X103872894Y-40648000D01*
X100017553Y-40648000D01*
X99927181Y-40557628D01*
X99791731Y-40467123D01*
X99641227Y-40404782D01*
X99481452Y-40373000D01*
X99318548Y-40373000D01*
X99158773Y-40404782D01*
X99008269Y-40467123D01*
X98872819Y-40557628D01*
X98757628Y-40672819D01*
X98667123Y-40808269D01*
X98604782Y-40958773D01*
X98573000Y-41118548D01*
X97652000Y-41118548D01*
X97652000Y-35517553D01*
X97742372Y-35427181D01*
X97832877Y-35291731D01*
X97895218Y-35141227D01*
X97927000Y-34981452D01*
X97927000Y-34818548D01*
X97895218Y-34658773D01*
X97832877Y-34508269D01*
X97742372Y-34372819D01*
X97627181Y-34257628D01*
X97491731Y-34167123D01*
X97341227Y-34104782D01*
X97181452Y-34073000D01*
X97018548Y-34073000D01*
X96858773Y-34104782D01*
X96708269Y-34167123D01*
X96572819Y-34257628D01*
X96457628Y-34372819D01*
X96367123Y-34508269D01*
X96304782Y-34658773D01*
X96273000Y-34818548D01*
X96273000Y-34981452D01*
X96304782Y-35141227D01*
X96367123Y-35291731D01*
X96457628Y-35427181D01*
X96548000Y-35517553D01*
X96548001Y-51745422D01*
X96545330Y-51772538D01*
X96554063Y-51861191D01*
X96555989Y-51880749D01*
X96559373Y-51891904D01*
X96577825Y-51952733D01*
X96526999Y-51962843D01*
X96526999Y-44702107D01*
X96529669Y-44674999D01*
X96519011Y-44566788D01*
X96487447Y-44462736D01*
X96436190Y-44366841D01*
X96384491Y-44303845D01*
X96384490Y-44303844D01*
X96367210Y-44282788D01*
X96346153Y-44265507D01*
X95327000Y-43246356D01*
X95327000Y-43118548D01*
X95295218Y-42958773D01*
X95232877Y-42808269D01*
X95142372Y-42672819D01*
X95027181Y-42557628D01*
X94891731Y-42467123D01*
X94741227Y-42404782D01*
X94581452Y-42373000D01*
X94418548Y-42373000D01*
X94258773Y-42404782D01*
X94108269Y-42467123D01*
X93972819Y-42557628D01*
X93857628Y-42672819D01*
X93767123Y-42808269D01*
X93704782Y-42958773D01*
X93673000Y-43118548D01*
X93673000Y-43281452D01*
X93704782Y-43441227D01*
X93767123Y-43591731D01*
X93857628Y-43727181D01*
X93972819Y-43842372D01*
X94108269Y-43932877D01*
X94258773Y-43995218D01*
X94418548Y-44027000D01*
X94546356Y-44027000D01*
X95423000Y-44903646D01*
X95423000Y-46001354D01*
X92457500Y-43035856D01*
X92457500Y-42908048D01*
X92425718Y-42748273D01*
X92363377Y-42597769D01*
X92272872Y-42462319D01*
X92157681Y-42347128D01*
X92022231Y-42256623D01*
X91871727Y-42194282D01*
X91711952Y-42162500D01*
X91549048Y-42162500D01*
X91389273Y-42194282D01*
X91238769Y-42256623D01*
X91103319Y-42347128D01*
X90988128Y-42462319D01*
X90897623Y-42597769D01*
X90835282Y-42748273D01*
X90803500Y-42908048D01*
X90803500Y-43070952D01*
X90835282Y-43230727D01*
X90897623Y-43381231D01*
X90966085Y-43483691D01*
X90919227Y-43464282D01*
X90759452Y-43432500D01*
X90596548Y-43432500D01*
X90436773Y-43464282D01*
X90286269Y-43526623D01*
X90150819Y-43617128D01*
X90035628Y-43732319D01*
X89945123Y-43867769D01*
X89882782Y-44018273D01*
X89875526Y-44054751D01*
X89842619Y-44051510D01*
X89842616Y-44051510D01*
X89815510Y-44048840D01*
X89788404Y-44051510D01*
X89017551Y-44051510D01*
X88927179Y-43961138D01*
X88791729Y-43870633D01*
X88641225Y-43808292D01*
X88481450Y-43776510D01*
X88318546Y-43776510D01*
X88158771Y-43808292D01*
X88008267Y-43870633D01*
X87872817Y-43961138D01*
X87757626Y-44076329D01*
X87667121Y-44211779D01*
X87604780Y-44362283D01*
X87572998Y-44522058D01*
X87572998Y-44684962D01*
X87591577Y-44778364D01*
X87458769Y-44804782D01*
X87308265Y-44867123D01*
X87172815Y-44957628D01*
X87057624Y-45072819D01*
X86967119Y-45208269D01*
X86904778Y-45358773D01*
X86872996Y-45518548D01*
X86872996Y-45681452D01*
X86904778Y-45841227D01*
X86967119Y-45991731D01*
X87057624Y-46127181D01*
X87172815Y-46242372D01*
X87308265Y-46332877D01*
X87458769Y-46395218D01*
X87618544Y-46427000D01*
X87781448Y-46427000D01*
X87941223Y-46395218D01*
X88091727Y-46332877D01*
X88227177Y-46242372D01*
X88317549Y-46152000D01*
X89440368Y-46152000D01*
X90284301Y-46995934D01*
X89976579Y-46995934D01*
X89709500Y-46728856D01*
X89692211Y-46707789D01*
X89608158Y-46638809D01*
X89512263Y-46587552D01*
X89408211Y-46555988D01*
X89327109Y-46548000D01*
X89327106Y-46548000D01*
X89300000Y-46545330D01*
X89272894Y-46548000D01*
X87128646Y-46548000D01*
X86152000Y-45571356D01*
X86152000Y-43628644D01*
X88503645Y-41277000D01*
X88631452Y-41277000D01*
X88791227Y-41245218D01*
X88941731Y-41182877D01*
X89077181Y-41092372D01*
X89192372Y-40977181D01*
X89282877Y-40841731D01*
X89345218Y-40691227D01*
X89377000Y-40531452D01*
X89377000Y-40368548D01*
X89345218Y-40208773D01*
X89282877Y-40058269D01*
X89192372Y-39922819D01*
X89077181Y-39807628D01*
X88941731Y-39717123D01*
X88791227Y-39654782D01*
X88631452Y-39623000D01*
X88468548Y-39623000D01*
X88308773Y-39654782D01*
X88158269Y-39717123D01*
X88022819Y-39807628D01*
X87907628Y-39922819D01*
X87817123Y-40058269D01*
X87754782Y-40208773D01*
X87723000Y-40368548D01*
X87723000Y-40496355D01*
X85228852Y-42990504D01*
X85207790Y-43007789D01*
X85155954Y-43070952D01*
X85138809Y-43091843D01*
X85087552Y-43187738D01*
X85081470Y-43207789D01*
X85059175Y-43281288D01*
X85055989Y-43291790D01*
X85045330Y-43400000D01*
X85048001Y-43427116D01*
X85048000Y-45772894D01*
X85045330Y-45800000D01*
X85048000Y-45827106D01*
X85048000Y-45827108D01*
X85055988Y-45908210D01*
X85087552Y-46012262D01*
X85138809Y-46108158D01*
X85207789Y-46192211D01*
X85228856Y-46209500D01*
X86490507Y-47471153D01*
X86507789Y-47492211D01*
X86528845Y-47509491D01*
X86528846Y-47509492D01*
X86591842Y-47561191D01*
X86687737Y-47612448D01*
X86791789Y-47644012D01*
X86900000Y-47654670D01*
X86927108Y-47652000D01*
X87227750Y-47652000D01*
X87348750Y-47773000D01*
X88223000Y-47773000D01*
X88223000Y-47753000D01*
X88477000Y-47753000D01*
X88477000Y-47773000D01*
X88497000Y-47773000D01*
X88497000Y-48027000D01*
X88477000Y-48027000D01*
X88477000Y-48851250D01*
X88635750Y-49010000D01*
X88875000Y-49013072D01*
X88999482Y-49000812D01*
X89119180Y-48964502D01*
X89229494Y-48905537D01*
X89326185Y-48826185D01*
X89405537Y-48729494D01*
X89430740Y-48682344D01*
X89442176Y-48691729D01*
X89548000Y-48748294D01*
X89548001Y-49772884D01*
X89545330Y-49800000D01*
X89555989Y-49908210D01*
X89587552Y-50012262D01*
X89587553Y-50012263D01*
X89638810Y-50108158D01*
X89707790Y-50192211D01*
X89728852Y-50209496D01*
X89756256Y-50236901D01*
X89751561Y-50245685D01*
X89719320Y-50351968D01*
X89708434Y-50462500D01*
X89708434Y-50737500D01*
X89719317Y-50848000D01*
X86228648Y-50848000D01*
X86227004Y-50846356D01*
X86227004Y-50718548D01*
X86195222Y-50558773D01*
X86132881Y-50408269D01*
X86042376Y-50272819D01*
X85927185Y-50157628D01*
X85791735Y-50067123D01*
X85641231Y-50004782D01*
X85481456Y-49973000D01*
X85318552Y-49973000D01*
X85158777Y-50004782D01*
X85008273Y-50067123D01*
X84872823Y-50157628D01*
X84757632Y-50272819D01*
X84667127Y-50408269D01*
X84604786Y-50558773D01*
X84573004Y-50718548D01*
X84573004Y-50881452D01*
X84604786Y-51041227D01*
X84667127Y-51191731D01*
X84757632Y-51327181D01*
X84872823Y-51442372D01*
X84881966Y-51448481D01*
X84807628Y-51522819D01*
X84717123Y-51658269D01*
X84654782Y-51808773D01*
X84623000Y-51968548D01*
X84623000Y-52131452D01*
X84654782Y-52291227D01*
X84717123Y-52441731D01*
X84807628Y-52577181D01*
X84922819Y-52692372D01*
X85058269Y-52782877D01*
X85208773Y-52845218D01*
X85368548Y-52877000D01*
X85531452Y-52877000D01*
X85691227Y-52845218D01*
X85841731Y-52782877D01*
X85874608Y-52760909D01*
X85854782Y-52808773D01*
X85823000Y-52968548D01*
X85823000Y-53059366D01*
X85691227Y-53004784D01*
X85531452Y-52973002D01*
X85368548Y-52973002D01*
X85208773Y-53004784D01*
X85058269Y-53067125D01*
X84922819Y-53157630D01*
X84807628Y-53272821D01*
X84717123Y-53408271D01*
X84679572Y-53498927D01*
X84552000Y-53371356D01*
X84552000Y-48375000D01*
X87186928Y-48375000D01*
X87199188Y-48499482D01*
X87235498Y-48619180D01*
X87294463Y-48729494D01*
X87373815Y-48826185D01*
X87470506Y-48905537D01*
X87580820Y-48964502D01*
X87700518Y-49000812D01*
X87825000Y-49013072D01*
X88064250Y-49010000D01*
X88223000Y-48851250D01*
X88223000Y-48027000D01*
X87348750Y-48027000D01*
X87190000Y-48185750D01*
X87186928Y-48375000D01*
X84552000Y-48375000D01*
X84552000Y-39727097D01*
X84554669Y-39699999D01*
X84552000Y-39672901D01*
X84552000Y-39672891D01*
X84544012Y-39591789D01*
X84512448Y-39487737D01*
X84461191Y-39391842D01*
X84392211Y-39307789D01*
X84371154Y-39290508D01*
X84227536Y-39146890D01*
X90808524Y-39146890D01*
X90853175Y-39294099D01*
X90978359Y-39556920D01*
X91152412Y-39790269D01*
X91368645Y-39985178D01*
X91618748Y-40134157D01*
X91893109Y-40231481D01*
X92123000Y-40110814D01*
X92123000Y-38917000D01*
X92377000Y-38917000D01*
X92377000Y-40110814D01*
X92606891Y-40231481D01*
X92881252Y-40134157D01*
X93131355Y-39985178D01*
X93347588Y-39790269D01*
X93521641Y-39556920D01*
X93646825Y-39294099D01*
X93691476Y-39146890D01*
X93570155Y-38917000D01*
X92377000Y-38917000D01*
X92123000Y-38917000D01*
X90929845Y-38917000D01*
X90808524Y-39146890D01*
X84227536Y-39146890D01*
X83509500Y-38428856D01*
X83492211Y-38407789D01*
X83408158Y-38338809D01*
X83312263Y-38287552D01*
X83208211Y-38255988D01*
X83127109Y-38248000D01*
X83127106Y-38248000D01*
X83100000Y-38245330D01*
X83072894Y-38248000D01*
X81812735Y-38248000D01*
X81816924Y-38242896D01*
X81935502Y-38021051D01*
X81966595Y-37918548D01*
X86473000Y-37918548D01*
X86473000Y-38081452D01*
X86504782Y-38241227D01*
X86567123Y-38391731D01*
X86657628Y-38527181D01*
X86772819Y-38642372D01*
X86908269Y-38732877D01*
X87058773Y-38795218D01*
X87218548Y-38827000D01*
X87381452Y-38827000D01*
X87541227Y-38795218D01*
X87691731Y-38732877D01*
X87827181Y-38642372D01*
X87942372Y-38527181D01*
X88032877Y-38391731D01*
X88095218Y-38241227D01*
X88127000Y-38081452D01*
X88127000Y-38052000D01*
X90964584Y-38052000D01*
X90853175Y-38285901D01*
X90808524Y-38433110D01*
X90929845Y-38663000D01*
X92123000Y-38663000D01*
X92123000Y-38643000D01*
X92377000Y-38643000D01*
X92377000Y-38663000D01*
X93570155Y-38663000D01*
X93691476Y-38433110D01*
X93646825Y-38285901D01*
X93535416Y-38052000D01*
X94282447Y-38052000D01*
X94372819Y-38142372D01*
X94508269Y-38232877D01*
X94658773Y-38295218D01*
X94818548Y-38327000D01*
X94981452Y-38327000D01*
X95141227Y-38295218D01*
X95291731Y-38232877D01*
X95427181Y-38142372D01*
X95542372Y-38027181D01*
X95632877Y-37891731D01*
X95695218Y-37741227D01*
X95727000Y-37581452D01*
X95727000Y-37418548D01*
X95695218Y-37258773D01*
X95632877Y-37108269D01*
X95542372Y-36972819D01*
X95427181Y-36857628D01*
X95291731Y-36767123D01*
X95141227Y-36704782D01*
X94981452Y-36673000D01*
X94818548Y-36673000D01*
X94658773Y-36704782D01*
X94508269Y-36767123D01*
X94372819Y-36857628D01*
X94282447Y-36948000D01*
X93529066Y-36948000D01*
X93529066Y-35400000D01*
X93520822Y-35316293D01*
X93496405Y-35235804D01*
X93456755Y-35161624D01*
X93403395Y-35096605D01*
X93338376Y-35043245D01*
X93264196Y-35003595D01*
X93183707Y-34979178D01*
X93100000Y-34970934D01*
X91400000Y-34970934D01*
X91316293Y-34979178D01*
X91235804Y-35003595D01*
X91161624Y-35043245D01*
X91096605Y-35096605D01*
X91043245Y-35161624D01*
X91003595Y-35235804D01*
X90979178Y-35316293D01*
X90970934Y-35400000D01*
X90970934Y-36948000D01*
X87827108Y-36948000D01*
X87800000Y-36945330D01*
X87772892Y-36948000D01*
X87772891Y-36948000D01*
X87691789Y-36955988D01*
X87587737Y-36987552D01*
X87491842Y-37038809D01*
X87407789Y-37107789D01*
X87390503Y-37128853D01*
X87346356Y-37173000D01*
X87218548Y-37173000D01*
X87058773Y-37204782D01*
X86908269Y-37267123D01*
X86772819Y-37357628D01*
X86657628Y-37472819D01*
X86567123Y-37608269D01*
X86504782Y-37758773D01*
X86473000Y-37918548D01*
X81966595Y-37918548D01*
X82008522Y-37780336D01*
X82033178Y-37530000D01*
X82008522Y-37279664D01*
X81935502Y-37038949D01*
X81816924Y-36817104D01*
X81657344Y-36622656D01*
X81462896Y-36463076D01*
X81241051Y-36344498D01*
X81000336Y-36271478D01*
X80883798Y-36260000D01*
X81000336Y-36248522D01*
X81241051Y-36175502D01*
X81462896Y-36056924D01*
X81657344Y-35897344D01*
X81816924Y-35702896D01*
X81935502Y-35481051D01*
X82008522Y-35240336D01*
X82027072Y-35052000D01*
X86309244Y-35052000D01*
X86367123Y-35191733D01*
X86457628Y-35327183D01*
X86572819Y-35442374D01*
X86708269Y-35532879D01*
X86858773Y-35595220D01*
X87018548Y-35627002D01*
X87181452Y-35627002D01*
X87341227Y-35595220D01*
X87491731Y-35532879D01*
X87627181Y-35442374D01*
X87742372Y-35327183D01*
X87832877Y-35191733D01*
X87895218Y-35041229D01*
X87927000Y-34881454D01*
X87927000Y-34718550D01*
X87895218Y-34558775D01*
X87832877Y-34408271D01*
X87742372Y-34272821D01*
X87627181Y-34157630D01*
X87491731Y-34067125D01*
X87341227Y-34004784D01*
X87181452Y-33973002D01*
X87018548Y-33973002D01*
X86985782Y-33979520D01*
X86908209Y-33955988D01*
X86827107Y-33948000D01*
X86827104Y-33948000D01*
X86799998Y-33945330D01*
X86772892Y-33948000D01*
X81493266Y-33948000D01*
X81462896Y-33923076D01*
X81241051Y-33804498D01*
X81000336Y-33731478D01*
X80812726Y-33713000D01*
X80687274Y-33713000D01*
X80499664Y-33731478D01*
X80258949Y-33804498D01*
X80037104Y-33923076D01*
X79842656Y-34082656D01*
X79683076Y-34277104D01*
X79564498Y-34498949D01*
X79491478Y-34739664D01*
X79480000Y-34856202D01*
X79468522Y-34739664D01*
X79395502Y-34498949D01*
X79276924Y-34277104D01*
X79117344Y-34082656D01*
X78922896Y-33923076D01*
X78701051Y-33804498D01*
X78460336Y-33731478D01*
X78272726Y-33713000D01*
X78147274Y-33713000D01*
X77959664Y-33731478D01*
X77718949Y-33804498D01*
X77497104Y-33923076D01*
X77302656Y-34082656D01*
X77143076Y-34277104D01*
X77024498Y-34498949D01*
X76951478Y-34739664D01*
X76926822Y-34990000D01*
X76951478Y-35240336D01*
X77024498Y-35481051D01*
X77143076Y-35702896D01*
X77302656Y-35897344D01*
X77497104Y-36056924D01*
X77718949Y-36175502D01*
X77959664Y-36248522D01*
X78076202Y-36260000D01*
X77959664Y-36271478D01*
X77718949Y-36344498D01*
X77497104Y-36463076D01*
X77302656Y-36622656D01*
X77143076Y-36817104D01*
X77024498Y-37038949D01*
X76951478Y-37279664D01*
X76926822Y-37530000D01*
X76951478Y-37780336D01*
X77024498Y-38021051D01*
X77143076Y-38242896D01*
X77302656Y-38437344D01*
X77497104Y-38596924D01*
X77718949Y-38715502D01*
X77959664Y-38788522D01*
X78076202Y-38800000D01*
X77959664Y-38811478D01*
X77718949Y-38884498D01*
X77497104Y-39003076D01*
X77302656Y-39162656D01*
X77143076Y-39357104D01*
X77024498Y-39578949D01*
X76951478Y-39819664D01*
X76926822Y-40070000D01*
X76951478Y-40320336D01*
X77004437Y-40494918D01*
X74928856Y-42570499D01*
X74907789Y-42587789D01*
X74838809Y-42671842D01*
X74787552Y-42767738D01*
X74755988Y-42871790D01*
X74749387Y-42938809D01*
X74745330Y-42980000D01*
X69202000Y-42980000D01*
X69202000Y-33702000D01*
X106977891Y-33702000D01*
X107494492Y-33752654D01*
X107494492Y-33752654D01*
G37*
X107494492Y-33752654D02*
X107970137Y-33896259D01*
X108408843Y-34129522D01*
X108793880Y-34443551D01*
X109110592Y-34826390D01*
X109346907Y-35263447D01*
X109493835Y-35738091D01*
X109548000Y-36253439D01*
X109548001Y-81977881D01*
X109497347Y-82494487D01*
X109353740Y-82970141D01*
X109120478Y-83408842D01*
X108806449Y-83793880D01*
X108423610Y-84110592D01*
X107986552Y-84346908D01*
X107511909Y-84493835D01*
X106996560Y-84548000D01*
X69202000Y-84548000D01*
X69202000Y-70618548D01*
X74673000Y-70618548D01*
X74673000Y-70781452D01*
X74704782Y-70941227D01*
X74767123Y-71091731D01*
X74857628Y-71227181D01*
X74948001Y-71317554D01*
X74948000Y-81772894D01*
X74945330Y-81800000D01*
X74948000Y-81827106D01*
X74948000Y-81827108D01*
X74955988Y-81908210D01*
X74987552Y-82012262D01*
X75038809Y-82108158D01*
X75107789Y-82192211D01*
X75128856Y-82209500D01*
X76390507Y-83471153D01*
X76407789Y-83492211D01*
X76428845Y-83509491D01*
X76428846Y-83509492D01*
X76491842Y-83561191D01*
X76587737Y-83612448D01*
X76590587Y-83613312D01*
X76598422Y-83621148D01*
X76615708Y-83642211D01*
X76699761Y-83711191D01*
X76795656Y-83762448D01*
X76899708Y-83794012D01*
X76980810Y-83802000D01*
X76980812Y-83802000D01*
X77007918Y-83804670D01*
X77035024Y-83802000D01*
X77057076Y-83802000D01*
X77143076Y-83962896D01*
X77302656Y-84157344D01*
X77497104Y-84316924D01*
X77718949Y-84435502D01*
X77959664Y-84508522D01*
X78147274Y-84527000D01*
X78272726Y-84527000D01*
X78460336Y-84508522D01*
X78701051Y-84435502D01*
X78922896Y-84316924D01*
X79117344Y-84157344D01*
X79276924Y-83962896D01*
X79395502Y-83741051D01*
X79468522Y-83500336D01*
X79470934Y-83475847D01*
X79470934Y-84100000D01*
X79479178Y-84183707D01*
X79503595Y-84264196D01*
X79543245Y-84338376D01*
X79596605Y-84403395D01*
X79661624Y-84456755D01*
X79735804Y-84496405D01*
X79816293Y-84520822D01*
X79900000Y-84529066D01*
X81600000Y-84529066D01*
X81683707Y-84520822D01*
X81764196Y-84496405D01*
X81838376Y-84456755D01*
X81903395Y-84403395D01*
X81956755Y-84338376D01*
X81996405Y-84264196D01*
X82020822Y-84183707D01*
X82029066Y-84100000D01*
X82029066Y-83218548D01*
X91173000Y-83218548D01*
X91173000Y-83381452D01*
X91204782Y-83541227D01*
X91267123Y-83691731D01*
X91357628Y-83827181D01*
X91472819Y-83942372D01*
X91608269Y-84032877D01*
X91758773Y-84095218D01*
X91918548Y-84127000D01*
X92081452Y-84127000D01*
X92241227Y-84095218D01*
X92391731Y-84032877D01*
X92527181Y-83942372D01*
X92617553Y-83852000D01*
X100182447Y-83852000D01*
X100272819Y-83942372D01*
X100408269Y-84032877D01*
X100558773Y-84095218D01*
X100718548Y-84127000D01*
X100881452Y-84127000D01*
X101041227Y-84095218D01*
X101191731Y-84032877D01*
X101327181Y-83942372D01*
X101442372Y-83827181D01*
X101532877Y-83691731D01*
X101595218Y-83541227D01*
X101627000Y-83381452D01*
X101627000Y-83218548D01*
X101595218Y-83058773D01*
X101532877Y-82908269D01*
X101442372Y-82772819D01*
X101327181Y-82657628D01*
X101191731Y-82567123D01*
X101041227Y-82504782D01*
X100881452Y-82473000D01*
X100718548Y-82473000D01*
X100558773Y-82504782D01*
X100408269Y-82567123D01*
X100272819Y-82657628D01*
X100182447Y-82748000D01*
X92617553Y-82748000D01*
X92527181Y-82657628D01*
X92391731Y-82567123D01*
X92241227Y-82504782D01*
X92081452Y-82473000D01*
X91918548Y-82473000D01*
X91758773Y-82504782D01*
X91608269Y-82567123D01*
X91472819Y-82657628D01*
X91357628Y-82772819D01*
X91267123Y-82908269D01*
X91204782Y-83058773D01*
X91173000Y-83218548D01*
X82029066Y-83218548D01*
X82029066Y-82400000D01*
X82020822Y-82316293D01*
X81996405Y-82235804D01*
X81956755Y-82161624D01*
X81903395Y-82096605D01*
X81838376Y-82043245D01*
X81764196Y-82003595D01*
X81683707Y-81979178D01*
X81600000Y-81970934D01*
X81520965Y-81970934D01*
X81631355Y-81905178D01*
X81847588Y-81710269D01*
X82021641Y-81476920D01*
X82146825Y-81214099D01*
X82191476Y-81066890D01*
X82070155Y-80837000D01*
X80877000Y-80837000D01*
X80877000Y-80857000D01*
X80623000Y-80857000D01*
X80623000Y-80837000D01*
X78337000Y-80837000D01*
X78337000Y-80857000D01*
X78083000Y-80857000D01*
X78083000Y-80837000D01*
X76889845Y-80837000D01*
X76768524Y-81066890D01*
X76813175Y-81214099D01*
X76938359Y-81476920D01*
X77112412Y-81710269D01*
X77328645Y-81905178D01*
X77578748Y-82054157D01*
X77674650Y-82088176D01*
X77497104Y-82183076D01*
X77302656Y-82342656D01*
X77143076Y-82537104D01*
X77105905Y-82606646D01*
X77070182Y-82587552D01*
X77067334Y-82586688D01*
X76052000Y-81571356D01*
X76052000Y-71317553D01*
X76142372Y-71227181D01*
X76232877Y-71091731D01*
X76295218Y-70941227D01*
X76327000Y-70781452D01*
X76327000Y-70618548D01*
X76295218Y-70458773D01*
X76232877Y-70308269D01*
X76142372Y-70172819D01*
X76027181Y-70057628D01*
X75891731Y-69967123D01*
X75741227Y-69904782D01*
X75581452Y-69873000D01*
X75418548Y-69873000D01*
X75258773Y-69904782D01*
X75108269Y-69967123D01*
X74972819Y-70057628D01*
X74857628Y-70172819D01*
X74767123Y-70308269D01*
X74704782Y-70458773D01*
X74673000Y-70618548D01*
X69202000Y-70618548D01*
X69202000Y-64418548D01*
X74673000Y-64418548D01*
X74673000Y-64581452D01*
X74704782Y-64741227D01*
X74767123Y-64891731D01*
X74857628Y-65027181D01*
X74972819Y-65142372D01*
X75108269Y-65232877D01*
X75258773Y-65295218D01*
X75418548Y-65327000D01*
X75581452Y-65327000D01*
X75741227Y-65295218D01*
X75891731Y-65232877D01*
X76027181Y-65142372D01*
X76142372Y-65027181D01*
X76232877Y-64891731D01*
X76295218Y-64741227D01*
X76327000Y-64581452D01*
X76327000Y-64418548D01*
X76295218Y-64258773D01*
X76232877Y-64108269D01*
X76182334Y-64032626D01*
X76970830Y-63244130D01*
X77024498Y-63421051D01*
X77143076Y-63642896D01*
X77302656Y-63837344D01*
X77497104Y-63996924D01*
X77718949Y-64115502D01*
X77959664Y-64188522D01*
X78076202Y-64200000D01*
X77959664Y-64211478D01*
X77718949Y-64284498D01*
X77497104Y-64403076D01*
X77302656Y-64562656D01*
X77143076Y-64757104D01*
X77024498Y-64978949D01*
X76951478Y-65219664D01*
X76926822Y-65470000D01*
X76951478Y-65720336D01*
X77024498Y-65961051D01*
X77143076Y-66182896D01*
X77302656Y-66377344D01*
X77497104Y-66536924D01*
X77718949Y-66655502D01*
X77959664Y-66728522D01*
X78076202Y-66740000D01*
X77959664Y-66751478D01*
X77718949Y-66824498D01*
X77497104Y-66943076D01*
X77302656Y-67102656D01*
X77143076Y-67297104D01*
X77024498Y-67518949D01*
X76951478Y-67759664D01*
X76926822Y-68010000D01*
X76951478Y-68260336D01*
X77024498Y-68501051D01*
X77143076Y-68722896D01*
X77302656Y-68917344D01*
X77497104Y-69076924D01*
X77718949Y-69195502D01*
X77959664Y-69268522D01*
X78076202Y-69280000D01*
X77959664Y-69291478D01*
X77718949Y-69364498D01*
X77497104Y-69483076D01*
X77302656Y-69642656D01*
X77143076Y-69837104D01*
X77024498Y-70058949D01*
X76951478Y-70299664D01*
X76926822Y-70550000D01*
X76951478Y-70800336D01*
X77024498Y-71041051D01*
X77143076Y-71262896D01*
X77302656Y-71457344D01*
X77497104Y-71616924D01*
X77718949Y-71735502D01*
X77959664Y-71808522D01*
X78076202Y-71820000D01*
X77959664Y-71831478D01*
X77718949Y-71904498D01*
X77497104Y-72023076D01*
X77302656Y-72182656D01*
X77143076Y-72377104D01*
X77024498Y-72598949D01*
X76951478Y-72839664D01*
X76926822Y-73090000D01*
X76951478Y-73340336D01*
X77024498Y-73581051D01*
X77143076Y-73802896D01*
X77302656Y-73997344D01*
X77497104Y-74156924D01*
X77718949Y-74275502D01*
X77959664Y-74348522D01*
X78076202Y-74360000D01*
X77959664Y-74371478D01*
X77718949Y-74444498D01*
X77497104Y-74563076D01*
X77302656Y-74722656D01*
X77143076Y-74917104D01*
X77024498Y-75138949D01*
X76951478Y-75379664D01*
X76926822Y-75630000D01*
X76951478Y-75880336D01*
X77024498Y-76121051D01*
X77143076Y-76342896D01*
X77302656Y-76537344D01*
X77497104Y-76696924D01*
X77718949Y-76815502D01*
X77959664Y-76888522D01*
X78076202Y-76900000D01*
X77959664Y-76911478D01*
X77718949Y-76984498D01*
X77497104Y-77103076D01*
X77302656Y-77262656D01*
X77143076Y-77457104D01*
X77024498Y-77678949D01*
X76951478Y-77919664D01*
X76926822Y-78170000D01*
X76951478Y-78420336D01*
X77024498Y-78661051D01*
X77143076Y-78882896D01*
X77302656Y-79077344D01*
X77497104Y-79236924D01*
X77674650Y-79331824D01*
X77578748Y-79365843D01*
X77328645Y-79514822D01*
X77112412Y-79709731D01*
X76938359Y-79943080D01*
X76813175Y-80205901D01*
X76768524Y-80353110D01*
X76889845Y-80583000D01*
X78083000Y-80583000D01*
X78083000Y-80563000D01*
X78337000Y-80563000D01*
X78337000Y-80583000D01*
X80623000Y-80583000D01*
X80623000Y-80563000D01*
X80877000Y-80563000D01*
X80877000Y-80583000D01*
X82070155Y-80583000D01*
X82191476Y-80353110D01*
X82146825Y-80205901D01*
X82021641Y-79943080D01*
X81847588Y-79709731D01*
X81631355Y-79514822D01*
X81381252Y-79365843D01*
X81285350Y-79331824D01*
X81462896Y-79236924D01*
X81657344Y-79077344D01*
X81816924Y-78882896D01*
X81935502Y-78661051D01*
X82008522Y-78420336D01*
X82033178Y-78170000D01*
X82008522Y-77919664D01*
X81955563Y-77745081D01*
X85171149Y-74529496D01*
X85192211Y-74512211D01*
X85261191Y-74428158D01*
X85312448Y-74332263D01*
X85344012Y-74228211D01*
X85352000Y-74147109D01*
X85352000Y-74147106D01*
X85354670Y-74120000D01*
X85352000Y-74092894D01*
X85352000Y-72066144D01*
X89731142Y-67687004D01*
X89751561Y-67754315D01*
X89803918Y-67852267D01*
X89874377Y-67938123D01*
X89960233Y-68008582D01*
X90058185Y-68060939D01*
X90164468Y-68093180D01*
X90275000Y-68104066D01*
X90823422Y-68104066D01*
X92026264Y-69306910D01*
X92004782Y-69358773D01*
X91973000Y-69518548D01*
X91973000Y-69646355D01*
X91628856Y-69990500D01*
X91607789Y-70007789D01*
X91538809Y-70091842D01*
X91487552Y-70187738D01*
X91455988Y-70291790D01*
X91451119Y-70341227D01*
X91445330Y-70400000D01*
X91448000Y-70427106D01*
X91448001Y-78382444D01*
X91357628Y-78472817D01*
X91267123Y-78608267D01*
X91204782Y-78758771D01*
X91173000Y-78918546D01*
X91173000Y-79081450D01*
X91204782Y-79241225D01*
X91267123Y-79391729D01*
X91357628Y-79527179D01*
X91472819Y-79642370D01*
X91608269Y-79732875D01*
X91758773Y-79795216D01*
X91918548Y-79826998D01*
X92081452Y-79826998D01*
X92241227Y-79795216D01*
X92391731Y-79732875D01*
X92527181Y-79642370D01*
X92642372Y-79527179D01*
X92732877Y-79391729D01*
X92795218Y-79241225D01*
X92827000Y-79081450D01*
X92827000Y-78918546D01*
X92795218Y-78758771D01*
X92732877Y-78608267D01*
X92642372Y-78472817D01*
X92552000Y-78382445D01*
X92552000Y-73587684D01*
X96592136Y-73587684D01*
X96592136Y-73750588D01*
X96623918Y-73910363D01*
X96686259Y-74060867D01*
X96776764Y-74196317D01*
X96891955Y-74311508D01*
X97027405Y-74402013D01*
X97177909Y-74464354D01*
X97337684Y-74496136D01*
X97465492Y-74496136D01*
X98240508Y-75271154D01*
X98257789Y-75292211D01*
X98278845Y-75309491D01*
X98278846Y-75309492D01*
X98341842Y-75361191D01*
X98437737Y-75412448D01*
X98541789Y-75444012D01*
X98650000Y-75454670D01*
X98677108Y-75452000D01*
X104182439Y-75452000D01*
X104272811Y-75542372D01*
X104408261Y-75632877D01*
X104558765Y-75695218D01*
X104718540Y-75727000D01*
X104881444Y-75727000D01*
X105041219Y-75695218D01*
X105191723Y-75632877D01*
X105327173Y-75542372D01*
X105442364Y-75427181D01*
X105532869Y-75291731D01*
X105595210Y-75141227D01*
X105626992Y-74981452D01*
X105626992Y-74818548D01*
X105595210Y-74658773D01*
X105542055Y-74530447D01*
X106127169Y-74530447D01*
X106217541Y-74620819D01*
X106352991Y-74711324D01*
X106503495Y-74773665D01*
X106663270Y-74805447D01*
X106826174Y-74805447D01*
X106985949Y-74773665D01*
X107136453Y-74711324D01*
X107271903Y-74620819D01*
X107387094Y-74505628D01*
X107477599Y-74370178D01*
X107539940Y-74219674D01*
X107571722Y-74059899D01*
X107571722Y-73896995D01*
X107539940Y-73737220D01*
X107477599Y-73586716D01*
X107387094Y-73451266D01*
X107271903Y-73336075D01*
X107136453Y-73245570D01*
X106985949Y-73183229D01*
X106826174Y-73151447D01*
X106663270Y-73151447D01*
X106503495Y-73183229D01*
X106352991Y-73245570D01*
X106217541Y-73336075D01*
X106127169Y-73426447D01*
X100322664Y-73426447D01*
X98914685Y-72018470D01*
X98914685Y-71890662D01*
X98882903Y-71730887D01*
X98820562Y-71580383D01*
X98730057Y-71444933D01*
X98614866Y-71329742D01*
X98479416Y-71239237D01*
X98328912Y-71176896D01*
X98169137Y-71145114D01*
X98006233Y-71145114D01*
X97846458Y-71176896D01*
X97695954Y-71239237D01*
X97560504Y-71329742D01*
X97445313Y-71444933D01*
X97354808Y-71580383D01*
X97292467Y-71730887D01*
X97260685Y-71890662D01*
X97260685Y-72053566D01*
X97292467Y-72213341D01*
X97354808Y-72363845D01*
X97445313Y-72499295D01*
X97560504Y-72614486D01*
X97695954Y-72704991D01*
X97846458Y-72767332D01*
X98006233Y-72799114D01*
X98134041Y-72799114D01*
X99682925Y-74348000D01*
X98878646Y-74348000D01*
X98246136Y-73715492D01*
X98246136Y-73587684D01*
X98214354Y-73427909D01*
X98152013Y-73277405D01*
X98061508Y-73141955D01*
X97946317Y-73026764D01*
X97810867Y-72936259D01*
X97660363Y-72873918D01*
X97500588Y-72842136D01*
X97337684Y-72842136D01*
X97177909Y-72873918D01*
X97027405Y-72936259D01*
X96891955Y-73026764D01*
X96776764Y-73141955D01*
X96686259Y-73277405D01*
X96623918Y-73427909D01*
X96592136Y-73587684D01*
X92552000Y-73587684D01*
X92552000Y-70628644D01*
X92753645Y-70427000D01*
X92881452Y-70427000D01*
X93041227Y-70395218D01*
X93191731Y-70332877D01*
X93327181Y-70242372D01*
X93442372Y-70127181D01*
X93514958Y-70018548D01*
X103073000Y-70018548D01*
X103073000Y-70181452D01*
X103104782Y-70341227D01*
X103167123Y-70491731D01*
X103257628Y-70627181D01*
X103372819Y-70742372D01*
X103508269Y-70832877D01*
X103658773Y-70895218D01*
X103818548Y-70927000D01*
X103981452Y-70927000D01*
X104141227Y-70895218D01*
X104291731Y-70832877D01*
X104427181Y-70742372D01*
X104517553Y-70652000D01*
X106771356Y-70652000D01*
X107473000Y-71353645D01*
X107473000Y-71381452D01*
X107504782Y-71541227D01*
X107567123Y-71691731D01*
X107657628Y-71827181D01*
X107748000Y-71917553D01*
X107748001Y-82071356D01*
X107346358Y-82473000D01*
X107218550Y-82473000D01*
X107058775Y-82504782D01*
X106908271Y-82567123D01*
X106772821Y-82657628D01*
X106657630Y-82772819D01*
X106567125Y-82908269D01*
X106504784Y-83058773D01*
X106473002Y-83218548D01*
X106473002Y-83381452D01*
X106504784Y-83541227D01*
X106567125Y-83691731D01*
X106657630Y-83827181D01*
X106772821Y-83942372D01*
X106908271Y-84032877D01*
X107058775Y-84095218D01*
X107218550Y-84127000D01*
X107381454Y-84127000D01*
X107541229Y-84095218D01*
X107691733Y-84032877D01*
X107827183Y-83942372D01*
X107942374Y-83827181D01*
X108032879Y-83691731D01*
X108095220Y-83541227D01*
X108127002Y-83381452D01*
X108127002Y-83253644D01*
X108671154Y-82709494D01*
X108692211Y-82692213D01*
X108761191Y-82608160D01*
X108812448Y-82512265D01*
X108844012Y-82408213D01*
X108852000Y-82327111D01*
X108854670Y-82300002D01*
X108852000Y-82272894D01*
X108852000Y-71917553D01*
X108942372Y-71827181D01*
X109032877Y-71691731D01*
X109095218Y-71541227D01*
X109127000Y-71381452D01*
X109127000Y-71218548D01*
X109095218Y-71058773D01*
X109032877Y-70908269D01*
X108942372Y-70772819D01*
X108827181Y-70657628D01*
X108691731Y-70567123D01*
X108541227Y-70504782D01*
X108381452Y-70473000D01*
X108218548Y-70473000D01*
X108164414Y-70483768D01*
X107409500Y-69728856D01*
X107392211Y-69707789D01*
X107308158Y-69638809D01*
X107212263Y-69587552D01*
X107108211Y-69555988D01*
X107027109Y-69548000D01*
X107027106Y-69548000D01*
X107000000Y-69545330D01*
X106972894Y-69548000D01*
X104517553Y-69548000D01*
X104427181Y-69457628D01*
X104291731Y-69367123D01*
X104141227Y-69304782D01*
X103981452Y-69273000D01*
X103818548Y-69273000D01*
X103658773Y-69304782D01*
X103508269Y-69367123D01*
X103372819Y-69457628D01*
X103257628Y-69572819D01*
X103167123Y-69708269D01*
X103104782Y-69858773D01*
X103073000Y-70018548D01*
X93514958Y-70018548D01*
X93532877Y-69991731D01*
X93595218Y-69841227D01*
X93627000Y-69681452D01*
X93627000Y-69518548D01*
X93595218Y-69358773D01*
X93532877Y-69208269D01*
X93442372Y-69072819D01*
X93327181Y-68957628D01*
X93191731Y-68867123D01*
X93116683Y-68836037D01*
X92417231Y-68136586D01*
X92558781Y-68195218D01*
X92718556Y-68227000D01*
X92881460Y-68227000D01*
X93041235Y-68195218D01*
X93191739Y-68132877D01*
X93327189Y-68042372D01*
X93442380Y-67927181D01*
X93532885Y-67791731D01*
X93576783Y-67685750D01*
X100677500Y-67685750D01*
X100687316Y-67802595D01*
X100724221Y-67922110D01*
X100783733Y-68032130D01*
X100863566Y-68128425D01*
X100960651Y-68207295D01*
X101071257Y-68265710D01*
X101191134Y-68301423D01*
X101315676Y-68313064D01*
X101789250Y-68310000D01*
X101948000Y-68151250D01*
X101948000Y-67527000D01*
X102202000Y-67527000D01*
X102202000Y-68151250D01*
X102360750Y-68310000D01*
X102834324Y-68313064D01*
X102958866Y-68301423D01*
X103078743Y-68265710D01*
X103189349Y-68207295D01*
X103286434Y-68128425D01*
X103366267Y-68032130D01*
X103425779Y-67922110D01*
X103462684Y-67802595D01*
X103472500Y-67685750D01*
X103313750Y-67527000D01*
X102202000Y-67527000D01*
X101948000Y-67527000D01*
X100836250Y-67527000D01*
X100677500Y-67685750D01*
X93576783Y-67685750D01*
X93595226Y-67641227D01*
X93627008Y-67481452D01*
X93627008Y-67353644D01*
X93828653Y-67152000D01*
X100715250Y-67152000D01*
X100836250Y-67273000D01*
X101272944Y-67273000D01*
X101339468Y-67293180D01*
X101450000Y-67304066D01*
X102700000Y-67304066D01*
X102810532Y-67293180D01*
X102877056Y-67273000D01*
X103313750Y-67273000D01*
X103472500Y-67114250D01*
X103462684Y-66997405D01*
X103425779Y-66877890D01*
X103366267Y-66767870D01*
X103286434Y-66671575D01*
X103266566Y-66655435D01*
X103266566Y-66462500D01*
X103255680Y-66351968D01*
X103223439Y-66245685D01*
X103199020Y-66200000D01*
X103223439Y-66154315D01*
X103255680Y-66048032D01*
X103266566Y-65937500D01*
X103266566Y-65662500D01*
X103255680Y-65551968D01*
X103223439Y-65445685D01*
X103199020Y-65400000D01*
X103223439Y-65354315D01*
X103255680Y-65248032D01*
X103266566Y-65137500D01*
X103266566Y-64862500D01*
X103255680Y-64751968D01*
X103223439Y-64645685D01*
X103199020Y-64600000D01*
X103223439Y-64554315D01*
X103255680Y-64448032D01*
X103266566Y-64337500D01*
X103266566Y-64144565D01*
X103286434Y-64128425D01*
X103366267Y-64032130D01*
X103425779Y-63922110D01*
X103462684Y-63802595D01*
X103472500Y-63685750D01*
X103313750Y-63527000D01*
X102877056Y-63527000D01*
X102810532Y-63506820D01*
X102700000Y-63495934D01*
X101450000Y-63495934D01*
X101339468Y-63506820D01*
X101272944Y-63527000D01*
X100836250Y-63527000D01*
X100715250Y-63648000D01*
X94118758Y-63648000D01*
X94127181Y-63642372D01*
X94242372Y-63527181D01*
X94332877Y-63391731D01*
X94395218Y-63241227D01*
X94412967Y-63152000D01*
X100715250Y-63152000D01*
X100836250Y-63273000D01*
X101272944Y-63273000D01*
X101339468Y-63293180D01*
X101450000Y-63304066D01*
X102700000Y-63304066D01*
X102810532Y-63293180D01*
X102877056Y-63273000D01*
X103313750Y-63273000D01*
X103472500Y-63114250D01*
X103462684Y-62997405D01*
X103425779Y-62877890D01*
X103366267Y-62767870D01*
X103286434Y-62671575D01*
X103266566Y-62655435D01*
X103266566Y-62462500D01*
X103255680Y-62351968D01*
X103223439Y-62245685D01*
X103199020Y-62200000D01*
X103223439Y-62154315D01*
X103235355Y-62115035D01*
X103267123Y-62191731D01*
X103357628Y-62327181D01*
X103472819Y-62442372D01*
X103608269Y-62532877D01*
X103648000Y-62549334D01*
X103648001Y-65272884D01*
X103645330Y-65300000D01*
X103651462Y-65362252D01*
X103655989Y-65408211D01*
X103659125Y-65418548D01*
X103687552Y-65512262D01*
X103738809Y-65608157D01*
X103738853Y-65608211D01*
X103772999Y-65649818D01*
X103772999Y-65781451D01*
X103804781Y-65941226D01*
X103867122Y-66091730D01*
X103957627Y-66227180D01*
X104072818Y-66342371D01*
X104208268Y-66432876D01*
X104358772Y-66495217D01*
X104518547Y-66526999D01*
X104681451Y-66526999D01*
X104841226Y-66495217D01*
X104991730Y-66432876D01*
X105127180Y-66342371D01*
X105242371Y-66227180D01*
X105332876Y-66091730D01*
X105395217Y-65941226D01*
X105426999Y-65781451D01*
X105426999Y-65618547D01*
X105395217Y-65458772D01*
X105332876Y-65308268D01*
X105242371Y-65172818D01*
X105127180Y-65057627D01*
X104991730Y-64967122D01*
X104841226Y-64904781D01*
X104752000Y-64887032D01*
X104752000Y-62145564D01*
X104795218Y-62041227D01*
X104827000Y-61881452D01*
X104827000Y-61718548D01*
X104795218Y-61558773D01*
X104732877Y-61408269D01*
X104642372Y-61272819D01*
X104527181Y-61157628D01*
X104391731Y-61067123D01*
X104241227Y-61004782D01*
X104081452Y-60973000D01*
X103918548Y-60973000D01*
X103758773Y-61004782D01*
X103608269Y-61067123D01*
X103472819Y-61157628D01*
X103357628Y-61272819D01*
X103267123Y-61408269D01*
X103235355Y-61484965D01*
X103223439Y-61445685D01*
X103199020Y-61400000D01*
X103223439Y-61354315D01*
X103255680Y-61248032D01*
X103266566Y-61137500D01*
X103266566Y-60862500D01*
X103255680Y-60751968D01*
X103223439Y-60645685D01*
X103199020Y-60600000D01*
X103223439Y-60554315D01*
X103255680Y-60448032D01*
X103266566Y-60337500D01*
X103266566Y-60062500D01*
X103255680Y-59951968D01*
X103223439Y-59845685D01*
X103171082Y-59747733D01*
X103100623Y-59661877D01*
X103014767Y-59591418D01*
X102916815Y-59539061D01*
X102810532Y-59506820D01*
X102700000Y-59495934D01*
X101450000Y-59495934D01*
X101339468Y-59506820D01*
X101233185Y-59539061D01*
X101135233Y-59591418D01*
X101066286Y-59648000D01*
X97749336Y-59648000D01*
X97732880Y-59608272D01*
X97642375Y-59472822D01*
X97527184Y-59357631D01*
X97391734Y-59267126D01*
X97241230Y-59204785D01*
X97081455Y-59173003D01*
X96918551Y-59173003D01*
X96758776Y-59204785D01*
X96608272Y-59267126D01*
X96472822Y-59357631D01*
X96357631Y-59472822D01*
X96267126Y-59608272D01*
X96204785Y-59758776D01*
X96173003Y-59918551D01*
X96173003Y-60081455D01*
X96204785Y-60241230D01*
X96267126Y-60391734D01*
X96304722Y-60448000D01*
X96217553Y-60448000D01*
X96127184Y-60357631D01*
X95991734Y-60267126D01*
X95841230Y-60204785D01*
X95681455Y-60173003D01*
X95518551Y-60173003D01*
X95358776Y-60204785D01*
X95208272Y-60267126D01*
X95072822Y-60357631D01*
X94957631Y-60472822D01*
X94867126Y-60608272D01*
X94804785Y-60758776D01*
X94773003Y-60918551D01*
X94773003Y-60978139D01*
X94747113Y-60972989D01*
X94584209Y-60972989D01*
X94424434Y-61004771D01*
X94273930Y-61067112D01*
X94138480Y-61157617D01*
X94023289Y-61272808D01*
X93932784Y-61408258D01*
X93870443Y-61558762D01*
X93838661Y-61718537D01*
X93838661Y-61881441D01*
X93870443Y-62041216D01*
X93878262Y-62060092D01*
X93787737Y-62087552D01*
X93779023Y-62092210D01*
X93691841Y-62138809D01*
X93664569Y-62161191D01*
X93650180Y-62173000D01*
X93518548Y-62173000D01*
X93358773Y-62204782D01*
X93208269Y-62267123D01*
X93072819Y-62357628D01*
X92957628Y-62472819D01*
X92867123Y-62608269D01*
X92804782Y-62758773D01*
X92773000Y-62918548D01*
X92773000Y-63081452D01*
X92804782Y-63241227D01*
X92867123Y-63391731D01*
X92957628Y-63527181D01*
X92961937Y-63531490D01*
X92922819Y-63557628D01*
X92807628Y-63672819D01*
X92717123Y-63808269D01*
X92654782Y-63958773D01*
X92623000Y-64118548D01*
X92623000Y-64281452D01*
X92629336Y-64313304D01*
X92568002Y-64338709D01*
X92432552Y-64429214D01*
X92317361Y-64544405D01*
X92226856Y-64679855D01*
X92164515Y-64830359D01*
X92132733Y-64990134D01*
X92132733Y-65153038D01*
X92164515Y-65312813D01*
X92190256Y-65374958D01*
X92085479Y-65444968D01*
X92056893Y-65473554D01*
X92048439Y-65445685D01*
X92024020Y-65400000D01*
X92048439Y-65354315D01*
X92080680Y-65248032D01*
X92091566Y-65137500D01*
X92091566Y-64862500D01*
X92080680Y-64751968D01*
X92048439Y-64645685D01*
X92024020Y-64600000D01*
X92048439Y-64554315D01*
X92080680Y-64448032D01*
X92091566Y-64337500D01*
X92091566Y-64062500D01*
X92080680Y-63951968D01*
X92048439Y-63845685D01*
X92024020Y-63800000D01*
X92048439Y-63754315D01*
X92080680Y-63648032D01*
X92091566Y-63537500D01*
X92091566Y-63262500D01*
X92080680Y-63151968D01*
X92048439Y-63045685D01*
X92024020Y-63000000D01*
X92048439Y-62954315D01*
X92080680Y-62848032D01*
X92091566Y-62737500D01*
X92091566Y-62462500D01*
X92080680Y-62351968D01*
X92048439Y-62245685D01*
X92024020Y-62200000D01*
X92048439Y-62154315D01*
X92080680Y-62048032D01*
X92091566Y-61937500D01*
X92091566Y-61662500D01*
X92080680Y-61551968D01*
X92048439Y-61445685D01*
X92024020Y-61400000D01*
X92048439Y-61354315D01*
X92080680Y-61248032D01*
X92091566Y-61137500D01*
X92091566Y-60862500D01*
X92080680Y-60751968D01*
X92048439Y-60645685D01*
X92024020Y-60600000D01*
X92048439Y-60554315D01*
X92080680Y-60448032D01*
X92091566Y-60337500D01*
X92091566Y-60062500D01*
X92080680Y-59951968D01*
X92048439Y-59845685D01*
X91996082Y-59747733D01*
X91925623Y-59661877D01*
X91839767Y-59591418D01*
X91741815Y-59539061D01*
X91635532Y-59506820D01*
X91525000Y-59495934D01*
X90275000Y-59495934D01*
X90164468Y-59506820D01*
X90058185Y-59539061D01*
X89960233Y-59591418D01*
X89891286Y-59648000D01*
X88917872Y-59648000D01*
X88890766Y-59645330D01*
X88863660Y-59648000D01*
X88863658Y-59648000D01*
X88782556Y-59655988D01*
X88678504Y-59687552D01*
X88582609Y-59738809D01*
X88498556Y-59807789D01*
X88481275Y-59828846D01*
X86128856Y-62181267D01*
X86107789Y-62198556D01*
X86038809Y-62282609D01*
X85987552Y-62378505D01*
X85955988Y-62482557D01*
X85948000Y-62563658D01*
X85945330Y-62590767D01*
X85948000Y-62617873D01*
X85948001Y-64671353D01*
X81986355Y-68633001D01*
X81864974Y-68633001D01*
X81935502Y-68501051D01*
X82008522Y-68260336D01*
X82033178Y-68010000D01*
X82008522Y-67759664D01*
X81935502Y-67518949D01*
X81816924Y-67297104D01*
X81657344Y-67102656D01*
X81462896Y-66943076D01*
X81241051Y-66824498D01*
X81000336Y-66751478D01*
X80883798Y-66740000D01*
X81000336Y-66728522D01*
X81241051Y-66655502D01*
X81462896Y-66536924D01*
X81657344Y-66377344D01*
X81816924Y-66182896D01*
X81935502Y-65961051D01*
X82008522Y-65720336D01*
X82033178Y-65470000D01*
X82008522Y-65219664D01*
X81935502Y-64978949D01*
X81816924Y-64757104D01*
X81657344Y-64562656D01*
X81462896Y-64403076D01*
X81241051Y-64284498D01*
X81000336Y-64211478D01*
X80883798Y-64200000D01*
X81000336Y-64188522D01*
X81241051Y-64115502D01*
X81462896Y-63996924D01*
X81657344Y-63837344D01*
X81816924Y-63642896D01*
X81935502Y-63421051D01*
X82008522Y-63180336D01*
X82033178Y-62930000D01*
X82008522Y-62679664D01*
X81935502Y-62438949D01*
X81835576Y-62252000D01*
X82372894Y-62252000D01*
X82400000Y-62254670D01*
X82427106Y-62252000D01*
X82427109Y-62252000D01*
X82508211Y-62244012D01*
X82612263Y-62212448D01*
X82708158Y-62161191D01*
X82792211Y-62092211D01*
X82809500Y-62071144D01*
X83153646Y-61727000D01*
X83281452Y-61727000D01*
X83441227Y-61695218D01*
X83591731Y-61632877D01*
X83727181Y-61542372D01*
X83842372Y-61427181D01*
X83932877Y-61291731D01*
X83995218Y-61141227D01*
X84027000Y-60981452D01*
X84027000Y-60818548D01*
X83995218Y-60658773D01*
X83932877Y-60508269D01*
X83842372Y-60372819D01*
X83727181Y-60257628D01*
X83591731Y-60167123D01*
X83441227Y-60104782D01*
X83281452Y-60073000D01*
X83118548Y-60073000D01*
X82958773Y-60104782D01*
X82808269Y-60167123D01*
X82672819Y-60257628D01*
X82557628Y-60372819D01*
X82467123Y-60508269D01*
X82404782Y-60658773D01*
X82373000Y-60818548D01*
X82373000Y-60946354D01*
X82171355Y-61148000D01*
X81779908Y-61148000D01*
X81816924Y-61102896D01*
X81935502Y-60881051D01*
X82008522Y-60640336D01*
X82033178Y-60390000D01*
X82008522Y-60139664D01*
X81935502Y-59898949D01*
X81816924Y-59677104D01*
X81657344Y-59482656D01*
X81462896Y-59323076D01*
X81285350Y-59228176D01*
X81381252Y-59194157D01*
X81631355Y-59045178D01*
X81847588Y-58850269D01*
X82021641Y-58616920D01*
X82146825Y-58354099D01*
X82191476Y-58206890D01*
X82070155Y-57977000D01*
X80877000Y-57977000D01*
X80877000Y-57997000D01*
X80623000Y-57997000D01*
X80623000Y-57977000D01*
X78337000Y-57977000D01*
X78337000Y-57997000D01*
X78083000Y-57997000D01*
X78083000Y-57977000D01*
X76889845Y-57977000D01*
X76768524Y-58206890D01*
X76813175Y-58354099D01*
X76938359Y-58616920D01*
X77112412Y-58850269D01*
X77328645Y-59045178D01*
X77578748Y-59194157D01*
X77674650Y-59228176D01*
X77497104Y-59323076D01*
X77302656Y-59482656D01*
X77143076Y-59677104D01*
X77024498Y-59898949D01*
X76951478Y-60139664D01*
X76926822Y-60390000D01*
X76951478Y-60640336D01*
X77024498Y-60881051D01*
X77143076Y-61102896D01*
X77302656Y-61297344D01*
X77331350Y-61320893D01*
X77324823Y-61328846D01*
X75128852Y-63524819D01*
X75107790Y-63542104D01*
X75051119Y-63611158D01*
X75038809Y-63626158D01*
X74987552Y-63722053D01*
X74979762Y-63747733D01*
X74955988Y-63826104D01*
X74950705Y-63879742D01*
X74857628Y-63972819D01*
X74767123Y-64108269D01*
X74704782Y-64258773D01*
X74673000Y-64418548D01*
X69202000Y-64418548D01*
X69202000Y-42980000D01*
X74745330Y-42980000D01*
X74748000Y-43007106D01*
X74748001Y-55472884D01*
X74745330Y-55500000D01*
X74753531Y-55583255D01*
X74755989Y-55608211D01*
X74759125Y-55618548D01*
X74787552Y-55712262D01*
X74838809Y-55808157D01*
X74838901Y-55808269D01*
X74907790Y-55892211D01*
X74928852Y-55909496D01*
X75990487Y-56971132D01*
X76007772Y-56992194D01*
X76091825Y-57061174D01*
X76187720Y-57112431D01*
X76291772Y-57143995D01*
X76372874Y-57151983D01*
X76372877Y-57151983D01*
X76399983Y-57154653D01*
X76427089Y-57151983D01*
X76905540Y-57151983D01*
X76813175Y-57345901D01*
X76768524Y-57493110D01*
X76889845Y-57723000D01*
X78083000Y-57723000D01*
X78083000Y-57703000D01*
X78337000Y-57703000D01*
X78337000Y-57723000D01*
X80623000Y-57723000D01*
X80623000Y-57703000D01*
X80877000Y-57703000D01*
X80877000Y-57723000D01*
X82070155Y-57723000D01*
X82191476Y-57493110D01*
X82146825Y-57345901D01*
X82054460Y-57151983D01*
X85371325Y-57151983D01*
X86173000Y-57953660D01*
X86173000Y-58081466D01*
X86204782Y-58241241D01*
X86267123Y-58391745D01*
X86357628Y-58527195D01*
X86472819Y-58642386D01*
X86608269Y-58732891D01*
X86758773Y-58795232D01*
X86918548Y-58827014D01*
X87081452Y-58827014D01*
X87241227Y-58795232D01*
X87391731Y-58732891D01*
X87527181Y-58642386D01*
X87642372Y-58527195D01*
X87732877Y-58391745D01*
X87795218Y-58241241D01*
X87827000Y-58081466D01*
X87827000Y-57918562D01*
X87795218Y-57758787D01*
X87732877Y-57608283D01*
X87642372Y-57472833D01*
X87527181Y-57357642D01*
X87391731Y-57267137D01*
X87241227Y-57204796D01*
X87081452Y-57173014D01*
X86953646Y-57173014D01*
X86009469Y-56228839D01*
X85992180Y-56207772D01*
X85908127Y-56138792D01*
X85812232Y-56087535D01*
X85708180Y-56055971D01*
X85627078Y-56047983D01*
X85627075Y-56047983D01*
X85599969Y-56045313D01*
X85572863Y-56047983D01*
X81796336Y-56047983D01*
X81816924Y-56022896D01*
X81935502Y-55801051D01*
X82008522Y-55560336D01*
X82033178Y-55310000D01*
X82008522Y-55059664D01*
X81935502Y-54818949D01*
X81816924Y-54597104D01*
X81657344Y-54402656D01*
X81462896Y-54243076D01*
X81241051Y-54124498D01*
X81000336Y-54051478D01*
X80883798Y-54040000D01*
X81000336Y-54028522D01*
X81241051Y-53955502D01*
X81462896Y-53836924D01*
X81657344Y-53677344D01*
X81816924Y-53482896D01*
X81935502Y-53261051D01*
X82008522Y-53020336D01*
X82033178Y-52770000D01*
X82008522Y-52519664D01*
X81935502Y-52278949D01*
X81816924Y-52057104D01*
X81657344Y-51862656D01*
X81462896Y-51703076D01*
X81241051Y-51584498D01*
X81000336Y-51511478D01*
X80883798Y-51500000D01*
X81000336Y-51488522D01*
X81241051Y-51415502D01*
X81462896Y-51296924D01*
X81657344Y-51137344D01*
X81816924Y-50942896D01*
X81935502Y-50721051D01*
X82008522Y-50480336D01*
X82033178Y-50230000D01*
X82008522Y-49979664D01*
X81935502Y-49738949D01*
X81816924Y-49517104D01*
X81657344Y-49322656D01*
X81462896Y-49163076D01*
X81241051Y-49044498D01*
X81000336Y-48971478D01*
X80883798Y-48960000D01*
X81000336Y-48948522D01*
X81241051Y-48875502D01*
X81462896Y-48756924D01*
X81657344Y-48597344D01*
X81816924Y-48402896D01*
X81935502Y-48181051D01*
X82008522Y-47940336D01*
X82033178Y-47690000D01*
X82008522Y-47439664D01*
X81935502Y-47198949D01*
X81816924Y-46977104D01*
X81657344Y-46782656D01*
X81462896Y-46623076D01*
X81241051Y-46504498D01*
X81000336Y-46431478D01*
X80883798Y-46420000D01*
X81000336Y-46408522D01*
X81241051Y-46335502D01*
X81462896Y-46216924D01*
X81657344Y-46057344D01*
X81816924Y-45862896D01*
X81935502Y-45641051D01*
X82008522Y-45400336D01*
X82033178Y-45150000D01*
X82008522Y-44899664D01*
X81935502Y-44658949D01*
X81816924Y-44437104D01*
X81657344Y-44242656D01*
X81462896Y-44083076D01*
X81241051Y-43964498D01*
X81000336Y-43891478D01*
X80883798Y-43880000D01*
X81000336Y-43868522D01*
X81241051Y-43795502D01*
X81462896Y-43676924D01*
X81657344Y-43517344D01*
X81816924Y-43322896D01*
X81935502Y-43101051D01*
X82008522Y-42860336D01*
X82033178Y-42610000D01*
X82008522Y-42359664D01*
X81935502Y-42118949D01*
X81816924Y-41897104D01*
X81657344Y-41702656D01*
X81462896Y-41543076D01*
X81241051Y-41424498D01*
X81000336Y-41351478D01*
X80883798Y-41340000D01*
X81000336Y-41328522D01*
X81241051Y-41255502D01*
X81462896Y-41136924D01*
X81657344Y-40977344D01*
X81816924Y-40782896D01*
X81935502Y-40561051D01*
X82008522Y-40320336D01*
X82033178Y-40070000D01*
X82008522Y-39819664D01*
X81935502Y-39578949D01*
X81816924Y-39357104D01*
X81812735Y-39352000D01*
X82871356Y-39352000D01*
X83448001Y-39928647D01*
X83448000Y-53572894D01*
X83445330Y-53600000D01*
X83448000Y-53627106D01*
X83448000Y-53627108D01*
X83455988Y-53708210D01*
X83487552Y-53812262D01*
X83538809Y-53908158D01*
X83607789Y-53992211D01*
X83628856Y-54009500D01*
X85390508Y-55771154D01*
X85407789Y-55792211D01*
X85428845Y-55809491D01*
X85491841Y-55861191D01*
X85543098Y-55888588D01*
X85587737Y-55912448D01*
X85691789Y-55944012D01*
X85772891Y-55952000D01*
X85772901Y-55952000D01*
X85799999Y-55954669D01*
X85827097Y-55952000D01*
X89719317Y-55952000D01*
X89708434Y-56062500D01*
X89708434Y-56337500D01*
X89719320Y-56448032D01*
X89751561Y-56554315D01*
X89775980Y-56600000D01*
X89751561Y-56645685D01*
X89719320Y-56751968D01*
X89708434Y-56862500D01*
X89708434Y-57137500D01*
X89719320Y-57248032D01*
X89751561Y-57354315D01*
X89775980Y-57400000D01*
X89751561Y-57445685D01*
X89719320Y-57551968D01*
X89708434Y-57662500D01*
X89708434Y-57937500D01*
X89719320Y-58048032D01*
X89751561Y-58154315D01*
X89803918Y-58252267D01*
X89874377Y-58338123D01*
X89960233Y-58408582D01*
X90058185Y-58460939D01*
X90164468Y-58493180D01*
X90275000Y-58504066D01*
X91525000Y-58504066D01*
X91635532Y-58493180D01*
X91741815Y-58460939D01*
X91839767Y-58408582D01*
X91925623Y-58338123D01*
X91996082Y-58252267D01*
X92048439Y-58154315D01*
X92080680Y-58048032D01*
X92091566Y-57937500D01*
X92091566Y-57662500D01*
X92080680Y-57551968D01*
X92048439Y-57445685D01*
X92024020Y-57400000D01*
X92048439Y-57354315D01*
X92080680Y-57248032D01*
X92091566Y-57137500D01*
X92091566Y-56862500D01*
X92080683Y-56752000D01*
X95829702Y-56752000D01*
X96137458Y-57059757D01*
X96137458Y-57187563D01*
X96169240Y-57347338D01*
X96231581Y-57497842D01*
X96322086Y-57633292D01*
X96437277Y-57748483D01*
X96572727Y-57838988D01*
X96723231Y-57901329D01*
X96883006Y-57933111D01*
X97045910Y-57933111D01*
X97205685Y-57901329D01*
X97356189Y-57838988D01*
X97491639Y-57748483D01*
X97606830Y-57633292D01*
X97697028Y-57498302D01*
X97723493Y-57512448D01*
X97827545Y-57544012D01*
X97908647Y-57552000D01*
X97908657Y-57552000D01*
X97935755Y-57554669D01*
X97962853Y-57552000D01*
X100894317Y-57552000D01*
X100883434Y-57662500D01*
X100883434Y-57937500D01*
X100894320Y-58048032D01*
X100926561Y-58154315D01*
X100978918Y-58252267D01*
X101049377Y-58338123D01*
X101135233Y-58408582D01*
X101233185Y-58460939D01*
X101339468Y-58493180D01*
X101450000Y-58504066D01*
X102700000Y-58504066D01*
X102810532Y-58493180D01*
X102916815Y-58460939D01*
X103014767Y-58408582D01*
X103100623Y-58338123D01*
X103171082Y-58252267D01*
X103223439Y-58154315D01*
X103255680Y-58048032D01*
X103266566Y-57937500D01*
X103266566Y-57662500D01*
X103255680Y-57551968D01*
X103223439Y-57445685D01*
X103199020Y-57400000D01*
X103223439Y-57354315D01*
X103255680Y-57248032D01*
X103266566Y-57137500D01*
X103266566Y-56862500D01*
X103255680Y-56751968D01*
X103223439Y-56645685D01*
X103199020Y-56600000D01*
X103223439Y-56554315D01*
X103255680Y-56448032D01*
X103266566Y-56337500D01*
X103266566Y-56062500D01*
X103255680Y-55951968D01*
X103223439Y-55845685D01*
X103199020Y-55800000D01*
X103223439Y-55754315D01*
X103255680Y-55648032D01*
X103266566Y-55537500D01*
X103266566Y-55262500D01*
X103255680Y-55151968D01*
X103223439Y-55045685D01*
X103199020Y-55000000D01*
X103223439Y-54954315D01*
X103255680Y-54848032D01*
X103266566Y-54737500D01*
X103266566Y-54462500D01*
X103255680Y-54351968D01*
X103223439Y-54245685D01*
X103199020Y-54200000D01*
X103223439Y-54154315D01*
X103255680Y-54048032D01*
X103266566Y-53937500D01*
X103266566Y-53662500D01*
X103255680Y-53551968D01*
X103223439Y-53445685D01*
X103199020Y-53400000D01*
X103223439Y-53354315D01*
X103255680Y-53248032D01*
X103266566Y-53137500D01*
X103266566Y-52862500D01*
X103255680Y-52751968D01*
X103223439Y-52645685D01*
X103199020Y-52600000D01*
X103223439Y-52554315D01*
X103255680Y-52448032D01*
X103266566Y-52337500D01*
X103266566Y-52062500D01*
X103255680Y-51951968D01*
X103223439Y-51845685D01*
X103199020Y-51800000D01*
X103223439Y-51754315D01*
X103255680Y-51648032D01*
X103266566Y-51537500D01*
X103266566Y-51344565D01*
X103286434Y-51328425D01*
X103366267Y-51232130D01*
X103425779Y-51122110D01*
X103462684Y-51002595D01*
X103472500Y-50885750D01*
X103313750Y-50727000D01*
X102877056Y-50727000D01*
X102810532Y-50706820D01*
X102700000Y-50695934D01*
X101450000Y-50695934D01*
X101339468Y-50706820D01*
X101272944Y-50727000D01*
X100836250Y-50727000D01*
X100715250Y-50848000D01*
X98828646Y-50848000D01*
X98727000Y-50746355D01*
X98727000Y-50618548D01*
X98695218Y-50458773D01*
X98635355Y-50314250D01*
X100677500Y-50314250D01*
X100836250Y-50473000D01*
X101948000Y-50473000D01*
X101948000Y-49848750D01*
X102202000Y-49848750D01*
X102202000Y-50473000D01*
X103313750Y-50473000D01*
X103472500Y-50314250D01*
X103462684Y-50197405D01*
X103425779Y-50077890D01*
X103366267Y-49967870D01*
X103286434Y-49871575D01*
X103189349Y-49792705D01*
X103078743Y-49734290D01*
X102958866Y-49698577D01*
X102834324Y-49686936D01*
X102360750Y-49690000D01*
X102202000Y-49848750D01*
X101948000Y-49848750D01*
X101789250Y-49690000D01*
X101315676Y-49686936D01*
X101191134Y-49698577D01*
X101071257Y-49734290D01*
X100960651Y-49792705D01*
X100863566Y-49871575D01*
X100783733Y-49967870D01*
X100724221Y-50077890D01*
X100687316Y-50197405D01*
X100677500Y-50314250D01*
X98635355Y-50314250D01*
X98632877Y-50308269D01*
X98542372Y-50172819D01*
X98427181Y-50057628D01*
X98291731Y-49967123D01*
X98141227Y-49904782D01*
X97981452Y-49873000D01*
X97818548Y-49873000D01*
X97658773Y-49904782D01*
X97652000Y-49907587D01*
X97652000Y-41118548D01*
X98573000Y-41118548D01*
X98573000Y-41281452D01*
X98604782Y-41441227D01*
X98667123Y-41591731D01*
X98757628Y-41727181D01*
X98872819Y-41842372D01*
X99008269Y-41932877D01*
X99158773Y-41995218D01*
X99318548Y-42027000D01*
X99481452Y-42027000D01*
X99641227Y-41995218D01*
X99791731Y-41932877D01*
X99927181Y-41842372D01*
X100017553Y-41752000D01*
X103671356Y-41752000D01*
X104774901Y-42855546D01*
X104757628Y-42872819D01*
X104667123Y-43008269D01*
X104604782Y-43158773D01*
X104573000Y-43318548D01*
X104573000Y-43481452D01*
X104604782Y-43641227D01*
X104667123Y-43791731D01*
X104757628Y-43927181D01*
X104872819Y-44042372D01*
X105008269Y-44132877D01*
X105158773Y-44195218D01*
X105318548Y-44227000D01*
X105481452Y-44227000D01*
X105641227Y-44195218D01*
X105748001Y-44150991D01*
X105748000Y-54482447D01*
X105657628Y-54572819D01*
X105567123Y-54708269D01*
X105504782Y-54858773D01*
X105473000Y-55018548D01*
X105473000Y-55181452D01*
X105504782Y-55341227D01*
X105567123Y-55491731D01*
X105657628Y-55627181D01*
X105772819Y-55742372D01*
X105908269Y-55832877D01*
X106058773Y-55895218D01*
X106218548Y-55927000D01*
X106381452Y-55927000D01*
X106541227Y-55895218D01*
X106691731Y-55832877D01*
X106827181Y-55742372D01*
X106942372Y-55627181D01*
X107032877Y-55491731D01*
X107095218Y-55341227D01*
X107127000Y-55181452D01*
X107127000Y-55018548D01*
X107107109Y-54918548D01*
X107473000Y-54918548D01*
X107473000Y-55081452D01*
X107504782Y-55241227D01*
X107567123Y-55391731D01*
X107657628Y-55527181D01*
X107748001Y-55617554D01*
X107748000Y-64882447D01*
X107657628Y-64972819D01*
X107567123Y-65108269D01*
X107504782Y-65258773D01*
X107473000Y-65418548D01*
X107473000Y-65581452D01*
X107504782Y-65741227D01*
X107567123Y-65891731D01*
X107657628Y-66027181D01*
X107772819Y-66142372D01*
X107908269Y-66232877D01*
X108058773Y-66295218D01*
X108218548Y-66327000D01*
X108381452Y-66327000D01*
X108541227Y-66295218D01*
X108691731Y-66232877D01*
X108827181Y-66142372D01*
X108942372Y-66027181D01*
X109032877Y-65891731D01*
X109095218Y-65741227D01*
X109127000Y-65581452D01*
X109127000Y-65418548D01*
X109095218Y-65258773D01*
X109032877Y-65108269D01*
X108942372Y-64972819D01*
X108852000Y-64882447D01*
X108852000Y-55617553D01*
X108942372Y-55527181D01*
X109032877Y-55391731D01*
X109095218Y-55241227D01*
X109127000Y-55081452D01*
X109127000Y-54918548D01*
X109095218Y-54758773D01*
X109032877Y-54608269D01*
X108942372Y-54472819D01*
X108827181Y-54357628D01*
X108691731Y-54267123D01*
X108541227Y-54204782D01*
X108381452Y-54173000D01*
X108218548Y-54173000D01*
X108058773Y-54204782D01*
X107908269Y-54267123D01*
X107772819Y-54357628D01*
X107657628Y-54472819D01*
X107567123Y-54608269D01*
X107504782Y-54758773D01*
X107473000Y-54918548D01*
X107107109Y-54918548D01*
X107095218Y-54858773D01*
X107032877Y-54708269D01*
X106942372Y-54572819D01*
X106852000Y-54482447D01*
X106852000Y-38117553D01*
X106942372Y-38027181D01*
X107032877Y-37891731D01*
X107095218Y-37741227D01*
X107127000Y-37581452D01*
X107127000Y-37418548D01*
X107095218Y-37258773D01*
X107032877Y-37108269D01*
X106942372Y-36972819D01*
X106827181Y-36857628D01*
X106691731Y-36767123D01*
X106541227Y-36704782D01*
X106381452Y-36673000D01*
X106218548Y-36673000D01*
X106058773Y-36704782D01*
X105908269Y-36767123D01*
X105772819Y-36857628D01*
X105657628Y-36972819D01*
X105567123Y-37108269D01*
X105504782Y-37258773D01*
X105473000Y-37418548D01*
X105473000Y-37581452D01*
X105504782Y-37741227D01*
X105567123Y-37891731D01*
X105657628Y-38027181D01*
X105748001Y-38117554D01*
X105748001Y-42267355D01*
X104309500Y-40828856D01*
X104292211Y-40807789D01*
X104208158Y-40738809D01*
X104112263Y-40687552D01*
X104008211Y-40655988D01*
X103927109Y-40648000D01*
X103927106Y-40648000D01*
X103900000Y-40645330D01*
X103872894Y-40648000D01*
X100017553Y-40648000D01*
X99927181Y-40557628D01*
X99791731Y-40467123D01*
X99641227Y-40404782D01*
X99481452Y-40373000D01*
X99318548Y-40373000D01*
X99158773Y-40404782D01*
X99008269Y-40467123D01*
X98872819Y-40557628D01*
X98757628Y-40672819D01*
X98667123Y-40808269D01*
X98604782Y-40958773D01*
X98573000Y-41118548D01*
X97652000Y-41118548D01*
X97652000Y-35517553D01*
X97742372Y-35427181D01*
X97832877Y-35291731D01*
X97895218Y-35141227D01*
X97927000Y-34981452D01*
X97927000Y-34818548D01*
X97895218Y-34658773D01*
X97832877Y-34508269D01*
X97742372Y-34372819D01*
X97627181Y-34257628D01*
X97491731Y-34167123D01*
X97341227Y-34104782D01*
X97181452Y-34073000D01*
X97018548Y-34073000D01*
X96858773Y-34104782D01*
X96708269Y-34167123D01*
X96572819Y-34257628D01*
X96457628Y-34372819D01*
X96367123Y-34508269D01*
X96304782Y-34658773D01*
X96273000Y-34818548D01*
X96273000Y-34981452D01*
X96304782Y-35141227D01*
X96367123Y-35291731D01*
X96457628Y-35427181D01*
X96548000Y-35517553D01*
X96548001Y-51745422D01*
X96545330Y-51772538D01*
X96554063Y-51861191D01*
X96555989Y-51880749D01*
X96559373Y-51891904D01*
X96577825Y-51952733D01*
X96526999Y-51962843D01*
X96526999Y-44702107D01*
X96529669Y-44674999D01*
X96519011Y-44566788D01*
X96487447Y-44462736D01*
X96436190Y-44366841D01*
X96384491Y-44303845D01*
X96384490Y-44303844D01*
X96367210Y-44282788D01*
X96346153Y-44265507D01*
X95327000Y-43246356D01*
X95327000Y-43118548D01*
X95295218Y-42958773D01*
X95232877Y-42808269D01*
X95142372Y-42672819D01*
X95027181Y-42557628D01*
X94891731Y-42467123D01*
X94741227Y-42404782D01*
X94581452Y-42373000D01*
X94418548Y-42373000D01*
X94258773Y-42404782D01*
X94108269Y-42467123D01*
X93972819Y-42557628D01*
X93857628Y-42672819D01*
X93767123Y-42808269D01*
X93704782Y-42958773D01*
X93673000Y-43118548D01*
X93673000Y-43281452D01*
X93704782Y-43441227D01*
X93767123Y-43591731D01*
X93857628Y-43727181D01*
X93972819Y-43842372D01*
X94108269Y-43932877D01*
X94258773Y-43995218D01*
X94418548Y-44027000D01*
X94546356Y-44027000D01*
X95423000Y-44903646D01*
X95423000Y-46001354D01*
X92457500Y-43035856D01*
X92457500Y-42908048D01*
X92425718Y-42748273D01*
X92363377Y-42597769D01*
X92272872Y-42462319D01*
X92157681Y-42347128D01*
X92022231Y-42256623D01*
X91871727Y-42194282D01*
X91711952Y-42162500D01*
X91549048Y-42162500D01*
X91389273Y-42194282D01*
X91238769Y-42256623D01*
X91103319Y-42347128D01*
X90988128Y-42462319D01*
X90897623Y-42597769D01*
X90835282Y-42748273D01*
X90803500Y-42908048D01*
X90803500Y-43070952D01*
X90835282Y-43230727D01*
X90897623Y-43381231D01*
X90966085Y-43483691D01*
X90919227Y-43464282D01*
X90759452Y-43432500D01*
X90596548Y-43432500D01*
X90436773Y-43464282D01*
X90286269Y-43526623D01*
X90150819Y-43617128D01*
X90035628Y-43732319D01*
X89945123Y-43867769D01*
X89882782Y-44018273D01*
X89875526Y-44054751D01*
X89842619Y-44051510D01*
X89842616Y-44051510D01*
X89815510Y-44048840D01*
X89788404Y-44051510D01*
X89017551Y-44051510D01*
X88927179Y-43961138D01*
X88791729Y-43870633D01*
X88641225Y-43808292D01*
X88481450Y-43776510D01*
X88318546Y-43776510D01*
X88158771Y-43808292D01*
X88008267Y-43870633D01*
X87872817Y-43961138D01*
X87757626Y-44076329D01*
X87667121Y-44211779D01*
X87604780Y-44362283D01*
X87572998Y-44522058D01*
X87572998Y-44684962D01*
X87591577Y-44778364D01*
X87458769Y-44804782D01*
X87308265Y-44867123D01*
X87172815Y-44957628D01*
X87057624Y-45072819D01*
X86967119Y-45208269D01*
X86904778Y-45358773D01*
X86872996Y-45518548D01*
X86872996Y-45681452D01*
X86904778Y-45841227D01*
X86967119Y-45991731D01*
X87057624Y-46127181D01*
X87172815Y-46242372D01*
X87308265Y-46332877D01*
X87458769Y-46395218D01*
X87618544Y-46427000D01*
X87781448Y-46427000D01*
X87941223Y-46395218D01*
X88091727Y-46332877D01*
X88227177Y-46242372D01*
X88317549Y-46152000D01*
X89440368Y-46152000D01*
X90284301Y-46995934D01*
X89976579Y-46995934D01*
X89709500Y-46728856D01*
X89692211Y-46707789D01*
X89608158Y-46638809D01*
X89512263Y-46587552D01*
X89408211Y-46555988D01*
X89327109Y-46548000D01*
X89327106Y-46548000D01*
X89300000Y-46545330D01*
X89272894Y-46548000D01*
X87128646Y-46548000D01*
X86152000Y-45571356D01*
X86152000Y-43628644D01*
X88503645Y-41277000D01*
X88631452Y-41277000D01*
X88791227Y-41245218D01*
X88941731Y-41182877D01*
X89077181Y-41092372D01*
X89192372Y-40977181D01*
X89282877Y-40841731D01*
X89345218Y-40691227D01*
X89377000Y-40531452D01*
X89377000Y-40368548D01*
X89345218Y-40208773D01*
X89282877Y-40058269D01*
X89192372Y-39922819D01*
X89077181Y-39807628D01*
X88941731Y-39717123D01*
X88791227Y-39654782D01*
X88631452Y-39623000D01*
X88468548Y-39623000D01*
X88308773Y-39654782D01*
X88158269Y-39717123D01*
X88022819Y-39807628D01*
X87907628Y-39922819D01*
X87817123Y-40058269D01*
X87754782Y-40208773D01*
X87723000Y-40368548D01*
X87723000Y-40496355D01*
X85228852Y-42990504D01*
X85207790Y-43007789D01*
X85155954Y-43070952D01*
X85138809Y-43091843D01*
X85087552Y-43187738D01*
X85081470Y-43207789D01*
X85059175Y-43281288D01*
X85055989Y-43291790D01*
X85045330Y-43400000D01*
X85048001Y-43427116D01*
X85048000Y-45772894D01*
X85045330Y-45800000D01*
X85048000Y-45827106D01*
X85048000Y-45827108D01*
X85055988Y-45908210D01*
X85087552Y-46012262D01*
X85138809Y-46108158D01*
X85207789Y-46192211D01*
X85228856Y-46209500D01*
X86490507Y-47471153D01*
X86507789Y-47492211D01*
X86528845Y-47509491D01*
X86528846Y-47509492D01*
X86591842Y-47561191D01*
X86687737Y-47612448D01*
X86791789Y-47644012D01*
X86900000Y-47654670D01*
X86927108Y-47652000D01*
X87227750Y-47652000D01*
X87348750Y-47773000D01*
X88223000Y-47773000D01*
X88223000Y-47753000D01*
X88477000Y-47753000D01*
X88477000Y-47773000D01*
X88497000Y-47773000D01*
X88497000Y-48027000D01*
X88477000Y-48027000D01*
X88477000Y-48851250D01*
X88635750Y-49010000D01*
X88875000Y-49013072D01*
X88999482Y-49000812D01*
X89119180Y-48964502D01*
X89229494Y-48905537D01*
X89326185Y-48826185D01*
X89405537Y-48729494D01*
X89430740Y-48682344D01*
X89442176Y-48691729D01*
X89548000Y-48748294D01*
X89548001Y-49772884D01*
X89545330Y-49800000D01*
X89555989Y-49908210D01*
X89587552Y-50012262D01*
X89587553Y-50012263D01*
X89638810Y-50108158D01*
X89707790Y-50192211D01*
X89728852Y-50209496D01*
X89756256Y-50236901D01*
X89751561Y-50245685D01*
X89719320Y-50351968D01*
X89708434Y-50462500D01*
X89708434Y-50737500D01*
X89719317Y-50848000D01*
X86228648Y-50848000D01*
X86227004Y-50846356D01*
X86227004Y-50718548D01*
X86195222Y-50558773D01*
X86132881Y-50408269D01*
X86042376Y-50272819D01*
X85927185Y-50157628D01*
X85791735Y-50067123D01*
X85641231Y-50004782D01*
X85481456Y-49973000D01*
X85318552Y-49973000D01*
X85158777Y-50004782D01*
X85008273Y-50067123D01*
X84872823Y-50157628D01*
X84757632Y-50272819D01*
X84667127Y-50408269D01*
X84604786Y-50558773D01*
X84573004Y-50718548D01*
X84573004Y-50881452D01*
X84604786Y-51041227D01*
X84667127Y-51191731D01*
X84757632Y-51327181D01*
X84872823Y-51442372D01*
X84881966Y-51448481D01*
X84807628Y-51522819D01*
X84717123Y-51658269D01*
X84654782Y-51808773D01*
X84623000Y-51968548D01*
X84623000Y-52131452D01*
X84654782Y-52291227D01*
X84717123Y-52441731D01*
X84807628Y-52577181D01*
X84922819Y-52692372D01*
X85058269Y-52782877D01*
X85208773Y-52845218D01*
X85368548Y-52877000D01*
X85531452Y-52877000D01*
X85691227Y-52845218D01*
X85841731Y-52782877D01*
X85874608Y-52760909D01*
X85854782Y-52808773D01*
X85823000Y-52968548D01*
X85823000Y-53059366D01*
X85691227Y-53004784D01*
X85531452Y-52973002D01*
X85368548Y-52973002D01*
X85208773Y-53004784D01*
X85058269Y-53067125D01*
X84922819Y-53157630D01*
X84807628Y-53272821D01*
X84717123Y-53408271D01*
X84679572Y-53498927D01*
X84552000Y-53371356D01*
X84552000Y-48375000D01*
X87186928Y-48375000D01*
X87199188Y-48499482D01*
X87235498Y-48619180D01*
X87294463Y-48729494D01*
X87373815Y-48826185D01*
X87470506Y-48905537D01*
X87580820Y-48964502D01*
X87700518Y-49000812D01*
X87825000Y-49013072D01*
X88064250Y-49010000D01*
X88223000Y-48851250D01*
X88223000Y-48027000D01*
X87348750Y-48027000D01*
X87190000Y-48185750D01*
X87186928Y-48375000D01*
X84552000Y-48375000D01*
X84552000Y-39727097D01*
X84554669Y-39699999D01*
X84552000Y-39672901D01*
X84552000Y-39672891D01*
X84544012Y-39591789D01*
X84512448Y-39487737D01*
X84461191Y-39391842D01*
X84392211Y-39307789D01*
X84371154Y-39290508D01*
X84227536Y-39146890D01*
X90808524Y-39146890D01*
X90853175Y-39294099D01*
X90978359Y-39556920D01*
X91152412Y-39790269D01*
X91368645Y-39985178D01*
X91618748Y-40134157D01*
X91893109Y-40231481D01*
X92123000Y-40110814D01*
X92123000Y-38917000D01*
X92377000Y-38917000D01*
X92377000Y-40110814D01*
X92606891Y-40231481D01*
X92881252Y-40134157D01*
X93131355Y-39985178D01*
X93347588Y-39790269D01*
X93521641Y-39556920D01*
X93646825Y-39294099D01*
X93691476Y-39146890D01*
X93570155Y-38917000D01*
X92377000Y-38917000D01*
X92123000Y-38917000D01*
X90929845Y-38917000D01*
X90808524Y-39146890D01*
X84227536Y-39146890D01*
X83509500Y-38428856D01*
X83492211Y-38407789D01*
X83408158Y-38338809D01*
X83312263Y-38287552D01*
X83208211Y-38255988D01*
X83127109Y-38248000D01*
X83127106Y-38248000D01*
X83100000Y-38245330D01*
X83072894Y-38248000D01*
X81812735Y-38248000D01*
X81816924Y-38242896D01*
X81935502Y-38021051D01*
X81966595Y-37918548D01*
X86473000Y-37918548D01*
X86473000Y-38081452D01*
X86504782Y-38241227D01*
X86567123Y-38391731D01*
X86657628Y-38527181D01*
X86772819Y-38642372D01*
X86908269Y-38732877D01*
X87058773Y-38795218D01*
X87218548Y-38827000D01*
X87381452Y-38827000D01*
X87541227Y-38795218D01*
X87691731Y-38732877D01*
X87827181Y-38642372D01*
X87942372Y-38527181D01*
X88032877Y-38391731D01*
X88095218Y-38241227D01*
X88127000Y-38081452D01*
X88127000Y-38052000D01*
X90964584Y-38052000D01*
X90853175Y-38285901D01*
X90808524Y-38433110D01*
X90929845Y-38663000D01*
X92123000Y-38663000D01*
X92123000Y-38643000D01*
X92377000Y-38643000D01*
X92377000Y-38663000D01*
X93570155Y-38663000D01*
X93691476Y-38433110D01*
X93646825Y-38285901D01*
X93535416Y-38052000D01*
X94282447Y-38052000D01*
X94372819Y-38142372D01*
X94508269Y-38232877D01*
X94658773Y-38295218D01*
X94818548Y-38327000D01*
X94981452Y-38327000D01*
X95141227Y-38295218D01*
X95291731Y-38232877D01*
X95427181Y-38142372D01*
X95542372Y-38027181D01*
X95632877Y-37891731D01*
X95695218Y-37741227D01*
X95727000Y-37581452D01*
X95727000Y-37418548D01*
X95695218Y-37258773D01*
X95632877Y-37108269D01*
X95542372Y-36972819D01*
X95427181Y-36857628D01*
X95291731Y-36767123D01*
X95141227Y-36704782D01*
X94981452Y-36673000D01*
X94818548Y-36673000D01*
X94658773Y-36704782D01*
X94508269Y-36767123D01*
X94372819Y-36857628D01*
X94282447Y-36948000D01*
X93529066Y-36948000D01*
X93529066Y-35400000D01*
X93520822Y-35316293D01*
X93496405Y-35235804D01*
X93456755Y-35161624D01*
X93403395Y-35096605D01*
X93338376Y-35043245D01*
X93264196Y-35003595D01*
X93183707Y-34979178D01*
X93100000Y-34970934D01*
X91400000Y-34970934D01*
X91316293Y-34979178D01*
X91235804Y-35003595D01*
X91161624Y-35043245D01*
X91096605Y-35096605D01*
X91043245Y-35161624D01*
X91003595Y-35235804D01*
X90979178Y-35316293D01*
X90970934Y-35400000D01*
X90970934Y-36948000D01*
X87827108Y-36948000D01*
X87800000Y-36945330D01*
X87772892Y-36948000D01*
X87772891Y-36948000D01*
X87691789Y-36955988D01*
X87587737Y-36987552D01*
X87491842Y-37038809D01*
X87407789Y-37107789D01*
X87390503Y-37128853D01*
X87346356Y-37173000D01*
X87218548Y-37173000D01*
X87058773Y-37204782D01*
X86908269Y-37267123D01*
X86772819Y-37357628D01*
X86657628Y-37472819D01*
X86567123Y-37608269D01*
X86504782Y-37758773D01*
X86473000Y-37918548D01*
X81966595Y-37918548D01*
X82008522Y-37780336D01*
X82033178Y-37530000D01*
X82008522Y-37279664D01*
X81935502Y-37038949D01*
X81816924Y-36817104D01*
X81657344Y-36622656D01*
X81462896Y-36463076D01*
X81241051Y-36344498D01*
X81000336Y-36271478D01*
X80883798Y-36260000D01*
X81000336Y-36248522D01*
X81241051Y-36175502D01*
X81462896Y-36056924D01*
X81657344Y-35897344D01*
X81816924Y-35702896D01*
X81935502Y-35481051D01*
X82008522Y-35240336D01*
X82027072Y-35052000D01*
X86309244Y-35052000D01*
X86367123Y-35191733D01*
X86457628Y-35327183D01*
X86572819Y-35442374D01*
X86708269Y-35532879D01*
X86858773Y-35595220D01*
X87018548Y-35627002D01*
X87181452Y-35627002D01*
X87341227Y-35595220D01*
X87491731Y-35532879D01*
X87627181Y-35442374D01*
X87742372Y-35327183D01*
X87832877Y-35191733D01*
X87895218Y-35041229D01*
X87927000Y-34881454D01*
X87927000Y-34718550D01*
X87895218Y-34558775D01*
X87832877Y-34408271D01*
X87742372Y-34272821D01*
X87627181Y-34157630D01*
X87491731Y-34067125D01*
X87341227Y-34004784D01*
X87181452Y-33973002D01*
X87018548Y-33973002D01*
X86985782Y-33979520D01*
X86908209Y-33955988D01*
X86827107Y-33948000D01*
X86827104Y-33948000D01*
X86799998Y-33945330D01*
X86772892Y-33948000D01*
X81493266Y-33948000D01*
X81462896Y-33923076D01*
X81241051Y-33804498D01*
X81000336Y-33731478D01*
X80812726Y-33713000D01*
X80687274Y-33713000D01*
X80499664Y-33731478D01*
X80258949Y-33804498D01*
X80037104Y-33923076D01*
X79842656Y-34082656D01*
X79683076Y-34277104D01*
X79564498Y-34498949D01*
X79491478Y-34739664D01*
X79480000Y-34856202D01*
X79468522Y-34739664D01*
X79395502Y-34498949D01*
X79276924Y-34277104D01*
X79117344Y-34082656D01*
X78922896Y-33923076D01*
X78701051Y-33804498D01*
X78460336Y-33731478D01*
X78272726Y-33713000D01*
X78147274Y-33713000D01*
X77959664Y-33731478D01*
X77718949Y-33804498D01*
X77497104Y-33923076D01*
X77302656Y-34082656D01*
X77143076Y-34277104D01*
X77024498Y-34498949D01*
X76951478Y-34739664D01*
X76926822Y-34990000D01*
X76951478Y-35240336D01*
X77024498Y-35481051D01*
X77143076Y-35702896D01*
X77302656Y-35897344D01*
X77497104Y-36056924D01*
X77718949Y-36175502D01*
X77959664Y-36248522D01*
X78076202Y-36260000D01*
X77959664Y-36271478D01*
X77718949Y-36344498D01*
X77497104Y-36463076D01*
X77302656Y-36622656D01*
X77143076Y-36817104D01*
X77024498Y-37038949D01*
X76951478Y-37279664D01*
X76926822Y-37530000D01*
X76951478Y-37780336D01*
X77024498Y-38021051D01*
X77143076Y-38242896D01*
X77302656Y-38437344D01*
X77497104Y-38596924D01*
X77718949Y-38715502D01*
X77959664Y-38788522D01*
X78076202Y-38800000D01*
X77959664Y-38811478D01*
X77718949Y-38884498D01*
X77497104Y-39003076D01*
X77302656Y-39162656D01*
X77143076Y-39357104D01*
X77024498Y-39578949D01*
X76951478Y-39819664D01*
X76926822Y-40070000D01*
X76951478Y-40320336D01*
X77004437Y-40494918D01*
X74928856Y-42570499D01*
X74907789Y-42587789D01*
X74838809Y-42671842D01*
X74787552Y-42767738D01*
X74755988Y-42871790D01*
X74749387Y-42938809D01*
X74745330Y-42980000D01*
X69202000Y-42980000D01*
X69202000Y-33702000D01*
X106977891Y-33702000D01*
X107494492Y-33752654D01*
M02*
