G04 #@! TF.GenerationSoftware,KiCad,Pcbnew,(5.1.4)-1*
G04 #@! TF.CreationDate,2019-12-17T11:04:36-05:00*
G04 #@! TF.ProjectId,a500plus-chipram-expansion,61353030-706c-4757-932d-636869707261,rev?*
G04 #@! TF.SameCoordinates,Original*
G04 #@! TF.FileFunction,Soldermask,Bot*
G04 #@! TF.FilePolarity,Negative*
%FSLAX46Y46*%
G04 Gerber Fmt 4.6, Leading zero omitted, Abs format (unit mm)*
G04 Created by KiCad (PCBNEW (5.1.4)-1) date 2019-12-17 11:04:36*
%MOMM*%
%LPD*%
G04 APERTURE LIST*
%ADD10C,0.100000*%
G04 APERTURE END LIST*
D10*
G36*
X81651000Y-84151000D02*
G01*
X79849000Y-84151000D01*
X79849000Y-82349000D01*
X81651000Y-82349000D01*
X81651000Y-84151000D01*
X81651000Y-84151000D01*
G37*
G36*
X78320443Y-82355519D02*
G01*
X78386627Y-82362037D01*
X78556466Y-82413557D01*
X78712991Y-82497222D01*
X78748729Y-82526552D01*
X78850186Y-82609814D01*
X78933448Y-82711271D01*
X78962778Y-82747009D01*
X79046443Y-82903534D01*
X79097963Y-83073373D01*
X79115359Y-83250000D01*
X79097963Y-83426627D01*
X79046443Y-83596466D01*
X78962778Y-83752991D01*
X78933448Y-83788729D01*
X78850186Y-83890186D01*
X78748729Y-83973448D01*
X78712991Y-84002778D01*
X78556466Y-84086443D01*
X78386627Y-84137963D01*
X78320443Y-84144481D01*
X78254260Y-84151000D01*
X78165740Y-84151000D01*
X78099557Y-84144481D01*
X78033373Y-84137963D01*
X77863534Y-84086443D01*
X77707009Y-84002778D01*
X77671271Y-83973448D01*
X77569814Y-83890186D01*
X77486552Y-83788729D01*
X77457222Y-83752991D01*
X77373557Y-83596466D01*
X77322037Y-83426627D01*
X77304641Y-83250000D01*
X77322037Y-83073373D01*
X77373557Y-82903534D01*
X77457222Y-82747009D01*
X77486552Y-82711271D01*
X77569814Y-82609814D01*
X77671271Y-82526552D01*
X77707009Y-82497222D01*
X77863534Y-82413557D01*
X78033373Y-82362037D01*
X78099557Y-82355519D01*
X78165740Y-82349000D01*
X78254260Y-82349000D01*
X78320443Y-82355519D01*
X78320443Y-82355519D01*
G37*
G36*
X80860442Y-79815518D02*
G01*
X80926627Y-79822037D01*
X81096466Y-79873557D01*
X81252991Y-79957222D01*
X81288729Y-79986552D01*
X81390186Y-80069814D01*
X81473448Y-80171271D01*
X81502778Y-80207009D01*
X81586443Y-80363534D01*
X81637963Y-80533373D01*
X81655359Y-80710000D01*
X81637963Y-80886627D01*
X81586443Y-81056466D01*
X81502778Y-81212991D01*
X81473448Y-81248729D01*
X81390186Y-81350186D01*
X81288729Y-81433448D01*
X81252991Y-81462778D01*
X81096466Y-81546443D01*
X80926627Y-81597963D01*
X80860442Y-81604482D01*
X80794260Y-81611000D01*
X80705740Y-81611000D01*
X80639558Y-81604482D01*
X80573373Y-81597963D01*
X80403534Y-81546443D01*
X80247009Y-81462778D01*
X80211271Y-81433448D01*
X80109814Y-81350186D01*
X80026552Y-81248729D01*
X79997222Y-81212991D01*
X79913557Y-81056466D01*
X79862037Y-80886627D01*
X79844641Y-80710000D01*
X79862037Y-80533373D01*
X79913557Y-80363534D01*
X79997222Y-80207009D01*
X80026552Y-80171271D01*
X80109814Y-80069814D01*
X80211271Y-79986552D01*
X80247009Y-79957222D01*
X80403534Y-79873557D01*
X80573373Y-79822037D01*
X80639558Y-79815518D01*
X80705740Y-79809000D01*
X80794260Y-79809000D01*
X80860442Y-79815518D01*
X80860442Y-79815518D01*
G37*
G36*
X78320442Y-79815518D02*
G01*
X78386627Y-79822037D01*
X78556466Y-79873557D01*
X78712991Y-79957222D01*
X78748729Y-79986552D01*
X78850186Y-80069814D01*
X78933448Y-80171271D01*
X78962778Y-80207009D01*
X79046443Y-80363534D01*
X79097963Y-80533373D01*
X79115359Y-80710000D01*
X79097963Y-80886627D01*
X79046443Y-81056466D01*
X78962778Y-81212991D01*
X78933448Y-81248729D01*
X78850186Y-81350186D01*
X78748729Y-81433448D01*
X78712991Y-81462778D01*
X78556466Y-81546443D01*
X78386627Y-81597963D01*
X78320442Y-81604482D01*
X78254260Y-81611000D01*
X78165740Y-81611000D01*
X78099558Y-81604482D01*
X78033373Y-81597963D01*
X77863534Y-81546443D01*
X77707009Y-81462778D01*
X77671271Y-81433448D01*
X77569814Y-81350186D01*
X77486552Y-81248729D01*
X77457222Y-81212991D01*
X77373557Y-81056466D01*
X77322037Y-80886627D01*
X77304641Y-80710000D01*
X77322037Y-80533373D01*
X77373557Y-80363534D01*
X77457222Y-80207009D01*
X77486552Y-80171271D01*
X77569814Y-80069814D01*
X77671271Y-79986552D01*
X77707009Y-79957222D01*
X77863534Y-79873557D01*
X78033373Y-79822037D01*
X78099558Y-79815518D01*
X78165740Y-79809000D01*
X78254260Y-79809000D01*
X78320442Y-79815518D01*
X78320442Y-79815518D01*
G37*
G36*
X80860442Y-77275518D02*
G01*
X80926627Y-77282037D01*
X81096466Y-77333557D01*
X81252991Y-77417222D01*
X81288729Y-77446552D01*
X81390186Y-77529814D01*
X81473448Y-77631271D01*
X81502778Y-77667009D01*
X81586443Y-77823534D01*
X81637963Y-77993373D01*
X81655359Y-78170000D01*
X81637963Y-78346627D01*
X81586443Y-78516466D01*
X81502778Y-78672991D01*
X81473448Y-78708729D01*
X81390186Y-78810186D01*
X81288729Y-78893448D01*
X81252991Y-78922778D01*
X81096466Y-79006443D01*
X80926627Y-79057963D01*
X80860442Y-79064482D01*
X80794260Y-79071000D01*
X80705740Y-79071000D01*
X80639558Y-79064482D01*
X80573373Y-79057963D01*
X80403534Y-79006443D01*
X80247009Y-78922778D01*
X80211271Y-78893448D01*
X80109814Y-78810186D01*
X80026552Y-78708729D01*
X79997222Y-78672991D01*
X79913557Y-78516466D01*
X79862037Y-78346627D01*
X79844641Y-78170000D01*
X79862037Y-77993373D01*
X79913557Y-77823534D01*
X79997222Y-77667009D01*
X80026552Y-77631271D01*
X80109814Y-77529814D01*
X80211271Y-77446552D01*
X80247009Y-77417222D01*
X80403534Y-77333557D01*
X80573373Y-77282037D01*
X80639558Y-77275518D01*
X80705740Y-77269000D01*
X80794260Y-77269000D01*
X80860442Y-77275518D01*
X80860442Y-77275518D01*
G37*
G36*
X78320442Y-77275518D02*
G01*
X78386627Y-77282037D01*
X78556466Y-77333557D01*
X78712991Y-77417222D01*
X78748729Y-77446552D01*
X78850186Y-77529814D01*
X78933448Y-77631271D01*
X78962778Y-77667009D01*
X79046443Y-77823534D01*
X79097963Y-77993373D01*
X79115359Y-78170000D01*
X79097963Y-78346627D01*
X79046443Y-78516466D01*
X78962778Y-78672991D01*
X78933448Y-78708729D01*
X78850186Y-78810186D01*
X78748729Y-78893448D01*
X78712991Y-78922778D01*
X78556466Y-79006443D01*
X78386627Y-79057963D01*
X78320442Y-79064482D01*
X78254260Y-79071000D01*
X78165740Y-79071000D01*
X78099558Y-79064482D01*
X78033373Y-79057963D01*
X77863534Y-79006443D01*
X77707009Y-78922778D01*
X77671271Y-78893448D01*
X77569814Y-78810186D01*
X77486552Y-78708729D01*
X77457222Y-78672991D01*
X77373557Y-78516466D01*
X77322037Y-78346627D01*
X77304641Y-78170000D01*
X77322037Y-77993373D01*
X77373557Y-77823534D01*
X77457222Y-77667009D01*
X77486552Y-77631271D01*
X77569814Y-77529814D01*
X77671271Y-77446552D01*
X77707009Y-77417222D01*
X77863534Y-77333557D01*
X78033373Y-77282037D01*
X78099558Y-77275518D01*
X78165740Y-77269000D01*
X78254260Y-77269000D01*
X78320442Y-77275518D01*
X78320442Y-77275518D01*
G37*
G36*
X80860443Y-74735519D02*
G01*
X80926627Y-74742037D01*
X81096466Y-74793557D01*
X81252991Y-74877222D01*
X81288729Y-74906552D01*
X81390186Y-74989814D01*
X81473448Y-75091271D01*
X81502778Y-75127009D01*
X81586443Y-75283534D01*
X81637963Y-75453373D01*
X81655359Y-75630000D01*
X81637963Y-75806627D01*
X81586443Y-75976466D01*
X81502778Y-76132991D01*
X81473448Y-76168729D01*
X81390186Y-76270186D01*
X81288729Y-76353448D01*
X81252991Y-76382778D01*
X81096466Y-76466443D01*
X80926627Y-76517963D01*
X80860442Y-76524482D01*
X80794260Y-76531000D01*
X80705740Y-76531000D01*
X80639558Y-76524482D01*
X80573373Y-76517963D01*
X80403534Y-76466443D01*
X80247009Y-76382778D01*
X80211271Y-76353448D01*
X80109814Y-76270186D01*
X80026552Y-76168729D01*
X79997222Y-76132991D01*
X79913557Y-75976466D01*
X79862037Y-75806627D01*
X79844641Y-75630000D01*
X79862037Y-75453373D01*
X79913557Y-75283534D01*
X79997222Y-75127009D01*
X80026552Y-75091271D01*
X80109814Y-74989814D01*
X80211271Y-74906552D01*
X80247009Y-74877222D01*
X80403534Y-74793557D01*
X80573373Y-74742037D01*
X80639557Y-74735519D01*
X80705740Y-74729000D01*
X80794260Y-74729000D01*
X80860443Y-74735519D01*
X80860443Y-74735519D01*
G37*
G36*
X78320443Y-74735519D02*
G01*
X78386627Y-74742037D01*
X78556466Y-74793557D01*
X78712991Y-74877222D01*
X78748729Y-74906552D01*
X78850186Y-74989814D01*
X78933448Y-75091271D01*
X78962778Y-75127009D01*
X79046443Y-75283534D01*
X79097963Y-75453373D01*
X79115359Y-75630000D01*
X79097963Y-75806627D01*
X79046443Y-75976466D01*
X78962778Y-76132991D01*
X78933448Y-76168729D01*
X78850186Y-76270186D01*
X78748729Y-76353448D01*
X78712991Y-76382778D01*
X78556466Y-76466443D01*
X78386627Y-76517963D01*
X78320442Y-76524482D01*
X78254260Y-76531000D01*
X78165740Y-76531000D01*
X78099558Y-76524482D01*
X78033373Y-76517963D01*
X77863534Y-76466443D01*
X77707009Y-76382778D01*
X77671271Y-76353448D01*
X77569814Y-76270186D01*
X77486552Y-76168729D01*
X77457222Y-76132991D01*
X77373557Y-75976466D01*
X77322037Y-75806627D01*
X77304641Y-75630000D01*
X77322037Y-75453373D01*
X77373557Y-75283534D01*
X77457222Y-75127009D01*
X77486552Y-75091271D01*
X77569814Y-74989814D01*
X77671271Y-74906552D01*
X77707009Y-74877222D01*
X77863534Y-74793557D01*
X78033373Y-74742037D01*
X78099557Y-74735519D01*
X78165740Y-74729000D01*
X78254260Y-74729000D01*
X78320443Y-74735519D01*
X78320443Y-74735519D01*
G37*
G36*
X80860442Y-72195518D02*
G01*
X80926627Y-72202037D01*
X81096466Y-72253557D01*
X81252991Y-72337222D01*
X81288729Y-72366552D01*
X81390186Y-72449814D01*
X81473448Y-72551271D01*
X81502778Y-72587009D01*
X81586443Y-72743534D01*
X81637963Y-72913373D01*
X81655359Y-73090000D01*
X81637963Y-73266627D01*
X81586443Y-73436466D01*
X81502778Y-73592991D01*
X81473448Y-73628729D01*
X81390186Y-73730186D01*
X81288729Y-73813448D01*
X81252991Y-73842778D01*
X81096466Y-73926443D01*
X80926627Y-73977963D01*
X80860443Y-73984481D01*
X80794260Y-73991000D01*
X80705740Y-73991000D01*
X80639557Y-73984481D01*
X80573373Y-73977963D01*
X80403534Y-73926443D01*
X80247009Y-73842778D01*
X80211271Y-73813448D01*
X80109814Y-73730186D01*
X80026552Y-73628729D01*
X79997222Y-73592991D01*
X79913557Y-73436466D01*
X79862037Y-73266627D01*
X79844641Y-73090000D01*
X79862037Y-72913373D01*
X79913557Y-72743534D01*
X79997222Y-72587009D01*
X80026552Y-72551271D01*
X80109814Y-72449814D01*
X80211271Y-72366552D01*
X80247009Y-72337222D01*
X80403534Y-72253557D01*
X80573373Y-72202037D01*
X80639558Y-72195518D01*
X80705740Y-72189000D01*
X80794260Y-72189000D01*
X80860442Y-72195518D01*
X80860442Y-72195518D01*
G37*
G36*
X78320442Y-72195518D02*
G01*
X78386627Y-72202037D01*
X78556466Y-72253557D01*
X78712991Y-72337222D01*
X78748729Y-72366552D01*
X78850186Y-72449814D01*
X78933448Y-72551271D01*
X78962778Y-72587009D01*
X79046443Y-72743534D01*
X79097963Y-72913373D01*
X79115359Y-73090000D01*
X79097963Y-73266627D01*
X79046443Y-73436466D01*
X78962778Y-73592991D01*
X78933448Y-73628729D01*
X78850186Y-73730186D01*
X78748729Y-73813448D01*
X78712991Y-73842778D01*
X78556466Y-73926443D01*
X78386627Y-73977963D01*
X78320443Y-73984481D01*
X78254260Y-73991000D01*
X78165740Y-73991000D01*
X78099557Y-73984481D01*
X78033373Y-73977963D01*
X77863534Y-73926443D01*
X77707009Y-73842778D01*
X77671271Y-73813448D01*
X77569814Y-73730186D01*
X77486552Y-73628729D01*
X77457222Y-73592991D01*
X77373557Y-73436466D01*
X77322037Y-73266627D01*
X77304641Y-73090000D01*
X77322037Y-72913373D01*
X77373557Y-72743534D01*
X77457222Y-72587009D01*
X77486552Y-72551271D01*
X77569814Y-72449814D01*
X77671271Y-72366552D01*
X77707009Y-72337222D01*
X77863534Y-72253557D01*
X78033373Y-72202037D01*
X78099558Y-72195518D01*
X78165740Y-72189000D01*
X78254260Y-72189000D01*
X78320442Y-72195518D01*
X78320442Y-72195518D01*
G37*
G36*
X80860443Y-69655519D02*
G01*
X80926627Y-69662037D01*
X81096466Y-69713557D01*
X81252991Y-69797222D01*
X81288729Y-69826552D01*
X81390186Y-69909814D01*
X81473448Y-70011271D01*
X81502778Y-70047009D01*
X81586443Y-70203534D01*
X81637963Y-70373373D01*
X81655359Y-70550000D01*
X81637963Y-70726627D01*
X81586443Y-70896466D01*
X81502778Y-71052991D01*
X81473448Y-71088729D01*
X81390186Y-71190186D01*
X81288729Y-71273448D01*
X81252991Y-71302778D01*
X81096466Y-71386443D01*
X80926627Y-71437963D01*
X80860442Y-71444482D01*
X80794260Y-71451000D01*
X80705740Y-71451000D01*
X80639558Y-71444482D01*
X80573373Y-71437963D01*
X80403534Y-71386443D01*
X80247009Y-71302778D01*
X80211271Y-71273448D01*
X80109814Y-71190186D01*
X80026552Y-71088729D01*
X79997222Y-71052991D01*
X79913557Y-70896466D01*
X79862037Y-70726627D01*
X79844641Y-70550000D01*
X79862037Y-70373373D01*
X79913557Y-70203534D01*
X79997222Y-70047009D01*
X80026552Y-70011271D01*
X80109814Y-69909814D01*
X80211271Y-69826552D01*
X80247009Y-69797222D01*
X80403534Y-69713557D01*
X80573373Y-69662037D01*
X80639557Y-69655519D01*
X80705740Y-69649000D01*
X80794260Y-69649000D01*
X80860443Y-69655519D01*
X80860443Y-69655519D01*
G37*
G36*
X78320443Y-69655519D02*
G01*
X78386627Y-69662037D01*
X78556466Y-69713557D01*
X78712991Y-69797222D01*
X78748729Y-69826552D01*
X78850186Y-69909814D01*
X78933448Y-70011271D01*
X78962778Y-70047009D01*
X79046443Y-70203534D01*
X79097963Y-70373373D01*
X79115359Y-70550000D01*
X79097963Y-70726627D01*
X79046443Y-70896466D01*
X78962778Y-71052991D01*
X78933448Y-71088729D01*
X78850186Y-71190186D01*
X78748729Y-71273448D01*
X78712991Y-71302778D01*
X78556466Y-71386443D01*
X78386627Y-71437963D01*
X78320442Y-71444482D01*
X78254260Y-71451000D01*
X78165740Y-71451000D01*
X78099558Y-71444482D01*
X78033373Y-71437963D01*
X77863534Y-71386443D01*
X77707009Y-71302778D01*
X77671271Y-71273448D01*
X77569814Y-71190186D01*
X77486552Y-71088729D01*
X77457222Y-71052991D01*
X77373557Y-70896466D01*
X77322037Y-70726627D01*
X77304641Y-70550000D01*
X77322037Y-70373373D01*
X77373557Y-70203534D01*
X77457222Y-70047009D01*
X77486552Y-70011271D01*
X77569814Y-69909814D01*
X77671271Y-69826552D01*
X77707009Y-69797222D01*
X77863534Y-69713557D01*
X78033373Y-69662037D01*
X78099557Y-69655519D01*
X78165740Y-69649000D01*
X78254260Y-69649000D01*
X78320443Y-69655519D01*
X78320443Y-69655519D01*
G37*
G36*
X78320442Y-67115518D02*
G01*
X78386627Y-67122037D01*
X78556466Y-67173557D01*
X78712991Y-67257222D01*
X78748729Y-67286552D01*
X78850186Y-67369814D01*
X78933448Y-67471271D01*
X78962778Y-67507009D01*
X79046443Y-67663534D01*
X79097963Y-67833373D01*
X79115359Y-68010000D01*
X79097963Y-68186627D01*
X79046443Y-68356466D01*
X78962778Y-68512991D01*
X78933448Y-68548729D01*
X78850186Y-68650186D01*
X78748729Y-68733448D01*
X78712991Y-68762778D01*
X78556466Y-68846443D01*
X78386627Y-68897963D01*
X78320442Y-68904482D01*
X78254260Y-68911000D01*
X78165740Y-68911000D01*
X78099558Y-68904482D01*
X78033373Y-68897963D01*
X77863534Y-68846443D01*
X77707009Y-68762778D01*
X77671271Y-68733448D01*
X77569814Y-68650186D01*
X77486552Y-68548729D01*
X77457222Y-68512991D01*
X77373557Y-68356466D01*
X77322037Y-68186627D01*
X77304641Y-68010000D01*
X77322037Y-67833373D01*
X77373557Y-67663534D01*
X77457222Y-67507009D01*
X77486552Y-67471271D01*
X77569814Y-67369814D01*
X77671271Y-67286552D01*
X77707009Y-67257222D01*
X77863534Y-67173557D01*
X78033373Y-67122037D01*
X78099558Y-67115518D01*
X78165740Y-67109000D01*
X78254260Y-67109000D01*
X78320442Y-67115518D01*
X78320442Y-67115518D01*
G37*
G36*
X80860442Y-67115518D02*
G01*
X80926627Y-67122037D01*
X81096466Y-67173557D01*
X81252991Y-67257222D01*
X81288729Y-67286552D01*
X81390186Y-67369814D01*
X81473448Y-67471271D01*
X81502778Y-67507009D01*
X81586443Y-67663534D01*
X81637963Y-67833373D01*
X81655359Y-68010000D01*
X81637963Y-68186627D01*
X81586443Y-68356466D01*
X81502778Y-68512991D01*
X81473448Y-68548729D01*
X81390186Y-68650186D01*
X81288729Y-68733448D01*
X81252991Y-68762778D01*
X81096466Y-68846443D01*
X80926627Y-68897963D01*
X80860442Y-68904482D01*
X80794260Y-68911000D01*
X80705740Y-68911000D01*
X80639558Y-68904482D01*
X80573373Y-68897963D01*
X80403534Y-68846443D01*
X80247009Y-68762778D01*
X80211271Y-68733448D01*
X80109814Y-68650186D01*
X80026552Y-68548729D01*
X79997222Y-68512991D01*
X79913557Y-68356466D01*
X79862037Y-68186627D01*
X79844641Y-68010000D01*
X79862037Y-67833373D01*
X79913557Y-67663534D01*
X79997222Y-67507009D01*
X80026552Y-67471271D01*
X80109814Y-67369814D01*
X80211271Y-67286552D01*
X80247009Y-67257222D01*
X80403534Y-67173557D01*
X80573373Y-67122037D01*
X80639558Y-67115518D01*
X80705740Y-67109000D01*
X80794260Y-67109000D01*
X80860442Y-67115518D01*
X80860442Y-67115518D01*
G37*
G36*
X102807487Y-59876524D02*
G01*
X102826230Y-59882210D01*
X102843497Y-59891439D01*
X102858636Y-59903864D01*
X102871061Y-59919003D01*
X102880290Y-59936270D01*
X102885976Y-59955013D01*
X102888500Y-59980640D01*
X102888500Y-60419360D01*
X102885976Y-60444987D01*
X102880290Y-60463730D01*
X102871061Y-60480997D01*
X102858635Y-60496138D01*
X102849817Y-60503375D01*
X102832490Y-60520702D01*
X102818877Y-60541076D01*
X102809499Y-60563715D01*
X102804719Y-60587748D01*
X102804719Y-60612252D01*
X102809499Y-60636285D01*
X102818877Y-60658924D01*
X102832491Y-60679299D01*
X102849817Y-60696625D01*
X102858635Y-60703862D01*
X102871061Y-60719003D01*
X102880290Y-60736270D01*
X102885976Y-60755013D01*
X102888500Y-60780640D01*
X102888500Y-61219360D01*
X102885976Y-61244987D01*
X102880290Y-61263730D01*
X102871061Y-61280997D01*
X102858635Y-61296138D01*
X102849817Y-61303375D01*
X102832490Y-61320702D01*
X102818877Y-61341076D01*
X102809499Y-61363715D01*
X102804719Y-61387748D01*
X102804719Y-61412252D01*
X102809499Y-61436285D01*
X102818877Y-61458924D01*
X102832491Y-61479299D01*
X102849817Y-61496625D01*
X102858635Y-61503862D01*
X102871061Y-61519003D01*
X102880290Y-61536270D01*
X102885976Y-61555013D01*
X102888500Y-61580640D01*
X102888500Y-62019360D01*
X102885976Y-62044987D01*
X102880290Y-62063730D01*
X102871061Y-62080997D01*
X102858635Y-62096138D01*
X102849817Y-62103375D01*
X102832490Y-62120702D01*
X102818877Y-62141076D01*
X102809499Y-62163715D01*
X102804719Y-62187748D01*
X102804719Y-62212252D01*
X102809499Y-62236285D01*
X102818877Y-62258924D01*
X102832491Y-62279299D01*
X102849817Y-62296625D01*
X102858635Y-62303862D01*
X102871061Y-62319003D01*
X102880290Y-62336270D01*
X102885976Y-62355013D01*
X102888500Y-62380640D01*
X102888500Y-62819360D01*
X102885976Y-62844987D01*
X102880290Y-62863730D01*
X102871061Y-62880997D01*
X102858635Y-62896138D01*
X102849817Y-62903375D01*
X102832490Y-62920702D01*
X102818877Y-62941076D01*
X102809499Y-62963715D01*
X102804719Y-62987748D01*
X102804719Y-63012252D01*
X102809499Y-63036285D01*
X102818877Y-63058924D01*
X102832491Y-63079299D01*
X102849817Y-63096625D01*
X102858635Y-63103862D01*
X102871061Y-63119003D01*
X102880290Y-63136270D01*
X102885976Y-63155013D01*
X102888500Y-63180640D01*
X102888500Y-63619360D01*
X102885976Y-63644987D01*
X102880290Y-63663730D01*
X102871061Y-63680997D01*
X102858635Y-63696138D01*
X102849817Y-63703375D01*
X102832490Y-63720702D01*
X102818877Y-63741076D01*
X102809499Y-63763715D01*
X102804719Y-63787748D01*
X102804719Y-63812252D01*
X102809499Y-63836285D01*
X102818877Y-63858924D01*
X102832491Y-63879299D01*
X102849817Y-63896625D01*
X102858635Y-63903862D01*
X102871061Y-63919003D01*
X102880290Y-63936270D01*
X102885976Y-63955013D01*
X102888500Y-63980640D01*
X102888500Y-64419360D01*
X102885976Y-64444987D01*
X102880290Y-64463730D01*
X102871061Y-64480997D01*
X102858635Y-64496138D01*
X102849817Y-64503375D01*
X102832490Y-64520702D01*
X102818877Y-64541076D01*
X102809499Y-64563715D01*
X102804719Y-64587748D01*
X102804719Y-64612252D01*
X102809499Y-64636285D01*
X102818877Y-64658924D01*
X102832491Y-64679299D01*
X102849817Y-64696625D01*
X102858635Y-64703862D01*
X102871061Y-64719003D01*
X102880290Y-64736270D01*
X102885976Y-64755013D01*
X102888500Y-64780640D01*
X102888500Y-65219360D01*
X102885976Y-65244987D01*
X102880290Y-65263730D01*
X102871061Y-65280997D01*
X102858635Y-65296138D01*
X102849817Y-65303375D01*
X102832490Y-65320702D01*
X102818877Y-65341076D01*
X102809499Y-65363715D01*
X102804719Y-65387748D01*
X102804719Y-65412252D01*
X102809499Y-65436285D01*
X102818877Y-65458924D01*
X102832491Y-65479299D01*
X102849817Y-65496625D01*
X102858635Y-65503862D01*
X102871061Y-65519003D01*
X102880290Y-65536270D01*
X102885976Y-65555013D01*
X102888500Y-65580640D01*
X102888500Y-66019360D01*
X102885976Y-66044987D01*
X102880290Y-66063730D01*
X102871061Y-66080997D01*
X102858635Y-66096138D01*
X102849817Y-66103375D01*
X102832490Y-66120702D01*
X102818877Y-66141076D01*
X102809499Y-66163715D01*
X102804719Y-66187748D01*
X102804719Y-66212252D01*
X102809499Y-66236285D01*
X102818877Y-66258924D01*
X102832491Y-66279299D01*
X102849817Y-66296625D01*
X102858635Y-66303862D01*
X102871061Y-66319003D01*
X102880290Y-66336270D01*
X102885976Y-66355013D01*
X102888500Y-66380640D01*
X102888500Y-66819360D01*
X102885976Y-66844987D01*
X102880290Y-66863730D01*
X102871061Y-66880997D01*
X102858635Y-66896138D01*
X102849817Y-66903375D01*
X102832490Y-66920702D01*
X102818877Y-66941076D01*
X102809499Y-66963715D01*
X102804719Y-66987748D01*
X102804719Y-67012252D01*
X102809499Y-67036285D01*
X102818877Y-67058924D01*
X102832491Y-67079299D01*
X102849817Y-67096625D01*
X102858635Y-67103862D01*
X102871061Y-67119003D01*
X102880290Y-67136270D01*
X102885976Y-67155013D01*
X102888500Y-67180640D01*
X102888500Y-67619360D01*
X102885976Y-67644987D01*
X102880290Y-67663730D01*
X102871061Y-67680997D01*
X102858636Y-67696136D01*
X102843497Y-67708561D01*
X102826230Y-67717790D01*
X102807487Y-67723476D01*
X102781860Y-67726000D01*
X101368140Y-67726000D01*
X101342513Y-67723476D01*
X101323770Y-67717790D01*
X101306503Y-67708561D01*
X101291364Y-67696136D01*
X101278939Y-67680997D01*
X101269710Y-67663730D01*
X101264024Y-67644987D01*
X101261500Y-67619360D01*
X101261500Y-67180640D01*
X101264024Y-67155013D01*
X101269710Y-67136270D01*
X101278939Y-67119003D01*
X101291365Y-67103862D01*
X101300183Y-67096625D01*
X101317510Y-67079298D01*
X101331123Y-67058924D01*
X101340501Y-67036285D01*
X101345281Y-67012252D01*
X101345281Y-66987748D01*
X101340501Y-66963715D01*
X101331123Y-66941076D01*
X101317509Y-66920701D01*
X101300183Y-66903375D01*
X101291365Y-66896138D01*
X101278939Y-66880997D01*
X101269710Y-66863730D01*
X101264024Y-66844987D01*
X101261500Y-66819360D01*
X101261500Y-66380640D01*
X101264024Y-66355013D01*
X101269710Y-66336270D01*
X101278939Y-66319003D01*
X101291365Y-66303862D01*
X101300183Y-66296625D01*
X101317510Y-66279298D01*
X101331123Y-66258924D01*
X101340501Y-66236285D01*
X101345281Y-66212252D01*
X101345281Y-66187748D01*
X101340501Y-66163715D01*
X101331123Y-66141076D01*
X101317509Y-66120701D01*
X101300183Y-66103375D01*
X101291365Y-66096138D01*
X101278939Y-66080997D01*
X101269710Y-66063730D01*
X101264024Y-66044987D01*
X101261500Y-66019360D01*
X101261500Y-65580640D01*
X101264024Y-65555013D01*
X101269710Y-65536270D01*
X101278939Y-65519003D01*
X101291365Y-65503862D01*
X101300183Y-65496625D01*
X101317510Y-65479298D01*
X101331123Y-65458924D01*
X101340501Y-65436285D01*
X101345281Y-65412252D01*
X101345281Y-65387748D01*
X101340501Y-65363715D01*
X101331123Y-65341076D01*
X101317509Y-65320701D01*
X101300183Y-65303375D01*
X101291365Y-65296138D01*
X101278939Y-65280997D01*
X101269710Y-65263730D01*
X101264024Y-65244987D01*
X101261500Y-65219360D01*
X101261500Y-64780640D01*
X101264024Y-64755013D01*
X101269710Y-64736270D01*
X101278939Y-64719003D01*
X101291365Y-64703862D01*
X101300183Y-64696625D01*
X101317510Y-64679298D01*
X101331123Y-64658924D01*
X101340501Y-64636285D01*
X101345281Y-64612252D01*
X101345281Y-64587748D01*
X101340501Y-64563715D01*
X101331123Y-64541076D01*
X101317509Y-64520701D01*
X101300183Y-64503375D01*
X101291365Y-64496138D01*
X101278939Y-64480997D01*
X101269710Y-64463730D01*
X101264024Y-64444987D01*
X101261500Y-64419360D01*
X101261500Y-63980640D01*
X101264024Y-63955013D01*
X101269710Y-63936270D01*
X101278939Y-63919003D01*
X101291365Y-63903862D01*
X101300183Y-63896625D01*
X101317510Y-63879298D01*
X101331123Y-63858924D01*
X101340501Y-63836285D01*
X101345281Y-63812252D01*
X101345281Y-63787748D01*
X101340501Y-63763715D01*
X101331123Y-63741076D01*
X101317509Y-63720701D01*
X101300183Y-63703375D01*
X101291365Y-63696138D01*
X101278939Y-63680997D01*
X101269710Y-63663730D01*
X101264024Y-63644987D01*
X101261500Y-63619360D01*
X101261500Y-63180640D01*
X101264024Y-63155013D01*
X101269710Y-63136270D01*
X101278939Y-63119003D01*
X101291365Y-63103862D01*
X101300183Y-63096625D01*
X101317510Y-63079298D01*
X101331123Y-63058924D01*
X101340501Y-63036285D01*
X101345281Y-63012252D01*
X101345281Y-62987748D01*
X101340501Y-62963715D01*
X101331123Y-62941076D01*
X101317509Y-62920701D01*
X101300183Y-62903375D01*
X101291365Y-62896138D01*
X101278939Y-62880997D01*
X101269710Y-62863730D01*
X101264024Y-62844987D01*
X101261500Y-62819360D01*
X101261500Y-62380640D01*
X101264024Y-62355013D01*
X101269710Y-62336270D01*
X101278939Y-62319003D01*
X101291365Y-62303862D01*
X101300183Y-62296625D01*
X101317510Y-62279298D01*
X101331123Y-62258924D01*
X101340501Y-62236285D01*
X101345281Y-62212252D01*
X101345281Y-62187748D01*
X101340501Y-62163715D01*
X101331123Y-62141076D01*
X101317509Y-62120701D01*
X101300183Y-62103375D01*
X101291365Y-62096138D01*
X101278939Y-62080997D01*
X101269710Y-62063730D01*
X101264024Y-62044987D01*
X101261500Y-62019360D01*
X101261500Y-61580640D01*
X101264024Y-61555013D01*
X101269710Y-61536270D01*
X101278939Y-61519003D01*
X101291365Y-61503862D01*
X101300183Y-61496625D01*
X101317510Y-61479298D01*
X101331123Y-61458924D01*
X101340501Y-61436285D01*
X101345281Y-61412252D01*
X101345281Y-61387748D01*
X101340501Y-61363715D01*
X101331123Y-61341076D01*
X101317509Y-61320701D01*
X101300183Y-61303375D01*
X101291365Y-61296138D01*
X101278939Y-61280997D01*
X101269710Y-61263730D01*
X101264024Y-61244987D01*
X101261500Y-61219360D01*
X101261500Y-60780640D01*
X101264024Y-60755013D01*
X101269710Y-60736270D01*
X101278939Y-60719003D01*
X101291365Y-60703862D01*
X101300183Y-60696625D01*
X101317510Y-60679298D01*
X101331123Y-60658924D01*
X101340501Y-60636285D01*
X101345281Y-60612252D01*
X101345281Y-60587748D01*
X101340501Y-60563715D01*
X101331123Y-60541076D01*
X101317509Y-60520701D01*
X101300183Y-60503375D01*
X101291365Y-60496138D01*
X101278939Y-60480997D01*
X101269710Y-60463730D01*
X101264024Y-60444987D01*
X101261500Y-60419360D01*
X101261500Y-59980640D01*
X101264024Y-59955013D01*
X101269710Y-59936270D01*
X101278939Y-59919003D01*
X101291364Y-59903864D01*
X101306503Y-59891439D01*
X101323770Y-59882210D01*
X101342513Y-59876524D01*
X101368140Y-59874000D01*
X102781860Y-59874000D01*
X102807487Y-59876524D01*
X102807487Y-59876524D01*
G37*
G36*
X91632487Y-59876524D02*
G01*
X91651230Y-59882210D01*
X91668497Y-59891439D01*
X91683636Y-59903864D01*
X91696061Y-59919003D01*
X91705290Y-59936270D01*
X91710976Y-59955013D01*
X91713500Y-59980640D01*
X91713500Y-60419360D01*
X91710976Y-60444987D01*
X91705290Y-60463730D01*
X91696061Y-60480997D01*
X91683635Y-60496138D01*
X91674817Y-60503375D01*
X91657490Y-60520702D01*
X91643877Y-60541076D01*
X91634499Y-60563715D01*
X91629719Y-60587748D01*
X91629719Y-60612252D01*
X91634499Y-60636285D01*
X91643877Y-60658924D01*
X91657491Y-60679299D01*
X91674817Y-60696625D01*
X91683635Y-60703862D01*
X91696061Y-60719003D01*
X91705290Y-60736270D01*
X91710976Y-60755013D01*
X91713500Y-60780640D01*
X91713500Y-61219360D01*
X91710976Y-61244987D01*
X91705290Y-61263730D01*
X91696061Y-61280997D01*
X91683635Y-61296138D01*
X91674817Y-61303375D01*
X91657490Y-61320702D01*
X91643877Y-61341076D01*
X91634499Y-61363715D01*
X91629719Y-61387748D01*
X91629719Y-61412252D01*
X91634499Y-61436285D01*
X91643877Y-61458924D01*
X91657491Y-61479299D01*
X91674817Y-61496625D01*
X91683635Y-61503862D01*
X91696061Y-61519003D01*
X91705290Y-61536270D01*
X91710976Y-61555013D01*
X91713500Y-61580640D01*
X91713500Y-62019360D01*
X91710976Y-62044987D01*
X91705290Y-62063730D01*
X91696061Y-62080997D01*
X91683635Y-62096138D01*
X91674817Y-62103375D01*
X91657490Y-62120702D01*
X91643877Y-62141076D01*
X91634499Y-62163715D01*
X91629719Y-62187748D01*
X91629719Y-62212252D01*
X91634499Y-62236285D01*
X91643877Y-62258924D01*
X91657491Y-62279299D01*
X91674817Y-62296625D01*
X91683635Y-62303862D01*
X91696061Y-62319003D01*
X91705290Y-62336270D01*
X91710976Y-62355013D01*
X91713500Y-62380640D01*
X91713500Y-62819360D01*
X91710976Y-62844987D01*
X91705290Y-62863730D01*
X91696061Y-62880997D01*
X91683635Y-62896138D01*
X91674817Y-62903375D01*
X91657490Y-62920702D01*
X91643877Y-62941076D01*
X91634499Y-62963715D01*
X91629719Y-62987748D01*
X91629719Y-63012252D01*
X91634499Y-63036285D01*
X91643877Y-63058924D01*
X91657491Y-63079299D01*
X91674817Y-63096625D01*
X91683635Y-63103862D01*
X91696061Y-63119003D01*
X91705290Y-63136270D01*
X91710976Y-63155013D01*
X91713500Y-63180640D01*
X91713500Y-63619360D01*
X91710976Y-63644987D01*
X91705290Y-63663730D01*
X91696061Y-63680997D01*
X91683635Y-63696138D01*
X91674817Y-63703375D01*
X91657490Y-63720702D01*
X91643877Y-63741076D01*
X91634499Y-63763715D01*
X91629719Y-63787748D01*
X91629719Y-63812252D01*
X91634499Y-63836285D01*
X91643877Y-63858924D01*
X91657491Y-63879299D01*
X91674817Y-63896625D01*
X91683635Y-63903862D01*
X91696061Y-63919003D01*
X91705290Y-63936270D01*
X91710976Y-63955013D01*
X91713500Y-63980640D01*
X91713500Y-64419360D01*
X91710976Y-64444987D01*
X91705290Y-64463730D01*
X91696061Y-64480997D01*
X91683635Y-64496138D01*
X91674817Y-64503375D01*
X91657490Y-64520702D01*
X91643877Y-64541076D01*
X91634499Y-64563715D01*
X91629719Y-64587748D01*
X91629719Y-64612252D01*
X91634499Y-64636285D01*
X91643877Y-64658924D01*
X91657491Y-64679299D01*
X91674817Y-64696625D01*
X91683635Y-64703862D01*
X91696061Y-64719003D01*
X91705290Y-64736270D01*
X91710976Y-64755013D01*
X91713500Y-64780640D01*
X91713500Y-65219360D01*
X91710976Y-65244987D01*
X91705290Y-65263730D01*
X91696061Y-65280997D01*
X91683635Y-65296138D01*
X91674817Y-65303375D01*
X91657490Y-65320702D01*
X91643877Y-65341076D01*
X91634499Y-65363715D01*
X91629719Y-65387748D01*
X91629719Y-65412252D01*
X91634499Y-65436285D01*
X91643877Y-65458924D01*
X91657491Y-65479299D01*
X91674817Y-65496625D01*
X91683635Y-65503862D01*
X91696061Y-65519003D01*
X91705290Y-65536270D01*
X91710976Y-65555013D01*
X91713500Y-65580640D01*
X91713500Y-66019360D01*
X91710976Y-66044987D01*
X91705290Y-66063730D01*
X91696061Y-66080997D01*
X91683635Y-66096138D01*
X91674817Y-66103375D01*
X91657490Y-66120702D01*
X91643877Y-66141076D01*
X91634499Y-66163715D01*
X91629719Y-66187748D01*
X91629719Y-66212252D01*
X91634499Y-66236285D01*
X91643877Y-66258924D01*
X91657491Y-66279299D01*
X91674817Y-66296625D01*
X91683635Y-66303862D01*
X91696061Y-66319003D01*
X91705290Y-66336270D01*
X91710976Y-66355013D01*
X91713500Y-66380640D01*
X91713500Y-66819360D01*
X91710976Y-66844987D01*
X91705290Y-66863730D01*
X91696061Y-66880997D01*
X91683635Y-66896138D01*
X91674817Y-66903375D01*
X91657490Y-66920702D01*
X91643877Y-66941076D01*
X91634499Y-66963715D01*
X91629719Y-66987748D01*
X91629719Y-67012252D01*
X91634499Y-67036285D01*
X91643877Y-67058924D01*
X91657491Y-67079299D01*
X91674817Y-67096625D01*
X91683635Y-67103862D01*
X91696061Y-67119003D01*
X91705290Y-67136270D01*
X91710976Y-67155013D01*
X91713500Y-67180640D01*
X91713500Y-67619360D01*
X91710976Y-67644987D01*
X91705290Y-67663730D01*
X91696061Y-67680997D01*
X91683636Y-67696136D01*
X91668497Y-67708561D01*
X91651230Y-67717790D01*
X91632487Y-67723476D01*
X91606860Y-67726000D01*
X90193140Y-67726000D01*
X90167513Y-67723476D01*
X90148770Y-67717790D01*
X90131503Y-67708561D01*
X90116364Y-67696136D01*
X90103939Y-67680997D01*
X90094710Y-67663730D01*
X90089024Y-67644987D01*
X90086500Y-67619360D01*
X90086500Y-67180640D01*
X90089024Y-67155013D01*
X90094710Y-67136270D01*
X90103939Y-67119003D01*
X90116365Y-67103862D01*
X90125183Y-67096625D01*
X90142510Y-67079298D01*
X90156123Y-67058924D01*
X90165501Y-67036285D01*
X90170281Y-67012252D01*
X90170281Y-66987748D01*
X90165501Y-66963715D01*
X90156123Y-66941076D01*
X90142509Y-66920701D01*
X90125183Y-66903375D01*
X90116365Y-66896138D01*
X90103939Y-66880997D01*
X90094710Y-66863730D01*
X90089024Y-66844987D01*
X90086500Y-66819360D01*
X90086500Y-66380640D01*
X90089024Y-66355013D01*
X90094710Y-66336270D01*
X90103939Y-66319003D01*
X90116365Y-66303862D01*
X90125183Y-66296625D01*
X90142510Y-66279298D01*
X90156123Y-66258924D01*
X90165501Y-66236285D01*
X90170281Y-66212252D01*
X90170281Y-66187748D01*
X90165501Y-66163715D01*
X90156123Y-66141076D01*
X90142509Y-66120701D01*
X90125183Y-66103375D01*
X90116365Y-66096138D01*
X90103939Y-66080997D01*
X90094710Y-66063730D01*
X90089024Y-66044987D01*
X90086500Y-66019360D01*
X90086500Y-65580640D01*
X90089024Y-65555013D01*
X90094710Y-65536270D01*
X90103939Y-65519003D01*
X90116365Y-65503862D01*
X90125183Y-65496625D01*
X90142510Y-65479298D01*
X90156123Y-65458924D01*
X90165501Y-65436285D01*
X90170281Y-65412252D01*
X90170281Y-65387748D01*
X90165501Y-65363715D01*
X90156123Y-65341076D01*
X90142509Y-65320701D01*
X90125183Y-65303375D01*
X90116365Y-65296138D01*
X90103939Y-65280997D01*
X90094710Y-65263730D01*
X90089024Y-65244987D01*
X90086500Y-65219360D01*
X90086500Y-64780640D01*
X90089024Y-64755013D01*
X90094710Y-64736270D01*
X90103939Y-64719003D01*
X90116365Y-64703862D01*
X90125183Y-64696625D01*
X90142510Y-64679298D01*
X90156123Y-64658924D01*
X90165501Y-64636285D01*
X90170281Y-64612252D01*
X90170281Y-64587748D01*
X90165501Y-64563715D01*
X90156123Y-64541076D01*
X90142509Y-64520701D01*
X90125183Y-64503375D01*
X90116365Y-64496138D01*
X90103939Y-64480997D01*
X90094710Y-64463730D01*
X90089024Y-64444987D01*
X90086500Y-64419360D01*
X90086500Y-63980640D01*
X90089024Y-63955013D01*
X90094710Y-63936270D01*
X90103939Y-63919003D01*
X90116365Y-63903862D01*
X90125183Y-63896625D01*
X90142510Y-63879298D01*
X90156123Y-63858924D01*
X90165501Y-63836285D01*
X90170281Y-63812252D01*
X90170281Y-63787748D01*
X90165501Y-63763715D01*
X90156123Y-63741076D01*
X90142509Y-63720701D01*
X90125183Y-63703375D01*
X90116365Y-63696138D01*
X90103939Y-63680997D01*
X90094710Y-63663730D01*
X90089024Y-63644987D01*
X90086500Y-63619360D01*
X90086500Y-63180640D01*
X90089024Y-63155013D01*
X90094710Y-63136270D01*
X90103939Y-63119003D01*
X90116365Y-63103862D01*
X90125183Y-63096625D01*
X90142510Y-63079298D01*
X90156123Y-63058924D01*
X90165501Y-63036285D01*
X90170281Y-63012252D01*
X90170281Y-62987748D01*
X90165501Y-62963715D01*
X90156123Y-62941076D01*
X90142509Y-62920701D01*
X90125183Y-62903375D01*
X90116365Y-62896138D01*
X90103939Y-62880997D01*
X90094710Y-62863730D01*
X90089024Y-62844987D01*
X90086500Y-62819360D01*
X90086500Y-62380640D01*
X90089024Y-62355013D01*
X90094710Y-62336270D01*
X90103939Y-62319003D01*
X90116365Y-62303862D01*
X90125183Y-62296625D01*
X90142510Y-62279298D01*
X90156123Y-62258924D01*
X90165501Y-62236285D01*
X90170281Y-62212252D01*
X90170281Y-62187748D01*
X90165501Y-62163715D01*
X90156123Y-62141076D01*
X90142509Y-62120701D01*
X90125183Y-62103375D01*
X90116365Y-62096138D01*
X90103939Y-62080997D01*
X90094710Y-62063730D01*
X90089024Y-62044987D01*
X90086500Y-62019360D01*
X90086500Y-61580640D01*
X90089024Y-61555013D01*
X90094710Y-61536270D01*
X90103939Y-61519003D01*
X90116365Y-61503862D01*
X90125183Y-61496625D01*
X90142510Y-61479298D01*
X90156123Y-61458924D01*
X90165501Y-61436285D01*
X90170281Y-61412252D01*
X90170281Y-61387748D01*
X90165501Y-61363715D01*
X90156123Y-61341076D01*
X90142509Y-61320701D01*
X90125183Y-61303375D01*
X90116365Y-61296138D01*
X90103939Y-61280997D01*
X90094710Y-61263730D01*
X90089024Y-61244987D01*
X90086500Y-61219360D01*
X90086500Y-60780640D01*
X90089024Y-60755013D01*
X90094710Y-60736270D01*
X90103939Y-60719003D01*
X90116365Y-60703862D01*
X90125183Y-60696625D01*
X90142510Y-60679298D01*
X90156123Y-60658924D01*
X90165501Y-60636285D01*
X90170281Y-60612252D01*
X90170281Y-60587748D01*
X90165501Y-60563715D01*
X90156123Y-60541076D01*
X90142509Y-60520701D01*
X90125183Y-60503375D01*
X90116365Y-60496138D01*
X90103939Y-60480997D01*
X90094710Y-60463730D01*
X90089024Y-60444987D01*
X90086500Y-60419360D01*
X90086500Y-59980640D01*
X90089024Y-59955013D01*
X90094710Y-59936270D01*
X90103939Y-59919003D01*
X90116364Y-59903864D01*
X90131503Y-59891439D01*
X90148770Y-59882210D01*
X90167513Y-59876524D01*
X90193140Y-59874000D01*
X91606860Y-59874000D01*
X91632487Y-59876524D01*
X91632487Y-59876524D01*
G37*
G36*
X80860442Y-64575518D02*
G01*
X80926627Y-64582037D01*
X81096466Y-64633557D01*
X81252991Y-64717222D01*
X81276201Y-64736270D01*
X81390186Y-64829814D01*
X81473448Y-64931271D01*
X81502778Y-64967009D01*
X81586443Y-65123534D01*
X81637963Y-65293373D01*
X81655359Y-65470000D01*
X81637963Y-65646627D01*
X81586443Y-65816466D01*
X81502778Y-65972991D01*
X81473448Y-66008729D01*
X81390186Y-66110186D01*
X81295675Y-66187748D01*
X81252991Y-66222778D01*
X81252989Y-66222779D01*
X81147249Y-66279299D01*
X81096466Y-66306443D01*
X80926627Y-66357963D01*
X80860443Y-66364481D01*
X80794260Y-66371000D01*
X80705740Y-66371000D01*
X80639557Y-66364481D01*
X80573373Y-66357963D01*
X80403534Y-66306443D01*
X80352752Y-66279299D01*
X80247011Y-66222779D01*
X80247009Y-66222778D01*
X80204325Y-66187748D01*
X80109814Y-66110186D01*
X80026552Y-66008729D01*
X79997222Y-65972991D01*
X79913557Y-65816466D01*
X79862037Y-65646627D01*
X79844641Y-65470000D01*
X79862037Y-65293373D01*
X79913557Y-65123534D01*
X79997222Y-64967009D01*
X80026552Y-64931271D01*
X80109814Y-64829814D01*
X80223799Y-64736270D01*
X80247009Y-64717222D01*
X80403534Y-64633557D01*
X80573373Y-64582037D01*
X80639558Y-64575518D01*
X80705740Y-64569000D01*
X80794260Y-64569000D01*
X80860442Y-64575518D01*
X80860442Y-64575518D01*
G37*
G36*
X78320442Y-64575518D02*
G01*
X78386627Y-64582037D01*
X78556466Y-64633557D01*
X78712991Y-64717222D01*
X78736201Y-64736270D01*
X78850186Y-64829814D01*
X78933448Y-64931271D01*
X78962778Y-64967009D01*
X79046443Y-65123534D01*
X79097963Y-65293373D01*
X79115359Y-65470000D01*
X79097963Y-65646627D01*
X79046443Y-65816466D01*
X78962778Y-65972991D01*
X78933448Y-66008729D01*
X78850186Y-66110186D01*
X78755675Y-66187748D01*
X78712991Y-66222778D01*
X78712989Y-66222779D01*
X78607249Y-66279299D01*
X78556466Y-66306443D01*
X78386627Y-66357963D01*
X78320443Y-66364481D01*
X78254260Y-66371000D01*
X78165740Y-66371000D01*
X78099557Y-66364481D01*
X78033373Y-66357963D01*
X77863534Y-66306443D01*
X77812752Y-66279299D01*
X77707011Y-66222779D01*
X77707009Y-66222778D01*
X77664325Y-66187748D01*
X77569814Y-66110186D01*
X77486552Y-66008729D01*
X77457222Y-65972991D01*
X77373557Y-65816466D01*
X77322037Y-65646627D01*
X77304641Y-65470000D01*
X77322037Y-65293373D01*
X77373557Y-65123534D01*
X77457222Y-64967009D01*
X77486552Y-64931271D01*
X77569814Y-64829814D01*
X77683799Y-64736270D01*
X77707009Y-64717222D01*
X77863534Y-64633557D01*
X78033373Y-64582037D01*
X78099558Y-64575518D01*
X78165740Y-64569000D01*
X78254260Y-64569000D01*
X78320442Y-64575518D01*
X78320442Y-64575518D01*
G37*
G36*
X78320442Y-62035518D02*
G01*
X78386627Y-62042037D01*
X78556466Y-62093557D01*
X78556468Y-62093558D01*
X78607250Y-62120702D01*
X78712991Y-62177222D01*
X78748729Y-62206552D01*
X78850186Y-62289814D01*
X78919786Y-62374623D01*
X78962778Y-62427009D01*
X79046443Y-62583534D01*
X79097963Y-62753373D01*
X79115359Y-62930000D01*
X79097963Y-63106627D01*
X79046443Y-63276466D01*
X78962778Y-63432991D01*
X78933448Y-63468729D01*
X78850186Y-63570186D01*
X78759039Y-63644987D01*
X78712991Y-63682778D01*
X78556466Y-63766443D01*
X78386627Y-63817963D01*
X78320443Y-63824481D01*
X78254260Y-63831000D01*
X78165740Y-63831000D01*
X78099557Y-63824481D01*
X78033373Y-63817963D01*
X77863534Y-63766443D01*
X77707009Y-63682778D01*
X77660961Y-63644987D01*
X77569814Y-63570186D01*
X77486552Y-63468729D01*
X77457222Y-63432991D01*
X77373557Y-63276466D01*
X77322037Y-63106627D01*
X77304641Y-62930000D01*
X77322037Y-62753373D01*
X77373557Y-62583534D01*
X77457222Y-62427009D01*
X77500214Y-62374623D01*
X77569814Y-62289814D01*
X77671271Y-62206552D01*
X77707009Y-62177222D01*
X77812750Y-62120702D01*
X77863532Y-62093558D01*
X77863534Y-62093557D01*
X78033373Y-62042037D01*
X78099558Y-62035518D01*
X78165740Y-62029000D01*
X78254260Y-62029000D01*
X78320442Y-62035518D01*
X78320442Y-62035518D01*
G37*
G36*
X80860442Y-62035518D02*
G01*
X80926627Y-62042037D01*
X81096466Y-62093557D01*
X81096468Y-62093558D01*
X81147250Y-62120702D01*
X81252991Y-62177222D01*
X81288729Y-62206552D01*
X81390186Y-62289814D01*
X81459786Y-62374623D01*
X81502778Y-62427009D01*
X81586443Y-62583534D01*
X81637963Y-62753373D01*
X81655359Y-62930000D01*
X81637963Y-63106627D01*
X81586443Y-63276466D01*
X81502778Y-63432991D01*
X81473448Y-63468729D01*
X81390186Y-63570186D01*
X81299039Y-63644987D01*
X81252991Y-63682778D01*
X81096466Y-63766443D01*
X80926627Y-63817963D01*
X80860443Y-63824481D01*
X80794260Y-63831000D01*
X80705740Y-63831000D01*
X80639557Y-63824481D01*
X80573373Y-63817963D01*
X80403534Y-63766443D01*
X80247009Y-63682778D01*
X80200961Y-63644987D01*
X80109814Y-63570186D01*
X80026552Y-63468729D01*
X79997222Y-63432991D01*
X79913557Y-63276466D01*
X79862037Y-63106627D01*
X79844641Y-62930000D01*
X79862037Y-62753373D01*
X79913557Y-62583534D01*
X79997222Y-62427009D01*
X80040214Y-62374623D01*
X80109814Y-62289814D01*
X80211271Y-62206552D01*
X80247009Y-62177222D01*
X80352750Y-62120702D01*
X80403532Y-62093558D01*
X80403534Y-62093557D01*
X80573373Y-62042037D01*
X80639558Y-62035518D01*
X80705740Y-62029000D01*
X80794260Y-62029000D01*
X80860442Y-62035518D01*
X80860442Y-62035518D01*
G37*
G36*
X80860443Y-59495519D02*
G01*
X80926627Y-59502037D01*
X81096466Y-59553557D01*
X81252991Y-59637222D01*
X81288729Y-59666552D01*
X81390186Y-59749814D01*
X81473448Y-59851271D01*
X81502778Y-59887009D01*
X81502779Y-59887011D01*
X81582951Y-60037000D01*
X81586443Y-60043534D01*
X81637963Y-60213373D01*
X81655359Y-60390000D01*
X81637963Y-60566627D01*
X81586443Y-60736466D01*
X81502778Y-60892991D01*
X81473448Y-60928729D01*
X81390186Y-61030186D01*
X81288729Y-61113448D01*
X81252991Y-61142778D01*
X81096466Y-61226443D01*
X80926627Y-61277963D01*
X80860442Y-61284482D01*
X80794260Y-61291000D01*
X80705740Y-61291000D01*
X80639558Y-61284482D01*
X80573373Y-61277963D01*
X80403534Y-61226443D01*
X80247009Y-61142778D01*
X80211271Y-61113448D01*
X80109814Y-61030186D01*
X80026552Y-60928729D01*
X79997222Y-60892991D01*
X79913557Y-60736466D01*
X79862037Y-60566627D01*
X79844641Y-60390000D01*
X79862037Y-60213373D01*
X79913557Y-60043534D01*
X79917050Y-60037000D01*
X79997221Y-59887011D01*
X79997222Y-59887009D01*
X80026552Y-59851271D01*
X80109814Y-59749814D01*
X80211271Y-59666552D01*
X80247009Y-59637222D01*
X80403534Y-59553557D01*
X80573373Y-59502037D01*
X80639557Y-59495519D01*
X80705740Y-59489000D01*
X80794260Y-59489000D01*
X80860443Y-59495519D01*
X80860443Y-59495519D01*
G37*
G36*
X78320443Y-59495519D02*
G01*
X78386627Y-59502037D01*
X78556466Y-59553557D01*
X78712991Y-59637222D01*
X78748729Y-59666552D01*
X78850186Y-59749814D01*
X78933448Y-59851271D01*
X78962778Y-59887009D01*
X78962779Y-59887011D01*
X79042951Y-60037000D01*
X79046443Y-60043534D01*
X79097963Y-60213373D01*
X79115359Y-60390000D01*
X79097963Y-60566627D01*
X79046443Y-60736466D01*
X78962778Y-60892991D01*
X78933448Y-60928729D01*
X78850186Y-61030186D01*
X78748729Y-61113448D01*
X78712991Y-61142778D01*
X78556466Y-61226443D01*
X78386627Y-61277963D01*
X78320442Y-61284482D01*
X78254260Y-61291000D01*
X78165740Y-61291000D01*
X78099558Y-61284482D01*
X78033373Y-61277963D01*
X77863534Y-61226443D01*
X77707009Y-61142778D01*
X77671271Y-61113448D01*
X77569814Y-61030186D01*
X77486552Y-60928729D01*
X77457222Y-60892991D01*
X77373557Y-60736466D01*
X77322037Y-60566627D01*
X77304641Y-60390000D01*
X77322037Y-60213373D01*
X77373557Y-60043534D01*
X77377050Y-60037000D01*
X77457221Y-59887011D01*
X77457222Y-59887009D01*
X77486552Y-59851271D01*
X77569814Y-59749814D01*
X77671271Y-59666552D01*
X77707009Y-59637222D01*
X77863534Y-59553557D01*
X78033373Y-59502037D01*
X78099557Y-59495519D01*
X78165740Y-59489000D01*
X78254260Y-59489000D01*
X78320443Y-59495519D01*
X78320443Y-59495519D01*
G37*
G36*
X78320443Y-56955519D02*
G01*
X78386627Y-56962037D01*
X78556466Y-57013557D01*
X78712991Y-57097222D01*
X78748729Y-57126552D01*
X78850186Y-57209814D01*
X78921029Y-57296138D01*
X78962778Y-57347009D01*
X78962779Y-57347011D01*
X79033489Y-57479298D01*
X79046443Y-57503534D01*
X79097963Y-57673373D01*
X79115359Y-57850000D01*
X79097963Y-58026627D01*
X79046443Y-58196466D01*
X78962778Y-58352991D01*
X78933448Y-58388729D01*
X78850186Y-58490186D01*
X78748729Y-58573448D01*
X78712991Y-58602778D01*
X78556466Y-58686443D01*
X78386627Y-58737963D01*
X78320442Y-58744482D01*
X78254260Y-58751000D01*
X78165740Y-58751000D01*
X78099558Y-58744482D01*
X78033373Y-58737963D01*
X77863534Y-58686443D01*
X77707009Y-58602778D01*
X77671271Y-58573448D01*
X77569814Y-58490186D01*
X77486552Y-58388729D01*
X77457222Y-58352991D01*
X77373557Y-58196466D01*
X77322037Y-58026627D01*
X77304641Y-57850000D01*
X77322037Y-57673373D01*
X77373557Y-57503534D01*
X77386512Y-57479298D01*
X77457221Y-57347011D01*
X77457222Y-57347009D01*
X77498971Y-57296138D01*
X77569814Y-57209814D01*
X77671271Y-57126552D01*
X77707009Y-57097222D01*
X77863534Y-57013557D01*
X78033373Y-56962037D01*
X78099557Y-56955519D01*
X78165740Y-56949000D01*
X78254260Y-56949000D01*
X78320443Y-56955519D01*
X78320443Y-56955519D01*
G37*
G36*
X80860443Y-56955519D02*
G01*
X80926627Y-56962037D01*
X81096466Y-57013557D01*
X81252991Y-57097222D01*
X81288729Y-57126552D01*
X81390186Y-57209814D01*
X81461029Y-57296138D01*
X81502778Y-57347009D01*
X81502779Y-57347011D01*
X81573489Y-57479298D01*
X81586443Y-57503534D01*
X81637963Y-57673373D01*
X81655359Y-57850000D01*
X81637963Y-58026627D01*
X81586443Y-58196466D01*
X81502778Y-58352991D01*
X81473448Y-58388729D01*
X81390186Y-58490186D01*
X81288729Y-58573448D01*
X81252991Y-58602778D01*
X81096466Y-58686443D01*
X80926627Y-58737963D01*
X80860442Y-58744482D01*
X80794260Y-58751000D01*
X80705740Y-58751000D01*
X80639558Y-58744482D01*
X80573373Y-58737963D01*
X80403534Y-58686443D01*
X80247009Y-58602778D01*
X80211271Y-58573448D01*
X80109814Y-58490186D01*
X80026552Y-58388729D01*
X79997222Y-58352991D01*
X79913557Y-58196466D01*
X79862037Y-58026627D01*
X79844641Y-57850000D01*
X79862037Y-57673373D01*
X79913557Y-57503534D01*
X79926512Y-57479298D01*
X79997221Y-57347011D01*
X79997222Y-57347009D01*
X80038971Y-57296138D01*
X80109814Y-57209814D01*
X80211271Y-57126552D01*
X80247009Y-57097222D01*
X80403534Y-57013557D01*
X80573373Y-56962037D01*
X80639557Y-56955519D01*
X80705740Y-56949000D01*
X80794260Y-56949000D01*
X80860443Y-56955519D01*
X80860443Y-56955519D01*
G37*
G36*
X91632487Y-50276524D02*
G01*
X91651230Y-50282210D01*
X91668497Y-50291439D01*
X91683636Y-50303864D01*
X91696061Y-50319003D01*
X91705290Y-50336270D01*
X91710976Y-50355013D01*
X91713500Y-50380640D01*
X91713500Y-50819360D01*
X91710976Y-50844987D01*
X91705290Y-50863730D01*
X91696061Y-50880997D01*
X91683635Y-50896138D01*
X91674817Y-50903375D01*
X91657490Y-50920702D01*
X91643877Y-50941076D01*
X91634499Y-50963715D01*
X91629719Y-50987748D01*
X91629719Y-51012252D01*
X91634499Y-51036285D01*
X91643877Y-51058924D01*
X91657491Y-51079299D01*
X91674817Y-51096625D01*
X91683635Y-51103862D01*
X91696061Y-51119003D01*
X91705290Y-51136270D01*
X91710976Y-51155013D01*
X91713500Y-51180640D01*
X91713500Y-51619360D01*
X91710976Y-51644987D01*
X91705290Y-51663730D01*
X91696061Y-51680997D01*
X91683635Y-51696138D01*
X91674817Y-51703375D01*
X91657490Y-51720702D01*
X91643877Y-51741076D01*
X91634499Y-51763715D01*
X91629719Y-51787748D01*
X91629719Y-51812252D01*
X91634499Y-51836285D01*
X91643877Y-51858924D01*
X91657491Y-51879299D01*
X91674817Y-51896625D01*
X91683635Y-51903862D01*
X91696061Y-51919003D01*
X91705290Y-51936270D01*
X91710976Y-51955013D01*
X91713500Y-51980640D01*
X91713500Y-52419360D01*
X91710976Y-52444987D01*
X91705290Y-52463730D01*
X91696061Y-52480997D01*
X91683635Y-52496138D01*
X91674817Y-52503375D01*
X91657490Y-52520702D01*
X91643877Y-52541076D01*
X91634499Y-52563715D01*
X91629719Y-52587748D01*
X91629719Y-52612252D01*
X91634499Y-52636285D01*
X91643877Y-52658924D01*
X91657491Y-52679299D01*
X91674817Y-52696625D01*
X91683635Y-52703862D01*
X91696061Y-52719003D01*
X91705290Y-52736270D01*
X91710976Y-52755013D01*
X91713500Y-52780640D01*
X91713500Y-53219360D01*
X91710976Y-53244987D01*
X91705290Y-53263730D01*
X91696061Y-53280997D01*
X91683635Y-53296138D01*
X91674817Y-53303375D01*
X91657490Y-53320702D01*
X91643877Y-53341076D01*
X91634499Y-53363715D01*
X91629719Y-53387748D01*
X91629719Y-53412252D01*
X91634499Y-53436285D01*
X91643877Y-53458924D01*
X91657491Y-53479299D01*
X91674817Y-53496625D01*
X91683635Y-53503862D01*
X91696061Y-53519003D01*
X91705290Y-53536270D01*
X91710976Y-53555013D01*
X91713500Y-53580640D01*
X91713500Y-54019360D01*
X91710976Y-54044987D01*
X91705290Y-54063730D01*
X91696061Y-54080997D01*
X91683635Y-54096138D01*
X91674817Y-54103375D01*
X91657490Y-54120702D01*
X91643877Y-54141076D01*
X91634499Y-54163715D01*
X91629719Y-54187748D01*
X91629719Y-54212252D01*
X91634499Y-54236285D01*
X91643877Y-54258924D01*
X91657491Y-54279299D01*
X91674817Y-54296625D01*
X91683635Y-54303862D01*
X91696061Y-54319003D01*
X91705290Y-54336270D01*
X91710976Y-54355013D01*
X91713500Y-54380640D01*
X91713500Y-54819360D01*
X91710976Y-54844987D01*
X91705290Y-54863730D01*
X91696061Y-54880997D01*
X91683635Y-54896138D01*
X91674817Y-54903375D01*
X91657490Y-54920702D01*
X91643877Y-54941076D01*
X91634499Y-54963715D01*
X91629719Y-54987748D01*
X91629719Y-55012252D01*
X91634499Y-55036285D01*
X91643877Y-55058924D01*
X91657491Y-55079299D01*
X91674817Y-55096625D01*
X91683635Y-55103862D01*
X91696061Y-55119003D01*
X91705290Y-55136270D01*
X91710976Y-55155013D01*
X91713500Y-55180640D01*
X91713500Y-55619360D01*
X91710976Y-55644987D01*
X91705290Y-55663730D01*
X91696061Y-55680997D01*
X91683635Y-55696138D01*
X91674817Y-55703375D01*
X91657490Y-55720702D01*
X91643877Y-55741076D01*
X91634499Y-55763715D01*
X91629719Y-55787748D01*
X91629719Y-55812252D01*
X91634499Y-55836285D01*
X91643877Y-55858924D01*
X91657491Y-55879299D01*
X91674817Y-55896625D01*
X91683635Y-55903862D01*
X91696061Y-55919003D01*
X91705290Y-55936270D01*
X91710976Y-55955013D01*
X91713500Y-55980640D01*
X91713500Y-56419360D01*
X91710976Y-56444987D01*
X91705290Y-56463730D01*
X91696061Y-56480997D01*
X91683635Y-56496138D01*
X91674817Y-56503375D01*
X91657490Y-56520702D01*
X91643877Y-56541076D01*
X91634499Y-56563715D01*
X91629719Y-56587748D01*
X91629719Y-56612252D01*
X91634499Y-56636285D01*
X91643877Y-56658924D01*
X91657491Y-56679299D01*
X91674817Y-56696625D01*
X91683635Y-56703862D01*
X91696061Y-56719003D01*
X91705290Y-56736270D01*
X91710976Y-56755013D01*
X91713500Y-56780640D01*
X91713500Y-57219360D01*
X91710976Y-57244987D01*
X91705290Y-57263730D01*
X91696061Y-57280997D01*
X91683635Y-57296138D01*
X91674817Y-57303375D01*
X91657490Y-57320702D01*
X91643877Y-57341076D01*
X91634499Y-57363715D01*
X91629719Y-57387748D01*
X91629719Y-57412252D01*
X91634499Y-57436285D01*
X91643877Y-57458924D01*
X91657491Y-57479299D01*
X91674817Y-57496625D01*
X91683635Y-57503862D01*
X91696061Y-57519003D01*
X91705290Y-57536270D01*
X91710976Y-57555013D01*
X91713500Y-57580640D01*
X91713500Y-58019360D01*
X91710976Y-58044987D01*
X91705290Y-58063730D01*
X91696061Y-58080997D01*
X91683636Y-58096136D01*
X91668497Y-58108561D01*
X91651230Y-58117790D01*
X91632487Y-58123476D01*
X91606860Y-58126000D01*
X90193140Y-58126000D01*
X90167513Y-58123476D01*
X90148770Y-58117790D01*
X90131503Y-58108561D01*
X90116364Y-58096136D01*
X90103939Y-58080997D01*
X90094710Y-58063730D01*
X90089024Y-58044987D01*
X90086500Y-58019360D01*
X90086500Y-57580640D01*
X90089024Y-57555013D01*
X90094710Y-57536270D01*
X90103939Y-57519003D01*
X90116365Y-57503862D01*
X90125183Y-57496625D01*
X90142510Y-57479298D01*
X90156123Y-57458924D01*
X90165501Y-57436285D01*
X90170281Y-57412252D01*
X90170281Y-57387748D01*
X90165501Y-57363715D01*
X90156123Y-57341076D01*
X90142509Y-57320701D01*
X90125183Y-57303375D01*
X90116365Y-57296138D01*
X90103939Y-57280997D01*
X90094710Y-57263730D01*
X90089024Y-57244987D01*
X90086500Y-57219360D01*
X90086500Y-56780640D01*
X90089024Y-56755013D01*
X90094710Y-56736270D01*
X90103939Y-56719003D01*
X90116365Y-56703862D01*
X90125183Y-56696625D01*
X90142510Y-56679298D01*
X90156123Y-56658924D01*
X90165501Y-56636285D01*
X90170281Y-56612252D01*
X90170281Y-56587748D01*
X90165501Y-56563715D01*
X90156123Y-56541076D01*
X90142509Y-56520701D01*
X90125183Y-56503375D01*
X90116365Y-56496138D01*
X90103939Y-56480997D01*
X90094710Y-56463730D01*
X90089024Y-56444987D01*
X90086500Y-56419360D01*
X90086500Y-55980640D01*
X90089024Y-55955013D01*
X90094710Y-55936270D01*
X90103939Y-55919003D01*
X90116365Y-55903862D01*
X90125183Y-55896625D01*
X90142510Y-55879298D01*
X90156123Y-55858924D01*
X90165501Y-55836285D01*
X90170281Y-55812252D01*
X90170281Y-55787748D01*
X90165501Y-55763715D01*
X90156123Y-55741076D01*
X90142509Y-55720701D01*
X90125183Y-55703375D01*
X90116365Y-55696138D01*
X90103939Y-55680997D01*
X90094710Y-55663730D01*
X90089024Y-55644987D01*
X90086500Y-55619360D01*
X90086500Y-55180640D01*
X90089024Y-55155013D01*
X90094710Y-55136270D01*
X90103939Y-55119003D01*
X90116365Y-55103862D01*
X90125183Y-55096625D01*
X90142510Y-55079298D01*
X90156123Y-55058924D01*
X90165501Y-55036285D01*
X90170281Y-55012252D01*
X90170281Y-54987748D01*
X90165501Y-54963715D01*
X90156123Y-54941076D01*
X90142509Y-54920701D01*
X90125183Y-54903375D01*
X90116365Y-54896138D01*
X90103939Y-54880997D01*
X90094710Y-54863730D01*
X90089024Y-54844987D01*
X90086500Y-54819360D01*
X90086500Y-54380640D01*
X90089024Y-54355013D01*
X90094710Y-54336270D01*
X90103939Y-54319003D01*
X90116365Y-54303862D01*
X90125183Y-54296625D01*
X90142510Y-54279298D01*
X90156123Y-54258924D01*
X90165501Y-54236285D01*
X90170281Y-54212252D01*
X90170281Y-54187748D01*
X90165501Y-54163715D01*
X90156123Y-54141076D01*
X90142509Y-54120701D01*
X90125183Y-54103375D01*
X90116365Y-54096138D01*
X90103939Y-54080997D01*
X90094710Y-54063730D01*
X90089024Y-54044987D01*
X90086500Y-54019360D01*
X90086500Y-53580640D01*
X90089024Y-53555013D01*
X90094710Y-53536270D01*
X90103939Y-53519003D01*
X90116365Y-53503862D01*
X90125183Y-53496625D01*
X90142510Y-53479298D01*
X90156123Y-53458924D01*
X90165501Y-53436285D01*
X90170281Y-53412252D01*
X90170281Y-53387748D01*
X90165501Y-53363715D01*
X90156123Y-53341076D01*
X90142509Y-53320701D01*
X90125183Y-53303375D01*
X90116365Y-53296138D01*
X90103939Y-53280997D01*
X90094710Y-53263730D01*
X90089024Y-53244987D01*
X90086500Y-53219360D01*
X90086500Y-52780640D01*
X90089024Y-52755013D01*
X90094710Y-52736270D01*
X90103939Y-52719003D01*
X90116365Y-52703862D01*
X90125183Y-52696625D01*
X90142510Y-52679298D01*
X90156123Y-52658924D01*
X90165501Y-52636285D01*
X90170281Y-52612252D01*
X90170281Y-52587748D01*
X90165501Y-52563715D01*
X90156123Y-52541076D01*
X90142509Y-52520701D01*
X90125183Y-52503375D01*
X90116365Y-52496138D01*
X90103939Y-52480997D01*
X90094710Y-52463730D01*
X90089024Y-52444987D01*
X90086500Y-52419360D01*
X90086500Y-51980640D01*
X90089024Y-51955013D01*
X90094710Y-51936270D01*
X90103939Y-51919003D01*
X90116365Y-51903862D01*
X90125183Y-51896625D01*
X90142510Y-51879298D01*
X90156123Y-51858924D01*
X90165501Y-51836285D01*
X90170281Y-51812252D01*
X90170281Y-51787748D01*
X90165501Y-51763715D01*
X90156123Y-51741076D01*
X90142509Y-51720701D01*
X90125183Y-51703375D01*
X90116365Y-51696138D01*
X90103939Y-51680997D01*
X90094710Y-51663730D01*
X90089024Y-51644987D01*
X90086500Y-51619360D01*
X90086500Y-51180640D01*
X90089024Y-51155013D01*
X90094710Y-51136270D01*
X90103939Y-51119003D01*
X90116365Y-51103862D01*
X90125183Y-51096625D01*
X90142510Y-51079298D01*
X90156123Y-51058924D01*
X90165501Y-51036285D01*
X90170281Y-51012252D01*
X90170281Y-50987748D01*
X90165501Y-50963715D01*
X90156123Y-50941076D01*
X90142509Y-50920701D01*
X90125183Y-50903375D01*
X90116365Y-50896138D01*
X90103939Y-50880997D01*
X90094710Y-50863730D01*
X90089024Y-50844987D01*
X90086500Y-50819360D01*
X90086500Y-50380640D01*
X90089024Y-50355013D01*
X90094710Y-50336270D01*
X90103939Y-50319003D01*
X90116364Y-50303864D01*
X90131503Y-50291439D01*
X90148770Y-50282210D01*
X90167513Y-50276524D01*
X90193140Y-50274000D01*
X91606860Y-50274000D01*
X91632487Y-50276524D01*
X91632487Y-50276524D01*
G37*
G36*
X102807487Y-50276524D02*
G01*
X102826230Y-50282210D01*
X102843497Y-50291439D01*
X102858636Y-50303864D01*
X102871061Y-50319003D01*
X102880290Y-50336270D01*
X102885976Y-50355013D01*
X102888500Y-50380640D01*
X102888500Y-50819360D01*
X102885976Y-50844987D01*
X102880290Y-50863730D01*
X102871061Y-50880997D01*
X102858635Y-50896138D01*
X102849817Y-50903375D01*
X102832490Y-50920702D01*
X102818877Y-50941076D01*
X102809499Y-50963715D01*
X102804719Y-50987748D01*
X102804719Y-51012252D01*
X102809499Y-51036285D01*
X102818877Y-51058924D01*
X102832491Y-51079299D01*
X102849817Y-51096625D01*
X102858635Y-51103862D01*
X102871061Y-51119003D01*
X102880290Y-51136270D01*
X102885976Y-51155013D01*
X102888500Y-51180640D01*
X102888500Y-51619360D01*
X102885976Y-51644987D01*
X102880290Y-51663730D01*
X102871061Y-51680997D01*
X102858635Y-51696138D01*
X102849817Y-51703375D01*
X102832490Y-51720702D01*
X102818877Y-51741076D01*
X102809499Y-51763715D01*
X102804719Y-51787748D01*
X102804719Y-51812252D01*
X102809499Y-51836285D01*
X102818877Y-51858924D01*
X102832491Y-51879299D01*
X102849817Y-51896625D01*
X102858635Y-51903862D01*
X102871061Y-51919003D01*
X102880290Y-51936270D01*
X102885976Y-51955013D01*
X102888500Y-51980640D01*
X102888500Y-52419360D01*
X102885976Y-52444987D01*
X102880290Y-52463730D01*
X102871061Y-52480997D01*
X102858635Y-52496138D01*
X102849817Y-52503375D01*
X102832490Y-52520702D01*
X102818877Y-52541076D01*
X102809499Y-52563715D01*
X102804719Y-52587748D01*
X102804719Y-52612252D01*
X102809499Y-52636285D01*
X102818877Y-52658924D01*
X102832491Y-52679299D01*
X102849817Y-52696625D01*
X102858635Y-52703862D01*
X102871061Y-52719003D01*
X102880290Y-52736270D01*
X102885976Y-52755013D01*
X102888500Y-52780640D01*
X102888500Y-53219360D01*
X102885976Y-53244987D01*
X102880290Y-53263730D01*
X102871061Y-53280997D01*
X102858635Y-53296138D01*
X102849817Y-53303375D01*
X102832490Y-53320702D01*
X102818877Y-53341076D01*
X102809499Y-53363715D01*
X102804719Y-53387748D01*
X102804719Y-53412252D01*
X102809499Y-53436285D01*
X102818877Y-53458924D01*
X102832491Y-53479299D01*
X102849817Y-53496625D01*
X102858635Y-53503862D01*
X102871061Y-53519003D01*
X102880290Y-53536270D01*
X102885976Y-53555013D01*
X102888500Y-53580640D01*
X102888500Y-54019360D01*
X102885976Y-54044987D01*
X102880290Y-54063730D01*
X102871061Y-54080997D01*
X102858635Y-54096138D01*
X102849817Y-54103375D01*
X102832490Y-54120702D01*
X102818877Y-54141076D01*
X102809499Y-54163715D01*
X102804719Y-54187748D01*
X102804719Y-54212252D01*
X102809499Y-54236285D01*
X102818877Y-54258924D01*
X102832491Y-54279299D01*
X102849817Y-54296625D01*
X102858635Y-54303862D01*
X102871061Y-54319003D01*
X102880290Y-54336270D01*
X102885976Y-54355013D01*
X102888500Y-54380640D01*
X102888500Y-54819360D01*
X102885976Y-54844987D01*
X102880290Y-54863730D01*
X102871061Y-54880997D01*
X102858635Y-54896138D01*
X102849817Y-54903375D01*
X102832490Y-54920702D01*
X102818877Y-54941076D01*
X102809499Y-54963715D01*
X102804719Y-54987748D01*
X102804719Y-55012252D01*
X102809499Y-55036285D01*
X102818877Y-55058924D01*
X102832491Y-55079299D01*
X102849817Y-55096625D01*
X102858635Y-55103862D01*
X102871061Y-55119003D01*
X102880290Y-55136270D01*
X102885976Y-55155013D01*
X102888500Y-55180640D01*
X102888500Y-55619360D01*
X102885976Y-55644987D01*
X102880290Y-55663730D01*
X102871061Y-55680997D01*
X102858635Y-55696138D01*
X102849817Y-55703375D01*
X102832490Y-55720702D01*
X102818877Y-55741076D01*
X102809499Y-55763715D01*
X102804719Y-55787748D01*
X102804719Y-55812252D01*
X102809499Y-55836285D01*
X102818877Y-55858924D01*
X102832491Y-55879299D01*
X102849817Y-55896625D01*
X102858635Y-55903862D01*
X102871061Y-55919003D01*
X102880290Y-55936270D01*
X102885976Y-55955013D01*
X102888500Y-55980640D01*
X102888500Y-56419360D01*
X102885976Y-56444987D01*
X102880290Y-56463730D01*
X102871061Y-56480997D01*
X102858635Y-56496138D01*
X102849817Y-56503375D01*
X102832490Y-56520702D01*
X102818877Y-56541076D01*
X102809499Y-56563715D01*
X102804719Y-56587748D01*
X102804719Y-56612252D01*
X102809499Y-56636285D01*
X102818877Y-56658924D01*
X102832491Y-56679299D01*
X102849817Y-56696625D01*
X102858635Y-56703862D01*
X102871061Y-56719003D01*
X102880290Y-56736270D01*
X102885976Y-56755013D01*
X102888500Y-56780640D01*
X102888500Y-57219360D01*
X102885976Y-57244987D01*
X102880290Y-57263730D01*
X102871061Y-57280997D01*
X102858635Y-57296138D01*
X102849817Y-57303375D01*
X102832490Y-57320702D01*
X102818877Y-57341076D01*
X102809499Y-57363715D01*
X102804719Y-57387748D01*
X102804719Y-57412252D01*
X102809499Y-57436285D01*
X102818877Y-57458924D01*
X102832491Y-57479299D01*
X102849817Y-57496625D01*
X102858635Y-57503862D01*
X102871061Y-57519003D01*
X102880290Y-57536270D01*
X102885976Y-57555013D01*
X102888500Y-57580640D01*
X102888500Y-58019360D01*
X102885976Y-58044987D01*
X102880290Y-58063730D01*
X102871061Y-58080997D01*
X102858636Y-58096136D01*
X102843497Y-58108561D01*
X102826230Y-58117790D01*
X102807487Y-58123476D01*
X102781860Y-58126000D01*
X101368140Y-58126000D01*
X101342513Y-58123476D01*
X101323770Y-58117790D01*
X101306503Y-58108561D01*
X101291364Y-58096136D01*
X101278939Y-58080997D01*
X101269710Y-58063730D01*
X101264024Y-58044987D01*
X101261500Y-58019360D01*
X101261500Y-57580640D01*
X101264024Y-57555013D01*
X101269710Y-57536270D01*
X101278939Y-57519003D01*
X101291365Y-57503862D01*
X101300183Y-57496625D01*
X101317510Y-57479298D01*
X101331123Y-57458924D01*
X101340501Y-57436285D01*
X101345281Y-57412252D01*
X101345281Y-57387748D01*
X101340501Y-57363715D01*
X101331123Y-57341076D01*
X101317509Y-57320701D01*
X101300183Y-57303375D01*
X101291365Y-57296138D01*
X101278939Y-57280997D01*
X101269710Y-57263730D01*
X101264024Y-57244987D01*
X101261500Y-57219360D01*
X101261500Y-56780640D01*
X101264024Y-56755013D01*
X101269710Y-56736270D01*
X101278939Y-56719003D01*
X101291365Y-56703862D01*
X101300183Y-56696625D01*
X101317510Y-56679298D01*
X101331123Y-56658924D01*
X101340501Y-56636285D01*
X101345281Y-56612252D01*
X101345281Y-56587748D01*
X101340501Y-56563715D01*
X101331123Y-56541076D01*
X101317509Y-56520701D01*
X101300183Y-56503375D01*
X101291365Y-56496138D01*
X101278939Y-56480997D01*
X101269710Y-56463730D01*
X101264024Y-56444987D01*
X101261500Y-56419360D01*
X101261500Y-55980640D01*
X101264024Y-55955013D01*
X101269710Y-55936270D01*
X101278939Y-55919003D01*
X101291365Y-55903862D01*
X101300183Y-55896625D01*
X101317510Y-55879298D01*
X101331123Y-55858924D01*
X101340501Y-55836285D01*
X101345281Y-55812252D01*
X101345281Y-55787748D01*
X101340501Y-55763715D01*
X101331123Y-55741076D01*
X101317509Y-55720701D01*
X101300183Y-55703375D01*
X101291365Y-55696138D01*
X101278939Y-55680997D01*
X101269710Y-55663730D01*
X101264024Y-55644987D01*
X101261500Y-55619360D01*
X101261500Y-55180640D01*
X101264024Y-55155013D01*
X101269710Y-55136270D01*
X101278939Y-55119003D01*
X101291365Y-55103862D01*
X101300183Y-55096625D01*
X101317510Y-55079298D01*
X101331123Y-55058924D01*
X101340501Y-55036285D01*
X101345281Y-55012252D01*
X101345281Y-54987748D01*
X101340501Y-54963715D01*
X101331123Y-54941076D01*
X101317509Y-54920701D01*
X101300183Y-54903375D01*
X101291365Y-54896138D01*
X101278939Y-54880997D01*
X101269710Y-54863730D01*
X101264024Y-54844987D01*
X101261500Y-54819360D01*
X101261500Y-54380640D01*
X101264024Y-54355013D01*
X101269710Y-54336270D01*
X101278939Y-54319003D01*
X101291365Y-54303862D01*
X101300183Y-54296625D01*
X101317510Y-54279298D01*
X101331123Y-54258924D01*
X101340501Y-54236285D01*
X101345281Y-54212252D01*
X101345281Y-54187748D01*
X101340501Y-54163715D01*
X101331123Y-54141076D01*
X101317509Y-54120701D01*
X101300183Y-54103375D01*
X101291365Y-54096138D01*
X101278939Y-54080997D01*
X101269710Y-54063730D01*
X101264024Y-54044987D01*
X101261500Y-54019360D01*
X101261500Y-53580640D01*
X101264024Y-53555013D01*
X101269710Y-53536270D01*
X101278939Y-53519003D01*
X101291365Y-53503862D01*
X101300183Y-53496625D01*
X101317510Y-53479298D01*
X101331123Y-53458924D01*
X101340501Y-53436285D01*
X101345281Y-53412252D01*
X101345281Y-53387748D01*
X101340501Y-53363715D01*
X101331123Y-53341076D01*
X101317509Y-53320701D01*
X101300183Y-53303375D01*
X101291365Y-53296138D01*
X101278939Y-53280997D01*
X101269710Y-53263730D01*
X101264024Y-53244987D01*
X101261500Y-53219360D01*
X101261500Y-52780640D01*
X101264024Y-52755013D01*
X101269710Y-52736270D01*
X101278939Y-52719003D01*
X101291365Y-52703862D01*
X101300183Y-52696625D01*
X101317510Y-52679298D01*
X101331123Y-52658924D01*
X101340501Y-52636285D01*
X101345281Y-52612252D01*
X101345281Y-52587748D01*
X101340501Y-52563715D01*
X101331123Y-52541076D01*
X101317509Y-52520701D01*
X101300183Y-52503375D01*
X101291365Y-52496138D01*
X101278939Y-52480997D01*
X101269710Y-52463730D01*
X101264024Y-52444987D01*
X101261500Y-52419360D01*
X101261500Y-51980640D01*
X101264024Y-51955013D01*
X101269710Y-51936270D01*
X101278939Y-51919003D01*
X101291365Y-51903862D01*
X101300183Y-51896625D01*
X101317510Y-51879298D01*
X101331123Y-51858924D01*
X101340501Y-51836285D01*
X101345281Y-51812252D01*
X101345281Y-51787748D01*
X101340501Y-51763715D01*
X101331123Y-51741076D01*
X101317509Y-51720701D01*
X101300183Y-51703375D01*
X101291365Y-51696138D01*
X101278939Y-51680997D01*
X101269710Y-51663730D01*
X101264024Y-51644987D01*
X101261500Y-51619360D01*
X101261500Y-51180640D01*
X101264024Y-51155013D01*
X101269710Y-51136270D01*
X101278939Y-51119003D01*
X101291365Y-51103862D01*
X101300183Y-51096625D01*
X101317510Y-51079298D01*
X101331123Y-51058924D01*
X101340501Y-51036285D01*
X101345281Y-51012252D01*
X101345281Y-50987748D01*
X101340501Y-50963715D01*
X101331123Y-50941076D01*
X101317509Y-50920701D01*
X101300183Y-50903375D01*
X101291365Y-50896138D01*
X101278939Y-50880997D01*
X101269710Y-50863730D01*
X101264024Y-50844987D01*
X101261500Y-50819360D01*
X101261500Y-50380640D01*
X101264024Y-50355013D01*
X101269710Y-50336270D01*
X101278939Y-50319003D01*
X101291364Y-50303864D01*
X101306503Y-50291439D01*
X101323770Y-50282210D01*
X101342513Y-50276524D01*
X101368140Y-50274000D01*
X102781860Y-50274000D01*
X102807487Y-50276524D01*
X102807487Y-50276524D01*
G37*
G36*
X78320442Y-54415518D02*
G01*
X78386627Y-54422037D01*
X78556466Y-54473557D01*
X78712991Y-54557222D01*
X78748729Y-54586552D01*
X78850186Y-54669814D01*
X78933448Y-54771271D01*
X78962778Y-54807009D01*
X79046443Y-54963534D01*
X79097963Y-55133373D01*
X79115359Y-55310000D01*
X79097963Y-55486627D01*
X79046443Y-55656466D01*
X78962778Y-55812991D01*
X78943661Y-55836285D01*
X78850186Y-55950186D01*
X78783150Y-56005200D01*
X78712991Y-56062778D01*
X78556466Y-56146443D01*
X78386627Y-56197963D01*
X78320443Y-56204481D01*
X78254260Y-56211000D01*
X78165740Y-56211000D01*
X78099557Y-56204481D01*
X78033373Y-56197963D01*
X77863534Y-56146443D01*
X77707009Y-56062778D01*
X77636850Y-56005200D01*
X77569814Y-55950186D01*
X77476339Y-55836285D01*
X77457222Y-55812991D01*
X77373557Y-55656466D01*
X77322037Y-55486627D01*
X77304641Y-55310000D01*
X77322037Y-55133373D01*
X77373557Y-54963534D01*
X77457222Y-54807009D01*
X77486552Y-54771271D01*
X77569814Y-54669814D01*
X77671271Y-54586552D01*
X77707009Y-54557222D01*
X77863534Y-54473557D01*
X78033373Y-54422037D01*
X78099558Y-54415518D01*
X78165740Y-54409000D01*
X78254260Y-54409000D01*
X78320442Y-54415518D01*
X78320442Y-54415518D01*
G37*
G36*
X80860442Y-54415518D02*
G01*
X80926627Y-54422037D01*
X81096466Y-54473557D01*
X81252991Y-54557222D01*
X81288729Y-54586552D01*
X81390186Y-54669814D01*
X81473448Y-54771271D01*
X81502778Y-54807009D01*
X81586443Y-54963534D01*
X81637963Y-55133373D01*
X81655359Y-55310000D01*
X81637963Y-55486627D01*
X81586443Y-55656466D01*
X81502778Y-55812991D01*
X81483661Y-55836285D01*
X81390186Y-55950186D01*
X81323150Y-56005200D01*
X81252991Y-56062778D01*
X81096466Y-56146443D01*
X80926627Y-56197963D01*
X80860443Y-56204481D01*
X80794260Y-56211000D01*
X80705740Y-56211000D01*
X80639557Y-56204481D01*
X80573373Y-56197963D01*
X80403534Y-56146443D01*
X80247009Y-56062778D01*
X80176850Y-56005200D01*
X80109814Y-55950186D01*
X80016339Y-55836285D01*
X79997222Y-55812991D01*
X79913557Y-55656466D01*
X79862037Y-55486627D01*
X79844641Y-55310000D01*
X79862037Y-55133373D01*
X79913557Y-54963534D01*
X79997222Y-54807009D01*
X80026552Y-54771271D01*
X80109814Y-54669814D01*
X80211271Y-54586552D01*
X80247009Y-54557222D01*
X80403534Y-54473557D01*
X80573373Y-54422037D01*
X80639558Y-54415518D01*
X80705740Y-54409000D01*
X80794260Y-54409000D01*
X80860442Y-54415518D01*
X80860442Y-54415518D01*
G37*
G36*
X78305025Y-51874000D02*
G01*
X78386627Y-51882037D01*
X78556466Y-51933557D01*
X78712991Y-52017222D01*
X78737090Y-52037000D01*
X78850186Y-52129814D01*
X78933448Y-52231271D01*
X78962778Y-52267009D01*
X79046443Y-52423534D01*
X79097963Y-52593373D01*
X79115359Y-52770000D01*
X79097963Y-52946627D01*
X79046443Y-53116466D01*
X78962778Y-53272991D01*
X78937842Y-53303375D01*
X78850186Y-53410186D01*
X78765970Y-53479299D01*
X78712991Y-53522778D01*
X78712989Y-53522779D01*
X78558792Y-53605200D01*
X78556466Y-53606443D01*
X78386627Y-53657963D01*
X78320443Y-53664481D01*
X78254260Y-53671000D01*
X78165740Y-53671000D01*
X78099557Y-53664481D01*
X78033373Y-53657963D01*
X77863534Y-53606443D01*
X77861209Y-53605200D01*
X77707011Y-53522779D01*
X77707009Y-53522778D01*
X77654030Y-53479299D01*
X77569814Y-53410186D01*
X77482158Y-53303375D01*
X77457222Y-53272991D01*
X77373557Y-53116466D01*
X77322037Y-52946627D01*
X77304641Y-52770000D01*
X77322037Y-52593373D01*
X77373557Y-52423534D01*
X77457222Y-52267009D01*
X77486552Y-52231271D01*
X77569814Y-52129814D01*
X77682910Y-52037000D01*
X77707009Y-52017222D01*
X77863534Y-51933557D01*
X78033373Y-51882037D01*
X78114975Y-51874000D01*
X78165740Y-51869000D01*
X78254260Y-51869000D01*
X78305025Y-51874000D01*
X78305025Y-51874000D01*
G37*
G36*
X80845025Y-51874000D02*
G01*
X80926627Y-51882037D01*
X81096466Y-51933557D01*
X81252991Y-52017222D01*
X81277090Y-52037000D01*
X81390186Y-52129814D01*
X81473448Y-52231271D01*
X81502778Y-52267009D01*
X81586443Y-52423534D01*
X81637963Y-52593373D01*
X81655359Y-52770000D01*
X81637963Y-52946627D01*
X81586443Y-53116466D01*
X81502778Y-53272991D01*
X81477842Y-53303375D01*
X81390186Y-53410186D01*
X81305970Y-53479299D01*
X81252991Y-53522778D01*
X81252989Y-53522779D01*
X81098792Y-53605200D01*
X81096466Y-53606443D01*
X80926627Y-53657963D01*
X80860443Y-53664481D01*
X80794260Y-53671000D01*
X80705740Y-53671000D01*
X80639557Y-53664481D01*
X80573373Y-53657963D01*
X80403534Y-53606443D01*
X80401209Y-53605200D01*
X80247011Y-53522779D01*
X80247009Y-53522778D01*
X80194030Y-53479299D01*
X80109814Y-53410186D01*
X80022158Y-53303375D01*
X79997222Y-53272991D01*
X79913557Y-53116466D01*
X79862037Y-52946627D01*
X79844641Y-52770000D01*
X79862037Y-52593373D01*
X79913557Y-52423534D01*
X79997222Y-52267009D01*
X80026552Y-52231271D01*
X80109814Y-52129814D01*
X80222910Y-52037000D01*
X80247009Y-52017222D01*
X80403534Y-51933557D01*
X80573373Y-51882037D01*
X80654975Y-51874000D01*
X80705740Y-51869000D01*
X80794260Y-51869000D01*
X80845025Y-51874000D01*
X80845025Y-51874000D01*
G37*
G36*
X78320442Y-49335518D02*
G01*
X78386627Y-49342037D01*
X78556466Y-49393557D01*
X78712991Y-49477222D01*
X78748729Y-49506552D01*
X78850186Y-49589814D01*
X78933448Y-49691271D01*
X78962778Y-49727009D01*
X79046443Y-49883534D01*
X79097963Y-50053373D01*
X79115359Y-50230000D01*
X79097963Y-50406627D01*
X79046443Y-50576466D01*
X78962778Y-50732991D01*
X78938150Y-50763000D01*
X78850186Y-50870186D01*
X78782175Y-50926000D01*
X78712991Y-50982778D01*
X78556466Y-51066443D01*
X78386627Y-51117963D01*
X78320442Y-51124482D01*
X78254260Y-51131000D01*
X78165740Y-51131000D01*
X78099558Y-51124482D01*
X78033373Y-51117963D01*
X77863534Y-51066443D01*
X77707009Y-50982778D01*
X77637825Y-50926000D01*
X77569814Y-50870186D01*
X77481850Y-50763000D01*
X77457222Y-50732991D01*
X77373557Y-50576466D01*
X77322037Y-50406627D01*
X77304641Y-50230000D01*
X77322037Y-50053373D01*
X77373557Y-49883534D01*
X77457222Y-49727009D01*
X77486552Y-49691271D01*
X77569814Y-49589814D01*
X77671271Y-49506552D01*
X77707009Y-49477222D01*
X77863534Y-49393557D01*
X78033373Y-49342037D01*
X78099557Y-49335519D01*
X78165740Y-49329000D01*
X78254260Y-49329000D01*
X78320442Y-49335518D01*
X78320442Y-49335518D01*
G37*
G36*
X80860442Y-49335518D02*
G01*
X80926627Y-49342037D01*
X81096466Y-49393557D01*
X81252991Y-49477222D01*
X81288729Y-49506552D01*
X81390186Y-49589814D01*
X81473448Y-49691271D01*
X81502778Y-49727009D01*
X81586443Y-49883534D01*
X81637963Y-50053373D01*
X81655359Y-50230000D01*
X81637963Y-50406627D01*
X81586443Y-50576466D01*
X81502778Y-50732991D01*
X81478150Y-50763000D01*
X81390186Y-50870186D01*
X81322175Y-50926000D01*
X81252991Y-50982778D01*
X81096466Y-51066443D01*
X80926627Y-51117963D01*
X80860442Y-51124482D01*
X80794260Y-51131000D01*
X80705740Y-51131000D01*
X80639558Y-51124482D01*
X80573373Y-51117963D01*
X80403534Y-51066443D01*
X80247009Y-50982778D01*
X80177825Y-50926000D01*
X80109814Y-50870186D01*
X80021850Y-50763000D01*
X79997222Y-50732991D01*
X79913557Y-50576466D01*
X79862037Y-50406627D01*
X79844641Y-50230000D01*
X79862037Y-50053373D01*
X79913557Y-49883534D01*
X79997222Y-49727009D01*
X80026552Y-49691271D01*
X80109814Y-49589814D01*
X80211271Y-49506552D01*
X80247009Y-49477222D01*
X80403534Y-49393557D01*
X80573373Y-49342037D01*
X80639557Y-49335519D01*
X80705740Y-49329000D01*
X80794260Y-49329000D01*
X80860442Y-49335518D01*
X80860442Y-49335518D01*
G37*
G36*
X78320442Y-46795518D02*
G01*
X78386627Y-46802037D01*
X78556466Y-46853557D01*
X78712991Y-46937222D01*
X78748729Y-46966552D01*
X78850186Y-47049814D01*
X78933448Y-47151271D01*
X78962778Y-47187009D01*
X79046443Y-47343534D01*
X79097963Y-47513373D01*
X79115359Y-47690000D01*
X79097963Y-47866627D01*
X79046443Y-48036466D01*
X78962778Y-48192991D01*
X78941136Y-48219362D01*
X78850186Y-48330186D01*
X78748729Y-48413448D01*
X78712991Y-48442778D01*
X78556466Y-48526443D01*
X78386627Y-48577963D01*
X78320443Y-48584481D01*
X78254260Y-48591000D01*
X78165740Y-48591000D01*
X78099558Y-48584482D01*
X78033373Y-48577963D01*
X77863534Y-48526443D01*
X77707009Y-48442778D01*
X77671271Y-48413448D01*
X77569814Y-48330186D01*
X77478864Y-48219362D01*
X77457222Y-48192991D01*
X77373557Y-48036466D01*
X77322037Y-47866627D01*
X77304641Y-47690000D01*
X77322037Y-47513373D01*
X77373557Y-47343534D01*
X77457222Y-47187009D01*
X77486552Y-47151271D01*
X77569814Y-47049814D01*
X77671271Y-46966552D01*
X77707009Y-46937222D01*
X77863534Y-46853557D01*
X78033373Y-46802037D01*
X78099558Y-46795518D01*
X78165740Y-46789000D01*
X78254260Y-46789000D01*
X78320442Y-46795518D01*
X78320442Y-46795518D01*
G37*
G36*
X80860442Y-46795518D02*
G01*
X80926627Y-46802037D01*
X81096466Y-46853557D01*
X81252991Y-46937222D01*
X81288729Y-46966552D01*
X81390186Y-47049814D01*
X81473448Y-47151271D01*
X81502778Y-47187009D01*
X81586443Y-47343534D01*
X81637963Y-47513373D01*
X81655359Y-47690000D01*
X81637963Y-47866627D01*
X81586443Y-48036466D01*
X81502778Y-48192991D01*
X81481136Y-48219362D01*
X81390186Y-48330186D01*
X81288729Y-48413448D01*
X81252991Y-48442778D01*
X81096466Y-48526443D01*
X80926627Y-48577963D01*
X80860443Y-48584481D01*
X80794260Y-48591000D01*
X80705740Y-48591000D01*
X80639558Y-48584482D01*
X80573373Y-48577963D01*
X80403534Y-48526443D01*
X80247009Y-48442778D01*
X80211271Y-48413448D01*
X80109814Y-48330186D01*
X80018864Y-48219362D01*
X79997222Y-48192991D01*
X79913557Y-48036466D01*
X79862037Y-47866627D01*
X79844641Y-47690000D01*
X79862037Y-47513373D01*
X79913557Y-47343534D01*
X79997222Y-47187009D01*
X80026552Y-47151271D01*
X80109814Y-47049814D01*
X80211271Y-46966552D01*
X80247009Y-46937222D01*
X80403534Y-46853557D01*
X80573373Y-46802037D01*
X80639558Y-46795518D01*
X80705740Y-46789000D01*
X80794260Y-46789000D01*
X80860442Y-46795518D01*
X80860442Y-46795518D01*
G37*
G36*
X88764499Y-47378445D02*
G01*
X88801995Y-47389820D01*
X88836554Y-47408292D01*
X88866847Y-47433153D01*
X88891708Y-47463446D01*
X88910180Y-47498005D01*
X88921555Y-47535501D01*
X88926000Y-47580638D01*
X88926000Y-48219362D01*
X88921555Y-48264499D01*
X88910180Y-48301995D01*
X88891708Y-48336554D01*
X88866847Y-48366847D01*
X88836554Y-48391708D01*
X88801995Y-48410180D01*
X88764499Y-48421555D01*
X88719362Y-48426000D01*
X87980638Y-48426000D01*
X87935501Y-48421555D01*
X87898005Y-48410180D01*
X87863446Y-48391708D01*
X87833153Y-48366847D01*
X87808292Y-48336554D01*
X87789820Y-48301995D01*
X87778445Y-48264499D01*
X87774000Y-48219362D01*
X87774000Y-47580638D01*
X87778445Y-47535501D01*
X87789820Y-47498005D01*
X87808292Y-47463446D01*
X87833153Y-47433153D01*
X87863446Y-47408292D01*
X87898005Y-47389820D01*
X87935501Y-47378445D01*
X87980638Y-47374000D01*
X88719362Y-47374000D01*
X88764499Y-47378445D01*
X88764499Y-47378445D01*
G37*
G36*
X90514499Y-47378445D02*
G01*
X90551995Y-47389820D01*
X90586554Y-47408292D01*
X90616847Y-47433153D01*
X90641708Y-47463446D01*
X90660180Y-47498005D01*
X90671555Y-47535501D01*
X90676000Y-47580638D01*
X90676000Y-48219362D01*
X90671555Y-48264499D01*
X90660180Y-48301995D01*
X90641708Y-48336554D01*
X90616847Y-48366847D01*
X90586554Y-48391708D01*
X90551995Y-48410180D01*
X90514499Y-48421555D01*
X90469362Y-48426000D01*
X89730638Y-48426000D01*
X89685501Y-48421555D01*
X89648005Y-48410180D01*
X89613446Y-48391708D01*
X89583153Y-48366847D01*
X89558292Y-48336554D01*
X89539820Y-48301995D01*
X89528445Y-48264499D01*
X89524000Y-48219362D01*
X89524000Y-47580638D01*
X89528445Y-47535501D01*
X89539820Y-47498005D01*
X89558292Y-47463446D01*
X89583153Y-47433153D01*
X89613446Y-47408292D01*
X89648005Y-47389820D01*
X89685501Y-47378445D01*
X89730638Y-47374000D01*
X90469362Y-47374000D01*
X90514499Y-47378445D01*
X90514499Y-47378445D01*
G37*
G36*
X80860442Y-44255518D02*
G01*
X80926627Y-44262037D01*
X81096466Y-44313557D01*
X81252991Y-44397222D01*
X81288729Y-44426552D01*
X81390186Y-44509814D01*
X81473448Y-44611271D01*
X81502778Y-44647009D01*
X81586443Y-44803534D01*
X81637963Y-44973373D01*
X81655359Y-45150000D01*
X81637963Y-45326627D01*
X81586443Y-45496466D01*
X81502778Y-45652991D01*
X81473448Y-45688729D01*
X81390186Y-45790186D01*
X81288729Y-45873448D01*
X81252991Y-45902778D01*
X81096466Y-45986443D01*
X80926627Y-46037963D01*
X80860443Y-46044481D01*
X80794260Y-46051000D01*
X80705740Y-46051000D01*
X80639558Y-46044482D01*
X80573373Y-46037963D01*
X80403534Y-45986443D01*
X80247009Y-45902778D01*
X80211271Y-45873448D01*
X80109814Y-45790186D01*
X80026552Y-45688729D01*
X79997222Y-45652991D01*
X79913557Y-45496466D01*
X79862037Y-45326627D01*
X79844641Y-45150000D01*
X79862037Y-44973373D01*
X79913557Y-44803534D01*
X79997222Y-44647009D01*
X80026552Y-44611271D01*
X80109814Y-44509814D01*
X80211271Y-44426552D01*
X80247009Y-44397222D01*
X80403534Y-44313557D01*
X80573373Y-44262037D01*
X80639558Y-44255518D01*
X80705740Y-44249000D01*
X80794260Y-44249000D01*
X80860442Y-44255518D01*
X80860442Y-44255518D01*
G37*
G36*
X78320442Y-44255518D02*
G01*
X78386627Y-44262037D01*
X78556466Y-44313557D01*
X78712991Y-44397222D01*
X78748729Y-44426552D01*
X78850186Y-44509814D01*
X78933448Y-44611271D01*
X78962778Y-44647009D01*
X79046443Y-44803534D01*
X79097963Y-44973373D01*
X79115359Y-45150000D01*
X79097963Y-45326627D01*
X79046443Y-45496466D01*
X78962778Y-45652991D01*
X78933448Y-45688729D01*
X78850186Y-45790186D01*
X78748729Y-45873448D01*
X78712991Y-45902778D01*
X78556466Y-45986443D01*
X78386627Y-46037963D01*
X78320443Y-46044481D01*
X78254260Y-46051000D01*
X78165740Y-46051000D01*
X78099558Y-46044482D01*
X78033373Y-46037963D01*
X77863534Y-45986443D01*
X77707009Y-45902778D01*
X77671271Y-45873448D01*
X77569814Y-45790186D01*
X77486552Y-45688729D01*
X77457222Y-45652991D01*
X77373557Y-45496466D01*
X77322037Y-45326627D01*
X77304641Y-45150000D01*
X77322037Y-44973373D01*
X77373557Y-44803534D01*
X77457222Y-44647009D01*
X77486552Y-44611271D01*
X77569814Y-44509814D01*
X77671271Y-44426552D01*
X77707009Y-44397222D01*
X77863534Y-44313557D01*
X78033373Y-44262037D01*
X78099558Y-44255518D01*
X78165740Y-44249000D01*
X78254260Y-44249000D01*
X78320442Y-44255518D01*
X78320442Y-44255518D01*
G37*
G36*
X78320442Y-41715518D02*
G01*
X78386627Y-41722037D01*
X78556466Y-41773557D01*
X78712991Y-41857222D01*
X78748729Y-41886552D01*
X78850186Y-41969814D01*
X78933448Y-42071271D01*
X78962778Y-42107009D01*
X79046443Y-42263534D01*
X79097963Y-42433373D01*
X79115359Y-42610000D01*
X79097963Y-42786627D01*
X79046443Y-42956466D01*
X78962778Y-43112991D01*
X78933448Y-43148729D01*
X78850186Y-43250186D01*
X78748729Y-43333448D01*
X78712991Y-43362778D01*
X78556466Y-43446443D01*
X78386627Y-43497963D01*
X78320442Y-43504482D01*
X78254260Y-43511000D01*
X78165740Y-43511000D01*
X78099558Y-43504482D01*
X78033373Y-43497963D01*
X77863534Y-43446443D01*
X77707009Y-43362778D01*
X77671271Y-43333448D01*
X77569814Y-43250186D01*
X77486552Y-43148729D01*
X77457222Y-43112991D01*
X77373557Y-42956466D01*
X77322037Y-42786627D01*
X77304641Y-42610000D01*
X77322037Y-42433373D01*
X77373557Y-42263534D01*
X77457222Y-42107009D01*
X77486552Y-42071271D01*
X77569814Y-41969814D01*
X77671271Y-41886552D01*
X77707009Y-41857222D01*
X77863534Y-41773557D01*
X78033373Y-41722037D01*
X78099558Y-41715518D01*
X78165740Y-41709000D01*
X78254260Y-41709000D01*
X78320442Y-41715518D01*
X78320442Y-41715518D01*
G37*
G36*
X80860442Y-41715518D02*
G01*
X80926627Y-41722037D01*
X81096466Y-41773557D01*
X81252991Y-41857222D01*
X81288729Y-41886552D01*
X81390186Y-41969814D01*
X81473448Y-42071271D01*
X81502778Y-42107009D01*
X81586443Y-42263534D01*
X81637963Y-42433373D01*
X81655359Y-42610000D01*
X81637963Y-42786627D01*
X81586443Y-42956466D01*
X81502778Y-43112991D01*
X81473448Y-43148729D01*
X81390186Y-43250186D01*
X81288729Y-43333448D01*
X81252991Y-43362778D01*
X81096466Y-43446443D01*
X80926627Y-43497963D01*
X80860442Y-43504482D01*
X80794260Y-43511000D01*
X80705740Y-43511000D01*
X80639558Y-43504482D01*
X80573373Y-43497963D01*
X80403534Y-43446443D01*
X80247009Y-43362778D01*
X80211271Y-43333448D01*
X80109814Y-43250186D01*
X80026552Y-43148729D01*
X79997222Y-43112991D01*
X79913557Y-42956466D01*
X79862037Y-42786627D01*
X79844641Y-42610000D01*
X79862037Y-42433373D01*
X79913557Y-42263534D01*
X79997222Y-42107009D01*
X80026552Y-42071271D01*
X80109814Y-41969814D01*
X80211271Y-41886552D01*
X80247009Y-41857222D01*
X80403534Y-41773557D01*
X80573373Y-41722037D01*
X80639558Y-41715518D01*
X80705740Y-41709000D01*
X80794260Y-41709000D01*
X80860442Y-41715518D01*
X80860442Y-41715518D01*
G37*
G36*
X80860442Y-39175518D02*
G01*
X80926627Y-39182037D01*
X81096466Y-39233557D01*
X81252991Y-39317222D01*
X81288729Y-39346552D01*
X81390186Y-39429814D01*
X81473448Y-39531271D01*
X81502778Y-39567009D01*
X81586443Y-39723534D01*
X81637963Y-39893373D01*
X81655359Y-40070000D01*
X81637963Y-40246627D01*
X81586443Y-40416466D01*
X81502778Y-40572991D01*
X81473448Y-40608729D01*
X81390186Y-40710186D01*
X81288729Y-40793448D01*
X81252991Y-40822778D01*
X81096466Y-40906443D01*
X80926627Y-40957963D01*
X80860443Y-40964481D01*
X80794260Y-40971000D01*
X80705740Y-40971000D01*
X80639557Y-40964481D01*
X80573373Y-40957963D01*
X80403534Y-40906443D01*
X80247009Y-40822778D01*
X80211271Y-40793448D01*
X80109814Y-40710186D01*
X80026552Y-40608729D01*
X79997222Y-40572991D01*
X79913557Y-40416466D01*
X79862037Y-40246627D01*
X79844641Y-40070000D01*
X79862037Y-39893373D01*
X79913557Y-39723534D01*
X79997222Y-39567009D01*
X80026552Y-39531271D01*
X80109814Y-39429814D01*
X80211271Y-39346552D01*
X80247009Y-39317222D01*
X80403534Y-39233557D01*
X80573373Y-39182037D01*
X80639558Y-39175518D01*
X80705740Y-39169000D01*
X80794260Y-39169000D01*
X80860442Y-39175518D01*
X80860442Y-39175518D01*
G37*
G36*
X78320442Y-39175518D02*
G01*
X78386627Y-39182037D01*
X78556466Y-39233557D01*
X78712991Y-39317222D01*
X78748729Y-39346552D01*
X78850186Y-39429814D01*
X78933448Y-39531271D01*
X78962778Y-39567009D01*
X79046443Y-39723534D01*
X79097963Y-39893373D01*
X79115359Y-40070000D01*
X79097963Y-40246627D01*
X79046443Y-40416466D01*
X78962778Y-40572991D01*
X78933448Y-40608729D01*
X78850186Y-40710186D01*
X78748729Y-40793448D01*
X78712991Y-40822778D01*
X78556466Y-40906443D01*
X78386627Y-40957963D01*
X78320443Y-40964481D01*
X78254260Y-40971000D01*
X78165740Y-40971000D01*
X78099557Y-40964481D01*
X78033373Y-40957963D01*
X77863534Y-40906443D01*
X77707009Y-40822778D01*
X77671271Y-40793448D01*
X77569814Y-40710186D01*
X77486552Y-40608729D01*
X77457222Y-40572991D01*
X77373557Y-40416466D01*
X77322037Y-40246627D01*
X77304641Y-40070000D01*
X77322037Y-39893373D01*
X77373557Y-39723534D01*
X77457222Y-39567009D01*
X77486552Y-39531271D01*
X77569814Y-39429814D01*
X77671271Y-39346552D01*
X77707009Y-39317222D01*
X77863534Y-39233557D01*
X78033373Y-39182037D01*
X78099558Y-39175518D01*
X78165740Y-39169000D01*
X78254260Y-39169000D01*
X78320442Y-39175518D01*
X78320442Y-39175518D01*
G37*
G36*
X92360442Y-37895518D02*
G01*
X92426627Y-37902037D01*
X92596466Y-37953557D01*
X92752991Y-38037222D01*
X92788729Y-38066552D01*
X92890186Y-38149814D01*
X92973448Y-38251271D01*
X93002778Y-38287009D01*
X93086443Y-38443534D01*
X93137963Y-38613373D01*
X93155359Y-38790000D01*
X93137963Y-38966627D01*
X93086443Y-39136466D01*
X93002778Y-39292991D01*
X92982893Y-39317221D01*
X92890186Y-39430186D01*
X92788729Y-39513448D01*
X92752991Y-39542778D01*
X92596466Y-39626443D01*
X92426627Y-39677963D01*
X92360443Y-39684481D01*
X92294260Y-39691000D01*
X92205740Y-39691000D01*
X92139557Y-39684481D01*
X92073373Y-39677963D01*
X91903534Y-39626443D01*
X91747009Y-39542778D01*
X91711271Y-39513448D01*
X91609814Y-39430186D01*
X91517107Y-39317221D01*
X91497222Y-39292991D01*
X91413557Y-39136466D01*
X91362037Y-38966627D01*
X91344641Y-38790000D01*
X91362037Y-38613373D01*
X91413557Y-38443534D01*
X91497222Y-38287009D01*
X91526552Y-38251271D01*
X91609814Y-38149814D01*
X91711271Y-38066552D01*
X91747009Y-38037222D01*
X91903534Y-37953557D01*
X92073373Y-37902037D01*
X92139558Y-37895518D01*
X92205740Y-37889000D01*
X92294260Y-37889000D01*
X92360442Y-37895518D01*
X92360442Y-37895518D01*
G37*
G36*
X80860443Y-36635519D02*
G01*
X80926627Y-36642037D01*
X81096466Y-36693557D01*
X81252991Y-36777222D01*
X81288729Y-36806552D01*
X81390186Y-36889814D01*
X81473448Y-36991271D01*
X81502778Y-37027009D01*
X81586443Y-37183534D01*
X81637963Y-37353373D01*
X81655359Y-37530000D01*
X81637963Y-37706627D01*
X81586443Y-37876466D01*
X81502778Y-38032991D01*
X81473448Y-38068729D01*
X81390186Y-38170186D01*
X81288729Y-38253448D01*
X81252991Y-38282778D01*
X81096466Y-38366443D01*
X80926627Y-38417963D01*
X80860442Y-38424482D01*
X80794260Y-38431000D01*
X80705740Y-38431000D01*
X80639558Y-38424482D01*
X80573373Y-38417963D01*
X80403534Y-38366443D01*
X80247009Y-38282778D01*
X80211271Y-38253448D01*
X80109814Y-38170186D01*
X80026552Y-38068729D01*
X79997222Y-38032991D01*
X79913557Y-37876466D01*
X79862037Y-37706627D01*
X79844641Y-37530000D01*
X79862037Y-37353373D01*
X79913557Y-37183534D01*
X79997222Y-37027009D01*
X80026552Y-36991271D01*
X80109814Y-36889814D01*
X80211271Y-36806552D01*
X80247009Y-36777222D01*
X80403534Y-36693557D01*
X80573373Y-36642037D01*
X80639557Y-36635519D01*
X80705740Y-36629000D01*
X80794260Y-36629000D01*
X80860443Y-36635519D01*
X80860443Y-36635519D01*
G37*
G36*
X78320443Y-36635519D02*
G01*
X78386627Y-36642037D01*
X78556466Y-36693557D01*
X78712991Y-36777222D01*
X78748729Y-36806552D01*
X78850186Y-36889814D01*
X78933448Y-36991271D01*
X78962778Y-37027009D01*
X79046443Y-37183534D01*
X79097963Y-37353373D01*
X79115359Y-37530000D01*
X79097963Y-37706627D01*
X79046443Y-37876466D01*
X78962778Y-38032991D01*
X78933448Y-38068729D01*
X78850186Y-38170186D01*
X78748729Y-38253448D01*
X78712991Y-38282778D01*
X78556466Y-38366443D01*
X78386627Y-38417963D01*
X78320442Y-38424482D01*
X78254260Y-38431000D01*
X78165740Y-38431000D01*
X78099558Y-38424482D01*
X78033373Y-38417963D01*
X77863534Y-38366443D01*
X77707009Y-38282778D01*
X77671271Y-38253448D01*
X77569814Y-38170186D01*
X77486552Y-38068729D01*
X77457222Y-38032991D01*
X77373557Y-37876466D01*
X77322037Y-37706627D01*
X77304641Y-37530000D01*
X77322037Y-37353373D01*
X77373557Y-37183534D01*
X77457222Y-37027009D01*
X77486552Y-36991271D01*
X77569814Y-36889814D01*
X77671271Y-36806552D01*
X77707009Y-36777222D01*
X77863534Y-36693557D01*
X78033373Y-36642037D01*
X78099557Y-36635519D01*
X78165740Y-36629000D01*
X78254260Y-36629000D01*
X78320443Y-36635519D01*
X78320443Y-36635519D01*
G37*
G36*
X93151000Y-37151000D02*
G01*
X91349000Y-37151000D01*
X91349000Y-35349000D01*
X93151000Y-35349000D01*
X93151000Y-37151000D01*
X93151000Y-37151000D01*
G37*
G36*
X78320442Y-34095518D02*
G01*
X78386627Y-34102037D01*
X78556466Y-34153557D01*
X78712991Y-34237222D01*
X78748729Y-34266552D01*
X78850186Y-34349814D01*
X78933448Y-34451271D01*
X78962778Y-34487009D01*
X79046443Y-34643534D01*
X79097963Y-34813373D01*
X79115359Y-34990000D01*
X79097963Y-35166627D01*
X79046443Y-35336466D01*
X78962778Y-35492991D01*
X78933448Y-35528729D01*
X78850186Y-35630186D01*
X78748729Y-35713448D01*
X78712991Y-35742778D01*
X78556466Y-35826443D01*
X78386627Y-35877963D01*
X78320443Y-35884481D01*
X78254260Y-35891000D01*
X78165740Y-35891000D01*
X78099557Y-35884481D01*
X78033373Y-35877963D01*
X77863534Y-35826443D01*
X77707009Y-35742778D01*
X77671271Y-35713448D01*
X77569814Y-35630186D01*
X77486552Y-35528729D01*
X77457222Y-35492991D01*
X77373557Y-35336466D01*
X77322037Y-35166627D01*
X77304641Y-34990000D01*
X77322037Y-34813373D01*
X77373557Y-34643534D01*
X77457222Y-34487009D01*
X77486552Y-34451271D01*
X77569814Y-34349814D01*
X77671271Y-34266552D01*
X77707009Y-34237222D01*
X77863534Y-34153557D01*
X78033373Y-34102037D01*
X78099558Y-34095518D01*
X78165740Y-34089000D01*
X78254260Y-34089000D01*
X78320442Y-34095518D01*
X78320442Y-34095518D01*
G37*
G36*
X80860442Y-34095518D02*
G01*
X80926627Y-34102037D01*
X81096466Y-34153557D01*
X81252991Y-34237222D01*
X81288729Y-34266552D01*
X81390186Y-34349814D01*
X81473448Y-34451271D01*
X81502778Y-34487009D01*
X81586443Y-34643534D01*
X81637963Y-34813373D01*
X81655359Y-34990000D01*
X81637963Y-35166627D01*
X81586443Y-35336466D01*
X81502778Y-35492991D01*
X81473448Y-35528729D01*
X81390186Y-35630186D01*
X81288729Y-35713448D01*
X81252991Y-35742778D01*
X81096466Y-35826443D01*
X80926627Y-35877963D01*
X80860443Y-35884481D01*
X80794260Y-35891000D01*
X80705740Y-35891000D01*
X80639557Y-35884481D01*
X80573373Y-35877963D01*
X80403534Y-35826443D01*
X80247009Y-35742778D01*
X80211271Y-35713448D01*
X80109814Y-35630186D01*
X80026552Y-35528729D01*
X79997222Y-35492991D01*
X79913557Y-35336466D01*
X79862037Y-35166627D01*
X79844641Y-34990000D01*
X79862037Y-34813373D01*
X79913557Y-34643534D01*
X79997222Y-34487009D01*
X80026552Y-34451271D01*
X80109814Y-34349814D01*
X80211271Y-34266552D01*
X80247009Y-34237222D01*
X80403534Y-34153557D01*
X80573373Y-34102037D01*
X80639558Y-34095518D01*
X80705740Y-34089000D01*
X80794260Y-34089000D01*
X80860442Y-34095518D01*
X80860442Y-34095518D01*
G37*
M02*
