M48
INCH,TZ
T1C0.0157
T2C0.0394
%
G90
G05
T1
X29724Y-25394
X29724Y-27835
X29931Y-18425
X32500Y-20886
X32756Y-23976
X33465Y-25591
X33622Y-19390
X33622Y-20000
X33642Y-20492
X33642Y-21181
X34114Y-20886
X34252Y-22835
X34291Y-13701
X34370Y-14961
X34528Y-17953
X34803Y-17560
X34862Y-15925
X35039Y-19921
X35079Y-27047
X35118Y-24961
X35335Y-32776
X35700Y-17425
X36075Y-16925
X36150Y-17425
X36220Y-31102
X36462Y-26019
X36500Y-19150
X36535Y-27402
X36535Y-26535
X36598Y-25619
X36772Y-20276
X36791Y-25276
X36850Y-24803
X37008Y-22835
X37084Y-20708
X37205Y-17008
X37270Y-24331
X37273Y-21069
X37362Y-14764
X37500Y-21398
X37638Y-24016
X38071Y-20776
X38092Y-21169
X38170Y-22053
X38175Y-22483
X38189Y-23622
X38228Y-13740
X38354Y-29004
X38387Y-20541
X38437Y-21359
X38543Y-19961
X38543Y-21929
X38617Y-28335
X38780Y-20551
X39134Y-16220
X39173Y-22126
X39685Y-32795
X40906Y-27598
X40945Y-24331
X40945Y-28701
X41181Y-25866
X41260Y-29488
X41496Y-17087
X41732Y-15157
X41850Y-21693
X42025Y-29125
X42244Y-32795
X42638Y-21654
X42638Y-25787
X42638Y-28071
T2
X30791Y-13776
X30791Y-14776
X30791Y-15776
X30791Y-16776
X30791Y-17776
X30791Y-18776
X30791Y-19776
X30791Y-20776
X30791Y-21776
X30791Y-22776
X30791Y-23776
X30791Y-24776
X30791Y-25776
X30791Y-26776
X30791Y-27776
X30791Y-28776
X30791Y-29776
X30791Y-30776
X30791Y-31776
X30791Y-32776
X31791Y-13776
X31791Y-14776
X31791Y-15776
X31791Y-16776
X31791Y-17776
X31791Y-18776
X31791Y-19776
X31791Y-20776
X31791Y-21776
X31791Y-22776
X31791Y-23776
X31791Y-24776
X31791Y-25776
X31791Y-26776
X31791Y-27776
X31791Y-28776
X31791Y-29776
X31791Y-30776
X31791Y-31776
X31791Y-32776
X36319Y-14272
X36319Y-15272
T0
M30
