G04 #@! TF.GenerationSoftware,KiCad,Pcbnew,(5.1.4)-1*
G04 #@! TF.CreationDate,2019-12-17T11:04:36-05:00*
G04 #@! TF.ProjectId,a500plus-chipram-expansion,61353030-706c-4757-932d-636869707261,rev?*
G04 #@! TF.SameCoordinates,Original*
G04 #@! TF.FileFunction,Soldermask,Top*
G04 #@! TF.FilePolarity,Negative*
%FSLAX46Y46*%
G04 Gerber Fmt 4.6, Leading zero omitted, Abs format (unit mm)*
G04 Created by KiCad (PCBNEW (5.1.4)-1) date 2019-12-17 11:04:36*
%MOMM*%
%LPD*%
G04 APERTURE LIST*
%ADD10C,0.010000*%
%ADD11C,0.100000*%
G04 APERTURE END LIST*
D10*
G36*
X104874311Y-76543663D02*
G01*
X104931159Y-76845215D01*
X105350685Y-77018157D01*
X105602331Y-76847040D01*
X105672805Y-76799395D01*
X105736510Y-76756855D01*
X105790473Y-76721360D01*
X105831720Y-76694855D01*
X105857281Y-76679281D01*
X105864242Y-76675923D01*
X105876782Y-76684559D01*
X105903578Y-76708437D01*
X105941627Y-76744504D01*
X105987926Y-76789712D01*
X106039470Y-76841009D01*
X106093256Y-76895346D01*
X106146282Y-76949673D01*
X106195542Y-77000940D01*
X106238034Y-77046096D01*
X106270754Y-77082091D01*
X106290698Y-77105875D01*
X106295466Y-77113835D01*
X106288604Y-77128510D01*
X106269367Y-77160659D01*
X106239777Y-77207137D01*
X106201857Y-77264801D01*
X106157629Y-77330505D01*
X106132001Y-77367981D01*
X106085288Y-77436413D01*
X106043779Y-77498165D01*
X106009487Y-77550164D01*
X105984427Y-77589337D01*
X105970611Y-77612610D01*
X105968535Y-77617500D01*
X105973242Y-77631400D01*
X105986070Y-77663795D01*
X106005085Y-77710130D01*
X106028350Y-77765851D01*
X106053931Y-77826403D01*
X106079892Y-77887231D01*
X106104297Y-77943781D01*
X106125210Y-77991497D01*
X106140696Y-78025826D01*
X106148819Y-78042213D01*
X106149299Y-78042857D01*
X106162054Y-78045986D01*
X106196024Y-78052966D01*
X106247687Y-78063112D01*
X106313523Y-78075737D01*
X106390011Y-78090154D01*
X106434637Y-78098468D01*
X106516368Y-78114029D01*
X106590190Y-78128837D01*
X106652368Y-78142081D01*
X106699169Y-78152950D01*
X106726856Y-78160634D01*
X106732421Y-78163072D01*
X106737873Y-78179575D01*
X106742271Y-78216845D01*
X106745619Y-78270525D01*
X106747921Y-78336257D01*
X106749179Y-78409682D01*
X106749395Y-78486441D01*
X106748574Y-78562177D01*
X106746718Y-78632531D01*
X106743829Y-78693145D01*
X106739912Y-78739661D01*
X106734969Y-78767720D01*
X106732004Y-78773561D01*
X106714281Y-78780562D01*
X106676728Y-78790572D01*
X106624311Y-78802414D01*
X106561999Y-78814912D01*
X106540247Y-78818955D01*
X106435371Y-78838165D01*
X106352527Y-78853636D01*
X106288977Y-78865982D01*
X106241984Y-78875818D01*
X106208810Y-78883759D01*
X106186718Y-78890421D01*
X106172971Y-78896418D01*
X106164831Y-78902364D01*
X106163692Y-78903539D01*
X106152324Y-78922471D01*
X106134982Y-78959314D01*
X106113397Y-79009558D01*
X106089301Y-79068691D01*
X106064426Y-79132201D01*
X106040504Y-79195577D01*
X106019266Y-79254307D01*
X106002444Y-79303880D01*
X105991769Y-79339784D01*
X105988974Y-79357507D01*
X105989207Y-79358128D01*
X105998678Y-79372615D01*
X106020165Y-79404489D01*
X106051410Y-79450434D01*
X106090154Y-79507130D01*
X106134140Y-79571262D01*
X106146666Y-79589487D01*
X106191331Y-79655559D01*
X106230635Y-79715845D01*
X106262435Y-79766880D01*
X106284592Y-79805205D01*
X106294964Y-79827356D01*
X106295466Y-79830077D01*
X106286752Y-79844381D01*
X106262672Y-79872717D01*
X106226323Y-79912041D01*
X106180800Y-79959306D01*
X106129199Y-80011468D01*
X106074614Y-80065480D01*
X106020141Y-80118298D01*
X105968876Y-80166876D01*
X105923914Y-80208168D01*
X105888351Y-80239130D01*
X105865282Y-80256715D01*
X105858901Y-80259586D01*
X105844046Y-80252823D01*
X105813633Y-80234584D01*
X105772615Y-80207942D01*
X105741056Y-80186497D01*
X105683872Y-80147148D01*
X105616153Y-80100816D01*
X105548227Y-80054558D01*
X105511708Y-80029800D01*
X105388099Y-79946192D01*
X105284338Y-80002295D01*
X105237067Y-80026873D01*
X105196870Y-80045976D01*
X105169673Y-80056872D01*
X105162749Y-80058388D01*
X105154424Y-80047194D01*
X105138001Y-80015562D01*
X105114704Y-79966410D01*
X105085761Y-79902655D01*
X105052397Y-79827216D01*
X105015838Y-79743009D01*
X104977311Y-79652953D01*
X104938041Y-79559966D01*
X104899255Y-79466965D01*
X104862177Y-79376868D01*
X104828036Y-79292593D01*
X104798055Y-79217058D01*
X104773463Y-79153179D01*
X104755483Y-79103876D01*
X104745344Y-79072066D01*
X104743713Y-79061141D01*
X104756638Y-79047206D01*
X104784936Y-79024585D01*
X104822693Y-78997978D01*
X104825862Y-78995873D01*
X104923447Y-78917759D01*
X105002133Y-78826627D01*
X105061238Y-78725390D01*
X105100079Y-78616963D01*
X105117975Y-78504259D01*
X105114244Y-78390193D01*
X105088204Y-78277679D01*
X105039172Y-78169630D01*
X105024747Y-78145990D01*
X104949716Y-78050532D01*
X104861077Y-77973877D01*
X104761896Y-77916425D01*
X104655242Y-77878574D01*
X104544183Y-77860723D01*
X104431786Y-77863270D01*
X104321120Y-77886615D01*
X104215253Y-77931155D01*
X104117252Y-77997290D01*
X104086937Y-78024132D01*
X104009785Y-78108157D01*
X103953565Y-78196611D01*
X103915000Y-78295760D01*
X103893521Y-78393948D01*
X103888219Y-78504342D01*
X103905899Y-78615285D01*
X103944766Y-78723026D01*
X104003024Y-78823814D01*
X104078878Y-78913901D01*
X104170530Y-78989537D01*
X104182575Y-78997509D01*
X104220736Y-79023619D01*
X104249746Y-79046240D01*
X104263615Y-79060684D01*
X104263816Y-79061141D01*
X104260839Y-79076766D01*
X104249036Y-79112227D01*
X104229633Y-79164607D01*
X104203859Y-79230990D01*
X104172938Y-79308459D01*
X104138098Y-79394095D01*
X104100564Y-79484982D01*
X104061564Y-79578204D01*
X104022324Y-79670842D01*
X103984071Y-79759980D01*
X103948030Y-79842700D01*
X103915430Y-79916086D01*
X103887495Y-79977220D01*
X103865452Y-80023186D01*
X103850529Y-80051066D01*
X103844519Y-80058388D01*
X103826156Y-80052686D01*
X103791795Y-80037394D01*
X103747363Y-80015244D01*
X103722930Y-80002295D01*
X103619169Y-79946192D01*
X103495560Y-80029800D01*
X103432461Y-80072632D01*
X103363377Y-80119767D01*
X103298640Y-80164148D01*
X103266213Y-80186497D01*
X103220606Y-80217122D01*
X103181987Y-80241392D01*
X103155395Y-80256232D01*
X103146757Y-80259369D01*
X103134186Y-80250906D01*
X103106363Y-80227281D01*
X103065986Y-80190947D01*
X103015752Y-80144356D01*
X102958359Y-80089962D01*
X102922061Y-80055037D01*
X102858557Y-79992641D01*
X102803674Y-79936833D01*
X102759633Y-79889999D01*
X102728652Y-79854527D01*
X102712949Y-79832806D01*
X102711442Y-79828397D01*
X102718433Y-79811630D01*
X102737753Y-79777727D01*
X102767256Y-79730121D01*
X102804802Y-79672244D01*
X102848247Y-79607529D01*
X102860602Y-79589487D01*
X102905620Y-79523912D01*
X102946007Y-79464873D01*
X102979507Y-79415687D01*
X103003861Y-79379673D01*
X103016811Y-79360147D01*
X103018062Y-79358128D01*
X103016191Y-79342567D01*
X103006260Y-79308354D01*
X102990000Y-79260000D01*
X102969142Y-79202016D01*
X102945420Y-79138915D01*
X102920563Y-79075208D01*
X102896305Y-79015406D01*
X102874376Y-78964021D01*
X102856509Y-78925564D01*
X102844434Y-78904547D01*
X102843576Y-78903539D01*
X102836193Y-78897533D01*
X102823722Y-78891593D01*
X102803427Y-78885105D01*
X102772569Y-78877454D01*
X102728413Y-78868025D01*
X102668221Y-78856204D01*
X102589254Y-78841374D01*
X102488777Y-78822922D01*
X102467022Y-78818955D01*
X102402545Y-78806498D01*
X102346336Y-78794311D01*
X102303360Y-78783571D01*
X102278587Y-78775454D01*
X102275265Y-78773561D01*
X102269791Y-78756783D01*
X102265341Y-78719290D01*
X102261919Y-78665439D01*
X102259528Y-78599589D01*
X102258170Y-78526098D01*
X102257848Y-78449325D01*
X102258566Y-78373628D01*
X102260326Y-78303365D01*
X102263131Y-78242895D01*
X102266985Y-78196575D01*
X102271890Y-78168764D01*
X102274847Y-78163072D01*
X102291310Y-78157331D01*
X102328796Y-78147990D01*
X102383572Y-78135860D01*
X102451902Y-78121752D01*
X102530053Y-78106475D01*
X102572631Y-78098468D01*
X102653418Y-78083366D01*
X102725460Y-78069685D01*
X102785236Y-78058112D01*
X102829226Y-78049332D01*
X102853908Y-78044032D01*
X102857970Y-78042857D01*
X102864836Y-78029610D01*
X102879349Y-77997702D01*
X102899576Y-77951692D01*
X102923581Y-77896137D01*
X102949429Y-77835598D01*
X102975187Y-77774631D01*
X102998920Y-77717796D01*
X103018693Y-77669651D01*
X103032571Y-77634755D01*
X103038621Y-77617666D01*
X103038733Y-77616919D01*
X103031875Y-77603438D01*
X103012649Y-77572415D01*
X102983075Y-77526934D01*
X102945174Y-77470077D01*
X102900967Y-77404928D01*
X102875268Y-77367507D01*
X102828440Y-77298892D01*
X102786848Y-77236597D01*
X102752522Y-77183774D01*
X102727490Y-77143572D01*
X102713782Y-77119145D01*
X102711803Y-77113669D01*
X102720313Y-77100923D01*
X102743840Y-77073708D01*
X102779379Y-77035073D01*
X102823924Y-76988068D01*
X102874470Y-76935740D01*
X102928011Y-76881140D01*
X102981542Y-76827315D01*
X103032058Y-76777315D01*
X103076553Y-76734188D01*
X103112022Y-76700984D01*
X103135460Y-76680751D01*
X103143301Y-76675923D01*
X103156067Y-76682712D01*
X103186603Y-76701787D01*
X103231937Y-76731206D01*
X103289103Y-76769026D01*
X103355131Y-76813306D01*
X103404937Y-76847040D01*
X103656583Y-77018157D01*
X103866346Y-76931686D01*
X104076110Y-76845215D01*
X104132958Y-76543663D01*
X104189807Y-76242111D01*
X104817462Y-76242111D01*
X104874311Y-76543663D01*
X104874311Y-76543663D01*
G37*
X104874311Y-76543663D02*
X104931159Y-76845215D01*
X105350685Y-77018157D01*
X105602331Y-76847040D01*
X105672805Y-76799395D01*
X105736510Y-76756855D01*
X105790473Y-76721360D01*
X105831720Y-76694855D01*
X105857281Y-76679281D01*
X105864242Y-76675923D01*
X105876782Y-76684559D01*
X105903578Y-76708437D01*
X105941627Y-76744504D01*
X105987926Y-76789712D01*
X106039470Y-76841009D01*
X106093256Y-76895346D01*
X106146282Y-76949673D01*
X106195542Y-77000940D01*
X106238034Y-77046096D01*
X106270754Y-77082091D01*
X106290698Y-77105875D01*
X106295466Y-77113835D01*
X106288604Y-77128510D01*
X106269367Y-77160659D01*
X106239777Y-77207137D01*
X106201857Y-77264801D01*
X106157629Y-77330505D01*
X106132001Y-77367981D01*
X106085288Y-77436413D01*
X106043779Y-77498165D01*
X106009487Y-77550164D01*
X105984427Y-77589337D01*
X105970611Y-77612610D01*
X105968535Y-77617500D01*
X105973242Y-77631400D01*
X105986070Y-77663795D01*
X106005085Y-77710130D01*
X106028350Y-77765851D01*
X106053931Y-77826403D01*
X106079892Y-77887231D01*
X106104297Y-77943781D01*
X106125210Y-77991497D01*
X106140696Y-78025826D01*
X106148819Y-78042213D01*
X106149299Y-78042857D01*
X106162054Y-78045986D01*
X106196024Y-78052966D01*
X106247687Y-78063112D01*
X106313523Y-78075737D01*
X106390011Y-78090154D01*
X106434637Y-78098468D01*
X106516368Y-78114029D01*
X106590190Y-78128837D01*
X106652368Y-78142081D01*
X106699169Y-78152950D01*
X106726856Y-78160634D01*
X106732421Y-78163072D01*
X106737873Y-78179575D01*
X106742271Y-78216845D01*
X106745619Y-78270525D01*
X106747921Y-78336257D01*
X106749179Y-78409682D01*
X106749395Y-78486441D01*
X106748574Y-78562177D01*
X106746718Y-78632531D01*
X106743829Y-78693145D01*
X106739912Y-78739661D01*
X106734969Y-78767720D01*
X106732004Y-78773561D01*
X106714281Y-78780562D01*
X106676728Y-78790572D01*
X106624311Y-78802414D01*
X106561999Y-78814912D01*
X106540247Y-78818955D01*
X106435371Y-78838165D01*
X106352527Y-78853636D01*
X106288977Y-78865982D01*
X106241984Y-78875818D01*
X106208810Y-78883759D01*
X106186718Y-78890421D01*
X106172971Y-78896418D01*
X106164831Y-78902364D01*
X106163692Y-78903539D01*
X106152324Y-78922471D01*
X106134982Y-78959314D01*
X106113397Y-79009558D01*
X106089301Y-79068691D01*
X106064426Y-79132201D01*
X106040504Y-79195577D01*
X106019266Y-79254307D01*
X106002444Y-79303880D01*
X105991769Y-79339784D01*
X105988974Y-79357507D01*
X105989207Y-79358128D01*
X105998678Y-79372615D01*
X106020165Y-79404489D01*
X106051410Y-79450434D01*
X106090154Y-79507130D01*
X106134140Y-79571262D01*
X106146666Y-79589487D01*
X106191331Y-79655559D01*
X106230635Y-79715845D01*
X106262435Y-79766880D01*
X106284592Y-79805205D01*
X106294964Y-79827356D01*
X106295466Y-79830077D01*
X106286752Y-79844381D01*
X106262672Y-79872717D01*
X106226323Y-79912041D01*
X106180800Y-79959306D01*
X106129199Y-80011468D01*
X106074614Y-80065480D01*
X106020141Y-80118298D01*
X105968876Y-80166876D01*
X105923914Y-80208168D01*
X105888351Y-80239130D01*
X105865282Y-80256715D01*
X105858901Y-80259586D01*
X105844046Y-80252823D01*
X105813633Y-80234584D01*
X105772615Y-80207942D01*
X105741056Y-80186497D01*
X105683872Y-80147148D01*
X105616153Y-80100816D01*
X105548227Y-80054558D01*
X105511708Y-80029800D01*
X105388099Y-79946192D01*
X105284338Y-80002295D01*
X105237067Y-80026873D01*
X105196870Y-80045976D01*
X105169673Y-80056872D01*
X105162749Y-80058388D01*
X105154424Y-80047194D01*
X105138001Y-80015562D01*
X105114704Y-79966410D01*
X105085761Y-79902655D01*
X105052397Y-79827216D01*
X105015838Y-79743009D01*
X104977311Y-79652953D01*
X104938041Y-79559966D01*
X104899255Y-79466965D01*
X104862177Y-79376868D01*
X104828036Y-79292593D01*
X104798055Y-79217058D01*
X104773463Y-79153179D01*
X104755483Y-79103876D01*
X104745344Y-79072066D01*
X104743713Y-79061141D01*
X104756638Y-79047206D01*
X104784936Y-79024585D01*
X104822693Y-78997978D01*
X104825862Y-78995873D01*
X104923447Y-78917759D01*
X105002133Y-78826627D01*
X105061238Y-78725390D01*
X105100079Y-78616963D01*
X105117975Y-78504259D01*
X105114244Y-78390193D01*
X105088204Y-78277679D01*
X105039172Y-78169630D01*
X105024747Y-78145990D01*
X104949716Y-78050532D01*
X104861077Y-77973877D01*
X104761896Y-77916425D01*
X104655242Y-77878574D01*
X104544183Y-77860723D01*
X104431786Y-77863270D01*
X104321120Y-77886615D01*
X104215253Y-77931155D01*
X104117252Y-77997290D01*
X104086937Y-78024132D01*
X104009785Y-78108157D01*
X103953565Y-78196611D01*
X103915000Y-78295760D01*
X103893521Y-78393948D01*
X103888219Y-78504342D01*
X103905899Y-78615285D01*
X103944766Y-78723026D01*
X104003024Y-78823814D01*
X104078878Y-78913901D01*
X104170530Y-78989537D01*
X104182575Y-78997509D01*
X104220736Y-79023619D01*
X104249746Y-79046240D01*
X104263615Y-79060684D01*
X104263816Y-79061141D01*
X104260839Y-79076766D01*
X104249036Y-79112227D01*
X104229633Y-79164607D01*
X104203859Y-79230990D01*
X104172938Y-79308459D01*
X104138098Y-79394095D01*
X104100564Y-79484982D01*
X104061564Y-79578204D01*
X104022324Y-79670842D01*
X103984071Y-79759980D01*
X103948030Y-79842700D01*
X103915430Y-79916086D01*
X103887495Y-79977220D01*
X103865452Y-80023186D01*
X103850529Y-80051066D01*
X103844519Y-80058388D01*
X103826156Y-80052686D01*
X103791795Y-80037394D01*
X103747363Y-80015244D01*
X103722930Y-80002295D01*
X103619169Y-79946192D01*
X103495560Y-80029800D01*
X103432461Y-80072632D01*
X103363377Y-80119767D01*
X103298640Y-80164148D01*
X103266213Y-80186497D01*
X103220606Y-80217122D01*
X103181987Y-80241392D01*
X103155395Y-80256232D01*
X103146757Y-80259369D01*
X103134186Y-80250906D01*
X103106363Y-80227281D01*
X103065986Y-80190947D01*
X103015752Y-80144356D01*
X102958359Y-80089962D01*
X102922061Y-80055037D01*
X102858557Y-79992641D01*
X102803674Y-79936833D01*
X102759633Y-79889999D01*
X102728652Y-79854527D01*
X102712949Y-79832806D01*
X102711442Y-79828397D01*
X102718433Y-79811630D01*
X102737753Y-79777727D01*
X102767256Y-79730121D01*
X102804802Y-79672244D01*
X102848247Y-79607529D01*
X102860602Y-79589487D01*
X102905620Y-79523912D01*
X102946007Y-79464873D01*
X102979507Y-79415687D01*
X103003861Y-79379673D01*
X103016811Y-79360147D01*
X103018062Y-79358128D01*
X103016191Y-79342567D01*
X103006260Y-79308354D01*
X102990000Y-79260000D01*
X102969142Y-79202016D01*
X102945420Y-79138915D01*
X102920563Y-79075208D01*
X102896305Y-79015406D01*
X102874376Y-78964021D01*
X102856509Y-78925564D01*
X102844434Y-78904547D01*
X102843576Y-78903539D01*
X102836193Y-78897533D01*
X102823722Y-78891593D01*
X102803427Y-78885105D01*
X102772569Y-78877454D01*
X102728413Y-78868025D01*
X102668221Y-78856204D01*
X102589254Y-78841374D01*
X102488777Y-78822922D01*
X102467022Y-78818955D01*
X102402545Y-78806498D01*
X102346336Y-78794311D01*
X102303360Y-78783571D01*
X102278587Y-78775454D01*
X102275265Y-78773561D01*
X102269791Y-78756783D01*
X102265341Y-78719290D01*
X102261919Y-78665439D01*
X102259528Y-78599589D01*
X102258170Y-78526098D01*
X102257848Y-78449325D01*
X102258566Y-78373628D01*
X102260326Y-78303365D01*
X102263131Y-78242895D01*
X102266985Y-78196575D01*
X102271890Y-78168764D01*
X102274847Y-78163072D01*
X102291310Y-78157331D01*
X102328796Y-78147990D01*
X102383572Y-78135860D01*
X102451902Y-78121752D01*
X102530053Y-78106475D01*
X102572631Y-78098468D01*
X102653418Y-78083366D01*
X102725460Y-78069685D01*
X102785236Y-78058112D01*
X102829226Y-78049332D01*
X102853908Y-78044032D01*
X102857970Y-78042857D01*
X102864836Y-78029610D01*
X102879349Y-77997702D01*
X102899576Y-77951692D01*
X102923581Y-77896137D01*
X102949429Y-77835598D01*
X102975187Y-77774631D01*
X102998920Y-77717796D01*
X103018693Y-77669651D01*
X103032571Y-77634755D01*
X103038621Y-77617666D01*
X103038733Y-77616919D01*
X103031875Y-77603438D01*
X103012649Y-77572415D01*
X102983075Y-77526934D01*
X102945174Y-77470077D01*
X102900967Y-77404928D01*
X102875268Y-77367507D01*
X102828440Y-77298892D01*
X102786848Y-77236597D01*
X102752522Y-77183774D01*
X102727490Y-77143572D01*
X102713782Y-77119145D01*
X102711803Y-77113669D01*
X102720313Y-77100923D01*
X102743840Y-77073708D01*
X102779379Y-77035073D01*
X102823924Y-76988068D01*
X102874470Y-76935740D01*
X102928011Y-76881140D01*
X102981542Y-76827315D01*
X103032058Y-76777315D01*
X103076553Y-76734188D01*
X103112022Y-76700984D01*
X103135460Y-76680751D01*
X103143301Y-76675923D01*
X103156067Y-76682712D01*
X103186603Y-76701787D01*
X103231937Y-76731206D01*
X103289103Y-76769026D01*
X103355131Y-76813306D01*
X103404937Y-76847040D01*
X103656583Y-77018157D01*
X103866346Y-76931686D01*
X104076110Y-76845215D01*
X104132958Y-76543663D01*
X104189807Y-76242111D01*
X104817462Y-76242111D01*
X104874311Y-76543663D01*
G36*
X102593241Y-80721184D02*
G01*
X102619753Y-80734282D01*
X102652447Y-80757106D01*
X102676275Y-80781996D01*
X102692594Y-80813249D01*
X102702760Y-80855166D01*
X102708128Y-80912044D01*
X102710056Y-80988184D01*
X102710169Y-81020917D01*
X102709839Y-81092656D01*
X102708473Y-81143927D01*
X102705500Y-81179404D01*
X102700351Y-81203763D01*
X102692457Y-81221680D01*
X102684243Y-81233902D01*
X102631813Y-81285905D01*
X102570070Y-81317184D01*
X102503464Y-81326592D01*
X102436442Y-81312980D01*
X102415208Y-81303354D01*
X102364376Y-81276859D01*
X102364376Y-81692052D01*
X102401475Y-81672868D01*
X102450357Y-81658025D01*
X102510439Y-81654222D01*
X102570436Y-81661243D01*
X102615744Y-81677013D01*
X102653325Y-81707047D01*
X102685436Y-81750024D01*
X102687850Y-81754436D01*
X102698033Y-81775221D01*
X102705470Y-81796170D01*
X102710589Y-81821548D01*
X102713819Y-81855618D01*
X102715587Y-81902641D01*
X102716323Y-81966882D01*
X102716456Y-82039176D01*
X102716456Y-82269822D01*
X102578139Y-82269822D01*
X102578139Y-81844533D01*
X102539451Y-81811979D01*
X102499262Y-81785940D01*
X102461203Y-81781205D01*
X102422934Y-81793389D01*
X102402538Y-81805320D01*
X102387358Y-81822313D01*
X102376562Y-81847995D01*
X102369317Y-81885991D01*
X102364792Y-81939926D01*
X102362156Y-82013425D01*
X102361228Y-82062347D01*
X102358089Y-82263535D01*
X102292074Y-82267336D01*
X102226060Y-82271136D01*
X102226060Y-81022650D01*
X102364376Y-81022650D01*
X102367903Y-81092254D01*
X102379785Y-81140569D01*
X102401980Y-81170631D01*
X102436441Y-81185471D01*
X102471258Y-81188436D01*
X102510671Y-81185028D01*
X102536829Y-81171617D01*
X102553186Y-81153896D01*
X102566063Y-81134835D01*
X102573728Y-81113601D01*
X102577139Y-81083849D01*
X102577251Y-81039236D01*
X102576103Y-81001880D01*
X102573468Y-80945604D01*
X102569544Y-80908658D01*
X102562937Y-80885223D01*
X102552251Y-80869480D01*
X102542167Y-80860380D01*
X102500030Y-80840537D01*
X102450160Y-80837332D01*
X102421524Y-80844168D01*
X102393172Y-80868464D01*
X102374391Y-80915728D01*
X102365288Y-80985624D01*
X102364376Y-81022650D01*
X102226060Y-81022650D01*
X102226060Y-80710614D01*
X102295218Y-80710614D01*
X102336740Y-80712256D01*
X102358162Y-80718087D01*
X102364374Y-80729461D01*
X102364376Y-80729798D01*
X102367258Y-80740938D01*
X102379970Y-80739673D01*
X102405243Y-80727433D01*
X102464131Y-80708707D01*
X102530385Y-80706739D01*
X102593241Y-80721184D01*
X102593241Y-80721184D01*
G37*
X102593241Y-80721184D02*
X102619753Y-80734282D01*
X102652447Y-80757106D01*
X102676275Y-80781996D01*
X102692594Y-80813249D01*
X102702760Y-80855166D01*
X102708128Y-80912044D01*
X102710056Y-80988184D01*
X102710169Y-81020917D01*
X102709839Y-81092656D01*
X102708473Y-81143927D01*
X102705500Y-81179404D01*
X102700351Y-81203763D01*
X102692457Y-81221680D01*
X102684243Y-81233902D01*
X102631813Y-81285905D01*
X102570070Y-81317184D01*
X102503464Y-81326592D01*
X102436442Y-81312980D01*
X102415208Y-81303354D01*
X102364376Y-81276859D01*
X102364376Y-81692052D01*
X102401475Y-81672868D01*
X102450357Y-81658025D01*
X102510439Y-81654222D01*
X102570436Y-81661243D01*
X102615744Y-81677013D01*
X102653325Y-81707047D01*
X102685436Y-81750024D01*
X102687850Y-81754436D01*
X102698033Y-81775221D01*
X102705470Y-81796170D01*
X102710589Y-81821548D01*
X102713819Y-81855618D01*
X102715587Y-81902641D01*
X102716323Y-81966882D01*
X102716456Y-82039176D01*
X102716456Y-82269822D01*
X102578139Y-82269822D01*
X102578139Y-81844533D01*
X102539451Y-81811979D01*
X102499262Y-81785940D01*
X102461203Y-81781205D01*
X102422934Y-81793389D01*
X102402538Y-81805320D01*
X102387358Y-81822313D01*
X102376562Y-81847995D01*
X102369317Y-81885991D01*
X102364792Y-81939926D01*
X102362156Y-82013425D01*
X102361228Y-82062347D01*
X102358089Y-82263535D01*
X102292074Y-82267336D01*
X102226060Y-82271136D01*
X102226060Y-81022650D01*
X102364376Y-81022650D01*
X102367903Y-81092254D01*
X102379785Y-81140569D01*
X102401980Y-81170631D01*
X102436441Y-81185471D01*
X102471258Y-81188436D01*
X102510671Y-81185028D01*
X102536829Y-81171617D01*
X102553186Y-81153896D01*
X102566063Y-81134835D01*
X102573728Y-81113601D01*
X102577139Y-81083849D01*
X102577251Y-81039236D01*
X102576103Y-81001880D01*
X102573468Y-80945604D01*
X102569544Y-80908658D01*
X102562937Y-80885223D01*
X102552251Y-80869480D01*
X102542167Y-80860380D01*
X102500030Y-80840537D01*
X102450160Y-80837332D01*
X102421524Y-80844168D01*
X102393172Y-80868464D01*
X102374391Y-80915728D01*
X102365288Y-80985624D01*
X102364376Y-81022650D01*
X102226060Y-81022650D01*
X102226060Y-80710614D01*
X102295218Y-80710614D01*
X102336740Y-80712256D01*
X102358162Y-80718087D01*
X102364374Y-80729461D01*
X102364376Y-80729798D01*
X102367258Y-80740938D01*
X102379970Y-80739673D01*
X102405243Y-80727433D01*
X102464131Y-80708707D01*
X102530385Y-80706739D01*
X102593241Y-80721184D01*
G36*
X103117790Y-81658555D02*
G01*
X103176945Y-81674339D01*
X103221977Y-81702948D01*
X103253754Y-81740419D01*
X103263634Y-81756411D01*
X103270927Y-81773163D01*
X103276026Y-81794592D01*
X103279321Y-81824616D01*
X103281203Y-81867154D01*
X103282063Y-81926122D01*
X103282293Y-82005440D01*
X103282297Y-82026484D01*
X103282297Y-82269822D01*
X103221941Y-82269822D01*
X103183443Y-82267126D01*
X103154977Y-82260295D01*
X103147845Y-82256083D01*
X103128348Y-82248813D01*
X103108434Y-82256083D01*
X103075647Y-82265160D01*
X103028022Y-82268813D01*
X102975236Y-82267228D01*
X102926964Y-82260589D01*
X102898782Y-82252072D01*
X102844247Y-82217063D01*
X102810165Y-82168479D01*
X102794843Y-82103882D01*
X102794701Y-82102223D01*
X102796045Y-82073566D01*
X102917644Y-82073566D01*
X102928274Y-82106161D01*
X102945590Y-82124505D01*
X102980348Y-82138379D01*
X103026227Y-82143917D01*
X103073012Y-82141191D01*
X103110486Y-82130274D01*
X103120985Y-82123269D01*
X103139332Y-82090904D01*
X103143980Y-82054111D01*
X103143980Y-82005763D01*
X103074418Y-82005763D01*
X103008333Y-82010850D01*
X102958236Y-82025263D01*
X102927071Y-82047729D01*
X102917644Y-82073566D01*
X102796045Y-82073566D01*
X102798013Y-82031647D01*
X102821290Y-81975845D01*
X102865052Y-81933647D01*
X102871101Y-81929808D01*
X102897093Y-81917309D01*
X102929265Y-81909740D01*
X102974240Y-81906061D01*
X103027669Y-81905216D01*
X103143980Y-81905169D01*
X103143980Y-81856411D01*
X103139047Y-81818581D01*
X103126457Y-81793236D01*
X103124983Y-81791887D01*
X103096966Y-81780800D01*
X103054674Y-81776503D01*
X103007936Y-81778615D01*
X102966582Y-81786756D01*
X102942043Y-81798965D01*
X102928747Y-81808746D01*
X102914706Y-81810613D01*
X102895329Y-81802600D01*
X102866024Y-81782739D01*
X102822197Y-81749063D01*
X102818175Y-81745909D01*
X102820236Y-81734236D01*
X102837432Y-81714822D01*
X102863567Y-81693248D01*
X102892448Y-81675096D01*
X102901522Y-81670809D01*
X102934620Y-81662256D01*
X102983120Y-81656155D01*
X103037305Y-81653708D01*
X103039839Y-81653703D01*
X103117790Y-81658555D01*
X103117790Y-81658555D01*
G37*
X103117790Y-81658555D02*
X103176945Y-81674339D01*
X103221977Y-81702948D01*
X103253754Y-81740419D01*
X103263634Y-81756411D01*
X103270927Y-81773163D01*
X103276026Y-81794592D01*
X103279321Y-81824616D01*
X103281203Y-81867154D01*
X103282063Y-81926122D01*
X103282293Y-82005440D01*
X103282297Y-82026484D01*
X103282297Y-82269822D01*
X103221941Y-82269822D01*
X103183443Y-82267126D01*
X103154977Y-82260295D01*
X103147845Y-82256083D01*
X103128348Y-82248813D01*
X103108434Y-82256083D01*
X103075647Y-82265160D01*
X103028022Y-82268813D01*
X102975236Y-82267228D01*
X102926964Y-82260589D01*
X102898782Y-82252072D01*
X102844247Y-82217063D01*
X102810165Y-82168479D01*
X102794843Y-82103882D01*
X102794701Y-82102223D01*
X102796045Y-82073566D01*
X102917644Y-82073566D01*
X102928274Y-82106161D01*
X102945590Y-82124505D01*
X102980348Y-82138379D01*
X103026227Y-82143917D01*
X103073012Y-82141191D01*
X103110486Y-82130274D01*
X103120985Y-82123269D01*
X103139332Y-82090904D01*
X103143980Y-82054111D01*
X103143980Y-82005763D01*
X103074418Y-82005763D01*
X103008333Y-82010850D01*
X102958236Y-82025263D01*
X102927071Y-82047729D01*
X102917644Y-82073566D01*
X102796045Y-82073566D01*
X102798013Y-82031647D01*
X102821290Y-81975845D01*
X102865052Y-81933647D01*
X102871101Y-81929808D01*
X102897093Y-81917309D01*
X102929265Y-81909740D01*
X102974240Y-81906061D01*
X103027669Y-81905216D01*
X103143980Y-81905169D01*
X103143980Y-81856411D01*
X103139047Y-81818581D01*
X103126457Y-81793236D01*
X103124983Y-81791887D01*
X103096966Y-81780800D01*
X103054674Y-81776503D01*
X103007936Y-81778615D01*
X102966582Y-81786756D01*
X102942043Y-81798965D01*
X102928747Y-81808746D01*
X102914706Y-81810613D01*
X102895329Y-81802600D01*
X102866024Y-81782739D01*
X102822197Y-81749063D01*
X102818175Y-81745909D01*
X102820236Y-81734236D01*
X102837432Y-81714822D01*
X102863567Y-81693248D01*
X102892448Y-81675096D01*
X102901522Y-81670809D01*
X102934620Y-81662256D01*
X102983120Y-81656155D01*
X103037305Y-81653708D01*
X103039839Y-81653703D01*
X103117790Y-81658555D01*
G36*
X104300812Y-82269822D02*
G01*
X104231654Y-82269822D01*
X104191512Y-82268645D01*
X104170606Y-82263772D01*
X104163078Y-82253186D01*
X104162495Y-82246029D01*
X104161226Y-82231676D01*
X104153221Y-82228923D01*
X104132185Y-82237771D01*
X104115827Y-82246029D01*
X104053023Y-82265597D01*
X103984752Y-82266729D01*
X103929248Y-82252135D01*
X103877562Y-82216877D01*
X103838162Y-82164835D01*
X103816587Y-82103450D01*
X103816038Y-82100018D01*
X103812833Y-82062571D01*
X103811239Y-82008813D01*
X103811367Y-81968155D01*
X103948721Y-81968155D01*
X103951903Y-82022194D01*
X103959141Y-82066735D01*
X103968940Y-82091888D01*
X104006011Y-82126260D01*
X104050026Y-82138582D01*
X104095416Y-82128618D01*
X104134203Y-82098895D01*
X104148892Y-82078905D01*
X104157481Y-82055050D01*
X104161504Y-82020230D01*
X104162495Y-81967930D01*
X104160722Y-81916139D01*
X104156037Y-81870634D01*
X104149397Y-81840181D01*
X104148290Y-81837452D01*
X104121509Y-81805000D01*
X104082421Y-81787183D01*
X104038685Y-81784306D01*
X103997962Y-81796674D01*
X103967913Y-81824593D01*
X103964796Y-81830148D01*
X103955039Y-81864022D01*
X103949723Y-81912728D01*
X103948721Y-81968155D01*
X103811367Y-81968155D01*
X103811432Y-81947540D01*
X103812336Y-81914563D01*
X103818486Y-81832981D01*
X103831267Y-81771730D01*
X103852529Y-81726449D01*
X103884122Y-81692779D01*
X103914793Y-81673014D01*
X103957646Y-81659120D01*
X104010944Y-81654354D01*
X104065520Y-81658236D01*
X104112208Y-81670282D01*
X104136876Y-81684693D01*
X104162495Y-81707878D01*
X104162495Y-81414773D01*
X104300812Y-81414773D01*
X104300812Y-82269822D01*
X104300812Y-82269822D01*
G37*
X104300812Y-82269822D02*
X104231654Y-82269822D01*
X104191512Y-82268645D01*
X104170606Y-82263772D01*
X104163078Y-82253186D01*
X104162495Y-82246029D01*
X104161226Y-82231676D01*
X104153221Y-82228923D01*
X104132185Y-82237771D01*
X104115827Y-82246029D01*
X104053023Y-82265597D01*
X103984752Y-82266729D01*
X103929248Y-82252135D01*
X103877562Y-82216877D01*
X103838162Y-82164835D01*
X103816587Y-82103450D01*
X103816038Y-82100018D01*
X103812833Y-82062571D01*
X103811239Y-82008813D01*
X103811367Y-81968155D01*
X103948721Y-81968155D01*
X103951903Y-82022194D01*
X103959141Y-82066735D01*
X103968940Y-82091888D01*
X104006011Y-82126260D01*
X104050026Y-82138582D01*
X104095416Y-82128618D01*
X104134203Y-82098895D01*
X104148892Y-82078905D01*
X104157481Y-82055050D01*
X104161504Y-82020230D01*
X104162495Y-81967930D01*
X104160722Y-81916139D01*
X104156037Y-81870634D01*
X104149397Y-81840181D01*
X104148290Y-81837452D01*
X104121509Y-81805000D01*
X104082421Y-81787183D01*
X104038685Y-81784306D01*
X103997962Y-81796674D01*
X103967913Y-81824593D01*
X103964796Y-81830148D01*
X103955039Y-81864022D01*
X103949723Y-81912728D01*
X103948721Y-81968155D01*
X103811367Y-81968155D01*
X103811432Y-81947540D01*
X103812336Y-81914563D01*
X103818486Y-81832981D01*
X103831267Y-81771730D01*
X103852529Y-81726449D01*
X103884122Y-81692779D01*
X103914793Y-81673014D01*
X103957646Y-81659120D01*
X104010944Y-81654354D01*
X104065520Y-81658236D01*
X104112208Y-81670282D01*
X104136876Y-81684693D01*
X104162495Y-81707878D01*
X104162495Y-81414773D01*
X104300812Y-81414773D01*
X104300812Y-82269822D01*
G36*
X103508644Y-81655020D02*
G01*
X103527461Y-81660660D01*
X103533527Y-81673053D01*
X103533782Y-81678647D01*
X103534871Y-81694230D01*
X103542368Y-81696676D01*
X103562619Y-81685993D01*
X103574649Y-81678694D01*
X103612600Y-81663063D01*
X103657928Y-81655334D01*
X103705456Y-81654740D01*
X103750005Y-81660513D01*
X103786398Y-81671884D01*
X103809457Y-81688088D01*
X103814004Y-81708355D01*
X103811709Y-81713843D01*
X103794980Y-81736626D01*
X103769037Y-81764647D01*
X103764345Y-81769177D01*
X103739617Y-81790005D01*
X103718282Y-81796735D01*
X103688445Y-81792038D01*
X103676492Y-81788917D01*
X103639295Y-81781421D01*
X103613141Y-81784792D01*
X103591054Y-81796681D01*
X103570822Y-81812635D01*
X103555921Y-81832700D01*
X103545566Y-81860702D01*
X103538971Y-81900467D01*
X103535351Y-81955823D01*
X103533922Y-82030594D01*
X103533782Y-82075740D01*
X103533782Y-82269822D01*
X103408040Y-82269822D01*
X103408040Y-81653683D01*
X103470911Y-81653683D01*
X103508644Y-81655020D01*
X103508644Y-81655020D01*
G37*
X103508644Y-81655020D02*
X103527461Y-81660660D01*
X103533527Y-81673053D01*
X103533782Y-81678647D01*
X103534871Y-81694230D01*
X103542368Y-81696676D01*
X103562619Y-81685993D01*
X103574649Y-81678694D01*
X103612600Y-81663063D01*
X103657928Y-81655334D01*
X103705456Y-81654740D01*
X103750005Y-81660513D01*
X103786398Y-81671884D01*
X103809457Y-81688088D01*
X103814004Y-81708355D01*
X103811709Y-81713843D01*
X103794980Y-81736626D01*
X103769037Y-81764647D01*
X103764345Y-81769177D01*
X103739617Y-81790005D01*
X103718282Y-81796735D01*
X103688445Y-81792038D01*
X103676492Y-81788917D01*
X103639295Y-81781421D01*
X103613141Y-81784792D01*
X103591054Y-81796681D01*
X103570822Y-81812635D01*
X103555921Y-81832700D01*
X103545566Y-81860702D01*
X103538971Y-81900467D01*
X103535351Y-81955823D01*
X103533922Y-82030594D01*
X103533782Y-82075740D01*
X103533782Y-82269822D01*
X103408040Y-82269822D01*
X103408040Y-81653683D01*
X103470911Y-81653683D01*
X103508644Y-81655020D01*
G36*
X105540411Y-81657417D02*
G01*
X105593411Y-81670290D01*
X105608731Y-81677110D01*
X105638428Y-81694974D01*
X105661220Y-81715093D01*
X105678083Y-81740962D01*
X105689998Y-81776073D01*
X105697942Y-81823920D01*
X105702894Y-81887996D01*
X105705831Y-81971794D01*
X105706947Y-82027768D01*
X105711052Y-82269822D01*
X105640932Y-82269822D01*
X105598393Y-82268038D01*
X105576476Y-82261942D01*
X105570812Y-82251706D01*
X105567821Y-82240637D01*
X105554451Y-82242754D01*
X105536233Y-82251629D01*
X105490624Y-82265233D01*
X105432007Y-82268899D01*
X105370354Y-82262903D01*
X105315638Y-82247521D01*
X105310730Y-82245386D01*
X105260723Y-82210255D01*
X105227756Y-82161419D01*
X105212587Y-82104333D01*
X105213746Y-82083824D01*
X105337508Y-82083824D01*
X105348413Y-82111425D01*
X105380745Y-82131204D01*
X105432910Y-82141819D01*
X105460787Y-82143228D01*
X105507247Y-82139620D01*
X105538129Y-82125597D01*
X105545664Y-82118931D01*
X105566076Y-82082666D01*
X105570812Y-82049773D01*
X105570812Y-82005763D01*
X105509513Y-82005763D01*
X105438256Y-82009395D01*
X105388276Y-82020818D01*
X105356696Y-82040824D01*
X105349626Y-82049743D01*
X105337508Y-82083824D01*
X105213746Y-82083824D01*
X105215971Y-82044456D01*
X105238663Y-81987244D01*
X105269624Y-81948580D01*
X105288376Y-81931864D01*
X105306733Y-81920878D01*
X105330619Y-81914180D01*
X105365957Y-81910326D01*
X105418669Y-81907873D01*
X105439577Y-81907168D01*
X105570812Y-81902879D01*
X105570620Y-81863158D01*
X105565537Y-81821405D01*
X105547162Y-81796158D01*
X105510039Y-81780030D01*
X105509043Y-81779742D01*
X105456410Y-81773400D01*
X105404906Y-81781684D01*
X105366630Y-81801827D01*
X105351272Y-81811773D01*
X105334730Y-81810397D01*
X105309275Y-81795987D01*
X105294328Y-81785817D01*
X105265091Y-81764088D01*
X105246980Y-81747800D01*
X105244074Y-81743137D01*
X105256040Y-81719005D01*
X105291396Y-81690185D01*
X105306753Y-81680461D01*
X105350901Y-81663714D01*
X105410398Y-81654227D01*
X105476487Y-81652095D01*
X105540411Y-81657417D01*
X105540411Y-81657417D01*
G37*
X105540411Y-81657417D02*
X105593411Y-81670290D01*
X105608731Y-81677110D01*
X105638428Y-81694974D01*
X105661220Y-81715093D01*
X105678083Y-81740962D01*
X105689998Y-81776073D01*
X105697942Y-81823920D01*
X105702894Y-81887996D01*
X105705831Y-81971794D01*
X105706947Y-82027768D01*
X105711052Y-82269822D01*
X105640932Y-82269822D01*
X105598393Y-82268038D01*
X105576476Y-82261942D01*
X105570812Y-82251706D01*
X105567821Y-82240637D01*
X105554451Y-82242754D01*
X105536233Y-82251629D01*
X105490624Y-82265233D01*
X105432007Y-82268899D01*
X105370354Y-82262903D01*
X105315638Y-82247521D01*
X105310730Y-82245386D01*
X105260723Y-82210255D01*
X105227756Y-82161419D01*
X105212587Y-82104333D01*
X105213746Y-82083824D01*
X105337508Y-82083824D01*
X105348413Y-82111425D01*
X105380745Y-82131204D01*
X105432910Y-82141819D01*
X105460787Y-82143228D01*
X105507247Y-82139620D01*
X105538129Y-82125597D01*
X105545664Y-82118931D01*
X105566076Y-82082666D01*
X105570812Y-82049773D01*
X105570812Y-82005763D01*
X105509513Y-82005763D01*
X105438256Y-82009395D01*
X105388276Y-82020818D01*
X105356696Y-82040824D01*
X105349626Y-82049743D01*
X105337508Y-82083824D01*
X105213746Y-82083824D01*
X105215971Y-82044456D01*
X105238663Y-81987244D01*
X105269624Y-81948580D01*
X105288376Y-81931864D01*
X105306733Y-81920878D01*
X105330619Y-81914180D01*
X105365957Y-81910326D01*
X105418669Y-81907873D01*
X105439577Y-81907168D01*
X105570812Y-81902879D01*
X105570620Y-81863158D01*
X105565537Y-81821405D01*
X105547162Y-81796158D01*
X105510039Y-81780030D01*
X105509043Y-81779742D01*
X105456410Y-81773400D01*
X105404906Y-81781684D01*
X105366630Y-81801827D01*
X105351272Y-81811773D01*
X105334730Y-81810397D01*
X105309275Y-81795987D01*
X105294328Y-81785817D01*
X105265091Y-81764088D01*
X105246980Y-81747800D01*
X105244074Y-81743137D01*
X105256040Y-81719005D01*
X105291396Y-81690185D01*
X105306753Y-81680461D01*
X105350901Y-81663714D01*
X105410398Y-81654227D01*
X105476487Y-81652095D01*
X105540411Y-81657417D01*
G36*
X106137255Y-81653486D02*
G01*
X106185595Y-81663015D01*
X106213114Y-81677125D01*
X106242064Y-81700568D01*
X106200876Y-81752571D01*
X106175482Y-81784064D01*
X106158238Y-81799428D01*
X106141102Y-81801776D01*
X106116027Y-81794217D01*
X106104257Y-81789941D01*
X106056270Y-81783631D01*
X106012324Y-81797156D01*
X105980060Y-81827710D01*
X105974819Y-81837452D01*
X105969112Y-81863258D01*
X105964706Y-81910817D01*
X105961811Y-81976758D01*
X105960631Y-82057710D01*
X105960614Y-82069226D01*
X105960614Y-82269822D01*
X105822297Y-82269822D01*
X105822297Y-81653683D01*
X105891456Y-81653683D01*
X105931333Y-81654725D01*
X105952107Y-81659358D01*
X105959789Y-81669849D01*
X105960614Y-81679745D01*
X105960614Y-81705806D01*
X105993745Y-81679745D01*
X106031735Y-81661965D01*
X106082770Y-81653174D01*
X106137255Y-81653486D01*
X106137255Y-81653486D01*
G37*
X106137255Y-81653486D02*
X106185595Y-81663015D01*
X106213114Y-81677125D01*
X106242064Y-81700568D01*
X106200876Y-81752571D01*
X106175482Y-81784064D01*
X106158238Y-81799428D01*
X106141102Y-81801776D01*
X106116027Y-81794217D01*
X106104257Y-81789941D01*
X106056270Y-81783631D01*
X106012324Y-81797156D01*
X105980060Y-81827710D01*
X105974819Y-81837452D01*
X105969112Y-81863258D01*
X105964706Y-81910817D01*
X105961811Y-81976758D01*
X105960631Y-82057710D01*
X105960614Y-82069226D01*
X105960614Y-82269822D01*
X105822297Y-82269822D01*
X105822297Y-81653683D01*
X105891456Y-81653683D01*
X105931333Y-81654725D01*
X105952107Y-81659358D01*
X105959789Y-81669849D01*
X105960614Y-81679745D01*
X105960614Y-81705806D01*
X105993745Y-81679745D01*
X106031735Y-81661965D01*
X106082770Y-81653174D01*
X106137255Y-81653486D01*
G36*
X101963739Y-80717148D02*
G01*
X102029521Y-80746231D01*
X102079460Y-80794793D01*
X102113626Y-80862908D01*
X102132093Y-80950651D01*
X102133417Y-80964351D01*
X102134454Y-81060939D01*
X102121007Y-81145602D01*
X102093892Y-81214221D01*
X102079373Y-81236294D01*
X102028799Y-81283011D01*
X101964391Y-81313268D01*
X101892334Y-81325824D01*
X101818815Y-81319439D01*
X101762928Y-81299772D01*
X101714868Y-81266629D01*
X101675588Y-81223175D01*
X101674908Y-81222158D01*
X101658956Y-81195338D01*
X101648590Y-81168368D01*
X101642312Y-81134332D01*
X101638627Y-81086310D01*
X101637003Y-81046931D01*
X101636328Y-81011219D01*
X101762045Y-81011219D01*
X101763274Y-81046770D01*
X101767734Y-81094094D01*
X101775603Y-81124465D01*
X101789793Y-81146072D01*
X101803083Y-81158694D01*
X101850198Y-81185122D01*
X101899495Y-81188653D01*
X101945407Y-81169639D01*
X101968362Y-81148331D01*
X101984904Y-81126859D01*
X101994579Y-81106313D01*
X101998826Y-81079574D01*
X101999080Y-81039523D01*
X101997772Y-81002638D01*
X101994957Y-80949947D01*
X101990495Y-80915772D01*
X101982452Y-80893480D01*
X101968897Y-80876442D01*
X101958155Y-80866703D01*
X101913223Y-80841123D01*
X101864751Y-80839847D01*
X101824106Y-80854999D01*
X101789433Y-80886642D01*
X101768776Y-80938620D01*
X101762045Y-81011219D01*
X101636328Y-81011219D01*
X101635521Y-80968621D01*
X101638052Y-80910056D01*
X101645638Y-80866007D01*
X101659319Y-80831248D01*
X101680135Y-80800551D01*
X101687853Y-80791436D01*
X101736111Y-80746021D01*
X101787872Y-80719493D01*
X101851172Y-80708379D01*
X101882039Y-80707471D01*
X101963739Y-80717148D01*
X101963739Y-80717148D01*
G37*
X101963739Y-80717148D02*
X102029521Y-80746231D01*
X102079460Y-80794793D01*
X102113626Y-80862908D01*
X102132093Y-80950651D01*
X102133417Y-80964351D01*
X102134454Y-81060939D01*
X102121007Y-81145602D01*
X102093892Y-81214221D01*
X102079373Y-81236294D01*
X102028799Y-81283011D01*
X101964391Y-81313268D01*
X101892334Y-81325824D01*
X101818815Y-81319439D01*
X101762928Y-81299772D01*
X101714868Y-81266629D01*
X101675588Y-81223175D01*
X101674908Y-81222158D01*
X101658956Y-81195338D01*
X101648590Y-81168368D01*
X101642312Y-81134332D01*
X101638627Y-81086310D01*
X101637003Y-81046931D01*
X101636328Y-81011219D01*
X101762045Y-81011219D01*
X101763274Y-81046770D01*
X101767734Y-81094094D01*
X101775603Y-81124465D01*
X101789793Y-81146072D01*
X101803083Y-81158694D01*
X101850198Y-81185122D01*
X101899495Y-81188653D01*
X101945407Y-81169639D01*
X101968362Y-81148331D01*
X101984904Y-81126859D01*
X101994579Y-81106313D01*
X101998826Y-81079574D01*
X101999080Y-81039523D01*
X101997772Y-81002638D01*
X101994957Y-80949947D01*
X101990495Y-80915772D01*
X101982452Y-80893480D01*
X101968897Y-80876442D01*
X101958155Y-80866703D01*
X101913223Y-80841123D01*
X101864751Y-80839847D01*
X101824106Y-80854999D01*
X101789433Y-80886642D01*
X101768776Y-80938620D01*
X101762045Y-81011219D01*
X101636328Y-81011219D01*
X101635521Y-80968621D01*
X101638052Y-80910056D01*
X101645638Y-80866007D01*
X101659319Y-80831248D01*
X101680135Y-80800551D01*
X101687853Y-80791436D01*
X101736111Y-80746021D01*
X101787872Y-80719493D01*
X101851172Y-80708379D01*
X101882039Y-80707471D01*
X101963739Y-80717148D01*
G36*
X104783524Y-81656237D02*
G01*
X104833255Y-81659971D01*
X104963291Y-82049773D01*
X104983678Y-81980614D01*
X104995946Y-81937874D01*
X105012085Y-81880115D01*
X105029512Y-81816625D01*
X105038726Y-81782570D01*
X105073388Y-81653683D01*
X105216391Y-81653683D01*
X105173646Y-81788857D01*
X105152596Y-81855342D01*
X105127167Y-81935539D01*
X105100610Y-82019193D01*
X105076902Y-82093782D01*
X105022902Y-82263535D01*
X104964598Y-82267328D01*
X104906295Y-82271122D01*
X104874679Y-82166734D01*
X104855182Y-82101889D01*
X104833904Y-82030400D01*
X104815308Y-81967263D01*
X104814574Y-81964750D01*
X104800684Y-81921969D01*
X104788429Y-81892779D01*
X104779846Y-81881741D01*
X104778082Y-81883018D01*
X104771891Y-81900130D01*
X104760128Y-81936787D01*
X104744225Y-81988378D01*
X104725614Y-82050294D01*
X104715543Y-82084352D01*
X104661007Y-82269822D01*
X104545264Y-82269822D01*
X104452737Y-81977471D01*
X104426744Y-81895462D01*
X104403066Y-81820987D01*
X104382820Y-81757544D01*
X104367126Y-81708632D01*
X104357102Y-81677749D01*
X104354055Y-81668726D01*
X104356467Y-81659487D01*
X104375408Y-81655441D01*
X104414823Y-81655846D01*
X104420993Y-81656152D01*
X104494086Y-81659971D01*
X104541957Y-81836010D01*
X104559553Y-81900211D01*
X104575277Y-81956649D01*
X104587746Y-82000422D01*
X104595574Y-82026630D01*
X104597020Y-82030903D01*
X104603014Y-82025990D01*
X104615101Y-82000532D01*
X104631893Y-81957997D01*
X104652003Y-81901850D01*
X104669003Y-81851130D01*
X104733794Y-81652504D01*
X104783524Y-81656237D01*
X104783524Y-81656237D01*
G37*
X104783524Y-81656237D02*
X104833255Y-81659971D01*
X104963291Y-82049773D01*
X104983678Y-81980614D01*
X104995946Y-81937874D01*
X105012085Y-81880115D01*
X105029512Y-81816625D01*
X105038726Y-81782570D01*
X105073388Y-81653683D01*
X105216391Y-81653683D01*
X105173646Y-81788857D01*
X105152596Y-81855342D01*
X105127167Y-81935539D01*
X105100610Y-82019193D01*
X105076902Y-82093782D01*
X105022902Y-82263535D01*
X104964598Y-82267328D01*
X104906295Y-82271122D01*
X104874679Y-82166734D01*
X104855182Y-82101889D01*
X104833904Y-82030400D01*
X104815308Y-81967263D01*
X104814574Y-81964750D01*
X104800684Y-81921969D01*
X104788429Y-81892779D01*
X104779846Y-81881741D01*
X104778082Y-81883018D01*
X104771891Y-81900130D01*
X104760128Y-81936787D01*
X104744225Y-81988378D01*
X104725614Y-82050294D01*
X104715543Y-82084352D01*
X104661007Y-82269822D01*
X104545264Y-82269822D01*
X104452737Y-81977471D01*
X104426744Y-81895462D01*
X104403066Y-81820987D01*
X104382820Y-81757544D01*
X104367126Y-81708632D01*
X104357102Y-81677749D01*
X104354055Y-81668726D01*
X104356467Y-81659487D01*
X104375408Y-81655441D01*
X104414823Y-81655846D01*
X104420993Y-81656152D01*
X104494086Y-81659971D01*
X104541957Y-81836010D01*
X104559553Y-81900211D01*
X104575277Y-81956649D01*
X104587746Y-82000422D01*
X104595574Y-82026630D01*
X104597020Y-82030903D01*
X104603014Y-82025990D01*
X104615101Y-82000532D01*
X104631893Y-81957997D01*
X104652003Y-81901850D01*
X104669003Y-81851130D01*
X104733794Y-81652504D01*
X104783524Y-81656237D01*
G36*
X106534581Y-81656970D02*
G01*
X106594685Y-81672597D01*
X106645021Y-81704848D01*
X106669393Y-81728940D01*
X106709345Y-81785895D01*
X106732242Y-81851965D01*
X106740108Y-81933182D01*
X106740148Y-81939748D01*
X106740218Y-82005763D01*
X106360264Y-82005763D01*
X106368363Y-82040342D01*
X106382987Y-82071659D01*
X106408581Y-82104291D01*
X106413935Y-82109500D01*
X106459943Y-82137694D01*
X106512410Y-82142475D01*
X106572803Y-82123926D01*
X106583040Y-82118931D01*
X106614439Y-82103745D01*
X106635470Y-82095094D01*
X106639139Y-82094293D01*
X106651948Y-82102063D01*
X106676378Y-82121072D01*
X106688779Y-82131460D01*
X106714476Y-82155321D01*
X106722915Y-82171077D01*
X106717058Y-82185571D01*
X106713928Y-82189534D01*
X106692725Y-82206879D01*
X106657738Y-82227959D01*
X106633337Y-82240265D01*
X106564072Y-82261946D01*
X106487388Y-82268971D01*
X106414765Y-82260647D01*
X106394426Y-82254686D01*
X106331476Y-82220952D01*
X106284815Y-82169045D01*
X106254173Y-82098459D01*
X106239282Y-82008692D01*
X106237647Y-81961753D01*
X106242421Y-81893413D01*
X106362990Y-81893413D01*
X106374652Y-81898465D01*
X106405998Y-81902429D01*
X106451571Y-81904768D01*
X106482446Y-81905169D01*
X106537981Y-81904783D01*
X106573033Y-81902975D01*
X106592262Y-81898773D01*
X106600330Y-81891203D01*
X106601901Y-81880218D01*
X106591121Y-81846381D01*
X106563980Y-81812940D01*
X106528277Y-81787272D01*
X106492560Y-81776772D01*
X106444048Y-81786086D01*
X106402053Y-81813013D01*
X106372936Y-81851827D01*
X106362990Y-81893413D01*
X106242421Y-81893413D01*
X106244599Y-81862236D01*
X106266055Y-81782949D01*
X106302470Y-81723263D01*
X106354297Y-81682549D01*
X106421990Y-81660179D01*
X106458662Y-81655871D01*
X106534581Y-81656970D01*
X106534581Y-81656970D01*
G37*
X106534581Y-81656970D02*
X106594685Y-81672597D01*
X106645021Y-81704848D01*
X106669393Y-81728940D01*
X106709345Y-81785895D01*
X106732242Y-81851965D01*
X106740108Y-81933182D01*
X106740148Y-81939748D01*
X106740218Y-82005763D01*
X106360264Y-82005763D01*
X106368363Y-82040342D01*
X106382987Y-82071659D01*
X106408581Y-82104291D01*
X106413935Y-82109500D01*
X106459943Y-82137694D01*
X106512410Y-82142475D01*
X106572803Y-82123926D01*
X106583040Y-82118931D01*
X106614439Y-82103745D01*
X106635470Y-82095094D01*
X106639139Y-82094293D01*
X106651948Y-82102063D01*
X106676378Y-82121072D01*
X106688779Y-82131460D01*
X106714476Y-82155321D01*
X106722915Y-82171077D01*
X106717058Y-82185571D01*
X106713928Y-82189534D01*
X106692725Y-82206879D01*
X106657738Y-82227959D01*
X106633337Y-82240265D01*
X106564072Y-82261946D01*
X106487388Y-82268971D01*
X106414765Y-82260647D01*
X106394426Y-82254686D01*
X106331476Y-82220952D01*
X106284815Y-82169045D01*
X106254173Y-82098459D01*
X106239282Y-82008692D01*
X106237647Y-81961753D01*
X106242421Y-81893413D01*
X106362990Y-81893413D01*
X106374652Y-81898465D01*
X106405998Y-81902429D01*
X106451571Y-81904768D01*
X106482446Y-81905169D01*
X106537981Y-81904783D01*
X106573033Y-81902975D01*
X106592262Y-81898773D01*
X106600330Y-81891203D01*
X106601901Y-81880218D01*
X106591121Y-81846381D01*
X106563980Y-81812940D01*
X106528277Y-81787272D01*
X106492560Y-81776772D01*
X106444048Y-81786086D01*
X106402053Y-81813013D01*
X106372936Y-81851827D01*
X106362990Y-81893413D01*
X106242421Y-81893413D01*
X106244599Y-81862236D01*
X106266055Y-81782949D01*
X106302470Y-81723263D01*
X106354297Y-81682549D01*
X106421990Y-81660179D01*
X106458662Y-81655871D01*
X106534581Y-81656970D01*
G36*
X103145301Y-80724614D02*
G01*
X103157832Y-80730514D01*
X103201201Y-80762283D01*
X103242210Y-80808646D01*
X103272832Y-80859696D01*
X103281541Y-80883166D01*
X103289488Y-80925091D01*
X103294226Y-80975757D01*
X103294801Y-80996679D01*
X103294871Y-81062693D01*
X102914917Y-81062693D01*
X102923017Y-81097273D01*
X102942896Y-81138170D01*
X102977653Y-81173514D01*
X103019002Y-81196282D01*
X103045351Y-81201010D01*
X103081084Y-81195273D01*
X103123718Y-81180882D01*
X103138201Y-81174262D01*
X103191760Y-81147513D01*
X103237467Y-81182376D01*
X103263842Y-81205955D01*
X103277876Y-81225417D01*
X103278586Y-81231129D01*
X103266049Y-81244973D01*
X103238572Y-81266012D01*
X103213634Y-81282425D01*
X103146336Y-81311930D01*
X103070890Y-81325284D01*
X102996112Y-81321812D01*
X102936505Y-81303663D01*
X102875059Y-81264784D01*
X102831392Y-81213595D01*
X102804074Y-81147367D01*
X102791678Y-81063371D01*
X102790579Y-81024936D01*
X102794978Y-80936861D01*
X102795518Y-80934299D01*
X102921418Y-80934299D01*
X102924885Y-80942558D01*
X102939137Y-80947113D01*
X102968530Y-80949065D01*
X103017425Y-80949517D01*
X103036252Y-80949525D01*
X103093533Y-80948843D01*
X103129859Y-80946364D01*
X103149396Y-80941443D01*
X103156310Y-80933434D01*
X103156555Y-80930862D01*
X103148664Y-80910423D01*
X103128915Y-80881789D01*
X103120425Y-80871763D01*
X103088906Y-80843408D01*
X103056051Y-80832259D01*
X103038349Y-80831327D01*
X102990461Y-80842981D01*
X102950301Y-80874285D01*
X102924827Y-80919752D01*
X102924375Y-80921233D01*
X102921418Y-80934299D01*
X102795518Y-80934299D01*
X102809608Y-80867510D01*
X102835962Y-80812025D01*
X102868193Y-80772639D01*
X102927783Y-80729931D01*
X102997832Y-80707109D01*
X103072339Y-80705046D01*
X103145301Y-80724614D01*
X103145301Y-80724614D01*
G37*
X103145301Y-80724614D02*
X103157832Y-80730514D01*
X103201201Y-80762283D01*
X103242210Y-80808646D01*
X103272832Y-80859696D01*
X103281541Y-80883166D01*
X103289488Y-80925091D01*
X103294226Y-80975757D01*
X103294801Y-80996679D01*
X103294871Y-81062693D01*
X102914917Y-81062693D01*
X102923017Y-81097273D01*
X102942896Y-81138170D01*
X102977653Y-81173514D01*
X103019002Y-81196282D01*
X103045351Y-81201010D01*
X103081084Y-81195273D01*
X103123718Y-81180882D01*
X103138201Y-81174262D01*
X103191760Y-81147513D01*
X103237467Y-81182376D01*
X103263842Y-81205955D01*
X103277876Y-81225417D01*
X103278586Y-81231129D01*
X103266049Y-81244973D01*
X103238572Y-81266012D01*
X103213634Y-81282425D01*
X103146336Y-81311930D01*
X103070890Y-81325284D01*
X102996112Y-81321812D01*
X102936505Y-81303663D01*
X102875059Y-81264784D01*
X102831392Y-81213595D01*
X102804074Y-81147367D01*
X102791678Y-81063371D01*
X102790579Y-81024936D01*
X102794978Y-80936861D01*
X102795518Y-80934299D01*
X102921418Y-80934299D01*
X102924885Y-80942558D01*
X102939137Y-80947113D01*
X102968530Y-80949065D01*
X103017425Y-80949517D01*
X103036252Y-80949525D01*
X103093533Y-80948843D01*
X103129859Y-80946364D01*
X103149396Y-80941443D01*
X103156310Y-80933434D01*
X103156555Y-80930862D01*
X103148664Y-80910423D01*
X103128915Y-80881789D01*
X103120425Y-80871763D01*
X103088906Y-80843408D01*
X103056051Y-80832259D01*
X103038349Y-80831327D01*
X102990461Y-80842981D01*
X102950301Y-80874285D01*
X102924827Y-80919752D01*
X102924375Y-80921233D01*
X102921418Y-80934299D01*
X102795518Y-80934299D01*
X102809608Y-80867510D01*
X102835962Y-80812025D01*
X102868193Y-80772639D01*
X102927783Y-80729931D01*
X102997832Y-80707109D01*
X103072339Y-80705046D01*
X103145301Y-80724614D01*
G36*
X103747988Y-80721002D02*
G01*
X103779283Y-80735950D01*
X103809591Y-80757541D01*
X103832682Y-80782391D01*
X103849500Y-80814087D01*
X103860994Y-80856214D01*
X103868109Y-80912358D01*
X103871793Y-80986106D01*
X103872992Y-81081044D01*
X103873011Y-81090985D01*
X103873287Y-81314179D01*
X103734970Y-81314179D01*
X103734970Y-81108418D01*
X103734872Y-81032189D01*
X103734191Y-80976939D01*
X103732349Y-80938501D01*
X103728767Y-80912706D01*
X103722868Y-80895384D01*
X103714073Y-80882368D01*
X103701820Y-80869507D01*
X103658953Y-80841873D01*
X103612157Y-80836745D01*
X103567576Y-80854217D01*
X103552072Y-80867221D01*
X103540690Y-80879447D01*
X103532519Y-80892540D01*
X103527026Y-80910615D01*
X103523680Y-80937787D01*
X103521949Y-80978170D01*
X103521303Y-81035879D01*
X103521208Y-81106132D01*
X103521208Y-81314179D01*
X103382891Y-81314179D01*
X103382891Y-80710614D01*
X103452050Y-80710614D01*
X103493572Y-80712256D01*
X103514994Y-80718087D01*
X103521205Y-80729461D01*
X103521208Y-80729798D01*
X103524090Y-80740938D01*
X103536801Y-80739674D01*
X103562074Y-80727434D01*
X103619395Y-80709424D01*
X103684963Y-80707421D01*
X103747988Y-80721002D01*
X103747988Y-80721002D01*
G37*
X103747988Y-80721002D02*
X103779283Y-80735950D01*
X103809591Y-80757541D01*
X103832682Y-80782391D01*
X103849500Y-80814087D01*
X103860994Y-80856214D01*
X103868109Y-80912358D01*
X103871793Y-80986106D01*
X103872992Y-81081044D01*
X103873011Y-81090985D01*
X103873287Y-81314179D01*
X103734970Y-81314179D01*
X103734970Y-81108418D01*
X103734872Y-81032189D01*
X103734191Y-80976939D01*
X103732349Y-80938501D01*
X103728767Y-80912706D01*
X103722868Y-80895384D01*
X103714073Y-80882368D01*
X103701820Y-80869507D01*
X103658953Y-80841873D01*
X103612157Y-80836745D01*
X103567576Y-80854217D01*
X103552072Y-80867221D01*
X103540690Y-80879447D01*
X103532519Y-80892540D01*
X103527026Y-80910615D01*
X103523680Y-80937787D01*
X103521949Y-80978170D01*
X103521303Y-81035879D01*
X103521208Y-81106132D01*
X103521208Y-81314179D01*
X103382891Y-81314179D01*
X103382891Y-80710614D01*
X103452050Y-80710614D01*
X103493572Y-80712256D01*
X103514994Y-80718087D01*
X103521205Y-80729461D01*
X103521208Y-80729798D01*
X103524090Y-80740938D01*
X103536801Y-80739674D01*
X103562074Y-80727434D01*
X103619395Y-80709424D01*
X103684963Y-80707421D01*
X103747988Y-80721002D01*
G36*
X106301460Y-80710030D02*
G01*
X106344711Y-80723245D01*
X106372558Y-80739941D01*
X106381629Y-80753145D01*
X106379132Y-80768797D01*
X106362931Y-80793385D01*
X106349232Y-80810800D01*
X106320992Y-80842283D01*
X106299775Y-80855529D01*
X106281688Y-80854664D01*
X106228035Y-80841010D01*
X106188630Y-80841630D01*
X106156632Y-80857104D01*
X106145890Y-80866161D01*
X106111505Y-80898027D01*
X106111505Y-81314179D01*
X105973188Y-81314179D01*
X105973188Y-80710614D01*
X106042347Y-80710614D01*
X106083869Y-80712256D01*
X106105291Y-80718087D01*
X106111502Y-80729461D01*
X106111505Y-80729798D01*
X106114439Y-80741713D01*
X106127704Y-80740159D01*
X106146084Y-80731563D01*
X106184046Y-80715568D01*
X106214872Y-80705945D01*
X106254536Y-80703478D01*
X106301460Y-80710030D01*
X106301460Y-80710030D01*
G37*
X106301460Y-80710030D02*
X106344711Y-80723245D01*
X106372558Y-80739941D01*
X106381629Y-80753145D01*
X106379132Y-80768797D01*
X106362931Y-80793385D01*
X106349232Y-80810800D01*
X106320992Y-80842283D01*
X106299775Y-80855529D01*
X106281688Y-80854664D01*
X106228035Y-80841010D01*
X106188630Y-80841630D01*
X106156632Y-80857104D01*
X106145890Y-80866161D01*
X106111505Y-80898027D01*
X106111505Y-81314179D01*
X105973188Y-81314179D01*
X105973188Y-80710614D01*
X106042347Y-80710614D01*
X106083869Y-80712256D01*
X106105291Y-80718087D01*
X106111502Y-80729461D01*
X106111505Y-80729798D01*
X106114439Y-80741713D01*
X106127704Y-80740159D01*
X106146084Y-80731563D01*
X106184046Y-80715568D01*
X106214872Y-80705945D01*
X106254536Y-80703478D01*
X106301460Y-80710030D01*
G36*
X104516017Y-80708452D02*
G01*
X104563634Y-80717482D01*
X104613034Y-80736370D01*
X104618312Y-80738777D01*
X104655774Y-80758476D01*
X104681717Y-80776781D01*
X104690103Y-80788508D01*
X104682117Y-80807632D01*
X104662720Y-80835850D01*
X104654110Y-80846384D01*
X104618628Y-80887847D01*
X104572885Y-80860858D01*
X104529350Y-80842878D01*
X104479050Y-80833267D01*
X104430812Y-80832660D01*
X104393467Y-80841691D01*
X104384505Y-80847327D01*
X104367437Y-80873171D01*
X104365363Y-80902941D01*
X104378134Y-80926197D01*
X104385688Y-80930708D01*
X104408325Y-80936309D01*
X104448115Y-80942892D01*
X104497166Y-80949183D01*
X104506215Y-80950170D01*
X104584996Y-80963798D01*
X104642136Y-80986946D01*
X104680030Y-81021752D01*
X104701079Y-81070354D01*
X104707635Y-81129718D01*
X104698577Y-81197198D01*
X104669164Y-81250188D01*
X104619278Y-81288783D01*
X104548800Y-81313081D01*
X104470565Y-81322667D01*
X104406766Y-81322552D01*
X104355016Y-81313845D01*
X104319673Y-81301825D01*
X104275017Y-81280880D01*
X104233747Y-81256574D01*
X104219079Y-81245876D01*
X104181357Y-81215084D01*
X104226852Y-81169049D01*
X104272347Y-81123013D01*
X104324072Y-81157243D01*
X104375952Y-81182952D01*
X104431351Y-81196399D01*
X104484605Y-81197818D01*
X104530049Y-81187443D01*
X104562016Y-81165507D01*
X104572338Y-81146998D01*
X104570789Y-81117314D01*
X104545140Y-81094615D01*
X104495460Y-81078940D01*
X104441031Y-81071695D01*
X104357264Y-81057873D01*
X104295033Y-81031796D01*
X104253507Y-80992699D01*
X104231853Y-80939820D01*
X104228853Y-80877126D01*
X104243671Y-80811642D01*
X104277454Y-80762144D01*
X104330505Y-80728408D01*
X104403126Y-80710207D01*
X104456928Y-80706639D01*
X104516017Y-80708452D01*
X104516017Y-80708452D01*
G37*
X104516017Y-80708452D02*
X104563634Y-80717482D01*
X104613034Y-80736370D01*
X104618312Y-80738777D01*
X104655774Y-80758476D01*
X104681717Y-80776781D01*
X104690103Y-80788508D01*
X104682117Y-80807632D01*
X104662720Y-80835850D01*
X104654110Y-80846384D01*
X104618628Y-80887847D01*
X104572885Y-80860858D01*
X104529350Y-80842878D01*
X104479050Y-80833267D01*
X104430812Y-80832660D01*
X104393467Y-80841691D01*
X104384505Y-80847327D01*
X104367437Y-80873171D01*
X104365363Y-80902941D01*
X104378134Y-80926197D01*
X104385688Y-80930708D01*
X104408325Y-80936309D01*
X104448115Y-80942892D01*
X104497166Y-80949183D01*
X104506215Y-80950170D01*
X104584996Y-80963798D01*
X104642136Y-80986946D01*
X104680030Y-81021752D01*
X104701079Y-81070354D01*
X104707635Y-81129718D01*
X104698577Y-81197198D01*
X104669164Y-81250188D01*
X104619278Y-81288783D01*
X104548800Y-81313081D01*
X104470565Y-81322667D01*
X104406766Y-81322552D01*
X104355016Y-81313845D01*
X104319673Y-81301825D01*
X104275017Y-81280880D01*
X104233747Y-81256574D01*
X104219079Y-81245876D01*
X104181357Y-81215084D01*
X104226852Y-81169049D01*
X104272347Y-81123013D01*
X104324072Y-81157243D01*
X104375952Y-81182952D01*
X104431351Y-81196399D01*
X104484605Y-81197818D01*
X104530049Y-81187443D01*
X104562016Y-81165507D01*
X104572338Y-81146998D01*
X104570789Y-81117314D01*
X104545140Y-81094615D01*
X104495460Y-81078940D01*
X104441031Y-81071695D01*
X104357264Y-81057873D01*
X104295033Y-81031796D01*
X104253507Y-80992699D01*
X104231853Y-80939820D01*
X104228853Y-80877126D01*
X104243671Y-80811642D01*
X104277454Y-80762144D01*
X104330505Y-80728408D01*
X104403126Y-80710207D01*
X104456928Y-80706639D01*
X104516017Y-80708452D01*
G36*
X105112762Y-80718055D02*
G01*
X105176363Y-80752692D01*
X105226123Y-80807372D01*
X105249568Y-80851842D01*
X105259634Y-80891121D01*
X105266156Y-80947116D01*
X105268951Y-81011621D01*
X105267836Y-81076429D01*
X105262626Y-81133334D01*
X105256541Y-81163727D01*
X105236014Y-81205306D01*
X105200463Y-81249468D01*
X105157619Y-81288087D01*
X105115211Y-81313034D01*
X105114177Y-81313430D01*
X105061553Y-81324331D01*
X104999188Y-81324601D01*
X104939924Y-81314676D01*
X104917040Y-81306722D01*
X104858102Y-81273300D01*
X104815890Y-81229511D01*
X104788156Y-81171538D01*
X104772651Y-81095565D01*
X104769143Y-81055771D01*
X104769590Y-81005766D01*
X104904376Y-81005766D01*
X104908917Y-81078732D01*
X104921986Y-81134334D01*
X104942756Y-81169861D01*
X104957552Y-81180020D01*
X104995464Y-81187104D01*
X105040527Y-81185007D01*
X105079487Y-81174812D01*
X105089704Y-81169204D01*
X105116659Y-81136538D01*
X105134451Y-81086545D01*
X105142024Y-81025705D01*
X105138325Y-80960497D01*
X105130057Y-80921253D01*
X105106320Y-80875805D01*
X105068849Y-80847396D01*
X105023720Y-80837573D01*
X104977011Y-80847887D01*
X104941132Y-80873112D01*
X104922277Y-80893925D01*
X104911272Y-80914439D01*
X104906026Y-80942203D01*
X104904449Y-80984762D01*
X104904376Y-81005766D01*
X104769590Y-81005766D01*
X104770094Y-80949580D01*
X104787388Y-80862501D01*
X104821029Y-80794530D01*
X104871018Y-80745664D01*
X104937356Y-80715899D01*
X104951601Y-80712448D01*
X105037210Y-80704345D01*
X105112762Y-80718055D01*
X105112762Y-80718055D01*
G37*
X105112762Y-80718055D02*
X105176363Y-80752692D01*
X105226123Y-80807372D01*
X105249568Y-80851842D01*
X105259634Y-80891121D01*
X105266156Y-80947116D01*
X105268951Y-81011621D01*
X105267836Y-81076429D01*
X105262626Y-81133334D01*
X105256541Y-81163727D01*
X105236014Y-81205306D01*
X105200463Y-81249468D01*
X105157619Y-81288087D01*
X105115211Y-81313034D01*
X105114177Y-81313430D01*
X105061553Y-81324331D01*
X104999188Y-81324601D01*
X104939924Y-81314676D01*
X104917040Y-81306722D01*
X104858102Y-81273300D01*
X104815890Y-81229511D01*
X104788156Y-81171538D01*
X104772651Y-81095565D01*
X104769143Y-81055771D01*
X104769590Y-81005766D01*
X104904376Y-81005766D01*
X104908917Y-81078732D01*
X104921986Y-81134334D01*
X104942756Y-81169861D01*
X104957552Y-81180020D01*
X104995464Y-81187104D01*
X105040527Y-81185007D01*
X105079487Y-81174812D01*
X105089704Y-81169204D01*
X105116659Y-81136538D01*
X105134451Y-81086545D01*
X105142024Y-81025705D01*
X105138325Y-80960497D01*
X105130057Y-80921253D01*
X105106320Y-80875805D01*
X105068849Y-80847396D01*
X105023720Y-80837573D01*
X104977011Y-80847887D01*
X104941132Y-80873112D01*
X104922277Y-80893925D01*
X104911272Y-80914439D01*
X104906026Y-80942203D01*
X104904449Y-80984762D01*
X104904376Y-81005766D01*
X104769590Y-81005766D01*
X104770094Y-80949580D01*
X104787388Y-80862501D01*
X104821029Y-80794530D01*
X104871018Y-80745664D01*
X104937356Y-80715899D01*
X104951601Y-80712448D01*
X105037210Y-80704345D01*
X105112762Y-80718055D01*
G36*
X105495367Y-80906342D02*
G01*
X105496555Y-80998563D01*
X105500897Y-81068610D01*
X105509558Y-81119381D01*
X105523704Y-81153772D01*
X105544500Y-81174679D01*
X105573110Y-81185000D01*
X105608535Y-81187636D01*
X105645636Y-81184682D01*
X105673818Y-81173889D01*
X105694243Y-81152360D01*
X105708079Y-81117199D01*
X105716491Y-81065510D01*
X105720643Y-80994394D01*
X105721703Y-80906342D01*
X105721703Y-80710614D01*
X105860020Y-80710614D01*
X105860020Y-81314179D01*
X105790862Y-81314179D01*
X105749170Y-81312489D01*
X105727701Y-81306556D01*
X105721703Y-81295293D01*
X105718091Y-81285261D01*
X105703714Y-81287383D01*
X105674736Y-81301580D01*
X105608319Y-81323480D01*
X105537875Y-81321928D01*
X105470377Y-81298147D01*
X105438233Y-81279362D01*
X105413715Y-81259022D01*
X105395804Y-81233573D01*
X105383479Y-81199458D01*
X105375723Y-81153121D01*
X105371516Y-81091007D01*
X105369840Y-81009561D01*
X105369624Y-80946578D01*
X105369624Y-80710614D01*
X105495367Y-80710614D01*
X105495367Y-80906342D01*
X105495367Y-80906342D01*
G37*
X105495367Y-80906342D02*
X105496555Y-80998563D01*
X105500897Y-81068610D01*
X105509558Y-81119381D01*
X105523704Y-81153772D01*
X105544500Y-81174679D01*
X105573110Y-81185000D01*
X105608535Y-81187636D01*
X105645636Y-81184682D01*
X105673818Y-81173889D01*
X105694243Y-81152360D01*
X105708079Y-81117199D01*
X105716491Y-81065510D01*
X105720643Y-80994394D01*
X105721703Y-80906342D01*
X105721703Y-80710614D01*
X105860020Y-80710614D01*
X105860020Y-81314179D01*
X105790862Y-81314179D01*
X105749170Y-81312489D01*
X105727701Y-81306556D01*
X105721703Y-81295293D01*
X105718091Y-81285261D01*
X105703714Y-81287383D01*
X105674736Y-81301580D01*
X105608319Y-81323480D01*
X105537875Y-81321928D01*
X105470377Y-81298147D01*
X105438233Y-81279362D01*
X105413715Y-81259022D01*
X105395804Y-81233573D01*
X105383479Y-81199458D01*
X105375723Y-81153121D01*
X105371516Y-81091007D01*
X105369840Y-81009561D01*
X105369624Y-80946578D01*
X105369624Y-80710614D01*
X105495367Y-80710614D01*
X105495367Y-80906342D01*
G36*
X106719226Y-80715880D02*
G01*
X106792080Y-80746830D01*
X106815027Y-80761895D01*
X106844354Y-80785048D01*
X106862764Y-80803253D01*
X106865961Y-80809183D01*
X106856935Y-80822340D01*
X106833837Y-80844667D01*
X106815344Y-80860250D01*
X106764728Y-80900926D01*
X106724760Y-80867295D01*
X106693874Y-80845584D01*
X106663759Y-80838090D01*
X106629292Y-80839920D01*
X106574561Y-80853528D01*
X106536886Y-80881772D01*
X106513991Y-80927433D01*
X106503597Y-80993289D01*
X106503595Y-80993331D01*
X106504494Y-81066939D01*
X106518463Y-81120946D01*
X106546328Y-81157716D01*
X106565325Y-81170168D01*
X106615776Y-81185673D01*
X106669663Y-81185683D01*
X106716546Y-81170638D01*
X106727644Y-81163287D01*
X106755476Y-81144511D01*
X106777236Y-81141434D01*
X106800704Y-81155409D01*
X106826649Y-81180510D01*
X106867716Y-81222880D01*
X106822121Y-81260464D01*
X106751674Y-81302882D01*
X106672233Y-81323785D01*
X106589215Y-81322272D01*
X106534694Y-81308411D01*
X106470970Y-81274135D01*
X106420005Y-81220212D01*
X106396851Y-81182149D01*
X106378099Y-81127536D01*
X106368715Y-81058369D01*
X106368643Y-80983407D01*
X106377824Y-80911409D01*
X106396199Y-80851137D01*
X106399093Y-80844958D01*
X106441952Y-80784351D01*
X106499979Y-80740224D01*
X106568591Y-80713493D01*
X106643201Y-80705073D01*
X106719226Y-80715880D01*
X106719226Y-80715880D01*
G37*
X106719226Y-80715880D02*
X106792080Y-80746830D01*
X106815027Y-80761895D01*
X106844354Y-80785048D01*
X106862764Y-80803253D01*
X106865961Y-80809183D01*
X106856935Y-80822340D01*
X106833837Y-80844667D01*
X106815344Y-80860250D01*
X106764728Y-80900926D01*
X106724760Y-80867295D01*
X106693874Y-80845584D01*
X106663759Y-80838090D01*
X106629292Y-80839920D01*
X106574561Y-80853528D01*
X106536886Y-80881772D01*
X106513991Y-80927433D01*
X106503597Y-80993289D01*
X106503595Y-80993331D01*
X106504494Y-81066939D01*
X106518463Y-81120946D01*
X106546328Y-81157716D01*
X106565325Y-81170168D01*
X106615776Y-81185673D01*
X106669663Y-81185683D01*
X106716546Y-81170638D01*
X106727644Y-81163287D01*
X106755476Y-81144511D01*
X106777236Y-81141434D01*
X106800704Y-81155409D01*
X106826649Y-81180510D01*
X106867716Y-81222880D01*
X106822121Y-81260464D01*
X106751674Y-81302882D01*
X106672233Y-81323785D01*
X106589215Y-81322272D01*
X106534694Y-81308411D01*
X106470970Y-81274135D01*
X106420005Y-81220212D01*
X106396851Y-81182149D01*
X106378099Y-81127536D01*
X106368715Y-81058369D01*
X106368643Y-80983407D01*
X106377824Y-80911409D01*
X106396199Y-80851137D01*
X106399093Y-80844958D01*
X106441952Y-80784351D01*
X106499979Y-80740224D01*
X106568591Y-80713493D01*
X106643201Y-80705073D01*
X106719226Y-80715880D01*
G36*
X107179898Y-80708457D02*
G01*
X107212096Y-80716279D01*
X107273825Y-80744921D01*
X107326610Y-80788667D01*
X107363141Y-80841117D01*
X107368160Y-80852893D01*
X107375045Y-80883740D01*
X107379864Y-80929371D01*
X107381505Y-80975492D01*
X107381505Y-81062693D01*
X107199178Y-81062693D01*
X107123979Y-81062978D01*
X107071003Y-81064704D01*
X107037325Y-81069181D01*
X107020020Y-81077720D01*
X107016163Y-81091630D01*
X107022829Y-81112222D01*
X107034770Y-81136315D01*
X107068080Y-81176525D01*
X107114368Y-81196558D01*
X107170944Y-81195905D01*
X107235031Y-81174101D01*
X107290417Y-81147193D01*
X107336375Y-81183532D01*
X107382333Y-81219872D01*
X107339096Y-81259819D01*
X107281374Y-81297563D01*
X107210386Y-81320320D01*
X107134029Y-81326688D01*
X107060199Y-81315268D01*
X107048287Y-81311393D01*
X106983399Y-81277506D01*
X106935130Y-81226986D01*
X106902465Y-81158325D01*
X106884385Y-81070014D01*
X106884175Y-81068121D01*
X106882556Y-80971878D01*
X106889100Y-80937542D01*
X107016852Y-80937542D01*
X107028584Y-80942822D01*
X107060438Y-80946867D01*
X107107397Y-80949176D01*
X107137154Y-80949525D01*
X107192648Y-80949306D01*
X107227346Y-80947916D01*
X107245601Y-80944251D01*
X107251766Y-80937210D01*
X107250195Y-80925690D01*
X107248878Y-80921233D01*
X107226382Y-80879355D01*
X107191003Y-80845604D01*
X107159780Y-80830773D01*
X107118301Y-80831668D01*
X107076269Y-80850164D01*
X107041012Y-80880786D01*
X107019854Y-80918062D01*
X107016852Y-80937542D01*
X106889100Y-80937542D01*
X106898690Y-80887229D01*
X106930698Y-80816191D01*
X106976701Y-80760779D01*
X107034821Y-80723009D01*
X107103180Y-80704896D01*
X107179898Y-80708457D01*
X107179898Y-80708457D01*
G37*
X107179898Y-80708457D02*
X107212096Y-80716279D01*
X107273825Y-80744921D01*
X107326610Y-80788667D01*
X107363141Y-80841117D01*
X107368160Y-80852893D01*
X107375045Y-80883740D01*
X107379864Y-80929371D01*
X107381505Y-80975492D01*
X107381505Y-81062693D01*
X107199178Y-81062693D01*
X107123979Y-81062978D01*
X107071003Y-81064704D01*
X107037325Y-81069181D01*
X107020020Y-81077720D01*
X107016163Y-81091630D01*
X107022829Y-81112222D01*
X107034770Y-81136315D01*
X107068080Y-81176525D01*
X107114368Y-81196558D01*
X107170944Y-81195905D01*
X107235031Y-81174101D01*
X107290417Y-81147193D01*
X107336375Y-81183532D01*
X107382333Y-81219872D01*
X107339096Y-81259819D01*
X107281374Y-81297563D01*
X107210386Y-81320320D01*
X107134029Y-81326688D01*
X107060199Y-81315268D01*
X107048287Y-81311393D01*
X106983399Y-81277506D01*
X106935130Y-81226986D01*
X106902465Y-81158325D01*
X106884385Y-81070014D01*
X106884175Y-81068121D01*
X106882556Y-80971878D01*
X106889100Y-80937542D01*
X107016852Y-80937542D01*
X107028584Y-80942822D01*
X107060438Y-80946867D01*
X107107397Y-80949176D01*
X107137154Y-80949525D01*
X107192648Y-80949306D01*
X107227346Y-80947916D01*
X107245601Y-80944251D01*
X107251766Y-80937210D01*
X107250195Y-80925690D01*
X107248878Y-80921233D01*
X107226382Y-80879355D01*
X107191003Y-80845604D01*
X107159780Y-80830773D01*
X107118301Y-80831668D01*
X107076269Y-80850164D01*
X107041012Y-80880786D01*
X107019854Y-80918062D01*
X107016852Y-80937542D01*
X106889100Y-80937542D01*
X106898690Y-80887229D01*
X106930698Y-80816191D01*
X106976701Y-80760779D01*
X107034821Y-80723009D01*
X107103180Y-80704896D01*
X107179898Y-80708457D01*
D11*
G36*
X81651000Y-84151000D02*
G01*
X79849000Y-84151000D01*
X79849000Y-82349000D01*
X81651000Y-82349000D01*
X81651000Y-84151000D01*
X81651000Y-84151000D01*
G37*
G36*
X78320443Y-82355519D02*
G01*
X78386627Y-82362037D01*
X78556466Y-82413557D01*
X78712991Y-82497222D01*
X78748729Y-82526552D01*
X78850186Y-82609814D01*
X78933448Y-82711271D01*
X78962778Y-82747009D01*
X79046443Y-82903534D01*
X79097963Y-83073373D01*
X79115359Y-83250000D01*
X79097963Y-83426627D01*
X79046443Y-83596466D01*
X78962778Y-83752991D01*
X78933448Y-83788729D01*
X78850186Y-83890186D01*
X78748729Y-83973448D01*
X78712991Y-84002778D01*
X78556466Y-84086443D01*
X78386627Y-84137963D01*
X78320443Y-84144481D01*
X78254260Y-84151000D01*
X78165740Y-84151000D01*
X78099557Y-84144481D01*
X78033373Y-84137963D01*
X77863534Y-84086443D01*
X77707009Y-84002778D01*
X77671271Y-83973448D01*
X77569814Y-83890186D01*
X77486552Y-83788729D01*
X77457222Y-83752991D01*
X77373557Y-83596466D01*
X77322037Y-83426627D01*
X77304641Y-83250000D01*
X77322037Y-83073373D01*
X77373557Y-82903534D01*
X77457222Y-82747009D01*
X77486552Y-82711271D01*
X77569814Y-82609814D01*
X77671271Y-82526552D01*
X77707009Y-82497222D01*
X77863534Y-82413557D01*
X78033373Y-82362037D01*
X78099557Y-82355519D01*
X78165740Y-82349000D01*
X78254260Y-82349000D01*
X78320443Y-82355519D01*
X78320443Y-82355519D01*
G37*
G36*
X80860442Y-79815518D02*
G01*
X80926627Y-79822037D01*
X81096466Y-79873557D01*
X81252991Y-79957222D01*
X81288729Y-79986552D01*
X81390186Y-80069814D01*
X81473448Y-80171271D01*
X81502778Y-80207009D01*
X81586443Y-80363534D01*
X81637963Y-80533373D01*
X81655359Y-80710000D01*
X81637963Y-80886627D01*
X81586443Y-81056466D01*
X81502778Y-81212991D01*
X81473448Y-81248729D01*
X81390186Y-81350186D01*
X81288729Y-81433448D01*
X81252991Y-81462778D01*
X81096466Y-81546443D01*
X80926627Y-81597963D01*
X80860442Y-81604482D01*
X80794260Y-81611000D01*
X80705740Y-81611000D01*
X80639558Y-81604482D01*
X80573373Y-81597963D01*
X80403534Y-81546443D01*
X80247009Y-81462778D01*
X80211271Y-81433448D01*
X80109814Y-81350186D01*
X80026552Y-81248729D01*
X79997222Y-81212991D01*
X79913557Y-81056466D01*
X79862037Y-80886627D01*
X79844641Y-80710000D01*
X79862037Y-80533373D01*
X79913557Y-80363534D01*
X79997222Y-80207009D01*
X80026552Y-80171271D01*
X80109814Y-80069814D01*
X80211271Y-79986552D01*
X80247009Y-79957222D01*
X80403534Y-79873557D01*
X80573373Y-79822037D01*
X80639558Y-79815518D01*
X80705740Y-79809000D01*
X80794260Y-79809000D01*
X80860442Y-79815518D01*
X80860442Y-79815518D01*
G37*
G36*
X78320442Y-79815518D02*
G01*
X78386627Y-79822037D01*
X78556466Y-79873557D01*
X78712991Y-79957222D01*
X78748729Y-79986552D01*
X78850186Y-80069814D01*
X78933448Y-80171271D01*
X78962778Y-80207009D01*
X79046443Y-80363534D01*
X79097963Y-80533373D01*
X79115359Y-80710000D01*
X79097963Y-80886627D01*
X79046443Y-81056466D01*
X78962778Y-81212991D01*
X78933448Y-81248729D01*
X78850186Y-81350186D01*
X78748729Y-81433448D01*
X78712991Y-81462778D01*
X78556466Y-81546443D01*
X78386627Y-81597963D01*
X78320442Y-81604482D01*
X78254260Y-81611000D01*
X78165740Y-81611000D01*
X78099558Y-81604482D01*
X78033373Y-81597963D01*
X77863534Y-81546443D01*
X77707009Y-81462778D01*
X77671271Y-81433448D01*
X77569814Y-81350186D01*
X77486552Y-81248729D01*
X77457222Y-81212991D01*
X77373557Y-81056466D01*
X77322037Y-80886627D01*
X77304641Y-80710000D01*
X77322037Y-80533373D01*
X77373557Y-80363534D01*
X77457222Y-80207009D01*
X77486552Y-80171271D01*
X77569814Y-80069814D01*
X77671271Y-79986552D01*
X77707009Y-79957222D01*
X77863534Y-79873557D01*
X78033373Y-79822037D01*
X78099558Y-79815518D01*
X78165740Y-79809000D01*
X78254260Y-79809000D01*
X78320442Y-79815518D01*
X78320442Y-79815518D01*
G37*
G36*
X78320442Y-77275518D02*
G01*
X78386627Y-77282037D01*
X78556466Y-77333557D01*
X78712991Y-77417222D01*
X78748729Y-77446552D01*
X78850186Y-77529814D01*
X78933448Y-77631271D01*
X78962778Y-77667009D01*
X79046443Y-77823534D01*
X79097963Y-77993373D01*
X79115359Y-78170000D01*
X79097963Y-78346627D01*
X79046443Y-78516466D01*
X78962778Y-78672991D01*
X78933448Y-78708729D01*
X78850186Y-78810186D01*
X78748729Y-78893448D01*
X78712991Y-78922778D01*
X78556466Y-79006443D01*
X78386627Y-79057963D01*
X78320442Y-79064482D01*
X78254260Y-79071000D01*
X78165740Y-79071000D01*
X78099558Y-79064482D01*
X78033373Y-79057963D01*
X77863534Y-79006443D01*
X77707009Y-78922778D01*
X77671271Y-78893448D01*
X77569814Y-78810186D01*
X77486552Y-78708729D01*
X77457222Y-78672991D01*
X77373557Y-78516466D01*
X77322037Y-78346627D01*
X77304641Y-78170000D01*
X77322037Y-77993373D01*
X77373557Y-77823534D01*
X77457222Y-77667009D01*
X77486552Y-77631271D01*
X77569814Y-77529814D01*
X77671271Y-77446552D01*
X77707009Y-77417222D01*
X77863534Y-77333557D01*
X78033373Y-77282037D01*
X78099558Y-77275518D01*
X78165740Y-77269000D01*
X78254260Y-77269000D01*
X78320442Y-77275518D01*
X78320442Y-77275518D01*
G37*
G36*
X80860442Y-77275518D02*
G01*
X80926627Y-77282037D01*
X81096466Y-77333557D01*
X81252991Y-77417222D01*
X81288729Y-77446552D01*
X81390186Y-77529814D01*
X81473448Y-77631271D01*
X81502778Y-77667009D01*
X81586443Y-77823534D01*
X81637963Y-77993373D01*
X81655359Y-78170000D01*
X81637963Y-78346627D01*
X81586443Y-78516466D01*
X81502778Y-78672991D01*
X81473448Y-78708729D01*
X81390186Y-78810186D01*
X81288729Y-78893448D01*
X81252991Y-78922778D01*
X81096466Y-79006443D01*
X80926627Y-79057963D01*
X80860442Y-79064482D01*
X80794260Y-79071000D01*
X80705740Y-79071000D01*
X80639558Y-79064482D01*
X80573373Y-79057963D01*
X80403534Y-79006443D01*
X80247009Y-78922778D01*
X80211271Y-78893448D01*
X80109814Y-78810186D01*
X80026552Y-78708729D01*
X79997222Y-78672991D01*
X79913557Y-78516466D01*
X79862037Y-78346627D01*
X79844641Y-78170000D01*
X79862037Y-77993373D01*
X79913557Y-77823534D01*
X79997222Y-77667009D01*
X80026552Y-77631271D01*
X80109814Y-77529814D01*
X80211271Y-77446552D01*
X80247009Y-77417222D01*
X80403534Y-77333557D01*
X80573373Y-77282037D01*
X80639558Y-77275518D01*
X80705740Y-77269000D01*
X80794260Y-77269000D01*
X80860442Y-77275518D01*
X80860442Y-77275518D01*
G37*
G36*
X80860443Y-74735519D02*
G01*
X80926627Y-74742037D01*
X81096466Y-74793557D01*
X81252991Y-74877222D01*
X81288729Y-74906552D01*
X81390186Y-74989814D01*
X81473448Y-75091271D01*
X81502778Y-75127009D01*
X81586443Y-75283534D01*
X81637963Y-75453373D01*
X81655359Y-75630000D01*
X81637963Y-75806627D01*
X81586443Y-75976466D01*
X81502778Y-76132991D01*
X81473448Y-76168729D01*
X81390186Y-76270186D01*
X81288729Y-76353448D01*
X81252991Y-76382778D01*
X81096466Y-76466443D01*
X80926627Y-76517963D01*
X80860442Y-76524482D01*
X80794260Y-76531000D01*
X80705740Y-76531000D01*
X80639558Y-76524482D01*
X80573373Y-76517963D01*
X80403534Y-76466443D01*
X80247009Y-76382778D01*
X80211271Y-76353448D01*
X80109814Y-76270186D01*
X80026552Y-76168729D01*
X79997222Y-76132991D01*
X79913557Y-75976466D01*
X79862037Y-75806627D01*
X79844641Y-75630000D01*
X79862037Y-75453373D01*
X79913557Y-75283534D01*
X79997222Y-75127009D01*
X80026552Y-75091271D01*
X80109814Y-74989814D01*
X80211271Y-74906552D01*
X80247009Y-74877222D01*
X80403534Y-74793557D01*
X80573373Y-74742037D01*
X80639557Y-74735519D01*
X80705740Y-74729000D01*
X80794260Y-74729000D01*
X80860443Y-74735519D01*
X80860443Y-74735519D01*
G37*
G36*
X78320443Y-74735519D02*
G01*
X78386627Y-74742037D01*
X78556466Y-74793557D01*
X78712991Y-74877222D01*
X78748729Y-74906552D01*
X78850186Y-74989814D01*
X78933448Y-75091271D01*
X78962778Y-75127009D01*
X79046443Y-75283534D01*
X79097963Y-75453373D01*
X79115359Y-75630000D01*
X79097963Y-75806627D01*
X79046443Y-75976466D01*
X78962778Y-76132991D01*
X78933448Y-76168729D01*
X78850186Y-76270186D01*
X78748729Y-76353448D01*
X78712991Y-76382778D01*
X78556466Y-76466443D01*
X78386627Y-76517963D01*
X78320442Y-76524482D01*
X78254260Y-76531000D01*
X78165740Y-76531000D01*
X78099558Y-76524482D01*
X78033373Y-76517963D01*
X77863534Y-76466443D01*
X77707009Y-76382778D01*
X77671271Y-76353448D01*
X77569814Y-76270186D01*
X77486552Y-76168729D01*
X77457222Y-76132991D01*
X77373557Y-75976466D01*
X77322037Y-75806627D01*
X77304641Y-75630000D01*
X77322037Y-75453373D01*
X77373557Y-75283534D01*
X77457222Y-75127009D01*
X77486552Y-75091271D01*
X77569814Y-74989814D01*
X77671271Y-74906552D01*
X77707009Y-74877222D01*
X77863534Y-74793557D01*
X78033373Y-74742037D01*
X78099557Y-74735519D01*
X78165740Y-74729000D01*
X78254260Y-74729000D01*
X78320443Y-74735519D01*
X78320443Y-74735519D01*
G37*
G36*
X80860442Y-72195518D02*
G01*
X80926627Y-72202037D01*
X81096466Y-72253557D01*
X81096468Y-72253558D01*
X81126035Y-72269362D01*
X81252991Y-72337222D01*
X81288729Y-72366552D01*
X81390186Y-72449814D01*
X81473448Y-72551271D01*
X81502778Y-72587009D01*
X81586443Y-72743534D01*
X81637963Y-72913373D01*
X81655359Y-73090000D01*
X81637963Y-73266627D01*
X81586443Y-73436466D01*
X81502778Y-73592991D01*
X81473448Y-73628729D01*
X81390186Y-73730186D01*
X81288729Y-73813448D01*
X81252991Y-73842778D01*
X81096466Y-73926443D01*
X80926627Y-73977963D01*
X80860443Y-73984481D01*
X80794260Y-73991000D01*
X80705740Y-73991000D01*
X80639557Y-73984481D01*
X80573373Y-73977963D01*
X80403534Y-73926443D01*
X80247009Y-73842778D01*
X80211271Y-73813448D01*
X80109814Y-73730186D01*
X80026552Y-73628729D01*
X79997222Y-73592991D01*
X79913557Y-73436466D01*
X79862037Y-73266627D01*
X79844641Y-73090000D01*
X79862037Y-72913373D01*
X79913557Y-72743534D01*
X79997222Y-72587009D01*
X80026552Y-72551271D01*
X80109814Y-72449814D01*
X80211271Y-72366552D01*
X80247009Y-72337222D01*
X80373965Y-72269362D01*
X80403532Y-72253558D01*
X80403534Y-72253557D01*
X80573373Y-72202037D01*
X80639558Y-72195518D01*
X80705740Y-72189000D01*
X80794260Y-72189000D01*
X80860442Y-72195518D01*
X80860442Y-72195518D01*
G37*
G36*
X78320442Y-72195518D02*
G01*
X78386627Y-72202037D01*
X78556466Y-72253557D01*
X78556468Y-72253558D01*
X78586035Y-72269362D01*
X78712991Y-72337222D01*
X78748729Y-72366552D01*
X78850186Y-72449814D01*
X78933448Y-72551271D01*
X78962778Y-72587009D01*
X79046443Y-72743534D01*
X79097963Y-72913373D01*
X79115359Y-73090000D01*
X79097963Y-73266627D01*
X79046443Y-73436466D01*
X78962778Y-73592991D01*
X78933448Y-73628729D01*
X78850186Y-73730186D01*
X78748729Y-73813448D01*
X78712991Y-73842778D01*
X78556466Y-73926443D01*
X78386627Y-73977963D01*
X78320443Y-73984481D01*
X78254260Y-73991000D01*
X78165740Y-73991000D01*
X78099557Y-73984481D01*
X78033373Y-73977963D01*
X77863534Y-73926443D01*
X77707009Y-73842778D01*
X77671271Y-73813448D01*
X77569814Y-73730186D01*
X77486552Y-73628729D01*
X77457222Y-73592991D01*
X77373557Y-73436466D01*
X77322037Y-73266627D01*
X77304641Y-73090000D01*
X77322037Y-72913373D01*
X77373557Y-72743534D01*
X77457222Y-72587009D01*
X77486552Y-72551271D01*
X77569814Y-72449814D01*
X77671271Y-72366552D01*
X77707009Y-72337222D01*
X77833965Y-72269362D01*
X77863532Y-72253558D01*
X77863534Y-72253557D01*
X78033373Y-72202037D01*
X78099558Y-72195518D01*
X78165740Y-72189000D01*
X78254260Y-72189000D01*
X78320442Y-72195518D01*
X78320442Y-72195518D01*
G37*
G36*
X102564499Y-71328445D02*
G01*
X102601995Y-71339820D01*
X102636554Y-71358292D01*
X102666847Y-71383153D01*
X102691708Y-71413446D01*
X102710180Y-71448005D01*
X102721555Y-71485501D01*
X102726000Y-71530638D01*
X102726000Y-72269362D01*
X102721555Y-72314499D01*
X102710180Y-72351995D01*
X102691708Y-72386554D01*
X102666847Y-72416847D01*
X102636554Y-72441708D01*
X102601995Y-72460180D01*
X102564499Y-72471555D01*
X102519362Y-72476000D01*
X101880638Y-72476000D01*
X101835501Y-72471555D01*
X101798005Y-72460180D01*
X101763446Y-72441708D01*
X101733153Y-72416847D01*
X101708292Y-72386554D01*
X101689820Y-72351995D01*
X101678445Y-72314499D01*
X101674000Y-72269362D01*
X101674000Y-71530638D01*
X101678445Y-71485501D01*
X101689820Y-71448005D01*
X101708292Y-71413446D01*
X101733153Y-71383153D01*
X101763446Y-71358292D01*
X101798005Y-71339820D01*
X101835501Y-71328445D01*
X101880638Y-71324000D01*
X102519362Y-71324000D01*
X102564499Y-71328445D01*
X102564499Y-71328445D01*
G37*
G36*
X78320443Y-69655519D02*
G01*
X78386627Y-69662037D01*
X78556466Y-69713557D01*
X78556468Y-69713558D01*
X78593127Y-69733153D01*
X78712991Y-69797222D01*
X78748729Y-69826552D01*
X78850186Y-69909814D01*
X78933448Y-70011271D01*
X78962778Y-70047009D01*
X79046443Y-70203534D01*
X79097963Y-70373373D01*
X79115359Y-70550000D01*
X79097963Y-70726627D01*
X79046443Y-70896466D01*
X78962778Y-71052991D01*
X78933448Y-71088729D01*
X78850186Y-71190186D01*
X78748729Y-71273448D01*
X78712991Y-71302778D01*
X78556466Y-71386443D01*
X78386627Y-71437963D01*
X78320442Y-71444482D01*
X78254260Y-71451000D01*
X78165740Y-71451000D01*
X78099558Y-71444482D01*
X78033373Y-71437963D01*
X77863534Y-71386443D01*
X77707009Y-71302778D01*
X77671271Y-71273448D01*
X77569814Y-71190186D01*
X77486552Y-71088729D01*
X77457222Y-71052991D01*
X77373557Y-70896466D01*
X77322037Y-70726627D01*
X77304641Y-70550000D01*
X77322037Y-70373373D01*
X77373557Y-70203534D01*
X77457222Y-70047009D01*
X77486552Y-70011271D01*
X77569814Y-69909814D01*
X77671271Y-69826552D01*
X77707009Y-69797222D01*
X77826873Y-69733153D01*
X77863532Y-69713558D01*
X77863534Y-69713557D01*
X78033373Y-69662037D01*
X78099557Y-69655519D01*
X78165740Y-69649000D01*
X78254260Y-69649000D01*
X78320443Y-69655519D01*
X78320443Y-69655519D01*
G37*
G36*
X80860443Y-69655519D02*
G01*
X80926627Y-69662037D01*
X81096466Y-69713557D01*
X81096468Y-69713558D01*
X81133127Y-69733153D01*
X81252991Y-69797222D01*
X81288729Y-69826552D01*
X81390186Y-69909814D01*
X81473448Y-70011271D01*
X81502778Y-70047009D01*
X81586443Y-70203534D01*
X81637963Y-70373373D01*
X81655359Y-70550000D01*
X81637963Y-70726627D01*
X81586443Y-70896466D01*
X81502778Y-71052991D01*
X81473448Y-71088729D01*
X81390186Y-71190186D01*
X81288729Y-71273448D01*
X81252991Y-71302778D01*
X81096466Y-71386443D01*
X80926627Y-71437963D01*
X80860442Y-71444482D01*
X80794260Y-71451000D01*
X80705740Y-71451000D01*
X80639558Y-71444482D01*
X80573373Y-71437963D01*
X80403534Y-71386443D01*
X80247009Y-71302778D01*
X80211271Y-71273448D01*
X80109814Y-71190186D01*
X80026552Y-71088729D01*
X79997222Y-71052991D01*
X79913557Y-70896466D01*
X79862037Y-70726627D01*
X79844641Y-70550000D01*
X79862037Y-70373373D01*
X79913557Y-70203534D01*
X79997222Y-70047009D01*
X80026552Y-70011271D01*
X80109814Y-69909814D01*
X80211271Y-69826552D01*
X80247009Y-69797222D01*
X80366873Y-69733153D01*
X80403532Y-69713558D01*
X80403534Y-69713557D01*
X80573373Y-69662037D01*
X80639557Y-69655519D01*
X80705740Y-69649000D01*
X80794260Y-69649000D01*
X80860443Y-69655519D01*
X80860443Y-69655519D01*
G37*
G36*
X102564499Y-69578445D02*
G01*
X102601995Y-69589820D01*
X102636554Y-69608292D01*
X102666847Y-69633153D01*
X102691708Y-69663446D01*
X102710180Y-69698005D01*
X102721555Y-69735501D01*
X102726000Y-69780638D01*
X102726000Y-70519362D01*
X102721555Y-70564499D01*
X102710180Y-70601995D01*
X102691708Y-70636554D01*
X102666847Y-70666847D01*
X102636554Y-70691708D01*
X102601995Y-70710180D01*
X102564499Y-70721555D01*
X102519362Y-70726000D01*
X101880638Y-70726000D01*
X101835501Y-70721555D01*
X101798005Y-70710180D01*
X101763446Y-70691708D01*
X101733153Y-70666847D01*
X101708292Y-70636554D01*
X101689820Y-70601995D01*
X101678445Y-70564499D01*
X101674000Y-70519362D01*
X101674000Y-69780638D01*
X101678445Y-69735501D01*
X101689820Y-69698005D01*
X101708292Y-69663446D01*
X101733153Y-69633153D01*
X101763446Y-69608292D01*
X101798005Y-69589820D01*
X101835501Y-69578445D01*
X101880638Y-69574000D01*
X102519362Y-69574000D01*
X102564499Y-69578445D01*
X102564499Y-69578445D01*
G37*
G36*
X90064499Y-69678445D02*
G01*
X90101995Y-69689820D01*
X90136554Y-69708292D01*
X90166847Y-69733153D01*
X90191708Y-69763446D01*
X90210180Y-69798005D01*
X90221555Y-69835501D01*
X90226000Y-69880638D01*
X90226000Y-70519362D01*
X90221555Y-70564499D01*
X90210180Y-70601995D01*
X90191708Y-70636554D01*
X90166847Y-70666847D01*
X90136554Y-70691708D01*
X90101995Y-70710180D01*
X90064499Y-70721555D01*
X90019362Y-70726000D01*
X89280638Y-70726000D01*
X89235501Y-70721555D01*
X89198005Y-70710180D01*
X89163446Y-70691708D01*
X89133153Y-70666847D01*
X89108292Y-70636554D01*
X89089820Y-70601995D01*
X89078445Y-70564499D01*
X89074000Y-70519362D01*
X89074000Y-69880638D01*
X89078445Y-69835501D01*
X89089820Y-69798005D01*
X89108292Y-69763446D01*
X89133153Y-69733153D01*
X89163446Y-69708292D01*
X89198005Y-69689820D01*
X89235501Y-69678445D01*
X89280638Y-69674000D01*
X90019362Y-69674000D01*
X90064499Y-69678445D01*
X90064499Y-69678445D01*
G37*
G36*
X91814499Y-69678445D02*
G01*
X91851995Y-69689820D01*
X91886554Y-69708292D01*
X91916847Y-69733153D01*
X91941708Y-69763446D01*
X91960180Y-69798005D01*
X91971555Y-69835501D01*
X91976000Y-69880638D01*
X91976000Y-70519362D01*
X91971555Y-70564499D01*
X91960180Y-70601995D01*
X91941708Y-70636554D01*
X91916847Y-70666847D01*
X91886554Y-70691708D01*
X91851995Y-70710180D01*
X91814499Y-70721555D01*
X91769362Y-70726000D01*
X91030638Y-70726000D01*
X90985501Y-70721555D01*
X90948005Y-70710180D01*
X90913446Y-70691708D01*
X90883153Y-70666847D01*
X90858292Y-70636554D01*
X90839820Y-70601995D01*
X90828445Y-70564499D01*
X90824000Y-70519362D01*
X90824000Y-69880638D01*
X90828445Y-69835501D01*
X90839820Y-69798005D01*
X90858292Y-69763446D01*
X90883153Y-69733153D01*
X90913446Y-69708292D01*
X90948005Y-69689820D01*
X90985501Y-69678445D01*
X91030638Y-69674000D01*
X91769362Y-69674000D01*
X91814499Y-69678445D01*
X91814499Y-69678445D01*
G37*
G36*
X78320442Y-67115518D02*
G01*
X78386627Y-67122037D01*
X78556466Y-67173557D01*
X78712991Y-67257222D01*
X78748729Y-67286552D01*
X78850186Y-67369814D01*
X78933448Y-67471271D01*
X78962778Y-67507009D01*
X79046443Y-67663534D01*
X79097963Y-67833373D01*
X79115359Y-68010000D01*
X79097963Y-68186627D01*
X79046443Y-68356466D01*
X78962778Y-68512991D01*
X78933448Y-68548729D01*
X78850186Y-68650186D01*
X78748729Y-68733448D01*
X78712991Y-68762778D01*
X78556466Y-68846443D01*
X78386627Y-68897963D01*
X78320442Y-68904482D01*
X78254260Y-68911000D01*
X78165740Y-68911000D01*
X78099558Y-68904482D01*
X78033373Y-68897963D01*
X77863534Y-68846443D01*
X77707009Y-68762778D01*
X77671271Y-68733448D01*
X77569814Y-68650186D01*
X77486552Y-68548729D01*
X77457222Y-68512991D01*
X77373557Y-68356466D01*
X77322037Y-68186627D01*
X77304641Y-68010000D01*
X77322037Y-67833373D01*
X77373557Y-67663534D01*
X77457222Y-67507009D01*
X77486552Y-67471271D01*
X77569814Y-67369814D01*
X77671271Y-67286552D01*
X77707009Y-67257222D01*
X77863534Y-67173557D01*
X78033373Y-67122037D01*
X78099558Y-67115518D01*
X78165740Y-67109000D01*
X78254260Y-67109000D01*
X78320442Y-67115518D01*
X78320442Y-67115518D01*
G37*
G36*
X80860442Y-67115518D02*
G01*
X80926627Y-67122037D01*
X81096466Y-67173557D01*
X81252991Y-67257222D01*
X81288729Y-67286552D01*
X81390186Y-67369814D01*
X81473448Y-67471271D01*
X81502778Y-67507009D01*
X81586443Y-67663534D01*
X81637963Y-67833373D01*
X81655359Y-68010000D01*
X81637963Y-68186627D01*
X81586443Y-68356466D01*
X81502778Y-68512991D01*
X81473448Y-68548729D01*
X81390186Y-68650186D01*
X81288729Y-68733448D01*
X81252991Y-68762778D01*
X81096466Y-68846443D01*
X80926627Y-68897963D01*
X80860442Y-68904482D01*
X80794260Y-68911000D01*
X80705740Y-68911000D01*
X80639558Y-68904482D01*
X80573373Y-68897963D01*
X80403534Y-68846443D01*
X80247009Y-68762778D01*
X80211271Y-68733448D01*
X80109814Y-68650186D01*
X80026552Y-68548729D01*
X79997222Y-68512991D01*
X79913557Y-68356466D01*
X79862037Y-68186627D01*
X79844641Y-68010000D01*
X79862037Y-67833373D01*
X79913557Y-67663534D01*
X79997222Y-67507009D01*
X80026552Y-67471271D01*
X80109814Y-67369814D01*
X80211271Y-67286552D01*
X80247009Y-67257222D01*
X80403534Y-67173557D01*
X80573373Y-67122037D01*
X80639558Y-67115518D01*
X80705740Y-67109000D01*
X80794260Y-67109000D01*
X80860442Y-67115518D01*
X80860442Y-67115518D01*
G37*
G36*
X102819987Y-59876524D02*
G01*
X102838730Y-59882210D01*
X102855997Y-59891439D01*
X102871136Y-59903864D01*
X102883561Y-59919003D01*
X102892790Y-59936270D01*
X102898476Y-59955013D01*
X102901000Y-59980640D01*
X102901000Y-60419360D01*
X102898476Y-60444987D01*
X102892790Y-60463730D01*
X102883561Y-60480997D01*
X102871135Y-60496138D01*
X102862317Y-60503375D01*
X102844990Y-60520702D01*
X102831377Y-60541076D01*
X102821999Y-60563715D01*
X102817219Y-60587748D01*
X102817219Y-60612252D01*
X102821999Y-60636285D01*
X102831377Y-60658924D01*
X102844991Y-60679299D01*
X102862317Y-60696625D01*
X102871135Y-60703862D01*
X102883561Y-60719003D01*
X102892790Y-60736270D01*
X102898476Y-60755013D01*
X102901000Y-60780640D01*
X102901000Y-61219360D01*
X102898476Y-61244987D01*
X102892790Y-61263730D01*
X102883561Y-61280997D01*
X102871135Y-61296138D01*
X102862317Y-61303375D01*
X102844990Y-61320702D01*
X102831377Y-61341076D01*
X102821999Y-61363715D01*
X102817219Y-61387748D01*
X102817219Y-61412252D01*
X102821999Y-61436285D01*
X102831377Y-61458924D01*
X102844991Y-61479299D01*
X102862317Y-61496625D01*
X102871135Y-61503862D01*
X102883561Y-61519003D01*
X102892790Y-61536270D01*
X102898476Y-61555013D01*
X102901000Y-61580640D01*
X102901000Y-62019360D01*
X102898476Y-62044987D01*
X102892790Y-62063730D01*
X102883561Y-62080997D01*
X102871135Y-62096138D01*
X102862317Y-62103375D01*
X102844990Y-62120702D01*
X102831377Y-62141076D01*
X102821999Y-62163715D01*
X102817219Y-62187748D01*
X102817219Y-62212252D01*
X102821999Y-62236285D01*
X102831377Y-62258924D01*
X102844991Y-62279299D01*
X102862317Y-62296625D01*
X102871135Y-62303862D01*
X102883561Y-62319003D01*
X102892790Y-62336270D01*
X102898476Y-62355013D01*
X102901000Y-62380640D01*
X102901000Y-62819360D01*
X102898476Y-62844987D01*
X102892790Y-62863730D01*
X102883561Y-62880997D01*
X102871135Y-62896138D01*
X102862317Y-62903375D01*
X102844990Y-62920702D01*
X102831377Y-62941076D01*
X102821999Y-62963715D01*
X102817219Y-62987748D01*
X102817219Y-63012252D01*
X102821999Y-63036285D01*
X102831377Y-63058924D01*
X102844991Y-63079299D01*
X102862317Y-63096625D01*
X102871135Y-63103862D01*
X102883561Y-63119003D01*
X102892790Y-63136270D01*
X102898476Y-63155013D01*
X102901000Y-63180640D01*
X102901000Y-63619360D01*
X102898476Y-63644987D01*
X102892790Y-63663730D01*
X102883561Y-63680997D01*
X102871135Y-63696138D01*
X102862317Y-63703375D01*
X102844990Y-63720702D01*
X102831377Y-63741076D01*
X102821999Y-63763715D01*
X102817219Y-63787748D01*
X102817219Y-63812252D01*
X102821999Y-63836285D01*
X102831377Y-63858924D01*
X102844991Y-63879299D01*
X102862317Y-63896625D01*
X102871135Y-63903862D01*
X102883561Y-63919003D01*
X102892790Y-63936270D01*
X102898476Y-63955013D01*
X102901000Y-63980640D01*
X102901000Y-64419360D01*
X102898476Y-64444987D01*
X102892790Y-64463730D01*
X102883561Y-64480997D01*
X102871135Y-64496138D01*
X102862317Y-64503375D01*
X102844990Y-64520702D01*
X102831377Y-64541076D01*
X102821999Y-64563715D01*
X102817219Y-64587748D01*
X102817219Y-64612252D01*
X102821999Y-64636285D01*
X102831377Y-64658924D01*
X102844991Y-64679299D01*
X102862317Y-64696625D01*
X102871135Y-64703862D01*
X102883561Y-64719003D01*
X102892790Y-64736270D01*
X102898476Y-64755013D01*
X102901000Y-64780640D01*
X102901000Y-65219360D01*
X102898476Y-65244987D01*
X102892790Y-65263730D01*
X102883561Y-65280997D01*
X102871135Y-65296138D01*
X102862317Y-65303375D01*
X102844990Y-65320702D01*
X102831377Y-65341076D01*
X102821999Y-65363715D01*
X102817219Y-65387748D01*
X102817219Y-65412252D01*
X102821999Y-65436285D01*
X102831377Y-65458924D01*
X102844991Y-65479299D01*
X102862317Y-65496625D01*
X102871135Y-65503862D01*
X102883561Y-65519003D01*
X102892790Y-65536270D01*
X102898476Y-65555013D01*
X102901000Y-65580640D01*
X102901000Y-66019360D01*
X102898476Y-66044987D01*
X102892790Y-66063730D01*
X102883561Y-66080997D01*
X102871135Y-66096138D01*
X102862317Y-66103375D01*
X102844990Y-66120702D01*
X102831377Y-66141076D01*
X102821999Y-66163715D01*
X102817219Y-66187748D01*
X102817219Y-66212252D01*
X102821999Y-66236285D01*
X102831377Y-66258924D01*
X102844991Y-66279299D01*
X102862317Y-66296625D01*
X102871135Y-66303862D01*
X102883561Y-66319003D01*
X102892790Y-66336270D01*
X102898476Y-66355013D01*
X102901000Y-66380640D01*
X102901000Y-66819360D01*
X102898476Y-66844987D01*
X102892790Y-66863730D01*
X102883561Y-66880997D01*
X102871135Y-66896138D01*
X102862317Y-66903375D01*
X102844990Y-66920702D01*
X102831377Y-66941076D01*
X102821999Y-66963715D01*
X102817219Y-66987748D01*
X102817219Y-67012252D01*
X102821999Y-67036285D01*
X102831377Y-67058924D01*
X102844991Y-67079299D01*
X102862317Y-67096625D01*
X102871135Y-67103862D01*
X102883561Y-67119003D01*
X102892790Y-67136270D01*
X102898476Y-67155013D01*
X102901000Y-67180640D01*
X102901000Y-67619360D01*
X102898476Y-67644987D01*
X102892790Y-67663730D01*
X102883561Y-67680997D01*
X102871136Y-67696136D01*
X102855997Y-67708561D01*
X102838730Y-67717790D01*
X102819987Y-67723476D01*
X102794360Y-67726000D01*
X101380640Y-67726000D01*
X101355013Y-67723476D01*
X101336270Y-67717790D01*
X101319003Y-67708561D01*
X101303864Y-67696136D01*
X101291439Y-67680997D01*
X101282210Y-67663730D01*
X101276524Y-67644987D01*
X101274000Y-67619360D01*
X101274000Y-67180640D01*
X101276524Y-67155013D01*
X101282210Y-67136270D01*
X101291439Y-67119003D01*
X101303865Y-67103862D01*
X101312683Y-67096625D01*
X101330010Y-67079298D01*
X101343623Y-67058924D01*
X101353001Y-67036285D01*
X101357781Y-67012252D01*
X101357781Y-66987748D01*
X101353001Y-66963715D01*
X101343623Y-66941076D01*
X101330009Y-66920701D01*
X101312683Y-66903375D01*
X101303865Y-66896138D01*
X101291439Y-66880997D01*
X101282210Y-66863730D01*
X101276524Y-66844987D01*
X101274000Y-66819360D01*
X101274000Y-66380640D01*
X101276524Y-66355013D01*
X101282210Y-66336270D01*
X101291439Y-66319003D01*
X101303865Y-66303862D01*
X101312683Y-66296625D01*
X101330010Y-66279298D01*
X101343623Y-66258924D01*
X101353001Y-66236285D01*
X101357781Y-66212252D01*
X101357781Y-66187748D01*
X101353001Y-66163715D01*
X101343623Y-66141076D01*
X101330009Y-66120701D01*
X101312683Y-66103375D01*
X101303865Y-66096138D01*
X101291439Y-66080997D01*
X101282210Y-66063730D01*
X101276524Y-66044987D01*
X101274000Y-66019360D01*
X101274000Y-65580640D01*
X101276524Y-65555013D01*
X101282210Y-65536270D01*
X101291439Y-65519003D01*
X101303865Y-65503862D01*
X101312683Y-65496625D01*
X101330010Y-65479298D01*
X101343623Y-65458924D01*
X101353001Y-65436285D01*
X101357781Y-65412252D01*
X101357781Y-65387748D01*
X101353001Y-65363715D01*
X101343623Y-65341076D01*
X101330009Y-65320701D01*
X101312683Y-65303375D01*
X101303865Y-65296138D01*
X101291439Y-65280997D01*
X101282210Y-65263730D01*
X101276524Y-65244987D01*
X101274000Y-65219360D01*
X101274000Y-64780640D01*
X101276524Y-64755013D01*
X101282210Y-64736270D01*
X101291439Y-64719003D01*
X101303865Y-64703862D01*
X101312683Y-64696625D01*
X101330010Y-64679298D01*
X101343623Y-64658924D01*
X101353001Y-64636285D01*
X101357781Y-64612252D01*
X101357781Y-64587748D01*
X101353001Y-64563715D01*
X101343623Y-64541076D01*
X101330009Y-64520701D01*
X101312683Y-64503375D01*
X101303865Y-64496138D01*
X101291439Y-64480997D01*
X101282210Y-64463730D01*
X101276524Y-64444987D01*
X101274000Y-64419360D01*
X101274000Y-63980640D01*
X101276524Y-63955013D01*
X101282210Y-63936270D01*
X101291439Y-63919003D01*
X101303865Y-63903862D01*
X101312683Y-63896625D01*
X101330010Y-63879298D01*
X101343623Y-63858924D01*
X101353001Y-63836285D01*
X101357781Y-63812252D01*
X101357781Y-63787748D01*
X101353001Y-63763715D01*
X101343623Y-63741076D01*
X101330009Y-63720701D01*
X101312683Y-63703375D01*
X101303865Y-63696138D01*
X101291439Y-63680997D01*
X101282210Y-63663730D01*
X101276524Y-63644987D01*
X101274000Y-63619360D01*
X101274000Y-63180640D01*
X101276524Y-63155013D01*
X101282210Y-63136270D01*
X101291439Y-63119003D01*
X101303865Y-63103862D01*
X101312683Y-63096625D01*
X101330010Y-63079298D01*
X101343623Y-63058924D01*
X101353001Y-63036285D01*
X101357781Y-63012252D01*
X101357781Y-62987748D01*
X101353001Y-62963715D01*
X101343623Y-62941076D01*
X101330009Y-62920701D01*
X101312683Y-62903375D01*
X101303865Y-62896138D01*
X101291439Y-62880997D01*
X101282210Y-62863730D01*
X101276524Y-62844987D01*
X101274000Y-62819360D01*
X101274000Y-62380640D01*
X101276524Y-62355013D01*
X101282210Y-62336270D01*
X101291439Y-62319003D01*
X101303865Y-62303862D01*
X101312683Y-62296625D01*
X101330010Y-62279298D01*
X101343623Y-62258924D01*
X101353001Y-62236285D01*
X101357781Y-62212252D01*
X101357781Y-62187748D01*
X101353001Y-62163715D01*
X101343623Y-62141076D01*
X101330009Y-62120701D01*
X101312683Y-62103375D01*
X101303865Y-62096138D01*
X101291439Y-62080997D01*
X101282210Y-62063730D01*
X101276524Y-62044987D01*
X101274000Y-62019360D01*
X101274000Y-61580640D01*
X101276524Y-61555013D01*
X101282210Y-61536270D01*
X101291439Y-61519003D01*
X101303865Y-61503862D01*
X101312683Y-61496625D01*
X101330010Y-61479298D01*
X101343623Y-61458924D01*
X101353001Y-61436285D01*
X101357781Y-61412252D01*
X101357781Y-61387748D01*
X101353001Y-61363715D01*
X101343623Y-61341076D01*
X101330009Y-61320701D01*
X101312683Y-61303375D01*
X101303865Y-61296138D01*
X101291439Y-61280997D01*
X101282210Y-61263730D01*
X101276524Y-61244987D01*
X101274000Y-61219360D01*
X101274000Y-60780640D01*
X101276524Y-60755013D01*
X101282210Y-60736270D01*
X101291439Y-60719003D01*
X101303865Y-60703862D01*
X101312683Y-60696625D01*
X101330010Y-60679298D01*
X101343623Y-60658924D01*
X101353001Y-60636285D01*
X101357781Y-60612252D01*
X101357781Y-60587748D01*
X101353001Y-60563715D01*
X101343623Y-60541076D01*
X101330009Y-60520701D01*
X101312683Y-60503375D01*
X101303865Y-60496138D01*
X101291439Y-60480997D01*
X101282210Y-60463730D01*
X101276524Y-60444987D01*
X101274000Y-60419360D01*
X101274000Y-59980640D01*
X101276524Y-59955013D01*
X101282210Y-59936270D01*
X101291439Y-59919003D01*
X101303864Y-59903864D01*
X101319003Y-59891439D01*
X101336270Y-59882210D01*
X101355013Y-59876524D01*
X101380640Y-59874000D01*
X102794360Y-59874000D01*
X102819987Y-59876524D01*
X102819987Y-59876524D01*
G37*
G36*
X91644987Y-59876524D02*
G01*
X91663730Y-59882210D01*
X91680997Y-59891439D01*
X91696136Y-59903864D01*
X91708561Y-59919003D01*
X91717790Y-59936270D01*
X91723476Y-59955013D01*
X91726000Y-59980640D01*
X91726000Y-60419360D01*
X91723476Y-60444987D01*
X91717790Y-60463730D01*
X91708561Y-60480997D01*
X91696135Y-60496138D01*
X91687317Y-60503375D01*
X91669990Y-60520702D01*
X91656377Y-60541076D01*
X91646999Y-60563715D01*
X91642219Y-60587748D01*
X91642219Y-60612252D01*
X91646999Y-60636285D01*
X91656377Y-60658924D01*
X91669991Y-60679299D01*
X91687317Y-60696625D01*
X91696135Y-60703862D01*
X91708561Y-60719003D01*
X91717790Y-60736270D01*
X91723476Y-60755013D01*
X91726000Y-60780640D01*
X91726000Y-61219360D01*
X91723476Y-61244987D01*
X91717790Y-61263730D01*
X91708561Y-61280997D01*
X91696135Y-61296138D01*
X91687317Y-61303375D01*
X91669990Y-61320702D01*
X91656377Y-61341076D01*
X91646999Y-61363715D01*
X91642219Y-61387748D01*
X91642219Y-61412252D01*
X91646999Y-61436285D01*
X91656377Y-61458924D01*
X91669991Y-61479299D01*
X91687317Y-61496625D01*
X91696135Y-61503862D01*
X91708561Y-61519003D01*
X91717790Y-61536270D01*
X91723476Y-61555013D01*
X91726000Y-61580640D01*
X91726000Y-62019360D01*
X91723476Y-62044987D01*
X91717790Y-62063730D01*
X91708561Y-62080997D01*
X91696135Y-62096138D01*
X91687317Y-62103375D01*
X91669990Y-62120702D01*
X91656377Y-62141076D01*
X91646999Y-62163715D01*
X91642219Y-62187748D01*
X91642219Y-62212252D01*
X91646999Y-62236285D01*
X91656377Y-62258924D01*
X91669991Y-62279299D01*
X91687317Y-62296625D01*
X91696135Y-62303862D01*
X91708561Y-62319003D01*
X91717790Y-62336270D01*
X91723476Y-62355013D01*
X91726000Y-62380640D01*
X91726000Y-62819360D01*
X91723476Y-62844987D01*
X91717790Y-62863730D01*
X91708561Y-62880997D01*
X91696135Y-62896138D01*
X91687317Y-62903375D01*
X91669990Y-62920702D01*
X91656377Y-62941076D01*
X91646999Y-62963715D01*
X91642219Y-62987748D01*
X91642219Y-63012252D01*
X91646999Y-63036285D01*
X91656377Y-63058924D01*
X91669991Y-63079299D01*
X91687317Y-63096625D01*
X91696135Y-63103862D01*
X91708561Y-63119003D01*
X91717790Y-63136270D01*
X91723476Y-63155013D01*
X91726000Y-63180640D01*
X91726000Y-63619360D01*
X91723476Y-63644987D01*
X91717790Y-63663730D01*
X91708561Y-63680997D01*
X91696135Y-63696138D01*
X91687317Y-63703375D01*
X91669990Y-63720702D01*
X91656377Y-63741076D01*
X91646999Y-63763715D01*
X91642219Y-63787748D01*
X91642219Y-63812252D01*
X91646999Y-63836285D01*
X91656377Y-63858924D01*
X91669991Y-63879299D01*
X91687317Y-63896625D01*
X91696135Y-63903862D01*
X91708561Y-63919003D01*
X91717790Y-63936270D01*
X91723476Y-63955013D01*
X91726000Y-63980640D01*
X91726000Y-64419360D01*
X91723476Y-64444987D01*
X91717790Y-64463730D01*
X91708561Y-64480997D01*
X91696135Y-64496138D01*
X91687317Y-64503375D01*
X91669990Y-64520702D01*
X91656377Y-64541076D01*
X91646999Y-64563715D01*
X91642219Y-64587748D01*
X91642219Y-64612252D01*
X91646999Y-64636285D01*
X91656377Y-64658924D01*
X91669991Y-64679299D01*
X91687317Y-64696625D01*
X91696135Y-64703862D01*
X91708561Y-64719003D01*
X91717790Y-64736270D01*
X91723476Y-64755013D01*
X91726000Y-64780640D01*
X91726000Y-65219360D01*
X91723476Y-65244987D01*
X91717790Y-65263730D01*
X91708561Y-65280997D01*
X91696135Y-65296138D01*
X91687317Y-65303375D01*
X91669990Y-65320702D01*
X91656377Y-65341076D01*
X91646999Y-65363715D01*
X91642219Y-65387748D01*
X91642219Y-65412252D01*
X91646999Y-65436285D01*
X91656377Y-65458924D01*
X91669991Y-65479299D01*
X91687317Y-65496625D01*
X91696135Y-65503862D01*
X91708561Y-65519003D01*
X91717790Y-65536270D01*
X91723476Y-65555013D01*
X91726000Y-65580640D01*
X91726000Y-66019360D01*
X91723476Y-66044987D01*
X91717790Y-66063730D01*
X91708561Y-66080997D01*
X91696135Y-66096138D01*
X91687317Y-66103375D01*
X91669990Y-66120702D01*
X91656377Y-66141076D01*
X91646999Y-66163715D01*
X91642219Y-66187748D01*
X91642219Y-66212252D01*
X91646999Y-66236285D01*
X91656377Y-66258924D01*
X91669991Y-66279299D01*
X91687317Y-66296625D01*
X91696135Y-66303862D01*
X91708561Y-66319003D01*
X91717790Y-66336270D01*
X91723476Y-66355013D01*
X91726000Y-66380640D01*
X91726000Y-66819360D01*
X91723476Y-66844987D01*
X91717790Y-66863730D01*
X91708561Y-66880997D01*
X91696135Y-66896138D01*
X91687317Y-66903375D01*
X91669990Y-66920702D01*
X91656377Y-66941076D01*
X91646999Y-66963715D01*
X91642219Y-66987748D01*
X91642219Y-67012252D01*
X91646999Y-67036285D01*
X91656377Y-67058924D01*
X91669991Y-67079299D01*
X91687317Y-67096625D01*
X91696135Y-67103862D01*
X91708561Y-67119003D01*
X91717790Y-67136270D01*
X91723476Y-67155013D01*
X91726000Y-67180640D01*
X91726000Y-67619360D01*
X91723476Y-67644987D01*
X91717790Y-67663730D01*
X91708561Y-67680997D01*
X91696136Y-67696136D01*
X91680997Y-67708561D01*
X91663730Y-67717790D01*
X91644987Y-67723476D01*
X91619360Y-67726000D01*
X90205640Y-67726000D01*
X90180013Y-67723476D01*
X90161270Y-67717790D01*
X90144003Y-67708561D01*
X90128864Y-67696136D01*
X90116439Y-67680997D01*
X90107210Y-67663730D01*
X90101524Y-67644987D01*
X90099000Y-67619360D01*
X90099000Y-67180640D01*
X90101524Y-67155013D01*
X90107210Y-67136270D01*
X90116439Y-67119003D01*
X90128865Y-67103862D01*
X90137683Y-67096625D01*
X90155010Y-67079298D01*
X90168623Y-67058924D01*
X90178001Y-67036285D01*
X90182781Y-67012252D01*
X90182781Y-66987748D01*
X90178001Y-66963715D01*
X90168623Y-66941076D01*
X90155009Y-66920701D01*
X90137683Y-66903375D01*
X90128865Y-66896138D01*
X90116439Y-66880997D01*
X90107210Y-66863730D01*
X90101524Y-66844987D01*
X90099000Y-66819360D01*
X90099000Y-66380640D01*
X90101524Y-66355013D01*
X90107210Y-66336270D01*
X90116439Y-66319003D01*
X90128865Y-66303862D01*
X90137683Y-66296625D01*
X90155010Y-66279298D01*
X90168623Y-66258924D01*
X90178001Y-66236285D01*
X90182781Y-66212252D01*
X90182781Y-66187748D01*
X90178001Y-66163715D01*
X90168623Y-66141076D01*
X90155009Y-66120701D01*
X90137683Y-66103375D01*
X90128865Y-66096138D01*
X90116439Y-66080997D01*
X90107210Y-66063730D01*
X90101524Y-66044987D01*
X90099000Y-66019360D01*
X90099000Y-65580640D01*
X90101524Y-65555013D01*
X90107210Y-65536270D01*
X90116439Y-65519003D01*
X90128865Y-65503862D01*
X90137683Y-65496625D01*
X90155010Y-65479298D01*
X90168623Y-65458924D01*
X90178001Y-65436285D01*
X90182781Y-65412252D01*
X90182781Y-65387748D01*
X90178001Y-65363715D01*
X90168623Y-65341076D01*
X90155009Y-65320701D01*
X90137683Y-65303375D01*
X90128865Y-65296138D01*
X90116439Y-65280997D01*
X90107210Y-65263730D01*
X90101524Y-65244987D01*
X90099000Y-65219360D01*
X90099000Y-64780640D01*
X90101524Y-64755013D01*
X90107210Y-64736270D01*
X90116439Y-64719003D01*
X90128865Y-64703862D01*
X90137683Y-64696625D01*
X90155010Y-64679298D01*
X90168623Y-64658924D01*
X90178001Y-64636285D01*
X90182781Y-64612252D01*
X90182781Y-64587748D01*
X90178001Y-64563715D01*
X90168623Y-64541076D01*
X90155009Y-64520701D01*
X90137683Y-64503375D01*
X90128865Y-64496138D01*
X90116439Y-64480997D01*
X90107210Y-64463730D01*
X90101524Y-64444987D01*
X90099000Y-64419360D01*
X90099000Y-63980640D01*
X90101524Y-63955013D01*
X90107210Y-63936270D01*
X90116439Y-63919003D01*
X90128865Y-63903862D01*
X90137683Y-63896625D01*
X90155010Y-63879298D01*
X90168623Y-63858924D01*
X90178001Y-63836285D01*
X90182781Y-63812252D01*
X90182781Y-63787748D01*
X90178001Y-63763715D01*
X90168623Y-63741076D01*
X90155009Y-63720701D01*
X90137683Y-63703375D01*
X90128865Y-63696138D01*
X90116439Y-63680997D01*
X90107210Y-63663730D01*
X90101524Y-63644987D01*
X90099000Y-63619360D01*
X90099000Y-63180640D01*
X90101524Y-63155013D01*
X90107210Y-63136270D01*
X90116439Y-63119003D01*
X90128865Y-63103862D01*
X90137683Y-63096625D01*
X90155010Y-63079298D01*
X90168623Y-63058924D01*
X90178001Y-63036285D01*
X90182781Y-63012252D01*
X90182781Y-62987748D01*
X90178001Y-62963715D01*
X90168623Y-62941076D01*
X90155009Y-62920701D01*
X90137683Y-62903375D01*
X90128865Y-62896138D01*
X90116439Y-62880997D01*
X90107210Y-62863730D01*
X90101524Y-62844987D01*
X90099000Y-62819360D01*
X90099000Y-62380640D01*
X90101524Y-62355013D01*
X90107210Y-62336270D01*
X90116439Y-62319003D01*
X90128865Y-62303862D01*
X90137683Y-62296625D01*
X90155010Y-62279298D01*
X90168623Y-62258924D01*
X90178001Y-62236285D01*
X90182781Y-62212252D01*
X90182781Y-62187748D01*
X90178001Y-62163715D01*
X90168623Y-62141076D01*
X90155009Y-62120701D01*
X90137683Y-62103375D01*
X90128865Y-62096138D01*
X90116439Y-62080997D01*
X90107210Y-62063730D01*
X90101524Y-62044987D01*
X90099000Y-62019360D01*
X90099000Y-61580640D01*
X90101524Y-61555013D01*
X90107210Y-61536270D01*
X90116439Y-61519003D01*
X90128865Y-61503862D01*
X90137683Y-61496625D01*
X90155010Y-61479298D01*
X90168623Y-61458924D01*
X90178001Y-61436285D01*
X90182781Y-61412252D01*
X90182781Y-61387748D01*
X90178001Y-61363715D01*
X90168623Y-61341076D01*
X90155009Y-61320701D01*
X90137683Y-61303375D01*
X90128865Y-61296138D01*
X90116439Y-61280997D01*
X90107210Y-61263730D01*
X90101524Y-61244987D01*
X90099000Y-61219360D01*
X90099000Y-60780640D01*
X90101524Y-60755013D01*
X90107210Y-60736270D01*
X90116439Y-60719003D01*
X90128865Y-60703862D01*
X90137683Y-60696625D01*
X90155010Y-60679298D01*
X90168623Y-60658924D01*
X90178001Y-60636285D01*
X90182781Y-60612252D01*
X90182781Y-60587748D01*
X90178001Y-60563715D01*
X90168623Y-60541076D01*
X90155009Y-60520701D01*
X90137683Y-60503375D01*
X90128865Y-60496138D01*
X90116439Y-60480997D01*
X90107210Y-60463730D01*
X90101524Y-60444987D01*
X90099000Y-60419360D01*
X90099000Y-59980640D01*
X90101524Y-59955013D01*
X90107210Y-59936270D01*
X90116439Y-59919003D01*
X90128864Y-59903864D01*
X90144003Y-59891439D01*
X90161270Y-59882210D01*
X90180013Y-59876524D01*
X90205640Y-59874000D01*
X91619360Y-59874000D01*
X91644987Y-59876524D01*
X91644987Y-59876524D01*
G37*
G36*
X80860442Y-64575518D02*
G01*
X80926627Y-64582037D01*
X81096466Y-64633557D01*
X81252991Y-64717222D01*
X81276201Y-64736270D01*
X81390186Y-64829814D01*
X81473448Y-64931271D01*
X81502778Y-64967009D01*
X81586443Y-65123534D01*
X81637963Y-65293373D01*
X81655359Y-65470000D01*
X81637963Y-65646627D01*
X81586443Y-65816466D01*
X81502778Y-65972991D01*
X81473448Y-66008729D01*
X81390186Y-66110186D01*
X81295675Y-66187748D01*
X81252991Y-66222778D01*
X81252989Y-66222779D01*
X81147249Y-66279299D01*
X81096466Y-66306443D01*
X80926627Y-66357963D01*
X80860443Y-66364481D01*
X80794260Y-66371000D01*
X80705740Y-66371000D01*
X80639557Y-66364481D01*
X80573373Y-66357963D01*
X80403534Y-66306443D01*
X80352752Y-66279299D01*
X80247011Y-66222779D01*
X80247009Y-66222778D01*
X80204325Y-66187748D01*
X80109814Y-66110186D01*
X80026552Y-66008729D01*
X79997222Y-65972991D01*
X79913557Y-65816466D01*
X79862037Y-65646627D01*
X79844641Y-65470000D01*
X79862037Y-65293373D01*
X79913557Y-65123534D01*
X79997222Y-64967009D01*
X80026552Y-64931271D01*
X80109814Y-64829814D01*
X80223799Y-64736270D01*
X80247009Y-64717222D01*
X80403534Y-64633557D01*
X80573373Y-64582037D01*
X80639558Y-64575518D01*
X80705740Y-64569000D01*
X80794260Y-64569000D01*
X80860442Y-64575518D01*
X80860442Y-64575518D01*
G37*
G36*
X78320442Y-64575518D02*
G01*
X78386627Y-64582037D01*
X78556466Y-64633557D01*
X78712991Y-64717222D01*
X78736201Y-64736270D01*
X78850186Y-64829814D01*
X78933448Y-64931271D01*
X78962778Y-64967009D01*
X79046443Y-65123534D01*
X79097963Y-65293373D01*
X79115359Y-65470000D01*
X79097963Y-65646627D01*
X79046443Y-65816466D01*
X78962778Y-65972991D01*
X78933448Y-66008729D01*
X78850186Y-66110186D01*
X78755675Y-66187748D01*
X78712991Y-66222778D01*
X78712989Y-66222779D01*
X78607249Y-66279299D01*
X78556466Y-66306443D01*
X78386627Y-66357963D01*
X78320443Y-66364481D01*
X78254260Y-66371000D01*
X78165740Y-66371000D01*
X78099557Y-66364481D01*
X78033373Y-66357963D01*
X77863534Y-66306443D01*
X77812752Y-66279299D01*
X77707011Y-66222779D01*
X77707009Y-66222778D01*
X77664325Y-66187748D01*
X77569814Y-66110186D01*
X77486552Y-66008729D01*
X77457222Y-65972991D01*
X77373557Y-65816466D01*
X77322037Y-65646627D01*
X77304641Y-65470000D01*
X77322037Y-65293373D01*
X77373557Y-65123534D01*
X77457222Y-64967009D01*
X77486552Y-64931271D01*
X77569814Y-64829814D01*
X77683799Y-64736270D01*
X77707009Y-64717222D01*
X77863534Y-64633557D01*
X78033373Y-64582037D01*
X78099558Y-64575518D01*
X78165740Y-64569000D01*
X78254260Y-64569000D01*
X78320442Y-64575518D01*
X78320442Y-64575518D01*
G37*
G36*
X88189499Y-62878445D02*
G01*
X88226995Y-62889820D01*
X88261554Y-62908292D01*
X88291847Y-62933153D01*
X88316708Y-62963446D01*
X88335180Y-62998005D01*
X88346555Y-63035501D01*
X88351000Y-63080638D01*
X88351000Y-63719362D01*
X88346555Y-63764499D01*
X88335180Y-63801995D01*
X88316708Y-63836554D01*
X88291847Y-63866847D01*
X88261554Y-63891708D01*
X88226995Y-63910180D01*
X88189499Y-63921555D01*
X88144362Y-63926000D01*
X87405638Y-63926000D01*
X87360501Y-63921555D01*
X87323005Y-63910180D01*
X87288446Y-63891708D01*
X87258153Y-63866847D01*
X87233292Y-63836554D01*
X87214820Y-63801995D01*
X87203445Y-63764499D01*
X87199000Y-63719362D01*
X87199000Y-63080638D01*
X87203445Y-63035501D01*
X87214820Y-62998005D01*
X87233292Y-62963446D01*
X87258153Y-62933153D01*
X87288446Y-62908292D01*
X87323005Y-62889820D01*
X87360501Y-62878445D01*
X87405638Y-62874000D01*
X88144362Y-62874000D01*
X88189499Y-62878445D01*
X88189499Y-62878445D01*
G37*
G36*
X86439499Y-62878445D02*
G01*
X86476995Y-62889820D01*
X86511554Y-62908292D01*
X86541847Y-62933153D01*
X86566708Y-62963446D01*
X86585180Y-62998005D01*
X86596555Y-63035501D01*
X86601000Y-63080638D01*
X86601000Y-63719362D01*
X86596555Y-63764499D01*
X86585180Y-63801995D01*
X86566708Y-63836554D01*
X86541847Y-63866847D01*
X86511554Y-63891708D01*
X86476995Y-63910180D01*
X86439499Y-63921555D01*
X86394362Y-63926000D01*
X85655638Y-63926000D01*
X85610501Y-63921555D01*
X85573005Y-63910180D01*
X85538446Y-63891708D01*
X85508153Y-63866847D01*
X85483292Y-63836554D01*
X85464820Y-63801995D01*
X85453445Y-63764499D01*
X85449000Y-63719362D01*
X85449000Y-63080638D01*
X85453445Y-63035501D01*
X85464820Y-62998005D01*
X85483292Y-62963446D01*
X85508153Y-62933153D01*
X85538446Y-62908292D01*
X85573005Y-62889820D01*
X85610501Y-62878445D01*
X85655638Y-62874000D01*
X86394362Y-62874000D01*
X86439499Y-62878445D01*
X86439499Y-62878445D01*
G37*
G36*
X80860442Y-62035518D02*
G01*
X80926627Y-62042037D01*
X81096466Y-62093557D01*
X81096468Y-62093558D01*
X81147250Y-62120702D01*
X81252991Y-62177222D01*
X81288729Y-62206552D01*
X81390186Y-62289814D01*
X81459786Y-62374623D01*
X81502778Y-62427009D01*
X81586443Y-62583534D01*
X81637963Y-62753373D01*
X81655359Y-62930000D01*
X81637963Y-63106627D01*
X81586443Y-63276466D01*
X81502778Y-63432991D01*
X81473448Y-63468729D01*
X81390186Y-63570186D01*
X81299039Y-63644987D01*
X81252991Y-63682778D01*
X81096466Y-63766443D01*
X80926627Y-63817963D01*
X80860443Y-63824481D01*
X80794260Y-63831000D01*
X80705740Y-63831000D01*
X80639557Y-63824481D01*
X80573373Y-63817963D01*
X80403534Y-63766443D01*
X80247009Y-63682778D01*
X80200961Y-63644987D01*
X80109814Y-63570186D01*
X80026552Y-63468729D01*
X79997222Y-63432991D01*
X79913557Y-63276466D01*
X79862037Y-63106627D01*
X79844641Y-62930000D01*
X79862037Y-62753373D01*
X79913557Y-62583534D01*
X79997222Y-62427009D01*
X80040214Y-62374623D01*
X80109814Y-62289814D01*
X80211271Y-62206552D01*
X80247009Y-62177222D01*
X80352750Y-62120702D01*
X80403532Y-62093558D01*
X80403534Y-62093557D01*
X80573373Y-62042037D01*
X80639558Y-62035518D01*
X80705740Y-62029000D01*
X80794260Y-62029000D01*
X80860442Y-62035518D01*
X80860442Y-62035518D01*
G37*
G36*
X78320442Y-62035518D02*
G01*
X78386627Y-62042037D01*
X78556466Y-62093557D01*
X78556468Y-62093558D01*
X78607250Y-62120702D01*
X78712991Y-62177222D01*
X78748729Y-62206552D01*
X78850186Y-62289814D01*
X78919786Y-62374623D01*
X78962778Y-62427009D01*
X79046443Y-62583534D01*
X79097963Y-62753373D01*
X79115359Y-62930000D01*
X79097963Y-63106627D01*
X79046443Y-63276466D01*
X78962778Y-63432991D01*
X78933448Y-63468729D01*
X78850186Y-63570186D01*
X78759039Y-63644987D01*
X78712991Y-63682778D01*
X78556466Y-63766443D01*
X78386627Y-63817963D01*
X78320443Y-63824481D01*
X78254260Y-63831000D01*
X78165740Y-63831000D01*
X78099557Y-63824481D01*
X78033373Y-63817963D01*
X77863534Y-63766443D01*
X77707009Y-63682778D01*
X77660961Y-63644987D01*
X77569814Y-63570186D01*
X77486552Y-63468729D01*
X77457222Y-63432991D01*
X77373557Y-63276466D01*
X77322037Y-63106627D01*
X77304641Y-62930000D01*
X77322037Y-62753373D01*
X77373557Y-62583534D01*
X77457222Y-62427009D01*
X77500214Y-62374623D01*
X77569814Y-62289814D01*
X77671271Y-62206552D01*
X77707009Y-62177222D01*
X77812750Y-62120702D01*
X77863532Y-62093558D01*
X77863534Y-62093557D01*
X78033373Y-62042037D01*
X78099558Y-62035518D01*
X78165740Y-62029000D01*
X78254260Y-62029000D01*
X78320442Y-62035518D01*
X78320442Y-62035518D01*
G37*
G36*
X107514499Y-62778445D02*
G01*
X107551995Y-62789820D01*
X107586554Y-62808292D01*
X107616847Y-62833153D01*
X107641708Y-62863446D01*
X107660180Y-62898005D01*
X107671555Y-62935501D01*
X107676000Y-62980638D01*
X107676000Y-63619362D01*
X107671555Y-63664499D01*
X107660180Y-63701995D01*
X107641708Y-63736554D01*
X107616847Y-63766847D01*
X107586554Y-63791708D01*
X107551995Y-63810180D01*
X107514499Y-63821555D01*
X107469362Y-63826000D01*
X106730638Y-63826000D01*
X106685501Y-63821555D01*
X106648005Y-63810180D01*
X106613446Y-63791708D01*
X106583153Y-63766847D01*
X106558292Y-63736554D01*
X106539820Y-63701995D01*
X106528445Y-63664499D01*
X106524000Y-63619362D01*
X106524000Y-62980638D01*
X106528445Y-62935501D01*
X106539820Y-62898005D01*
X106558292Y-62863446D01*
X106583153Y-62833153D01*
X106613446Y-62808292D01*
X106648005Y-62789820D01*
X106685501Y-62778445D01*
X106730638Y-62774000D01*
X107469362Y-62774000D01*
X107514499Y-62778445D01*
X107514499Y-62778445D01*
G37*
G36*
X105764499Y-62778445D02*
G01*
X105801995Y-62789820D01*
X105836554Y-62808292D01*
X105866847Y-62833153D01*
X105891708Y-62863446D01*
X105910180Y-62898005D01*
X105921555Y-62935501D01*
X105926000Y-62980638D01*
X105926000Y-63619362D01*
X105921555Y-63664499D01*
X105910180Y-63701995D01*
X105891708Y-63736554D01*
X105866847Y-63766847D01*
X105836554Y-63791708D01*
X105801995Y-63810180D01*
X105764499Y-63821555D01*
X105719362Y-63826000D01*
X104980638Y-63826000D01*
X104935501Y-63821555D01*
X104898005Y-63810180D01*
X104863446Y-63791708D01*
X104833153Y-63766847D01*
X104808292Y-63736554D01*
X104789820Y-63701995D01*
X104778445Y-63664499D01*
X104774000Y-63619362D01*
X104774000Y-62980638D01*
X104778445Y-62935501D01*
X104789820Y-62898005D01*
X104808292Y-62863446D01*
X104833153Y-62833153D01*
X104863446Y-62808292D01*
X104898005Y-62789820D01*
X104935501Y-62778445D01*
X104980638Y-62774000D01*
X105719362Y-62774000D01*
X105764499Y-62778445D01*
X105764499Y-62778445D01*
G37*
G36*
X78320443Y-59495519D02*
G01*
X78386627Y-59502037D01*
X78556466Y-59553557D01*
X78712991Y-59637222D01*
X78748729Y-59666552D01*
X78850186Y-59749814D01*
X78933448Y-59851271D01*
X78962778Y-59887009D01*
X78962779Y-59887011D01*
X79042951Y-60037000D01*
X79046443Y-60043534D01*
X79097963Y-60213373D01*
X79115359Y-60390000D01*
X79097963Y-60566627D01*
X79046443Y-60736466D01*
X78962778Y-60892991D01*
X78933448Y-60928729D01*
X78850186Y-61030186D01*
X78748729Y-61113448D01*
X78712991Y-61142778D01*
X78556466Y-61226443D01*
X78386627Y-61277963D01*
X78320442Y-61284482D01*
X78254260Y-61291000D01*
X78165740Y-61291000D01*
X78099558Y-61284482D01*
X78033373Y-61277963D01*
X77863534Y-61226443D01*
X77707009Y-61142778D01*
X77671271Y-61113448D01*
X77569814Y-61030186D01*
X77486552Y-60928729D01*
X77457222Y-60892991D01*
X77373557Y-60736466D01*
X77322037Y-60566627D01*
X77304641Y-60390000D01*
X77322037Y-60213373D01*
X77373557Y-60043534D01*
X77377050Y-60037000D01*
X77457221Y-59887011D01*
X77457222Y-59887009D01*
X77486552Y-59851271D01*
X77569814Y-59749814D01*
X77671271Y-59666552D01*
X77707009Y-59637222D01*
X77863534Y-59553557D01*
X78033373Y-59502037D01*
X78099557Y-59495519D01*
X78165740Y-59489000D01*
X78254260Y-59489000D01*
X78320443Y-59495519D01*
X78320443Y-59495519D01*
G37*
G36*
X80860443Y-59495519D02*
G01*
X80926627Y-59502037D01*
X81096466Y-59553557D01*
X81252991Y-59637222D01*
X81288729Y-59666552D01*
X81390186Y-59749814D01*
X81473448Y-59851271D01*
X81502778Y-59887009D01*
X81502779Y-59887011D01*
X81582951Y-60037000D01*
X81586443Y-60043534D01*
X81637963Y-60213373D01*
X81655359Y-60390000D01*
X81637963Y-60566627D01*
X81586443Y-60736466D01*
X81502778Y-60892991D01*
X81473448Y-60928729D01*
X81390186Y-61030186D01*
X81288729Y-61113448D01*
X81252991Y-61142778D01*
X81096466Y-61226443D01*
X80926627Y-61277963D01*
X80860442Y-61284482D01*
X80794260Y-61291000D01*
X80705740Y-61291000D01*
X80639558Y-61284482D01*
X80573373Y-61277963D01*
X80403534Y-61226443D01*
X80247009Y-61142778D01*
X80211271Y-61113448D01*
X80109814Y-61030186D01*
X80026552Y-60928729D01*
X79997222Y-60892991D01*
X79913557Y-60736466D01*
X79862037Y-60566627D01*
X79844641Y-60390000D01*
X79862037Y-60213373D01*
X79913557Y-60043534D01*
X79917050Y-60037000D01*
X79997221Y-59887011D01*
X79997222Y-59887009D01*
X80026552Y-59851271D01*
X80109814Y-59749814D01*
X80211271Y-59666552D01*
X80247009Y-59637222D01*
X80403534Y-59553557D01*
X80573373Y-59502037D01*
X80639557Y-59495519D01*
X80705740Y-59489000D01*
X80794260Y-59489000D01*
X80860443Y-59495519D01*
X80860443Y-59495519D01*
G37*
G36*
X78320443Y-56955519D02*
G01*
X78386627Y-56962037D01*
X78556466Y-57013557D01*
X78712991Y-57097222D01*
X78748729Y-57126552D01*
X78850186Y-57209814D01*
X78921029Y-57296138D01*
X78962778Y-57347009D01*
X78962779Y-57347011D01*
X79033489Y-57479298D01*
X79046443Y-57503534D01*
X79097963Y-57673373D01*
X79115359Y-57850000D01*
X79097963Y-58026627D01*
X79046443Y-58196466D01*
X78962778Y-58352991D01*
X78933448Y-58388729D01*
X78850186Y-58490186D01*
X78748729Y-58573448D01*
X78712991Y-58602778D01*
X78556466Y-58686443D01*
X78386627Y-58737963D01*
X78320442Y-58744482D01*
X78254260Y-58751000D01*
X78165740Y-58751000D01*
X78099558Y-58744482D01*
X78033373Y-58737963D01*
X77863534Y-58686443D01*
X77707009Y-58602778D01*
X77671271Y-58573448D01*
X77569814Y-58490186D01*
X77486552Y-58388729D01*
X77457222Y-58352991D01*
X77373557Y-58196466D01*
X77322037Y-58026627D01*
X77304641Y-57850000D01*
X77322037Y-57673373D01*
X77373557Y-57503534D01*
X77386512Y-57479298D01*
X77457221Y-57347011D01*
X77457222Y-57347009D01*
X77498971Y-57296138D01*
X77569814Y-57209814D01*
X77671271Y-57126552D01*
X77707009Y-57097222D01*
X77863534Y-57013557D01*
X78033373Y-56962037D01*
X78099557Y-56955519D01*
X78165740Y-56949000D01*
X78254260Y-56949000D01*
X78320443Y-56955519D01*
X78320443Y-56955519D01*
G37*
G36*
X80860443Y-56955519D02*
G01*
X80926627Y-56962037D01*
X81096466Y-57013557D01*
X81252991Y-57097222D01*
X81288729Y-57126552D01*
X81390186Y-57209814D01*
X81461029Y-57296138D01*
X81502778Y-57347009D01*
X81502779Y-57347011D01*
X81573489Y-57479298D01*
X81586443Y-57503534D01*
X81637963Y-57673373D01*
X81655359Y-57850000D01*
X81637963Y-58026627D01*
X81586443Y-58196466D01*
X81502778Y-58352991D01*
X81473448Y-58388729D01*
X81390186Y-58490186D01*
X81288729Y-58573448D01*
X81252991Y-58602778D01*
X81096466Y-58686443D01*
X80926627Y-58737963D01*
X80860442Y-58744482D01*
X80794260Y-58751000D01*
X80705740Y-58751000D01*
X80639558Y-58744482D01*
X80573373Y-58737963D01*
X80403534Y-58686443D01*
X80247009Y-58602778D01*
X80211271Y-58573448D01*
X80109814Y-58490186D01*
X80026552Y-58388729D01*
X79997222Y-58352991D01*
X79913557Y-58196466D01*
X79862037Y-58026627D01*
X79844641Y-57850000D01*
X79862037Y-57673373D01*
X79913557Y-57503534D01*
X79926512Y-57479298D01*
X79997221Y-57347011D01*
X79997222Y-57347009D01*
X80038971Y-57296138D01*
X80109814Y-57209814D01*
X80211271Y-57126552D01*
X80247009Y-57097222D01*
X80403534Y-57013557D01*
X80573373Y-56962037D01*
X80639557Y-56955519D01*
X80705740Y-56949000D01*
X80794260Y-56949000D01*
X80860443Y-56955519D01*
X80860443Y-56955519D01*
G37*
G36*
X91644987Y-50276524D02*
G01*
X91663730Y-50282210D01*
X91680997Y-50291439D01*
X91696136Y-50303864D01*
X91708561Y-50319003D01*
X91717790Y-50336270D01*
X91723476Y-50355013D01*
X91726000Y-50380640D01*
X91726000Y-50819360D01*
X91723476Y-50844987D01*
X91717790Y-50863730D01*
X91708561Y-50880997D01*
X91696135Y-50896138D01*
X91687317Y-50903375D01*
X91669990Y-50920702D01*
X91656377Y-50941076D01*
X91646999Y-50963715D01*
X91642219Y-50987748D01*
X91642219Y-51012252D01*
X91646999Y-51036285D01*
X91656377Y-51058924D01*
X91669991Y-51079299D01*
X91687317Y-51096625D01*
X91696135Y-51103862D01*
X91708561Y-51119003D01*
X91717790Y-51136270D01*
X91723476Y-51155013D01*
X91726000Y-51180640D01*
X91726000Y-51619360D01*
X91723476Y-51644987D01*
X91717790Y-51663730D01*
X91708561Y-51680997D01*
X91696135Y-51696138D01*
X91687317Y-51703375D01*
X91669990Y-51720702D01*
X91656377Y-51741076D01*
X91646999Y-51763715D01*
X91642219Y-51787748D01*
X91642219Y-51812252D01*
X91646999Y-51836285D01*
X91656377Y-51858924D01*
X91669991Y-51879299D01*
X91687317Y-51896625D01*
X91696135Y-51903862D01*
X91708561Y-51919003D01*
X91717790Y-51936270D01*
X91723476Y-51955013D01*
X91726000Y-51980640D01*
X91726000Y-52419360D01*
X91723476Y-52444987D01*
X91717790Y-52463730D01*
X91708561Y-52480997D01*
X91696135Y-52496138D01*
X91687317Y-52503375D01*
X91669990Y-52520702D01*
X91656377Y-52541076D01*
X91646999Y-52563715D01*
X91642219Y-52587748D01*
X91642219Y-52612252D01*
X91646999Y-52636285D01*
X91656377Y-52658924D01*
X91669991Y-52679299D01*
X91687317Y-52696625D01*
X91696135Y-52703862D01*
X91708561Y-52719003D01*
X91717790Y-52736270D01*
X91723476Y-52755013D01*
X91726000Y-52780640D01*
X91726000Y-53219360D01*
X91723476Y-53244987D01*
X91717790Y-53263730D01*
X91708561Y-53280997D01*
X91696135Y-53296138D01*
X91687317Y-53303375D01*
X91669990Y-53320702D01*
X91656377Y-53341076D01*
X91646999Y-53363715D01*
X91642219Y-53387748D01*
X91642219Y-53412252D01*
X91646999Y-53436285D01*
X91656377Y-53458924D01*
X91669991Y-53479299D01*
X91687317Y-53496625D01*
X91696135Y-53503862D01*
X91708561Y-53519003D01*
X91717790Y-53536270D01*
X91723476Y-53555013D01*
X91726000Y-53580640D01*
X91726000Y-54019360D01*
X91723476Y-54044987D01*
X91717790Y-54063730D01*
X91708561Y-54080997D01*
X91696135Y-54096138D01*
X91687317Y-54103375D01*
X91669990Y-54120702D01*
X91656377Y-54141076D01*
X91646999Y-54163715D01*
X91642219Y-54187748D01*
X91642219Y-54212252D01*
X91646999Y-54236285D01*
X91656377Y-54258924D01*
X91669991Y-54279299D01*
X91687317Y-54296625D01*
X91696135Y-54303862D01*
X91708561Y-54319003D01*
X91717790Y-54336270D01*
X91723476Y-54355013D01*
X91726000Y-54380640D01*
X91726000Y-54819360D01*
X91723476Y-54844987D01*
X91717790Y-54863730D01*
X91708561Y-54880997D01*
X91696135Y-54896138D01*
X91687317Y-54903375D01*
X91669990Y-54920702D01*
X91656377Y-54941076D01*
X91646999Y-54963715D01*
X91642219Y-54987748D01*
X91642219Y-55012252D01*
X91646999Y-55036285D01*
X91656377Y-55058924D01*
X91669991Y-55079299D01*
X91687317Y-55096625D01*
X91696135Y-55103862D01*
X91708561Y-55119003D01*
X91717790Y-55136270D01*
X91723476Y-55155013D01*
X91726000Y-55180640D01*
X91726000Y-55619360D01*
X91723476Y-55644987D01*
X91717790Y-55663730D01*
X91708561Y-55680997D01*
X91696135Y-55696138D01*
X91687317Y-55703375D01*
X91669990Y-55720702D01*
X91656377Y-55741076D01*
X91646999Y-55763715D01*
X91642219Y-55787748D01*
X91642219Y-55812252D01*
X91646999Y-55836285D01*
X91656377Y-55858924D01*
X91669991Y-55879299D01*
X91687317Y-55896625D01*
X91696135Y-55903862D01*
X91708561Y-55919003D01*
X91717790Y-55936270D01*
X91723476Y-55955013D01*
X91726000Y-55980640D01*
X91726000Y-56419360D01*
X91723476Y-56444987D01*
X91717790Y-56463730D01*
X91708561Y-56480997D01*
X91696135Y-56496138D01*
X91687317Y-56503375D01*
X91669990Y-56520702D01*
X91656377Y-56541076D01*
X91646999Y-56563715D01*
X91642219Y-56587748D01*
X91642219Y-56612252D01*
X91646999Y-56636285D01*
X91656377Y-56658924D01*
X91669991Y-56679299D01*
X91687317Y-56696625D01*
X91696135Y-56703862D01*
X91708561Y-56719003D01*
X91717790Y-56736270D01*
X91723476Y-56755013D01*
X91726000Y-56780640D01*
X91726000Y-57219360D01*
X91723476Y-57244987D01*
X91717790Y-57263730D01*
X91708561Y-57280997D01*
X91696135Y-57296138D01*
X91687317Y-57303375D01*
X91669990Y-57320702D01*
X91656377Y-57341076D01*
X91646999Y-57363715D01*
X91642219Y-57387748D01*
X91642219Y-57412252D01*
X91646999Y-57436285D01*
X91656377Y-57458924D01*
X91669991Y-57479299D01*
X91687317Y-57496625D01*
X91696135Y-57503862D01*
X91708561Y-57519003D01*
X91717790Y-57536270D01*
X91723476Y-57555013D01*
X91726000Y-57580640D01*
X91726000Y-58019360D01*
X91723476Y-58044987D01*
X91717790Y-58063730D01*
X91708561Y-58080997D01*
X91696136Y-58096136D01*
X91680997Y-58108561D01*
X91663730Y-58117790D01*
X91644987Y-58123476D01*
X91619360Y-58126000D01*
X90205640Y-58126000D01*
X90180013Y-58123476D01*
X90161270Y-58117790D01*
X90144003Y-58108561D01*
X90128864Y-58096136D01*
X90116439Y-58080997D01*
X90107210Y-58063730D01*
X90101524Y-58044987D01*
X90099000Y-58019360D01*
X90099000Y-57580640D01*
X90101524Y-57555013D01*
X90107210Y-57536270D01*
X90116439Y-57519003D01*
X90128865Y-57503862D01*
X90137683Y-57496625D01*
X90155010Y-57479298D01*
X90168623Y-57458924D01*
X90178001Y-57436285D01*
X90182781Y-57412252D01*
X90182781Y-57387748D01*
X90178001Y-57363715D01*
X90168623Y-57341076D01*
X90155009Y-57320701D01*
X90137683Y-57303375D01*
X90128865Y-57296138D01*
X90116439Y-57280997D01*
X90107210Y-57263730D01*
X90101524Y-57244987D01*
X90099000Y-57219360D01*
X90099000Y-56780640D01*
X90101524Y-56755013D01*
X90107210Y-56736270D01*
X90116439Y-56719003D01*
X90128865Y-56703862D01*
X90137683Y-56696625D01*
X90155010Y-56679298D01*
X90168623Y-56658924D01*
X90178001Y-56636285D01*
X90182781Y-56612252D01*
X90182781Y-56587748D01*
X90178001Y-56563715D01*
X90168623Y-56541076D01*
X90155009Y-56520701D01*
X90137683Y-56503375D01*
X90128865Y-56496138D01*
X90116439Y-56480997D01*
X90107210Y-56463730D01*
X90101524Y-56444987D01*
X90099000Y-56419360D01*
X90099000Y-55980640D01*
X90101524Y-55955013D01*
X90107210Y-55936270D01*
X90116439Y-55919003D01*
X90128865Y-55903862D01*
X90137683Y-55896625D01*
X90155010Y-55879298D01*
X90168623Y-55858924D01*
X90178001Y-55836285D01*
X90182781Y-55812252D01*
X90182781Y-55787748D01*
X90178001Y-55763715D01*
X90168623Y-55741076D01*
X90155009Y-55720701D01*
X90137683Y-55703375D01*
X90128865Y-55696138D01*
X90116439Y-55680997D01*
X90107210Y-55663730D01*
X90101524Y-55644987D01*
X90099000Y-55619360D01*
X90099000Y-55180640D01*
X90101524Y-55155013D01*
X90107210Y-55136270D01*
X90116439Y-55119003D01*
X90128865Y-55103862D01*
X90137683Y-55096625D01*
X90155010Y-55079298D01*
X90168623Y-55058924D01*
X90178001Y-55036285D01*
X90182781Y-55012252D01*
X90182781Y-54987748D01*
X90178001Y-54963715D01*
X90168623Y-54941076D01*
X90155009Y-54920701D01*
X90137683Y-54903375D01*
X90128865Y-54896138D01*
X90116439Y-54880997D01*
X90107210Y-54863730D01*
X90101524Y-54844987D01*
X90099000Y-54819360D01*
X90099000Y-54380640D01*
X90101524Y-54355013D01*
X90107210Y-54336270D01*
X90116439Y-54319003D01*
X90128865Y-54303862D01*
X90137683Y-54296625D01*
X90155010Y-54279298D01*
X90168623Y-54258924D01*
X90178001Y-54236285D01*
X90182781Y-54212252D01*
X90182781Y-54187748D01*
X90178001Y-54163715D01*
X90168623Y-54141076D01*
X90155009Y-54120701D01*
X90137683Y-54103375D01*
X90128865Y-54096138D01*
X90116439Y-54080997D01*
X90107210Y-54063730D01*
X90101524Y-54044987D01*
X90099000Y-54019360D01*
X90099000Y-53580640D01*
X90101524Y-53555013D01*
X90107210Y-53536270D01*
X90116439Y-53519003D01*
X90128865Y-53503862D01*
X90137683Y-53496625D01*
X90155010Y-53479298D01*
X90168623Y-53458924D01*
X90178001Y-53436285D01*
X90182781Y-53412252D01*
X90182781Y-53387748D01*
X90178001Y-53363715D01*
X90168623Y-53341076D01*
X90155009Y-53320701D01*
X90137683Y-53303375D01*
X90128865Y-53296138D01*
X90116439Y-53280997D01*
X90107210Y-53263730D01*
X90101524Y-53244987D01*
X90099000Y-53219360D01*
X90099000Y-52780640D01*
X90101524Y-52755013D01*
X90107210Y-52736270D01*
X90116439Y-52719003D01*
X90128865Y-52703862D01*
X90137683Y-52696625D01*
X90155010Y-52679298D01*
X90168623Y-52658924D01*
X90178001Y-52636285D01*
X90182781Y-52612252D01*
X90182781Y-52587748D01*
X90178001Y-52563715D01*
X90168623Y-52541076D01*
X90155009Y-52520701D01*
X90137683Y-52503375D01*
X90128865Y-52496138D01*
X90116439Y-52480997D01*
X90107210Y-52463730D01*
X90101524Y-52444987D01*
X90099000Y-52419360D01*
X90099000Y-51980640D01*
X90101524Y-51955013D01*
X90107210Y-51936270D01*
X90116439Y-51919003D01*
X90128865Y-51903862D01*
X90137683Y-51896625D01*
X90155010Y-51879298D01*
X90168623Y-51858924D01*
X90178001Y-51836285D01*
X90182781Y-51812252D01*
X90182781Y-51787748D01*
X90178001Y-51763715D01*
X90168623Y-51741076D01*
X90155009Y-51720701D01*
X90137683Y-51703375D01*
X90128865Y-51696138D01*
X90116439Y-51680997D01*
X90107210Y-51663730D01*
X90101524Y-51644987D01*
X90099000Y-51619360D01*
X90099000Y-51180640D01*
X90101524Y-51155013D01*
X90107210Y-51136270D01*
X90116439Y-51119003D01*
X90128865Y-51103862D01*
X90137683Y-51096625D01*
X90155010Y-51079298D01*
X90168623Y-51058924D01*
X90178001Y-51036285D01*
X90182781Y-51012252D01*
X90182781Y-50987748D01*
X90178001Y-50963715D01*
X90168623Y-50941076D01*
X90155009Y-50920701D01*
X90137683Y-50903375D01*
X90128865Y-50896138D01*
X90116439Y-50880997D01*
X90107210Y-50863730D01*
X90101524Y-50844987D01*
X90099000Y-50819360D01*
X90099000Y-50380640D01*
X90101524Y-50355013D01*
X90107210Y-50336270D01*
X90116439Y-50319003D01*
X90128864Y-50303864D01*
X90144003Y-50291439D01*
X90161270Y-50282210D01*
X90180013Y-50276524D01*
X90205640Y-50274000D01*
X91619360Y-50274000D01*
X91644987Y-50276524D01*
X91644987Y-50276524D01*
G37*
G36*
X102819987Y-50276524D02*
G01*
X102838730Y-50282210D01*
X102855997Y-50291439D01*
X102871136Y-50303864D01*
X102883561Y-50319003D01*
X102892790Y-50336270D01*
X102898476Y-50355013D01*
X102901000Y-50380640D01*
X102901000Y-50819360D01*
X102898476Y-50844987D01*
X102892790Y-50863730D01*
X102883561Y-50880997D01*
X102871135Y-50896138D01*
X102862317Y-50903375D01*
X102844990Y-50920702D01*
X102831377Y-50941076D01*
X102821999Y-50963715D01*
X102817219Y-50987748D01*
X102817219Y-51012252D01*
X102821999Y-51036285D01*
X102831377Y-51058924D01*
X102844991Y-51079299D01*
X102862317Y-51096625D01*
X102871135Y-51103862D01*
X102883561Y-51119003D01*
X102892790Y-51136270D01*
X102898476Y-51155013D01*
X102901000Y-51180640D01*
X102901000Y-51619360D01*
X102898476Y-51644987D01*
X102892790Y-51663730D01*
X102883561Y-51680997D01*
X102871135Y-51696138D01*
X102862317Y-51703375D01*
X102844990Y-51720702D01*
X102831377Y-51741076D01*
X102821999Y-51763715D01*
X102817219Y-51787748D01*
X102817219Y-51812252D01*
X102821999Y-51836285D01*
X102831377Y-51858924D01*
X102844991Y-51879299D01*
X102862317Y-51896625D01*
X102871135Y-51903862D01*
X102883561Y-51919003D01*
X102892790Y-51936270D01*
X102898476Y-51955013D01*
X102901000Y-51980640D01*
X102901000Y-52419360D01*
X102898476Y-52444987D01*
X102892790Y-52463730D01*
X102883561Y-52480997D01*
X102871135Y-52496138D01*
X102862317Y-52503375D01*
X102844990Y-52520702D01*
X102831377Y-52541076D01*
X102821999Y-52563715D01*
X102817219Y-52587748D01*
X102817219Y-52612252D01*
X102821999Y-52636285D01*
X102831377Y-52658924D01*
X102844991Y-52679299D01*
X102862317Y-52696625D01*
X102871135Y-52703862D01*
X102883561Y-52719003D01*
X102892790Y-52736270D01*
X102898476Y-52755013D01*
X102901000Y-52780640D01*
X102901000Y-53219360D01*
X102898476Y-53244987D01*
X102892790Y-53263730D01*
X102883561Y-53280997D01*
X102871135Y-53296138D01*
X102862317Y-53303375D01*
X102844990Y-53320702D01*
X102831377Y-53341076D01*
X102821999Y-53363715D01*
X102817219Y-53387748D01*
X102817219Y-53412252D01*
X102821999Y-53436285D01*
X102831377Y-53458924D01*
X102844991Y-53479299D01*
X102862317Y-53496625D01*
X102871135Y-53503862D01*
X102883561Y-53519003D01*
X102892790Y-53536270D01*
X102898476Y-53555013D01*
X102901000Y-53580640D01*
X102901000Y-54019360D01*
X102898476Y-54044987D01*
X102892790Y-54063730D01*
X102883561Y-54080997D01*
X102871135Y-54096138D01*
X102862317Y-54103375D01*
X102844990Y-54120702D01*
X102831377Y-54141076D01*
X102821999Y-54163715D01*
X102817219Y-54187748D01*
X102817219Y-54212252D01*
X102821999Y-54236285D01*
X102831377Y-54258924D01*
X102844991Y-54279299D01*
X102862317Y-54296625D01*
X102871135Y-54303862D01*
X102883561Y-54319003D01*
X102892790Y-54336270D01*
X102898476Y-54355013D01*
X102901000Y-54380640D01*
X102901000Y-54819360D01*
X102898476Y-54844987D01*
X102892790Y-54863730D01*
X102883561Y-54880997D01*
X102871135Y-54896138D01*
X102862317Y-54903375D01*
X102844990Y-54920702D01*
X102831377Y-54941076D01*
X102821999Y-54963715D01*
X102817219Y-54987748D01*
X102817219Y-55012252D01*
X102821999Y-55036285D01*
X102831377Y-55058924D01*
X102844991Y-55079299D01*
X102862317Y-55096625D01*
X102871135Y-55103862D01*
X102883561Y-55119003D01*
X102892790Y-55136270D01*
X102898476Y-55155013D01*
X102901000Y-55180640D01*
X102901000Y-55619360D01*
X102898476Y-55644987D01*
X102892790Y-55663730D01*
X102883561Y-55680997D01*
X102871135Y-55696138D01*
X102862317Y-55703375D01*
X102844990Y-55720702D01*
X102831377Y-55741076D01*
X102821999Y-55763715D01*
X102817219Y-55787748D01*
X102817219Y-55812252D01*
X102821999Y-55836285D01*
X102831377Y-55858924D01*
X102844991Y-55879299D01*
X102862317Y-55896625D01*
X102871135Y-55903862D01*
X102883561Y-55919003D01*
X102892790Y-55936270D01*
X102898476Y-55955013D01*
X102901000Y-55980640D01*
X102901000Y-56419360D01*
X102898476Y-56444987D01*
X102892790Y-56463730D01*
X102883561Y-56480997D01*
X102871135Y-56496138D01*
X102862317Y-56503375D01*
X102844990Y-56520702D01*
X102831377Y-56541076D01*
X102821999Y-56563715D01*
X102817219Y-56587748D01*
X102817219Y-56612252D01*
X102821999Y-56636285D01*
X102831377Y-56658924D01*
X102844991Y-56679299D01*
X102862317Y-56696625D01*
X102871135Y-56703862D01*
X102883561Y-56719003D01*
X102892790Y-56736270D01*
X102898476Y-56755013D01*
X102901000Y-56780640D01*
X102901000Y-57219360D01*
X102898476Y-57244987D01*
X102892790Y-57263730D01*
X102883561Y-57280997D01*
X102871135Y-57296138D01*
X102862317Y-57303375D01*
X102844990Y-57320702D01*
X102831377Y-57341076D01*
X102821999Y-57363715D01*
X102817219Y-57387748D01*
X102817219Y-57412252D01*
X102821999Y-57436285D01*
X102831377Y-57458924D01*
X102844991Y-57479299D01*
X102862317Y-57496625D01*
X102871135Y-57503862D01*
X102883561Y-57519003D01*
X102892790Y-57536270D01*
X102898476Y-57555013D01*
X102901000Y-57580640D01*
X102901000Y-58019360D01*
X102898476Y-58044987D01*
X102892790Y-58063730D01*
X102883561Y-58080997D01*
X102871136Y-58096136D01*
X102855997Y-58108561D01*
X102838730Y-58117790D01*
X102819987Y-58123476D01*
X102794360Y-58126000D01*
X101380640Y-58126000D01*
X101355013Y-58123476D01*
X101336270Y-58117790D01*
X101319003Y-58108561D01*
X101303864Y-58096136D01*
X101291439Y-58080997D01*
X101282210Y-58063730D01*
X101276524Y-58044987D01*
X101274000Y-58019360D01*
X101274000Y-57580640D01*
X101276524Y-57555013D01*
X101282210Y-57536270D01*
X101291439Y-57519003D01*
X101303865Y-57503862D01*
X101312683Y-57496625D01*
X101330010Y-57479298D01*
X101343623Y-57458924D01*
X101353001Y-57436285D01*
X101357781Y-57412252D01*
X101357781Y-57387748D01*
X101353001Y-57363715D01*
X101343623Y-57341076D01*
X101330009Y-57320701D01*
X101312683Y-57303375D01*
X101303865Y-57296138D01*
X101291439Y-57280997D01*
X101282210Y-57263730D01*
X101276524Y-57244987D01*
X101274000Y-57219360D01*
X101274000Y-56780640D01*
X101276524Y-56755013D01*
X101282210Y-56736270D01*
X101291439Y-56719003D01*
X101303865Y-56703862D01*
X101312683Y-56696625D01*
X101330010Y-56679298D01*
X101343623Y-56658924D01*
X101353001Y-56636285D01*
X101357781Y-56612252D01*
X101357781Y-56587748D01*
X101353001Y-56563715D01*
X101343623Y-56541076D01*
X101330009Y-56520701D01*
X101312683Y-56503375D01*
X101303865Y-56496138D01*
X101291439Y-56480997D01*
X101282210Y-56463730D01*
X101276524Y-56444987D01*
X101274000Y-56419360D01*
X101274000Y-55980640D01*
X101276524Y-55955013D01*
X101282210Y-55936270D01*
X101291439Y-55919003D01*
X101303865Y-55903862D01*
X101312683Y-55896625D01*
X101330010Y-55879298D01*
X101343623Y-55858924D01*
X101353001Y-55836285D01*
X101357781Y-55812252D01*
X101357781Y-55787748D01*
X101353001Y-55763715D01*
X101343623Y-55741076D01*
X101330009Y-55720701D01*
X101312683Y-55703375D01*
X101303865Y-55696138D01*
X101291439Y-55680997D01*
X101282210Y-55663730D01*
X101276524Y-55644987D01*
X101274000Y-55619360D01*
X101274000Y-55180640D01*
X101276524Y-55155013D01*
X101282210Y-55136270D01*
X101291439Y-55119003D01*
X101303865Y-55103862D01*
X101312683Y-55096625D01*
X101330010Y-55079298D01*
X101343623Y-55058924D01*
X101353001Y-55036285D01*
X101357781Y-55012252D01*
X101357781Y-54987748D01*
X101353001Y-54963715D01*
X101343623Y-54941076D01*
X101330009Y-54920701D01*
X101312683Y-54903375D01*
X101303865Y-54896138D01*
X101291439Y-54880997D01*
X101282210Y-54863730D01*
X101276524Y-54844987D01*
X101274000Y-54819360D01*
X101274000Y-54380640D01*
X101276524Y-54355013D01*
X101282210Y-54336270D01*
X101291439Y-54319003D01*
X101303865Y-54303862D01*
X101312683Y-54296625D01*
X101330010Y-54279298D01*
X101343623Y-54258924D01*
X101353001Y-54236285D01*
X101357781Y-54212252D01*
X101357781Y-54187748D01*
X101353001Y-54163715D01*
X101343623Y-54141076D01*
X101330009Y-54120701D01*
X101312683Y-54103375D01*
X101303865Y-54096138D01*
X101291439Y-54080997D01*
X101282210Y-54063730D01*
X101276524Y-54044987D01*
X101274000Y-54019360D01*
X101274000Y-53580640D01*
X101276524Y-53555013D01*
X101282210Y-53536270D01*
X101291439Y-53519003D01*
X101303865Y-53503862D01*
X101312683Y-53496625D01*
X101330010Y-53479298D01*
X101343623Y-53458924D01*
X101353001Y-53436285D01*
X101357781Y-53412252D01*
X101357781Y-53387748D01*
X101353001Y-53363715D01*
X101343623Y-53341076D01*
X101330009Y-53320701D01*
X101312683Y-53303375D01*
X101303865Y-53296138D01*
X101291439Y-53280997D01*
X101282210Y-53263730D01*
X101276524Y-53244987D01*
X101274000Y-53219360D01*
X101274000Y-52780640D01*
X101276524Y-52755013D01*
X101282210Y-52736270D01*
X101291439Y-52719003D01*
X101303865Y-52703862D01*
X101312683Y-52696625D01*
X101330010Y-52679298D01*
X101343623Y-52658924D01*
X101353001Y-52636285D01*
X101357781Y-52612252D01*
X101357781Y-52587748D01*
X101353001Y-52563715D01*
X101343623Y-52541076D01*
X101330009Y-52520701D01*
X101312683Y-52503375D01*
X101303865Y-52496138D01*
X101291439Y-52480997D01*
X101282210Y-52463730D01*
X101276524Y-52444987D01*
X101274000Y-52419360D01*
X101274000Y-51980640D01*
X101276524Y-51955013D01*
X101282210Y-51936270D01*
X101291439Y-51919003D01*
X101303865Y-51903862D01*
X101312683Y-51896625D01*
X101330010Y-51879298D01*
X101343623Y-51858924D01*
X101353001Y-51836285D01*
X101357781Y-51812252D01*
X101357781Y-51787748D01*
X101353001Y-51763715D01*
X101343623Y-51741076D01*
X101330009Y-51720701D01*
X101312683Y-51703375D01*
X101303865Y-51696138D01*
X101291439Y-51680997D01*
X101282210Y-51663730D01*
X101276524Y-51644987D01*
X101274000Y-51619360D01*
X101274000Y-51180640D01*
X101276524Y-51155013D01*
X101282210Y-51136270D01*
X101291439Y-51119003D01*
X101303865Y-51103862D01*
X101312683Y-51096625D01*
X101330010Y-51079298D01*
X101343623Y-51058924D01*
X101353001Y-51036285D01*
X101357781Y-51012252D01*
X101357781Y-50987748D01*
X101353001Y-50963715D01*
X101343623Y-50941076D01*
X101330009Y-50920701D01*
X101312683Y-50903375D01*
X101303865Y-50896138D01*
X101291439Y-50880997D01*
X101282210Y-50863730D01*
X101276524Y-50844987D01*
X101274000Y-50819360D01*
X101274000Y-50380640D01*
X101276524Y-50355013D01*
X101282210Y-50336270D01*
X101291439Y-50319003D01*
X101303864Y-50303864D01*
X101319003Y-50291439D01*
X101336270Y-50282210D01*
X101355013Y-50276524D01*
X101380640Y-50274000D01*
X102794360Y-50274000D01*
X102819987Y-50276524D01*
X102819987Y-50276524D01*
G37*
G36*
X78320442Y-54415518D02*
G01*
X78386627Y-54422037D01*
X78556466Y-54473557D01*
X78712991Y-54557222D01*
X78748729Y-54586552D01*
X78850186Y-54669814D01*
X78933448Y-54771271D01*
X78962778Y-54807009D01*
X79046443Y-54963534D01*
X79097963Y-55133373D01*
X79115359Y-55310000D01*
X79097963Y-55486627D01*
X79046443Y-55656466D01*
X78962778Y-55812991D01*
X78943661Y-55836285D01*
X78850186Y-55950186D01*
X78783150Y-56005200D01*
X78712991Y-56062778D01*
X78556466Y-56146443D01*
X78386627Y-56197963D01*
X78320443Y-56204481D01*
X78254260Y-56211000D01*
X78165740Y-56211000D01*
X78099557Y-56204481D01*
X78033373Y-56197963D01*
X77863534Y-56146443D01*
X77707009Y-56062778D01*
X77636850Y-56005200D01*
X77569814Y-55950186D01*
X77476339Y-55836285D01*
X77457222Y-55812991D01*
X77373557Y-55656466D01*
X77322037Y-55486627D01*
X77304641Y-55310000D01*
X77322037Y-55133373D01*
X77373557Y-54963534D01*
X77457222Y-54807009D01*
X77486552Y-54771271D01*
X77569814Y-54669814D01*
X77671271Y-54586552D01*
X77707009Y-54557222D01*
X77863534Y-54473557D01*
X78033373Y-54422037D01*
X78099558Y-54415518D01*
X78165740Y-54409000D01*
X78254260Y-54409000D01*
X78320442Y-54415518D01*
X78320442Y-54415518D01*
G37*
G36*
X80860442Y-54415518D02*
G01*
X80926627Y-54422037D01*
X81096466Y-54473557D01*
X81252991Y-54557222D01*
X81288729Y-54586552D01*
X81390186Y-54669814D01*
X81473448Y-54771271D01*
X81502778Y-54807009D01*
X81586443Y-54963534D01*
X81637963Y-55133373D01*
X81655359Y-55310000D01*
X81637963Y-55486627D01*
X81586443Y-55656466D01*
X81502778Y-55812991D01*
X81483661Y-55836285D01*
X81390186Y-55950186D01*
X81323150Y-56005200D01*
X81252991Y-56062778D01*
X81096466Y-56146443D01*
X80926627Y-56197963D01*
X80860443Y-56204481D01*
X80794260Y-56211000D01*
X80705740Y-56211000D01*
X80639557Y-56204481D01*
X80573373Y-56197963D01*
X80403534Y-56146443D01*
X80247009Y-56062778D01*
X80176850Y-56005200D01*
X80109814Y-55950186D01*
X80016339Y-55836285D01*
X79997222Y-55812991D01*
X79913557Y-55656466D01*
X79862037Y-55486627D01*
X79844641Y-55310000D01*
X79862037Y-55133373D01*
X79913557Y-54963534D01*
X79997222Y-54807009D01*
X80026552Y-54771271D01*
X80109814Y-54669814D01*
X80211271Y-54586552D01*
X80247009Y-54557222D01*
X80403534Y-54473557D01*
X80573373Y-54422037D01*
X80639558Y-54415518D01*
X80705740Y-54409000D01*
X80794260Y-54409000D01*
X80860442Y-54415518D01*
X80860442Y-54415518D01*
G37*
G36*
X80845025Y-51874000D02*
G01*
X80926627Y-51882037D01*
X81096466Y-51933557D01*
X81252991Y-52017222D01*
X81277090Y-52037000D01*
X81390186Y-52129814D01*
X81473448Y-52231271D01*
X81502778Y-52267009D01*
X81586443Y-52423534D01*
X81637963Y-52593373D01*
X81655359Y-52770000D01*
X81637963Y-52946627D01*
X81586443Y-53116466D01*
X81502778Y-53272991D01*
X81477842Y-53303375D01*
X81390186Y-53410186D01*
X81305970Y-53479299D01*
X81252991Y-53522778D01*
X81252989Y-53522779D01*
X81098792Y-53605200D01*
X81096466Y-53606443D01*
X80926627Y-53657963D01*
X80860443Y-53664481D01*
X80794260Y-53671000D01*
X80705740Y-53671000D01*
X80639557Y-53664481D01*
X80573373Y-53657963D01*
X80403534Y-53606443D01*
X80401209Y-53605200D01*
X80247011Y-53522779D01*
X80247009Y-53522778D01*
X80194030Y-53479299D01*
X80109814Y-53410186D01*
X80022158Y-53303375D01*
X79997222Y-53272991D01*
X79913557Y-53116466D01*
X79862037Y-52946627D01*
X79844641Y-52770000D01*
X79862037Y-52593373D01*
X79913557Y-52423534D01*
X79997222Y-52267009D01*
X80026552Y-52231271D01*
X80109814Y-52129814D01*
X80222910Y-52037000D01*
X80247009Y-52017222D01*
X80403534Y-51933557D01*
X80573373Y-51882037D01*
X80654975Y-51874000D01*
X80705740Y-51869000D01*
X80794260Y-51869000D01*
X80845025Y-51874000D01*
X80845025Y-51874000D01*
G37*
G36*
X78305025Y-51874000D02*
G01*
X78386627Y-51882037D01*
X78556466Y-51933557D01*
X78712991Y-52017222D01*
X78737090Y-52037000D01*
X78850186Y-52129814D01*
X78933448Y-52231271D01*
X78962778Y-52267009D01*
X79046443Y-52423534D01*
X79097963Y-52593373D01*
X79115359Y-52770000D01*
X79097963Y-52946627D01*
X79046443Y-53116466D01*
X78962778Y-53272991D01*
X78937842Y-53303375D01*
X78850186Y-53410186D01*
X78765970Y-53479299D01*
X78712991Y-53522778D01*
X78712989Y-53522779D01*
X78558792Y-53605200D01*
X78556466Y-53606443D01*
X78386627Y-53657963D01*
X78320443Y-53664481D01*
X78254260Y-53671000D01*
X78165740Y-53671000D01*
X78099557Y-53664481D01*
X78033373Y-53657963D01*
X77863534Y-53606443D01*
X77861209Y-53605200D01*
X77707011Y-53522779D01*
X77707009Y-53522778D01*
X77654030Y-53479299D01*
X77569814Y-53410186D01*
X77482158Y-53303375D01*
X77457222Y-53272991D01*
X77373557Y-53116466D01*
X77322037Y-52946627D01*
X77304641Y-52770000D01*
X77322037Y-52593373D01*
X77373557Y-52423534D01*
X77457222Y-52267009D01*
X77486552Y-52231271D01*
X77569814Y-52129814D01*
X77682910Y-52037000D01*
X77707009Y-52017222D01*
X77863534Y-51933557D01*
X78033373Y-51882037D01*
X78114975Y-51874000D01*
X78165740Y-51869000D01*
X78254260Y-51869000D01*
X78305025Y-51874000D01*
X78305025Y-51874000D01*
G37*
G36*
X80860442Y-49335518D02*
G01*
X80926627Y-49342037D01*
X81096466Y-49393557D01*
X81252991Y-49477222D01*
X81288729Y-49506552D01*
X81390186Y-49589814D01*
X81473448Y-49691271D01*
X81502778Y-49727009D01*
X81586443Y-49883534D01*
X81637963Y-50053373D01*
X81655359Y-50230000D01*
X81637963Y-50406627D01*
X81586443Y-50576466D01*
X81502778Y-50732991D01*
X81478150Y-50763000D01*
X81390186Y-50870186D01*
X81322175Y-50926000D01*
X81252991Y-50982778D01*
X81096466Y-51066443D01*
X80926627Y-51117963D01*
X80860442Y-51124482D01*
X80794260Y-51131000D01*
X80705740Y-51131000D01*
X80639558Y-51124482D01*
X80573373Y-51117963D01*
X80403534Y-51066443D01*
X80247009Y-50982778D01*
X80177825Y-50926000D01*
X80109814Y-50870186D01*
X80021850Y-50763000D01*
X79997222Y-50732991D01*
X79913557Y-50576466D01*
X79862037Y-50406627D01*
X79844641Y-50230000D01*
X79862037Y-50053373D01*
X79913557Y-49883534D01*
X79997222Y-49727009D01*
X80026552Y-49691271D01*
X80109814Y-49589814D01*
X80211271Y-49506552D01*
X80247009Y-49477222D01*
X80403534Y-49393557D01*
X80573373Y-49342037D01*
X80639557Y-49335519D01*
X80705740Y-49329000D01*
X80794260Y-49329000D01*
X80860442Y-49335518D01*
X80860442Y-49335518D01*
G37*
G36*
X78320442Y-49335518D02*
G01*
X78386627Y-49342037D01*
X78556466Y-49393557D01*
X78712991Y-49477222D01*
X78748729Y-49506552D01*
X78850186Y-49589814D01*
X78933448Y-49691271D01*
X78962778Y-49727009D01*
X79046443Y-49883534D01*
X79097963Y-50053373D01*
X79115359Y-50230000D01*
X79097963Y-50406627D01*
X79046443Y-50576466D01*
X78962778Y-50732991D01*
X78938150Y-50763000D01*
X78850186Y-50870186D01*
X78782175Y-50926000D01*
X78712991Y-50982778D01*
X78556466Y-51066443D01*
X78386627Y-51117963D01*
X78320442Y-51124482D01*
X78254260Y-51131000D01*
X78165740Y-51131000D01*
X78099558Y-51124482D01*
X78033373Y-51117963D01*
X77863534Y-51066443D01*
X77707009Y-50982778D01*
X77637825Y-50926000D01*
X77569814Y-50870186D01*
X77481850Y-50763000D01*
X77457222Y-50732991D01*
X77373557Y-50576466D01*
X77322037Y-50406627D01*
X77304641Y-50230000D01*
X77322037Y-50053373D01*
X77373557Y-49883534D01*
X77457222Y-49727009D01*
X77486552Y-49691271D01*
X77569814Y-49589814D01*
X77671271Y-49506552D01*
X77707009Y-49477222D01*
X77863534Y-49393557D01*
X78033373Y-49342037D01*
X78099557Y-49335519D01*
X78165740Y-49329000D01*
X78254260Y-49329000D01*
X78320442Y-49335518D01*
X78320442Y-49335518D01*
G37*
G36*
X105764499Y-50078445D02*
G01*
X105801995Y-50089820D01*
X105836554Y-50108292D01*
X105866847Y-50133153D01*
X105891708Y-50163446D01*
X105910180Y-50198005D01*
X105921555Y-50235501D01*
X105926000Y-50280638D01*
X105926000Y-50919362D01*
X105921555Y-50964499D01*
X105910180Y-51001995D01*
X105891708Y-51036554D01*
X105866847Y-51066847D01*
X105836554Y-51091708D01*
X105801995Y-51110180D01*
X105764499Y-51121555D01*
X105719362Y-51126000D01*
X104980638Y-51126000D01*
X104935501Y-51121555D01*
X104898005Y-51110180D01*
X104863446Y-51091708D01*
X104833153Y-51066847D01*
X104808292Y-51036554D01*
X104789820Y-51001995D01*
X104778445Y-50964499D01*
X104774000Y-50919362D01*
X104774000Y-50280638D01*
X104778445Y-50235501D01*
X104789820Y-50198005D01*
X104808292Y-50163446D01*
X104833153Y-50133153D01*
X104863446Y-50108292D01*
X104898005Y-50089820D01*
X104935501Y-50078445D01*
X104980638Y-50074000D01*
X105719362Y-50074000D01*
X105764499Y-50078445D01*
X105764499Y-50078445D01*
G37*
G36*
X107514499Y-50078445D02*
G01*
X107551995Y-50089820D01*
X107586554Y-50108292D01*
X107616847Y-50133153D01*
X107641708Y-50163446D01*
X107660180Y-50198005D01*
X107671555Y-50235501D01*
X107676000Y-50280638D01*
X107676000Y-50919362D01*
X107671555Y-50964499D01*
X107660180Y-51001995D01*
X107641708Y-51036554D01*
X107616847Y-51066847D01*
X107586554Y-51091708D01*
X107551995Y-51110180D01*
X107514499Y-51121555D01*
X107469362Y-51126000D01*
X106730638Y-51126000D01*
X106685501Y-51121555D01*
X106648005Y-51110180D01*
X106613446Y-51091708D01*
X106583153Y-51066847D01*
X106558292Y-51036554D01*
X106539820Y-51001995D01*
X106528445Y-50964499D01*
X106524000Y-50919362D01*
X106524000Y-50280638D01*
X106528445Y-50235501D01*
X106539820Y-50198005D01*
X106558292Y-50163446D01*
X106583153Y-50133153D01*
X106613446Y-50108292D01*
X106648005Y-50089820D01*
X106685501Y-50078445D01*
X106730638Y-50074000D01*
X107469362Y-50074000D01*
X107514499Y-50078445D01*
X107514499Y-50078445D01*
G37*
G36*
X78320442Y-46795518D02*
G01*
X78386627Y-46802037D01*
X78556466Y-46853557D01*
X78712991Y-46937222D01*
X78748729Y-46966552D01*
X78850186Y-47049814D01*
X78933448Y-47151271D01*
X78962778Y-47187009D01*
X79046443Y-47343534D01*
X79097963Y-47513373D01*
X79115359Y-47690000D01*
X79097963Y-47866627D01*
X79046443Y-48036466D01*
X78962778Y-48192991D01*
X78933448Y-48228729D01*
X78850186Y-48330186D01*
X78748729Y-48413448D01*
X78712991Y-48442778D01*
X78556466Y-48526443D01*
X78386627Y-48577963D01*
X78320443Y-48584481D01*
X78254260Y-48591000D01*
X78165740Y-48591000D01*
X78099558Y-48584482D01*
X78033373Y-48577963D01*
X77863534Y-48526443D01*
X77707009Y-48442778D01*
X77671271Y-48413448D01*
X77569814Y-48330186D01*
X77486552Y-48228729D01*
X77457222Y-48192991D01*
X77373557Y-48036466D01*
X77322037Y-47866627D01*
X77304641Y-47690000D01*
X77322037Y-47513373D01*
X77373557Y-47343534D01*
X77457222Y-47187009D01*
X77486552Y-47151271D01*
X77569814Y-47049814D01*
X77671271Y-46966552D01*
X77707009Y-46937222D01*
X77863534Y-46853557D01*
X78033373Y-46802037D01*
X78099558Y-46795518D01*
X78165740Y-46789000D01*
X78254260Y-46789000D01*
X78320442Y-46795518D01*
X78320442Y-46795518D01*
G37*
G36*
X80860442Y-46795518D02*
G01*
X80926627Y-46802037D01*
X81096466Y-46853557D01*
X81252991Y-46937222D01*
X81288729Y-46966552D01*
X81390186Y-47049814D01*
X81473448Y-47151271D01*
X81502778Y-47187009D01*
X81586443Y-47343534D01*
X81637963Y-47513373D01*
X81655359Y-47690000D01*
X81637963Y-47866627D01*
X81586443Y-48036466D01*
X81502778Y-48192991D01*
X81473448Y-48228729D01*
X81390186Y-48330186D01*
X81288729Y-48413448D01*
X81252991Y-48442778D01*
X81096466Y-48526443D01*
X80926627Y-48577963D01*
X80860443Y-48584481D01*
X80794260Y-48591000D01*
X80705740Y-48591000D01*
X80639558Y-48584482D01*
X80573373Y-48577963D01*
X80403534Y-48526443D01*
X80247009Y-48442778D01*
X80211271Y-48413448D01*
X80109814Y-48330186D01*
X80026552Y-48228729D01*
X79997222Y-48192991D01*
X79913557Y-48036466D01*
X79862037Y-47866627D01*
X79844641Y-47690000D01*
X79862037Y-47513373D01*
X79913557Y-47343534D01*
X79997222Y-47187009D01*
X80026552Y-47151271D01*
X80109814Y-47049814D01*
X80211271Y-46966552D01*
X80247009Y-46937222D01*
X80403534Y-46853557D01*
X80573373Y-46802037D01*
X80639558Y-46795518D01*
X80705740Y-46789000D01*
X80794260Y-46789000D01*
X80860442Y-46795518D01*
X80860442Y-46795518D01*
G37*
G36*
X78320442Y-44255518D02*
G01*
X78386627Y-44262037D01*
X78556466Y-44313557D01*
X78712991Y-44397222D01*
X78748729Y-44426552D01*
X78850186Y-44509814D01*
X78933448Y-44611271D01*
X78962778Y-44647009D01*
X79046443Y-44803534D01*
X79097963Y-44973373D01*
X79115359Y-45150000D01*
X79097963Y-45326627D01*
X79046443Y-45496466D01*
X78962778Y-45652991D01*
X78933448Y-45688729D01*
X78850186Y-45790186D01*
X78748729Y-45873448D01*
X78712991Y-45902778D01*
X78556466Y-45986443D01*
X78386627Y-46037963D01*
X78320443Y-46044481D01*
X78254260Y-46051000D01*
X78165740Y-46051000D01*
X78099558Y-46044482D01*
X78033373Y-46037963D01*
X77863534Y-45986443D01*
X77707009Y-45902778D01*
X77671271Y-45873448D01*
X77569814Y-45790186D01*
X77486552Y-45688729D01*
X77457222Y-45652991D01*
X77373557Y-45496466D01*
X77322037Y-45326627D01*
X77304641Y-45150000D01*
X77322037Y-44973373D01*
X77373557Y-44803534D01*
X77457222Y-44647009D01*
X77486552Y-44611271D01*
X77569814Y-44509814D01*
X77671271Y-44426552D01*
X77707009Y-44397222D01*
X77863534Y-44313557D01*
X78033373Y-44262037D01*
X78099558Y-44255518D01*
X78165740Y-44249000D01*
X78254260Y-44249000D01*
X78320442Y-44255518D01*
X78320442Y-44255518D01*
G37*
G36*
X80860442Y-44255518D02*
G01*
X80926627Y-44262037D01*
X81096466Y-44313557D01*
X81252991Y-44397222D01*
X81288729Y-44426552D01*
X81390186Y-44509814D01*
X81473448Y-44611271D01*
X81502778Y-44647009D01*
X81586443Y-44803534D01*
X81637963Y-44973373D01*
X81655359Y-45150000D01*
X81637963Y-45326627D01*
X81586443Y-45496466D01*
X81502778Y-45652991D01*
X81473448Y-45688729D01*
X81390186Y-45790186D01*
X81288729Y-45873448D01*
X81252991Y-45902778D01*
X81096466Y-45986443D01*
X80926627Y-46037963D01*
X80860443Y-46044481D01*
X80794260Y-46051000D01*
X80705740Y-46051000D01*
X80639558Y-46044482D01*
X80573373Y-46037963D01*
X80403534Y-45986443D01*
X80247009Y-45902778D01*
X80211271Y-45873448D01*
X80109814Y-45790186D01*
X80026552Y-45688729D01*
X79997222Y-45652991D01*
X79913557Y-45496466D01*
X79862037Y-45326627D01*
X79844641Y-45150000D01*
X79862037Y-44973373D01*
X79913557Y-44803534D01*
X79997222Y-44647009D01*
X80026552Y-44611271D01*
X80109814Y-44509814D01*
X80211271Y-44426552D01*
X80247009Y-44397222D01*
X80403534Y-44313557D01*
X80573373Y-44262037D01*
X80639558Y-44255518D01*
X80705740Y-44249000D01*
X80794260Y-44249000D01*
X80860442Y-44255518D01*
X80860442Y-44255518D01*
G37*
G36*
X78320442Y-41715518D02*
G01*
X78386627Y-41722037D01*
X78556466Y-41773557D01*
X78712991Y-41857222D01*
X78748729Y-41886552D01*
X78850186Y-41969814D01*
X78933448Y-42071271D01*
X78962778Y-42107009D01*
X79046443Y-42263534D01*
X79097963Y-42433373D01*
X79115359Y-42610000D01*
X79097963Y-42786627D01*
X79046443Y-42956466D01*
X78962778Y-43112991D01*
X78933448Y-43148729D01*
X78850186Y-43250186D01*
X78748729Y-43333448D01*
X78712991Y-43362778D01*
X78556466Y-43446443D01*
X78386627Y-43497963D01*
X78320442Y-43504482D01*
X78254260Y-43511000D01*
X78165740Y-43511000D01*
X78099558Y-43504482D01*
X78033373Y-43497963D01*
X77863534Y-43446443D01*
X77707009Y-43362778D01*
X77671271Y-43333448D01*
X77569814Y-43250186D01*
X77486552Y-43148729D01*
X77457222Y-43112991D01*
X77373557Y-42956466D01*
X77322037Y-42786627D01*
X77304641Y-42610000D01*
X77322037Y-42433373D01*
X77373557Y-42263534D01*
X77457222Y-42107009D01*
X77486552Y-42071271D01*
X77569814Y-41969814D01*
X77671271Y-41886552D01*
X77707009Y-41857222D01*
X77863534Y-41773557D01*
X78033373Y-41722037D01*
X78099558Y-41715518D01*
X78165740Y-41709000D01*
X78254260Y-41709000D01*
X78320442Y-41715518D01*
X78320442Y-41715518D01*
G37*
G36*
X80860442Y-41715518D02*
G01*
X80926627Y-41722037D01*
X81096466Y-41773557D01*
X81252991Y-41857222D01*
X81288729Y-41886552D01*
X81390186Y-41969814D01*
X81473448Y-42071271D01*
X81502778Y-42107009D01*
X81586443Y-42263534D01*
X81637963Y-42433373D01*
X81655359Y-42610000D01*
X81637963Y-42786627D01*
X81586443Y-42956466D01*
X81502778Y-43112991D01*
X81473448Y-43148729D01*
X81390186Y-43250186D01*
X81288729Y-43333448D01*
X81252991Y-43362778D01*
X81096466Y-43446443D01*
X80926627Y-43497963D01*
X80860442Y-43504482D01*
X80794260Y-43511000D01*
X80705740Y-43511000D01*
X80639558Y-43504482D01*
X80573373Y-43497963D01*
X80403534Y-43446443D01*
X80247009Y-43362778D01*
X80211271Y-43333448D01*
X80109814Y-43250186D01*
X80026552Y-43148729D01*
X79997222Y-43112991D01*
X79913557Y-42956466D01*
X79862037Y-42786627D01*
X79844641Y-42610000D01*
X79862037Y-42433373D01*
X79913557Y-42263534D01*
X79997222Y-42107009D01*
X80026552Y-42071271D01*
X80109814Y-41969814D01*
X80211271Y-41886552D01*
X80247009Y-41857222D01*
X80403534Y-41773557D01*
X80573373Y-41722037D01*
X80639558Y-41715518D01*
X80705740Y-41709000D01*
X80794260Y-41709000D01*
X80860442Y-41715518D01*
X80860442Y-41715518D01*
G37*
G36*
X80860442Y-39175518D02*
G01*
X80926627Y-39182037D01*
X81096466Y-39233557D01*
X81252991Y-39317222D01*
X81288729Y-39346552D01*
X81390186Y-39429814D01*
X81473448Y-39531271D01*
X81502778Y-39567009D01*
X81586443Y-39723534D01*
X81637963Y-39893373D01*
X81655359Y-40070000D01*
X81637963Y-40246627D01*
X81586443Y-40416466D01*
X81502778Y-40572991D01*
X81473448Y-40608729D01*
X81390186Y-40710186D01*
X81288729Y-40793448D01*
X81252991Y-40822778D01*
X81096466Y-40906443D01*
X80926627Y-40957963D01*
X80860443Y-40964481D01*
X80794260Y-40971000D01*
X80705740Y-40971000D01*
X80639557Y-40964481D01*
X80573373Y-40957963D01*
X80403534Y-40906443D01*
X80247009Y-40822778D01*
X80211271Y-40793448D01*
X80109814Y-40710186D01*
X80026552Y-40608729D01*
X79997222Y-40572991D01*
X79913557Y-40416466D01*
X79862037Y-40246627D01*
X79844641Y-40070000D01*
X79862037Y-39893373D01*
X79913557Y-39723534D01*
X79997222Y-39567009D01*
X80026552Y-39531271D01*
X80109814Y-39429814D01*
X80211271Y-39346552D01*
X80247009Y-39317222D01*
X80403534Y-39233557D01*
X80573373Y-39182037D01*
X80639558Y-39175518D01*
X80705740Y-39169000D01*
X80794260Y-39169000D01*
X80860442Y-39175518D01*
X80860442Y-39175518D01*
G37*
G36*
X78320442Y-39175518D02*
G01*
X78386627Y-39182037D01*
X78556466Y-39233557D01*
X78712991Y-39317222D01*
X78748729Y-39346552D01*
X78850186Y-39429814D01*
X78933448Y-39531271D01*
X78962778Y-39567009D01*
X79046443Y-39723534D01*
X79097963Y-39893373D01*
X79115359Y-40070000D01*
X79097963Y-40246627D01*
X79046443Y-40416466D01*
X78962778Y-40572991D01*
X78933448Y-40608729D01*
X78850186Y-40710186D01*
X78748729Y-40793448D01*
X78712991Y-40822778D01*
X78556466Y-40906443D01*
X78386627Y-40957963D01*
X78320443Y-40964481D01*
X78254260Y-40971000D01*
X78165740Y-40971000D01*
X78099557Y-40964481D01*
X78033373Y-40957963D01*
X77863534Y-40906443D01*
X77707009Y-40822778D01*
X77671271Y-40793448D01*
X77569814Y-40710186D01*
X77486552Y-40608729D01*
X77457222Y-40572991D01*
X77373557Y-40416466D01*
X77322037Y-40246627D01*
X77304641Y-40070000D01*
X77322037Y-39893373D01*
X77373557Y-39723534D01*
X77457222Y-39567009D01*
X77486552Y-39531271D01*
X77569814Y-39429814D01*
X77671271Y-39346552D01*
X77707009Y-39317222D01*
X77863534Y-39233557D01*
X78033373Y-39182037D01*
X78099558Y-39175518D01*
X78165740Y-39169000D01*
X78254260Y-39169000D01*
X78320442Y-39175518D01*
X78320442Y-39175518D01*
G37*
G36*
X92360442Y-37895518D02*
G01*
X92426627Y-37902037D01*
X92596466Y-37953557D01*
X92752991Y-38037222D01*
X92788729Y-38066552D01*
X92890186Y-38149814D01*
X92973448Y-38251271D01*
X93002778Y-38287009D01*
X93086443Y-38443534D01*
X93137963Y-38613373D01*
X93155359Y-38790000D01*
X93137963Y-38966627D01*
X93086443Y-39136466D01*
X93002778Y-39292991D01*
X92982893Y-39317221D01*
X92890186Y-39430186D01*
X92788729Y-39513448D01*
X92752991Y-39542778D01*
X92596466Y-39626443D01*
X92426627Y-39677963D01*
X92360443Y-39684481D01*
X92294260Y-39691000D01*
X92205740Y-39691000D01*
X92139557Y-39684481D01*
X92073373Y-39677963D01*
X91903534Y-39626443D01*
X91747009Y-39542778D01*
X91711271Y-39513448D01*
X91609814Y-39430186D01*
X91517107Y-39317221D01*
X91497222Y-39292991D01*
X91413557Y-39136466D01*
X91362037Y-38966627D01*
X91344641Y-38790000D01*
X91362037Y-38613373D01*
X91413557Y-38443534D01*
X91497222Y-38287009D01*
X91526552Y-38251271D01*
X91609814Y-38149814D01*
X91711271Y-38066552D01*
X91747009Y-38037222D01*
X91903534Y-37953557D01*
X92073373Y-37902037D01*
X92139558Y-37895518D01*
X92205740Y-37889000D01*
X92294260Y-37889000D01*
X92360442Y-37895518D01*
X92360442Y-37895518D01*
G37*
G36*
X78320443Y-36635519D02*
G01*
X78386627Y-36642037D01*
X78556466Y-36693557D01*
X78712991Y-36777222D01*
X78748729Y-36806552D01*
X78850186Y-36889814D01*
X78933448Y-36991271D01*
X78962778Y-37027009D01*
X79046443Y-37183534D01*
X79097963Y-37353373D01*
X79115359Y-37530000D01*
X79097963Y-37706627D01*
X79046443Y-37876466D01*
X78962778Y-38032991D01*
X78933448Y-38068729D01*
X78850186Y-38170186D01*
X78748729Y-38253448D01*
X78712991Y-38282778D01*
X78556466Y-38366443D01*
X78386627Y-38417963D01*
X78320442Y-38424482D01*
X78254260Y-38431000D01*
X78165740Y-38431000D01*
X78099558Y-38424482D01*
X78033373Y-38417963D01*
X77863534Y-38366443D01*
X77707009Y-38282778D01*
X77671271Y-38253448D01*
X77569814Y-38170186D01*
X77486552Y-38068729D01*
X77457222Y-38032991D01*
X77373557Y-37876466D01*
X77322037Y-37706627D01*
X77304641Y-37530000D01*
X77322037Y-37353373D01*
X77373557Y-37183534D01*
X77457222Y-37027009D01*
X77486552Y-36991271D01*
X77569814Y-36889814D01*
X77671271Y-36806552D01*
X77707009Y-36777222D01*
X77863534Y-36693557D01*
X78033373Y-36642037D01*
X78099557Y-36635519D01*
X78165740Y-36629000D01*
X78254260Y-36629000D01*
X78320443Y-36635519D01*
X78320443Y-36635519D01*
G37*
G36*
X80860443Y-36635519D02*
G01*
X80926627Y-36642037D01*
X81096466Y-36693557D01*
X81252991Y-36777222D01*
X81288729Y-36806552D01*
X81390186Y-36889814D01*
X81473448Y-36991271D01*
X81502778Y-37027009D01*
X81586443Y-37183534D01*
X81637963Y-37353373D01*
X81655359Y-37530000D01*
X81637963Y-37706627D01*
X81586443Y-37876466D01*
X81502778Y-38032991D01*
X81473448Y-38068729D01*
X81390186Y-38170186D01*
X81288729Y-38253448D01*
X81252991Y-38282778D01*
X81096466Y-38366443D01*
X80926627Y-38417963D01*
X80860442Y-38424482D01*
X80794260Y-38431000D01*
X80705740Y-38431000D01*
X80639558Y-38424482D01*
X80573373Y-38417963D01*
X80403534Y-38366443D01*
X80247009Y-38282778D01*
X80211271Y-38253448D01*
X80109814Y-38170186D01*
X80026552Y-38068729D01*
X79997222Y-38032991D01*
X79913557Y-37876466D01*
X79862037Y-37706627D01*
X79844641Y-37530000D01*
X79862037Y-37353373D01*
X79913557Y-37183534D01*
X79997222Y-37027009D01*
X80026552Y-36991271D01*
X80109814Y-36889814D01*
X80211271Y-36806552D01*
X80247009Y-36777222D01*
X80403534Y-36693557D01*
X80573373Y-36642037D01*
X80639557Y-36635519D01*
X80705740Y-36629000D01*
X80794260Y-36629000D01*
X80860443Y-36635519D01*
X80860443Y-36635519D01*
G37*
G36*
X93151000Y-37151000D02*
G01*
X91349000Y-37151000D01*
X91349000Y-35349000D01*
X93151000Y-35349000D01*
X93151000Y-37151000D01*
X93151000Y-37151000D01*
G37*
G36*
X78320442Y-34095518D02*
G01*
X78386627Y-34102037D01*
X78556466Y-34153557D01*
X78712991Y-34237222D01*
X78748729Y-34266552D01*
X78850186Y-34349814D01*
X78933448Y-34451271D01*
X78962778Y-34487009D01*
X79046443Y-34643534D01*
X79097963Y-34813373D01*
X79115359Y-34990000D01*
X79097963Y-35166627D01*
X79046443Y-35336466D01*
X78962778Y-35492991D01*
X78933448Y-35528729D01*
X78850186Y-35630186D01*
X78748729Y-35713448D01*
X78712991Y-35742778D01*
X78556466Y-35826443D01*
X78386627Y-35877963D01*
X78320443Y-35884481D01*
X78254260Y-35891000D01*
X78165740Y-35891000D01*
X78099557Y-35884481D01*
X78033373Y-35877963D01*
X77863534Y-35826443D01*
X77707009Y-35742778D01*
X77671271Y-35713448D01*
X77569814Y-35630186D01*
X77486552Y-35528729D01*
X77457222Y-35492991D01*
X77373557Y-35336466D01*
X77322037Y-35166627D01*
X77304641Y-34990000D01*
X77322037Y-34813373D01*
X77373557Y-34643534D01*
X77457222Y-34487009D01*
X77486552Y-34451271D01*
X77569814Y-34349814D01*
X77671271Y-34266552D01*
X77707009Y-34237222D01*
X77863534Y-34153557D01*
X78033373Y-34102037D01*
X78099558Y-34095518D01*
X78165740Y-34089000D01*
X78254260Y-34089000D01*
X78320442Y-34095518D01*
X78320442Y-34095518D01*
G37*
G36*
X80860442Y-34095518D02*
G01*
X80926627Y-34102037D01*
X81096466Y-34153557D01*
X81252991Y-34237222D01*
X81288729Y-34266552D01*
X81390186Y-34349814D01*
X81473448Y-34451271D01*
X81502778Y-34487009D01*
X81586443Y-34643534D01*
X81637963Y-34813373D01*
X81655359Y-34990000D01*
X81637963Y-35166627D01*
X81586443Y-35336466D01*
X81502778Y-35492991D01*
X81473448Y-35528729D01*
X81390186Y-35630186D01*
X81288729Y-35713448D01*
X81252991Y-35742778D01*
X81096466Y-35826443D01*
X80926627Y-35877963D01*
X80860443Y-35884481D01*
X80794260Y-35891000D01*
X80705740Y-35891000D01*
X80639557Y-35884481D01*
X80573373Y-35877963D01*
X80403534Y-35826443D01*
X80247009Y-35742778D01*
X80211271Y-35713448D01*
X80109814Y-35630186D01*
X80026552Y-35528729D01*
X79997222Y-35492991D01*
X79913557Y-35336466D01*
X79862037Y-35166627D01*
X79844641Y-34990000D01*
X79862037Y-34813373D01*
X79913557Y-34643534D01*
X79997222Y-34487009D01*
X80026552Y-34451271D01*
X80109814Y-34349814D01*
X80211271Y-34266552D01*
X80247009Y-34237222D01*
X80403534Y-34153557D01*
X80573373Y-34102037D01*
X80639558Y-34095518D01*
X80705740Y-34089000D01*
X80794260Y-34089000D01*
X80860442Y-34095518D01*
X80860442Y-34095518D01*
G37*
M02*
