G04 #@! TF.GenerationSoftware,KiCad,Pcbnew,(5.1.4)-1*
G04 #@! TF.CreationDate,2019-12-18T13:49:36-05:00*
G04 #@! TF.ProjectId,a500plus-chipram-expansion,61353030-706c-4757-932d-636869707261,rev?*
G04 #@! TF.SameCoordinates,Original*
G04 #@! TF.FileFunction,Soldermask,Bot*
G04 #@! TF.FilePolarity,Negative*
%FSLAX46Y46*%
G04 Gerber Fmt 4.6, Leading zero omitted, Abs format (unit mm)*
G04 Created by KiCad (PCBNEW (5.1.4)-1) date 2019-12-18 13:49:36*
%MOMM*%
%LPD*%
G04 APERTURE LIST*
%ADD10C,0.100000*%
G04 APERTURE END LIST*
D10*
G36*
X81651000Y-84151000D02*
G01*
X79849000Y-84151000D01*
X79849000Y-82349000D01*
X81651000Y-82349000D01*
X81651000Y-84151000D01*
X81651000Y-84151000D01*
G37*
G36*
X78320443Y-82355519D02*
G01*
X78386627Y-82362037D01*
X78556466Y-82413557D01*
X78712991Y-82497222D01*
X78748729Y-82526552D01*
X78850186Y-82609814D01*
X78933448Y-82711271D01*
X78962778Y-82747009D01*
X79046443Y-82903534D01*
X79097963Y-83073373D01*
X79115359Y-83250000D01*
X79097963Y-83426627D01*
X79046443Y-83596466D01*
X78962778Y-83752991D01*
X78933448Y-83788729D01*
X78850186Y-83890186D01*
X78748729Y-83973448D01*
X78712991Y-84002778D01*
X78556466Y-84086443D01*
X78386627Y-84137963D01*
X78320443Y-84144481D01*
X78254260Y-84151000D01*
X78165740Y-84151000D01*
X78099557Y-84144481D01*
X78033373Y-84137963D01*
X77863534Y-84086443D01*
X77707009Y-84002778D01*
X77671271Y-83973448D01*
X77569814Y-83890186D01*
X77486552Y-83788729D01*
X77457222Y-83752991D01*
X77373557Y-83596466D01*
X77322037Y-83426627D01*
X77304641Y-83250000D01*
X77322037Y-83073373D01*
X77373557Y-82903534D01*
X77457222Y-82747009D01*
X77486552Y-82711271D01*
X77569814Y-82609814D01*
X77671271Y-82526552D01*
X77707009Y-82497222D01*
X77863534Y-82413557D01*
X78033373Y-82362037D01*
X78099557Y-82355519D01*
X78165740Y-82349000D01*
X78254260Y-82349000D01*
X78320443Y-82355519D01*
X78320443Y-82355519D01*
G37*
G36*
X80860442Y-79815518D02*
G01*
X80926627Y-79822037D01*
X81096466Y-79873557D01*
X81252991Y-79957222D01*
X81288729Y-79986552D01*
X81390186Y-80069814D01*
X81473448Y-80171271D01*
X81502778Y-80207009D01*
X81586443Y-80363534D01*
X81637963Y-80533373D01*
X81655359Y-80710000D01*
X81637963Y-80886627D01*
X81586443Y-81056466D01*
X81502778Y-81212991D01*
X81473448Y-81248729D01*
X81390186Y-81350186D01*
X81288729Y-81433448D01*
X81252991Y-81462778D01*
X81096466Y-81546443D01*
X80926627Y-81597963D01*
X80860442Y-81604482D01*
X80794260Y-81611000D01*
X80705740Y-81611000D01*
X80639558Y-81604482D01*
X80573373Y-81597963D01*
X80403534Y-81546443D01*
X80247009Y-81462778D01*
X80211271Y-81433448D01*
X80109814Y-81350186D01*
X80026552Y-81248729D01*
X79997222Y-81212991D01*
X79913557Y-81056466D01*
X79862037Y-80886627D01*
X79844641Y-80710000D01*
X79862037Y-80533373D01*
X79913557Y-80363534D01*
X79997222Y-80207009D01*
X80026552Y-80171271D01*
X80109814Y-80069814D01*
X80211271Y-79986552D01*
X80247009Y-79957222D01*
X80403534Y-79873557D01*
X80573373Y-79822037D01*
X80639558Y-79815518D01*
X80705740Y-79809000D01*
X80794260Y-79809000D01*
X80860442Y-79815518D01*
X80860442Y-79815518D01*
G37*
G36*
X78320442Y-79815518D02*
G01*
X78386627Y-79822037D01*
X78556466Y-79873557D01*
X78712991Y-79957222D01*
X78748729Y-79986552D01*
X78850186Y-80069814D01*
X78933448Y-80171271D01*
X78962778Y-80207009D01*
X79046443Y-80363534D01*
X79097963Y-80533373D01*
X79115359Y-80710000D01*
X79097963Y-80886627D01*
X79046443Y-81056466D01*
X78962778Y-81212991D01*
X78933448Y-81248729D01*
X78850186Y-81350186D01*
X78748729Y-81433448D01*
X78712991Y-81462778D01*
X78556466Y-81546443D01*
X78386627Y-81597963D01*
X78320442Y-81604482D01*
X78254260Y-81611000D01*
X78165740Y-81611000D01*
X78099558Y-81604482D01*
X78033373Y-81597963D01*
X77863534Y-81546443D01*
X77707009Y-81462778D01*
X77671271Y-81433448D01*
X77569814Y-81350186D01*
X77486552Y-81248729D01*
X77457222Y-81212991D01*
X77373557Y-81056466D01*
X77322037Y-80886627D01*
X77304641Y-80710000D01*
X77322037Y-80533373D01*
X77373557Y-80363534D01*
X77457222Y-80207009D01*
X77486552Y-80171271D01*
X77569814Y-80069814D01*
X77671271Y-79986552D01*
X77707009Y-79957222D01*
X77863534Y-79873557D01*
X78033373Y-79822037D01*
X78099558Y-79815518D01*
X78165740Y-79809000D01*
X78254260Y-79809000D01*
X78320442Y-79815518D01*
X78320442Y-79815518D01*
G37*
G36*
X80860442Y-77275518D02*
G01*
X80926627Y-77282037D01*
X81096466Y-77333557D01*
X81252991Y-77417222D01*
X81288729Y-77446552D01*
X81390186Y-77529814D01*
X81473448Y-77631271D01*
X81502778Y-77667009D01*
X81586443Y-77823534D01*
X81637963Y-77993373D01*
X81655359Y-78170000D01*
X81637963Y-78346627D01*
X81586443Y-78516466D01*
X81502778Y-78672991D01*
X81473448Y-78708729D01*
X81390186Y-78810186D01*
X81288729Y-78893448D01*
X81252991Y-78922778D01*
X81096466Y-79006443D01*
X80926627Y-79057963D01*
X80860442Y-79064482D01*
X80794260Y-79071000D01*
X80705740Y-79071000D01*
X80639558Y-79064482D01*
X80573373Y-79057963D01*
X80403534Y-79006443D01*
X80247009Y-78922778D01*
X80211271Y-78893448D01*
X80109814Y-78810186D01*
X80026552Y-78708729D01*
X79997222Y-78672991D01*
X79913557Y-78516466D01*
X79862037Y-78346627D01*
X79844641Y-78170000D01*
X79862037Y-77993373D01*
X79913557Y-77823534D01*
X79997222Y-77667009D01*
X80026552Y-77631271D01*
X80109814Y-77529814D01*
X80211271Y-77446552D01*
X80247009Y-77417222D01*
X80403534Y-77333557D01*
X80573373Y-77282037D01*
X80639558Y-77275518D01*
X80705740Y-77269000D01*
X80794260Y-77269000D01*
X80860442Y-77275518D01*
X80860442Y-77275518D01*
G37*
G36*
X78320442Y-77275518D02*
G01*
X78386627Y-77282037D01*
X78556466Y-77333557D01*
X78712991Y-77417222D01*
X78748729Y-77446552D01*
X78850186Y-77529814D01*
X78933448Y-77631271D01*
X78962778Y-77667009D01*
X79046443Y-77823534D01*
X79097963Y-77993373D01*
X79115359Y-78170000D01*
X79097963Y-78346627D01*
X79046443Y-78516466D01*
X78962778Y-78672991D01*
X78933448Y-78708729D01*
X78850186Y-78810186D01*
X78748729Y-78893448D01*
X78712991Y-78922778D01*
X78556466Y-79006443D01*
X78386627Y-79057963D01*
X78320442Y-79064482D01*
X78254260Y-79071000D01*
X78165740Y-79071000D01*
X78099558Y-79064482D01*
X78033373Y-79057963D01*
X77863534Y-79006443D01*
X77707009Y-78922778D01*
X77671271Y-78893448D01*
X77569814Y-78810186D01*
X77486552Y-78708729D01*
X77457222Y-78672991D01*
X77373557Y-78516466D01*
X77322037Y-78346627D01*
X77304641Y-78170000D01*
X77322037Y-77993373D01*
X77373557Y-77823534D01*
X77457222Y-77667009D01*
X77486552Y-77631271D01*
X77569814Y-77529814D01*
X77671271Y-77446552D01*
X77707009Y-77417222D01*
X77863534Y-77333557D01*
X78033373Y-77282037D01*
X78099558Y-77275518D01*
X78165740Y-77269000D01*
X78254260Y-77269000D01*
X78320442Y-77275518D01*
X78320442Y-77275518D01*
G37*
G36*
X80860443Y-74735519D02*
G01*
X80926627Y-74742037D01*
X81096466Y-74793557D01*
X81252991Y-74877222D01*
X81288729Y-74906552D01*
X81390186Y-74989814D01*
X81473448Y-75091271D01*
X81502778Y-75127009D01*
X81586443Y-75283534D01*
X81637963Y-75453373D01*
X81655359Y-75630000D01*
X81637963Y-75806627D01*
X81586443Y-75976466D01*
X81502778Y-76132991D01*
X81473448Y-76168729D01*
X81390186Y-76270186D01*
X81288729Y-76353448D01*
X81252991Y-76382778D01*
X81096466Y-76466443D01*
X80926627Y-76517963D01*
X80860442Y-76524482D01*
X80794260Y-76531000D01*
X80705740Y-76531000D01*
X80639558Y-76524482D01*
X80573373Y-76517963D01*
X80403534Y-76466443D01*
X80247009Y-76382778D01*
X80211271Y-76353448D01*
X80109814Y-76270186D01*
X80026552Y-76168729D01*
X79997222Y-76132991D01*
X79913557Y-75976466D01*
X79862037Y-75806627D01*
X79844641Y-75630000D01*
X79862037Y-75453373D01*
X79913557Y-75283534D01*
X79997222Y-75127009D01*
X80026552Y-75091271D01*
X80109814Y-74989814D01*
X80211271Y-74906552D01*
X80247009Y-74877222D01*
X80403534Y-74793557D01*
X80573373Y-74742037D01*
X80639557Y-74735519D01*
X80705740Y-74729000D01*
X80794260Y-74729000D01*
X80860443Y-74735519D01*
X80860443Y-74735519D01*
G37*
G36*
X78320443Y-74735519D02*
G01*
X78386627Y-74742037D01*
X78556466Y-74793557D01*
X78712991Y-74877222D01*
X78748729Y-74906552D01*
X78850186Y-74989814D01*
X78933448Y-75091271D01*
X78962778Y-75127009D01*
X79046443Y-75283534D01*
X79097963Y-75453373D01*
X79115359Y-75630000D01*
X79097963Y-75806627D01*
X79046443Y-75976466D01*
X78962778Y-76132991D01*
X78933448Y-76168729D01*
X78850186Y-76270186D01*
X78748729Y-76353448D01*
X78712991Y-76382778D01*
X78556466Y-76466443D01*
X78386627Y-76517963D01*
X78320442Y-76524482D01*
X78254260Y-76531000D01*
X78165740Y-76531000D01*
X78099558Y-76524482D01*
X78033373Y-76517963D01*
X77863534Y-76466443D01*
X77707009Y-76382778D01*
X77671271Y-76353448D01*
X77569814Y-76270186D01*
X77486552Y-76168729D01*
X77457222Y-76132991D01*
X77373557Y-75976466D01*
X77322037Y-75806627D01*
X77304641Y-75630000D01*
X77322037Y-75453373D01*
X77373557Y-75283534D01*
X77457222Y-75127009D01*
X77486552Y-75091271D01*
X77569814Y-74989814D01*
X77671271Y-74906552D01*
X77707009Y-74877222D01*
X77863534Y-74793557D01*
X78033373Y-74742037D01*
X78099557Y-74735519D01*
X78165740Y-74729000D01*
X78254260Y-74729000D01*
X78320443Y-74735519D01*
X78320443Y-74735519D01*
G37*
G36*
X80860442Y-72195518D02*
G01*
X80926627Y-72202037D01*
X81096466Y-72253557D01*
X81252991Y-72337222D01*
X81288729Y-72366552D01*
X81390186Y-72449814D01*
X81473448Y-72551271D01*
X81502778Y-72587009D01*
X81586443Y-72743534D01*
X81637963Y-72913373D01*
X81655359Y-73090000D01*
X81637963Y-73266627D01*
X81586443Y-73436466D01*
X81502778Y-73592991D01*
X81473448Y-73628729D01*
X81390186Y-73730186D01*
X81288729Y-73813448D01*
X81252991Y-73842778D01*
X81096466Y-73926443D01*
X80926627Y-73977963D01*
X80860443Y-73984481D01*
X80794260Y-73991000D01*
X80705740Y-73991000D01*
X80639557Y-73984481D01*
X80573373Y-73977963D01*
X80403534Y-73926443D01*
X80247009Y-73842778D01*
X80211271Y-73813448D01*
X80109814Y-73730186D01*
X80026552Y-73628729D01*
X79997222Y-73592991D01*
X79913557Y-73436466D01*
X79862037Y-73266627D01*
X79844641Y-73090000D01*
X79862037Y-72913373D01*
X79913557Y-72743534D01*
X79997222Y-72587009D01*
X80026552Y-72551271D01*
X80109814Y-72449814D01*
X80211271Y-72366552D01*
X80247009Y-72337222D01*
X80403534Y-72253557D01*
X80573373Y-72202037D01*
X80639558Y-72195518D01*
X80705740Y-72189000D01*
X80794260Y-72189000D01*
X80860442Y-72195518D01*
X80860442Y-72195518D01*
G37*
G36*
X78320442Y-72195518D02*
G01*
X78386627Y-72202037D01*
X78556466Y-72253557D01*
X78712991Y-72337222D01*
X78748729Y-72366552D01*
X78850186Y-72449814D01*
X78933448Y-72551271D01*
X78962778Y-72587009D01*
X79046443Y-72743534D01*
X79097963Y-72913373D01*
X79115359Y-73090000D01*
X79097963Y-73266627D01*
X79046443Y-73436466D01*
X78962778Y-73592991D01*
X78933448Y-73628729D01*
X78850186Y-73730186D01*
X78748729Y-73813448D01*
X78712991Y-73842778D01*
X78556466Y-73926443D01*
X78386627Y-73977963D01*
X78320443Y-73984481D01*
X78254260Y-73991000D01*
X78165740Y-73991000D01*
X78099557Y-73984481D01*
X78033373Y-73977963D01*
X77863534Y-73926443D01*
X77707009Y-73842778D01*
X77671271Y-73813448D01*
X77569814Y-73730186D01*
X77486552Y-73628729D01*
X77457222Y-73592991D01*
X77373557Y-73436466D01*
X77322037Y-73266627D01*
X77304641Y-73090000D01*
X77322037Y-72913373D01*
X77373557Y-72743534D01*
X77457222Y-72587009D01*
X77486552Y-72551271D01*
X77569814Y-72449814D01*
X77671271Y-72366552D01*
X77707009Y-72337222D01*
X77863534Y-72253557D01*
X78033373Y-72202037D01*
X78099558Y-72195518D01*
X78165740Y-72189000D01*
X78254260Y-72189000D01*
X78320442Y-72195518D01*
X78320442Y-72195518D01*
G37*
G36*
X80860443Y-69655519D02*
G01*
X80926627Y-69662037D01*
X81096466Y-69713557D01*
X81252991Y-69797222D01*
X81288729Y-69826552D01*
X81390186Y-69909814D01*
X81473448Y-70011271D01*
X81502778Y-70047009D01*
X81586443Y-70203534D01*
X81637963Y-70373373D01*
X81655359Y-70550000D01*
X81637963Y-70726627D01*
X81586443Y-70896466D01*
X81502778Y-71052991D01*
X81473448Y-71088729D01*
X81390186Y-71190186D01*
X81288729Y-71273448D01*
X81252991Y-71302778D01*
X81096466Y-71386443D01*
X80926627Y-71437963D01*
X80860442Y-71444482D01*
X80794260Y-71451000D01*
X80705740Y-71451000D01*
X80639558Y-71444482D01*
X80573373Y-71437963D01*
X80403534Y-71386443D01*
X80247009Y-71302778D01*
X80211271Y-71273448D01*
X80109814Y-71190186D01*
X80026552Y-71088729D01*
X79997222Y-71052991D01*
X79913557Y-70896466D01*
X79862037Y-70726627D01*
X79844641Y-70550000D01*
X79862037Y-70373373D01*
X79913557Y-70203534D01*
X79997222Y-70047009D01*
X80026552Y-70011271D01*
X80109814Y-69909814D01*
X80211271Y-69826552D01*
X80247009Y-69797222D01*
X80403534Y-69713557D01*
X80573373Y-69662037D01*
X80639557Y-69655519D01*
X80705740Y-69649000D01*
X80794260Y-69649000D01*
X80860443Y-69655519D01*
X80860443Y-69655519D01*
G37*
G36*
X78320443Y-69655519D02*
G01*
X78386627Y-69662037D01*
X78556466Y-69713557D01*
X78712991Y-69797222D01*
X78748729Y-69826552D01*
X78850186Y-69909814D01*
X78933448Y-70011271D01*
X78962778Y-70047009D01*
X79046443Y-70203534D01*
X79097963Y-70373373D01*
X79115359Y-70550000D01*
X79097963Y-70726627D01*
X79046443Y-70896466D01*
X78962778Y-71052991D01*
X78933448Y-71088729D01*
X78850186Y-71190186D01*
X78748729Y-71273448D01*
X78712991Y-71302778D01*
X78556466Y-71386443D01*
X78386627Y-71437963D01*
X78320442Y-71444482D01*
X78254260Y-71451000D01*
X78165740Y-71451000D01*
X78099558Y-71444482D01*
X78033373Y-71437963D01*
X77863534Y-71386443D01*
X77707009Y-71302778D01*
X77671271Y-71273448D01*
X77569814Y-71190186D01*
X77486552Y-71088729D01*
X77457222Y-71052991D01*
X77373557Y-70896466D01*
X77322037Y-70726627D01*
X77304641Y-70550000D01*
X77322037Y-70373373D01*
X77373557Y-70203534D01*
X77457222Y-70047009D01*
X77486552Y-70011271D01*
X77569814Y-69909814D01*
X77671271Y-69826552D01*
X77707009Y-69797222D01*
X77863534Y-69713557D01*
X78033373Y-69662037D01*
X78099557Y-69655519D01*
X78165740Y-69649000D01*
X78254260Y-69649000D01*
X78320443Y-69655519D01*
X78320443Y-69655519D01*
G37*
G36*
X80860442Y-67115518D02*
G01*
X80926627Y-67122037D01*
X81096466Y-67173557D01*
X81252991Y-67257222D01*
X81288729Y-67286552D01*
X81390186Y-67369814D01*
X81473448Y-67471271D01*
X81502778Y-67507009D01*
X81586443Y-67663534D01*
X81637963Y-67833373D01*
X81655359Y-68010000D01*
X81637963Y-68186627D01*
X81586443Y-68356466D01*
X81502778Y-68512991D01*
X81473448Y-68548729D01*
X81390186Y-68650186D01*
X81288729Y-68733448D01*
X81252991Y-68762778D01*
X81096466Y-68846443D01*
X80926627Y-68897963D01*
X80860442Y-68904482D01*
X80794260Y-68911000D01*
X80705740Y-68911000D01*
X80639558Y-68904482D01*
X80573373Y-68897963D01*
X80403534Y-68846443D01*
X80247009Y-68762778D01*
X80211271Y-68733448D01*
X80109814Y-68650186D01*
X80026552Y-68548729D01*
X79997222Y-68512991D01*
X79913557Y-68356466D01*
X79862037Y-68186627D01*
X79844641Y-68010000D01*
X79862037Y-67833373D01*
X79913557Y-67663534D01*
X79997222Y-67507009D01*
X80026552Y-67471271D01*
X80109814Y-67369814D01*
X80211271Y-67286552D01*
X80247009Y-67257222D01*
X80403534Y-67173557D01*
X80573373Y-67122037D01*
X80639558Y-67115518D01*
X80705740Y-67109000D01*
X80794260Y-67109000D01*
X80860442Y-67115518D01*
X80860442Y-67115518D01*
G37*
G36*
X78320442Y-67115518D02*
G01*
X78386627Y-67122037D01*
X78556466Y-67173557D01*
X78712991Y-67257222D01*
X78748729Y-67286552D01*
X78850186Y-67369814D01*
X78933448Y-67471271D01*
X78962778Y-67507009D01*
X79046443Y-67663534D01*
X79097963Y-67833373D01*
X79115359Y-68010000D01*
X79097963Y-68186627D01*
X79046443Y-68356466D01*
X78962778Y-68512991D01*
X78933448Y-68548729D01*
X78850186Y-68650186D01*
X78748729Y-68733448D01*
X78712991Y-68762778D01*
X78556466Y-68846443D01*
X78386627Y-68897963D01*
X78320442Y-68904482D01*
X78254260Y-68911000D01*
X78165740Y-68911000D01*
X78099558Y-68904482D01*
X78033373Y-68897963D01*
X77863534Y-68846443D01*
X77707009Y-68762778D01*
X77671271Y-68733448D01*
X77569814Y-68650186D01*
X77486552Y-68548729D01*
X77457222Y-68512991D01*
X77373557Y-68356466D01*
X77322037Y-68186627D01*
X77304641Y-68010000D01*
X77322037Y-67833373D01*
X77373557Y-67663534D01*
X77457222Y-67507009D01*
X77486552Y-67471271D01*
X77569814Y-67369814D01*
X77671271Y-67286552D01*
X77707009Y-67257222D01*
X77863534Y-67173557D01*
X78033373Y-67122037D01*
X78099558Y-67115518D01*
X78165740Y-67109000D01*
X78254260Y-67109000D01*
X78320442Y-67115518D01*
X78320442Y-67115518D01*
G37*
G36*
X80860442Y-64575518D02*
G01*
X80926627Y-64582037D01*
X81096466Y-64633557D01*
X81252991Y-64717222D01*
X81288729Y-64746552D01*
X81390186Y-64829814D01*
X81473448Y-64931271D01*
X81502778Y-64967009D01*
X81586443Y-65123534D01*
X81637963Y-65293373D01*
X81655359Y-65470000D01*
X81637963Y-65646627D01*
X81586443Y-65816466D01*
X81502778Y-65972991D01*
X81473448Y-66008729D01*
X81390186Y-66110186D01*
X81288729Y-66193448D01*
X81252991Y-66222778D01*
X81096466Y-66306443D01*
X80926627Y-66357963D01*
X80860443Y-66364481D01*
X80794260Y-66371000D01*
X80705740Y-66371000D01*
X80639557Y-66364481D01*
X80573373Y-66357963D01*
X80403534Y-66306443D01*
X80247009Y-66222778D01*
X80211271Y-66193448D01*
X80109814Y-66110186D01*
X80026552Y-66008729D01*
X79997222Y-65972991D01*
X79913557Y-65816466D01*
X79862037Y-65646627D01*
X79844641Y-65470000D01*
X79862037Y-65293373D01*
X79913557Y-65123534D01*
X79997222Y-64967009D01*
X80026552Y-64931271D01*
X80109814Y-64829814D01*
X80211271Y-64746552D01*
X80247009Y-64717222D01*
X80403534Y-64633557D01*
X80573373Y-64582037D01*
X80639558Y-64575518D01*
X80705740Y-64569000D01*
X80794260Y-64569000D01*
X80860442Y-64575518D01*
X80860442Y-64575518D01*
G37*
G36*
X78320442Y-64575518D02*
G01*
X78386627Y-64582037D01*
X78556466Y-64633557D01*
X78712991Y-64717222D01*
X78748729Y-64746552D01*
X78850186Y-64829814D01*
X78933448Y-64931271D01*
X78962778Y-64967009D01*
X79046443Y-65123534D01*
X79097963Y-65293373D01*
X79115359Y-65470000D01*
X79097963Y-65646627D01*
X79046443Y-65816466D01*
X78962778Y-65972991D01*
X78933448Y-66008729D01*
X78850186Y-66110186D01*
X78748729Y-66193448D01*
X78712991Y-66222778D01*
X78556466Y-66306443D01*
X78386627Y-66357963D01*
X78320443Y-66364481D01*
X78254260Y-66371000D01*
X78165740Y-66371000D01*
X78099557Y-66364481D01*
X78033373Y-66357963D01*
X77863534Y-66306443D01*
X77707009Y-66222778D01*
X77671271Y-66193448D01*
X77569814Y-66110186D01*
X77486552Y-66008729D01*
X77457222Y-65972991D01*
X77373557Y-65816466D01*
X77322037Y-65646627D01*
X77304641Y-65470000D01*
X77322037Y-65293373D01*
X77373557Y-65123534D01*
X77457222Y-64967009D01*
X77486552Y-64931271D01*
X77569814Y-64829814D01*
X77671271Y-64746552D01*
X77707009Y-64717222D01*
X77863534Y-64633557D01*
X78033373Y-64582037D01*
X78099558Y-64575518D01*
X78165740Y-64569000D01*
X78254260Y-64569000D01*
X78320442Y-64575518D01*
X78320442Y-64575518D01*
G37*
G36*
X80860442Y-62035518D02*
G01*
X80926627Y-62042037D01*
X81096466Y-62093557D01*
X81252991Y-62177222D01*
X81288729Y-62206552D01*
X81390186Y-62289814D01*
X81473448Y-62391271D01*
X81502778Y-62427009D01*
X81586443Y-62583534D01*
X81637963Y-62753373D01*
X81655359Y-62930000D01*
X81637963Y-63106627D01*
X81586443Y-63276466D01*
X81502778Y-63432991D01*
X81473448Y-63468729D01*
X81390186Y-63570186D01*
X81288729Y-63653448D01*
X81252991Y-63682778D01*
X81096466Y-63766443D01*
X80926627Y-63817963D01*
X80860443Y-63824481D01*
X80794260Y-63831000D01*
X80705740Y-63831000D01*
X80639557Y-63824481D01*
X80573373Y-63817963D01*
X80403534Y-63766443D01*
X80247009Y-63682778D01*
X80211271Y-63653448D01*
X80109814Y-63570186D01*
X80026552Y-63468729D01*
X79997222Y-63432991D01*
X79913557Y-63276466D01*
X79862037Y-63106627D01*
X79844641Y-62930000D01*
X79862037Y-62753373D01*
X79913557Y-62583534D01*
X79997222Y-62427009D01*
X80026552Y-62391271D01*
X80109814Y-62289814D01*
X80211271Y-62206552D01*
X80247009Y-62177222D01*
X80403534Y-62093557D01*
X80573373Y-62042037D01*
X80639558Y-62035518D01*
X80705740Y-62029000D01*
X80794260Y-62029000D01*
X80860442Y-62035518D01*
X80860442Y-62035518D01*
G37*
G36*
X78320442Y-62035518D02*
G01*
X78386627Y-62042037D01*
X78556466Y-62093557D01*
X78712991Y-62177222D01*
X78748729Y-62206552D01*
X78850186Y-62289814D01*
X78933448Y-62391271D01*
X78962778Y-62427009D01*
X79046443Y-62583534D01*
X79097963Y-62753373D01*
X79115359Y-62930000D01*
X79097963Y-63106627D01*
X79046443Y-63276466D01*
X78962778Y-63432991D01*
X78933448Y-63468729D01*
X78850186Y-63570186D01*
X78748729Y-63653448D01*
X78712991Y-63682778D01*
X78556466Y-63766443D01*
X78386627Y-63817963D01*
X78320443Y-63824481D01*
X78254260Y-63831000D01*
X78165740Y-63831000D01*
X78099557Y-63824481D01*
X78033373Y-63817963D01*
X77863534Y-63766443D01*
X77707009Y-63682778D01*
X77671271Y-63653448D01*
X77569814Y-63570186D01*
X77486552Y-63468729D01*
X77457222Y-63432991D01*
X77373557Y-63276466D01*
X77322037Y-63106627D01*
X77304641Y-62930000D01*
X77322037Y-62753373D01*
X77373557Y-62583534D01*
X77457222Y-62427009D01*
X77486552Y-62391271D01*
X77569814Y-62289814D01*
X77671271Y-62206552D01*
X77707009Y-62177222D01*
X77863534Y-62093557D01*
X78033373Y-62042037D01*
X78099558Y-62035518D01*
X78165740Y-62029000D01*
X78254260Y-62029000D01*
X78320442Y-62035518D01*
X78320442Y-62035518D01*
G37*
G36*
X80860443Y-59495519D02*
G01*
X80926627Y-59502037D01*
X81096466Y-59553557D01*
X81252991Y-59637222D01*
X81288729Y-59666552D01*
X81390186Y-59749814D01*
X81473448Y-59851271D01*
X81502778Y-59887009D01*
X81586443Y-60043534D01*
X81637963Y-60213373D01*
X81655359Y-60390000D01*
X81637963Y-60566627D01*
X81586443Y-60736466D01*
X81502778Y-60892991D01*
X81473448Y-60928729D01*
X81390186Y-61030186D01*
X81288729Y-61113448D01*
X81252991Y-61142778D01*
X81096466Y-61226443D01*
X80926627Y-61277963D01*
X80860442Y-61284482D01*
X80794260Y-61291000D01*
X80705740Y-61291000D01*
X80639558Y-61284482D01*
X80573373Y-61277963D01*
X80403534Y-61226443D01*
X80247009Y-61142778D01*
X80211271Y-61113448D01*
X80109814Y-61030186D01*
X80026552Y-60928729D01*
X79997222Y-60892991D01*
X79913557Y-60736466D01*
X79862037Y-60566627D01*
X79844641Y-60390000D01*
X79862037Y-60213373D01*
X79913557Y-60043534D01*
X79997222Y-59887009D01*
X80026552Y-59851271D01*
X80109814Y-59749814D01*
X80211271Y-59666552D01*
X80247009Y-59637222D01*
X80403534Y-59553557D01*
X80573373Y-59502037D01*
X80639557Y-59495519D01*
X80705740Y-59489000D01*
X80794260Y-59489000D01*
X80860443Y-59495519D01*
X80860443Y-59495519D01*
G37*
G36*
X78320443Y-59495519D02*
G01*
X78386627Y-59502037D01*
X78556466Y-59553557D01*
X78712991Y-59637222D01*
X78748729Y-59666552D01*
X78850186Y-59749814D01*
X78933448Y-59851271D01*
X78962778Y-59887009D01*
X79046443Y-60043534D01*
X79097963Y-60213373D01*
X79115359Y-60390000D01*
X79097963Y-60566627D01*
X79046443Y-60736466D01*
X78962778Y-60892991D01*
X78933448Y-60928729D01*
X78850186Y-61030186D01*
X78748729Y-61113448D01*
X78712991Y-61142778D01*
X78556466Y-61226443D01*
X78386627Y-61277963D01*
X78320442Y-61284482D01*
X78254260Y-61291000D01*
X78165740Y-61291000D01*
X78099558Y-61284482D01*
X78033373Y-61277963D01*
X77863534Y-61226443D01*
X77707009Y-61142778D01*
X77671271Y-61113448D01*
X77569814Y-61030186D01*
X77486552Y-60928729D01*
X77457222Y-60892991D01*
X77373557Y-60736466D01*
X77322037Y-60566627D01*
X77304641Y-60390000D01*
X77322037Y-60213373D01*
X77373557Y-60043534D01*
X77457222Y-59887009D01*
X77486552Y-59851271D01*
X77569814Y-59749814D01*
X77671271Y-59666552D01*
X77707009Y-59637222D01*
X77863534Y-59553557D01*
X78033373Y-59502037D01*
X78099557Y-59495519D01*
X78165740Y-59489000D01*
X78254260Y-59489000D01*
X78320443Y-59495519D01*
X78320443Y-59495519D01*
G37*
G36*
X80860443Y-56955519D02*
G01*
X80926627Y-56962037D01*
X81096466Y-57013557D01*
X81252991Y-57097222D01*
X81288729Y-57126552D01*
X81390186Y-57209814D01*
X81473448Y-57311271D01*
X81502778Y-57347009D01*
X81586443Y-57503534D01*
X81637963Y-57673373D01*
X81655359Y-57850000D01*
X81637963Y-58026627D01*
X81586443Y-58196466D01*
X81502778Y-58352991D01*
X81473448Y-58388729D01*
X81390186Y-58490186D01*
X81288729Y-58573448D01*
X81252991Y-58602778D01*
X81096466Y-58686443D01*
X80926627Y-58737963D01*
X80860442Y-58744482D01*
X80794260Y-58751000D01*
X80705740Y-58751000D01*
X80639558Y-58744482D01*
X80573373Y-58737963D01*
X80403534Y-58686443D01*
X80247009Y-58602778D01*
X80211271Y-58573448D01*
X80109814Y-58490186D01*
X80026552Y-58388729D01*
X79997222Y-58352991D01*
X79913557Y-58196466D01*
X79862037Y-58026627D01*
X79844641Y-57850000D01*
X79862037Y-57673373D01*
X79913557Y-57503534D01*
X79997222Y-57347009D01*
X80026552Y-57311271D01*
X80109814Y-57209814D01*
X80211271Y-57126552D01*
X80247009Y-57097222D01*
X80403534Y-57013557D01*
X80573373Y-56962037D01*
X80639557Y-56955519D01*
X80705740Y-56949000D01*
X80794260Y-56949000D01*
X80860443Y-56955519D01*
X80860443Y-56955519D01*
G37*
G36*
X78320443Y-56955519D02*
G01*
X78386627Y-56962037D01*
X78556466Y-57013557D01*
X78712991Y-57097222D01*
X78748729Y-57126552D01*
X78850186Y-57209814D01*
X78933448Y-57311271D01*
X78962778Y-57347009D01*
X79046443Y-57503534D01*
X79097963Y-57673373D01*
X79115359Y-57850000D01*
X79097963Y-58026627D01*
X79046443Y-58196466D01*
X78962778Y-58352991D01*
X78933448Y-58388729D01*
X78850186Y-58490186D01*
X78748729Y-58573448D01*
X78712991Y-58602778D01*
X78556466Y-58686443D01*
X78386627Y-58737963D01*
X78320442Y-58744482D01*
X78254260Y-58751000D01*
X78165740Y-58751000D01*
X78099558Y-58744482D01*
X78033373Y-58737963D01*
X77863534Y-58686443D01*
X77707009Y-58602778D01*
X77671271Y-58573448D01*
X77569814Y-58490186D01*
X77486552Y-58388729D01*
X77457222Y-58352991D01*
X77373557Y-58196466D01*
X77322037Y-58026627D01*
X77304641Y-57850000D01*
X77322037Y-57673373D01*
X77373557Y-57503534D01*
X77457222Y-57347009D01*
X77486552Y-57311271D01*
X77569814Y-57209814D01*
X77671271Y-57126552D01*
X77707009Y-57097222D01*
X77863534Y-57013557D01*
X78033373Y-56962037D01*
X78099557Y-56955519D01*
X78165740Y-56949000D01*
X78254260Y-56949000D01*
X78320443Y-56955519D01*
X78320443Y-56955519D01*
G37*
G36*
X78320442Y-54415518D02*
G01*
X78386627Y-54422037D01*
X78556466Y-54473557D01*
X78712991Y-54557222D01*
X78748729Y-54586552D01*
X78850186Y-54669814D01*
X78933448Y-54771271D01*
X78962778Y-54807009D01*
X79046443Y-54963534D01*
X79097963Y-55133373D01*
X79115359Y-55310000D01*
X79097963Y-55486627D01*
X79046443Y-55656466D01*
X78962778Y-55812991D01*
X78933448Y-55848729D01*
X78850186Y-55950186D01*
X78748729Y-56033448D01*
X78712991Y-56062778D01*
X78556466Y-56146443D01*
X78386627Y-56197963D01*
X78320443Y-56204481D01*
X78254260Y-56211000D01*
X78165740Y-56211000D01*
X78099557Y-56204481D01*
X78033373Y-56197963D01*
X77863534Y-56146443D01*
X77707009Y-56062778D01*
X77671271Y-56033448D01*
X77569814Y-55950186D01*
X77486552Y-55848729D01*
X77457222Y-55812991D01*
X77373557Y-55656466D01*
X77322037Y-55486627D01*
X77304641Y-55310000D01*
X77322037Y-55133373D01*
X77373557Y-54963534D01*
X77457222Y-54807009D01*
X77486552Y-54771271D01*
X77569814Y-54669814D01*
X77671271Y-54586552D01*
X77707009Y-54557222D01*
X77863534Y-54473557D01*
X78033373Y-54422037D01*
X78099558Y-54415518D01*
X78165740Y-54409000D01*
X78254260Y-54409000D01*
X78320442Y-54415518D01*
X78320442Y-54415518D01*
G37*
G36*
X80860442Y-54415518D02*
G01*
X80926627Y-54422037D01*
X81096466Y-54473557D01*
X81252991Y-54557222D01*
X81288729Y-54586552D01*
X81390186Y-54669814D01*
X81473448Y-54771271D01*
X81502778Y-54807009D01*
X81586443Y-54963534D01*
X81637963Y-55133373D01*
X81655359Y-55310000D01*
X81637963Y-55486627D01*
X81586443Y-55656466D01*
X81502778Y-55812991D01*
X81473448Y-55848729D01*
X81390186Y-55950186D01*
X81288729Y-56033448D01*
X81252991Y-56062778D01*
X81096466Y-56146443D01*
X80926627Y-56197963D01*
X80860443Y-56204481D01*
X80794260Y-56211000D01*
X80705740Y-56211000D01*
X80639557Y-56204481D01*
X80573373Y-56197963D01*
X80403534Y-56146443D01*
X80247009Y-56062778D01*
X80211271Y-56033448D01*
X80109814Y-55950186D01*
X80026552Y-55848729D01*
X79997222Y-55812991D01*
X79913557Y-55656466D01*
X79862037Y-55486627D01*
X79844641Y-55310000D01*
X79862037Y-55133373D01*
X79913557Y-54963534D01*
X79997222Y-54807009D01*
X80026552Y-54771271D01*
X80109814Y-54669814D01*
X80211271Y-54586552D01*
X80247009Y-54557222D01*
X80403534Y-54473557D01*
X80573373Y-54422037D01*
X80639558Y-54415518D01*
X80705740Y-54409000D01*
X80794260Y-54409000D01*
X80860442Y-54415518D01*
X80860442Y-54415518D01*
G37*
G36*
X80860443Y-51875519D02*
G01*
X80926627Y-51882037D01*
X81096466Y-51933557D01*
X81252991Y-52017222D01*
X81288729Y-52046552D01*
X81390186Y-52129814D01*
X81473448Y-52231271D01*
X81502778Y-52267009D01*
X81586443Y-52423534D01*
X81637963Y-52593373D01*
X81655359Y-52770000D01*
X81637963Y-52946627D01*
X81586443Y-53116466D01*
X81502778Y-53272991D01*
X81473448Y-53308729D01*
X81390186Y-53410186D01*
X81288729Y-53493448D01*
X81252991Y-53522778D01*
X81096466Y-53606443D01*
X80926627Y-53657963D01*
X80860443Y-53664481D01*
X80794260Y-53671000D01*
X80705740Y-53671000D01*
X80639557Y-53664481D01*
X80573373Y-53657963D01*
X80403534Y-53606443D01*
X80247009Y-53522778D01*
X80211271Y-53493448D01*
X80109814Y-53410186D01*
X80026552Y-53308729D01*
X79997222Y-53272991D01*
X79913557Y-53116466D01*
X79862037Y-52946627D01*
X79844641Y-52770000D01*
X79862037Y-52593373D01*
X79913557Y-52423534D01*
X79997222Y-52267009D01*
X80026552Y-52231271D01*
X80109814Y-52129814D01*
X80211271Y-52046552D01*
X80247009Y-52017222D01*
X80403534Y-51933557D01*
X80573373Y-51882037D01*
X80639557Y-51875519D01*
X80705740Y-51869000D01*
X80794260Y-51869000D01*
X80860443Y-51875519D01*
X80860443Y-51875519D01*
G37*
G36*
X78320443Y-51875519D02*
G01*
X78386627Y-51882037D01*
X78556466Y-51933557D01*
X78712991Y-52017222D01*
X78748729Y-52046552D01*
X78850186Y-52129814D01*
X78933448Y-52231271D01*
X78962778Y-52267009D01*
X79046443Y-52423534D01*
X79097963Y-52593373D01*
X79115359Y-52770000D01*
X79097963Y-52946627D01*
X79046443Y-53116466D01*
X78962778Y-53272991D01*
X78933448Y-53308729D01*
X78850186Y-53410186D01*
X78748729Y-53493448D01*
X78712991Y-53522778D01*
X78556466Y-53606443D01*
X78386627Y-53657963D01*
X78320443Y-53664481D01*
X78254260Y-53671000D01*
X78165740Y-53671000D01*
X78099557Y-53664481D01*
X78033373Y-53657963D01*
X77863534Y-53606443D01*
X77707009Y-53522778D01*
X77671271Y-53493448D01*
X77569814Y-53410186D01*
X77486552Y-53308729D01*
X77457222Y-53272991D01*
X77373557Y-53116466D01*
X77322037Y-52946627D01*
X77304641Y-52770000D01*
X77322037Y-52593373D01*
X77373557Y-52423534D01*
X77457222Y-52267009D01*
X77486552Y-52231271D01*
X77569814Y-52129814D01*
X77671271Y-52046552D01*
X77707009Y-52017222D01*
X77863534Y-51933557D01*
X78033373Y-51882037D01*
X78099557Y-51875519D01*
X78165740Y-51869000D01*
X78254260Y-51869000D01*
X78320443Y-51875519D01*
X78320443Y-51875519D01*
G37*
G36*
X80860442Y-49335518D02*
G01*
X80926627Y-49342037D01*
X81096466Y-49393557D01*
X81252991Y-49477222D01*
X81288729Y-49506552D01*
X81390186Y-49589814D01*
X81473448Y-49691271D01*
X81502778Y-49727009D01*
X81586443Y-49883534D01*
X81637963Y-50053373D01*
X81655359Y-50230000D01*
X81637963Y-50406627D01*
X81586443Y-50576466D01*
X81502778Y-50732991D01*
X81473448Y-50768729D01*
X81390186Y-50870186D01*
X81288729Y-50953448D01*
X81252991Y-50982778D01*
X81096466Y-51066443D01*
X80926627Y-51117963D01*
X80860442Y-51124482D01*
X80794260Y-51131000D01*
X80705740Y-51131000D01*
X80639558Y-51124482D01*
X80573373Y-51117963D01*
X80403534Y-51066443D01*
X80247009Y-50982778D01*
X80211271Y-50953448D01*
X80109814Y-50870186D01*
X80026552Y-50768729D01*
X79997222Y-50732991D01*
X79913557Y-50576466D01*
X79862037Y-50406627D01*
X79844641Y-50230000D01*
X79862037Y-50053373D01*
X79913557Y-49883534D01*
X79997222Y-49727009D01*
X80026552Y-49691271D01*
X80109814Y-49589814D01*
X80211271Y-49506552D01*
X80247009Y-49477222D01*
X80403534Y-49393557D01*
X80573373Y-49342037D01*
X80639557Y-49335519D01*
X80705740Y-49329000D01*
X80794260Y-49329000D01*
X80860442Y-49335518D01*
X80860442Y-49335518D01*
G37*
G36*
X78320442Y-49335518D02*
G01*
X78386627Y-49342037D01*
X78556466Y-49393557D01*
X78712991Y-49477222D01*
X78748729Y-49506552D01*
X78850186Y-49589814D01*
X78933448Y-49691271D01*
X78962778Y-49727009D01*
X79046443Y-49883534D01*
X79097963Y-50053373D01*
X79115359Y-50230000D01*
X79097963Y-50406627D01*
X79046443Y-50576466D01*
X78962778Y-50732991D01*
X78933448Y-50768729D01*
X78850186Y-50870186D01*
X78748729Y-50953448D01*
X78712991Y-50982778D01*
X78556466Y-51066443D01*
X78386627Y-51117963D01*
X78320442Y-51124482D01*
X78254260Y-51131000D01*
X78165740Y-51131000D01*
X78099558Y-51124482D01*
X78033373Y-51117963D01*
X77863534Y-51066443D01*
X77707009Y-50982778D01*
X77671271Y-50953448D01*
X77569814Y-50870186D01*
X77486552Y-50768729D01*
X77457222Y-50732991D01*
X77373557Y-50576466D01*
X77322037Y-50406627D01*
X77304641Y-50230000D01*
X77322037Y-50053373D01*
X77373557Y-49883534D01*
X77457222Y-49727009D01*
X77486552Y-49691271D01*
X77569814Y-49589814D01*
X77671271Y-49506552D01*
X77707009Y-49477222D01*
X77863534Y-49393557D01*
X78033373Y-49342037D01*
X78099557Y-49335519D01*
X78165740Y-49329000D01*
X78254260Y-49329000D01*
X78320442Y-49335518D01*
X78320442Y-49335518D01*
G37*
G36*
X78320442Y-46795518D02*
G01*
X78386627Y-46802037D01*
X78556466Y-46853557D01*
X78712991Y-46937222D01*
X78748729Y-46966552D01*
X78850186Y-47049814D01*
X78933448Y-47151271D01*
X78962778Y-47187009D01*
X79046443Y-47343534D01*
X79097963Y-47513373D01*
X79115359Y-47690000D01*
X79097963Y-47866627D01*
X79046443Y-48036466D01*
X78962778Y-48192991D01*
X78933448Y-48228729D01*
X78850186Y-48330186D01*
X78748729Y-48413448D01*
X78712991Y-48442778D01*
X78556466Y-48526443D01*
X78386627Y-48577963D01*
X78320443Y-48584481D01*
X78254260Y-48591000D01*
X78165740Y-48591000D01*
X78099558Y-48584482D01*
X78033373Y-48577963D01*
X77863534Y-48526443D01*
X77707009Y-48442778D01*
X77671271Y-48413448D01*
X77569814Y-48330186D01*
X77486552Y-48228729D01*
X77457222Y-48192991D01*
X77373557Y-48036466D01*
X77322037Y-47866627D01*
X77304641Y-47690000D01*
X77322037Y-47513373D01*
X77373557Y-47343534D01*
X77457222Y-47187009D01*
X77486552Y-47151271D01*
X77569814Y-47049814D01*
X77671271Y-46966552D01*
X77707009Y-46937222D01*
X77863534Y-46853557D01*
X78033373Y-46802037D01*
X78099558Y-46795518D01*
X78165740Y-46789000D01*
X78254260Y-46789000D01*
X78320442Y-46795518D01*
X78320442Y-46795518D01*
G37*
G36*
X80860442Y-46795518D02*
G01*
X80926627Y-46802037D01*
X81096466Y-46853557D01*
X81252991Y-46937222D01*
X81288729Y-46966552D01*
X81390186Y-47049814D01*
X81473448Y-47151271D01*
X81502778Y-47187009D01*
X81586443Y-47343534D01*
X81637963Y-47513373D01*
X81655359Y-47690000D01*
X81637963Y-47866627D01*
X81586443Y-48036466D01*
X81502778Y-48192991D01*
X81473448Y-48228729D01*
X81390186Y-48330186D01*
X81288729Y-48413448D01*
X81252991Y-48442778D01*
X81096466Y-48526443D01*
X80926627Y-48577963D01*
X80860443Y-48584481D01*
X80794260Y-48591000D01*
X80705740Y-48591000D01*
X80639558Y-48584482D01*
X80573373Y-48577963D01*
X80403534Y-48526443D01*
X80247009Y-48442778D01*
X80211271Y-48413448D01*
X80109814Y-48330186D01*
X80026552Y-48228729D01*
X79997222Y-48192991D01*
X79913557Y-48036466D01*
X79862037Y-47866627D01*
X79844641Y-47690000D01*
X79862037Y-47513373D01*
X79913557Y-47343534D01*
X79997222Y-47187009D01*
X80026552Y-47151271D01*
X80109814Y-47049814D01*
X80211271Y-46966552D01*
X80247009Y-46937222D01*
X80403534Y-46853557D01*
X80573373Y-46802037D01*
X80639558Y-46795518D01*
X80705740Y-46789000D01*
X80794260Y-46789000D01*
X80860442Y-46795518D01*
X80860442Y-46795518D01*
G37*
G36*
X80860442Y-44255518D02*
G01*
X80926627Y-44262037D01*
X81096466Y-44313557D01*
X81252991Y-44397222D01*
X81288729Y-44426552D01*
X81390186Y-44509814D01*
X81473448Y-44611271D01*
X81502778Y-44647009D01*
X81586443Y-44803534D01*
X81637963Y-44973373D01*
X81655359Y-45150000D01*
X81637963Y-45326627D01*
X81586443Y-45496466D01*
X81502778Y-45652991D01*
X81473448Y-45688729D01*
X81390186Y-45790186D01*
X81288729Y-45873448D01*
X81252991Y-45902778D01*
X81096466Y-45986443D01*
X80926627Y-46037963D01*
X80860443Y-46044481D01*
X80794260Y-46051000D01*
X80705740Y-46051000D01*
X80639558Y-46044482D01*
X80573373Y-46037963D01*
X80403534Y-45986443D01*
X80247009Y-45902778D01*
X80211271Y-45873448D01*
X80109814Y-45790186D01*
X80026552Y-45688729D01*
X79997222Y-45652991D01*
X79913557Y-45496466D01*
X79862037Y-45326627D01*
X79844641Y-45150000D01*
X79862037Y-44973373D01*
X79913557Y-44803534D01*
X79997222Y-44647009D01*
X80026552Y-44611271D01*
X80109814Y-44509814D01*
X80211271Y-44426552D01*
X80247009Y-44397222D01*
X80403534Y-44313557D01*
X80573373Y-44262037D01*
X80639558Y-44255518D01*
X80705740Y-44249000D01*
X80794260Y-44249000D01*
X80860442Y-44255518D01*
X80860442Y-44255518D01*
G37*
G36*
X78320442Y-44255518D02*
G01*
X78386627Y-44262037D01*
X78556466Y-44313557D01*
X78712991Y-44397222D01*
X78748729Y-44426552D01*
X78850186Y-44509814D01*
X78933448Y-44611271D01*
X78962778Y-44647009D01*
X79046443Y-44803534D01*
X79097963Y-44973373D01*
X79115359Y-45150000D01*
X79097963Y-45326627D01*
X79046443Y-45496466D01*
X78962778Y-45652991D01*
X78933448Y-45688729D01*
X78850186Y-45790186D01*
X78748729Y-45873448D01*
X78712991Y-45902778D01*
X78556466Y-45986443D01*
X78386627Y-46037963D01*
X78320443Y-46044481D01*
X78254260Y-46051000D01*
X78165740Y-46051000D01*
X78099558Y-46044482D01*
X78033373Y-46037963D01*
X77863534Y-45986443D01*
X77707009Y-45902778D01*
X77671271Y-45873448D01*
X77569814Y-45790186D01*
X77486552Y-45688729D01*
X77457222Y-45652991D01*
X77373557Y-45496466D01*
X77322037Y-45326627D01*
X77304641Y-45150000D01*
X77322037Y-44973373D01*
X77373557Y-44803534D01*
X77457222Y-44647009D01*
X77486552Y-44611271D01*
X77569814Y-44509814D01*
X77671271Y-44426552D01*
X77707009Y-44397222D01*
X77863534Y-44313557D01*
X78033373Y-44262037D01*
X78099558Y-44255518D01*
X78165740Y-44249000D01*
X78254260Y-44249000D01*
X78320442Y-44255518D01*
X78320442Y-44255518D01*
G37*
G36*
X78320442Y-41715518D02*
G01*
X78386627Y-41722037D01*
X78556466Y-41773557D01*
X78712991Y-41857222D01*
X78748729Y-41886552D01*
X78850186Y-41969814D01*
X78933448Y-42071271D01*
X78962778Y-42107009D01*
X79046443Y-42263534D01*
X79097963Y-42433373D01*
X79115359Y-42610000D01*
X79097963Y-42786627D01*
X79046443Y-42956466D01*
X78962778Y-43112991D01*
X78933448Y-43148729D01*
X78850186Y-43250186D01*
X78748729Y-43333448D01*
X78712991Y-43362778D01*
X78556466Y-43446443D01*
X78386627Y-43497963D01*
X78320442Y-43504482D01*
X78254260Y-43511000D01*
X78165740Y-43511000D01*
X78099558Y-43504482D01*
X78033373Y-43497963D01*
X77863534Y-43446443D01*
X77707009Y-43362778D01*
X77671271Y-43333448D01*
X77569814Y-43250186D01*
X77486552Y-43148729D01*
X77457222Y-43112991D01*
X77373557Y-42956466D01*
X77322037Y-42786627D01*
X77304641Y-42610000D01*
X77322037Y-42433373D01*
X77373557Y-42263534D01*
X77457222Y-42107009D01*
X77486552Y-42071271D01*
X77569814Y-41969814D01*
X77671271Y-41886552D01*
X77707009Y-41857222D01*
X77863534Y-41773557D01*
X78033373Y-41722037D01*
X78099558Y-41715518D01*
X78165740Y-41709000D01*
X78254260Y-41709000D01*
X78320442Y-41715518D01*
X78320442Y-41715518D01*
G37*
G36*
X80860442Y-41715518D02*
G01*
X80926627Y-41722037D01*
X81096466Y-41773557D01*
X81252991Y-41857222D01*
X81288729Y-41886552D01*
X81390186Y-41969814D01*
X81473448Y-42071271D01*
X81502778Y-42107009D01*
X81586443Y-42263534D01*
X81637963Y-42433373D01*
X81655359Y-42610000D01*
X81637963Y-42786627D01*
X81586443Y-42956466D01*
X81502778Y-43112991D01*
X81473448Y-43148729D01*
X81390186Y-43250186D01*
X81288729Y-43333448D01*
X81252991Y-43362778D01*
X81096466Y-43446443D01*
X80926627Y-43497963D01*
X80860442Y-43504482D01*
X80794260Y-43511000D01*
X80705740Y-43511000D01*
X80639558Y-43504482D01*
X80573373Y-43497963D01*
X80403534Y-43446443D01*
X80247009Y-43362778D01*
X80211271Y-43333448D01*
X80109814Y-43250186D01*
X80026552Y-43148729D01*
X79997222Y-43112991D01*
X79913557Y-42956466D01*
X79862037Y-42786627D01*
X79844641Y-42610000D01*
X79862037Y-42433373D01*
X79913557Y-42263534D01*
X79997222Y-42107009D01*
X80026552Y-42071271D01*
X80109814Y-41969814D01*
X80211271Y-41886552D01*
X80247009Y-41857222D01*
X80403534Y-41773557D01*
X80573373Y-41722037D01*
X80639558Y-41715518D01*
X80705740Y-41709000D01*
X80794260Y-41709000D01*
X80860442Y-41715518D01*
X80860442Y-41715518D01*
G37*
G36*
X80860442Y-39175518D02*
G01*
X80926627Y-39182037D01*
X81096466Y-39233557D01*
X81252991Y-39317222D01*
X81288729Y-39346552D01*
X81390186Y-39429814D01*
X81473448Y-39531271D01*
X81502778Y-39567009D01*
X81586443Y-39723534D01*
X81637963Y-39893373D01*
X81655359Y-40070000D01*
X81637963Y-40246627D01*
X81586443Y-40416466D01*
X81502778Y-40572991D01*
X81473448Y-40608729D01*
X81390186Y-40710186D01*
X81288729Y-40793448D01*
X81252991Y-40822778D01*
X81096466Y-40906443D01*
X80926627Y-40957963D01*
X80860443Y-40964481D01*
X80794260Y-40971000D01*
X80705740Y-40971000D01*
X80639557Y-40964481D01*
X80573373Y-40957963D01*
X80403534Y-40906443D01*
X80247009Y-40822778D01*
X80211271Y-40793448D01*
X80109814Y-40710186D01*
X80026552Y-40608729D01*
X79997222Y-40572991D01*
X79913557Y-40416466D01*
X79862037Y-40246627D01*
X79844641Y-40070000D01*
X79862037Y-39893373D01*
X79913557Y-39723534D01*
X79997222Y-39567009D01*
X80026552Y-39531271D01*
X80109814Y-39429814D01*
X80211271Y-39346552D01*
X80247009Y-39317222D01*
X80403534Y-39233557D01*
X80573373Y-39182037D01*
X80639558Y-39175518D01*
X80705740Y-39169000D01*
X80794260Y-39169000D01*
X80860442Y-39175518D01*
X80860442Y-39175518D01*
G37*
G36*
X78320442Y-39175518D02*
G01*
X78386627Y-39182037D01*
X78556466Y-39233557D01*
X78712991Y-39317222D01*
X78748729Y-39346552D01*
X78850186Y-39429814D01*
X78933448Y-39531271D01*
X78962778Y-39567009D01*
X79046443Y-39723534D01*
X79097963Y-39893373D01*
X79115359Y-40070000D01*
X79097963Y-40246627D01*
X79046443Y-40416466D01*
X78962778Y-40572991D01*
X78933448Y-40608729D01*
X78850186Y-40710186D01*
X78748729Y-40793448D01*
X78712991Y-40822778D01*
X78556466Y-40906443D01*
X78386627Y-40957963D01*
X78320443Y-40964481D01*
X78254260Y-40971000D01*
X78165740Y-40971000D01*
X78099557Y-40964481D01*
X78033373Y-40957963D01*
X77863534Y-40906443D01*
X77707009Y-40822778D01*
X77671271Y-40793448D01*
X77569814Y-40710186D01*
X77486552Y-40608729D01*
X77457222Y-40572991D01*
X77373557Y-40416466D01*
X77322037Y-40246627D01*
X77304641Y-40070000D01*
X77322037Y-39893373D01*
X77373557Y-39723534D01*
X77457222Y-39567009D01*
X77486552Y-39531271D01*
X77569814Y-39429814D01*
X77671271Y-39346552D01*
X77707009Y-39317222D01*
X77863534Y-39233557D01*
X78033373Y-39182037D01*
X78099558Y-39175518D01*
X78165740Y-39169000D01*
X78254260Y-39169000D01*
X78320442Y-39175518D01*
X78320442Y-39175518D01*
G37*
G36*
X93714781Y-37027009D02*
G01*
X93719059Y-37027860D01*
X93855732Y-37084472D01*
X93978735Y-37166660D01*
X94083340Y-37271265D01*
X94165528Y-37394268D01*
X94222140Y-37530941D01*
X94251000Y-37676033D01*
X94251000Y-37823967D01*
X94222140Y-37969059D01*
X94165528Y-38105732D01*
X94083340Y-38228735D01*
X93978735Y-38333340D01*
X93855732Y-38415528D01*
X93855731Y-38415529D01*
X93855730Y-38415529D01*
X93719059Y-38472140D01*
X93573968Y-38501000D01*
X93426032Y-38501000D01*
X93280941Y-38472140D01*
X93144270Y-38415529D01*
X93144269Y-38415529D01*
X93144268Y-38415528D01*
X93021265Y-38333340D01*
X92916660Y-38228735D01*
X92834472Y-38105732D01*
X92777860Y-37969059D01*
X92749000Y-37823967D01*
X92749000Y-37676033D01*
X92777860Y-37530941D01*
X92834472Y-37394268D01*
X92916660Y-37271265D01*
X93021265Y-37166660D01*
X93144268Y-37084472D01*
X93280941Y-37027860D01*
X93285219Y-37027009D01*
X93426032Y-36999000D01*
X93573968Y-36999000D01*
X93714781Y-37027009D01*
X93714781Y-37027009D01*
G37*
G36*
X99251000Y-38501000D02*
G01*
X97749000Y-38501000D01*
X97749000Y-36999000D01*
X99251000Y-36999000D01*
X99251000Y-38501000D01*
X99251000Y-38501000D01*
G37*
G36*
X96214781Y-37027009D02*
G01*
X96219059Y-37027860D01*
X96355732Y-37084472D01*
X96478735Y-37166660D01*
X96583340Y-37271265D01*
X96665528Y-37394268D01*
X96722140Y-37530941D01*
X96751000Y-37676033D01*
X96751000Y-37823967D01*
X96722140Y-37969059D01*
X96665528Y-38105732D01*
X96583340Y-38228735D01*
X96478735Y-38333340D01*
X96355732Y-38415528D01*
X96355731Y-38415529D01*
X96355730Y-38415529D01*
X96219059Y-38472140D01*
X96073968Y-38501000D01*
X95926032Y-38501000D01*
X95780941Y-38472140D01*
X95644270Y-38415529D01*
X95644269Y-38415529D01*
X95644268Y-38415528D01*
X95521265Y-38333340D01*
X95416660Y-38228735D01*
X95334472Y-38105732D01*
X95277860Y-37969059D01*
X95249000Y-37823967D01*
X95249000Y-37676033D01*
X95277860Y-37530941D01*
X95334472Y-37394268D01*
X95416660Y-37271265D01*
X95521265Y-37166660D01*
X95644268Y-37084472D01*
X95780941Y-37027860D01*
X95785219Y-37027009D01*
X95926032Y-36999000D01*
X96073968Y-36999000D01*
X96214781Y-37027009D01*
X96214781Y-37027009D01*
G37*
G36*
X80860443Y-36635519D02*
G01*
X80926627Y-36642037D01*
X81096466Y-36693557D01*
X81252991Y-36777222D01*
X81288729Y-36806552D01*
X81390186Y-36889814D01*
X81473448Y-36991271D01*
X81502778Y-37027009D01*
X81586443Y-37183534D01*
X81637963Y-37353373D01*
X81655359Y-37530000D01*
X81637963Y-37706627D01*
X81586443Y-37876466D01*
X81502778Y-38032991D01*
X81473448Y-38068729D01*
X81390186Y-38170186D01*
X81288729Y-38253448D01*
X81252991Y-38282778D01*
X81096466Y-38366443D01*
X80926627Y-38417963D01*
X80860442Y-38424482D01*
X80794260Y-38431000D01*
X80705740Y-38431000D01*
X80639558Y-38424482D01*
X80573373Y-38417963D01*
X80403534Y-38366443D01*
X80247009Y-38282778D01*
X80211271Y-38253448D01*
X80109814Y-38170186D01*
X80026552Y-38068729D01*
X79997222Y-38032991D01*
X79913557Y-37876466D01*
X79862037Y-37706627D01*
X79844641Y-37530000D01*
X79862037Y-37353373D01*
X79913557Y-37183534D01*
X79997222Y-37027009D01*
X80026552Y-36991271D01*
X80109814Y-36889814D01*
X80211271Y-36806552D01*
X80247009Y-36777222D01*
X80403534Y-36693557D01*
X80573373Y-36642037D01*
X80639557Y-36635519D01*
X80705740Y-36629000D01*
X80794260Y-36629000D01*
X80860443Y-36635519D01*
X80860443Y-36635519D01*
G37*
G36*
X78320443Y-36635519D02*
G01*
X78386627Y-36642037D01*
X78556466Y-36693557D01*
X78712991Y-36777222D01*
X78748729Y-36806552D01*
X78850186Y-36889814D01*
X78933448Y-36991271D01*
X78962778Y-37027009D01*
X79046443Y-37183534D01*
X79097963Y-37353373D01*
X79115359Y-37530000D01*
X79097963Y-37706627D01*
X79046443Y-37876466D01*
X78962778Y-38032991D01*
X78933448Y-38068729D01*
X78850186Y-38170186D01*
X78748729Y-38253448D01*
X78712991Y-38282778D01*
X78556466Y-38366443D01*
X78386627Y-38417963D01*
X78320442Y-38424482D01*
X78254260Y-38431000D01*
X78165740Y-38431000D01*
X78099558Y-38424482D01*
X78033373Y-38417963D01*
X77863534Y-38366443D01*
X77707009Y-38282778D01*
X77671271Y-38253448D01*
X77569814Y-38170186D01*
X77486552Y-38068729D01*
X77457222Y-38032991D01*
X77373557Y-37876466D01*
X77322037Y-37706627D01*
X77304641Y-37530000D01*
X77322037Y-37353373D01*
X77373557Y-37183534D01*
X77457222Y-37027009D01*
X77486552Y-36991271D01*
X77569814Y-36889814D01*
X77671271Y-36806552D01*
X77707009Y-36777222D01*
X77863534Y-36693557D01*
X78033373Y-36642037D01*
X78099557Y-36635519D01*
X78165740Y-36629000D01*
X78254260Y-36629000D01*
X78320443Y-36635519D01*
X78320443Y-36635519D01*
G37*
G36*
X80847746Y-34094268D02*
G01*
X80926627Y-34102037D01*
X81096466Y-34153557D01*
X81252991Y-34237222D01*
X81288729Y-34266552D01*
X81390186Y-34349814D01*
X81473448Y-34451271D01*
X81502778Y-34487009D01*
X81586443Y-34643534D01*
X81637963Y-34813373D01*
X81655359Y-34990000D01*
X81637963Y-35166627D01*
X81586443Y-35336466D01*
X81502778Y-35492991D01*
X81473448Y-35528729D01*
X81390186Y-35630186D01*
X81288729Y-35713448D01*
X81252991Y-35742778D01*
X81096466Y-35826443D01*
X80926627Y-35877963D01*
X80860443Y-35884481D01*
X80794260Y-35891000D01*
X80705740Y-35891000D01*
X80639557Y-35884481D01*
X80573373Y-35877963D01*
X80403534Y-35826443D01*
X80247009Y-35742778D01*
X80211271Y-35713448D01*
X80109814Y-35630186D01*
X80026552Y-35528729D01*
X79997222Y-35492991D01*
X79913557Y-35336466D01*
X79862037Y-35166627D01*
X79844641Y-34990000D01*
X79862037Y-34813373D01*
X79913557Y-34643534D01*
X79997222Y-34487009D01*
X80026552Y-34451271D01*
X80109814Y-34349814D01*
X80211271Y-34266552D01*
X80247009Y-34237222D01*
X80403534Y-34153557D01*
X80573373Y-34102037D01*
X80652254Y-34094268D01*
X80705740Y-34089000D01*
X80794260Y-34089000D01*
X80847746Y-34094268D01*
X80847746Y-34094268D01*
G37*
G36*
X78307746Y-34094268D02*
G01*
X78386627Y-34102037D01*
X78556466Y-34153557D01*
X78712991Y-34237222D01*
X78748729Y-34266552D01*
X78850186Y-34349814D01*
X78933448Y-34451271D01*
X78962778Y-34487009D01*
X79046443Y-34643534D01*
X79097963Y-34813373D01*
X79115359Y-34990000D01*
X79097963Y-35166627D01*
X79046443Y-35336466D01*
X78962778Y-35492991D01*
X78933448Y-35528729D01*
X78850186Y-35630186D01*
X78748729Y-35713448D01*
X78712991Y-35742778D01*
X78556466Y-35826443D01*
X78386627Y-35877963D01*
X78320443Y-35884481D01*
X78254260Y-35891000D01*
X78165740Y-35891000D01*
X78099557Y-35884481D01*
X78033373Y-35877963D01*
X77863534Y-35826443D01*
X77707009Y-35742778D01*
X77671271Y-35713448D01*
X77569814Y-35630186D01*
X77486552Y-35528729D01*
X77457222Y-35492991D01*
X77373557Y-35336466D01*
X77322037Y-35166627D01*
X77304641Y-34990000D01*
X77322037Y-34813373D01*
X77373557Y-34643534D01*
X77457222Y-34487009D01*
X77486552Y-34451271D01*
X77569814Y-34349814D01*
X77671271Y-34266552D01*
X77707009Y-34237222D01*
X77863534Y-34153557D01*
X78033373Y-34102037D01*
X78112254Y-34094268D01*
X78165740Y-34089000D01*
X78254260Y-34089000D01*
X78307746Y-34094268D01*
X78307746Y-34094268D01*
G37*
G36*
X98719059Y-33727860D02*
G01*
X98855732Y-33784472D01*
X98978735Y-33866660D01*
X99083340Y-33971265D01*
X99165528Y-34094268D01*
X99222140Y-34230941D01*
X99251000Y-34376033D01*
X99251000Y-34523967D01*
X99222140Y-34669059D01*
X99165528Y-34805732D01*
X99083340Y-34928735D01*
X98978735Y-35033340D01*
X98855732Y-35115528D01*
X98855731Y-35115529D01*
X98855730Y-35115529D01*
X98719059Y-35172140D01*
X98573968Y-35201000D01*
X98426032Y-35201000D01*
X98280941Y-35172140D01*
X98144270Y-35115529D01*
X98144269Y-35115529D01*
X98144268Y-35115528D01*
X98021265Y-35033340D01*
X97916660Y-34928735D01*
X97834472Y-34805732D01*
X97777860Y-34669059D01*
X97749000Y-34523967D01*
X97749000Y-34376033D01*
X97777860Y-34230941D01*
X97834472Y-34094268D01*
X97916660Y-33971265D01*
X98021265Y-33866660D01*
X98144268Y-33784472D01*
X98280941Y-33727860D01*
X98426032Y-33699000D01*
X98573968Y-33699000D01*
X98719059Y-33727860D01*
X98719059Y-33727860D01*
G37*
G36*
X96219059Y-33727860D02*
G01*
X96355732Y-33784472D01*
X96478735Y-33866660D01*
X96583340Y-33971265D01*
X96665528Y-34094268D01*
X96722140Y-34230941D01*
X96751000Y-34376033D01*
X96751000Y-34523967D01*
X96722140Y-34669059D01*
X96665528Y-34805732D01*
X96583340Y-34928735D01*
X96478735Y-35033340D01*
X96355732Y-35115528D01*
X96355731Y-35115529D01*
X96355730Y-35115529D01*
X96219059Y-35172140D01*
X96073968Y-35201000D01*
X95926032Y-35201000D01*
X95780941Y-35172140D01*
X95644270Y-35115529D01*
X95644269Y-35115529D01*
X95644268Y-35115528D01*
X95521265Y-35033340D01*
X95416660Y-34928735D01*
X95334472Y-34805732D01*
X95277860Y-34669059D01*
X95249000Y-34523967D01*
X95249000Y-34376033D01*
X95277860Y-34230941D01*
X95334472Y-34094268D01*
X95416660Y-33971265D01*
X95521265Y-33866660D01*
X95644268Y-33784472D01*
X95780941Y-33727860D01*
X95926032Y-33699000D01*
X96073968Y-33699000D01*
X96219059Y-33727860D01*
X96219059Y-33727860D01*
G37*
G36*
X93719059Y-33727860D02*
G01*
X93855732Y-33784472D01*
X93978735Y-33866660D01*
X94083340Y-33971265D01*
X94165528Y-34094268D01*
X94222140Y-34230941D01*
X94251000Y-34376033D01*
X94251000Y-34523967D01*
X94222140Y-34669059D01*
X94165528Y-34805732D01*
X94083340Y-34928735D01*
X93978735Y-35033340D01*
X93855732Y-35115528D01*
X93855731Y-35115529D01*
X93855730Y-35115529D01*
X93719059Y-35172140D01*
X93573968Y-35201000D01*
X93426032Y-35201000D01*
X93280941Y-35172140D01*
X93144270Y-35115529D01*
X93144269Y-35115529D01*
X93144268Y-35115528D01*
X93021265Y-35033340D01*
X92916660Y-34928735D01*
X92834472Y-34805732D01*
X92777860Y-34669059D01*
X92749000Y-34523967D01*
X92749000Y-34376033D01*
X92777860Y-34230941D01*
X92834472Y-34094268D01*
X92916660Y-33971265D01*
X93021265Y-33866660D01*
X93144268Y-33784472D01*
X93280941Y-33727860D01*
X93426032Y-33699000D01*
X93573968Y-33699000D01*
X93719059Y-33727860D01*
X93719059Y-33727860D01*
G37*
M02*
