G04 #@! TF.GenerationSoftware,KiCad,Pcbnew,(5.1.4)-1*
G04 #@! TF.CreationDate,2019-12-17T11:04:36-05:00*
G04 #@! TF.ProjectId,a500plus-chipram-expansion,61353030-706c-4757-932d-636869707261,rev?*
G04 #@! TF.SameCoordinates,Original*
G04 #@! TF.FileFunction,Legend,Top*
G04 #@! TF.FilePolarity,Positive*
%FSLAX46Y46*%
G04 Gerber Fmt 4.6, Leading zero omitted, Abs format (unit mm)*
G04 Created by KiCad (PCBNEW (5.1.4)-1) date 2019-12-17 11:04:36*
%MOMM*%
%LPD*%
G04 APERTURE LIST*
%ADD10C,0.200000*%
%ADD11C,0.150000*%
%ADD12C,0.100000*%
%ADD13C,0.120000*%
G04 APERTURE END LIST*
D10*
X85900000Y-69000000D02*
X85900000Y-79600000D01*
X84600000Y-70100000D02*
X85900000Y-69000000D01*
X84500000Y-79600000D02*
X87400000Y-79600000D01*
X85650000Y-68750000D02*
X85650000Y-79350000D01*
X84350000Y-69850000D02*
X85650000Y-68750000D01*
X84250000Y-79350000D02*
X87150000Y-79350000D01*
X85400000Y-68500000D02*
X85400000Y-79100000D01*
X84100000Y-69600000D02*
X85400000Y-68500000D01*
X84000000Y-79100000D02*
X86900000Y-79100000D01*
D11*
X71547619Y-63480952D02*
X71500000Y-63433333D01*
X71452380Y-63338095D01*
X71452380Y-63100000D01*
X71500000Y-63004761D01*
X71547619Y-62957142D01*
X71642857Y-62909523D01*
X71738095Y-62909523D01*
X71880952Y-62957142D01*
X72452380Y-63528571D01*
X72452380Y-62909523D01*
X72452380Y-62576190D02*
X71785714Y-62052380D01*
X71785714Y-62576190D02*
X72452380Y-62052380D01*
X71547619Y-61719047D02*
X71500000Y-61671428D01*
X71452380Y-61576190D01*
X71452380Y-61338095D01*
X71500000Y-61242857D01*
X71547619Y-61195238D01*
X71642857Y-61147619D01*
X71738095Y-61147619D01*
X71880952Y-61195238D01*
X72452380Y-61766666D01*
X72452380Y-61147619D01*
X71452380Y-60528571D02*
X71452380Y-60433333D01*
X71500000Y-60338095D01*
X71547619Y-60290476D01*
X71642857Y-60242857D01*
X71833333Y-60195238D01*
X72071428Y-60195238D01*
X72261904Y-60242857D01*
X72357142Y-60290476D01*
X72404761Y-60338095D01*
X72452380Y-60433333D01*
X72452380Y-60528571D01*
X72404761Y-60623809D01*
X72357142Y-60671428D01*
X72261904Y-60719047D01*
X72071428Y-60766666D01*
X71833333Y-60766666D01*
X71642857Y-60719047D01*
X71547619Y-60671428D01*
X71500000Y-60623809D01*
X71452380Y-60528571D01*
X71547619Y-59052380D02*
X71500000Y-59004761D01*
X71452380Y-58909523D01*
X71452380Y-58671428D01*
X71500000Y-58576190D01*
X71547619Y-58528571D01*
X71642857Y-58480952D01*
X71738095Y-58480952D01*
X71880952Y-58528571D01*
X72452380Y-59100000D01*
X72452380Y-58480952D01*
X72357142Y-58052380D02*
X72404761Y-58004761D01*
X72452380Y-58052380D01*
X72404761Y-58100000D01*
X72357142Y-58052380D01*
X72452380Y-58052380D01*
X71452380Y-57100000D02*
X71452380Y-57576190D01*
X71928571Y-57623809D01*
X71880952Y-57576190D01*
X71833333Y-57480952D01*
X71833333Y-57242857D01*
X71880952Y-57147619D01*
X71928571Y-57100000D01*
X72023809Y-57052380D01*
X72261904Y-57052380D01*
X72357142Y-57100000D01*
X72404761Y-57147619D01*
X72452380Y-57242857D01*
X72452380Y-57480952D01*
X72404761Y-57576190D01*
X72357142Y-57623809D01*
X71785714Y-56195238D02*
X72452380Y-56195238D01*
X71404761Y-56433333D02*
X72119047Y-56671428D01*
X72119047Y-56052380D01*
X72452380Y-55671428D02*
X71785714Y-55671428D01*
X71880952Y-55671428D02*
X71833333Y-55623809D01*
X71785714Y-55528571D01*
X71785714Y-55385714D01*
X71833333Y-55290476D01*
X71928571Y-55242857D01*
X72452380Y-55242857D01*
X71928571Y-55242857D02*
X71833333Y-55195238D01*
X71785714Y-55100000D01*
X71785714Y-54957142D01*
X71833333Y-54861904D01*
X71928571Y-54814285D01*
X72452380Y-54814285D01*
X72452380Y-54338095D02*
X71785714Y-54338095D01*
X71880952Y-54338095D02*
X71833333Y-54290476D01*
X71785714Y-54195238D01*
X71785714Y-54052380D01*
X71833333Y-53957142D01*
X71928571Y-53909523D01*
X72452380Y-53909523D01*
X71928571Y-53909523D02*
X71833333Y-53861904D01*
X71785714Y-53766666D01*
X71785714Y-53623809D01*
X71833333Y-53528571D01*
X71928571Y-53480952D01*
X72452380Y-53480952D01*
X72357142Y-51671428D02*
X72404761Y-51719047D01*
X72452380Y-51861904D01*
X72452380Y-51957142D01*
X72404761Y-52100000D01*
X72309523Y-52195238D01*
X72214285Y-52242857D01*
X72023809Y-52290476D01*
X71880952Y-52290476D01*
X71690476Y-52242857D01*
X71595238Y-52195238D01*
X71500000Y-52100000D01*
X71452380Y-51957142D01*
X71452380Y-51861904D01*
X71500000Y-51719047D01*
X71547619Y-51671428D01*
X71452380Y-51052380D02*
X71452380Y-50861904D01*
X71500000Y-50766666D01*
X71595238Y-50671428D01*
X71785714Y-50623809D01*
X72119047Y-50623809D01*
X72309523Y-50671428D01*
X72404761Y-50766666D01*
X72452380Y-50861904D01*
X72452380Y-51052380D01*
X72404761Y-51147619D01*
X72309523Y-51242857D01*
X72119047Y-51290476D01*
X71785714Y-51290476D01*
X71595238Y-51242857D01*
X71500000Y-51147619D01*
X71452380Y-51052380D01*
X72452380Y-50195238D02*
X71452380Y-50195238D01*
X72452380Y-49623809D01*
X71452380Y-49623809D01*
X72452380Y-49147619D02*
X71452380Y-49147619D01*
X72452380Y-48576190D01*
X71452380Y-48576190D01*
X71928571Y-48100000D02*
X71928571Y-47766666D01*
X72452380Y-47623809D02*
X72452380Y-48100000D01*
X71452380Y-48100000D01*
X71452380Y-47623809D01*
X72357142Y-46623809D02*
X72404761Y-46671428D01*
X72452380Y-46814285D01*
X72452380Y-46909523D01*
X72404761Y-47052380D01*
X72309523Y-47147619D01*
X72214285Y-47195238D01*
X72023809Y-47242857D01*
X71880952Y-47242857D01*
X71690476Y-47195238D01*
X71595238Y-47147619D01*
X71500000Y-47052380D01*
X71452380Y-46909523D01*
X71452380Y-46814285D01*
X71500000Y-46671428D01*
X71547619Y-46623809D01*
X71452380Y-46338095D02*
X71452380Y-45766666D01*
X72452380Y-46052380D02*
X71452380Y-46052380D01*
X71452380Y-45242857D02*
X71452380Y-45052380D01*
X71500000Y-44957142D01*
X71595238Y-44861904D01*
X71785714Y-44814285D01*
X72119047Y-44814285D01*
X72309523Y-44861904D01*
X72404761Y-44957142D01*
X72452380Y-45052380D01*
X72452380Y-45242857D01*
X72404761Y-45338095D01*
X72309523Y-45433333D01*
X72119047Y-45480952D01*
X71785714Y-45480952D01*
X71595238Y-45433333D01*
X71500000Y-45338095D01*
X71452380Y-45242857D01*
X72452380Y-43814285D02*
X71976190Y-44147619D01*
X72452380Y-44385714D02*
X71452380Y-44385714D01*
X71452380Y-44004761D01*
X71500000Y-43909523D01*
X71547619Y-43861904D01*
X71642857Y-43814285D01*
X71785714Y-43814285D01*
X71880952Y-43861904D01*
X71928571Y-43909523D01*
X71976190Y-44004761D01*
X71976190Y-44385714D01*
X71452380Y-42766666D02*
X71452380Y-42195238D01*
X72452380Y-42480952D02*
X71452380Y-42480952D01*
X72452380Y-41861904D02*
X71452380Y-41861904D01*
X71928571Y-41861904D02*
X71928571Y-41290476D01*
X72452380Y-41290476D02*
X71452380Y-41290476D01*
X72452380Y-40814285D02*
X71452380Y-40814285D01*
X72404761Y-40385714D02*
X72452380Y-40242857D01*
X72452380Y-40004761D01*
X72404761Y-39909523D01*
X72357142Y-39861904D01*
X72261904Y-39814285D01*
X72166666Y-39814285D01*
X72071428Y-39861904D01*
X72023809Y-39909523D01*
X71976190Y-40004761D01*
X71928571Y-40195238D01*
X71880952Y-40290476D01*
X71833333Y-40338095D01*
X71738095Y-40385714D01*
X71642857Y-40385714D01*
X71547619Y-40338095D01*
X71500000Y-40290476D01*
X71452380Y-40195238D01*
X71452380Y-39957142D01*
X71500000Y-39814285D01*
X72404761Y-38671428D02*
X72452380Y-38528571D01*
X72452380Y-38290476D01*
X72404761Y-38195238D01*
X72357142Y-38147619D01*
X72261904Y-38100000D01*
X72166666Y-38100000D01*
X72071428Y-38147619D01*
X72023809Y-38195238D01*
X71976190Y-38290476D01*
X71928571Y-38480952D01*
X71880952Y-38576190D01*
X71833333Y-38623809D01*
X71738095Y-38671428D01*
X71642857Y-38671428D01*
X71547619Y-38623809D01*
X71500000Y-38576190D01*
X71452380Y-38480952D01*
X71452380Y-38242857D01*
X71500000Y-38100000D01*
X72452380Y-37671428D02*
X71452380Y-37671428D01*
X72452380Y-37195238D02*
X71452380Y-37195238D01*
X71452380Y-36957142D01*
X71500000Y-36814285D01*
X71595238Y-36719047D01*
X71690476Y-36671428D01*
X71880952Y-36623809D01*
X72023809Y-36623809D01*
X72214285Y-36671428D01*
X72309523Y-36719047D01*
X72404761Y-36814285D01*
X72452380Y-36957142D01*
X72452380Y-37195238D01*
X71928571Y-36195238D02*
X71928571Y-35861904D01*
X72452380Y-35719047D02*
X72452380Y-36195238D01*
X71452380Y-36195238D01*
X71452380Y-35719047D01*
D12*
G36*
X88000000Y-81550000D02*
G01*
X85750000Y-83800000D01*
X83500000Y-81550000D01*
X84000000Y-81050000D01*
X85750000Y-82800000D01*
X87500000Y-81050000D01*
X88000000Y-81550000D01*
G37*
X88000000Y-81550000D02*
X85750000Y-83800000D01*
X83500000Y-81550000D01*
X84000000Y-81050000D01*
X85750000Y-82800000D01*
X87500000Y-81050000D01*
X88000000Y-81550000D01*
D11*
X60277619Y-55505952D02*
X60277619Y-55029761D01*
X59801428Y-54982142D01*
X59849047Y-55029761D01*
X59896666Y-55125000D01*
X59896666Y-55363095D01*
X59849047Y-55458333D01*
X59801428Y-55505952D01*
X59706190Y-55553571D01*
X59468095Y-55553571D01*
X59372857Y-55505952D01*
X59325238Y-55458333D01*
X59277619Y-55363095D01*
X59277619Y-55125000D01*
X59325238Y-55029761D01*
X59372857Y-54982142D01*
X59277619Y-56505952D02*
X59277619Y-55934523D01*
X59277619Y-56220238D02*
X60277619Y-56220238D01*
X60134761Y-56125000D01*
X60039523Y-56029761D01*
X59991904Y-55934523D01*
X59372857Y-56934523D02*
X59325238Y-56982142D01*
X59277619Y-56934523D01*
X59325238Y-56886904D01*
X59372857Y-56934523D01*
X59277619Y-56934523D01*
X60277619Y-57315476D02*
X60277619Y-57982142D01*
X59277619Y-57553571D01*
X60277619Y-58839285D02*
X60277619Y-58363095D01*
X59801428Y-58315476D01*
X59849047Y-58363095D01*
X59896666Y-58458333D01*
X59896666Y-58696428D01*
X59849047Y-58791666D01*
X59801428Y-58839285D01*
X59706190Y-58886904D01*
X59468095Y-58886904D01*
X59372857Y-58839285D01*
X59325238Y-58791666D01*
X59277619Y-58696428D01*
X59277619Y-58458333D01*
X59325238Y-58363095D01*
X59372857Y-58315476D01*
X60277619Y-59505952D02*
X60277619Y-59601190D01*
X60230000Y-59696428D01*
X60182380Y-59744047D01*
X60087142Y-59791666D01*
X59896666Y-59839285D01*
X59658571Y-59839285D01*
X59468095Y-59791666D01*
X59372857Y-59744047D01*
X59325238Y-59696428D01*
X59277619Y-59601190D01*
X59277619Y-59505952D01*
X59325238Y-59410714D01*
X59372857Y-59363095D01*
X59468095Y-59315476D01*
X59658571Y-59267857D01*
X59896666Y-59267857D01*
X60087142Y-59315476D01*
X60182380Y-59363095D01*
X60230000Y-59410714D01*
X60277619Y-59505952D01*
X59277619Y-61029761D02*
X59944285Y-61029761D01*
X59849047Y-61029761D02*
X59896666Y-61077380D01*
X59944285Y-61172619D01*
X59944285Y-61315476D01*
X59896666Y-61410714D01*
X59801428Y-61458333D01*
X59277619Y-61458333D01*
X59801428Y-61458333D02*
X59896666Y-61505952D01*
X59944285Y-61601190D01*
X59944285Y-61744047D01*
X59896666Y-61839285D01*
X59801428Y-61886904D01*
X59277619Y-61886904D01*
X59277619Y-62363095D02*
X59944285Y-62363095D01*
X59849047Y-62363095D02*
X59896666Y-62410714D01*
X59944285Y-62505952D01*
X59944285Y-62648809D01*
X59896666Y-62744047D01*
X59801428Y-62791666D01*
X59277619Y-62791666D01*
X59801428Y-62791666D02*
X59896666Y-62839285D01*
X59944285Y-62934523D01*
X59944285Y-63077380D01*
X59896666Y-63172619D01*
X59801428Y-63220238D01*
X59277619Y-63220238D01*
D13*
X61000000Y-33250000D02*
X61000000Y-85000000D01*
X63750000Y-33250000D02*
X60413579Y-33250000D01*
X63750000Y-85000000D02*
X60413579Y-85000000D01*
X61000000Y-85000000D02*
X60413579Y-83873496D01*
X61000000Y-85000000D02*
X61586421Y-83873496D01*
X61000000Y-33250000D02*
X60413579Y-34376504D01*
X61000000Y-33250000D02*
X61586421Y-34376504D01*
D11*
X85708333Y-23765714D02*
X85708333Y-24432380D01*
X85470238Y-23384761D02*
X85232142Y-24099047D01*
X85851190Y-24099047D01*
X86755952Y-24432380D02*
X86184523Y-24432380D01*
X86470238Y-24432380D02*
X86470238Y-23432380D01*
X86375000Y-23575238D01*
X86279761Y-23670476D01*
X86184523Y-23718095D01*
X87184523Y-24337142D02*
X87232142Y-24384761D01*
X87184523Y-24432380D01*
X87136904Y-24384761D01*
X87184523Y-24337142D01*
X87184523Y-24432380D01*
X87613095Y-23527619D02*
X87660714Y-23480000D01*
X87755952Y-23432380D01*
X87994047Y-23432380D01*
X88089285Y-23480000D01*
X88136904Y-23527619D01*
X88184523Y-23622857D01*
X88184523Y-23718095D01*
X88136904Y-23860952D01*
X87565476Y-24432380D01*
X88184523Y-24432380D01*
X89089285Y-23432380D02*
X88613095Y-23432380D01*
X88565476Y-23908571D01*
X88613095Y-23860952D01*
X88708333Y-23813333D01*
X88946428Y-23813333D01*
X89041666Y-23860952D01*
X89089285Y-23908571D01*
X89136904Y-24003809D01*
X89136904Y-24241904D01*
X89089285Y-24337142D01*
X89041666Y-24384761D01*
X88946428Y-24432380D01*
X88708333Y-24432380D01*
X88613095Y-24384761D01*
X88565476Y-24337142D01*
X89755952Y-23432380D02*
X89851190Y-23432380D01*
X89946428Y-23480000D01*
X89994047Y-23527619D01*
X90041666Y-23622857D01*
X90089285Y-23813333D01*
X90089285Y-24051428D01*
X90041666Y-24241904D01*
X89994047Y-24337142D01*
X89946428Y-24384761D01*
X89851190Y-24432380D01*
X89755952Y-24432380D01*
X89660714Y-24384761D01*
X89613095Y-24337142D01*
X89565476Y-24241904D01*
X89517857Y-24051428D01*
X89517857Y-23813333D01*
X89565476Y-23622857D01*
X89613095Y-23527619D01*
X89660714Y-23480000D01*
X89755952Y-23432380D01*
X91279761Y-24432380D02*
X91279761Y-23765714D01*
X91279761Y-23860952D02*
X91327380Y-23813333D01*
X91422619Y-23765714D01*
X91565476Y-23765714D01*
X91660714Y-23813333D01*
X91708333Y-23908571D01*
X91708333Y-24432380D01*
X91708333Y-23908571D02*
X91755952Y-23813333D01*
X91851190Y-23765714D01*
X91994047Y-23765714D01*
X92089285Y-23813333D01*
X92136904Y-23908571D01*
X92136904Y-24432380D01*
X92613095Y-24432380D02*
X92613095Y-23765714D01*
X92613095Y-23860952D02*
X92660714Y-23813333D01*
X92755952Y-23765714D01*
X92898809Y-23765714D01*
X92994047Y-23813333D01*
X93041666Y-23908571D01*
X93041666Y-24432380D01*
X93041666Y-23908571D02*
X93089285Y-23813333D01*
X93184523Y-23765714D01*
X93327380Y-23765714D01*
X93422619Y-23813333D01*
X93470238Y-23908571D01*
X93470238Y-24432380D01*
D13*
X68750000Y-25250000D02*
X110000000Y-25250000D01*
X68750000Y-27000000D02*
X68750000Y-24663579D01*
X110000000Y-27000000D02*
X110000000Y-24663579D01*
X110000000Y-25250000D02*
X108873496Y-25836421D01*
X110000000Y-25250000D02*
X108873496Y-24663579D01*
X68750000Y-25250000D02*
X69876504Y-25836421D01*
X68750000Y-25250000D02*
X69876504Y-24663579D01*
D11*
X71341666Y-79326071D02*
X71341666Y-78849880D01*
X71627380Y-79421309D02*
X70627380Y-79087976D01*
X71627380Y-78754642D01*
X71627380Y-78421309D02*
X70960714Y-78421309D01*
X71151190Y-78421309D02*
X71055952Y-78373690D01*
X71008333Y-78326071D01*
X70960714Y-78230833D01*
X70960714Y-78135595D01*
X71579761Y-77373690D02*
X71627380Y-77468928D01*
X71627380Y-77659404D01*
X71579761Y-77754642D01*
X71532142Y-77802261D01*
X71436904Y-77849880D01*
X71151190Y-77849880D01*
X71055952Y-77802261D01*
X71008333Y-77754642D01*
X70960714Y-77659404D01*
X70960714Y-77468928D01*
X71008333Y-77373690D01*
X71627380Y-76945119D02*
X70627380Y-76945119D01*
X71627380Y-76516547D02*
X71103571Y-76516547D01*
X71008333Y-76564166D01*
X70960714Y-76659404D01*
X70960714Y-76802261D01*
X71008333Y-76897500D01*
X71055952Y-76945119D01*
X71579761Y-75659404D02*
X71627380Y-75754642D01*
X71627380Y-75945119D01*
X71579761Y-76040357D01*
X71484523Y-76087976D01*
X71103571Y-76087976D01*
X71008333Y-76040357D01*
X70960714Y-75945119D01*
X70960714Y-75754642D01*
X71008333Y-75659404D01*
X71103571Y-75611785D01*
X71198809Y-75611785D01*
X71294047Y-76087976D01*
X71627380Y-75183214D02*
X70960714Y-75183214D01*
X71151190Y-75183214D02*
X71055952Y-75135595D01*
X71008333Y-75087976D01*
X70960714Y-74992738D01*
X70960714Y-74897500D01*
X70960714Y-73897500D02*
X71627380Y-73659404D01*
X70960714Y-73421309D01*
X71627380Y-72516547D02*
X71627380Y-73087976D01*
X71627380Y-72802261D02*
X70627380Y-72802261D01*
X70770238Y-72897500D01*
X70865476Y-72992738D01*
X70913095Y-73087976D01*
X71532142Y-72087976D02*
X71579761Y-72040357D01*
X71627380Y-72087976D01*
X71579761Y-72135595D01*
X71532142Y-72087976D01*
X71627380Y-72087976D01*
X71627380Y-71087976D02*
X71627380Y-71659404D01*
X71627380Y-71373690D02*
X70627380Y-71373690D01*
X70770238Y-71468928D01*
X70865476Y-71564166D01*
X70913095Y-71659404D01*
X72801190Y-81659404D02*
X72753571Y-81707023D01*
X72705952Y-81802261D01*
X72705952Y-81897500D01*
X72753571Y-81992738D01*
X72801190Y-82040357D01*
X72896428Y-82087976D01*
X72991666Y-82087976D01*
X73086904Y-82040357D01*
X73134523Y-81992738D01*
X73182142Y-81897500D01*
X73182142Y-81802261D01*
X73134523Y-81707023D01*
X73086904Y-81659404D01*
X72705952Y-81659404D02*
X73086904Y-81659404D01*
X73134523Y-81611785D01*
X73134523Y-81564166D01*
X73086904Y-81468928D01*
X72991666Y-81421309D01*
X72753571Y-81421309D01*
X72610714Y-81516547D01*
X72515476Y-81659404D01*
X72467857Y-81849880D01*
X72515476Y-82040357D01*
X72610714Y-82183214D01*
X72753571Y-82278452D01*
X72944047Y-82326071D01*
X73134523Y-82278452D01*
X73277380Y-82183214D01*
X73372619Y-82040357D01*
X73420238Y-81849880D01*
X73372619Y-81659404D01*
X73277380Y-81516547D01*
X73277380Y-80992738D02*
X72610714Y-80992738D01*
X72705952Y-80992738D02*
X72658333Y-80945119D01*
X72610714Y-80849880D01*
X72610714Y-80707023D01*
X72658333Y-80611785D01*
X72753571Y-80564166D01*
X73277380Y-80564166D01*
X72753571Y-80564166D02*
X72658333Y-80516547D01*
X72610714Y-80421309D01*
X72610714Y-80278452D01*
X72658333Y-80183214D01*
X72753571Y-80135595D01*
X73277380Y-80135595D01*
X73277380Y-79230833D02*
X72753571Y-79230833D01*
X72658333Y-79278452D01*
X72610714Y-79373690D01*
X72610714Y-79564166D01*
X72658333Y-79659404D01*
X73229761Y-79230833D02*
X73277380Y-79326071D01*
X73277380Y-79564166D01*
X73229761Y-79659404D01*
X73134523Y-79707023D01*
X73039285Y-79707023D01*
X72944047Y-79659404D01*
X72896428Y-79564166D01*
X72896428Y-79326071D01*
X72848809Y-79230833D01*
X73277380Y-78754642D02*
X72610714Y-78754642D01*
X72801190Y-78754642D02*
X72705952Y-78707023D01*
X72658333Y-78659404D01*
X72610714Y-78564166D01*
X72610714Y-78468928D01*
X73277380Y-78135595D02*
X72277380Y-78135595D01*
X72896428Y-78040357D02*
X73277380Y-77754642D01*
X72610714Y-77754642D02*
X72991666Y-78135595D01*
X73277380Y-77326071D02*
X72277380Y-77326071D01*
X72658333Y-77326071D02*
X72610714Y-77230833D01*
X72610714Y-77040357D01*
X72658333Y-76945119D01*
X72705952Y-76897500D01*
X72801190Y-76849880D01*
X73086904Y-76849880D01*
X73182142Y-76897500D01*
X73229761Y-76945119D01*
X73277380Y-77040357D01*
X73277380Y-77230833D01*
X73229761Y-77326071D01*
X73277380Y-75992738D02*
X72753571Y-75992738D01*
X72658333Y-76040357D01*
X72610714Y-76135595D01*
X72610714Y-76326071D01*
X72658333Y-76421309D01*
X73229761Y-75992738D02*
X73277380Y-76087976D01*
X73277380Y-76326071D01*
X73229761Y-76421309D01*
X73134523Y-76468928D01*
X73039285Y-76468928D01*
X72944047Y-76421309D01*
X72896428Y-76326071D01*
X72896428Y-76087976D01*
X72848809Y-75992738D01*
X73229761Y-75564166D02*
X73277380Y-75468928D01*
X73277380Y-75278452D01*
X73229761Y-75183214D01*
X73134523Y-75135595D01*
X73086904Y-75135595D01*
X72991666Y-75183214D01*
X72944047Y-75278452D01*
X72944047Y-75421309D01*
X72896428Y-75516547D01*
X72801190Y-75564166D01*
X72753571Y-75564166D01*
X72658333Y-75516547D01*
X72610714Y-75421309D01*
X72610714Y-75278452D01*
X72658333Y-75183214D01*
X73229761Y-74326071D02*
X73277380Y-74421309D01*
X73277380Y-74611785D01*
X73229761Y-74707023D01*
X73134523Y-74754642D01*
X72753571Y-74754642D01*
X72658333Y-74707023D01*
X72610714Y-74611785D01*
X72610714Y-74421309D01*
X72658333Y-74326071D01*
X72753571Y-74278452D01*
X72848809Y-74278452D01*
X72944047Y-74754642D01*
X72610714Y-73421309D02*
X73420238Y-73421309D01*
X73515476Y-73468928D01*
X73563095Y-73516547D01*
X73610714Y-73611785D01*
X73610714Y-73754642D01*
X73563095Y-73849880D01*
X73229761Y-73421309D02*
X73277380Y-73516547D01*
X73277380Y-73707023D01*
X73229761Y-73802261D01*
X73182142Y-73849880D01*
X73086904Y-73897500D01*
X72801190Y-73897500D01*
X72705952Y-73849880D01*
X72658333Y-73802261D01*
X72610714Y-73707023D01*
X72610714Y-73516547D01*
X72658333Y-73421309D01*
X72610714Y-72516547D02*
X73420238Y-72516547D01*
X73515476Y-72564166D01*
X73563095Y-72611785D01*
X73610714Y-72707023D01*
X73610714Y-72849880D01*
X73563095Y-72945119D01*
X73229761Y-72516547D02*
X73277380Y-72611785D01*
X73277380Y-72802261D01*
X73229761Y-72897500D01*
X73182142Y-72945119D01*
X73086904Y-72992738D01*
X72801190Y-72992738D01*
X72705952Y-72945119D01*
X72658333Y-72897500D01*
X72610714Y-72802261D01*
X72610714Y-72611785D01*
X72658333Y-72516547D01*
X73277380Y-72040357D02*
X72610714Y-72040357D01*
X72277380Y-72040357D02*
X72325000Y-72087976D01*
X72372619Y-72040357D01*
X72325000Y-71992738D01*
X72277380Y-72040357D01*
X72372619Y-72040357D01*
X73277380Y-71421309D02*
X73229761Y-71516547D01*
X73182142Y-71564166D01*
X73086904Y-71611785D01*
X72801190Y-71611785D01*
X72705952Y-71564166D01*
X72658333Y-71516547D01*
X72610714Y-71421309D01*
X72610714Y-71278452D01*
X72658333Y-71183214D01*
X72705952Y-71135595D01*
X72801190Y-71087976D01*
X73086904Y-71087976D01*
X73182142Y-71135595D01*
X73229761Y-71183214D01*
X73277380Y-71278452D01*
X73277380Y-71421309D01*
D10*
X87887142Y-75203571D02*
X87887142Y-73703571D01*
X88387142Y-74775000D01*
X88887142Y-73703571D01*
X88887142Y-75203571D01*
X90101428Y-74417857D02*
X90315714Y-74489285D01*
X90387142Y-74560714D01*
X90458571Y-74703571D01*
X90458571Y-74917857D01*
X90387142Y-75060714D01*
X90315714Y-75132142D01*
X90172857Y-75203571D01*
X89601428Y-75203571D01*
X89601428Y-73703571D01*
X90101428Y-73703571D01*
X90244285Y-73775000D01*
X90315714Y-73846428D01*
X90387142Y-73989285D01*
X90387142Y-74132142D01*
X90315714Y-74275000D01*
X90244285Y-74346428D01*
X90101428Y-74417857D01*
X89601428Y-74417857D01*
X93101428Y-75060714D02*
X93030000Y-75132142D01*
X92815714Y-75203571D01*
X92672857Y-75203571D01*
X92458571Y-75132142D01*
X92315714Y-74989285D01*
X92244285Y-74846428D01*
X92172857Y-74560714D01*
X92172857Y-74346428D01*
X92244285Y-74060714D01*
X92315714Y-73917857D01*
X92458571Y-73775000D01*
X92672857Y-73703571D01*
X92815714Y-73703571D01*
X93030000Y-73775000D01*
X93101428Y-73846428D01*
X93744285Y-75203571D02*
X93744285Y-73703571D01*
X94387142Y-75203571D02*
X94387142Y-74417857D01*
X94315714Y-74275000D01*
X94172857Y-74203571D01*
X93958571Y-74203571D01*
X93815714Y-74275000D01*
X93744285Y-74346428D01*
X95101428Y-75203571D02*
X95101428Y-74203571D01*
X95101428Y-73703571D02*
X95030000Y-73775000D01*
X95101428Y-73846428D01*
X95172857Y-73775000D01*
X95101428Y-73703571D01*
X95101428Y-73846428D01*
X95815714Y-74203571D02*
X95815714Y-75703571D01*
X95815714Y-74275000D02*
X95958571Y-74203571D01*
X96244285Y-74203571D01*
X96387142Y-74275000D01*
X96458571Y-74346428D01*
X96530000Y-74489285D01*
X96530000Y-74917857D01*
X96458571Y-75060714D01*
X96387142Y-75132142D01*
X96244285Y-75203571D01*
X95958571Y-75203571D01*
X95815714Y-75132142D01*
X99172857Y-75203571D02*
X98672857Y-74489285D01*
X98315714Y-75203571D02*
X98315714Y-73703571D01*
X98887142Y-73703571D01*
X99030000Y-73775000D01*
X99101428Y-73846428D01*
X99172857Y-73989285D01*
X99172857Y-74203571D01*
X99101428Y-74346428D01*
X99030000Y-74417857D01*
X98887142Y-74489285D01*
X98315714Y-74489285D01*
X99744285Y-74775000D02*
X100458571Y-74775000D01*
X99601428Y-75203571D02*
X100101428Y-73703571D01*
X100601428Y-75203571D01*
X101101428Y-75203571D02*
X101101428Y-73703571D01*
X101601428Y-74775000D01*
X102101428Y-73703571D01*
X102101428Y-75203571D01*
X87887142Y-76867857D02*
X88387142Y-76867857D01*
X88601428Y-77653571D02*
X87887142Y-77653571D01*
X87887142Y-76153571D01*
X88601428Y-76153571D01*
X89101428Y-77653571D02*
X89887142Y-76653571D01*
X89101428Y-76653571D02*
X89887142Y-77653571D01*
X90458571Y-76653571D02*
X90458571Y-78153571D01*
X90458571Y-76725000D02*
X90601428Y-76653571D01*
X90887142Y-76653571D01*
X91030000Y-76725000D01*
X91101428Y-76796428D01*
X91172857Y-76939285D01*
X91172857Y-77367857D01*
X91101428Y-77510714D01*
X91030000Y-77582142D01*
X90887142Y-77653571D01*
X90601428Y-77653571D01*
X90458571Y-77582142D01*
X92458571Y-77653571D02*
X92458571Y-76867857D01*
X92387142Y-76725000D01*
X92244285Y-76653571D01*
X91958571Y-76653571D01*
X91815714Y-76725000D01*
X92458571Y-77582142D02*
X92315714Y-77653571D01*
X91958571Y-77653571D01*
X91815714Y-77582142D01*
X91744285Y-77439285D01*
X91744285Y-77296428D01*
X91815714Y-77153571D01*
X91958571Y-77082142D01*
X92315714Y-77082142D01*
X92458571Y-77010714D01*
X93172857Y-76653571D02*
X93172857Y-77653571D01*
X93172857Y-76796428D02*
X93244285Y-76725000D01*
X93387142Y-76653571D01*
X93601428Y-76653571D01*
X93744285Y-76725000D01*
X93815714Y-76867857D01*
X93815714Y-77653571D01*
X94458571Y-77582142D02*
X94601428Y-77653571D01*
X94887142Y-77653571D01*
X95030000Y-77582142D01*
X95101428Y-77439285D01*
X95101428Y-77367857D01*
X95030000Y-77225000D01*
X94887142Y-77153571D01*
X94672857Y-77153571D01*
X94530000Y-77082142D01*
X94458571Y-76939285D01*
X94458571Y-76867857D01*
X94530000Y-76725000D01*
X94672857Y-76653571D01*
X94887142Y-76653571D01*
X95030000Y-76725000D01*
X95744285Y-77653571D02*
X95744285Y-76653571D01*
X95744285Y-76153571D02*
X95672857Y-76225000D01*
X95744285Y-76296428D01*
X95815714Y-76225000D01*
X95744285Y-76153571D01*
X95744285Y-76296428D01*
X96672857Y-77653571D02*
X96530000Y-77582142D01*
X96458571Y-77510714D01*
X96387142Y-77367857D01*
X96387142Y-76939285D01*
X96458571Y-76796428D01*
X96530000Y-76725000D01*
X96672857Y-76653571D01*
X96887142Y-76653571D01*
X97030000Y-76725000D01*
X97101428Y-76796428D01*
X97172857Y-76939285D01*
X97172857Y-77367857D01*
X97101428Y-77510714D01*
X97030000Y-77582142D01*
X96887142Y-77653571D01*
X96672857Y-77653571D01*
X97815714Y-76653571D02*
X97815714Y-77653571D01*
X97815714Y-76796428D02*
X97887142Y-76725000D01*
X98030000Y-76653571D01*
X98244285Y-76653571D01*
X98387142Y-76725000D01*
X98458571Y-76867857D01*
X98458571Y-77653571D01*
D13*
X82020000Y-83250000D02*
X82020000Y-84520000D01*
X82020000Y-84520000D02*
X80750000Y-84520000D01*
X90696267Y-69690000D02*
X90353733Y-69690000D01*
X90696267Y-70710000D02*
X90353733Y-70710000D01*
X87071267Y-62890000D02*
X86728733Y-62890000D01*
X87071267Y-63910000D02*
X86728733Y-63910000D01*
X106053733Y-51110000D02*
X106396267Y-51110000D01*
X106053733Y-50090000D02*
X106396267Y-50090000D01*
X106053733Y-63810000D02*
X106396267Y-63810000D01*
X106053733Y-62790000D02*
X106396267Y-62790000D01*
X101690000Y-70853733D02*
X101690000Y-71196267D01*
X102710000Y-70853733D02*
X102710000Y-71196267D01*
X101690000Y-67935000D02*
X102850000Y-67935000D01*
X101690000Y-68315000D02*
X101690000Y-67935000D01*
X96500000Y-68315000D02*
X101690000Y-68315000D01*
X91310000Y-68315000D02*
X91310000Y-67935000D01*
X96500000Y-68315000D02*
X91310000Y-68315000D01*
X101690000Y-49685000D02*
X101690000Y-50065000D01*
X96500000Y-49685000D02*
X101690000Y-49685000D01*
X91310000Y-49685000D02*
X91310000Y-50065000D01*
X96500000Y-49685000D02*
X91310000Y-49685000D01*
X90980000Y-34980000D02*
X92250000Y-34980000D01*
X90980000Y-36250000D02*
X90980000Y-34980000D01*
X93292929Y-39170000D02*
X93690000Y-39170000D01*
X93292929Y-38410000D02*
X93690000Y-38410000D01*
X102350000Y-39170000D02*
X96350000Y-39170000D01*
X102350000Y-38410000D02*
X102350000Y-39170000D01*
X96350000Y-38410000D02*
X102350000Y-38410000D01*
X93690000Y-37520000D02*
X96350000Y-37520000D01*
X93360000Y-36630000D02*
X93690000Y-36630000D01*
X93360000Y-35870000D02*
X93690000Y-35870000D01*
X96350000Y-36530000D02*
X102350000Y-36530000D01*
X96350000Y-36410000D02*
X102350000Y-36410000D01*
X96350000Y-36290000D02*
X102350000Y-36290000D01*
X96350000Y-36170000D02*
X102350000Y-36170000D01*
X96350000Y-36050000D02*
X102350000Y-36050000D01*
X96350000Y-35930000D02*
X102350000Y-35930000D01*
X102350000Y-36630000D02*
X96350000Y-36630000D01*
X102350000Y-35870000D02*
X102350000Y-36630000D01*
X96350000Y-35870000D02*
X102350000Y-35870000D01*
X96350000Y-34920000D02*
X93690000Y-34920000D01*
X96350000Y-40120000D02*
X96350000Y-34920000D01*
X93690000Y-40120000D02*
X96350000Y-40120000D01*
X93690000Y-34920000D02*
X93690000Y-40120000D01*
D11*
X90809523Y-48292380D02*
X91476190Y-49292380D01*
X91476190Y-48292380D02*
X90809523Y-49292380D01*
X92428571Y-49292380D02*
X92095238Y-48816190D01*
X91857142Y-49292380D02*
X91857142Y-48292380D01*
X92238095Y-48292380D01*
X92333333Y-48340000D01*
X92380952Y-48387619D01*
X92428571Y-48482857D01*
X92428571Y-48625714D01*
X92380952Y-48720952D01*
X92333333Y-48768571D01*
X92238095Y-48816190D01*
X91857142Y-48816190D01*
X92809523Y-49006666D02*
X93285714Y-49006666D01*
X92714285Y-49292380D02*
X93047619Y-48292380D01*
X93380952Y-49292380D01*
X93666666Y-49244761D02*
X93809523Y-49292380D01*
X94047619Y-49292380D01*
X94142857Y-49244761D01*
X94190476Y-49197142D01*
X94238095Y-49101904D01*
X94238095Y-49006666D01*
X94190476Y-48911428D01*
X94142857Y-48863809D01*
X94047619Y-48816190D01*
X93857142Y-48768571D01*
X93761904Y-48720952D01*
X93714285Y-48673333D01*
X93666666Y-48578095D01*
X93666666Y-48482857D01*
X93714285Y-48387619D01*
X93761904Y-48340000D01*
X93857142Y-48292380D01*
X94095238Y-48292380D01*
X94238095Y-48340000D01*
X94952380Y-49673333D02*
X94904761Y-49625714D01*
X94809523Y-49482857D01*
X94761904Y-49387619D01*
X94714285Y-49244761D01*
X94666666Y-49006666D01*
X94666666Y-48816190D01*
X94714285Y-48578095D01*
X94761904Y-48435238D01*
X94809523Y-48340000D01*
X94904761Y-48197142D01*
X94952380Y-48149523D01*
X95523809Y-48292380D02*
X95619047Y-48292380D01*
X95714285Y-48340000D01*
X95761904Y-48387619D01*
X95809523Y-48482857D01*
X95857142Y-48673333D01*
X95857142Y-48911428D01*
X95809523Y-49101904D01*
X95761904Y-49197142D01*
X95714285Y-49244761D01*
X95619047Y-49292380D01*
X95523809Y-49292380D01*
X95428571Y-49244761D01*
X95380952Y-49197142D01*
X95333333Y-49101904D01*
X95285714Y-48911428D01*
X95285714Y-48673333D01*
X95333333Y-48482857D01*
X95380952Y-48387619D01*
X95428571Y-48340000D01*
X95523809Y-48292380D01*
X96190476Y-49673333D02*
X96238095Y-49625714D01*
X96333333Y-49482857D01*
X96380952Y-49387619D01*
X96428571Y-49244761D01*
X96476190Y-49006666D01*
X96476190Y-48816190D01*
X96428571Y-48578095D01*
X96380952Y-48435238D01*
X96333333Y-48340000D01*
X96238095Y-48197142D01*
X96190476Y-48149523D01*
X98190476Y-48292380D02*
X97714285Y-48292380D01*
X97666666Y-48768571D01*
X97714285Y-48720952D01*
X97809523Y-48673333D01*
X98047619Y-48673333D01*
X98142857Y-48720952D01*
X98190476Y-48768571D01*
X98238095Y-48863809D01*
X98238095Y-49101904D01*
X98190476Y-49197142D01*
X98142857Y-49244761D01*
X98047619Y-49292380D01*
X97809523Y-49292380D01*
X97714285Y-49244761D01*
X97666666Y-49197142D01*
X99190476Y-49292380D02*
X98619047Y-49292380D01*
X98904761Y-49292380D02*
X98904761Y-48292380D01*
X98809523Y-48435238D01*
X98714285Y-48530476D01*
X98619047Y-48578095D01*
X99571428Y-48387619D02*
X99619047Y-48340000D01*
X99714285Y-48292380D01*
X99952380Y-48292380D01*
X100047619Y-48340000D01*
X100095238Y-48387619D01*
X100142857Y-48482857D01*
X100142857Y-48578095D01*
X100095238Y-48720952D01*
X99523809Y-49292380D01*
X100142857Y-49292380D01*
X100571428Y-49292380D02*
X100571428Y-48292380D01*
X101142857Y-49292380D02*
X100714285Y-48720952D01*
X101142857Y-48292380D02*
X100571428Y-48863809D01*
X101904761Y-48768571D02*
X102047619Y-48816190D01*
X102095238Y-48863809D01*
X102142857Y-48959047D01*
X102142857Y-49101904D01*
X102095238Y-49197142D01*
X102047619Y-49244761D01*
X101952380Y-49292380D01*
X101571428Y-49292380D01*
X101571428Y-48292380D01*
X101904761Y-48292380D01*
X102000000Y-48340000D01*
X102047619Y-48387619D01*
X102095238Y-48482857D01*
X102095238Y-48578095D01*
X102047619Y-48673333D01*
X102000000Y-48720952D01*
X101904761Y-48768571D01*
X101571428Y-48768571D01*
X97738095Y-37428571D02*
X98071428Y-37428571D01*
X98214285Y-37952380D02*
X97738095Y-37952380D01*
X97738095Y-36952380D01*
X98214285Y-36952380D01*
X98642857Y-37285714D02*
X98642857Y-37952380D01*
X98642857Y-37380952D02*
X98690476Y-37333333D01*
X98785714Y-37285714D01*
X98928571Y-37285714D01*
X99023809Y-37333333D01*
X99071428Y-37428571D01*
X99071428Y-37952380D01*
X99976190Y-37952380D02*
X99976190Y-37428571D01*
X99928571Y-37333333D01*
X99833333Y-37285714D01*
X99642857Y-37285714D01*
X99547619Y-37333333D01*
X99976190Y-37904761D02*
X99880952Y-37952380D01*
X99642857Y-37952380D01*
X99547619Y-37904761D01*
X99500000Y-37809523D01*
X99500000Y-37714285D01*
X99547619Y-37619047D01*
X99642857Y-37571428D01*
X99880952Y-37571428D01*
X99976190Y-37523809D01*
X100452380Y-37952380D02*
X100452380Y-36952380D01*
X100452380Y-37333333D02*
X100547619Y-37285714D01*
X100738095Y-37285714D01*
X100833333Y-37333333D01*
X100880952Y-37380952D01*
X100928571Y-37476190D01*
X100928571Y-37761904D01*
X100880952Y-37857142D01*
X100833333Y-37904761D01*
X100738095Y-37952380D01*
X100547619Y-37952380D01*
X100452380Y-37904761D01*
X101500000Y-37952380D02*
X101404761Y-37904761D01*
X101357142Y-37809523D01*
X101357142Y-36952380D01*
X102261904Y-37904761D02*
X102166666Y-37952380D01*
X101976190Y-37952380D01*
X101880952Y-37904761D01*
X101833333Y-37809523D01*
X101833333Y-37428571D01*
X101880952Y-37333333D01*
X101976190Y-37285714D01*
X102166666Y-37285714D01*
X102261904Y-37333333D01*
X102309523Y-37428571D01*
X102309523Y-37523809D01*
X101833333Y-37619047D01*
M02*
