G04 #@! TF.GenerationSoftware,KiCad,Pcbnew,(5.1.4-0-10_14)*
G04 #@! TF.CreationDate,2019-11-29T22:31:08-05:00*
G04 #@! TF.ProjectId,a500plus-chipram-expansion,61353030-706c-4757-932d-636869707261,rev?*
G04 #@! TF.SameCoordinates,Original*
G04 #@! TF.FileFunction,Legend,Bot*
G04 #@! TF.FilePolarity,Positive*
%FSLAX46Y46*%
G04 Gerber Fmt 4.6, Leading zero omitted, Abs format (unit mm)*
G04 Created by KiCad (PCBNEW (5.1.4-0-10_14)) date 2019-11-29 22:31:08*
%MOMM*%
%LPD*%
G04 APERTURE LIST*
%ADD10C,0.120000*%
%ADD11C,0.150000*%
G04 APERTURE END LIST*
D10*
X89396267Y-48410000D02*
X89053733Y-48410000D01*
X89396267Y-47390000D02*
X89053733Y-47390000D01*
X91297500Y-67935000D02*
X90137500Y-67935000D01*
X91297500Y-68315000D02*
X91297500Y-67935000D01*
X96487500Y-68315000D02*
X91297500Y-68315000D01*
X101677500Y-68315000D02*
X101677500Y-67935000D01*
X96487500Y-68315000D02*
X101677500Y-68315000D01*
X91297500Y-49685000D02*
X91297500Y-50065000D01*
X96487500Y-49685000D02*
X91297500Y-49685000D01*
X101677500Y-49685000D02*
X101677500Y-50065000D01*
X96487500Y-49685000D02*
X101677500Y-49685000D01*
D11*
X102177976Y-48292380D02*
X101511309Y-49292380D01*
X101511309Y-48292380D02*
X102177976Y-49292380D01*
X100558928Y-49292380D02*
X100892261Y-48816190D01*
X101130357Y-49292380D02*
X101130357Y-48292380D01*
X100749404Y-48292380D01*
X100654166Y-48340000D01*
X100606547Y-48387619D01*
X100558928Y-48482857D01*
X100558928Y-48625714D01*
X100606547Y-48720952D01*
X100654166Y-48768571D01*
X100749404Y-48816190D01*
X101130357Y-48816190D01*
X100177976Y-49006666D02*
X99701785Y-49006666D01*
X100273214Y-49292380D02*
X99939880Y-48292380D01*
X99606547Y-49292380D01*
X99320833Y-49244761D02*
X99177976Y-49292380D01*
X98939880Y-49292380D01*
X98844642Y-49244761D01*
X98797023Y-49197142D01*
X98749404Y-49101904D01*
X98749404Y-49006666D01*
X98797023Y-48911428D01*
X98844642Y-48863809D01*
X98939880Y-48816190D01*
X99130357Y-48768571D01*
X99225595Y-48720952D01*
X99273214Y-48673333D01*
X99320833Y-48578095D01*
X99320833Y-48482857D01*
X99273214Y-48387619D01*
X99225595Y-48340000D01*
X99130357Y-48292380D01*
X98892261Y-48292380D01*
X98749404Y-48340000D01*
X98035119Y-49673333D02*
X98082738Y-49625714D01*
X98177976Y-49482857D01*
X98225595Y-49387619D01*
X98273214Y-49244761D01*
X98320833Y-49006666D01*
X98320833Y-48816190D01*
X98273214Y-48578095D01*
X98225595Y-48435238D01*
X98177976Y-48340000D01*
X98082738Y-48197142D01*
X98035119Y-48149523D01*
X97130357Y-49292380D02*
X97701785Y-49292380D01*
X97416071Y-49292380D02*
X97416071Y-48292380D01*
X97511309Y-48435238D01*
X97606547Y-48530476D01*
X97701785Y-48578095D01*
X96797023Y-49673333D02*
X96749404Y-49625714D01*
X96654166Y-49482857D01*
X96606547Y-49387619D01*
X96558928Y-49244761D01*
X96511309Y-49006666D01*
X96511309Y-48816190D01*
X96558928Y-48578095D01*
X96606547Y-48435238D01*
X96654166Y-48340000D01*
X96749404Y-48197142D01*
X96797023Y-48149523D01*
X94797023Y-48292380D02*
X95273214Y-48292380D01*
X95320833Y-48768571D01*
X95273214Y-48720952D01*
X95177976Y-48673333D01*
X94939880Y-48673333D01*
X94844642Y-48720952D01*
X94797023Y-48768571D01*
X94749404Y-48863809D01*
X94749404Y-49101904D01*
X94797023Y-49197142D01*
X94844642Y-49244761D01*
X94939880Y-49292380D01*
X95177976Y-49292380D01*
X95273214Y-49244761D01*
X95320833Y-49197142D01*
X93797023Y-49292380D02*
X94368452Y-49292380D01*
X94082738Y-49292380D02*
X94082738Y-48292380D01*
X94177976Y-48435238D01*
X94273214Y-48530476D01*
X94368452Y-48578095D01*
X93416071Y-48387619D02*
X93368452Y-48340000D01*
X93273214Y-48292380D01*
X93035119Y-48292380D01*
X92939880Y-48340000D01*
X92892261Y-48387619D01*
X92844642Y-48482857D01*
X92844642Y-48578095D01*
X92892261Y-48720952D01*
X93463690Y-49292380D01*
X92844642Y-49292380D01*
X92416071Y-49292380D02*
X92416071Y-48292380D01*
X91844642Y-49292380D02*
X92273214Y-48720952D01*
X91844642Y-48292380D02*
X92416071Y-48863809D01*
X91082738Y-48768571D02*
X90939880Y-48816190D01*
X90892261Y-48863809D01*
X90844642Y-48959047D01*
X90844642Y-49101904D01*
X90892261Y-49197142D01*
X90939880Y-49244761D01*
X91035119Y-49292380D01*
X91416071Y-49292380D01*
X91416071Y-48292380D01*
X91082738Y-48292380D01*
X90987500Y-48340000D01*
X90939880Y-48387619D01*
X90892261Y-48482857D01*
X90892261Y-48578095D01*
X90939880Y-48673333D01*
X90987500Y-48720952D01*
X91082738Y-48768571D01*
X91416071Y-48768571D01*
M02*
